<?xml version="1.0" encoding="UTF-8" standalone="no"?><!DOCTYPE svg PUBLIC "-//W3C//DTD SVG 1.1//EN" "http://www.w3.org/Graphics/SVG/1.1/DTD/svg11.dtd"><svg width="100%" height="100%" viewBox="0 0 417 417" version="1.1" xmlns="http://www.w3.org/2000/svg" xmlns:xlink="http://www.w3.org/1999/xlink" xml:space="preserve" xmlns:serif="http://www.serif.com/" style="fill-rule:evenodd;clip-rule:evenodd;stroke-linejoin:round;stroke-miterlimit:2;"><g><path d="M205.528,411.077l3.113,0.789l3.111,-0.794c185.476,-47.285 256.027,-256.337 142.036,-398.941l-5.691,-7.12l-8.552,3.155c-45.632,16.839 -103.487,8.253 -126.656,-0.041l-4.192,-1.502l-4.208,1.46c-41.092,14.258 -97.318,11.754 -126.491,0.191l-8.763,-3.473l-5.825,7.41c-115.364,146.737 -43.093,351.953 142.118,398.866Z" style="fill:url(#_Linear1);"/><path d="M208.03,398.829c-175.944,-44.566 -244.879,-239.413 -135.288,-378.809c31.202,12.367 91.338,15.249 135.288,0c24.748,8.86 86.546,17.986 135.289,0c108.276,135.455 40.889,333.894 -135.289,378.809Z" style="fill:url(#_Linear2);"/><path d="M138.156,106.384l-0,54.408l23.217,0c7.885,-0.496 9.089,-3.291 13.009,-15.466c0.143,-0.445 0.557,-0.746 1.024,-0.746c2.293,-0 8.977,-0 11.492,-0c0.537,-0 0.972,0.435 0.972,0.972c0,5.866 0,36.51 0,43.027c0,0.673 -0.546,1.219 -1.219,1.219c-2.712,0 -9.175,0 -11.322,0c-0.422,0 -0.795,-0.273 -0.923,-0.675c-3.157,-9.942 -4.63,-15.431 -13.033,-15.107l-23.217,-0l-0,60.061l33.513,-0c14.869,0.105 16.647,-7.744 22.736,-27.995c0.173,-0.575 0.702,-0.969 1.301,-0.969c2.551,0 9.241,0 11.874,0c0.283,0 0.554,0.117 0.748,0.322c0.195,0.205 0.296,0.482 0.281,0.764c-0.317,5.861 -1.821,33.686 -2.151,39.808c-0.037,0.668 -0.59,1.192 -1.259,1.192c-10.84,0 -92.034,0 -102.809,0c-0.651,0 -1.179,-0.528 -1.179,-1.179c-0,-1.698 -0,-4.794 -0,-6.312c0,-0.525 0.348,-0.986 0.852,-1.131c9.977,-2.862 11.838,-3.776 12.069,-17.926l-0,-99.867c-0.171,-15.828 -2.894,-16.346 -11.82,-18.529c-0.644,-0.151 -1.099,-0.726 -1.099,-1.387c-0.002,-1.652 -0.002,-4.729 -0.002,-6.35c-0,-0.586 0.475,-1.062 1.061,-1.062c10.362,0 93.322,0 104.145,0c0.308,0 0.604,0.123 0.822,0.341c0.218,0.218 0.34,0.514 0.34,0.822c0,5.447 0,28.416 0,34.069c0,0.334 -0.133,0.655 -0.369,0.891c-0.236,0.237 -0.557,0.369 -0.892,0.369c-2.763,0 -9.287,0 -11.551,0c-0.474,0 -0.896,-0.297 -1.056,-0.743c-6.471,-18.097 -8.583,-22.766 -22.042,-22.821l-33.513,0Z" style="fill:#fff;"/><path d="M209.425,161.754l51.747,-0c43.853,-0.213 56.997,16.245 57.197,41.86c0.299,38.278 -28.733,51.898 -72.077,47.685l0,37.821c-0.132,13.232 3.505,16.669 14.88,18.118l0,8.544l-51.747,-0l0,-8.544c9.976,-2.567 12.858,-2.43 13.023,-18.84l-0,-99.75c-0.036,-16.828 -4.676,-15.833 -13.023,-17.955l0,-8.939Zm36.867,13.463l0,63.55c33.968,2.051 47.805,-7.052 46.832,-33.606c-0.938,-25.601 -13.867,-31.753 -46.832,-29.944Z" style="fill:#fff;"/></g><defs><linearGradient id="_Linear1" x1="0" y1="0" x2="1" y2="0" gradientUnits="userSpaceOnUse" gradientTransform="matrix(2.31953e-14,378.809,-382.664,2.34314e-14,208.631,20.0202)"><stop offset="0" style="stop-color:#fff;stop-opacity:1"/><stop offset="0.51" style="stop-color:#d7d8d9;stop-opacity:1"/><stop offset="0.52" style="stop-color:#9c9ca4;stop-opacity:1"/><stop offset="1" style="stop-color:#ddd;stop-opacity:1"/></linearGradient><linearGradient id="_Linear2" x1="0" y1="0" x2="1" y2="0" gradientUnits="userSpaceOnUse" gradientTransform="matrix(2.31953e-14,378.809,-382.664,2.34314e-14,208.031,20.0202)"><stop offset="0" style="stop-color:#512f86;stop-opacity:1"/><stop offset="1" style="stop-color:#382766;stop-opacity:1"/></linearGradient></defs></svg>