<?xml version="1.0" encoding="UTF-8" standalone="no"?><!DOCTYPE svg PUBLIC "-//W3C//DTD SVG 1.1//EN" "http://www.w3.org/Graphics/SVG/1.1/DTD/svg11.dtd"><svg width="100%" height="100%" viewBox="0 0 650 400" version="1.1" xmlns="http://www.w3.org/2000/svg" xmlns:xlink="http://www.w3.org/1999/xlink" xml:space="preserve" xmlns:serif="http://www.serif.com/" style="fill-rule:evenodd;clip-rule:evenodd;stroke-linecap:round;stroke-linejoin:round;stroke-miterlimit:1.5;"><rect id="Artboard1" x="0" y="0" width="650" height="400" style="fill:none;"/><clipPath id="_clip1"><rect x="0" y="0" width="650" height="400"/></clipPath><g clip-path="url(#_clip1)"><g><path d="M371.687,-76.438c-12.888,-11.349 -32.565,-10.1 -43.914,2.788l-304.679,345.982c-11.349,12.887 -10.1,32.564 2.787,43.913l212.75,187.352c12.887,11.349 32.564,10.1 43.913,-2.787l304.68,-345.982c11.349,-12.888 10.1,-32.565 -2.788,-43.914l-212.749,-187.352Z" style="fill:#f0f0f0;"/><path d="M361.485,-58.998c-6.345,-5.587 -16.033,-4.972 -21.621,1.373l-299.345,339.925c-5.588,6.345 -4.973,16.033 1.372,21.621l206.941,182.236c6.346,5.588 16.034,4.973 21.621,-1.372l299.345,-339.925c5.588,-6.345 4.973,-16.033 -1.372,-21.621l-206.941,-182.237Z" style="fill:none;stroke:#fff;stroke-width:8.42px;"/></g><g><path d="M574.054,-9.348c-8.586,-14.872 -27.631,-19.975 -42.502,-11.389l-399.249,230.507c-14.872,8.586 -19.975,27.631 -11.389,42.502l141.742,245.505c8.586,14.871 27.631,19.974 42.503,11.388l399.249,-230.506c14.871,-8.586 19.974,-27.631 11.388,-42.503l-141.742,-245.504Z" style="fill:#ddd;"/><path d="M558.816,3.919c-4.228,-7.323 -13.605,-9.835 -20.927,-5.608l-392.259,226.471c-7.322,4.228 -9.835,13.605 -5.607,20.927l137.872,238.801c4.227,7.322 13.604,9.835 20.926,5.607l392.259,-226.471c7.322,-4.227 9.835,-13.604 5.608,-20.926l-137.872,-238.801Z" style="fill:none;stroke:#fff;stroke-width:8.42px;"/></g><path d="M390.14,263.038l79.849,-83.176l7.214,6.926l-79.849,83.176c1.978,4.605 1.15,10.148 -2.536,13.988l-77.171,80.387c-4.914,5.119 -13.06,5.285 -18.179,0.371c-5.12,-4.914 -5.286,-13.061 -0.372,-18.18l77.171,-80.386c3.687,-3.84 9.192,-4.894 13.873,-3.106Zm-78.305,88.789c1.99,1.912 2.055,5.08 0.144,7.07c-1.911,1.991 -5.079,2.056 -7.07,0.145c-1.991,-1.912 -2.055,-5.079 -0.144,-7.07c1.911,-1.991 5.079,-2.056 7.07,-0.145Zm191.648,-139.811l-59.774,-57.383l64.803,-67.504c7.918,-8.248 21.042,-8.515 29.29,-0.598l29.887,28.692c8.248,7.918 8.516,21.042 0.598,29.289l-64.804,67.504Zm59.912,-74.695c1.104,-1.15 1.066,-2.98 -0.084,-4.084c-1.15,-1.104 -2.98,-1.067 -4.084,0.083l-57.618,60.02c-1.104,1.15 -1.067,2.98 0.083,4.084c1.15,1.104 2.98,1.067 4.084,-0.083l57.619,-60.02Zm-2.546,-11.788c1.104,-1.15 1.066,-2.98 -0.084,-4.084c-1.15,-1.104 -2.98,-1.067 -4.084,0.083l-62.287,64.883c-1.104,1.15 -1.066,2.98 0.084,4.084c1.15,1.104 2.98,1.066 4.084,-0.084l62.287,-64.882Zm-7.214,-6.926c1.104,-1.15 1.066,-2.98 -0.084,-4.084c-1.15,-1.104 -2.98,-1.067 -4.084,0.083l-62.287,64.883c-1.104,1.15 -1.066,2.98 0.084,4.084c1.15,1.104 2.98,1.067 4.084,-0.083l62.287,-64.883Zm-7.215,-6.926c1.104,-1.15 1.067,-2.98 -0.083,-4.084c-1.15,-1.104 -2.98,-1.066 -4.084,0.084l-62.287,64.882c-1.104,1.151 -1.067,2.98 0.083,4.085c1.15,1.104 2.98,1.066 4.084,-0.084l62.287,-64.883Zm-7.259,-6.968c1.104,-1.15 1.067,-2.98 -0.083,-4.084c-1.15,-1.104 -2.98,-1.067 -4.084,0.083l-62.287,64.883c-1.104,1.15 -1.067,2.98 0.083,4.084c1.15,1.104 2.98,1.066 4.084,-0.084l62.287,-64.882Zm-7.214,-6.926c1.104,-1.15 1.067,-2.98 -0.083,-4.084c-1.15,-1.104 -2.98,-1.067 -4.084,0.084l-62.287,64.882c-1.104,1.15 -1.067,2.98 0.083,4.084c1.15,1.104 2.98,1.067 4.084,-0.083l62.287,-64.883Zm-11.882,-2.063c1.104,-1.15 1.066,-2.98 -0.084,-4.084c-1.15,-1.104 -2.98,-1.066 -4.084,0.084l-57.618,60.02c-1.104,1.15 -1.067,2.98 0.083,4.084c1.15,1.104 2.98,1.066 4.084,-0.084l57.619,-60.02Z" style="fill:#fff;"/><g><path d="M483.198,303.91c-0.128,4.195 -2.305,8.247 -6.152,10.595l-95.114,58.057c-6.057,3.697 -13.977,1.781 -17.674,-4.276c-3.697,-6.057 -1.781,-13.977 4.276,-17.674l95.114,-58.056c3.847,-2.349 8.446,-2.433 12.236,-0.629l7.314,11.983Zm-103.697,55.072c1.438,2.355 0.693,5.435 -1.663,6.873c-2.356,1.438 -5.435,0.693 -6.873,-1.663c-1.438,-2.355 -0.693,-5.435 1.663,-6.873c2.355,-1.438 5.435,-0.693 6.873,1.663Zm146.62,-61.53l-24.872,-40.749l-3.767,4.797l22.651,37.11l5.988,-1.158Z" style="fill:#fff;"/><path d="M473.444,301.64c0,0 92.684,-11.87 123.886,-30.915c17.975,-10.972 23.661,-34.473 12.689,-52.449c-10.972,-17.975 -34.473,-23.661 -52.449,-12.689c-31.201,19.045 -84.126,96.053 -84.126,96.053Z" style="fill:none;stroke:#fff;stroke-width:3px;"/><path d="M473.444,301.64c0,0 85.241,-24.064 116.442,-43.109c17.976,-10.972 26.997,-29.01 20.133,-40.255c-6.864,-11.245 -27.03,-11.467 -45.005,-0.495c-31.202,19.045 -91.57,83.859 -91.57,83.859Z" style="fill:none;stroke:#fff;stroke-width:3px;"/><path d="M473.444,301.64c0,0 77.053,-37.478 108.255,-56.523c17.975,-10.972 30.665,-22.999 28.32,-26.841c-2.345,-3.842 -18.843,1.947 -36.818,12.919c-31.202,19.045 -99.757,70.445 -99.757,70.445Z" style="fill:none;stroke:#fff;stroke-width:3px;"/></g><path d="M383.515,192.502c3.251,-5.379 5.342,-7.712 6.274,-7c1.275,0.878 -0.519,4.715 -3.174,9.381c-6.633,11.628 -18.169,24.161 -50.289,40.49c-11.408,6.257 -25.242,32.373 -39.296,60.293c-17.896,33.849 -35.597,63.99 -51.627,62.23l-0.056,-0.076c-9.416,-13.045 7.809,-43.39 28.135,-75.75c17.152,-26.131 32.853,-51.169 32.567,-64.177c-1.918,-35.982 3.167,-52.238 9.921,-63.797c2.714,-4.632 5.14,-8.104 6.537,-7.439c0.88,0.366 0.402,2.399 -1.434,6.099l0.001,-0.002l5.667,-1.518l56.857,32.826l1.518,5.667l-1.601,2.773Zm-65.261,-34.284c-5.895,13.167 -13.736,50.577 4.876,65.051l0.136,0.055c21.894,8.749 50.385,-16.86 58.719,-28.472l-5.462,1.463l-56.856,-32.826l-1.413,-5.271Zm61.739,33.581l-58.15,-33.573l0.784,2.928l54.438,31.43l2.928,-0.785Zm-53.794,-36.831l-2.927,0.784l58.149,33.573l-0.784,-2.928l-54.438,-31.429Z" style="fill:#fff;"/></g></svg>