<?xml version="1.0" encoding="UTF-8" standalone="no"?><!DOCTYPE svg PUBLIC "-//W3C//DTD SVG 1.1//EN" "http://www.w3.org/Graphics/SVG/1.1/DTD/svg11.dtd"><svg width="100%" height="100%" viewBox="0 0 650 400" version="1.1" xmlns="http://www.w3.org/2000/svg" xmlns:xlink="http://www.w3.org/1999/xlink" xml:space="preserve" xmlns:serif="http://www.serif.com/" style="fill-rule:evenodd;clip-rule:evenodd;stroke-linejoin:round;stroke-miterlimit:1.41421;"><path d="M598.12,20.523c3.212,24.142 6.377,48.37 8.525,73.312c1.605,18.642 3.182,37.39 3.409,61.377c-0.777,14.457 -2.161,29.039 -15.344,46.033c-5.386,7.368 -12.313,14.693 -14.225,25.239c-4.643,25.609 -4.259,60.738 -2.174,105.426c0.234,13.144 6.142,28.213 16.399,29.598c10.198,1.376 16.684,2.659 20.576,3.878c3.811,0.916 4.32,2.933 4.061,5.701c-1.074,4.581 -21.699,7.582 -46.808,7.474c-25.108,0.108 -45.734,-2.893 -46.807,-7.474c-0.26,-2.768 0.249,-4.785 4.06,-5.701c3.892,-1.219 10.378,-2.502 20.576,-3.878c10.258,-1.385 16.166,-16.454 16.399,-29.598c2.085,-44.688 2.47,-79.817 -2.174,-105.426c-1.891,-10.43 -8.838,-17.871 -14.225,-25.239c-13.183,-16.994 -14.567,-31.576 -15.344,-46.033c0.227,-23.987 1.805,-42.735 3.41,-61.377c2.259,-26.247 5.312,-49.17 8.524,-73.312l51.162,0Z" style="fill:#e9e9e9;"/><clipPath id="_clip1"><path d="M598.12,20.523c3.212,24.142 6.377,48.37 8.525,73.312c1.605,18.642 3.182,37.39 3.409,61.377c-0.777,14.457 -2.161,29.039 -15.344,46.033c-5.386,7.368 -12.313,14.693 -14.225,25.239c-4.643,25.609 -4.259,60.738 -2.174,105.426c0.234,13.144 6.142,28.213 16.399,29.598c10.198,1.376 16.684,2.659 20.576,3.878c3.811,0.916 4.32,2.933 4.061,5.701c-1.074,4.581 -21.699,7.582 -46.808,7.474c-25.108,0.108 -45.734,-2.893 -46.807,-7.474c-0.26,-2.768 0.249,-4.785 4.06,-5.701c3.892,-1.219 10.378,-2.502 20.576,-3.878c10.258,-1.385 16.166,-16.454 16.399,-29.598c2.085,-44.688 2.47,-79.817 -2.174,-105.426c-1.891,-10.43 -8.838,-17.871 -14.225,-25.239c-13.183,-16.994 -14.567,-31.576 -15.344,-46.033c0.227,-23.987 1.805,-42.735 3.41,-61.377c2.259,-26.247 5.312,-49.17 8.524,-73.312l51.162,0Z"/></clipPath><g clip-path="url(#_clip1)"><path d="M572.539,205.21c-7.939,-0.106 -14.718,-6.437 -17.371,-10.597c-10.743,-15.869 -12.318,-26.194 -12.951,-39.694c-0.976,-20.789 0.576,-48.159 1.884,-65.567c1.841,-24.509 4.652,-46.1 7.09,-68.829l43.466,0c2.439,22.729 4.479,44.321 6.32,68.829c1.308,17.408 3.146,44.778 2.17,65.567c-0.633,13.5 -2.494,23.825 -13.236,39.694c-2.654,4.16 -9.433,10.704 -17.372,10.597Z" style="fill:#f5f5f5;"/><clipPath id="_clip2"><path d="M572.539,205.21c-7.939,-0.106 -14.718,-6.437 -17.371,-10.597c-10.743,-15.869 -12.318,-26.194 -12.951,-39.694c-0.976,-20.789 0.576,-48.159 1.884,-65.567c1.841,-24.509 4.652,-46.1 7.09,-68.829l43.466,0c2.439,22.729 4.479,44.321 6.32,68.829c1.308,17.408 3.146,44.778 2.17,65.567c-0.633,13.5 -2.494,23.825 -13.236,39.694c-2.654,4.16 -9.433,10.704 -17.372,10.597Z"/></clipPath><g clip-path="url(#_clip2)"><path d="M610.482,101.899c-9.114,-9.618 -26.526,-5.156 -37.879,0c-13.537,6.148 -27.952,12.594 -37.879,0l-19.019,0l0,417.803l116.536,0l0,-417.803l-21.759,0Z" style="fill:#c3c3c3;"/><path d="M582.668,25.678l0.331,3.167l0.368,3.526l0.365,3.502l0.361,3.478l0.356,3.451l0.351,3.427l0.347,3.4l0.193,1.912l0.146,1.462l0.167,1.678l0.165,1.67l0.163,1.664l0.162,1.657l0.16,1.65l0.159,1.643l0.157,1.636l0.155,1.63l0.153,1.622l0.152,1.615l0.15,1.608l0.148,1.601l0.145,1.594l0.144,1.586l0.142,1.579l0.14,1.572l0.137,1.564l0.136,1.557l0.082,0.962l0.05,0.587l0.128,1.542l0.126,1.535l0.124,1.527l0.121,1.519l0.119,1.511l0.117,1.504l0.113,1.496l0.112,1.488l0.109,1.48l0.106,1.472l0.026,0.367l0.075,1.097l0.098,1.456l0.096,1.449l0.092,1.44l0.09,1.431l0.086,1.424l0.084,1.415l0.081,1.407l0.078,1.399l0.075,1.39l0.07,1.36l0.001,0.022l0.065,1.374l0.061,1.365l0.059,1.356l0.055,1.347l0.026,0.671l0.026,0.669l0.024,0.666l0.024,0.664l0.023,0.662l0.022,0.659l0.021,0.658l0.021,0.655l0.019,0.653l0.019,0.651l0.017,0.648l0.017,0.647l0.011,0.433l0.004,0.211l0.014,0.642l0.012,0.639l0.011,0.638l0.01,0.635l0.01,0.633l0.008,0.63l0.008,0.628l0.007,0.626l0.005,0.624l0.002,0.222l0.002,0.4l0.002,0.619l0.001,0.616l0,0.615l-0.001,0.612l-0.001,0.61l-0.003,0.607l-0.004,0.605l-0.005,0.603l-0.002,0.205l-0.005,0.395l-0.01,0.599l-0.011,0.595l-0.012,0.593l-0.012,0.591l-0.014,0.589l-0.015,0.586l-0.016,0.584l-0.002,0.095l-0.017,0.486l-0.022,0.578l-0.022,0.577l-0.023,0.574l-0.024,0.571l-0.026,0.569l-0.026,0.567l-0.028,0.564l-0.005,0.104l-0.027,0.457l-0.034,0.559l-0.034,0.556l-0.036,0.554l-0.037,0.552l-0.038,0.549l-0.04,0.546l-0.04,0.544l-0.041,0.541l-0.042,0.539l-0.044,0.536l-0.044,0.534l-0.046,0.531l-0.047,0.529l-0.048,0.526l-0.048,0.523l-0.033,0.339l-0.019,0.182l-0.056,0.518l-0.057,0.515l-0.057,0.513l-0.059,0.51l-0.061,0.507l-0.061,0.505l-0.062,0.502l-0.064,0.499l-0.064,0.497l-0.066,0.494l-0.067,0.492l-0.068,0.489l-0.07,0.486l-0.07,0.483l-0.072,0.481l-0.073,0.478l-0.023,0.15l-0.053,0.325l-0.079,0.472l-0.079,0.469l-0.081,0.467l-0.083,0.464l-0.083,0.461l-0.084,0.458l-0.086,0.456l-0.087,0.452l-0.088,0.45l-0.09,0.448l-0.09,0.444l-0.092,0.442l-0.093,0.438l-0.094,0.436l-0.096,0.433l-0.057,0.252l-0.041,0.178l-0.102,0.427l-0.103,0.424l-0.104,0.421l-0.105,0.418l-0.107,0.415l-0.107,0.412l-0.109,0.409l-0.111,0.407l-0.111,0.403l-0.113,0.401l-0.114,0.397l-0.116,0.395l-0.116,0.392l-0.118,0.388l-0.12,0.386l-0.12,0.383l-0.122,0.38l-0.123,0.376l-0.125,0.374l-0.126,0.371l-0.127,0.367l-0.128,0.365l-0.13,0.362l-0.131,0.358l-0.133,0.356l-0.133,0.352l-0.135,0.35l-0.026,0.064l-0.113,0.281l-0.141,0.342l-0.142,0.34l-0.143,0.336l-0.145,0.332l-0.145,0.33l-0.148,0.327l-0.148,0.323l-0.15,0.32l-0.152,0.317l-0.152,0.314l-0.1,0.201l-0.055,0.109l0.043,-0.114l0.08,-0.21l0.121,-0.327l0.119,-0.33l0.117,-0.332l0.116,-0.335l0.114,-0.339l0.113,-0.34l0.11,-0.344l0.11,-0.347l0.107,-0.349l0.106,-0.352l0.084,-0.289l0.02,-0.066l0.105,-0.356l0.104,-0.36l0.102,-0.362l0.1,-0.365l0.099,-0.368l0.098,-0.371l0.095,-0.373l0.094,-0.376l0.093,-0.379l0.091,-0.382l0.089,-0.384l0.088,-0.388l0.086,-0.39l0.085,-0.392l0.083,-0.396l0.082,-0.398l0.08,-0.401l0.079,-0.404l0.077,-0.406l0.076,-0.41l0.074,-0.411l0.073,-0.415l0.071,-0.417l0.07,-0.42l0.068,-0.423l0.067,-0.426l0.065,-0.428l0.027,-0.178l0.039,-0.252l0.066,-0.433l0.065,-0.436l0.063,-0.438l0.062,-0.441l0.061,-0.444l0.059,-0.446l0.057,-0.449l0.057,-0.452l0.055,-0.454l0.053,-0.457l0.052,-0.46l0.051,-0.462l0.05,-0.465l0.048,-0.468l0.047,-0.47l0.031,-0.324l0.015,-0.149l0.048,-0.475l0.046,-0.478l0.045,-0.48l0.044,-0.483l0.043,-0.486l0.041,-0.488l0.04,-0.491l0.038,-0.493l0.038,-0.497l0.036,-0.498l0.035,-0.502l0.033,-0.503l0.033,-0.507l0.031,-0.509l0.03,-0.512l0.028,-0.514l0.01,-0.18l0.021,-0.336l0.031,-0.519l0.029,-0.522l0.029,-0.524l0.027,-0.527l0.026,-0.529l0.025,-0.531l0.024,-0.535l0.022,-0.537l0.022,-0.539l0.02,-0.542l0.019,-0.544l0.019,-0.547l0.016,-0.549l0.016,-0.552l0.015,-0.555l0.011,-0.454l0.003,-0.103l0.017,-0.559l0.016,-0.562l0.015,-0.564l0.013,-0.566l0.013,-0.569l0.011,-0.572l0.011,-0.574l0.008,-0.482l0.002,-0.095l0.012,-0.578l0.011,-0.582l0.009,-0.584l0.009,-0.586l0.008,-0.588l0.007,-0.592l0.006,-0.593l0.003,-0.393l0.003,-0.203l0.006,-0.598l0.006,-0.601l0.005,-0.603l0.004,-0.606l0.003,-0.608l0.003,-0.61l0.001,-0.613l0,-0.615l0,-0.397l0,-0.22l0,-0.62l-0.001,-0.622l-0.001,-0.625l-0.003,-0.627l-0.003,-0.629l-0.004,-0.631l-0.006,-0.634l-0.006,-0.636l-0.007,-0.639l-0.002,-0.209l-0.004,-0.432l-0.007,-0.643l-0.008,-0.646l-0.008,-0.647l-0.009,-0.65l-0.011,-0.653l-0.01,-0.654l-0.012,-0.657l-0.013,-0.659l-0.013,-0.662l-0.015,-0.664l-0.015,-0.666l-0.015,-0.667l-0.035,-1.344l-0.037,-1.352l-0.04,-1.36l-0.043,-1.37l-0.001,-0.022l-0.042,-1.356l-0.046,-1.387l-0.048,-1.396l-0.052,-1.405l-0.054,-1.412l-0.057,-1.422l-0.06,-1.43l-0.062,-1.438l-0.065,-1.446l-0.068,-1.455l-0.052,-1.096l-0.017,-0.367l-0.07,-1.472l-0.073,-1.479l-0.075,-1.488l-0.077,-1.496l-0.08,-1.503l-0.082,-1.512l-0.084,-1.519l-0.087,-1.528l-0.088,-1.535l-0.091,-1.543l-0.035,-0.587l-0.056,-0.963l-0.092,-1.559l-0.095,-1.566l-0.096,-1.573l-0.098,-1.582l-0.1,-1.588l-0.101,-1.596l-0.104,-1.603l-0.105,-1.611l-0.107,-1.618l-0.108,-1.625l-0.11,-1.632l-0.112,-1.639l-0.113,-1.646l-0.115,-1.654l-0.116,-1.66l-0.117,-1.667l-0.119,-1.674l-0.12,-1.681l-0.106,-1.465l-0.135,-1.917l-0.245,-3.408l-0.248,-3.435l-0.253,-3.461l-0.256,-3.486l-0.26,-3.512l-0.262,-3.535l-0.236,-3.176l-0.029,-0.384l0.041,0.383Z" style="fill:#fff;"/></g><path d="M616.506,367.083l-0.022,0.057l-0.009,0.023l-0.014,0.034l-0.025,0.056l-0.026,0.056l-0.029,0.056l-0.031,0.056l-0.032,0.056l-0.034,0.056l-0.036,0.056l-0.037,0.055l-0.04,0.055l-0.041,0.056l-0.043,0.055l-0.044,0.054l-0.047,0.055l-0.048,0.055l-0.049,0.054l-0.052,0.054l-0.053,0.054l-0.055,0.054l-0.057,0.054l-0.058,0.054l-0.06,0.053l-0.062,0.053l-0.063,0.054l-0.065,0.052l-0.067,0.053l-0.068,0.053l-0.07,0.052l-0.072,0.052l-0.073,0.053l-0.075,0.051l-0.076,0.052l-0.078,0.052l-0.079,0.051l-0.081,0.051l-0.083,0.051l-0.084,0.051l-0.086,0.051l-0.087,0.05l-0.089,0.051l-0.091,0.05l-0.091,0.05l-0.094,0.049l-0.095,0.05l-0.096,0.05l-0.098,0.049l-0.099,0.049l-0.101,0.049l-0.103,0.048l-0.103,0.049l-0.106,0.048l-0.107,0.049l-0.217,0.095l-0.185,0.079l-0.038,0.016l-0.23,0.094l-0.235,0.093l-0.24,0.092l-0.246,0.092l-0.251,0.091l-0.256,0.09l-0.262,0.089l-0.267,0.089l-0.272,0.088l-0.278,0.087l-0.282,0.086l-0.288,0.086l-0.292,0.085l-0.297,0.084l-0.302,0.083l-0.307,0.083l-0.311,0.081l-0.316,0.082l-0.321,0.08l-0.325,0.079l-0.33,0.079l-0.334,0.078l-0.339,0.078l-0.342,0.076l-0.347,0.076l-0.352,0.075l-0.355,0.074l-0.359,0.074l-0.364,0.072l-0.367,0.072l-0.372,0.072l-0.375,0.07l-0.379,0.07l-0.382,0.068l-0.387,0.069l-0.39,0.067l-0.393,0.066l-0.08,0.013l-0.318,0.052l-0.4,0.063l-0.404,0.063l-0.408,0.062l-0.41,0.061l-0.414,0.061l-0.417,0.059l-0.42,0.059l-0.423,0.058l-0.427,0.057l-0.429,0.056l-0.432,0.056l-0.434,0.054l-0.438,0.054l-0.44,0.053l-0.443,0.053l-0.445,0.051l-0.293,0.033l-0.155,0.017l-0.451,0.048l-0.453,0.048l-0.455,0.046l-0.458,0.046l-0.459,0.045l-0.462,0.044l-0.465,0.043l-0.466,0.042l-0.468,0.041l-0.47,0.041l-0.472,0.04l-0.474,0.039l-0.475,0.038l-0.478,0.037l-0.479,0.037l-0.461,0.034l-0.019,0.001l-0.483,0.032l-0.484,0.031l-0.485,0.031l-0.486,0.029l-0.488,0.029l-0.489,0.028l-0.491,0.027l-0.491,0.026l-0.493,0.025l-0.493,0.024l-0.495,0.024l-0.495,0.022l-0.497,0.022l-0.497,0.021l-0.364,0.015l-0.134,0.004l-0.498,0.016l-0.499,0.015l-0.5,0.015l-0.5,0.013l-0.501,0.013l-0.501,0.012l-0.188,0.004l-0.314,0.005l-0.502,0.007l-0.502,0.006l-0.502,0.005l-0.502,0.004l-0.502,0.004l-0.202,0.001l-0.3,-0.001l-0.503,-0.001l-0.502,-0.002l-0.501,-0.004l-0.502,-0.004l-0.501,-0.005l-0.101,-0.001l-0.4,-0.006l-0.5,-0.01l-0.5,-0.01l-0.5,-0.01l-0.498,-0.012l-0.499,-0.013l-0.107,-0.003l-0.39,-0.013l-0.496,-0.017l-0.496,-0.018l-0.495,-0.019l-0.494,-0.02l-0.493,-0.02l-0.491,-0.022l-0.491,-0.022l-0.489,-0.024l-0.489,-0.024l-0.486,-0.025l-0.486,-0.026l-0.402,-0.022l-0.082,-0.005l-0.483,-0.031l-0.481,-0.031l-0.479,-0.033l-0.478,-0.033l-0.476,-0.034l-0.474,-0.035l-0.472,-0.035l-0.471,-0.037l-0.469,-0.037l-0.466,-0.039l-0.465,-0.039l-0.462,-0.04l-0.461,-0.04l-0.078,-0.008l-0.38,-0.036l-0.455,-0.044l-0.454,-0.046l-0.45,-0.046l-0.449,-0.047l-0.446,-0.048l-0.443,-0.049l-0.441,-0.049l-0.438,-0.051l-0.435,-0.051l-0.433,-0.052l-0.429,-0.053l-0.427,-0.054l-0.424,-0.054l-0.107,-0.014l-0.314,-0.043l-0.417,-0.058l-0.414,-0.059l-0.411,-0.06l-0.408,-0.061l-0.405,-0.061l-0.401,-0.063l-0.397,-0.063l-0.394,-0.063l-0.391,-0.065l-0.387,-0.065l-0.383,-0.067l-0.38,-0.067l-0.376,-0.067l-0.372,-0.069l-0.368,-0.069l-0.364,-0.07l-0.36,-0.071l-0.356,-0.072l-0.352,-0.072l-0.348,-0.074l-0.343,-0.074l-0.34,-0.074l-0.335,-0.076l-0.33,-0.076l-0.326,-0.078l-0.322,-0.077l-0.316,-0.079l-0.313,-0.08l-0.307,-0.08l-0.303,-0.081l-0.146,-0.04l-0.152,-0.042l-0.293,-0.084l-0.288,-0.084l-0.283,-0.085l-0.278,-0.086l-0.272,-0.087l-0.268,-0.087l-0.262,-0.088l-0.258,-0.089l-0.251,-0.09l-0.247,-0.09l-0.241,-0.091l-0.235,-0.092l-0.23,-0.093l-0.224,-0.093l-0.219,-0.094l-0.212,-0.095l-0.105,-0.047l-0.102,-0.048l-0.102,-0.048l-0.1,-0.048l-0.098,-0.049l-0.097,-0.048l-0.095,-0.049l-0.094,-0.049l-0.092,-0.049l-0.091,-0.049l-0.089,-0.05l-0.088,-0.049l-0.086,-0.05l-0.085,-0.05l-0.083,-0.05l-0.082,-0.051l-0.08,-0.05l-0.078,-0.051l-0.077,-0.051l-0.075,-0.051l-0.074,-0.051l-0.072,-0.052l-0.071,-0.052l-0.068,-0.051l-0.067,-0.052l-0.066,-0.053l-0.064,-0.052l-0.062,-0.053l-0.061,-0.052l-0.058,-0.053l-0.058,-0.053l-0.055,-0.053l-0.054,-0.054l-0.052,-0.053l-0.05,-0.054l-0.049,-0.054l-0.047,-0.054l-0.045,-0.054l-0.044,-0.055l-0.041,-0.054l-0.04,-0.055l-0.038,-0.055l-0.037,-0.055l-0.034,-0.055l-0.033,-0.056l-0.031,-0.055l-0.029,-0.056l-0.028,-0.056l-0.025,-0.056l-0.024,-0.056l-0.022,-0.056l-0.02,-0.056l-0.018,-0.056l-0.016,-0.057l-0.015,-0.057l-0.006,-0.03l-0.006,-0.026l-0.011,-0.057l-0.009,-0.057l0.013,0.056l0.014,0.056l0.016,0.055l0.018,0.056l0.02,0.054l0.022,0.055l0.023,0.054l0.025,0.054l0.027,0.054l0.029,0.053l0.03,0.053l0.032,0.052l0.034,0.053l0.035,0.052l0.038,0.051l0.039,0.052l0.04,0.051l0.043,0.051l0.044,0.05l0.045,0.051l0.048,0.05l0.049,0.049l0.051,0.05l0.052,0.049l0.054,0.049l0.056,0.049l0.057,0.048l0.06,0.048l0.06,0.048l0.063,0.047l0.063,0.047l0.066,0.047l0.067,0.047l0.069,0.047l0.07,0.046l0.072,0.046l0.074,0.045l0.075,0.046l0.076,0.045l0.079,0.045l0.079,0.044l0.082,0.044l0.083,0.045l0.084,0.043l0.086,0.044l0.087,0.043l0.089,0.043l0.091,0.043l0.092,0.042l0.093,0.042l0.095,0.042l0.097,0.042l0.098,0.041l0.099,0.042l0.101,0.04l0.102,0.041l0.104,0.04l0.105,0.04l0.215,0.08l0.22,0.078l0.226,0.077l0.232,0.077l0.237,0.075l0.242,0.074l0.248,0.073l0.253,0.072l0.259,0.071l0.264,0.07l0.269,0.069l0.274,0.068l0.279,0.067l0.284,0.066l0.289,0.064l0.294,0.064l0.153,0.032l0.145,0.031l0.303,0.063l0.308,0.062l0.313,0.061l0.317,0.06l0.322,0.058l0.326,0.058l0.33,0.057l0.335,0.056l0.34,0.055l0.343,0.053l0.348,0.053l0.352,0.052l0.356,0.051l0.36,0.05l0.364,0.048l0.368,0.048l0.371,0.047l0.376,0.046l0.379,0.045l0.383,0.044l0.387,0.042l0.39,0.042l0.393,0.041l0.397,0.04l0.401,0.039l0.404,0.038l0.407,0.037l0.41,0.036l0.413,0.035l0.417,0.034l0.313,0.025l0.106,0.009l0.423,0.034l0.425,0.033l0.428,0.033l0.431,0.031l0.434,0.03l0.436,0.03l0.439,0.028l0.442,0.028l0.444,0.027l0.447,0.025l0.449,0.025l0.452,0.024l0.453,0.023l0.378,0.018l0.078,0.004l0.458,0.023l0.461,0.022l0.462,0.022l0.464,0.02l0.466,0.019l0.469,0.019l0.47,0.018l0.471,0.016l0.474,0.016l0.475,0.015l0.477,0.014l0.478,0.013l0.48,0.012l0.082,0.002l0.399,0.012l0.483,0.013l0.484,0.012l0.485,0.012l0.486,0.01l0.488,0.01l0.488,0.009l0.49,0.007l0.491,0.007l0.491,0.006l0.493,0.006l0.493,0.004l0.388,0.002l0.106,0.002l0.495,0.005l0.495,0.005l0.496,0.003l0.497,0.003l0.497,0.002l0.397,0l0.1,0.001l0.498,0.002l0.498,0.002l0.498,0l0.499,0l0.499,-0.001l0.298,-0.001l0.2,0l0.499,0.001l0.499,-0.001l0.498,-0.002l0.499,-0.002l0.498,-0.003l0.312,-0.003l0.186,0l0.498,-0.002l0.497,-0.003l0.497,-0.004l0.497,-0.005l0.496,-0.005l0.495,-0.007l0.133,-0.002l0.362,-0.003l0.494,-0.005l0.493,-0.006l0.493,-0.008l0.492,-0.007l0.49,-0.009l0.49,-0.01l0.489,-0.011l0.487,-0.011l0.487,-0.012l0.485,-0.014l0.484,-0.014l0.482,-0.015l0.481,-0.016l0.48,-0.017l0.02,-0.001l0.458,-0.014l0.477,-0.016l0.475,-0.017l0.474,-0.018l0.472,-0.019l0.469,-0.02l0.469,-0.02l0.466,-0.022l0.464,-0.022l0.462,-0.024l0.46,-0.024l0.458,-0.025l0.456,-0.026l0.454,-0.028l0.451,-0.028l0.449,-0.028l0.155,-0.011l0.291,-0.018l0.444,-0.029l0.442,-0.03l0.439,-0.032l0.436,-0.031l0.434,-0.033l0.431,-0.034l0.428,-0.035l0.425,-0.036l0.422,-0.036l0.419,-0.038l0.416,-0.039l0.414,-0.039l0.409,-0.041l0.407,-0.041l0.403,-0.042l0.4,-0.044l0.318,-0.035l0.079,-0.009l0.393,-0.044l0.39,-0.044l0.386,-0.046l0.383,-0.047l0.379,-0.048l0.375,-0.048l0.372,-0.05l0.367,-0.051l0.364,-0.051l0.36,-0.053l0.355,-0.054l0.352,-0.054l0.347,-0.056l0.343,-0.056l0.339,-0.058l0.335,-0.058l0.33,-0.06l0.326,-0.061l0.322,-0.061l0.316,-0.063l0.313,-0.063l0.307,-0.064l0.303,-0.066l0.298,-0.066l0.293,-0.068l0.288,-0.068l0.284,-0.07l0.278,-0.07l0.274,-0.072l0.268,-0.072l0.263,-0.074l0.257,-0.074l0.253,-0.076l0.247,-0.076l0.242,-0.078l0.236,-0.078l0.231,-0.08l0.039,-0.013l0.186,-0.067l0.22,-0.081l0.108,-0.04l0.106,-0.041l0.105,-0.042l0.103,-0.041l0.103,-0.042l0.1,-0.042l0.099,-0.043l0.098,-0.042l0.096,-0.043l0.095,-0.043l0.093,-0.044l0.092,-0.043l0.09,-0.044l0.088,-0.045l0.088,-0.044l0.085,-0.045l0.084,-0.045l0.083,-0.045l0.081,-0.045l0.079,-0.046l0.078,-0.046l0.077,-0.046l0.074,-0.047l0.074,-0.047l0.071,-0.047l0.07,-0.047l0.069,-0.048l0.067,-0.047l0.065,-0.049l0.064,-0.048l0.062,-0.049l0.06,-0.049l0.059,-0.049l0.057,-0.049l0.055,-0.05l0.054,-0.05l0.052,-0.05l0.051,-0.051l0.049,-0.051l0.047,-0.051l0.045,-0.051l0.044,-0.052l0.042,-0.052l0.04,-0.052l0.039,-0.053l0.037,-0.052l0.035,-0.054l0.034,-0.053l0.031,-0.054l0.03,-0.054l0.029,-0.054l0.015,-0.033l0.011,-0.022l0.025,-0.055l0.023,-0.055l-0.019,0.056Z" style="fill:#fff;"/></g><path d="M447.159,378.564c-0.393,-0.001 -0.787,-0.001 -1.182,-0.002c-24.43,-0.064 -52.51,-2.894 -56.157,-7.475c-1.28,-1.609 -0.119,-5.278 2.104,-5.701c6.409,-1.219 13.781,-2.778 20.619,-3.878c18.393,-2.96 27.42,-2.087 28.796,-15.195c2.017,-19.218 3.361,-101.266 -3.833,-116.445c-4.614,-9.735 -18.262,-15.543 -27.131,-22.912c-21.707,-16.994 -24.889,-37.287 -26.169,-51.744c-1.971,-22.263 1.165,-42.337 3.807,-60.98c3.721,-26.246 7.844,-49.369 12.772,-73.709l95.106,0c4.928,24.341 9.051,47.463 12.772,73.709c2.642,18.643 5.778,38.717 3.807,60.98c-1.28,14.457 -4.462,34.75 -26.169,51.744c-8.869,7.369 -22.517,13.177 -27.131,22.912c-7.194,15.179 -5.85,97.227 -3.833,116.445c1.376,13.108 10.402,12.235 28.796,15.195c6.838,1.1 14.21,2.659 20.619,3.878c2.223,0.423 3.384,4.092 2.104,5.701c-3.647,4.581 -31.727,7.411 -56.157,7.475c-0.79,0.002 -1.577,0.003 -2.361,0.002l-1.179,0Z" style="fill:#e9e9e9;"/><clipPath id="_clip3"><path d="M447.159,378.564c-0.393,-0.001 -0.787,-0.001 -1.182,-0.002c-24.43,-0.064 -52.51,-2.894 -56.157,-7.475c-1.28,-1.609 -0.119,-5.278 2.104,-5.701c6.409,-1.219 13.781,-2.778 20.619,-3.878c18.393,-2.96 27.42,-2.087 28.796,-15.195c2.017,-19.218 3.361,-101.266 -3.833,-116.445c-4.614,-9.735 -18.262,-15.543 -27.131,-22.912c-21.707,-16.994 -24.889,-37.287 -26.169,-51.744c-1.971,-22.263 1.165,-42.337 3.807,-60.98c3.721,-26.246 7.844,-49.369 12.772,-73.709l95.106,0c4.928,24.341 9.051,47.463 12.772,73.709c2.642,18.643 5.778,38.717 3.807,60.98c-1.28,14.457 -4.462,34.75 -26.169,51.744c-8.869,7.369 -22.517,13.177 -27.131,22.912c-7.194,15.179 -5.85,97.227 -3.833,116.445c1.376,13.108 10.402,12.235 28.796,15.195c6.838,1.1 14.21,2.659 20.619,3.878c2.223,0.423 3.384,4.092 2.104,5.701c-3.647,4.581 -31.727,7.411 -56.157,7.475c-0.79,0.002 -1.577,0.003 -2.361,0.002l-1.179,0Z"/></clipPath><g clip-path="url(#_clip3)"><path d="M448.338,215.127c-14.608,-0.111 -29.687,-8.213 -34.569,-12.563c-19.766,-16.593 -22.664,-36.408 -23.83,-50.525c-1.794,-21.738 1.061,-41.34 3.468,-59.543c3.387,-25.628 8.559,-48.206 13.046,-71.973l85.187,0c4.487,23.767 8.242,46.345 11.629,71.973c2.407,18.203 5.262,37.805 3.468,59.543c-1.166,14.117 -4.064,33.932 -23.83,50.525c-4.882,4.35 -19.961,12.674 -34.569,12.563Z" style="fill:#f5f5f5;"/><clipPath id="_clip4"><path d="M448.338,215.127c-14.608,-0.111 -29.687,-8.213 -34.569,-12.563c-19.766,-16.593 -22.664,-36.408 -23.83,-50.525c-1.794,-21.738 1.061,-41.34 3.468,-59.543c3.387,-25.628 8.559,-48.206 13.046,-71.973l85.187,0c4.487,23.767 8.242,46.345 11.629,71.973c2.407,18.203 5.262,37.805 3.468,59.543c-1.166,14.117 -4.064,33.932 -23.83,50.525c-4.882,4.35 -19.961,12.674 -34.569,12.563Z"/></clipPath><g clip-path="url(#_clip4)"><path d="M514.02,105.929c-16.397,-16.465 -47.722,-8.827 -68.147,0c-24.355,10.524 -50.288,21.559 -68.147,0l-34.216,0l0,715.194l209.656,0l0,-715.194l-39.146,0Z" style="fill:#c3c3c3;"/><path d="M463.727,25.698l0.033,0.138l0.132,0.548l0.132,0.553l0.131,0.559l0.132,0.564l0.13,0.57l0.131,0.575l0.13,0.581l0.13,0.586l0.129,0.591l0.129,0.596l0.129,0.601l0.128,0.607l0.128,0.612l0.127,0.616l0.127,0.622l0.127,0.626l0.126,0.631l0.126,0.636l0.125,0.641l0.125,0.645l0.125,0.65l0.124,0.654l0.124,0.659l0.123,0.663l0.122,0.668l0.122,0.672l0.122,0.676l0.121,0.681l0.121,0.684l0.12,0.689l0.119,0.693l0.12,0.697l0.118,0.701l0.118,0.704l0.117,0.709l0.117,0.712l0.116,0.716l0.116,0.72l0.115,0.723l0.114,0.727l0.114,0.731l0.113,0.734l0.025,0.161l0.087,0.576l0.111,0.741l0.111,0.744l0.11,0.747l0.109,0.75l0.108,0.754l0.108,0.757l0.107,0.759l0.107,0.763l0.106,0.766l0.105,0.768l0.104,0.771l0.104,0.775l0.102,0.776l0.103,0.78l0.101,0.782l0.101,0.784l0.099,0.787l0.1,0.789l0.098,0.792l0.097,0.794l0.097,0.797l0.096,0.798l0.095,0.801l0.094,0.803l0.094,0.805l0.093,0.807l0.091,0.809l0.091,0.811l0.09,0.812l0.09,0.815l0.088,0.816l0.088,0.817l0.086,0.82l0.086,0.821l0.085,0.822l0.083,0.824l0.083,0.826l0.082,0.826l0.082,0.828l0.08,0.83l0.079,0.83l0.078,0.832l0.001,0.01l0.075,0.822l0.075,0.834l0.074,0.835l0.073,0.836l0.072,0.836l0.071,0.838l0.07,0.838l0.069,0.839l0.068,0.839l0.067,0.84l0.066,0.841l0.065,0.841l0.064,0.841l0.062,0.842l0.062,0.843l0.06,0.842l0.06,0.843l0.058,0.843l0.057,0.843l0.057,0.843l0.032,0.5l0.022,0.343l0.052,0.843l0.052,0.843l0.05,0.843l0.049,0.842l0.048,0.843l0.047,0.842l0.045,0.841l0.044,0.842l0.044,0.84l0.042,0.841l0.04,0.839l0.04,0.839l0.038,0.838l0.037,0.838l0.036,0.837l0.034,0.836l0.034,0.834l0.032,0.834l0.031,0.833l0.006,0.176l0.021,0.656l0.027,0.831l0.025,0.83l0.023,0.828l0.022,0.827l0.021,0.826l0.02,0.824l0.018,0.823l0.017,0.822l0.016,0.819l0.014,0.819l0.013,0.816l0.012,0.815l0.01,0.813l0.008,0.811l0.008,0.81l0.006,0.807l0.004,0.805l0.002,0.3l0,0.504l0,0.801l-0.002,0.799l-0.004,0.797l-0.004,0.795l-0.007,0.792l-0.007,0.79l-0.009,0.788l-0.008,0.537l-0.004,0.248l-0.014,0.782l-0.015,0.78l-0.018,0.777l-0.018,0.775l-0.02,0.772l-0.022,0.769l-0.023,0.766l-0.008,0.246l-0.019,0.517l-0.03,0.76l-0.031,0.757l-0.033,0.754l-0.035,0.751l-0.035,0.748l-0.035,0.694l-0.003,0.05l-0.043,0.741l-0.045,0.738l-0.046,0.734l-0.048,0.731l-0.049,0.727l-0.051,0.723l-0.036,0.495l-0.018,0.225l-0.06,0.716l-0.061,0.712l-0.062,0.708l-0.064,0.705l-0.065,0.7l-0.067,0.697l-0.069,0.692l-0.071,0.689l-0.072,0.684l-0.073,0.68l-0.075,0.676l-0.077,0.672l-0.079,0.667l-0.043,0.361l-0.039,0.301l-0.087,0.658l-0.089,0.653l-0.09,0.649l-0.092,0.644l-0.094,0.639l-0.095,0.634l-0.097,0.63l-0.099,0.625l-0.1,0.62l-0.102,0.614l-0.103,0.61l-0.106,0.605l-0.106,0.6l-0.079,0.429l-0.031,0.165l-0.115,0.588l-0.115,0.583l-0.118,0.578l-0.119,0.573l-0.121,0.567l-0.123,0.561l-0.125,0.556l-0.126,0.55l-0.128,0.543l-0.064,0.271l-0.065,0.269l-0.066,0.267l-0.065,0.265l-0.067,0.264l-0.067,0.263l-0.067,0.261l-0.067,0.26l-0.068,0.258l-0.066,0.247l-0.003,0.01l-0.071,0.255l-0.071,0.253l-0.072,0.252l-0.072,0.25l-0.073,0.249l-0.073,0.247l-0.073,0.245l-0.074,0.244l-0.074,0.242l-0.075,0.241l-0.075,0.239l-0.076,0.238l-0.076,0.236l-0.076,0.234l-0.077,0.233l-0.077,0.231l-0.078,0.23l-0.078,0.228l-0.079,0.226l-0.079,0.224l-0.08,0.223l-0.08,0.222l-0.08,0.219l-0.081,0.218l-0.081,0.216l-0.082,0.215l-0.082,0.212l-0.083,0.212l-0.083,0.209l-0.083,0.208l-0.084,0.205l-0.084,0.205l-0.085,0.202l-0.086,0.201l-0.085,0.199l-0.086,0.197l-0.087,0.195l-0.087,0.194l-0.088,0.192l-0.088,0.19l-0.088,0.188l-0.089,0.186l-0.089,0.185l-0.09,0.183l-0.09,0.18l-0.091,0.179l-0.091,0.178l-0.091,0.175l-0.092,0.174l-0.093,0.171l-0.093,0.17l-0.093,0.168l-0.094,0.166l-0.018,0.03l-0.077,0.133l-0.096,0.162l-0.097,0.159l-0.096,0.158l-0.098,0.156l-0.097,0.153l-0.098,0.152l-0.099,0.15l-0.099,0.148l-0.099,0.146l-0.1,0.144l-0.1,0.141l-0.101,0.14l-0.101,0.138l-0.102,0.136l-0.102,0.134l-0.102,0.131l-0.103,0.13l-0.103,0.128l-0.104,0.125l-0.104,0.124l-0.104,0.121l-0.105,0.12l-0.105,0.117l-0.106,0.115l-0.106,0.113l-0.016,0.016l-0.091,0.095l0.081,-0.103l0.014,-0.018l0.096,-0.122l0.094,-0.124l0.094,-0.126l0.093,-0.128l0.093,-0.129l0.092,-0.132l0.091,-0.134l0.09,-0.135l0.09,-0.138l0.089,-0.139l0.089,-0.141l0.088,-0.143l0.087,-0.145l0.086,-0.147l0.086,-0.148l0.086,-0.151l0.084,-0.152l0.084,-0.154l0.084,-0.157l0.082,-0.157l0.083,-0.16l0.081,-0.162l0.081,-0.163l0.08,-0.165l0.08,-0.167l0.064,-0.138l0.015,-0.031l0.08,-0.17l0.079,-0.172l0.078,-0.173l0.078,-0.176l0.077,-0.177l0.077,-0.179l0.076,-0.18l0.076,-0.183l0.075,-0.184l0.074,-0.186l0.074,-0.188l0.073,-0.189l0.072,-0.191l0.072,-0.193l0.072,-0.195l0.071,-0.196l0.07,-0.198l0.07,-0.2l0.069,-0.201l0.068,-0.203l0.068,-0.205l0.068,-0.207l0.067,-0.208l0.066,-0.21l0.066,-0.211l0.065,-0.214l0.065,-0.214l0.064,-0.217l0.063,-0.218l0.063,-0.22l0.063,-0.221l0.061,-0.223l0.062,-0.225l0.061,-0.226l0.06,-0.228l0.059,-0.229l0.059,-0.231l0.059,-0.232l0.058,-0.235l0.057,-0.235l0.057,-0.237l0.057,-0.239l0.056,-0.241l0.055,-0.241l0.055,-0.244l0.054,-0.245l0.053,-0.246l0.054,-0.248l0.052,-0.249l0.052,-0.251l0.052,-0.253l0.051,-0.254l0.05,-0.255l0.002,-0.01l0.05,-0.247l0.051,-0.258l0.051,-0.259l0.051,-0.261l0.05,-0.262l0.049,-0.264l0.049,-0.265l0.048,-0.267l0.048,-0.268l0.047,-0.269l0.093,-0.543l0.091,-0.549l0.089,-0.554l0.087,-0.56l0.085,-0.565l0.084,-0.571l0.081,-0.576l0.079,-0.581l0.077,-0.587l0.021,-0.164l0.057,-0.427l0.077,-0.596l0.076,-0.602l0.073,-0.606l0.072,-0.611l0.07,-0.617l0.067,-0.621l0.066,-0.626l0.065,-0.631l0.062,-0.635l0.06,-0.64l0.059,-0.645l0.057,-0.649l0.055,-0.654l0.024,-0.3l0.032,-0.358l0.057,-0.662l0.055,-0.666l0.053,-0.671l0.052,-0.675l0.05,-0.679l0.048,-0.684l0.046,-0.687l0.045,-0.692l0.043,-0.695l0.041,-0.699l0.04,-0.704l0.038,-0.707l0.036,-0.711l0.011,-0.224l0.027,-0.49l0.038,-0.718l0.037,-0.721l0.035,-0.725l0.033,-0.729l0.032,-0.732l0.03,-0.735l0.002,-0.05l0.03,-0.689l0.032,-0.742l0.029,-0.745l0.028,-0.748l0.027,-0.752l0.025,-0.755l0.016,-0.513l0.008,-0.244l0.026,-0.761l0.024,-0.763l0.023,-0.766l0.021,-0.769l0.02,-0.772l0.018,-0.775l0.017,-0.777l0.004,-0.247l0.012,-0.533l0.016,-0.783l0.015,-0.785l0.013,-0.787l0.012,-0.79l0.01,-0.792l0.009,-0.794l0.007,-0.797l0.004,-0.501l0.003,-0.298l0.007,-0.801l0.006,-0.803l0.004,-0.805l0.003,-0.807l0.001,-0.808l0.001,-0.811l-0.002,-0.813l-0.002,-0.814l-0.004,-0.816l-0.005,-0.818l-0.006,-0.819l-0.008,-0.82l-0.009,-0.823l-0.011,-0.823l-0.011,-0.825l-0.013,-0.826l-0.014,-0.828l-0.012,-0.653l-0.003,-0.176l-0.015,-0.83l-0.016,-0.831l-0.017,-0.832l-0.018,-0.833l-0.02,-0.833l-0.02,-0.835l-0.023,-0.836l-0.023,-0.836l-0.024,-0.837l-0.026,-0.838l-0.027,-0.839l-0.028,-0.838l-0.029,-0.84l-0.03,-0.84l-0.032,-0.84l-0.032,-0.84l-0.034,-0.841l-0.035,-0.841l-0.036,-0.841l-0.015,-0.342l-0.021,-0.5l-0.037,-0.841l-0.038,-0.842l-0.04,-0.841l-0.04,-0.841l-0.041,-0.841l-0.043,-0.841l-0.043,-0.841l-0.045,-0.84l-0.046,-0.84l-0.046,-0.84l-0.048,-0.839l-0.049,-0.838l-0.05,-0.838l-0.051,-0.837l-0.052,-0.837l-0.053,-0.835l-0.054,-0.835l-0.055,-0.834l-0.056,-0.833l-0.056,-0.822l-0.001,-0.011l-0.057,-0.831l-0.057,-0.83l-0.059,-0.829l-0.06,-0.828l-0.06,-0.826l-0.062,-0.826l-0.063,-0.823l-0.063,-0.823l-0.065,-0.821l-0.065,-0.819l-0.066,-0.818l-0.068,-0.817l-0.068,-0.814l-0.069,-0.813l-0.07,-0.811l-0.071,-0.809l-0.072,-0.808l-0.072,-0.805l-0.074,-0.803l-0.074,-0.802l-0.075,-0.799l-0.077,-0.797l-0.077,-0.795l-0.077,-0.792l-0.079,-0.79l-0.08,-0.788l-0.08,-0.785l-0.081,-0.783l-0.082,-0.781l-0.083,-0.777l-0.083,-0.775l-0.085,-0.773l-0.085,-0.769l-0.086,-0.767l-0.087,-0.764l-0.087,-0.76l-0.088,-0.758l-0.089,-0.755l-0.09,-0.752l-0.091,-0.748l-0.091,-0.746l-0.092,-0.742l-0.072,-0.577l-0.02,-0.162l-0.093,-0.735l-0.093,-0.733l-0.094,-0.728l-0.095,-0.725l-0.095,-0.722l-0.096,-0.718l-0.097,-0.714l-0.098,-0.711l-0.098,-0.706l-0.098,-0.703l-0.1,-0.699l-0.1,-0.695l-0.101,-0.691l-0.101,-0.687l-0.102,-0.683l-0.103,-0.678l-0.103,-0.674l-0.104,-0.67l-0.104,-0.666l-0.105,-0.661l-0.106,-0.657l-0.106,-0.653l-0.107,-0.648l-0.107,-0.643l-0.108,-0.638l-0.109,-0.634l-0.109,-0.629l-0.11,-0.624l-0.11,-0.62l-0.111,-0.614l-0.111,-0.609l-0.112,-0.605l-0.112,-0.599l-0.113,-0.594l-0.113,-0.589l-0.114,-0.584l-0.114,-0.578l-0.115,-0.573l-0.115,-0.568l-0.116,-0.562l-0.116,-0.556l-0.117,-0.551l-0.03,-0.139l-0.087,-0.406l0.099,0.403Z" style="fill:#fff;"/></g><path d="M500.438,365.35l-0.026,0.056l-0.02,0.041l-0.007,0.016l-0.03,0.057l-0.032,0.056l-0.035,0.056l-0.036,0.057l-0.038,0.056l-0.041,0.056l-0.042,0.055l-0.045,0.056l-0.047,0.055l-0.048,0.056l-0.051,0.055l-0.053,0.055l-0.055,0.055l-0.057,0.054l-0.059,0.055l-0.061,0.054l-0.063,0.054l-0.065,0.054l-0.067,0.054l-0.069,0.054l-0.071,0.053l-0.073,0.054l-0.075,0.053l-0.076,0.053l-0.079,0.053l-0.081,0.052l-0.082,0.053l-0.085,0.052l-0.086,0.052l-0.088,0.052l-0.09,0.052l-0.092,0.052l-0.094,0.051l-0.095,0.051l-0.098,0.051l-0.099,0.051l-0.101,0.051l-0.103,0.051l-0.105,0.05l-0.106,0.05l-0.108,0.05l-0.11,0.05l-0.112,0.05l-0.114,0.049l-0.115,0.05l-0.117,0.049l-0.119,0.049l-0.12,0.049l-0.122,0.048l-0.124,0.049l-0.126,0.048l-0.127,0.048l-0.129,0.048l-0.263,0.095l-0.189,0.067l-0.081,0.028l-0.276,0.093l-0.283,0.092l-0.289,0.092l-0.295,0.091l-0.302,0.09l-0.308,0.09l-0.314,0.088l-0.32,0.089l-0.326,0.087l-0.332,0.086l-0.338,0.086l-0.344,0.085l-0.35,0.084l-0.355,0.084l-0.36,0.083l-0.367,0.082l-0.371,0.081l-0.378,0.081l-0.382,0.08l-0.388,0.079l-0.392,0.078l-0.398,0.077l-0.403,0.077l-0.408,0.076l-0.413,0.075l-0.418,0.075l-0.423,0.073l-0.427,0.073l-0.432,0.073l-0.436,0.071l-0.442,0.071l-0.445,0.069l-0.45,0.069l-0.454,0.069l-0.458,0.067l-0.463,0.067l-0.322,0.045l-0.145,0.02l-0.471,0.064l-0.475,0.063l-0.478,0.062l-0.483,0.062l-0.486,0.06l-0.49,0.06l-0.494,0.059l-0.497,0.058l-0.501,0.057l-0.504,0.057l-0.508,0.055l-0.511,0.055l-0.514,0.054l-0.517,0.054l-0.521,0.052l-0.523,0.052l-0.517,0.05l-0.009,0l-0.53,0.049l-0.532,0.047l-0.535,0.047l-0.537,0.046l-0.541,0.045l-0.542,0.044l-0.546,0.043l-0.547,0.043l-0.55,0.041l-0.553,0.041l-0.554,0.04l-0.557,0.039l-0.559,0.038l-0.561,0.038l-0.562,0.036l-0.565,0.036l-0.084,0.005l-0.482,0.027l-0.569,0.032l-0.57,0.03l-0.571,0.03l-0.573,0.029l-0.575,0.028l-0.576,0.027l-0.577,0.026l-0.579,0.025l-0.579,0.025l-0.581,0.023l-0.582,0.023l-0.583,0.022l-0.584,0.021l-0.468,0.016l-0.117,0.003l-0.586,0.016l-0.586,0.016l-0.587,0.014l-0.588,0.013l-0.588,0.013l-0.588,0.012l-0.228,0.004l-0.361,0.005l-0.589,0.007l-0.59,0.006l-0.59,0.005l-0.59,0.005l-0.589,0.003l-0.216,0.001l-0.374,0l-0.59,-0.002l-0.59,-0.002l-0.589,-0.003l-0.589,-0.004l-0.589,-0.005l-0.069,-0.001l-0.519,-0.007l-0.588,-0.01l-0.587,-0.01l-0.586,-0.01l-0.586,-0.012l-0.585,-0.013l-0.049,-0.001l-0.535,-0.015l-0.583,-0.017l-0.582,-0.019l-0.582,-0.019l-0.58,-0.02l-0.578,-0.02l-0.578,-0.022l-0.576,-0.023l-0.575,-0.023l-0.574,-0.024l-0.571,-0.026l-0.571,-0.026l-0.337,-0.016l-0.231,-0.012l-0.567,-0.03l-0.565,-0.032l-0.563,-0.032l-0.562,-0.034l-0.559,-0.034l-0.557,-0.035l-0.555,-0.036l-0.553,-0.036l-0.55,-0.038l-0.548,-0.038l-0.546,-0.039l-0.543,-0.041l-0.442,-0.033l-0.099,-0.008l-0.538,-0.044l-0.535,-0.045l-0.533,-0.045l-0.53,-0.047l-0.527,-0.047l-0.524,-0.048l-0.52,-0.049l-0.518,-0.05l-0.515,-0.05l-0.511,-0.052l-0.509,-0.052l-0.504,-0.053l-0.502,-0.054l-0.38,-0.042l-0.118,-0.013l-0.494,-0.058l-0.49,-0.058l-0.487,-0.059l-0.483,-0.06l-0.48,-0.061l-0.475,-0.062l-0.471,-0.062l-0.468,-0.063l-0.463,-0.064l-0.459,-0.065l-0.455,-0.066l-0.45,-0.066l-0.447,-0.067l-0.441,-0.068l-0.438,-0.069l-0.432,-0.07l-0.428,-0.07l-0.424,-0.071l-0.418,-0.072l-0.414,-0.072l-0.409,-0.074l-0.403,-0.074l-0.399,-0.075l-0.394,-0.076l-0.388,-0.076l-0.384,-0.078l-0.378,-0.078l-0.372,-0.079l-0.367,-0.079l-0.362,-0.081l-0.229,-0.052l-0.127,-0.029l-0.35,-0.083l-0.344,-0.084l-0.339,-0.085l-0.333,-0.085l-0.327,-0.086l-0.32,-0.087l-0.315,-0.088l-0.309,-0.088l-0.302,-0.089l-0.297,-0.09l-0.289,-0.09l-0.284,-0.092l-0.277,-0.092l-0.27,-0.092l-0.264,-0.094l-0.257,-0.094l-0.126,-0.047l-0.125,-0.048l-0.122,-0.047l-0.121,-0.048l-0.12,-0.048l-0.117,-0.049l-0.116,-0.048l-0.114,-0.049l-0.112,-0.049l-0.111,-0.048l-0.109,-0.05l-0.107,-0.049l-0.105,-0.05l-0.103,-0.049l-0.102,-0.05l-0.1,-0.05l-0.097,-0.05l-0.097,-0.051l-0.094,-0.05l-0.092,-0.051l-0.091,-0.051l-0.089,-0.051l-0.086,-0.052l-0.085,-0.051l-0.083,-0.052l-0.082,-0.052l-0.079,-0.052l-0.077,-0.052l-0.076,-0.052l-0.073,-0.053l-0.071,-0.053l-0.07,-0.053l-0.068,-0.053l-0.065,-0.053l-0.064,-0.054l-0.061,-0.053l-0.06,-0.054l-0.058,-0.054l-0.055,-0.054l-0.054,-0.055l-0.051,-0.054l-0.05,-0.055l-0.047,-0.055l-0.045,-0.055l-0.044,-0.055l-0.041,-0.055l-0.039,-0.056l-0.037,-0.055l-0.035,-0.056l-0.032,-0.056l-0.031,-0.056l-0.028,-0.056l-0.026,-0.057l-0.024,-0.056l-0.022,-0.057l-0.02,-0.056l-0.018,-0.057l-0.002,-0.009l-0.013,-0.048l-0.013,-0.057l-0.011,-0.057l0.014,0.056l0.016,0.056l0.019,0.056l0.02,0.055l0.023,0.055l0.025,0.055l0.027,0.054l0.029,0.054l0.031,0.054l0.033,0.054l0.035,0.053l0.037,0.053l0.039,0.052l0.042,0.052l0.043,0.052l0.045,0.052l0.048,0.051l0.049,0.052l0.051,0.05l0.054,0.051l0.055,0.05l0.057,0.05l0.06,0.05l0.061,0.049l0.063,0.049l0.065,0.049l0.067,0.049l0.07,0.048l0.071,0.048l0.072,0.048l0.075,0.048l0.077,0.047l0.079,0.047l0.08,0.047l0.083,0.046l0.084,0.046l0.086,0.046l0.088,0.046l0.09,0.045l0.092,0.045l0.093,0.045l0.096,0.045l0.097,0.044l0.099,0.044l0.101,0.044l0.102,0.043l0.105,0.043l0.106,0.043l0.108,0.043l0.109,0.043l0.112,0.042l0.113,0.042l0.115,0.041l0.117,0.042l0.118,0.041l0.12,0.041l0.122,0.04l0.123,0.04l0.126,0.04l0.126,0.04l0.259,0.079l0.266,0.078l0.272,0.076l0.278,0.076l0.285,0.074l0.291,0.074l0.298,0.072l0.303,0.072l0.31,0.07l0.316,0.069l0.322,0.068l0.328,0.067l0.334,0.067l0.339,0.065l0.346,0.064l0.351,0.063l0.127,0.022l0.229,0.04l0.362,0.062l0.367,0.062l0.373,0.06l0.378,0.059l0.384,0.058l0.389,0.057l0.393,0.056l0.399,0.055l0.404,0.054l0.409,0.053l0.414,0.052l0.418,0.051l0.423,0.05l0.428,0.049l0.433,0.048l0.437,0.047l0.441,0.046l0.446,0.045l0.45,0.044l0.455,0.043l0.459,0.042l0.462,0.041l0.467,0.04l0.471,0.039l0.475,0.038l0.479,0.037l0.482,0.037l0.486,0.035l0.49,0.034l0.493,0.033l0.118,0.008l0.379,0.026l0.5,0.033l0.504,0.033l0.507,0.031l0.51,0.031l0.513,0.029l0.517,0.029l0.519,0.027l0.523,0.027l0.525,0.026l0.528,0.025l0.531,0.024l0.534,0.023l0.537,0.022l0.099,0.003l0.439,0.019l0.542,0.023l0.544,0.021l0.546,0.02l0.548,0.02l0.551,0.018l0.553,0.018l0.555,0.017l0.557,0.016l0.559,0.015l0.561,0.014l0.563,0.013l0.564,0.012l0.231,0.004l0.335,0.009l0.568,0.013l0.569,0.012l0.571,0.012l0.573,0.01l0.573,0.01l0.575,0.009l0.576,0.007l0.578,0.007l0.578,0.007l0.58,0.005l0.58,0.004l0.533,0.003l0.048,0.001l0.583,0.005l0.582,0.004l0.584,0.004l0.584,0.003l0.585,0.001l0.516,0.001l0.069,0.001l0.586,0.002l0.586,0.001l0.586,0.001l0.587,0l0.587,-0.001l0.372,-0.002l0.215,0.001l0.586,0l0.587,-0.001l0.587,-0.001l0.587,-0.003l0.586,-0.003l0.359,-0.002l0.227,-0.001l0.586,-0.002l0.585,-0.003l0.585,-0.004l0.584,-0.004l0.584,-0.006l0.582,-0.006l0.117,-0.002l0.466,-0.003l0.581,-0.006l0.58,-0.006l0.58,-0.007l0.578,-0.008l0.577,-0.009l0.577,-0.009l0.575,-0.011l0.573,-0.011l0.572,-0.013l0.571,-0.013l0.569,-0.014l0.568,-0.015l0.566,-0.016l0.481,-0.015l0.084,-0.002l0.562,-0.015l0.561,-0.016l0.559,-0.017l0.557,-0.018l0.555,-0.019l0.553,-0.02l0.55,-0.021l0.549,-0.021l0.546,-0.023l0.543,-0.023l0.542,-0.025l0.538,-0.025l0.536,-0.026l0.534,-0.027l0.531,-0.028l0.528,-0.029l0.009,-0.001l0.516,-0.028l0.522,-0.029l0.519,-0.03l0.517,-0.031l0.513,-0.032l0.51,-0.033l0.506,-0.034l0.504,-0.035l0.5,-0.036l0.496,-0.037l0.493,-0.038l0.489,-0.038l0.486,-0.04l0.482,-0.041l0.478,-0.041l0.475,-0.043l0.47,-0.043l0.145,-0.014l0.321,-0.03l0.463,-0.044l0.458,-0.045l0.454,-0.046l0.45,-0.046l0.446,-0.048l0.441,-0.049l0.436,-0.05l0.432,-0.051l0.428,-0.052l0.423,-0.053l0.418,-0.053l0.413,-0.055l0.408,-0.056l0.404,-0.057l0.398,-0.058l0.394,-0.058l0.388,-0.06l0.383,-0.061l0.377,-0.062l0.373,-0.062l0.367,-0.064l0.361,-0.065l0.356,-0.066l0.35,-0.066l0.345,-0.068l0.339,-0.069l0.333,-0.07l0.327,-0.071l0.321,-0.071l0.315,-0.073l0.309,-0.074l0.303,-0.075l0.296,-0.076l0.291,-0.076l0.283,-0.078l0.278,-0.079l0.081,-0.024l0.19,-0.056l0.265,-0.08l0.13,-0.04l0.128,-0.041l0.126,-0.041l0.125,-0.042l0.123,-0.041l0.122,-0.042l0.12,-0.042l0.118,-0.042l0.116,-0.043l0.114,-0.043l0.113,-0.043l0.111,-0.043l0.11,-0.044l0.107,-0.044l0.106,-0.044l0.104,-0.044l0.102,-0.045l0.101,-0.045l0.098,-0.045l0.097,-0.046l0.095,-0.045l0.093,-0.046l0.092,-0.047l0.089,-0.046l0.088,-0.047l0.086,-0.047l0.083,-0.047l0.082,-0.048l0.081,-0.048l0.078,-0.048l0.076,-0.048l0.075,-0.049l0.072,-0.049l0.071,-0.049l0.069,-0.049l0.066,-0.05l0.065,-0.05l0.063,-0.05l0.061,-0.051l0.059,-0.051l0.057,-0.051l0.055,-0.051l0.053,-0.052l0.051,-0.052l0.049,-0.052l0.047,-0.052l0.045,-0.053l0.042,-0.053l0.041,-0.053l0.039,-0.054l0.037,-0.054l0.035,-0.054l0.032,-0.055l0.009,-0.015l0.022,-0.04l0.029,-0.055l0.026,-0.055l-0.023,0.057Z" style="fill:#fff;"/></g><path d="M128.027,373.742c-46.39,-0.211 -51.255,-0.972 -52.695,-18.277l-6.736,-122.677l120.623,0l-6.735,122.677c-1.452,17.442 -6.528,18.119 -53.576,18.281l-0.881,-0.004Z" style="fill:#e9e9e9;"/><clipPath id="_clip5"><path d="M128.027,373.742c-46.39,-0.211 -51.255,-0.972 -52.695,-18.277l-6.736,-122.677l120.623,0l-6.735,122.677c-1.452,17.442 -6.528,18.119 -53.576,18.281l-0.881,-0.004Z"/></clipPath><g clip-path="url(#_clip5)"><path d="M128.134,349.689c-40.753,-0.175 -45.026,-0.806 -46.291,-15.159l-5.917,-101.742l105.964,0l-5.917,101.742c-1.275,14.466 -5.735,15.027 -47.065,15.162l-0.774,-0.003Z" style="fill:#f5f5f5;"/><clipPath id="_clip6"><path d="M128.134,349.689c-40.753,-0.175 -45.026,-0.806 -46.291,-15.159l-5.917,-101.742l105.964,0l-5.917,101.742c-1.275,14.466 -5.735,15.027 -47.065,15.162l-0.774,-0.003Z"/></clipPath><g clip-path="url(#_clip6)"><rect x="69.751" y="294.908" width="118.313" height="60.826" style="fill:#c3c3c3;"/></g><path d="M173.939,238.87l-0.307,6.221l-0.203,4.11l-0.099,1.841l-0.301,5.608l-0.29,5.359l-0.02,0.349l-0.136,2.265l-0.157,2.586l-0.135,2.212l-0.023,0.358l-0.172,2.564l-0.174,2.571l-0.11,1.619l-0.073,0.97l-0.199,2.617l-0.204,2.659l-0.054,0.708l-0.169,2.003l-0.115,1.351l-0.128,1.423l-0.166,1.813l-0.102,1.034l-0.231,2.314l-0.066,0.62l-0.325,3.03l-0.001,0.006l-0.362,3.131l-0.38,3.259l-0.182,1.556l-0.227,1.835l-0.439,3.533l-0.368,2.942l-0.097,0.747l-0.501,3.854l-0.457,3.493l-0.072,0.539l-0.572,4.22l-0.602,4.421l-0.552,4.051l-0.082,0.582l-0.659,4.699l-0.023,0.157l0.01,-0.158l0.302,-4.735l0.037,-0.587l0.274,-4.079l0.296,-4.452l0.281,-4.249l0.036,-0.542l0.246,-3.514l0.269,-3.876l0.052,-0.752l0.217,-2.955l0.259,-3.55l0.133,-1.843l0.123,-1.561l0.256,-3.269l0.243,-3.142l0.001,-0.006l0.256,-3.035l0.052,-0.62l0.209,-2.314l0.093,-1.035l0.177,-1.811l0.137,-1.421l0.138,-1.348l0.203,-1.998l0.076,-0.705l0.285,-2.65l0.279,-2.608l0.103,-0.966l0.182,-1.612l0.288,-2.56l0.285,-2.552l0.04,-0.356l0.257,-2.201l0.299,-2.572l0.261,-2.254l0.042,-0.347l0.645,-5.327l0.674,-5.575l0.22,-1.831l0.512,-4.082l0.775,-6.181l0.02,-0.163l-0.008,0.164Z" style="fill:#fff;"/></g><path d="M267.693,379.475c-22.72,-0.059 -56.739,-2.691 -60.13,-6.952c-1.191,-1.495 0.111,-4.289 1.956,-5.301c4.101,-2.249 20.812,-4.761 27.081,-6.242c18.469,-4.364 26.066,-20.385 27.345,-32.576c1.3,-12.38 1.733,-58.066 0,-86.43c-0.828,-13.567 -13.016,-34.521 -27.345,-55.334l-65.26,-90.906l197.098,0l-65.26,90.906c-14.329,20.813 -26.517,41.767 -27.346,55.334c-1.732,28.364 -1.299,74.05 0,86.43c1.28,12.191 8.876,28.212 27.346,32.576c6.268,1.481 22.98,3.993 27.08,6.242c1.845,1.012 3.147,3.806 1.957,5.301c-3.392,4.261 -37.41,6.893 -60.13,6.952c-0.368,0.001 -2.196,0.002 -2.196,0.002l-2.196,-0.002Z" style="fill:#e9e9e9;"/><clipPath id="_clip7"><path d="M267.693,379.475c-22.72,-0.059 -56.739,-2.691 -60.13,-6.952c-1.191,-1.495 0.111,-4.289 1.956,-5.301c4.101,-2.249 20.812,-4.761 27.081,-6.242c18.469,-4.364 26.066,-20.385 27.345,-32.576c1.3,-12.38 1.733,-58.066 0,-86.43c-0.828,-13.567 -13.016,-34.521 -27.345,-55.334l-65.26,-90.906l197.098,0l-65.26,90.906c-14.329,20.813 -26.517,41.767 -27.346,55.334c-1.732,28.364 -1.299,74.05 0,86.43c1.28,12.191 8.876,28.212 27.346,32.576c6.268,1.481 22.98,3.993 27.08,6.242c1.845,1.012 3.147,3.806 1.957,5.301c-3.392,4.261 -37.41,6.893 -60.13,6.952c-0.368,0.001 -2.196,0.002 -2.196,0.002l-2.196,-0.002Z"/></clipPath><g clip-path="url(#_clip7)"><path d="M261.391,206.88c2.082,2.821 5.379,4.485 8.884,4.485c3.505,0 6.802,-1.664 8.884,-4.485c22.875,-30.998 82.022,-111.146 82.022,-111.146l-181.812,0c0,0 59.147,80.148 82.022,111.146Z" style="fill:#f5f5f5;"/><clipPath id="_clip8"><path d="M261.391,206.88c2.082,2.821 5.379,4.485 8.884,4.485c3.505,0 6.802,-1.664 8.884,-4.485c22.875,-30.998 82.022,-111.146 82.022,-111.146l-181.812,0c0,0 59.147,80.148 82.022,111.146Z"/></clipPath><g clip-path="url(#_clip8)"><rect x="191.289" y="122.017" width="158.281" height="96.901" style="fill:#c3c3c3;"/></g><path d="M328.876,368.505l-0.03,0.053l-0.031,0.053l-0.005,0.008l-0.03,0.045l-0.037,0.052l-0.039,0.053l-0.041,0.052l-0.044,0.052l-0.047,0.052l-0.048,0.052l-0.051,0.052l-0.054,0.051l-0.055,0.052l-0.058,0.051l-0.061,0.051l-0.063,0.051l-0.064,0.051l-0.068,0.051l-0.069,0.051l-0.072,0.05l-0.074,0.05l-0.076,0.051l-0.079,0.05l-0.08,0.049l-0.083,0.05l-0.085,0.05l-0.088,0.049l-0.089,0.049l-0.092,0.049l-0.093,0.049l-0.096,0.049l-0.098,0.049l-0.101,0.048l-0.102,0.048l-0.104,0.048l-0.107,0.048l-0.108,0.048l-0.111,0.048l-0.113,0.047l-0.115,0.048l-0.116,0.047l-0.119,0.047l-0.121,0.047l-0.123,0.046l-0.125,0.047l-0.127,0.046l-0.129,0.046l-0.131,0.046l-0.132,0.046l-0.135,0.046l-0.137,0.046l-0.139,0.045l-0.283,0.09l-0.291,0.09l-0.298,0.089l-0.306,0.088l-0.17,0.048l-0.143,0.04l-0.321,0.086l-0.328,0.086l-0.335,0.085l-0.343,0.084l-0.349,0.084l-0.356,0.083l-0.363,0.083l-0.37,0.081l-0.377,0.081l-0.383,0.081l-0.39,0.079l-0.396,0.079l-0.403,0.079l-0.409,0.077l-0.416,0.077l-0.421,0.076l-0.428,0.076l-0.433,0.075l-0.44,0.074l-0.445,0.073l-0.452,0.073l-0.457,0.072l-0.462,0.072l-0.469,0.07l-0.473,0.07l-0.48,0.07l-0.484,0.068l-0.49,0.068l-0.495,0.067l-0.5,0.067l-0.505,0.065l-0.51,0.065l-0.515,0.065l-0.52,0.063l-0.524,0.063l-0.529,0.062l-0.078,0.009l-0.456,0.052l-0.538,0.059l-0.543,0.058l-0.547,0.058l-0.551,0.057l-0.556,0.057l-0.56,0.055l-0.563,0.055l-0.568,0.054l-0.572,0.053l-0.575,0.053l-0.579,0.052l-0.583,0.051l-0.586,0.05l-0.59,0.05l-0.593,0.049l-0.597,0.048l-0.171,0.013l-0.429,0.033l-0.603,0.045l-0.606,0.044l-0.609,0.043l-0.613,0.043l-0.615,0.041l-0.618,0.041l-0.621,0.041l-0.623,0.039l-0.626,0.039l-0.628,0.038l-0.631,0.037l-0.634,0.036l-0.635,0.036l-0.638,0.035l-0.64,0.033l-0.206,0.011l-0.436,0.021l-0.644,0.03l-0.646,0.029l-0.647,0.028l-0.65,0.027l-0.651,0.027l-0.652,0.025l-0.655,0.025l-0.655,0.024l-0.657,0.024l-0.658,0.022l-0.66,0.022l-0.661,0.021l-0.661,0.02l-0.569,0.016l-0.094,0.003l-0.663,0.015l-0.665,0.015l-0.665,0.013l-0.666,0.013l-0.666,0.013l-0.667,0.011l-0.264,0.004l-0.403,0.005l-0.668,0.006l-0.668,0.006l-0.668,0.005l-0.668,0.004l-0.669,0.004l-0.219,0.001l-0.449,-0.001l-0.668,-0.001l-0.668,-0.003l-0.668,-0.003l-0.667,-0.004l-0.667,-0.004l-0.025,-0.001l-0.642,-0.007l-0.666,-0.009l-0.665,-0.01l-0.664,-0.01l-0.664,-0.011l-0.634,-0.012l-0.029,-0.001l-0.662,-0.015l-0.661,-0.017l-0.659,-0.017l-0.659,-0.019l-0.657,-0.019l-0.656,-0.019l-0.654,-0.021l-0.653,-0.022l-0.652,-0.022l-0.649,-0.023l-0.648,-0.024l-0.647,-0.024l-0.235,-0.01l-0.409,-0.018l-0.642,-0.029l-0.641,-0.03l-0.638,-0.031l-0.636,-0.032l-0.633,-0.032l-0.632,-0.033l-0.629,-0.034l-0.626,-0.035l-0.624,-0.036l-0.621,-0.036l-0.619,-0.037l-0.615,-0.038l-0.294,-0.019l-0.319,-0.021l-0.61,-0.042l-0.606,-0.042l-0.604,-0.043l-0.6,-0.044l-0.598,-0.045l-0.593,-0.046l-0.591,-0.046l-0.587,-0.047l-0.583,-0.048l-0.58,-0.048l-0.576,-0.05l-0.572,-0.05l-0.568,-0.051l-0.17,-0.015l-0.395,-0.038l-0.56,-0.054l-0.556,-0.056l-0.552,-0.055l-0.547,-0.057l-0.544,-0.058l-0.538,-0.058l-0.535,-0.059l-0.53,-0.059l-0.525,-0.061l-0.52,-0.061l-0.516,-0.062l-0.511,-0.062l-0.505,-0.063l-0.501,-0.064l-0.496,-0.065l-0.49,-0.066l-0.486,-0.066l-0.48,-0.067l-0.474,-0.067l-0.469,-0.068l-0.464,-0.069l-0.458,-0.07l-0.452,-0.071l-0.446,-0.071l-0.441,-0.072l-0.434,-0.072l-0.429,-0.073l-0.422,-0.074l-0.416,-0.075l-0.343,-0.063l-0.067,-0.013l-0.404,-0.077l-0.397,-0.078l-0.391,-0.079l-0.384,-0.079l-0.377,-0.08l-0.371,-0.081l-0.364,-0.081l-0.357,-0.082l-0.35,-0.083l-0.343,-0.083l-0.336,-0.084l-0.329,-0.085l-0.321,-0.085l-0.315,-0.086l-0.307,-0.087l-0.299,-0.087l-0.292,-0.088l-0.284,-0.088l-0.276,-0.09l-0.136,-0.045l-0.133,-0.045l-0.132,-0.045l-0.129,-0.045l-0.128,-0.046l-0.125,-0.046l-0.123,-0.045l-0.122,-0.047l-0.119,-0.046l-0.118,-0.046l-0.115,-0.047l-0.113,-0.046l-0.112,-0.047l-0.109,-0.047l-0.107,-0.047l-0.105,-0.048l-0.103,-0.047l-0.1,-0.048l-0.099,-0.048l-0.097,-0.048l-0.094,-0.048l-0.092,-0.048l-0.09,-0.049l-0.088,-0.048l-0.086,-0.049l-0.083,-0.049l-0.082,-0.049l-0.079,-0.049l-0.077,-0.05l-0.074,-0.05l-0.073,-0.049l-0.07,-0.05l-0.068,-0.05l-0.066,-0.051l-0.063,-0.05l-0.061,-0.051l-0.059,-0.05l-0.056,-0.051l-0.054,-0.051l-0.052,-0.051l-0.049,-0.052l-0.047,-0.051l-0.045,-0.052l-0.042,-0.052l-0.04,-0.051l-0.038,-0.052l-0.035,-0.053l-0.032,-0.052l-0.031,-0.052l-0.027,-0.053l-0.026,-0.053l-0.023,-0.052l-0.012,-0.033l-0.008,-0.02l-0.018,-0.053l-0.015,-0.054l-0.013,-0.053l0.015,0.053l0.018,0.052l0.021,0.052l0.023,0.051l0.025,0.051l0.027,0.051l0.03,0.051l0.033,0.05l0.034,0.05l0.038,0.049l0.039,0.05l0.042,0.049l0.044,0.049l0.046,0.048l0.049,0.049l0.051,0.048l0.053,0.047l0.056,0.048l0.058,0.047l0.06,0.047l0.062,0.047l0.065,0.046l0.067,0.046l0.069,0.046l0.071,0.046l0.074,0.045l0.076,0.046l0.078,0.044l0.08,0.045l0.083,0.044l0.084,0.045l0.087,0.044l0.089,0.043l0.091,0.044l0.093,0.043l0.095,0.042l0.098,0.043l0.1,0.042l0.101,0.043l0.104,0.041l0.106,0.042l0.108,0.041l0.11,0.041l0.112,0.041l0.114,0.041l0.116,0.04l0.119,0.04l0.12,0.04l0.122,0.04l0.124,0.039l0.126,0.039l0.129,0.039l0.13,0.038l0.132,0.039l0.134,0.038l0.136,0.037l0.278,0.075l0.286,0.074l0.293,0.073l0.301,0.072l0.308,0.071l0.315,0.069l0.323,0.069l0.33,0.068l0.337,0.067l0.344,0.066l0.351,0.064l0.358,0.064l0.365,0.063l0.372,0.062l0.378,0.061l0.385,0.06l0.392,0.058l0.397,0.058l0.405,0.057l0.067,0.009l0.343,0.048l0.417,0.056l0.422,0.056l0.429,0.054l0.435,0.053l0.44,0.053l0.447,0.051l0.452,0.051l0.458,0.049l0.464,0.049l0.469,0.047l0.474,0.047l0.48,0.046l0.485,0.045l0.491,0.043l0.495,0.043l0.501,0.042l0.506,0.041l0.51,0.041l0.516,0.039l0.52,0.038l0.525,0.037l0.529,0.037l0.534,0.035l0.538,0.035l0.543,0.034l0.547,0.032l0.552,0.032l0.555,0.031l0.56,0.03l0.394,0.02l0.169,0.01l0.568,0.03l0.571,0.029l0.575,0.029l0.578,0.027l0.583,0.027l0.585,0.026l0.59,0.025l0.592,0.024l0.596,0.023l0.599,0.022l0.603,0.022l0.605,0.02l0.609,0.02l0.318,0.01l0.293,0.01l0.614,0.02l0.617,0.019l0.62,0.018l0.622,0.018l0.625,0.016l0.627,0.016l0.629,0.015l0.632,0.014l0.634,0.013l0.637,0.012l0.638,0.012l0.641,0.01l0.407,0.007l0.235,0.004l0.644,0.012l0.646,0.011l0.648,0.01l0.649,0.01l0.651,0.008l0.652,0.008l0.654,0.006l0.655,0.006l0.656,0.006l0.658,0.004l0.658,0.003l0.66,0.003l0.029,0l0.631,0.005l0.662,0.003l0.662,0.003l0.663,0.003l0.663,0.001l0.64,0.001l0.024,0l0.665,0.002l0.665,0.001l0.665,0.001l0.666,-0.001l0.665,-0.001l0.447,-0.001l0.219,0l0.666,0l0.666,0l0.666,-0.001l0.665,-0.002l0.665,-0.003l0.402,-0.002l0.263,-0.001l0.665,-0.001l0.664,-0.003l0.663,-0.003l0.663,-0.004l0.662,-0.005l0.662,-0.005l0.093,-0.001l0.567,-0.003l0.66,-0.005l0.658,-0.005l0.657,-0.006l0.657,-0.006l0.655,-0.008l0.653,-0.008l0.652,-0.01l0.651,-0.01l0.649,-0.011l0.648,-0.012l0.646,-0.012l0.644,-0.014l0.642,-0.014l0.435,-0.01l0.205,-0.004l0.638,-0.014l0.637,-0.014l0.634,-0.015l0.632,-0.016l0.629,-0.017l0.627,-0.017l0.625,-0.019l0.622,-0.019l0.619,-0.02l0.617,-0.021l0.614,-0.022l0.611,-0.023l0.608,-0.024l0.605,-0.024l0.602,-0.026l0.428,-0.019l0.171,-0.007l0.595,-0.025l0.593,-0.026l0.589,-0.028l0.585,-0.028l0.582,-0.029l0.579,-0.03l0.574,-0.03l0.571,-0.032l0.567,-0.033l0.563,-0.033l0.559,-0.034l0.555,-0.036l0.551,-0.036l0.546,-0.037l0.543,-0.038l0.538,-0.038l0.455,-0.034l0.078,-0.006l0.529,-0.039l0.524,-0.04l0.52,-0.041l0.515,-0.042l0.51,-0.043l0.505,-0.044l0.5,-0.044l0.495,-0.046l0.49,-0.047l0.485,-0.047l0.479,-0.048l0.474,-0.05l0.469,-0.05l0.463,-0.051l0.457,-0.052l0.452,-0.053l0.446,-0.054l0.44,-0.055l0.434,-0.056l0.428,-0.057l0.422,-0.058l0.416,-0.058l0.41,-0.06l0.403,-0.061l0.397,-0.061l0.391,-0.062l0.384,-0.064l0.377,-0.064l0.371,-0.066l0.364,-0.066l0.357,-0.067l0.35,-0.068l0.343,-0.069l0.336,-0.07l0.329,-0.071l0.322,-0.072l0.144,-0.034l0.171,-0.039l0.307,-0.073l0.3,-0.074l0.292,-0.076l0.285,-0.076l0.139,-0.038l0.138,-0.039l0.135,-0.039l0.134,-0.039l0.132,-0.04l0.13,-0.039l0.127,-0.04l0.126,-0.04l0.124,-0.041l0.122,-0.041l0.119,-0.04l0.118,-0.042l0.116,-0.041l0.114,-0.042l0.111,-0.042l0.11,-0.042l0.107,-0.042l0.106,-0.043l0.103,-0.043l0.101,-0.043l0.099,-0.043l0.097,-0.044l0.095,-0.044l0.093,-0.044l0.091,-0.044l0.088,-0.045l0.086,-0.045l0.085,-0.045l0.082,-0.046l0.079,-0.045l0.078,-0.046l0.075,-0.046l0.073,-0.047l0.071,-0.046l0.069,-0.047l0.067,-0.048l0.064,-0.047l0.062,-0.048l0.059,-0.048l0.058,-0.048l0.055,-0.048l0.053,-0.049l0.05,-0.049l0.049,-0.049l0.046,-0.05l0.043,-0.05l0.041,-0.05l0.039,-0.05l0.032,-0.044l0.005,-0.007l0.034,-0.051l0.032,-0.051l0.03,-0.052l-0.027,0.053Z" style="fill:#fff;"/><path d="M341.131,98.668l-3.909,5.989l-2.581,3.955l-1.164,1.77l-3.545,5.386l-3.388,5.146l-0.219,0.332l-1.446,2.171l-1.65,2.475l-1.41,2.112l-0.232,0.346l-1.65,2.445l-1.656,2.452l-1.04,1.539l-0.635,0.926l-1.704,2.485l-1.734,2.523l-0.458,0.666l-1.322,1.899l-0.887,1.271l-0.948,1.346l-1.202,1.703l-0.698,0.976l-1.551,2.164l-0.424,0.584l-2.057,2.83l0,0.001l-2.152,2.917l-2.238,3.029l-1.065,1.441l-1.275,1.704l-2.451,3.27l-2.039,2.718l-0.524,0.694l-2.692,3.557l-2.44,3.219l-0.381,0.499l-2.968,3.884l-3.111,4.067l-2.852,3.726l-0.413,0.535l-3.324,4.313l-0.112,0.144l0.101,-0.152l3.033,-4.522l0.376,-0.561l2.624,-3.89l2.863,-4.246l2.73,-4.053l0.351,-0.521l2.267,-3.342l2.503,-3.692l0.487,-0.72l1.916,-2.805l2.302,-3.376l1.198,-1.758l1.017,-1.474l2.136,-3.101l2.054,-2.985l0,0l1.999,-2.87l0.412,-0.592l1.533,-2.175l0.691,-0.981l1.21,-1.695l0.955,-1.34l0.905,-1.257l1.35,-1.878l0.475,-0.653l1.799,-2.475l1.77,-2.438l0.658,-0.908l1.099,-1.496l1.749,-2.385l1.743,-2.379l0.246,-0.336l1.509,-2.041l1.767,-2.393l1.548,-2.098l0.238,-0.319l3.68,-4.941l3.85,-5.172l1.265,-1.699l2.834,-3.777l4.293,-5.72l0.113,-0.15l-0.102,0.157Z" style="fill:#fff;"/></g></svg>