<?xml version="1.0" encoding="UTF-8" standalone="no"?><!DOCTYPE svg PUBLIC "-//W3C//DTD SVG 1.1//EN" "http://www.w3.org/Graphics/SVG/1.1/DTD/svg11.dtd"><svg width="100%" height="100%" viewBox="0 0 650 400" version="1.1" xmlns="http://www.w3.org/2000/svg" xmlns:xlink="http://www.w3.org/1999/xlink" xml:space="preserve" xmlns:serif="http://www.serif.com/" style="fill-rule:evenodd;clip-rule:evenodd;stroke-linejoin:round;stroke-miterlimit:1.41421;"><rect id="Artboard1" x="0" y="0" width="650" height="400" style="fill:none;"/><clipPath id="_clip1"><rect x="0" y="0" width="650" height="400"/></clipPath><g clip-path="url(#_clip1)"><path d="M127.423,429.602c-17.276,0.037 -32.519,-12.496 -35.345,-30.089l-11.417,-71.065l-29.547,4.747c-11.182,1.796 -21.72,-5.824 -23.516,-17.006c-1.796,-11.183 5.824,-21.72 17.006,-23.516l29.547,-4.747l-4.093,-25.478l268.456,-43.128l4.094,25.478l29.547,-4.747c11.182,-1.797 21.719,5.823 23.516,17.006c0.865,5.385 -0.454,10.62 -3.303,14.801l100.708,0l0,200.97l-365.653,0l0,-43.226Zm-48.063,-109.255l-3.908,-24.321l-29.205,4.692c-6.712,1.079 -11.285,7.403 -10.207,14.114c1.078,6.712 7.403,11.285 14.114,10.207l29.206,-4.692Zm300.144,-48.489c5.315,-2.047 8.664,-7.599 7.725,-13.445c-1.079,-6.711 -7.403,-11.285 -14.114,-10.207l-29.206,4.692l3.046,18.96l32.549,0Zm-226.455,-42.584l-0.706,-4.393c-1.735,-10.803 5.626,-20.982 16.429,-22.718l57.089,-9.172c10.803,-1.735 20.982,5.626 22.718,16.429l0.706,4.393c26.358,-2.689 48.953,-3.554 64.72,-2.559c7.852,-0.33 12.567,-1.314 21.486,-2.896c-0.462,-3.215 0.418,-5.099 4.174,-5.77c3.683,-0.658 6.095,0.752 6.695,4.156c0.679,3.855 1.099,5.357 -7.412,6.986l-22.704,3.451l-226.332,36.361l-22.699,3.843c-8.614,1.122 -8.685,-0.436 -9.247,-4.309c-0.497,-3.421 1.358,-5.517 5.07,-6.047c3.787,-0.541 5.216,0.973 5.784,4.171c9.494,-1.368 14.313,-1.899 22.671,-4.367c14.65,-5.801 36.097,-11.948 61.558,-17.559Zm73.739,-28.404l-56.429,9.066c-6.484,1.041 -10.902,7.151 -9.86,13.635l0.637,3.967c12.526,-2.618 25.899,-5.092 39.817,-7.328c13.918,-2.236 27.392,-4.075 40.108,-5.512l-0.638,-3.968c-1.041,-6.483 -7.151,-10.901 -13.635,-9.86Z" style="fill:#e9e9e9;"/><path d="M320.698,310.71c-0.131,-0.651 -0.25,-1.307 -0.356,-1.968l-15.732,-97.925l-40.715,6.541c-15.409,2.476 -29.929,-8.024 -32.404,-23.433c-2.475,-15.409 8.025,-29.929 23.433,-32.404l40.715,-6.541l-5.64,-35.108l369.923,-59.429l5.64,35.108l40.715,-6.541c15.409,-2.476 29.929,8.024 32.404,23.433c2.476,15.409 -8.024,29.928 -23.433,32.404l-40.715,6.541l15.732,97.925c1.674,10.42 -0.058,20.608 -4.373,29.425l19.173,119.702l-361.051,57.831l-23.316,-145.561Zm-17.882,-111.055l-5.383,-33.513l-40.245,6.465c-9.248,1.487 -15.55,10.201 -14.064,19.449c1.486,9.248 10.2,15.55 19.448,14.064l40.244,-6.465Zm404.784,-99.408l-40.244,6.466l5.384,33.513l40.244,-6.466c9.248,-1.485 15.55,-10.2 14.064,-19.448c-1.485,-9.248 -10.199,-15.55 -19.448,-14.065Zm-303.242,-26.088l-0.973,-6.053c-2.391,-14.886 7.753,-28.913 22.639,-31.304l78.666,-12.638c14.886,-2.392 28.913,7.752 31.305,22.638l0.972,6.053c36.321,-3.706 67.455,-4.897 89.182,-3.526c10.819,-0.455 17.317,-1.811 29.607,-3.991c-0.637,-4.429 0.576,-7.026 5.752,-7.951c5.075,-0.906 8.399,1.036 9.225,5.728c0.936,5.311 1.514,7.381 -10.213,9.625l-31.286,4.756l-311.876,50.104l-31.279,5.295c-11.869,1.547 -11.967,-0.6 -12.742,-5.937c-0.685,-4.715 1.871,-7.602 6.986,-8.332c5.219,-0.746 7.187,1.34 7.971,5.746c13.081,-1.884 19.722,-2.615 31.239,-6.016c20.187,-7.994 49.74,-16.465 84.825,-24.197Zm101.61,-39.139l-77.757,12.492c-8.935,1.436 -15.023,9.854 -13.588,18.789l0.879,5.467c17.26,-3.607 35.687,-7.017 54.865,-10.098c19.178,-3.081 37.746,-5.615 55.268,-7.595l-0.879,-5.468c-1.435,-8.934 -9.853,-15.022 -18.788,-13.587Z" style="fill:#d4d4d4;"/><path d="M571.09,263.763l30.61,-4.917c11.584,-1.861 22.5,6.033 24.361,17.617c1.861,11.584 -6.033,22.5 -17.617,24.361l-30.61,4.918l11.827,73.62c3.243,20.185 -10.512,39.206 -30.698,42.449l-204.96,32.928c-20.186,3.243 -39.207,-10.513 -42.45,-30.698l-11.827,-73.62l-30.61,4.917c-11.584,1.861 -22.5,-6.033 -24.361,-17.617c-1.861,-11.584 6.033,-22.5 17.617,-24.361l30.61,-4.918l-4.24,-26.394l278.108,-44.679l4.24,26.394Zm-272.712,78.266l-4.048,-25.195l-30.256,4.86c-6.953,1.118 -11.69,7.669 -10.573,14.622c1.117,6.953 7.668,11.691 14.621,10.574l30.256,-4.861Zm304.316,-74.735l-30.256,4.861l4.048,25.195l30.256,-4.861c6.952,-1.117 11.69,-7.668 10.573,-14.621c-1.117,-6.953 -7.668,-11.691 -14.621,-10.574Zm-227.978,-19.613l-0.731,-4.551c-1.798,-11.191 5.828,-21.736 17.02,-23.534l59.141,-9.502c11.192,-1.797 21.737,5.829 23.535,17.02l0.731,4.551c27.306,-2.786 50.713,-3.682 67.047,-2.652c8.134,-0.341 13.019,-1.361 22.259,-3c-0.479,-3.33 0.433,-5.282 4.324,-5.977c3.815,-0.682 6.314,0.779 6.936,4.306c0.703,3.993 1.138,5.549 -7.679,7.236l-23.52,3.576l-234.469,37.668l-23.515,3.981c-8.924,1.163 -8.998,-0.452 -9.58,-4.464c-0.515,-3.544 1.406,-5.715 5.252,-6.264c3.924,-0.56 5.404,1.008 5.992,4.32c9.835,-1.416 14.827,-1.966 23.486,-4.523c15.177,-6.01 37.395,-12.378 63.771,-18.191Zm76.391,-29.425l-58.458,9.392c-6.717,1.079 -11.294,7.408 -10.215,14.125l0.66,4.11c12.976,-2.712 26.83,-5.275 41.248,-7.592c14.419,-2.316 28.378,-4.221 41.551,-5.71l-0.661,-4.11c-1.079,-6.717 -7.408,-11.294 -14.125,-10.215Z" style="fill:#fff;"/></g></svg>