<?xml version="1.0" encoding="UTF-8" standalone="no"?><!DOCTYPE svg PUBLIC "-//W3C//DTD SVG 1.1//EN" "http://www.w3.org/Graphics/SVG/1.1/DTD/svg11.dtd"><svg width="100%" height="100%" viewBox="0 0 650 400" version="1.1" xmlns="http://www.w3.org/2000/svg" xmlns:xlink="http://www.w3.org/1999/xlink" xml:space="preserve" xmlns:serif="http://www.serif.com/" style="fill-rule:evenodd;clip-rule:evenodd;stroke-linejoin:round;stroke-miterlimit:1.41421;"><g><path d="M587.541,76.799l-58.284,0l0,-2.861l-2.196,-2.197l7.841,-41.725c1.209,-6.125 5.196,-9.102 11.019,-9.21l24.956,0c5.823,0.108 9.81,3.085 11.019,9.21l7.841,41.725l-2.196,2.197l0,2.861Zm-29.142,-45.685c9.455,0 17.131,6.15 17.131,13.725c0,7.576 -7.676,13.726 -17.131,13.726c-9.455,0 -17.131,-6.15 -17.131,-13.726c0,-7.575 7.676,-13.725 17.131,-13.725Z" style="fill:#f5f5f5;"/><clipPath id="_clip1"><path d="M587.541,76.799l-58.284,0l0,-2.861l-2.196,-2.197l7.841,-41.725c1.209,-6.125 5.196,-9.102 11.019,-9.21l24.956,0c5.823,0.108 9.81,3.085 11.019,9.21l7.841,41.725l-2.196,2.197l0,2.861Zm-29.142,-45.685c9.455,0 17.131,6.15 17.131,13.725c0,7.576 -7.676,13.726 -17.131,13.726c-9.455,0 -17.131,-6.15 -17.131,-13.726c0,-7.575 7.676,-13.725 17.131,-13.725Z"/></clipPath><g clip-path="url(#_clip1)"><path d="M572.235,59.663l-27.672,0c-8.564,-0.667 -12.594,-4.44 -10.981,-12.079l2.582,-17.512c1.198,-6.375 4.714,-7.994 8.399,-9.266l27.672,0c3.685,1.272 7.201,2.891 8.399,9.266l2.582,17.512c1.613,7.639 -2.417,11.412 -10.981,12.079Z" style="fill:#e4e0e0;"/><path d="M529.257,76.799l0,-5.058c1.637,-4.264 53.978,-5.863 58.284,0l0,5.058l-58.284,0Z" style="fill:#c3c3c3;"/></g><path d="M507.451,379.194c-4.368,-0.01 -7.224,-1.163 -8.784,-3.295l0,-232.785c0.365,-17.98 9.777,-30.279 27.959,-37.488c3.332,-1.381 4.656,-2.817 4.68,-5.709l0,-9.509c0.004,-2.049 -1.032,-3.987 -2.652,-5.861c-0.534,-0.529 -0.657,-1.134 -0.649,-1.763l0,-3.356c0.007,-1.214 0.358,-1.975 1.252,-2.629c3.817,-2.162 12.285,-2.996 29.142,-3.295l0.784,0.014c16.337,0.311 24.601,1.152 28.358,3.281c0.894,0.654 1.245,1.415 1.252,2.629l0,3.356c0.008,0.629 -0.115,1.234 -0.649,1.763c-1.62,1.874 -2.656,3.812 -2.652,5.861l0,9.509c0.024,2.892 1.348,4.328 4.68,5.709c18.182,7.209 27.594,19.508 27.959,37.488l0,232.785c-1.56,2.132 -4.416,3.285 -8.784,3.295l-101.896,0Z" style="fill:#e4e0e0;"/></g><g><path d="M209.003,133.707c0.206,-13.73 2.523,-21.649 5.877,-26.707c1.398,-2.108 3.881,-4.609 4.12,-6l0.803,-4.619c0.18,-1.576 1.008,-2.235 2.197,-2.381l72,0c1.189,0.147 2.017,0.805 2.197,2.381l0.803,4.619c0.492,1.504 2.722,3.892 4.12,6c3.354,5.058 5.671,12.977 5.877,26.707c0.002,0.058 0.003,0.115 0.003,0.173l0,242.621c0,3.245 -2.635,5.88 -5.88,5.88l-86.24,0c-3.245,0 -5.88,-2.635 -5.88,-5.88l0,-242.621c0,-0.058 0.001,-0.115 0.003,-0.173Z" style="fill:#e4e0e0;"/><path d="M296,94l-76,0l8,-70c0.229,-2.624 1.571,-3.947 4,-4l52,0c2.429,0.053 3.771,1.376 4,4l8,70Zm-29.242,-67l-17.516,0c-7.86,0 -14.242,6.382 -14.242,14.242c0,7.861 6.382,14.243 14.242,14.243l17.516,0c7.86,0 14.242,-6.382 14.242,-14.243c0,-7.86 -6.382,-14.242 -14.242,-14.242Z" style="fill:#b0b0b0;"/><clipPath id="_clip2"><path d="M296,94l-76,0l8,-70c0.229,-2.624 1.571,-3.947 4,-4l52,0c2.429,0.053 3.771,1.376 4,4l8,70Zm-29.242,-67l-17.516,0c-7.86,0 -14.242,6.382 -14.242,14.242c0,7.861 6.382,14.243 14.242,14.243l17.516,0c7.86,0 14.242,-6.382 14.242,-14.243c0,-7.86 -6.382,-14.242 -14.242,-14.242Z"/></clipPath><g clip-path="url(#_clip2)"><path d="M227.641,43.616l-0.035,0l1.973,-17.768c0.217,-2.559 1.488,-3.849 3.789,-3.901l49.264,0c2.301,0.052 3.572,1.342 3.789,3.901l1.973,17.768l-0.035,0l0.641,7.205c0.251,3.401 -0.357,6.29 -6,6.176l-50,0c-5.643,0.114 -6.251,-2.775 -6,-6.176l0.641,-7.205Z" style="fill:#9b9b9b;"/></g><path d="M258.013,58.588c8.178,0.002 14.195,1.097 17.987,3.412l0,52c0.028,2.335 -1.281,4.888 -4,5c-4.681,0.071 -9.863,-0.754 -13.981,-0.66l0,0l-0.01,0l-0.009,0l0,0c-4.119,-0.094 -9.319,0.731 -14,0.66c-2.719,-0.112 -4.028,-2.665 -4,-5l0,-52c3.792,-2.315 9.822,-3.41 18,-3.412l0,0l0.006,0l0.007,0l0,0Z" style="fill:#9b9b9b;"/><clipPath id="_clip3"><path d="M258.013,58.588c8.178,0.002 14.195,1.097 17.987,3.412l0,52c0.028,2.335 -1.281,4.888 -4,5c-4.681,0.071 -9.863,-0.754 -13.981,-0.66l0,0l-0.01,0l-0.009,0l0,0c-4.119,-0.094 -9.319,0.731 -14,0.66c-2.719,-0.112 -4.028,-2.665 -4,-5l0,-52c3.792,-2.315 9.822,-3.41 18,-3.412l0,0l0.006,0l0.007,0l0,0Z"/></clipPath><g clip-path="url(#_clip3)"><path d="M271.5,98.5c0,7.451 -6.049,13.5 -13.5,13.5c-7.451,0 -13.5,-6.049 -13.5,-13.5l0,-15l27,0l0,15Z" style="fill:#c1c1c1;"/><rect x="244.5" y="57" width="27" height="15.5" style="fill:#c1c1c1;"/></g></g><g><path d="M395.755,105.633l0,-2.716l4.945,-2.236l-0.04,-0.677l-2.196,0l-0.441,-0.441l0,-16.768c-16.925,0.272 -20.611,-0.804 -20.798,-2.235l0,-7.825c-0.076,-4.297 5.025,-2.952 29.597,-3.354l0.572,0.009c24.079,0.373 29.101,-0.919 29.025,3.345l0,7.825c-0.187,1.431 -3.873,2.507 -20.798,2.235l0,16.768l-0.441,0.441l-2.196,0l-0.04,0.677l4.945,2.236l0,2.716l-11.067,0.637l-11.067,-0.637Z" style="fill:#dbdbdb;"/><path d="M456.541,145.395l-99.438,0c-2.271,-0.278 -3.189,-1.104 -3.353,-2.235l0,-11.179l-5.553,-3.613c-0.942,-0.84 -1.236,-1.755 -1.155,-3.094l0,-11.179c-0.279,-3.775 1.697,-5.891 5.532,-5.994c9.383,-0.254 29.727,-2.028 54.248,-2.948l1.146,0.043c24.008,0.932 43.866,2.655 53.102,2.905c3.835,0.103 5.811,2.219 5.532,5.994l0,11.179c0.081,1.339 -0.213,2.254 -1.155,3.094l-5.553,3.613l0,11.179c-0.164,1.131 -1.082,1.957 -3.353,2.235Z" style="fill:#c1c1c1;"/><path d="M350.842,193.848l0,-41.745c-0.982,-4.582 -4.882,-5.864 -9.171,-6.708c-3.08,-0.651 -3.955,-1.432 -4.463,-2.235c-0.565,-2.217 3.282,-5.517 16.738,-11.179c2.895,-1.31 8.715,-1.434 15.622,-1.118l98.974,0c8.364,-0.235 -5.899,14.766 -6.048,22.357l0,3.354l0.51,37.417l-1.118,134.042l-109.867,0l-1.177,-134.185Z" style="fill:#d9d9d9;fill-opacity:0.635714;"/><path d="M460.784,333.195l-107.924,0l-2.28,-139.204c-0.038,-1.705 27.3,-3.594 56.242,-3.881l0.678,0.007c28.689,0.309 55.602,2.182 55.564,3.874l-2.28,139.204Zm-17.073,-108.185c0,-3.091 -2.314,-5.6 -5.164,-5.6c-21.977,1.853 -43.065,1.714 -63.45,0c-2.85,0 -5.164,2.509 -5.164,5.6l0,75.932c0,3.091 2.641,7.19 5.132,6.997c20.344,-1.58 41.428,-2.227 63.482,0.139c3.091,0.332 5.164,-4.045 5.164,-7.136l0,-75.932Z" style="fill:#b0b0b0;"/><g><rect x="402.909" y="144.252" width="7.825" height="177.739" style="fill:#d4d4d4;"/><rect x="393.408" y="313.074" width="26.829" height="10.061" style="fill:#bcbcbc;"/><ellipse cx="406.822" cy="313.074" rx="13.414" ry="2.236" style="fill:#d4d4d4;"/></g><path d="M405.904,382.37c-38.728,-0.503 -58.313,-5.587 -58.37,-12.101l0,-18.07c-0.013,-3.597 1.73,-5.41 3.98,-6.707l-0.934,-151.501c0.577,2.393 21.385,4.287 56.242,3.944l1.624,0.014c33.878,0.27 54.05,-1.603 54.618,-3.958l-0.934,151.501c2.25,1.297 3.993,3.11 3.98,6.707l0,18.07c-0.058,6.566 -19.951,11.678 -59.288,12.112l-0.918,-0.011Zm43.981,-151.423c0,-3.282 -2.664,-5.947 -5.947,-5.947c-25.306,1.968 -49.589,1.82 -73.063,0c-3.282,0 -5.947,2.665 -5.947,5.947l0,80.651c0,3.283 3.068,5.83 5.91,6.244c24.37,3.548 48.761,3.57 73.1,0.148c3.539,-0.497 5.947,-3.109 5.947,-6.392l0,-80.651Z" style="fill:#b0b0b0;"/><clipPath id="_clip4"><path d="M405.904,382.37c-38.728,-0.503 -58.313,-5.587 -58.37,-12.101l0,-18.07c-0.013,-3.597 1.73,-5.41 3.98,-6.707l-0.934,-151.501c0.577,2.393 21.385,4.287 56.242,3.944l1.624,0.014c33.878,0.27 54.05,-1.603 54.618,-3.958l-0.934,151.501c2.25,1.297 3.993,3.11 3.98,6.707l0,18.07c-0.058,6.566 -19.951,11.678 -59.288,12.112l-0.918,-0.011Zm43.981,-151.423c0,-3.282 -2.664,-5.947 -5.947,-5.947c-25.306,1.968 -49.589,1.82 -73.063,0c-3.282,0 -5.947,2.665 -5.947,5.947l0,80.651c0,3.283 3.068,5.83 5.91,6.244c24.37,3.548 48.761,3.57 73.1,0.148c3.539,-0.497 5.947,-3.109 5.947,-6.392l0,-80.651Z"/></clipPath><g clip-path="url(#_clip4)"><path d="M405.977,357.78c-35.642,-0.354 -54.282,-5.659 -54.463,-8.935l0,-4.471l-0.934,-160.971l112.484,0l-0.934,160.971l0,4.471c-0.181,3.276 -18.821,8.581 -54.463,8.935l-0.845,0.008l-0.845,-0.008Z" style="fill:#c1c1c1;"/></g></g><g><path d="M134.721,183.859c0,0 -0.409,-1.51 -0.827,-3.055c-0.573,-2.118 -0.41,-4.368 0.461,-6.382c1.394,-3.22 3.518,-8.125 4.609,-10.645c0.426,-0.985 0.231,-2.128 -0.498,-2.915c0,-0.001 -0.001,-0.001 -0.001,-0.002c-0.427,-0.461 -1.02,-0.734 -1.648,-0.758c-0.628,-0.025 -1.24,0.202 -1.702,0.629c-0.785,0.727 -1.54,1.426 -1.54,1.426c0,0 -3.951,3.818 -7.131,6.892c-2.531,2.448 -5.885,3.863 -9.404,3.969c-2.582,0.078 -5.554,0.167 -7.674,0.231c-1.85,0.056 -3.657,0.574 -5.256,1.506c-0.68,0.397 -1.237,0.722 -1.237,0.722l31.369,8.9l0.479,-0.518Z" style="fill:#b0b0b0;"/><path d="M135.194,307.794c5.468,-0.211 8.617,1.147 9.13,4.292c2.222,15.057 4.931,30.214 8.73,45.593c1.153,4.097 1.977,8.094 2.014,11.852c-0.282,11.343 -14.955,11.859 -55.81,12.479l-4.036,0.061l-4.491,-0.061c-45.471,-0.62 -61.802,-1.136 -62.116,-12.479c0.041,-3.758 0.958,-7.755 2.242,-11.852c4.228,-15.379 7.243,-30.536 9.717,-45.593c0.57,-3.145 4.075,-4.503 10.16,-4.292l84.46,0Z" style="fill:#c3c3c3;"/><g><path d="M93.839,319.918l5.918,3.417l0,6.834l-5.918,3.416l-5.918,-3.416l0,-6.834l5.918,-3.417Z" style="fill:#d6d6d6;"/><circle cx="93.839" cy="326.752" r="3.936" style="fill:#f0f0f0;"/><circle cx="93.839" cy="326.752" r="2.121" style="fill:#b0b0b0;"/></g><path d="M54.203,174.186l0.683,-2.255c19.412,0.787 37.841,1.716 50.5,3.485c10.605,2.083 20.83,4.671 29.96,8.717c0.962,-1.044 2.115,-1.364 3.61,-0.383c1.413,0.926 0.525,2.962 -1.014,3.219l-0.455,1.609c-1.894,-1.194 -4.903,-1.063 -7.68,-1.207l-74.921,-10.935l-0.683,-2.25Z" style="fill:#c1c1c1;"/><path d="M93.648,309.738c-27.859,-0.086 -45.37,-1.543 -52.038,-4.437c5.044,-33.071 7.736,-65.097 5.823,-95.079c-0.815,-15.229 -2.296,-27.907 -4.013,-39.681c42.663,7.838 89.795,15.433 93.811,18.61l0,35.514c0.2,22.425 2.267,48.904 6.755,80.636c1.127,4.388 -27.236,3.985 -50.338,4.437Z" style="fill:#d6d6d6;"/><path d="M101.602,212.326c0,-1.879 -1.525,-3.404 -3.403,-3.404l-14.465,0c-1.878,0 -3.403,1.525 -3.403,3.404l0,71.814c0,1.879 1.525,3.404 3.403,3.404l14.465,0c1.878,0 3.403,-1.525 3.403,-3.404l0,-71.814Z" style="fill:#c1c1c1;"/><path d="M137.231,191.669c0,0 25.144,6.421 34.049,8.695c1.961,0.501 3.591,1.859 4.437,3.698c10.245,22.683 16.78,50.999 19.195,85.567c0.055,0.791 -0.22,1.568 -0.761,2.147c-0.54,0.579 -1.297,0.908 -2.089,0.908c0,0.001 -0.001,0.001 -0.001,0.001c-0.205,0 -0.406,-0.054 -0.584,-0.156c-1.145,-0.659 -5.66,-3.259 -8.535,-4.914c-1.563,-0.9 -2.672,-2.421 -3.05,-4.186c-1.125,-5.242 -3.451,-16.089 -3.451,-16.089l-13.792,-47.396l-26.395,5.126l0,-33.401l0.977,0Z" style="fill:#b0b0b0;"/></g></svg>