<?xml version="1.0" encoding="UTF-8" standalone="no"?><!DOCTYPE svg PUBLIC "-//W3C//DTD SVG 1.1//EN" "http://www.w3.org/Graphics/SVG/1.1/DTD/svg11.dtd"><svg width="100%" height="100%" viewBox="0 0 650 400" version="1.1" xmlns="http://www.w3.org/2000/svg" xmlns:xlink="http://www.w3.org/1999/xlink" xml:space="preserve" xmlns:serif="http://www.serif.com/" style="fill-rule:evenodd;clip-rule:evenodd;stroke-linejoin:round;stroke-miterlimit:1.41421;"><g><path d="M189.87,317.773l-31.48,-31.48c0,0 -6.145,6.145 -9.291,9.29c-0.479,0.48 -0.749,1.131 -0.749,1.809c0,0.679 0.27,1.33 0.749,1.809c1.583,1.583 3.958,3.958 6.106,6.106c1.233,1.234 1.857,2.95 1.704,4.687c-0.153,1.737 -1.067,3.318 -2.497,4.317c-33.797,23.807 -62.911,53.168 -78.02,78.488c-3.092,5.723 -9.626,8.674 -15.964,7.212c-0.017,0.073 -0.018,0.073 -0.018,0.072c-2.445,-0.564 -4.946,0.688 -5.958,2.984c-1.598,3.462 -2.337,6.332 -2.525,9.109c-0.294,4.824 1.494,9.542 4.912,12.959c-0.047,0.048 -0.047,0.048 -0.047,0.048c3.539,3.539 8.434,5.375 13.427,5.035c0.049,-0.003 0.098,-0.006 0.147,-0.01c4.89,-0.332 9.494,-2.425 12.96,-5.891c22.322,-22.322 106.544,-106.544 106.544,-106.544Zm-21.21,7.07c-1.734,1.734 -4.55,1.734 -6.285,0c-1.734,-1.734 -1.734,-4.55 0,-6.284c1.735,-1.734 4.551,-1.734 6.285,0c1.734,1.734 1.734,4.55 0,6.284Zm-45.982,45.982c-1.734,1.734 -4.55,1.734 -6.285,0c-1.734,-1.734 -1.734,-4.55 0,-6.284c1.735,-1.734 4.551,-1.734 6.285,0c1.734,1.734 1.734,4.55 0,6.284Zm-47.499,47.499c-1.735,1.735 -4.551,1.735 -6.285,0c-1.734,-1.734 -1.734,-4.55 0,-6.284c1.734,-1.734 4.55,-1.734 6.285,0c1.734,1.734 1.734,4.55 0,6.284Z" style="fill:#e2e2e2;"/><path d="M365.049,111.172c-40.665,4.821 -106.379,44.205 -223.098,153.969l50.276,50.276l124.118,-124.118c31.987,-32.321 46.085,-58.269 48.704,-80.127Z" style="fill:#f0f0f0;"/></g><g><path d="M263.249,117.738c40.666,-4.821 106.379,-44.205 223.099,-153.969l-50.276,-50.275l-124.118,124.118c-31.987,32.32 -46.086,58.268 -48.705,80.126Z" style="fill:#f0f0f0;"/></g><path d="M20.616,327.74c37.031,-20.993 91.801,-72.791 177.326,-168.239c3.71,-4.562 3.56,-4.634 0.324,-9.411c-13.192,-19.434 -12.567,-36.657 2.456,-51.575c34.246,-34.401 68.664,-69.411 97.42,-84.322c-3.818,-13.728 -9.519,-25.479 -16.373,-36.022c-19.986,5.358 -82.427,71.863 -117.069,121.981l-41.751,45.026l-77.773,85.96c-28.006,30.926 -38.102,64.152 -24.56,96.602Z" style="fill:#e2e2e2;"/><clipPath id="_clip1"><path d="M20.616,327.74c37.031,-20.993 91.801,-72.791 177.326,-168.239c3.71,-4.562 3.56,-4.634 0.324,-9.411c-13.192,-19.434 -12.567,-36.657 2.456,-51.575c34.246,-34.401 68.664,-69.411 97.42,-84.322c-3.818,-13.728 -9.519,-25.479 -16.373,-36.022c-19.986,5.358 -82.427,71.863 -117.069,121.981l-41.751,45.026l-77.773,85.96c-28.006,30.926 -38.102,64.152 -24.56,96.602Z"/></clipPath><g clip-path="url(#_clip1)"><path d="M189.271,119.104c-1.054,-12.254 14.511,-44.193 46.653,-77.077c-8.774,2.235 -22.99,13.027 -32.48,21.357c-17.683,15.519 -38.85,43.503 -45.761,38.873l-172.083,186.128l24.809,72.378l202.89,-202.89l-21.583,-30.705l-2.445,-8.064Z" style="fill:#f0f0f0;"/></g><path d="M844.064,147.05c-24.656,40.695 -83.183,102.194 -190.057,199.145c-5.085,4.232 -5.151,4.077 -10.025,0.938c-19.829,-12.798 -38.178,-11.045 -54.987,5.867c-38.735,38.581 -78.129,77.383 -95.797,108.896c-14.354,-3.192 -26.487,-8.512 -37.262,-15.133c6.958,-21.586 81.604,-92.169 137.074,-132.161l50.505,-47.231l96.297,-88.111c34.647,-31.727 70.608,-44.558 104.252,-32.21Z" style="fill:#e2e2e2;"/><clipPath id="_clip2"><path d="M844.064,147.05c-24.656,40.695 -83.183,102.194 -190.057,199.145c-5.085,4.232 -5.151,4.077 -10.025,0.938c-19.829,-12.798 -38.178,-11.045 -54.987,5.867c-38.735,38.581 -78.129,77.383 -95.797,108.896c-14.354,-3.192 -26.487,-8.512 -37.262,-15.133c6.958,-21.586 81.604,-92.169 137.074,-132.161l50.505,-47.231l96.297,-88.111c34.647,-31.727 70.608,-44.558 104.252,-32.21Z"/></clipPath><g clip-path="url(#_clip2)"><path d="M611.607,339.527c-12.962,-0.347 -47.9,18.218 -84.889,54.465c2.93,-9.469 15.301,-25.264 24.756,-35.88c17.615,-19.778 48.702,-44.049 44.217,-51.103l208.744,-194.7l75.382,21.805l-228.51,228.51l-31.282,-21.007l-8.418,-2.09Z" style="fill:#f0f0f0;"/></g><g><path d="M594.538,4.034c35.254,35.253 35.254,92.495 0,127.749c-35.253,35.253 -92.495,35.253 -127.749,0c-35.253,-35.254 -35.253,-92.496 0,-127.749c35.254,-35.254 92.496,-35.254 127.749,0Z" style="fill:#f0f0f0;"/><path d="M536.96,61.612c3.474,3.475 3.474,9.117 0,12.592c-3.475,3.475 -9.117,3.475 -12.592,0c-3.475,-3.475 -3.475,-9.117 0,-12.592c3.475,-3.474 9.117,-3.474 12.592,0Z" style="fill:#e2e2e2;"/><path d="M338.964,271.619l-12.011,-12.011c-2.604,-2.604 -2.604,-6.833 0,-9.437l86.584,-86.584c16.263,-20.13 14.921,-46.46 11.225,-80.802l4.871,-0.749c0,0 3.041,32.592 24.819,54.553l7.751,7.751c21.962,21.778 54.553,24.819 54.553,24.819l-0.749,4.871c-36.447,-3.923 -64.227,-4.838 -84.403,14.386l-83.203,83.203c-2.604,2.604 -6.833,2.604 -9.437,0Zm6.226,-18.017c1.673,1.672 1.673,4.388 0,6.061c-1.672,1.672 -4.388,1.672 -6.06,0c-1.673,-1.673 -1.673,-4.389 0,-6.061c1.672,-1.673 4.388,-1.673 6.06,0Z" style="fill:#e2e2e2;"/></g><g><path d="M468.039,284.081l37.664,39.988c0,0 -7.797,7.343 -11.788,11.102c-0.609,0.573 -1.42,0.881 -2.257,0.855c-0.836,-0.025 -1.629,-0.382 -2.203,-0.991c-1.893,-2.011 -4.735,-5.028 -7.305,-7.757c-1.476,-1.566 -3.568,-2.4 -5.715,-2.277c-2.147,0.123 -4.129,1.191 -5.412,2.915c-30.57,40.763 -67.816,75.542 -99.574,93.213c-7.165,3.595 -11.04,11.538 -9.467,19.405c-0.09,0.018 -0.09,0.019 -0.09,0.02c0.607,3.035 -1.027,6.07 -3.893,7.231c-4.326,1.839 -7.891,2.643 -11.32,2.77c-5.957,0.18 -11.708,-2.202 -15.797,-6.543c-0.06,0.056 -0.06,0.056 -0.061,0.056c-4.233,-4.495 -6.319,-10.599 -5.72,-16.74c0.006,-0.061 0.012,-0.121 0.018,-0.181c0.587,-6.015 3.333,-11.611 7.73,-15.753c28.324,-26.673 135.19,-127.313 135.19,-127.313Zm-9.483,25.877c-2.201,2.072 -2.302,5.543 -0.227,7.746c2.074,2.203 5.546,2.309 7.746,0.237c2.201,-2.072 2.303,-5.543 0.228,-7.746c-2.075,-2.203 -5.546,-2.309 -7.747,-0.237Zm-58.345,54.946c-2.2,2.072 -2.302,5.543 -0.227,7.746c2.075,2.203 5.546,2.309 7.746,0.237c2.201,-2.073 2.303,-5.544 0.228,-7.746c-2.075,-2.203 -5.546,-2.31 -7.747,-0.237Zm-60.269,56.759c-2.201,2.072 -2.303,5.543 -0.228,7.746c2.075,2.203 5.546,2.309 7.747,0.237c2.2,-2.073 2.302,-5.544 0.227,-7.747c-2.075,-2.203 -5.546,-2.309 -7.746,-0.236Z" style="fill:#e2e2e2;"/><path d="M783.918,56.745l18.912,-19.041c-28.061,-11.108 -52.572,-15.784 -64.97,-3.743l-267.462,247.897l43.777,46.478l18.485,-18.611c-1.632,-3.206 -1.111,-7.228 1.566,-9.905c0.052,-0.052 0.105,-0.103 0.158,-0.153l0.04,-0.038c2.659,-2.496 6.536,-2.962 9.655,-1.401l2.066,-2.08c-1.595,-3.195 -1.063,-7.183 1.597,-9.843c2.645,-2.645 6.604,-3.186 9.79,-1.623l2.098,-2.112c-1.558,-3.184 -1.015,-7.138 1.627,-9.781c2.628,-2.628 6.553,-3.178 9.729,-1.653l2.129,-2.143c-1.52,-3.174 -0.968,-7.094 1.658,-9.719c2.611,-2.611 6.501,-3.172 9.666,-1.683l2.162,-2.177c-1.483,-3.162 -0.921,-7.047 1.687,-9.656c2.594,-2.593 6.451,-3.164 9.603,-1.712l1.522,-1.531c-1.448,-3.152 -0.877,-7.004 1.715,-9.596c2.577,-2.578 6.401,-3.157 9.543,-1.74l2.028,-2.042c-1.411,-3.14 -0.83,-6.959 1.744,-9.533c2.56,-2.561 6.351,-3.149 9.48,-1.768l2.416,-2.432c-1.375,-3.128 -0.784,-6.912 1.773,-9.469c2.542,-2.543 6.298,-3.141 9.415,-1.796l2.3,-2.315c-1.339,-3.115 -0.739,-6.865 1.8,-9.405c2.525,-2.525 6.247,-3.132 9.351,-1.823l2.337,-2.353c-1.303,-3.102 -0.694,-6.817 1.828,-9.339c2.507,-2.507 6.195,-3.124 9.286,-1.851l2.374,-2.391c-1.267,-3.088 -0.649,-6.769 1.855,-9.274c2.49,-2.489 6.143,-3.115 9.221,-1.877l2.413,-2.43c-1.232,-3.075 -0.605,-6.722 1.882,-9.208c2.472,-2.472 6.09,-3.106 9.154,-1.904l1.779,-1.79c-1.198,-3.062 -0.563,-6.676 1.907,-9.146c2.454,-2.455 6.041,-3.097 9.091,-1.928l2.292,-2.307c-1.164,-3.048 -0.52,-6.628 1.932,-9.08c2.437,-2.437 5.989,-3.088 9.025,-1.953l2.533,-2.55c-1.129,-3.033 -0.477,-6.579 1.957,-9.013c2.42,-2.419 5.938,-3.078 8.958,-1.977l2.575,-2.593c-1.094,-3.018 -0.433,-6.529 1.983,-8.945c2.401,-2.401 5.884,-3.068 8.89,-2.002l2.619,-2.637c-1.06,-3.002 -0.391,-6.479 2.006,-8.877c2.383,-2.383 5.832,-3.058 8.822,-2.025l2.663,-2.682c-1.025,-2.986 -0.349,-6.429 2.031,-8.808c2.365,-2.365 5.779,-3.048 8.753,-2.049l2.034,-2.048c-0.994,-2.971 -0.31,-6.381 2.052,-8.743c2.348,-2.347 5.73,-3.037 8.688,-2.071Z" style="fill:#f0f0f0;"/></g><g><path d="M306.088,316.257l18.912,-19.041c-28.061,-11.109 -52.572,-15.784 -64.969,-3.744l-267.462,247.898l43.776,46.478l18.485,-18.612c-1.632,-3.205 -1.11,-7.227 1.567,-9.904c0.052,-0.052 0.104,-0.103 0.157,-0.153l0.04,-0.038c2.66,-2.496 6.536,-2.963 9.655,-1.401l2.066,-2.081c-1.595,-3.195 -1.063,-7.183 1.597,-9.842c2.646,-2.646 6.604,-3.186 9.791,-1.623l2.097,-2.112c-1.557,-3.185 -1.015,-7.138 1.628,-9.781c2.628,-2.628 6.553,-3.179 9.728,-1.653l2.129,-2.144c-1.52,-3.173 -0.967,-7.093 1.658,-9.718c2.611,-2.611 6.502,-3.172 9.666,-1.683l2.162,-2.177c-1.483,-3.162 -0.921,-7.048 1.688,-9.656c2.593,-2.594 6.45,-3.164 9.603,-1.712l1.521,-1.532c-1.448,-3.151 -0.876,-7.004 1.715,-9.596c2.578,-2.577 6.402,-3.156 9.543,-1.739l2.029,-2.042c-1.412,-3.14 -0.831,-6.959 1.744,-9.534c2.56,-2.56 6.35,-3.149 9.48,-1.767l2.416,-2.433c-1.375,-3.127 -0.785,-6.912 1.772,-9.469c2.543,-2.542 6.299,-3.14 9.416,-1.795l2.299,-2.316c-1.339,-3.115 -0.739,-6.865 1.801,-9.404c2.525,-2.525 6.246,-3.132 9.351,-1.823l2.336,-2.353c-1.303,-3.102 -0.694,-6.818 1.828,-9.34c2.508,-2.507 6.195,-3.123 9.286,-1.85l2.375,-2.391c-1.268,-3.089 -0.649,-6.77 1.855,-9.274c2.489,-2.49 6.142,-3.115 9.22,-1.877l2.413,-2.43c-1.231,-3.075 -0.604,-6.722 1.882,-9.209c2.472,-2.471 6.091,-3.105 9.155,-1.903l1.778,-1.791c-1.198,-3.061 -0.563,-6.676 1.907,-9.145c2.455,-2.455 6.041,-3.097 9.091,-1.928l2.292,-2.308c-1.163,-3.047 -0.52,-6.628 1.932,-9.079c2.437,-2.438 5.99,-3.088 9.026,-1.953l2.532,-2.55c-1.128,-3.033 -0.476,-6.579 1.958,-9.013c2.419,-2.419 5.937,-3.078 8.958,-1.978l2.575,-2.592c-1.094,-3.018 -0.434,-6.53 1.982,-8.945c2.401,-2.402 5.885,-3.069 8.89,-2.002l2.619,-2.637c-1.06,-3.002 -0.391,-6.479 2.007,-8.877c2.383,-2.383 5.832,-3.058 8.822,-2.026l2.663,-2.681c-1.026,-2.987 -0.349,-6.429 2.03,-8.808c2.365,-2.365 5.78,-3.048 8.753,-2.05l2.034,-2.047c-0.993,-2.972 -0.309,-6.381 2.053,-8.743c2.347,-2.348 5.729,-3.038 8.687,-2.071Z" style="fill:#f0f0f0;"/></g></svg>