<?xml version="1.0" encoding="UTF-8" standalone="no"?><!DOCTYPE svg PUBLIC "-//W3C//DTD SVG 1.1//EN" "http://www.w3.org/Graphics/SVG/1.1/DTD/svg11.dtd"><svg width="100%" height="100%" viewBox="0 0 650 400" version="1.1" xmlns="http://www.w3.org/2000/svg" xmlns:xlink="http://www.w3.org/1999/xlink" xml:space="preserve" xmlns:serif="http://www.serif.com/" style="fill-rule:evenodd;clip-rule:evenodd;stroke-linecap:round;stroke-linejoin:round;stroke-miterlimit:1.5;"><path d="M1132.05,8.007l-650.938,-268.882l-315.242,763.169l650.939,268.882l315.241,-763.169Z" style="fill:#e2e2e2;"/><g><path d="M623.047,-70.074c48.704,48.703 48.704,127.786 0,176.489c-48.704,48.704 -127.786,48.704 -176.49,0c-48.703,-48.703 -48.703,-127.786 0,-176.489c48.704,-48.704 127.786,-48.704 176.49,0Z" style="fill:#fff;"/><path d="M604.752,-51.78c38.607,38.607 38.607,101.294 0,139.901c-38.606,38.606 -101.293,38.606 -139.9,0c-38.607,-38.607 -38.607,-101.294 0,-139.901c38.607,-38.606 101.294,-38.606 139.9,0Z" style="fill:none;stroke:#ddd;stroke-width:2.67px;"/><path d="M407.674,126.394c14.584,-14.329 21.063,-30.392 17.461,-48.612l50.055,50.056c-18.219,-3.602 -34.282,2.876 -48.611,17.461c-0.063,0.066 -0.127,0.132 -0.192,0.196l-68.075,68.075c-5.218,5.218 -13.691,5.218 -18.909,0c-5.219,-5.218 -5.219,-13.691 0,-18.91l68.074,-68.074c0.065,-0.065 0.131,-0.129 0.197,-0.192Zm-53.144,72.048c2.784,2.783 2.784,7.302 0,10.085c-2.783,2.784 -7.302,2.784 -10.085,0c-2.783,-2.783 -2.783,-7.302 0,-10.085c2.783,-2.783 7.302,-2.783 10.085,0Zm82.177,-73.108c-1.86,1.197 -4.304,0.935 -5.869,-0.63c-0.809,-0.779 -1.678,-1.648 -2.479,-2.449c-1.63,-1.632 -1.907,-4.178 -0.663,-6.121c3.328,-5.29 5.676,-11.227 6.885,-17.913l20.17,20.171c-6.736,1.218 -12.711,3.592 -18.044,6.942Z" style="fill:#fff;"/></g><g><g><path d="M295.73,393.332c-39.026,39.027 -102.395,39.027 -141.421,0c-39.026,-39.026 -39.026,-102.395 0,-141.421c39.026,-39.026 102.395,-39.026 141.421,0c39.027,39.026 39.027,102.395 0,141.421Z" style="fill:#f0f0f0;"/><path d="M225.35,212.642l0.329,0.001l0.33,0.003l0.33,0.003l0.33,0.005l0.329,0.005l0.33,0.006l0.33,0.008l0.329,0.008l0.33,0.009l0.33,0.011l0.329,0.011l0.33,0.012l0.329,0.014l0.33,0.014l0.329,0.015l0.33,0.016l0.329,0.017l0.329,0.019l0.33,0.019l0.329,0.02l0.329,0.021l0.329,0.022l0.33,0.023l0.329,0.024l0.329,0.025l0.329,0.026l0.328,0.027l0.33,0.028l0.328,0.029l0.329,0.03l0.328,0.031l0.329,0.032l0.328,0.033l0.329,0.034l0.328,0.035l0.328,0.036l0.329,0.036l0.327,0.038l0.328,0.039l0.328,0.04l0.328,0.041l0.328,0.041l0.327,0.043l0.328,0.044l0.327,0.044l0.327,0.046l0.328,0.047l0.326,0.047l0.327,0.049l0.327,0.05l0.327,0.05l0.326,0.052l0.327,0.052l0.326,0.054l0.327,0.054l0.325,0.056l0.326,0.056l0.326,0.058l0.326,0.058l0.325,0.06l0.325,0.06l0.326,0.061l0.325,0.063l0.325,0.063l0.324,0.064l0.325,0.066l0.325,0.066l0.324,0.067l0.324,0.069l0.324,0.069l0.324,0.07l0.323,0.071l0.324,0.073l0.323,0.073l0.323,0.074l0.323,0.075l0.323,0.076l0.323,0.077l0.322,0.078l0.322,0.08l0.322,0.08l0.322,0.081l0.321,0.082l0.322,0.083l0.321,0.084l0.322,0.085l0.32,0.086l0.321,0.087l0.32,0.088l0.32,0.089l0.32,0.089l0.32,0.091l0.32,0.092l0.319,0.093l0.319,0.094l0.319,0.095l0.319,0.096l0.318,0.096l0.319,0.098l0.317,0.099l0.318,0.1l0.318,0.1l0.317,0.102l0.317,0.103l0.316,0.104l0.317,0.104l0.317,0.106l0.315,0.107l0.316,0.107l0.315,0.109l0.316,0.109l0.315,0.111l0.314,0.112l0.315,0.112l0.314,0.114l0.314,0.114l0.313,0.116l0.314,0.116l0.313,0.118l0.313,0.118l0.312,0.119l0.312,0.121l0.312,0.121l0.311,0.123l0.312,0.123l0.311,0.124l0.311,0.126l0.31,0.126l0.31,0.127l0.31,0.129l0.309,0.129l0.31,0.13l0.308,0.132l0.309,0.132l0.308,0.133l0.308,0.134l0.308,0.136l0.307,0.136l0.307,0.137l0.306,0.138l0.306,0.139l0.306,0.14l0.306,0.141l0.305,0.142l0.305,0.143l0.304,0.144l0.305,0.145l0.304,0.147l0.303,0.146l0.303,0.148l0.303,0.149l0.302,0.15l0.302,0.151l0.302,0.152l0.301,0.153l0.301,0.154l0.3,0.155l0.3,0.156l0.3,0.157l0.3,0.158l0.299,0.158l0.298,0.16l0.298,0.161l0.298,0.161l0.298,0.163l0.297,0.164l0.296,0.165l0.297,0.165l0.295,0.167l0.296,0.168l0.295,0.168l0.294,0.17l0.294,0.17l0.294,0.172l0.294,0.173l0.292,0.173l0.293,0.175l0.292,0.175l0.292,0.177l0.291,0.177l0.29,0.179l0.291,0.179l0.29,0.181l0.289,0.181l0.289,0.182l0.289,0.184l0.288,0.184l0.288,0.185l0.287,0.187l0.286,0.187l0.287,0.188l0.285,0.19l0.286,0.19l0.285,0.191l0.284,0.192l0.284,0.193l0.283,0.195l0.283,0.195l0.283,0.196l0.282,0.197l0.281,0.198l0.281,0.199l0.281,0.2l0.28,0.201l0.279,0.202l0.279,0.203l0.279,0.204l0.278,0.205l0.277,0.206l0.278,0.207l0.276,0.208l0.276,0.208l0.275,0.21l0.275,0.211l0.275,0.212l0.274,0.212l0.273,0.214l0.273,0.215l0.272,0.215l0.272,0.217l0.271,0.218l0.271,0.218l0.27,0.22l0.27,0.22l0.269,0.222l0.268,0.223l0.268,0.223l0.267,0.224l0.267,0.226l0.267,0.226l0.265,0.227l0.265,0.229l0.265,0.229l0.264,0.23l0.263,0.232l0.263,0.232l0.262,0.233l0.262,0.234l0.261,0.235l0.261,0.236l0.26,0.237l0.259,0.238l0.259,0.24l0.258,0.24l0.257,0.24l0.257,0.242l0.257,0.243l0.256,0.244l0.254,0.245l0.255,0.246l0.254,0.246l0.253,0.248l0.253,0.249l0.252,0.249l0.252,0.251l0.25,0.251l0.25,0.252l0.248,0.253l0.248,0.253l0.247,0.254l0.245,0.255l0.245,0.255l0.244,0.256l0.243,0.256l0.242,0.257l0.241,0.258l0.24,0.258l0.239,0.258l0.238,0.26l0.237,0.26l0.236,0.26l0.235,0.261l0.234,0.262l0.234,0.262l0.232,0.263l0.231,0.263l0.23,0.264l0.23,0.265l0.228,0.265l0.227,0.266l0.227,0.266l0.225,0.267l0.225,0.267l0.223,0.268l0.222,0.269l0.222,0.269l0.221,0.27l0.219,0.27l0.219,0.27l0.217,0.272l0.217,0.271l0.215,0.272l0.215,0.273l0.214,0.274l0.213,0.274l0.211,0.274l0.211,0.275l0.21,0.275l0.209,0.277l0.208,0.276l0.207,0.277l0.205,0.277l0.206,0.279l0.203,0.278l0.203,0.279l0.202,0.28l0.201,0.28l0.2,0.28l0.199,0.281l0.199,0.282l0.197,0.282l0.196,0.282l0.195,0.283l0.194,0.283l0.193,0.284l0.192,0.285l0.192,0.285l0.19,0.285l0.189,0.286l0.188,0.286l0.188,0.287l0.186,0.287l0.185,0.287l0.185,0.289l0.183,0.288l0.182,0.289l0.182,0.29l0.18,0.29l0.18,0.29l0.178,0.29l0.178,0.292l0.176,0.291l0.175,0.292l0.175,0.293l0.174,0.293l0.172,0.293l0.172,0.294l0.17,0.294l0.17,0.295l0.169,0.295l0.167,0.295l0.167,0.296l0.166,0.296l0.164,0.297l0.164,0.297l0.163,0.297l0.162,0.298l0.16,0.298l0.16,0.299l0.159,0.299l0.158,0.299l0.157,0.3l0.156,0.3l0.154,0.301l0.154,0.3l0.153,0.302l0.152,0.301l0.151,0.302l0.15,0.303l0.149,0.302l0.148,0.303l0.147,0.304l0.146,0.304l0.145,0.304l0.144,0.304l0.143,0.305l0.142,0.306l0.141,0.305l0.14,0.306l0.139,0.306l0.139,0.307l0.137,0.307l0.136,0.307l0.135,0.307l0.134,0.308l0.134,0.308l0.132,0.309l0.131,0.309l0.13,0.309l0.13,0.309l0.128,0.31l0.127,0.31l0.127,0.311l0.125,0.311l0.124,0.311l0.124,0.311l0.122,0.311l0.121,0.312l0.121,0.313l0.119,0.312l0.119,0.312l0.117,0.314l0.117,0.313l0.115,0.314l0.115,0.314l0.113,0.314l0.113,0.314l0.111,0.315l0.111,0.315l0.11,0.315l0.108,0.315l0.108,0.316l0.107,0.316l0.105,0.316l0.105,0.317l0.103,0.317l0.103,0.317l0.102,0.317l0.101,0.317l0.099,0.318l0.099,0.318l0.098,0.318l0.097,0.318l0.096,0.319l0.094,0.319l0.094,0.319l0.093,0.32l0.092,0.319l0.091,0.32l0.09,0.32l0.089,0.32l0.088,0.321l0.087,0.32l0.086,0.321l0.085,0.321l0.084,0.321l0.083,0.322l0.082,0.321l0.081,0.322l0.08,0.322l0.079,0.322l0.078,0.323l0.077,0.322l0.076,0.323l0.076,0.323l0.074,0.323l0.073,0.324l0.072,0.323l0.071,0.324l0.071,0.324l0.069,0.323l0.068,0.324l0.067,0.325l0.067,0.324l0.065,0.325l0.064,0.324l0.064,0.325l0.062,0.326l0.061,0.325l0.061,0.325l0.059,0.326l0.059,0.325l0.057,0.326l0.057,0.326l0.055,0.326l0.055,0.326l0.053,0.327l0.053,0.326l0.051,0.326l0.051,0.327l0.049,0.327l0.049,0.327l0.048,0.327l0.046,0.327l0.046,0.327l0.045,0.328l0.043,0.327l0.043,0.328l0.042,0.328l0.041,0.327l0.039,0.328l0.039,0.328l0.038,0.328l0.037,0.328l0.036,0.328l0.035,0.329l0.033,0.328l0.033,0.329l0.032,0.328l0.031,0.329l0.03,0.329l0.029,0.328l0.028,0.329l0.027,0.329l0.026,0.329l0.025,0.329l0.024,0.329l0.023,0.329l0.022,0.329l0.021,0.329l0.021,0.33l0.019,0.329l0.018,0.329l0.017,0.33l0.016,0.329l0.016,0.329l0.014,0.33l0.013,0.33l0.012,0.329l0.012,0.33l0.01,0.329l0.009,0.33l0.009,0.33l0.007,0.33l0.006,0.329l0.006,0.33l0.004,0.33l0.004,0.329l0.002,0.331l0.002,0.329l0,0.33l0,0.329l-0.002,0.33l-0.002,0.33l-0.004,0.33l-0.004,0.329l-0.006,0.33l-0.006,0.33l-0.007,0.33l-0.009,0.33l-0.009,0.329l-0.01,0.33l-0.012,0.329l-0.012,0.33l-0.013,0.329l-0.014,0.33l-0.016,0.329l-0.016,0.33l-0.017,0.329l-0.018,0.329l-0.019,0.33l-0.021,0.329l-0.021,0.33l-0.022,0.329l-0.023,0.329l-0.024,0.329l-0.025,0.329l-0.026,0.329l-0.027,0.329l-0.028,0.328l-0.029,0.329l-0.03,0.329l-0.031,0.329l-0.032,0.328l-0.033,0.328l-0.033,0.329l-0.035,0.328l-0.036,0.328l-0.037,0.328l-0.038,0.329l-0.039,0.328l-0.039,0.327l-0.041,0.328l-0.042,0.328l-0.043,0.327l-0.043,0.328l-0.045,0.327l-0.046,0.327l-0.046,0.327l-0.048,0.328l-0.049,0.326l-0.049,0.327l-0.051,0.327l-0.051,0.327l-0.053,0.326l-0.053,0.326l-0.055,0.326l-0.055,0.326l-0.057,0.326l-0.057,0.326l-0.059,0.326l-0.059,0.325l-0.061,0.326l-0.061,0.325l-0.062,0.325l-0.064,0.325l-0.064,0.325l-0.065,0.324l-0.067,0.325l-0.067,0.324l-0.068,0.324l-0.069,0.324l-0.071,0.324l-0.071,0.324l-0.072,0.323l-0.073,0.323l-0.074,0.323l-0.076,0.324l-0.076,0.322l-0.077,0.323l-0.078,0.322l-0.079,0.322l-0.08,0.322l-0.081,0.322l-0.082,0.322l-0.083,0.321l-0.084,0.322l-0.085,0.32l-0.086,0.321l-0.087,0.321l-0.088,0.321l-0.089,0.32l-0.09,0.32l-0.091,0.319l-0.092,0.32l-0.093,0.319l-0.094,0.319l-0.094,0.319l-0.096,0.319l-0.097,0.318l-0.098,0.318l-0.099,0.319l-0.099,0.318l-0.101,0.317l-0.102,0.317l-0.103,0.317l-0.103,0.317l-0.105,0.316l-0.106,0.316l-0.106,0.317l-0.108,0.315l-0.108,0.316l-0.11,0.315l-0.111,0.315l-0.111,0.315l-0.113,0.314l-0.113,0.314l-0.115,0.314l-0.115,0.314l-0.117,0.313l-0.117,0.313l-0.119,0.312l-0.119,0.313l-0.121,0.312l-0.121,0.312l-0.122,0.312l-0.124,0.311l-0.124,0.311l-0.125,0.311l-0.127,0.31l-0.127,0.311l-0.128,0.309l-0.13,0.309l-0.13,0.31l-0.131,0.309l-0.132,0.308l-0.134,0.308l-0.134,0.308l-0.135,0.308l-0.136,0.307l-0.137,0.307l-0.139,0.307l-0.139,0.306l-0.14,0.305l-0.141,0.306l-0.142,0.305l-0.143,0.305l-0.144,0.305l-0.145,0.304l-0.146,0.303l-0.147,0.304l-0.148,0.303l-0.149,0.303l-0.15,0.302l-0.151,0.302l-0.152,0.302l-0.153,0.301l-0.154,0.301l-0.155,0.301l-0.156,0.3l-0.156,0.299l-0.158,0.3l-0.159,0.299l-0.16,0.298l-0.16,0.299l-0.162,0.297l-0.163,0.298l-0.164,0.297l-0.164,0.297l-0.166,0.296l-0.167,0.296l-0.167,0.295l-0.169,0.295l-0.169,0.294l-0.171,0.295l-0.172,0.294l-0.172,0.292l-0.174,0.294l-0.175,0.292l-0.175,0.292l-0.176,0.292l-0.178,0.291l-0.179,0.291l-0.179,0.29l-0.18,0.29l-0.182,0.289l-0.182,0.289l-0.183,0.289l-0.185,0.288l-0.185,0.288l-0.186,0.287l-0.188,0.286l-0.188,0.287l-0.189,0.286l-0.19,0.285l-0.192,0.285l-0.192,0.284l-0.193,0.284l-0.194,0.284l-0.195,0.283l-0.196,0.282l-0.197,0.282l-0.198,0.281l-0.2,0.281l-0.2,0.281l-0.201,0.28l-0.202,0.28l-0.203,0.278l-0.203,0.279l-0.206,0.278l-0.206,0.278l-0.206,0.277l-0.208,0.276l-0.209,0.276l-0.21,0.276l-0.211,0.274l-0.211,0.275l-0.213,0.273l-0.214,0.274l-0.215,0.273l-0.215,0.272l-0.217,0.272l-0.218,0.272l-0.218,0.27l-0.219,0.27l-0.221,0.27l-0.222,0.269l-0.222,0.268l-0.223,0.268l-0.225,0.268l-0.225,0.267l-0.227,0.266l-0.227,0.265l-0.228,0.265l-0.23,0.265l-0.23,0.264l-0.231,0.264l-0.232,0.262l-0.234,0.263l-0.234,0.261l-0.235,0.261l-0.236,0.261l-0.237,0.26l-0.238,0.259l-0.239,0.259l-0.24,0.258l-0.241,0.258l-0.242,0.257l-0.243,0.256l-0.244,0.256l-0.245,0.255l-0.245,0.254l-0.247,0.254l-0.248,0.254l-0.248,0.252l-0.25,0.252l-0.25,0.251l-0.252,0.251l-0.252,0.25l-0.253,0.249l-0.253,0.247l-0.254,0.247l-0.254,0.246l-0.255,0.244l-0.256,0.244l-0.256,0.243l-0.257,0.242l-0.258,0.241l-0.258,0.24l-0.259,0.239l-0.259,0.238l-0.26,0.237l-0.261,0.236l-0.261,0.235l-0.261,0.234l-0.263,0.234l-0.263,0.232l-0.263,0.231l-0.264,0.23l-0.265,0.23l-0.265,0.228l-0.266,0.228l-0.266,0.226l-0.267,0.225l-0.267,0.225l-0.268,0.223l-0.268,0.223l-0.269,0.221l-0.27,0.221l-0.27,0.219l-0.271,0.219l-0.271,0.218l-0.272,0.216l-0.272,0.216l-0.273,0.214l-0.273,0.214l-0.274,0.213l-0.275,0.212l-0.275,0.211l-0.275,0.209l-0.276,0.209l-0.276,0.208l-0.278,0.207l-0.277,0.206l-0.278,0.205l-0.279,0.204l-0.279,0.203l-0.279,0.202l-0.28,0.201l-0.281,0.199l-0.281,0.2l-0.281,0.198l-0.282,0.197l-0.283,0.196l-0.283,0.195l-0.283,0.194l-0.284,0.193l-0.284,0.193l-0.285,0.191l-0.285,0.19l-0.287,0.189l-0.286,0.189l-0.286,0.187l-0.287,0.186l-0.289,0.186l-0.287,0.184l-0.289,0.183l-0.289,0.183l-0.289,0.181l-0.29,0.18l-0.291,0.18l-0.29,0.178l-0.291,0.178l-0.292,0.176l-0.292,0.176l-0.293,0.174l-0.292,0.174l-0.294,0.172l-0.294,0.172l-0.293,0.17l-0.295,0.17l-0.295,0.169l-0.296,0.168l-0.296,0.166l-0.296,0.166l-0.296,0.165l-0.297,0.163l-0.298,0.163l-0.298,0.162l-0.298,0.161l-0.298,0.159l-0.299,0.159l-0.3,0.158l-0.3,0.157l-0.3,0.156l-0.3,0.155l-0.301,0.153l-0.301,0.153l-0.302,0.152l-0.302,0.151l-0.302,0.15l-0.303,0.149l-0.303,0.148l-0.303,0.147l-0.304,0.146l-0.305,0.145l-0.304,0.144l-0.305,0.143l-0.305,0.142l-0.306,0.141l-0.306,0.141l-0.306,0.139l-0.306,0.138l-0.307,0.137l-0.307,0.136l-0.308,0.135l-0.308,0.135l-0.308,0.133l-0.308,0.132l-0.309,0.131l-0.31,0.131l-0.309,0.129l-0.31,0.128l-0.31,0.127l-0.31,0.127l-0.311,0.125l-0.311,0.124l-0.312,0.124l-0.311,0.122l-0.312,0.122l-0.312,0.12l-0.312,0.119l-0.313,0.119l-0.314,0.118l-0.313,0.116l-0.313,0.115l-0.314,0.115l-0.314,0.114l-0.315,0.112l-0.314,0.112l-0.315,0.11l-0.315,0.11l-0.316,0.109l-0.316,0.107l-0.315,0.106l-0.317,0.106l-0.317,0.105l-0.316,0.104l-0.317,0.102l-0.317,0.102l-0.318,0.101l-0.318,0.1l-0.317,0.098l-0.319,0.098l-0.319,0.097l-0.318,0.096l-0.318,0.094l-0.32,0.094l-0.319,0.093l-0.32,0.092l-0.32,0.091l-0.319,0.09l-0.321,0.089l-0.32,0.088l-0.321,0.087l-0.32,0.086l-0.322,0.085l-0.321,0.084l-0.322,0.083l-0.321,0.082l-0.322,0.081l-0.322,0.08l-0.322,0.079l-0.322,0.078l-0.323,0.077l-0.323,0.077l-0.323,0.075l-0.323,0.074l-0.323,0.073l-0.324,0.072l-0.323,0.071l-0.324,0.071l-0.324,0.069l-0.324,0.068l-0.325,0.068l-0.324,0.066l-0.325,0.065l-0.324,0.064l-0.325,0.064l-0.325,0.062l-0.326,0.062l-0.324,0.06l-0.327,0.06l-0.325,0.058l-0.326,0.057l-0.325,0.057l-0.326,0.055l-0.327,0.055l-0.326,0.053l-0.327,0.053l-0.326,0.051l-0.327,0.051l-0.327,0.05l-0.327,0.048l-0.326,0.048l-0.328,0.047l-0.327,0.045l-0.327,0.045l-0.328,0.044l-0.327,0.042l-0.328,0.042l-0.328,0.041l-0.328,0.04l-0.328,0.038l-0.327,0.038l-0.329,0.037l-0.329,0.036l-0.327,0.035l-0.328,0.034l-0.329,0.032l-0.329,0.032l-0.328,0.031l-0.329,0.03l-0.328,0.029l-0.33,0.028l-0.328,0.027l-0.329,0.026l-0.33,0.025l-0.328,0.024l-0.33,0.023l-0.329,0.023l-0.329,0.021l-0.329,0.02l-0.33,0.019l-0.329,0.018l-0.329,0.017l-0.33,0.017l-0.329,0.015l-0.33,0.014l-0.33,0.013l-0.329,0.012l-0.329,0.012l-0.33,0.01l-0.33,0.009l-0.329,0.009l-0.33,0.007l-0.33,0.006l-0.329,0.006l-0.33,0.004l-0.33,0.004l-0.33,0.002l-0.329,0.002l-0.33,0l-0.33,0l-0.33,-0.002l-0.33,-0.002l-0.329,-0.004l-0.33,-0.004l-0.33,-0.006l-0.329,-0.006l-0.33,-0.007l-0.33,-0.009l-0.33,-0.009l-0.33,-0.01l-0.329,-0.012l-0.329,-0.012l-0.33,-0.013l-0.329,-0.014l-0.33,-0.015l-0.33,-0.017l-0.329,-0.017l-0.329,-0.018l-0.33,-0.019l-0.329,-0.02l-0.329,-0.021l-0.329,-0.023l-0.329,-0.023l-0.329,-0.024l-0.33,-0.025l-0.328,-0.026l-0.329,-0.027l-0.329,-0.028l-0.329,-0.029l-0.328,-0.03l-0.329,-0.031l-0.329,-0.032l-0.329,-0.032l-0.327,-0.034l-0.328,-0.035l-0.329,-0.036l-0.329,-0.037l-0.327,-0.038l-0.328,-0.038l-0.328,-0.04l-0.328,-0.041l-0.327,-0.042l-0.327,-0.042l-0.329,-0.044l-0.327,-0.045l-0.327,-0.045l-0.327,-0.047l-0.327,-0.048l-0.327,-0.048l-0.327,-0.05l-0.327,-0.051l-0.326,-0.051l-0.327,-0.053l-0.326,-0.053l-0.326,-0.055l-0.327,-0.055l-0.325,-0.057l-0.325,-0.057l-0.326,-0.058l-0.326,-0.06l-0.325,-0.06l-0.326,-0.062l-0.325,-0.062l-0.324,-0.064l-0.325,-0.064l-0.325,-0.065l-0.324,-0.066l-0.324,-0.068l-0.325,-0.068l-0.324,-0.069l-0.324,-0.071l-0.323,-0.071l-0.324,-0.072l-0.323,-0.073l-0.323,-0.074l-0.323,-0.075l-0.323,-0.077l-0.323,-0.077l-0.322,-0.078l-0.322,-0.079l-0.322,-0.08l-0.321,-0.081l-0.322,-0.082l-0.322,-0.083l-0.321,-0.084l-0.321,-0.085l-0.321,-0.086l-0.321,-0.087l-0.32,-0.088l-0.321,-0.089l-0.319,-0.09l-0.32,-0.091l-0.32,-0.092l-0.319,-0.093l-0.319,-0.094l-0.319,-0.094l-0.318,-0.096l-0.319,-0.097l-0.319,-0.098l-0.317,-0.098l-0.317,-0.1l-0.319,-0.101l-0.317,-0.102l-0.317,-0.102l-0.316,-0.104l-0.317,-0.105l-0.317,-0.106l-0.315,-0.106l-0.315,-0.107l-0.317,-0.109l-0.315,-0.11l-0.315,-0.11l-0.314,-0.112l-0.314,-0.112l-0.315,-0.114l-0.314,-0.115l-0.313,-0.115l-0.313,-0.117l-0.313,-0.117l-0.313,-0.119l-0.313,-0.119l-0.312,-0.121l-0.312,-0.121l-0.311,-0.122l-0.312,-0.124l-0.311,-0.124l-0.31,-0.125l-0.311,-0.127l-0.31,-0.127l-0.309,-0.128l-0.31,-0.129l-0.309,-0.131l-0.309,-0.131l-0.309,-0.132l-0.308,-0.133l-0.308,-0.135l-0.308,-0.135l-0.306,-0.136l-0.307,-0.137l-0.307,-0.138l-0.306,-0.139l-0.306,-0.14l-0.306,-0.142l-0.305,-0.142l-0.304,-0.143l-0.305,-0.144l-0.304,-0.145l-0.304,-0.146l-0.304,-0.147l-0.302,-0.148l-0.303,-0.149l-0.303,-0.15l-0.302,-0.151l-0.301,-0.152l-0.302,-0.153l-0.3,-0.153l-0.301,-0.155l-0.3,-0.156l-0.3,-0.157l-0.3,-0.158l-0.299,-0.159l-0.298,-0.159l-0.298,-0.161l-0.298,-0.162l-0.298,-0.163l-0.296,-0.163l-0.297,-0.165l-0.296,-0.166l-0.296,-0.166l-0.296,-0.168l-0.295,-0.169l-0.294,-0.17l-0.294,-0.17l-0.294,-0.172l-0.294,-0.172l-0.292,-0.174l-0.293,-0.174l-0.292,-0.176l-0.292,-0.176l-0.291,-0.178l-0.29,-0.178l-0.291,-0.18l-0.29,-0.18l-0.289,-0.181l-0.289,-0.183l-0.289,-0.183l-0.287,-0.184l-0.289,-0.186l-0.287,-0.186l-0.286,-0.187l-0.286,-0.189l-0.286,-0.189l-0.285,-0.19l-0.286,-0.192l-0.284,-0.192l-0.284,-0.193l-0.283,-0.194l-0.283,-0.195l-0.283,-0.196l-0.281,-0.197l-0.282,-0.198l-0.281,-0.199l-0.28,-0.2l-0.281,-0.201l-0.279,-0.202l-0.279,-0.203l-0.279,-0.204l-0.278,-0.205l-0.277,-0.206l-0.277,-0.207l-0.276,-0.208l-0.277,-0.209l-0.275,-0.21l-0.275,-0.21l-0.275,-0.212l-0.273,-0.213l-0.274,-0.214l-0.273,-0.214l-0.272,-0.216l-0.272,-0.216l-0.271,-0.218l-0.271,-0.219l-0.27,-0.219l-0.269,-0.221l-0.269,-0.221l-0.269,-0.223l-0.268,-0.224l-0.267,-0.224l-0.267,-0.225l-0.266,-0.226l-0.266,-0.228l-0.265,-0.228l-0.265,-0.23l-0.264,-0.23l-0.263,-0.231l-0.263,-0.232l-0.262,-0.234l-0.262,-0.234l-0.261,-0.235l-0.261,-0.236l-0.26,-0.237l-0.259,-0.238l-0.258,-0.239l-0.259,-0.24l-0.257,-0.241l-0.257,-0.242l-0.256,-0.243l-0.256,-0.244l-0.255,-0.244l-0.255,-0.246l-0.254,-0.247l-0.253,-0.248l-0.253,-0.248l-0.252,-0.25l-0.251,-0.251l-0.251,-0.251l-0.249,-0.252l-0.249,-0.253l-0.248,-0.253l-0.247,-0.254l-0.245,-0.254l-0.245,-0.255l-0.244,-0.256l-0.243,-0.256l-0.242,-0.257l-0.241,-0.258l-0.24,-0.258l-0.239,-0.259l-0.238,-0.259l-0.237,-0.26l-0.236,-0.261l-0.235,-0.261l-0.234,-0.261l-0.233,-0.263l-0.232,-0.262l-0.232,-0.264l-0.23,-0.264l-0.229,-0.264l-0.229,-0.266l-0.227,-0.265l-0.226,-0.267l-0.226,-0.266l-0.224,-0.268l-0.224,-0.268l-0.222,-0.268l-0.222,-0.269l-0.22,-0.27l-0.22,-0.27l-0.218,-0.271l-0.218,-0.271l-0.217,-0.272l-0.215,-0.272l-0.215,-0.273l-0.214,-0.273l-0.213,-0.274l-0.211,-0.274l-0.211,-0.275l-0.21,-0.276l-0.209,-0.276l-0.207,-0.276l-0.207,-0.277l-0.206,-0.278l-0.205,-0.278l-0.204,-0.279l-0.203,-0.278l-0.202,-0.28l-0.201,-0.28l-0.2,-0.281l-0.199,-0.281l-0.198,-0.281l-0.197,-0.282l-0.196,-0.282l-0.196,-0.283l-0.194,-0.284l-0.193,-0.284l-0.192,-0.284l-0.191,-0.285l-0.191,-0.285l-0.189,-0.286l-0.188,-0.287l-0.187,-0.286l-0.187,-0.287l-0.185,-0.288l-0.184,-0.288l-0.184,-0.288l-0.182,-0.29l-0.182,-0.289l-0.18,-0.29l-0.179,-0.29l-0.179,-0.291l-0.177,-0.291l-0.177,-0.292l-0.175,-0.292l-0.175,-0.292l-0.174,-0.294l-0.172,-0.292l-0.172,-0.294l-0.17,-0.295l-0.17,-0.294l-0.168,-0.295l-0.168,-0.296l-0.167,-0.295l-0.165,-0.296l-0.165,-0.297l-0.164,-0.297l-0.163,-0.298l-0.162,-0.298l-0.16,-0.298l-0.16,-0.298l-0.159,-0.299l-0.158,-0.3l-0.156,-0.299l-0.156,-0.3l-0.155,-0.301l-0.154,-0.301l-0.153,-0.301l-0.152,-0.302l-0.151,-0.302l-0.15,-0.302l-0.149,-0.303l-0.148,-0.303l-0.147,-0.303l-0.146,-0.304l-0.145,-0.304l-0.144,-0.305l-0.143,-0.305l-0.142,-0.305l-0.141,-0.306l-0.14,-0.305l-0.139,-0.307l-0.138,-0.306l-0.138,-0.307l-0.136,-0.307l-0.135,-0.308l-0.134,-0.308l-0.133,-0.308l-0.133,-0.308l-0.131,-0.309l-0.13,-0.31l-0.129,-0.309l-0.129,-0.31l-0.127,-0.31l-0.126,-0.31l-0.126,-0.311l-0.124,-0.311l-0.123,-0.311l-0.123,-0.312l-0.121,-0.312l-0.121,-0.312l-0.119,-0.312l-0.119,-0.313l-0.117,-0.313l-0.116,-0.313l-0.116,-0.314l-0.115,-0.314l-0.113,-0.314l-0.113,-0.314l-0.111,-0.315l-0.111,-0.315l-0.109,-0.315l-0.109,-0.316l-0.108,-0.315l-0.106,-0.316l-0.106,-0.317l-0.105,-0.316l-0.103,-0.317l-0.103,-0.317l-0.102,-0.317l-0.1,-0.318l-0.1,-0.317l-0.099,-0.318l-0.098,-0.318l-0.097,-0.319l-0.095,-0.319l-0.095,-0.319l-0.094,-0.319l-0.093,-0.319l-0.092,-0.32l-0.091,-0.319l-0.09,-0.32l-0.088,-0.32l-0.088,-0.321l-0.087,-0.321l-0.086,-0.32l-0.085,-0.321l-0.084,-0.322l-0.083,-0.321l-0.082,-0.322l-0.082,-0.322l-0.08,-0.321l-0.079,-0.323l-0.078,-0.322l-0.077,-0.323l-0.076,-0.323l-0.075,-0.323l-0.074,-0.323l-0.074,-0.323l-0.072,-0.323l-0.071,-0.324l-0.07,-0.324l-0.07,-0.324l-0.068,-0.324l-0.067,-0.324l-0.066,-0.325l-0.066,-0.324l-0.064,-0.325l-0.063,-0.325l-0.063,-0.325l-0.061,-0.325l-0.061,-0.326l-0.059,-0.325l-0.058,-0.326l-0.058,-0.326l-0.056,-0.325l-0.056,-0.327l-0.054,-0.326l-0.054,-0.326l-0.052,-0.326l-0.052,-0.327l-0.051,-0.327l-0.049,-0.326l-0.049,-0.327l-0.048,-0.328l-0.046,-0.327l-0.046,-0.327l-0.045,-0.327l-0.043,-0.328l-0.043,-0.327l-0.042,-0.328l-0.04,-0.328l-0.04,-0.328l-0.039,-0.327l-0.038,-0.329l-0.037,-0.328l-0.035,-0.328l-0.035,-0.328l-0.034,-0.329l-0.033,-0.328l-0.032,-0.329l-0.031,-0.328l-0.03,-0.329l-0.029,-0.329l-0.028,-0.328l-0.027,-0.329l-0.026,-0.329l-0.025,-0.329l-0.024,-0.329l-0.023,-0.329l-0.022,-0.329l-0.021,-0.33l-0.02,-0.329l-0.02,-0.329l-0.018,-0.33l-0.017,-0.329l-0.016,-0.33l-0.015,-0.329l-0.015,-0.33l-0.013,-0.329l-0.012,-0.33l-0.011,-0.329l-0.011,-0.33l-0.009,-0.33l-0.008,-0.329l-0.008,-0.33l-0.006,-0.33l-0.006,-0.33l-0.004,-0.329l-0.003,-0.33l-0.003,-0.33l-0.001,-0.329l-0.001,-0.33l0.001,-0.33l0.001,-0.33l0.003,-0.33l0.003,-0.329l0.004,-0.33l0.006,-0.33l0.006,-0.329l0.008,-0.33l0.008,-0.33l0.009,-0.33l0.011,-0.329l0.011,-0.33l0.012,-0.329l0.013,-0.33l0.015,-0.329l0.015,-0.33l0.016,-0.329l0.017,-0.33l0.018,-0.329l0.02,-0.329l0.02,-0.33l0.021,-0.329l0.022,-0.329l0.023,-0.329l0.024,-0.329l0.025,-0.329l0.026,-0.329l0.027,-0.329l0.028,-0.329l0.029,-0.329l0.03,-0.328l0.031,-0.329l0.032,-0.328l0.033,-0.329l0.034,-0.328l0.035,-0.329l0.035,-0.328l0.037,-0.328l0.038,-0.328l0.039,-0.328l0.04,-0.328l0.04,-0.327l0.042,-0.328l0.043,-0.328l0.043,-0.327l0.045,-0.328l0.046,-0.327l0.046,-0.327l0.048,-0.327l0.049,-0.327l0.049,-0.327l0.051,-0.326l0.052,-0.327l0.052,-0.326l0.054,-0.327l0.054,-0.326l0.056,-0.326l0.056,-0.326l0.058,-0.326l0.058,-0.325l0.059,-0.326l0.061,-0.325l0.061,-0.325l0.063,-0.325l0.063,-0.325l0.064,-0.325l0.066,-0.325l0.066,-0.324l0.067,-0.325l0.068,-0.324l0.07,-0.324l0.07,-0.323l0.071,-0.324l0.072,-0.323l0.074,-0.324l0.074,-0.323l0.075,-0.323l0.076,-0.323l0.077,-0.322l0.078,-0.323l0.079,-0.322l0.08,-0.322l0.082,-0.322l0.082,-0.321l0.083,-0.322l0.084,-0.321l0.085,-0.321l0.086,-0.321l0.087,-0.32l0.088,-0.321l0.088,-0.32l0.09,-0.32l0.091,-0.32l0.092,-0.319l0.093,-0.32l0.094,-0.319l0.095,-0.319l0.095,-0.318l0.097,-0.319l0.098,-0.318l0.099,-0.318l0.1,-0.318l0.1,-0.317l0.102,-0.317l0.103,-0.317l0.103,-0.317l0.105,-0.317l0.106,-0.316l0.106,-0.316l0.108,-0.316l0.109,-0.315l0.109,-0.315l0.111,-0.315l0.111,-0.315l0.113,-0.314l0.113,-0.314l0.115,-0.314l0.115,-0.314l0.117,-0.313l0.117,-0.313l0.119,-0.313l0.119,-0.313l0.121,-0.312l0.121,-0.312l0.123,-0.311l0.123,-0.312l0.124,-0.31l0.126,-0.311l0.126,-0.311l0.127,-0.31l0.129,-0.309l0.129,-0.31l0.13,-0.309l0.131,-0.309l0.133,-0.308l0.133,-0.309l0.134,-0.307l0.135,-0.308l0.136,-0.307l0.138,-0.307l0.138,-0.307l0.139,-0.306l0.14,-0.306l0.141,-0.305l0.142,-0.306l0.143,-0.305l0.144,-0.304l0.145,-0.304l0.146,-0.304l0.147,-0.304l0.148,-0.302l0.149,-0.303l0.15,-0.303l0.151,-0.302l0.152,-0.301l0.153,-0.301l0.154,-0.301l0.155,-0.301l0.156,-0.3l0.156,-0.3l0.158,-0.299l0.159,-0.299l0.16,-0.299l0.161,-0.298l0.161,-0.298l0.163,-0.297l0.164,-0.297l0.165,-0.297l0.165,-0.296l0.167,-0.296l0.168,-0.296l0.168,-0.294l0.17,-0.295l0.17,-0.294l0.172,-0.294l0.172,-0.293l0.174,-0.293l0.175,-0.293l0.175,-0.292l0.177,-0.291l0.177,-0.291l0.179,-0.291l0.179,-0.291l0.18,-0.289l0.182,-0.29l0.182,-0.289l0.184,-0.288l0.184,-0.289l0.185,-0.287l0.187,-0.287l0.187,-0.287l0.188,-0.286l0.189,-0.286l0.191,-0.285l0.191,-0.285l0.192,-0.285l0.193,-0.283l0.194,-0.284l0.196,-0.283l0.196,-0.282l0.197,-0.282l0.198,-0.282l0.199,-0.281l0.2,-0.28l0.201,-0.281l0.202,-0.279l0.203,-0.279l0.204,-0.278l0.205,-0.279l0.206,-0.277l0.206,-0.277l0.208,-0.276l0.209,-0.277l0.21,-0.275l0.211,-0.275l0.211,-0.274l0.213,-0.274l0.214,-0.274l0.215,-0.272l0.215,-0.273l0.217,-0.272l0.218,-0.271l0.218,-0.27l0.22,-0.27l0.22,-0.27l0.222,-0.269l0.222,-0.269l0.224,-0.268l0.224,-0.267l0.225,-0.267l0.227,-0.266l0.227,-0.266l0.229,-0.265l0.229,-0.265l0.23,-0.264l0.231,-0.263l0.233,-0.263l0.233,-0.262l0.234,-0.262l0.235,-0.261l0.236,-0.26l0.237,-0.26l0.238,-0.26l0.239,-0.258l0.24,-0.258l0.241,-0.258l0.242,-0.257l0.243,-0.256l0.244,-0.256l0.245,-0.255l0.245,-0.255l0.247,-0.254l0.248,-0.253l0.249,-0.253l0.249,-0.252l0.251,-0.251l0.251,-0.251l0.252,-0.249l0.253,-0.249l0.253,-0.248l0.254,-0.246l0.255,-0.246l0.255,-0.245l0.255,-0.244l0.257,-0.243l0.257,-0.242l0.257,-0.241l0.258,-0.239l0.259,-0.24l0.26,-0.238l0.259,-0.237l0.261,-0.236l0.261,-0.235l0.262,-0.234l0.262,-0.233l0.263,-0.232l0.263,-0.232l0.264,-0.23l0.265,-0.229l0.265,-0.229l0.266,-0.227l0.266,-0.226l0.267,-0.226l0.267,-0.224l0.268,-0.223l0.269,-0.223l0.269,-0.222l0.269,-0.22l0.27,-0.22l0.271,-0.218l0.271,-0.218l0.272,-0.217l0.273,-0.215l0.272,-0.215l0.274,-0.214l0.273,-0.212l0.275,-0.212l0.275,-0.211l0.275,-0.21l0.276,-0.209l0.277,-0.207l0.277,-0.207l0.277,-0.206l0.278,-0.205l0.279,-0.204l0.279,-0.203l0.279,-0.202l0.28,-0.201l0.281,-0.2l0.281,-0.199l0.281,-0.198l0.282,-0.197l0.283,-0.196l0.283,-0.195l0.283,-0.195l0.284,-0.193l0.284,-0.192l0.286,-0.191l0.285,-0.19l0.286,-0.19l0.286,-0.188l0.286,-0.187l0.288,-0.187l0.287,-0.185l0.288,-0.184l0.289,-0.184l0.289,-0.182l0.289,-0.181l0.29,-0.181l0.291,-0.179l0.29,-0.179l0.291,-0.177l0.292,-0.177l0.292,-0.175l0.293,-0.175l0.292,-0.173l0.294,-0.173l0.294,-0.172l0.294,-0.17l0.294,-0.17l0.295,-0.168l0.296,-0.168l0.296,-0.167l0.296,-0.165l0.297,-0.165l0.297,-0.164l0.297,-0.163l0.298,-0.161l0.298,-0.161l0.298,-0.16l0.299,-0.159l0.3,-0.157l0.3,-0.157l0.3,-0.156l0.3,-0.155l0.301,-0.154l0.302,-0.153l0.301,-0.152l0.302,-0.151l0.303,-0.15l0.303,-0.149l0.302,-0.148l0.304,-0.146l0.304,-0.147l0.304,-0.145l0.304,-0.144l0.305,-0.143l0.306,-0.142l0.305,-0.141l0.306,-0.14l0.306,-0.139l0.307,-0.138l0.306,-0.137l0.307,-0.136l0.308,-0.136l0.308,-0.134l0.308,-0.133l0.309,-0.132l0.309,-0.132l0.309,-0.13l0.31,-0.129l0.309,-0.129l0.31,-0.127l0.311,-0.126l0.31,-0.126l0.311,-0.124l0.312,-0.123l0.311,-0.123l0.312,-0.121l0.312,-0.121l0.313,-0.119l0.313,-0.118l0.312,-0.118l0.314,-0.116l0.313,-0.116l0.314,-0.114l0.315,-0.114l0.314,-0.112l0.314,-0.112l0.315,-0.111l0.316,-0.109l0.315,-0.109l0.316,-0.107l0.316,-0.107l0.316,-0.106l0.317,-0.104l0.316,-0.104l0.317,-0.103l0.318,-0.102l0.317,-0.1l0.318,-0.1l0.318,-0.099l0.318,-0.098l0.319,-0.096l0.318,-0.096l0.319,-0.095l0.319,-0.094l0.319,-0.093l0.32,-0.092l0.32,-0.091l0.32,-0.089l0.32,-0.089l0.32,-0.088l0.321,-0.087l0.321,-0.086l0.321,-0.085l0.321,-0.084l0.322,-0.083l0.321,-0.082l0.322,-0.081l0.322,-0.08l0.322,-0.08l0.322,-0.078l0.323,-0.077l0.323,-0.076l0.323,-0.075l0.323,-0.074l0.323,-0.073l0.324,-0.073l0.323,-0.071l0.324,-0.07l0.324,-0.069l0.325,-0.069l0.324,-0.067l0.324,-0.066l0.325,-0.066l0.325,-0.064l0.324,-0.063l0.325,-0.063l0.326,-0.061l0.325,-0.06l0.326,-0.06l0.325,-0.058l0.326,-0.058l0.326,-0.056l0.326,-0.056l0.326,-0.054l0.326,-0.054l0.327,-0.052l0.327,-0.052l0.326,-0.05l0.327,-0.05l0.327,-0.049l0.327,-0.047l0.327,-0.047l0.327,-0.046l0.328,-0.044l0.327,-0.044l0.328,-0.043l0.327,-0.041l0.328,-0.041l0.328,-0.04l0.328,-0.039l0.328,-0.038l0.328,-0.036l0.328,-0.036l0.329,-0.035l0.328,-0.034l0.328,-0.033l0.329,-0.032l0.329,-0.031l0.328,-0.03l0.329,-0.029l0.329,-0.028l0.329,-0.027l0.328,-0.026l0.33,-0.025l0.329,-0.024l0.329,-0.023l0.329,-0.022l0.329,-0.021l0.329,-0.02l0.33,-0.019l0.329,-0.019l0.329,-0.017l0.33,-0.016l0.33,-0.015l0.329,-0.014l0.33,-0.014l0.329,-0.012l0.33,-0.011l0.329,-0.011l0.33,-0.009l0.33,-0.008l0.33,-0.008l0.329,-0.006l0.33,-0.005l0.33,-0.005l0.329,-0.003l0.33,-0.003l0.33,-0.001l0.33,-0.001l0.33,0.001Zm-0.63,10l-0.3,0.001l-0.3,0.002l-0.3,0.004l-0.3,0.004l-0.3,0.004l-0.3,0.006l-0.3,0.007l-0.3,0.008l-0.3,0.008l-0.3,0.009l-0.3,0.011l-0.299,0.011l-0.3,0.012l-0.3,0.013l-0.3,0.014l-0.299,0.014l-0.3,0.016l-0.3,0.017l-0.299,0.017l-0.3,0.018l-0.299,0.02l-0.3,0.02l-0.299,0.021l-0.299,0.022l-0.3,0.022l-0.299,0.024l-0.299,0.025l-0.299,0.025l-0.299,0.026l-0.299,0.028l-0.299,0.028l-0.299,0.029l-0.299,0.03l-0.298,0.03l-0.299,0.032l-0.298,0.033l-0.299,0.033l-0.298,0.035l-0.299,0.035l-0.298,0.036l-0.298,0.037l-0.298,0.038l-0.298,0.039l-0.298,0.04l-0.297,0.04l-0.298,0.042l-0.298,0.042l-0.297,0.044l-0.297,0.044l-0.298,0.045l-0.297,0.046l-0.297,0.047l-0.296,0.048l-0.297,0.048l-0.297,0.05l-0.296,0.05l-0.297,0.052l-0.296,0.052l-0.296,0.053l-0.296,0.054l-0.296,0.055l-0.296,0.056l-0.295,0.057l-0.296,0.057l-0.295,0.059l-0.295,0.059l-0.295,0.061l-0.295,0.061l-0.295,0.062l-0.295,0.063l-0.294,0.064l-0.294,0.064l-0.294,0.066l-0.294,0.067l-0.294,0.067l-0.294,0.068l-0.293,0.07l-0.293,0.07l-0.294,0.071l-0.292,0.072l-0.293,0.072l-0.293,0.074l-0.292,0.075l-0.292,0.075l-0.292,0.077l-0.292,0.077l-0.292,0.078l-0.291,0.079l-0.292,0.08l-0.291,0.081l-0.291,0.082l-0.29,0.082l-0.291,0.084l-0.29,0.084l-0.29,0.085l-0.29,0.087l-0.29,0.087l-0.289,0.088l-0.289,0.089l-0.289,0.089l-0.289,0.091l-0.289,0.092l-0.288,0.092l-0.288,0.093l-0.288,0.095l-0.287,0.095l-0.288,0.096l-0.287,0.097l-0.287,0.097l-0.287,0.099l-0.286,0.1l-0.286,0.1l-0.286,0.102l-0.286,0.102l-0.286,0.103l-0.285,0.104l-0.285,0.105l-0.284,0.106l-0.285,0.107l-0.284,0.107l-0.284,0.109l-0.284,0.109l-0.283,0.111l-0.283,0.111l-0.283,0.112l-0.283,0.113l-0.282,0.114l-0.282,0.115l-0.282,0.115l-0.281,0.117l-0.281,0.117l-0.281,0.119l-0.281,0.119l-0.28,0.12l-0.28,0.121l-0.28,0.122l-0.279,0.123l-0.279,0.124l-0.279,0.124l-0.279,0.126l-0.278,0.126l-0.278,0.127l-0.277,0.129l-0.277,0.129l-0.277,0.13l-0.277,0.13l-0.276,0.132l-0.276,0.133l-0.276,0.133l-0.275,0.135l-0.275,0.135l-0.275,0.136l-0.274,0.137l-0.274,0.138l-0.274,0.139l-0.273,0.14l-0.273,0.141l-0.273,0.141l-0.272,0.143l-0.272,0.143l-0.272,0.144l-0.271,0.146l-0.271,0.146l-0.271,0.147l-0.27,0.147l-0.27,0.149l-0.269,0.15l-0.269,0.15l-0.269,0.152l-0.268,0.152l-0.268,0.153l-0.268,0.154l-0.267,0.155l-0.267,0.156l-0.266,0.157l-0.266,0.158l-0.266,0.158l-0.265,0.16l-0.265,0.16l-0.265,0.161l-0.264,0.162l-0.264,0.163l-0.263,0.164l-0.263,0.165l-0.263,0.166l-0.262,0.166l-0.261,0.168l-0.262,0.168l-0.261,0.169l-0.26,0.171l-0.26,0.171l-0.26,0.172l-0.259,0.172l-0.259,0.174l-0.258,0.175l-0.258,0.175l-0.258,0.177l-0.257,0.177l-0.257,0.178l-0.256,0.179l-0.256,0.18l-0.255,0.181l-0.255,0.182l-0.254,0.183l-0.254,0.183l-0.254,0.185l-0.253,0.185l-0.253,0.186l-0.252,0.187l-0.252,0.188l-0.251,0.189l-0.251,0.19l-0.25,0.191l-0.25,0.191l-0.25,0.193l-0.249,0.193l-0.248,0.195l-0.248,0.195l-0.248,0.196l-0.247,0.197l-0.247,0.198l-0.246,0.198l-0.245,0.2l-0.245,0.201l-0.245,0.201l-0.244,0.202l-0.244,0.203l-0.243,0.205l-0.243,0.205l-0.242,0.205l-0.242,0.207l-0.241,0.208l-0.24,0.209l-0.241,0.209l-0.239,0.21l-0.239,0.212l-0.239,0.212l-0.238,0.213l-0.238,0.214l-0.237,0.215l-0.236,0.215l-0.236,0.217l-0.236,0.217l-0.234,0.219l-0.235,0.219l-0.234,0.22l-0.233,0.221l-0.233,0.222l-0.232,0.223l-0.232,0.224l-0.231,0.225l-0.231,0.225l-0.23,0.227l-0.229,0.227l-0.229,0.228l-0.228,0.229l-0.228,0.23l-0.226,0.23l-0.226,0.23l-0.224,0.231l-0.224,0.232l-0.223,0.232l-0.222,0.233l-0.221,0.233l-0.22,0.234l-0.219,0.235l-0.219,0.235l-0.217,0.235l-0.217,0.236l-0.216,0.237l-0.214,0.237l-0.214,0.237l-0.213,0.238l-0.213,0.239l-0.211,0.239l-0.21,0.24l-0.21,0.24l-0.208,0.24l-0.208,0.242l-0.207,0.241l-0.206,0.242l-0.205,0.243l-0.204,0.243l-0.203,0.244l-0.202,0.244l-0.202,0.245l-0.2,0.245l-0.2,0.246l-0.199,0.246l-0.197,0.246l-0.197,0.247l-0.196,0.248l-0.196,0.248l-0.194,0.248l-0.193,0.249l-0.193,0.25l-0.191,0.25l-0.191,0.25l-0.19,0.251l-0.189,0.251l-0.188,0.252l-0.187,0.252l-0.186,0.253l-0.186,0.253l-0.184,0.254l-0.184,0.254l-0.182,0.254l-0.182,0.255l-0.181,0.255l-0.18,0.256l-0.179,0.257l-0.178,0.256l-0.177,0.257l-0.177,0.258l-0.175,0.258l-0.175,0.258l-0.174,0.259l-0.173,0.259l-0.172,0.26l-0.171,0.26l-0.17,0.26l-0.169,0.261l-0.168,0.262l-0.168,0.261l-0.167,0.263l-0.165,0.262l-0.165,0.263l-0.164,0.263l-0.163,0.264l-0.162,0.264l-0.161,0.265l-0.161,0.265l-0.159,0.265l-0.159,0.266l-0.157,0.266l-0.157,0.266l-0.156,0.267l-0.155,0.267l-0.154,0.268l-0.153,0.268l-0.152,0.268l-0.152,0.269l-0.15,0.269l-0.15,0.27l-0.149,0.269l-0.148,0.271l-0.146,0.27l-0.147,0.271l-0.145,0.271l-0.144,0.272l-0.143,0.272l-0.143,0.272l-0.141,0.273l-0.141,0.273l-0.14,0.273l-0.139,0.274l-0.138,0.274l-0.137,0.274l-0.136,0.275l-0.135,0.275l-0.135,0.275l-0.133,0.276l-0.133,0.276l-0.132,0.276l-0.131,0.277l-0.13,0.277l-0.129,0.277l-0.128,0.278l-0.127,0.277l-0.127,0.279l-0.125,0.278l-0.125,0.279l-0.123,0.279l-0.123,0.279l-0.122,0.28l-0.121,0.28l-0.12,0.28l-0.12,0.281l-0.118,0.281l-0.117,0.281l-0.117,0.282l-0.116,0.281l-0.114,0.282l-0.114,0.283l-0.113,0.282l-0.112,0.283l-0.112,0.283l-0.11,0.284l-0.109,0.283l-0.109,0.284l-0.107,0.284l-0.107,0.285l-0.106,0.284l-0.105,0.285l-0.104,0.286l-0.103,0.285l-0.103,0.286l-0.101,0.286l-0.1,0.286l-0.1,0.286l-0.099,0.287l-0.097,0.287l-0.097,0.287l-0.096,0.288l-0.096,0.287l-0.094,0.288l-0.093,0.288l-0.093,0.289l-0.091,0.288l-0.091,0.289l-0.09,0.289l-0.088,0.289l-0.088,0.29l-0.088,0.289l-0.086,0.29l-0.085,0.29l-0.084,0.29l-0.084,0.291l-0.083,0.291l-0.081,0.29l-0.081,0.292l-0.08,0.291l-0.079,0.291l-0.078,0.292l-0.078,0.292l-0.076,0.292l-0.075,0.292l-0.075,0.292l-0.074,0.293l-0.073,0.293l-0.071,0.293l-0.071,0.293l-0.071,0.293l-0.069,0.293l-0.068,0.294l-0.068,0.294l-0.066,0.294l-0.066,0.294l-0.065,0.294l-0.063,0.295l-0.063,0.294l-0.062,0.295l-0.062,0.295l-0.06,0.295l-0.059,0.295l-0.059,0.295l-0.057,0.296l-0.057,0.295l-0.056,0.296l-0.055,0.296l-0.054,0.296l-0.053,0.296l-0.052,0.296l-0.052,0.297l-0.05,0.296l-0.05,0.297l-0.048,0.297l-0.048,0.297l-0.047,0.297l-0.046,0.297l-0.045,0.297l-0.044,0.297l-0.044,0.298l-0.042,0.297l-0.042,0.298l-0.04,0.297l-0.04,0.298l-0.039,0.298l-0.038,0.298l-0.037,0.298l-0.036,0.299l-0.035,0.298l-0.035,0.298l-0.033,0.299l-0.033,0.298l-0.032,0.299l-0.03,0.299l-0.03,0.298l-0.029,0.299l-0.029,0.299l-0.027,0.299l-0.026,0.299l-0.026,0.299l-0.024,0.299l-0.024,0.3l-0.023,0.299l-0.022,0.299l-0.021,0.3l-0.02,0.299l-0.019,0.299l-0.018,0.3l-0.018,0.3l-0.016,0.299l-0.016,0.3l-0.014,0.299l-0.014,0.3l-0.013,0.3l-0.012,0.3l-0.011,0.3l-0.011,0.299l-0.009,0.3l-0.009,0.3l-0.007,0.3l-0.007,0.3l-0.006,0.3l-0.005,0.3l-0.004,0.3l-0.003,0.3l-0.002,0.3l-0.001,0.3l-0.001,0.3l0.001,0.3l0.001,0.3l0.002,0.3l0.003,0.3l0.004,0.3l0.005,0.3l0.006,0.3l0.007,0.299l0.007,0.3l0.009,0.3l0.009,0.3l0.011,0.3l0.011,0.3l0.012,0.3l0.013,0.299l0.014,0.3l0.014,0.3l0.016,0.299l0.016,0.3l0.018,0.3l0.018,0.299l0.019,0.3l0.02,0.299l0.021,0.299l0.022,0.3l0.023,0.299l0.024,0.299l0.024,0.299l0.026,0.3l0.026,0.299l0.027,0.299l0.029,0.298l0.029,0.299l0.03,0.299l0.03,0.299l0.032,0.298l0.033,0.299l0.033,0.298l0.035,0.299l0.035,0.298l0.036,0.298l0.037,0.298l0.038,0.298l0.039,0.298l0.04,0.298l0.04,0.298l0.042,0.297l0.042,0.298l0.044,0.297l0.044,0.298l0.045,0.297l0.046,0.297l0.047,0.297l0.048,0.297l0.048,0.297l0.05,0.296l0.05,0.297l0.052,0.296l0.052,0.296l0.053,0.297l0.054,0.296l0.055,0.295l0.056,0.296l0.057,0.296l0.057,0.295l0.059,0.296l0.059,0.295l0.06,0.295l0.062,0.295l0.062,0.294l0.063,0.295l0.063,0.294l0.065,0.295l0.066,0.294l0.066,0.294l0.068,0.293l0.068,0.294l0.069,0.294l0.071,0.293l0.071,0.293l0.071,0.293l0.073,0.293l0.074,0.292l0.075,0.293l0.075,0.292l0.076,0.292l0.078,0.292l0.078,0.291l0.079,0.292l0.08,0.291l0.081,0.291l0.081,0.291l0.083,0.291l0.084,0.29l0.084,0.29l0.085,0.29l0.086,0.29l0.088,0.29l0.088,0.289l0.088,0.29l0.09,0.289l0.091,0.288l0.091,0.289l0.093,0.288l0.093,0.288l0.094,0.288l0.096,0.288l0.096,0.287l0.097,0.287l0.097,0.287l0.099,0.287l0.1,0.287l0.1,0.286l0.101,0.286l0.103,0.285l0.103,0.286l0.104,0.285l0.105,0.285l0.106,0.285l0.107,0.284l0.107,0.284l0.109,0.284l0.109,0.284l0.11,0.283l0.112,0.284l0.112,0.282l0.113,0.283l0.114,0.282l0.114,0.282l0.116,0.282l0.117,0.281l0.117,0.282l0.118,0.28l0.12,0.281l0.12,0.28l0.121,0.28l0.122,0.28l0.123,0.279l0.123,0.28l0.125,0.278l0.125,0.279l0.127,0.278l0.127,0.278l0.128,0.278l0.129,0.277l0.13,0.277l0.131,0.276l0.132,0.277l0.133,0.276l0.133,0.275l0.135,0.276l0.135,0.275l0.136,0.274l0.137,0.275l0.138,0.274l0.139,0.273l0.14,0.274l0.141,0.273l0.141,0.272l0.143,0.273l0.143,0.272l0.144,0.271l0.145,0.272l0.147,0.27l0.146,0.271l0.148,0.27l0.149,0.27l0.15,0.269l0.15,0.269l0.152,0.269l0.152,0.269l0.153,0.268l0.154,0.267l0.155,0.267l0.156,0.267l0.157,0.267l0.157,0.266l0.159,0.265l0.159,0.266l0.161,0.265l0.161,0.264l0.162,0.264l0.163,0.264l0.164,0.263l0.165,0.263l0.165,0.263l0.167,0.262l0.168,0.262l0.168,0.261l0.169,0.261l0.17,0.261l0.171,0.26l0.172,0.259l0.173,0.26l0.174,0.258l0.175,0.259l0.175,0.258l0.177,0.257l0.177,0.257l0.178,0.257l0.179,0.256l0.18,0.256l0.181,0.255l0.182,0.255l0.182,0.255l0.184,0.254l0.184,0.253l0.186,0.254l0.186,0.252l0.187,0.252l0.188,0.252l0.189,0.252l0.19,0.25l0.191,0.251l0.191,0.25l0.193,0.249l0.193,0.249l0.194,0.249l0.196,0.248l0.196,0.247l0.197,0.247l0.197,0.247l0.199,0.246l0.2,0.246l0.2,0.245l0.202,0.244l0.202,0.245l0.203,0.243l0.204,0.243l0.205,0.243l0.206,0.242l0.207,0.242l0.208,0.241l0.208,0.241l0.21,0.24l0.21,0.24l0.211,0.239l0.213,0.238l0.213,0.238l0.214,0.238l0.214,0.237l0.216,0.236l0.217,0.236l0.217,0.236l0.219,0.235l0.219,0.234l0.22,0.234l0.221,0.233l0.222,0.233l0.223,0.232l0.224,0.232l0.224,0.231l0.226,0.231l0.226,0.23l0.228,0.23l0.228,0.228l0.229,0.229l0.229,0.227l0.23,0.226l0.231,0.226l0.231,0.225l0.232,0.223l0.232,0.223l0.233,0.222l0.233,0.221l0.234,0.22l0.235,0.22l0.234,0.218l0.236,0.218l0.236,0.216l0.236,0.216l0.237,0.215l0.238,0.214l0.238,0.213l0.239,0.212l0.239,0.211l0.239,0.211l0.241,0.209l0.24,0.209l0.241,0.207l0.242,0.207l0.242,0.206l0.243,0.205l0.243,0.204l0.244,0.203l0.244,0.203l0.245,0.201l0.245,0.201l0.245,0.199l0.246,0.199l0.247,0.198l0.247,0.197l0.248,0.196l0.248,0.195l0.248,0.194l0.249,0.194l0.25,0.192l0.25,0.192l0.25,0.19l0.251,0.19l0.251,0.189l0.252,0.188l0.252,0.187l0.253,0.187l0.253,0.185l0.254,0.184l0.254,0.184l0.254,0.183l0.255,0.181l0.255,0.181l0.256,0.18l0.256,0.179l0.257,0.179l0.257,0.177l0.258,0.176l0.258,0.176l0.258,0.174l0.259,0.174l0.259,0.173l0.26,0.172l0.26,0.171l0.26,0.17l0.261,0.169l0.262,0.169l0.261,0.167l0.262,0.167l0.263,0.166l0.263,0.164l0.263,0.164l0.264,0.163l0.264,0.162l0.265,0.162l0.265,0.16l0.265,0.159l0.266,0.159l0.266,0.158l0.266,0.156l0.267,0.156l0.267,0.155l0.268,0.154l0.268,0.154l0.268,0.152l0.269,0.151l0.269,0.151l0.269,0.149l0.27,0.149l0.27,0.148l0.271,0.147l0.271,0.146l0.271,0.145l0.272,0.144l0.272,0.144l0.272,0.142l0.273,0.142l0.273,0.14l0.273,0.14l0.274,0.139l0.274,0.138l0.274,0.137l0.275,0.136l0.275,0.136l0.275,0.134l0.276,0.134l0.276,0.132l0.276,0.132l0.277,0.131l0.277,0.13l0.277,0.129l0.277,0.128l0.278,0.128l0.278,0.126l0.279,0.125l0.279,0.125l0.279,0.124l0.279,0.123l0.28,0.121l0.28,0.122l0.28,0.12l0.281,0.119l0.281,0.118l0.281,0.118l0.281,0.116l0.282,0.116l0.282,0.115l0.282,0.114l0.283,0.113l0.283,0.112l0.283,0.111l0.283,0.11l0.284,0.11l0.284,0.108l0.284,0.108l0.285,0.107l0.284,0.105l0.285,0.105l0.285,0.104l0.286,0.104l0.286,0.102l0.286,0.101l0.286,0.101l0.286,0.099l0.287,0.099l0.287,0.098l0.287,0.097l0.288,0.096l0.287,0.095l0.288,0.094l0.288,0.094l0.288,0.092l0.289,0.092l0.289,0.09l0.289,0.09l0.289,0.089l0.289,0.088l0.29,0.087l0.29,0.086l0.29,0.085l0.29,0.085l0.291,0.083l0.29,0.083l0.291,0.082l0.291,0.081l0.292,0.079l0.291,0.08l0.292,0.078l0.292,0.077l0.292,0.076l0.292,0.076l0.292,0.074l0.293,0.074l0.293,0.073l0.292,0.072l0.294,0.071l0.293,0.07l0.293,0.069l0.294,0.068l0.294,0.068l0.294,0.066l0.294,0.066l0.294,0.065l0.294,0.064l0.295,0.063l0.295,0.062l0.295,0.061l0.295,0.06l0.295,0.06l0.295,0.058l0.296,0.058l0.295,0.057l0.296,0.055l0.296,0.055l0.296,0.054l0.296,0.053l0.296,0.053l0.297,0.051l0.296,0.051l0.297,0.049l0.297,0.049l0.296,0.048l0.297,0.047l0.297,0.046l0.298,0.045l0.297,0.044l0.297,0.043l0.298,0.043l0.298,0.041l0.297,0.041l0.298,0.04l0.298,0.038l0.298,0.038l0.298,0.037l0.298,0.037l0.299,0.035l0.298,0.034l0.299,0.034l0.298,0.032l0.299,0.032l0.298,0.031l0.299,0.03l0.299,0.029l0.299,0.028l0.299,0.027l0.299,0.027l0.299,0.025l0.299,0.025l0.299,0.023l0.3,0.023l0.299,0.022l0.299,0.021l0.3,0.02l0.299,0.019l0.3,0.019l0.299,0.017l0.3,0.016l0.3,0.016l0.299,0.015l0.3,0.014l0.3,0.013l0.3,0.012l0.299,0.011l0.3,0.01l0.3,0.01l0.3,0.008l0.3,0.008l0.3,0.006l0.3,0.006l0.3,0.005l0.3,0.004l0.3,0.003l0.3,0.002l0.3,0.002l0.3,0l0.3,0l0.3,-0.002l0.3,-0.002l0.3,-0.003l0.299,-0.004l0.3,-0.005l0.3,-0.006l0.3,-0.006l0.3,-0.008l0.3,-0.008l0.3,-0.01l0.3,-0.01l0.3,-0.011l0.299,-0.012l0.3,-0.013l0.3,-0.014l0.3,-0.015l0.299,-0.016l0.3,-0.016l0.299,-0.017l0.3,-0.019l0.299,-0.019l0.3,-0.02l0.299,-0.021l0.3,-0.022l0.299,-0.023l0.299,-0.023l0.299,-0.025l0.299,-0.025l0.299,-0.027l0.299,-0.027l0.299,-0.028l0.299,-0.029l0.299,-0.03l0.299,-0.031l0.298,-0.032l0.299,-0.032l0.298,-0.034l0.299,-0.034l0.298,-0.035l0.298,-0.037l0.298,-0.037l0.298,-0.038l0.298,-0.038l0.298,-0.04l0.298,-0.041l0.297,-0.041l0.298,-0.043l0.297,-0.043l0.298,-0.044l0.297,-0.045l0.297,-0.046l0.297,-0.047l0.297,-0.048l0.296,-0.049l0.297,-0.049l0.297,-0.051l0.296,-0.051l0.296,-0.053l0.296,-0.053l0.296,-0.054l0.296,-0.055l0.296,-0.055l0.296,-0.057l0.295,-0.058l0.295,-0.058l0.296,-0.06l0.295,-0.06l0.294,-0.061l0.295,-0.062l0.295,-0.063l0.294,-0.064l0.294,-0.065l0.295,-0.066l0.293,-0.066l0.294,-0.068l0.294,-0.068l0.293,-0.069l0.294,-0.07l0.293,-0.071l0.293,-0.072l0.292,-0.073l0.293,-0.074l0.292,-0.074l0.293,-0.076l0.292,-0.076l0.291,-0.077l0.292,-0.078l0.292,-0.08l0.291,-0.079l0.291,-0.081l0.291,-0.082l0.29,-0.083l0.291,-0.083l0.29,-0.085l0.29,-0.085l0.29,-0.086l0.29,-0.087l0.289,-0.088l0.289,-0.089l0.289,-0.09l0.289,-0.09l0.289,-0.092l0.288,-0.092l0.288,-0.094l0.288,-0.094l0.288,-0.095l0.287,-0.096l0.287,-0.097l0.287,-0.098l0.287,-0.099l0.286,-0.099l0.287,-0.101l0.286,-0.101l0.285,-0.102l0.286,-0.104l0.285,-0.104l0.285,-0.105l0.285,-0.105l0.284,-0.107l0.284,-0.108l0.284,-0.108l0.284,-0.11l0.283,-0.11l0.283,-0.111l0.283,-0.112l0.283,-0.113l0.282,-0.114l0.282,-0.115l0.282,-0.116l0.281,-0.116l0.281,-0.118l0.281,-0.118l0.281,-0.119l0.28,-0.12l0.28,-0.122l0.28,-0.121l0.279,-0.123l0.279,-0.124l0.279,-0.125l0.279,-0.125l0.278,-0.126l0.278,-0.128l0.277,-0.128l0.278,-0.129l0.277,-0.13l0.276,-0.131l0.277,-0.132l0.276,-0.132l0.275,-0.134l0.276,-0.134l0.275,-0.136l0.274,-0.136l0.275,-0.137l0.274,-0.138l0.273,-0.139l0.274,-0.14l0.273,-0.14l0.272,-0.142l0.273,-0.142l0.272,-0.144l0.271,-0.144l0.271,-0.145l0.271,-0.146l0.271,-0.147l0.27,-0.148l0.27,-0.149l0.269,-0.149l0.269,-0.151l0.269,-0.151l0.268,-0.152l0.268,-0.154l0.268,-0.154l0.267,-0.155l0.267,-0.156l0.267,-0.156l0.266,-0.158l0.265,-0.159l0.266,-0.159l0.265,-0.16l0.264,-0.162l0.264,-0.162l0.264,-0.163l0.263,-0.164l0.263,-0.164l0.263,-0.166l0.262,-0.167l0.262,-0.167l0.261,-0.169l0.261,-0.169l0.26,-0.17l0.26,-0.171l0.26,-0.172l0.259,-0.173l0.259,-0.174l0.259,-0.174l0.258,-0.176l0.257,-0.176l0.257,-0.177l0.257,-0.179l0.256,-0.179l0.256,-0.18l0.255,-0.181l0.255,-0.181l0.255,-0.183l0.254,-0.184l0.253,-0.184l0.253,-0.185l0.253,-0.187l0.252,-0.187l0.252,-0.188l0.251,-0.189l0.251,-0.19l0.251,-0.19l0.25,-0.192l0.249,-0.192l0.249,-0.194l0.248,-0.194l0.249,-0.195l0.247,-0.196l0.247,-0.197l0.247,-0.198l0.246,-0.199l0.245,-0.199l0.246,-0.201l0.244,-0.201l0.244,-0.203l0.244,-0.203l0.243,-0.204l0.243,-0.205l0.242,-0.206l0.242,-0.207l0.241,-0.207l0.241,-0.209l0.24,-0.209l0.239,-0.211l0.239,-0.211l0.239,-0.212l0.238,-0.213l0.238,-0.214l0.237,-0.215l0.236,-0.216l0.236,-0.216l0.236,-0.218l0.235,-0.218l0.234,-0.22l0.234,-0.22l0.233,-0.221l0.233,-0.222l0.232,-0.223l0.232,-0.223l0.231,-0.225l0.231,-0.226l0.23,-0.226l0.229,-0.227l0.229,-0.229l0.229,-0.228l0.227,-0.23l0.226,-0.23l0.226,-0.231l0.224,-0.231l0.224,-0.232l0.223,-0.232l0.222,-0.233l0.221,-0.233l0.22,-0.234l0.22,-0.234l0.218,-0.235l0.218,-0.236l0.216,-0.236l0.216,-0.236l0.215,-0.237l0.214,-0.238l0.213,-0.238l0.212,-0.238l0.211,-0.239l0.21,-0.24l0.21,-0.24l0.208,-0.241l0.208,-0.241l0.207,-0.242l0.206,-0.242l0.205,-0.243l0.204,-0.243l0.203,-0.243l0.202,-0.245l0.202,-0.244l0.2,-0.245l0.2,-0.246l0.199,-0.246l0.198,-0.247l0.197,-0.247l0.196,-0.247l0.195,-0.248l0.194,-0.249l0.193,-0.249l0.193,-0.249l0.192,-0.25l0.19,-0.251l0.19,-0.25l0.189,-0.252l0.188,-0.252l0.187,-0.252l0.186,-0.252l0.186,-0.254l0.184,-0.253l0.184,-0.254l0.182,-0.255l0.182,-0.255l0.181,-0.255l0.18,-0.256l0.179,-0.256l0.178,-0.257l0.178,-0.257l0.176,-0.257l0.176,-0.258l0.174,-0.259l0.174,-0.258l0.173,-0.26l0.172,-0.259l0.171,-0.26l0.17,-0.261l0.169,-0.261l0.169,-0.261l0.167,-0.262l0.167,-0.262l0.165,-0.263l0.165,-0.263l0.164,-0.263l0.163,-0.264l0.162,-0.264l0.161,-0.264l0.161,-0.265l0.159,-0.266l0.159,-0.265l0.157,-0.266l0.157,-0.267l0.156,-0.267l0.155,-0.267l0.154,-0.267l0.153,-0.268l0.153,-0.269l0.151,-0.269l0.151,-0.269l0.149,-0.269l0.149,-0.27l0.148,-0.27l0.147,-0.271l0.146,-0.27l0.145,-0.272l0.144,-0.271l0.144,-0.272l0.142,-0.273l0.142,-0.272l0.14,-0.273l0.14,-0.274l0.139,-0.273l0.138,-0.274l0.137,-0.275l0.136,-0.274l0.136,-0.275l0.134,-0.276l0.134,-0.275l0.132,-0.276l0.132,-0.277l0.131,-0.276l0.13,-0.277l0.129,-0.277l0.128,-0.278l0.127,-0.278l0.127,-0.278l0.125,-0.279l0.125,-0.278l0.124,-0.28l0.122,-0.279l0.122,-0.28l0.121,-0.28l0.12,-0.28l0.12,-0.281l0.118,-0.28l0.118,-0.282l0.116,-0.281l0.116,-0.282l0.115,-0.282l0.113,-0.282l0.113,-0.283l0.113,-0.282l0.111,-0.284l0.11,-0.283l0.11,-0.284l0.108,-0.284l0.108,-0.284l0.106,-0.284l0.106,-0.285l0.105,-0.285l0.104,-0.285l0.103,-0.286l0.103,-0.285l0.101,-0.286l0.101,-0.286l0.099,-0.287l0.099,-0.287l0.098,-0.287l0.097,-0.287l0.096,-0.287l0.095,-0.288l0.094,-0.288l0.093,-0.288l0.093,-0.288l0.091,-0.289l0.091,-0.288l0.09,-0.289l0.089,-0.29l0.088,-0.289l0.087,-0.29l0.086,-0.29l0.085,-0.29l0.085,-0.29l0.083,-0.29l0.083,-0.291l0.082,-0.291l0.08,-0.291l0.08,-0.291l0.079,-0.292l0.079,-0.291l0.077,-0.292l0.076,-0.292l0.076,-0.292l0.074,-0.293l0.074,-0.292l0.073,-0.293l0.072,-0.293l0.071,-0.293l0.07,-0.293l0.069,-0.294l0.068,-0.294l0.068,-0.293l0.066,-0.294l0.066,-0.294l0.065,-0.295l0.064,-0.294l0.063,-0.295l0.062,-0.294l0.061,-0.295l0.06,-0.295l0.06,-0.295l0.058,-0.296l0.058,-0.295l0.056,-0.296l0.056,-0.296l0.055,-0.295l0.054,-0.296l0.053,-0.297l0.053,-0.296l0.051,-0.296l0.05,-0.297l0.05,-0.296l0.049,-0.297l0.047,-0.297l0.047,-0.297l0.046,-0.297l0.045,-0.297l0.045,-0.298l0.043,-0.297l0.042,-0.298l0.042,-0.297l0.041,-0.298l0.039,-0.298l0.039,-0.298l0.038,-0.298l0.037,-0.298l0.036,-0.298l0.036,-0.298l0.034,-0.299l0.034,-0.298l0.032,-0.299l0.032,-0.298l0.031,-0.299l0.03,-0.299l0.029,-0.299l0.028,-0.298l0.027,-0.299l0.026,-0.299l0.026,-0.3l0.024,-0.299l0.024,-0.299l0.023,-0.299l0.022,-0.3l0.021,-0.299l0.02,-0.299l0.019,-0.3l0.018,-0.299l0.018,-0.3l0.016,-0.3l0.016,-0.299l0.015,-0.3l0.014,-0.3l0.012,-0.299l0.013,-0.3l0.011,-0.3l0.01,-0.3l0.009,-0.3l0.009,-0.3l0.007,-0.3l0.007,-0.299l0.006,-0.3l0.005,-0.3l0.004,-0.3l0.003,-0.3l0.002,-0.3l0.002,-0.3l0,-0.3l0,-0.3l-0.002,-0.3l-0.002,-0.3l-0.003,-0.3l-0.004,-0.3l-0.005,-0.3l-0.006,-0.3l-0.007,-0.3l-0.007,-0.3l-0.009,-0.3l-0.009,-0.3l-0.01,-0.299l-0.011,-0.3l-0.013,-0.3l-0.012,-0.3l-0.014,-0.3l-0.015,-0.299l-0.016,-0.3l-0.016,-0.299l-0.018,-0.3l-0.018,-0.3l-0.019,-0.299l-0.02,-0.299l-0.021,-0.3l-0.022,-0.299l-0.023,-0.299l-0.024,-0.3l-0.024,-0.299l-0.026,-0.299l-0.026,-0.299l-0.027,-0.299l-0.028,-0.299l-0.029,-0.299l-0.03,-0.298l-0.031,-0.299l-0.032,-0.299l-0.032,-0.298l-0.034,-0.299l-0.034,-0.298l-0.036,-0.298l-0.036,-0.299l-0.037,-0.298l-0.038,-0.298l-0.039,-0.298l-0.039,-0.298l-0.041,-0.297l-0.042,-0.298l-0.042,-0.297l-0.043,-0.298l-0.045,-0.297l-0.045,-0.297l-0.046,-0.297l-0.047,-0.297l-0.047,-0.297l-0.049,-0.297l-0.05,-0.297l-0.05,-0.296l-0.051,-0.297l-0.053,-0.296l-0.053,-0.296l-0.054,-0.296l-0.055,-0.296l-0.056,-0.296l-0.056,-0.295l-0.058,-0.296l-0.058,-0.295l-0.06,-0.295l-0.06,-0.295l-0.061,-0.295l-0.062,-0.295l-0.063,-0.294l-0.064,-0.295l-0.065,-0.294l-0.066,-0.294l-0.066,-0.294l-0.068,-0.294l-0.068,-0.294l-0.069,-0.293l-0.07,-0.293l-0.071,-0.293l-0.072,-0.293l-0.073,-0.293l-0.074,-0.293l-0.074,-0.292l-0.076,-0.292l-0.076,-0.292l-0.077,-0.292l-0.079,-0.292l-0.079,-0.291l-0.08,-0.291l-0.08,-0.292l-0.082,-0.29l-0.083,-0.291l-0.083,-0.291l-0.085,-0.29l-0.085,-0.29l-0.086,-0.29l-0.087,-0.289l-0.088,-0.29l-0.089,-0.289l-0.09,-0.289l-0.091,-0.289l-0.091,-0.288l-0.093,-0.289l-0.093,-0.288l-0.094,-0.288l-0.095,-0.287l-0.096,-0.288l-0.097,-0.287l-0.098,-0.287l-0.099,-0.287l-0.099,-0.286l-0.101,-0.286l-0.101,-0.286l-0.103,-0.286l-0.103,-0.285l-0.104,-0.286l-0.105,-0.285l-0.106,-0.284l-0.106,-0.285l-0.108,-0.284l-0.108,-0.284l-0.11,-0.283l-0.11,-0.284l-0.111,-0.283l-0.113,-0.283l-0.113,-0.282l-0.113,-0.283l-0.115,-0.282l-0.116,-0.281l-0.116,-0.282l-0.118,-0.281l-0.118,-0.281l-0.12,-0.281l-0.12,-0.28l-0.121,-0.28l-0.122,-0.28l-0.122,-0.279l-0.124,-0.279l-0.125,-0.279l-0.125,-0.278l-0.127,-0.279l-0.127,-0.277l-0.128,-0.278l-0.129,-0.277l-0.13,-0.277l-0.131,-0.277l-0.132,-0.276l-0.132,-0.276l-0.134,-0.276l-0.134,-0.275l-0.136,-0.275l-0.136,-0.275l-0.137,-0.274l-0.138,-0.274l-0.139,-0.274l-0.14,-0.273l-0.14,-0.273l-0.142,-0.273l-0.142,-0.272l-0.144,-0.272l-0.144,-0.272l-0.145,-0.271l-0.146,-0.271l-0.147,-0.27l-0.148,-0.271l-0.149,-0.269l-0.149,-0.27l-0.151,-0.269l-0.151,-0.269l-0.153,-0.268l-0.153,-0.268l-0.154,-0.268l-0.155,-0.267l-0.156,-0.267l-0.157,-0.266l-0.157,-0.266l-0.159,-0.266l-0.159,-0.265l-0.161,-0.265l-0.161,-0.265l-0.162,-0.264l-0.163,-0.264l-0.164,-0.263l-0.165,-0.263l-0.165,-0.262l-0.167,-0.263l-0.167,-0.261l-0.169,-0.262l-0.169,-0.261l-0.17,-0.26l-0.171,-0.26l-0.172,-0.26l-0.173,-0.259l-0.174,-0.259l-0.174,-0.258l-0.176,-0.258l-0.176,-0.258l-0.178,-0.257l-0.178,-0.256l-0.179,-0.257l-0.18,-0.256l-0.181,-0.255l-0.182,-0.255l-0.182,-0.254l-0.184,-0.254l-0.184,-0.254l-0.186,-0.253l-0.186,-0.253l-0.187,-0.252l-0.188,-0.252l-0.189,-0.251l-0.19,-0.251l-0.19,-0.25l-0.192,-0.25l-0.193,-0.25l-0.193,-0.249l-0.194,-0.248l-0.195,-0.248l-0.196,-0.248l-0.197,-0.247l-0.198,-0.246l-0.199,-0.246l-0.2,-0.246l-0.2,-0.245l-0.202,-0.245l-0.202,-0.244l-0.203,-0.244l-0.204,-0.243l-0.205,-0.243l-0.206,-0.242l-0.207,-0.241l-0.208,-0.242l-0.208,-0.24l-0.21,-0.24l-0.21,-0.24l-0.211,-0.239l-0.212,-0.239l-0.213,-0.238l-0.214,-0.237l-0.215,-0.237l-0.216,-0.237l-0.216,-0.236l-0.218,-0.235l-0.218,-0.235l-0.22,-0.235l-0.22,-0.234l-0.221,-0.233l-0.222,-0.233l-0.223,-0.232l-0.224,-0.232l-0.224,-0.231l-0.226,-0.23l-0.226,-0.23l-0.227,-0.23l-0.229,-0.229l-0.229,-0.228l-0.229,-0.227l-0.23,-0.227l-0.231,-0.225l-0.231,-0.225l-0.232,-0.224l-0.232,-0.223l-0.233,-0.222l-0.233,-0.221l-0.234,-0.22l-0.234,-0.219l-0.235,-0.219l-0.236,-0.217l-0.236,-0.217l-0.236,-0.215l-0.237,-0.215l-0.238,-0.214l-0.238,-0.213l-0.239,-0.212l-0.239,-0.212l-0.239,-0.21l-0.24,-0.209l-0.241,-0.209l-0.241,-0.208l-0.242,-0.207l-0.242,-0.205l-0.243,-0.205l-0.243,-0.205l-0.244,-0.203l-0.244,-0.202l-0.244,-0.201l-0.246,-0.201l-0.245,-0.2l-0.246,-0.198l-0.247,-0.198l-0.247,-0.197l-0.247,-0.196l-0.249,-0.195l-0.248,-0.195l-0.249,-0.193l-0.249,-0.193l-0.25,-0.191l-0.251,-0.191l-0.251,-0.19l-0.251,-0.189l-0.252,-0.188l-0.252,-0.187l-0.253,-0.186l-0.253,-0.185l-0.253,-0.185l-0.254,-0.183l-0.255,-0.183l-0.255,-0.182l-0.255,-0.181l-0.256,-0.18l-0.256,-0.179l-0.257,-0.178l-0.257,-0.177l-0.257,-0.177l-0.258,-0.175l-0.259,-0.175l-0.259,-0.174l-0.259,-0.172l-0.26,-0.172l-0.26,-0.171l-0.26,-0.171l-0.261,-0.169l-0.261,-0.168l-0.262,-0.168l-0.262,-0.166l-0.263,-0.166l-0.263,-0.165l-0.263,-0.164l-0.264,-0.163l-0.264,-0.162l-0.264,-0.161l-0.265,-0.16l-0.266,-0.16l-0.265,-0.158l-0.266,-0.158l-0.267,-0.157l-0.267,-0.156l-0.267,-0.155l-0.268,-0.154l-0.268,-0.153l-0.268,-0.152l-0.269,-0.152l-0.269,-0.15l-0.269,-0.15l-0.27,-0.149l-0.27,-0.147l-0.271,-0.147l-0.271,-0.146l-0.271,-0.146l-0.271,-0.144l-0.272,-0.143l-0.273,-0.143l-0.272,-0.141l-0.273,-0.141l-0.274,-0.14l-0.273,-0.139l-0.274,-0.138l-0.275,-0.137l-0.274,-0.136l-0.275,-0.135l-0.276,-0.135l-0.275,-0.133l-0.276,-0.133l-0.277,-0.132l-0.276,-0.13l-0.277,-0.13l-0.278,-0.129l-0.277,-0.129l-0.278,-0.127l-0.278,-0.126l-0.279,-0.126l-0.279,-0.124l-0.279,-0.124l-0.279,-0.123l-0.28,-0.122l-0.28,-0.121l-0.28,-0.12l-0.281,-0.119l-0.281,-0.119l-0.281,-0.117l-0.281,-0.117l-0.282,-0.115l-0.282,-0.115l-0.282,-0.114l-0.283,-0.113l-0.283,-0.112l-0.283,-0.111l-0.283,-0.111l-0.284,-0.109l-0.284,-0.109l-0.284,-0.107l-0.284,-0.107l-0.285,-0.106l-0.285,-0.105l-0.285,-0.104l-0.286,-0.103l-0.285,-0.102l-0.286,-0.102l-0.287,-0.1l-0.286,-0.1l-0.287,-0.099l-0.287,-0.097l-0.287,-0.097l-0.287,-0.096l-0.288,-0.095l-0.288,-0.095l-0.288,-0.093l-0.288,-0.092l-0.289,-0.092l-0.289,-0.091l-0.289,-0.089l-0.289,-0.089l-0.289,-0.088l-0.29,-0.087l-0.29,-0.087l-0.29,-0.085l-0.29,-0.084l-0.291,-0.084l-0.29,-0.082l-0.291,-0.082l-0.291,-0.081l-0.291,-0.08l-0.292,-0.079l-0.292,-0.078l-0.291,-0.077l-0.292,-0.077l-0.293,-0.075l-0.292,-0.075l-0.293,-0.074l-0.292,-0.072l-0.293,-0.072l-0.293,-0.071l-0.294,-0.07l-0.293,-0.07l-0.294,-0.068l-0.294,-0.067l-0.293,-0.067l-0.295,-0.066l-0.294,-0.064l-0.294,-0.064l-0.295,-0.063l-0.295,-0.062l-0.294,-0.061l-0.295,-0.061l-0.296,-0.059l-0.295,-0.059l-0.295,-0.057l-0.296,-0.057l-0.296,-0.056l-0.296,-0.055l-0.296,-0.054l-0.296,-0.053l-0.296,-0.052l-0.296,-0.052l-0.297,-0.05l-0.297,-0.05l-0.296,-0.048l-0.297,-0.048l-0.297,-0.047l-0.297,-0.046l-0.297,-0.045l-0.298,-0.044l-0.297,-0.044l-0.298,-0.042l-0.297,-0.042l-0.298,-0.04l-0.298,-0.04l-0.298,-0.039l-0.298,-0.038l-0.298,-0.037l-0.298,-0.036l-0.298,-0.035l-0.299,-0.035l-0.298,-0.033l-0.299,-0.033l-0.298,-0.032l-0.299,-0.03l-0.299,-0.03l-0.299,-0.029l-0.299,-0.028l-0.299,-0.028l-0.299,-0.026l-0.299,-0.025l-0.299,-0.025l-0.299,-0.024l-0.299,-0.022l-0.3,-0.022l-0.299,-0.021l-0.3,-0.02l-0.299,-0.02l-0.3,-0.018l-0.299,-0.017l-0.3,-0.017l-0.299,-0.016l-0.3,-0.014l-0.3,-0.014l-0.3,-0.013l-0.299,-0.012l-0.3,-0.011l-0.3,-0.011l-0.3,-0.009l-0.3,-0.008l-0.3,-0.008l-0.3,-0.007l-0.3,-0.006l-0.3,-0.004l-0.299,-0.004l-0.3,-0.004l-0.3,-0.002l-0.3,-0.001l-0.3,-0.001l-0.3,0.001Z" style="fill:#fff;"/></g><path d="M281.071,378.673c-30.936,30.935 -81.167,30.935 -112.103,0c-30.935,-30.936 -30.935,-81.167 0,-112.102c30.936,-30.936 81.167,-30.936 112.103,0c30.935,30.935 30.935,81.166 0,112.102Z" style="fill:#f0f0f0;stroke:#fff;stroke-width:2.67px;"/><path d="M138.3,220.754c11.482,11.686 24.353,16.878 38.953,13.992l-40.11,40.109c2.887,-14.6 -2.305,-27.471 -13.992,-38.952c-0.052,-0.051 -0.105,-0.102 -0.157,-0.154l-54.548,-54.549c-4.181,-4.181 -4.181,-10.97 0,-15.152c4.181,-4.181 10.971,-4.181 15.152,0l54.548,54.548c0.052,0.052 0.104,0.105 0.154,0.158Zm-57.732,-42.584c-2.23,2.23 -5.851,2.23 -8.081,0c-2.231,-2.23 -2.231,-5.851 0,-8.081c2.23,-2.23 5.851,-2.23 8.081,0c2.23,2.23 2.23,5.851 0,8.081Zm58.582,65.848c-0.96,-1.491 -0.75,-3.449 0.504,-4.702c0.625,-0.649 1.321,-1.345 1.963,-1.987c1.307,-1.307 3.347,-1.528 4.904,-0.532c4.24,2.668 8.997,4.549 14.354,5.518l-16.163,16.162c-0.976,-5.398 -2.878,-10.186 -5.562,-14.459Z" style="fill:#f0f0f0;"/></g><g><path d="M130.871,66.964c-10.37,10.37 -10.37,27.208 0,37.577l87.681,87.682c10.37,10.369 27.208,10.369 37.578,0l87.681,-87.682c10.37,-10.369 10.37,-27.207 0,-37.577l-87.681,-87.682c-10.37,-10.369 -27.208,-10.369 -37.578,0l-87.681,87.682Z" style="fill:#eae8e8;"/><path d="M237.56,-38.494l0.219,0.002l0.219,0.003l0.219,0.004l0.219,0.006l0.219,0.008l0.219,0.008l0.218,0.01l0.219,0.011l0.219,0.012l0.219,0.014l0.218,0.015l0.219,0.016l0.218,0.018l0.218,0.019l0.219,0.02l0.218,0.021l0.218,0.023l0.218,0.024l0.218,0.026l0.218,0.027l0.217,0.028l0.218,0.029l0.217,0.031l0.217,0.032l0.217,0.033l0.217,0.035l0.217,0.035l0.217,0.038l0.216,0.038l0.216,0.04l0.217,0.041l0.215,0.043l0.216,0.043l0.216,0.045l0.215,0.047l0.215,0.047l0.215,0.049l0.214,0.051l0.215,0.051l0.214,0.053l0.214,0.054l0.214,0.056l0.213,0.057l0.213,0.058l0.213,0.059l0.213,0.061l0.212,0.062l0.212,0.064l0.212,0.064l0.211,0.066l0.211,0.068l0.211,0.068l0.21,0.07l0.211,0.072l0.21,0.072l0.209,0.074l0.209,0.075l0.209,0.077l0.209,0.078l0.207,0.079l0.208,0.08l0.208,0.082l0.206,0.083l0.207,0.085l0.206,0.086l0.206,0.087l0.205,0.088l0.205,0.09l0.204,0.091l0.204,0.092l0.204,0.094l0.203,0.095l0.203,0.096l0.202,0.097l0.202,0.099l0.201,0.1l0.2,0.102l0.201,0.103l0.2,0.104l0.199,0.105l0.198,0.107l0.199,0.108l0.197,0.109l0.198,0.111l0.196,0.112l0.196,0.113l0.195,0.115l0.196,0.116l0.194,0.117l0.194,0.118l0.193,0.12l0.193,0.122l0.191,0.122l0.192,0.123l0.19,0.126l0.191,0.126l0.189,0.127l0.189,0.129l0.188,0.131l0.187,0.131l0.187,0.133l0.187,0.134l0.185,0.135l0.185,0.137l0.184,0.138l0.183,0.139l0.183,0.141l0.182,0.141l0.181,0.144l0.181,0.144l0.179,0.145l0.18,0.147l0.177,0.148l0.178,0.15l0.177,0.151l0.176,0.152l0.175,0.153l0.174,0.154l0.174,0.156l0.173,0.157l0.171,0.158l0.171,0.16l0.171,0.161l0.169,0.162l0.169,0.163l0.167,0.165l0.156,0.154l87.703,87.704l0.155,0.155l0.165,0.168l0.163,0.169l0.162,0.169l0.16,0.17l0.16,0.171l0.159,0.172l0.156,0.173l0.156,0.173l0.155,0.175l0.153,0.175l0.152,0.176l0.151,0.176l0.149,0.178l0.148,0.178l0.147,0.179l0.146,0.18l0.144,0.181l0.143,0.181l0.142,0.182l0.14,0.182l0.14,0.184l0.138,0.184l0.136,0.184l0.136,0.186l0.134,0.186l0.133,0.187l0.131,0.187l0.13,0.188l0.129,0.19l0.128,0.189l0.126,0.19l0.125,0.191l0.124,0.191l0.122,0.192l0.121,0.193l0.12,0.193l0.118,0.193l0.118,0.195l0.116,0.195l0.114,0.195l0.114,0.196l0.112,0.197l0.11,0.197l0.11,0.198l0.108,0.198l0.107,0.199l0.105,0.199l0.104,0.199l0.103,0.201l0.101,0.201l0.1,0.201l0.099,0.202l0.098,0.202l0.096,0.202l0.095,0.203l0.094,0.204l0.092,0.204l0.091,0.205l0.09,0.205l0.088,0.205l0.087,0.206l0.086,0.206l0.084,0.206l0.083,0.207l0.082,0.207l0.081,0.208l0.079,0.208l0.078,0.208l0.076,0.21l0.075,0.209l0.074,0.209l0.073,0.21l0.071,0.21l0.07,0.21l0.069,0.211l0.067,0.211l0.066,0.212l0.065,0.212l0.063,0.212l0.062,0.212l0.061,0.212l0.06,0.214l0.058,0.213l0.057,0.213l0.055,0.214l0.054,0.213l0.053,0.215l0.052,0.215l0.05,0.214l0.049,0.214l0.048,0.216l0.046,0.215l0.045,0.215l0.044,0.216l0.043,0.217l0.041,0.215l0.039,0.216l0.039,0.217l0.037,0.216l0.036,0.218l0.035,0.217l0.033,0.216l0.032,0.217l0.031,0.218l0.029,0.217l0.028,0.218l0.027,0.218l0.025,0.218l0.024,0.218l0.023,0.218l0.022,0.218l0.02,0.218l0.019,0.219l0.017,0.218l0.017,0.219l0.015,0.218l0.013,0.219l0.013,0.218l0.011,0.219l0.01,0.22l0.008,0.218l0.007,0.218l0.006,0.219l0.005,0.22l0.003,0.219l0.002,0.219l0.001,0.219l-0.001,0.218l-0.002,0.219l-0.003,0.219l-0.005,0.22l-0.006,0.219l-0.007,0.218l-0.008,0.219l-0.01,0.219l-0.011,0.219l-0.013,0.218l-0.013,0.219l-0.015,0.218l-0.017,0.219l-0.017,0.218l-0.019,0.219l-0.02,0.219l-0.022,0.217l-0.023,0.218l-0.024,0.219l-0.025,0.217l-0.027,0.218l-0.028,0.218l-0.029,0.217l-0.031,0.218l-0.032,0.217l-0.033,0.217l-0.035,0.216l-0.036,0.218l-0.037,0.216l-0.039,0.217l-0.039,0.216l-0.041,0.215l-0.043,0.217l-0.044,0.216l-0.045,0.215l-0.046,0.215l-0.048,0.216l-0.049,0.215l-0.05,0.214l-0.052,0.214l-0.053,0.215l-0.054,0.213l-0.055,0.214l-0.057,0.213l-0.058,0.214l-0.06,0.213l-0.061,0.212l-0.062,0.212l-0.063,0.212l-0.065,0.212l-0.066,0.212l-0.067,0.211l-0.069,0.211l-0.07,0.21l-0.071,0.21l-0.073,0.21l-0.074,0.209l-0.075,0.21l-0.077,0.209l-0.077,0.208l-0.079,0.208l-0.081,0.208l-0.082,0.207l-0.083,0.207l-0.084,0.206l-0.086,0.206l-0.087,0.206l-0.088,0.205l-0.09,0.205l-0.091,0.205l-0.092,0.204l-0.094,0.204l-0.095,0.203l-0.096,0.202l-0.098,0.202l-0.099,0.202l-0.1,0.201l-0.101,0.201l-0.103,0.201l-0.104,0.199l-0.105,0.199l-0.107,0.199l-0.108,0.198l-0.11,0.198l-0.111,0.197l-0.111,0.197l-0.114,0.196l-0.114,0.195l-0.116,0.195l-0.118,0.195l-0.118,0.194l-0.12,0.192l-0.121,0.193l-0.122,0.192l-0.124,0.191l-0.125,0.191l-0.126,0.19l-0.128,0.189l-0.129,0.19l-0.13,0.188l-0.131,0.187l-0.133,0.187l-0.134,0.186l-0.136,0.186l-0.136,0.184l-0.138,0.184l-0.14,0.184l-0.14,0.182l-0.142,0.182l-0.143,0.182l-0.144,0.18l-0.146,0.18l-0.147,0.179l-0.148,0.178l-0.149,0.178l-0.151,0.176l-0.152,0.176l-0.153,0.175l-0.155,0.175l-0.156,0.173l-0.156,0.173l-0.159,0.172l-0.16,0.171l-0.16,0.17l-0.162,0.169l-0.163,0.169l-0.165,0.168l-0.155,0.155l-87.703,87.704l-0.156,0.155l-0.168,0.164l-0.168,0.163l-0.169,0.162l-0.17,0.161l-0.172,0.16l-0.172,0.158l-0.172,0.157l-0.174,0.156l-0.174,0.154l-0.175,0.153l-0.176,0.152l-0.177,0.151l-0.178,0.15l-0.177,0.147l-0.179,0.147l-0.18,0.146l-0.181,0.145l-0.181,0.143l-0.182,0.141l-0.183,0.141l-0.183,0.139l-0.184,0.138l-0.185,0.137l-0.185,0.135l-0.187,0.134l-0.187,0.133l-0.187,0.131l-0.188,0.131l-0.189,0.129l-0.189,0.127l-0.191,0.127l-0.191,0.125l-0.191,0.123l-0.191,0.122l-0.193,0.122l-0.193,0.119l-0.194,0.119l-0.195,0.117l-0.195,0.116l-0.195,0.115l-0.196,0.113l-0.196,0.112l-0.197,0.111l-0.198,0.109l-0.199,0.108l-0.198,0.107l-0.199,0.105l-0.2,0.104l-0.201,0.103l-0.2,0.102l-0.201,0.1l-0.202,0.099l-0.202,0.097l-0.203,0.097l-0.203,0.094l-0.203,0.094l-0.204,0.092l-0.205,0.092l-0.205,0.089l-0.205,0.089l-0.206,0.086l-0.206,0.086l-0.207,0.085l-0.206,0.083l-0.208,0.082l-0.207,0.08l-0.208,0.079l-0.209,0.078l-0.209,0.077l-0.209,0.075l-0.209,0.074l-0.21,0.072l-0.211,0.072l-0.21,0.07l-0.211,0.068l-0.211,0.068l-0.211,0.066l-0.212,0.064l-0.212,0.064l-0.212,0.062l-0.213,0.061l-0.213,0.059l-0.213,0.058l-0.213,0.057l-0.214,0.056l-0.214,0.054l-0.215,0.053l-0.214,0.052l-0.214,0.05l-0.215,0.049l-0.215,0.047l-0.216,0.047l-0.215,0.045l-0.216,0.044l-0.215,0.042l-0.216,0.041l-0.217,0.04l-0.216,0.038l-0.217,0.038l-0.217,0.036l-0.217,0.034l-0.216,0.033l-0.217,0.032l-0.218,0.031l-0.218,0.029l-0.217,0.028l-0.218,0.027l-0.218,0.026l-0.219,0.024l-0.218,0.023l-0.217,0.021l-0.218,0.02l-0.219,0.019l-0.219,0.018l-0.218,0.016l-0.219,0.015l-0.218,0.014l-0.219,0.012l-0.218,0.011l-0.22,0.01l-0.219,0.009l-0.218,0.007l-0.219,0.006l-0.219,0.004l-0.219,0.003l-0.219,0.002l-0.219,0.001l-0.219,-0.001l-0.219,-0.002l-0.219,-0.003l-0.219,-0.004l-0.219,-0.006l-0.218,-0.007l-0.219,-0.009l-0.219,-0.01l-0.219,-0.011l-0.219,-0.012l-0.218,-0.014l-0.219,-0.015l-0.218,-0.016l-0.219,-0.018l-0.219,-0.019l-0.218,-0.02l-0.217,-0.021l-0.218,-0.023l-0.219,-0.024l-0.218,-0.026l-0.217,-0.027l-0.218,-0.028l-0.218,-0.029l-0.218,-0.031l-0.217,-0.032l-0.216,-0.033l-0.217,-0.034l-0.217,-0.036l-0.217,-0.038l-0.216,-0.038l-0.216,-0.04l-0.216,-0.041l-0.216,-0.042l-0.216,-0.044l-0.215,-0.045l-0.216,-0.047l-0.215,-0.047l-0.215,-0.049l-0.214,-0.051l-0.214,-0.051l-0.215,-0.053l-0.214,-0.054l-0.213,-0.056l-0.214,-0.057l-0.213,-0.058l-0.213,-0.059l-0.213,-0.061l-0.212,-0.062l-0.212,-0.064l-0.212,-0.064l-0.211,-0.066l-0.211,-0.068l-0.211,-0.068l-0.211,-0.07l-0.21,-0.072l-0.209,-0.072l-0.21,-0.074l-0.209,-0.075l-0.209,-0.077l-0.208,-0.078l-0.209,-0.079l-0.207,-0.08l-0.207,-0.082l-0.207,-0.083l-0.207,-0.085l-0.206,-0.085l-0.206,-0.087l-0.205,-0.089l-0.205,-0.089l-0.205,-0.092l-0.204,-0.092l-0.203,-0.094l-0.203,-0.094l-0.203,-0.097l-0.202,-0.097l-0.201,-0.099l-0.202,-0.1l-0.2,-0.102l-0.201,-0.103l-0.2,-0.104l-0.198,-0.105l-0.199,-0.107l-0.199,-0.108l-0.197,-0.109l-0.198,-0.111l-0.196,-0.112l-0.196,-0.113l-0.196,-0.115l-0.195,-0.116l-0.194,-0.117l-0.194,-0.119l-0.192,-0.119l-0.193,-0.121l-0.192,-0.123l-0.191,-0.123l-0.191,-0.125l-0.19,-0.127l-0.19,-0.127l-0.189,-0.13l-0.188,-0.13l-0.187,-0.131l-0.187,-0.133l-0.187,-0.134l-0.185,-0.135l-0.185,-0.137l-0.184,-0.138l-0.183,-0.139l-0.183,-0.14l-0.182,-0.142l-0.181,-0.143l-0.18,-0.145l-0.181,-0.146l-0.178,-0.146l-0.178,-0.148l-0.178,-0.15l-0.177,-0.151l-0.176,-0.152l-0.175,-0.153l-0.174,-0.154l-0.174,-0.156l-0.172,-0.157l-0.172,-0.158l-0.171,-0.16l-0.171,-0.161l-0.169,-0.162l-0.168,-0.163l-0.168,-0.164l-0.156,-0.155l-87.703,-87.704l-0.155,-0.155l-0.164,-0.168l-0.164,-0.169l-0.162,-0.169l-0.16,-0.17l-0.16,-0.171l-0.158,-0.172l-0.157,-0.173l-0.156,-0.173l-0.155,-0.175l-0.153,-0.175l-0.152,-0.176l-0.151,-0.177l-0.149,-0.177l-0.148,-0.178l-0.147,-0.179l-0.146,-0.18l-0.144,-0.18l-0.143,-0.181l-0.142,-0.183l-0.14,-0.182l-0.14,-0.184l-0.138,-0.184l-0.136,-0.184l-0.136,-0.186l-0.134,-0.186l-0.132,-0.187l-0.132,-0.188l-0.13,-0.188l-0.129,-0.188l-0.128,-0.19l-0.126,-0.19l-0.125,-0.191l-0.124,-0.191l-0.122,-0.192l-0.121,-0.192l-0.12,-0.194l-0.119,-0.194l-0.117,-0.194l-0.115,-0.195l-0.115,-0.195l-0.114,-0.196l-0.111,-0.197l-0.111,-0.197l-0.109,-0.198l-0.109,-0.198l-0.106,-0.199l-0.106,-0.199l-0.104,-0.2l-0.103,-0.2l-0.101,-0.201l-0.1,-0.201l-0.099,-0.202l-0.098,-0.202l-0.096,-0.202l-0.095,-0.204l-0.094,-0.203l-0.092,-0.204l-0.091,-0.204l-0.089,-0.205l-0.089,-0.206l-0.087,-0.206l-0.086,-0.206l-0.084,-0.206l-0.083,-0.207l-0.082,-0.207l-0.081,-0.208l-0.079,-0.208l-0.078,-0.208l-0.076,-0.209l-0.075,-0.209l-0.074,-0.21l-0.073,-0.21l-0.071,-0.21l-0.07,-0.21l-0.069,-0.211l-0.067,-0.211l-0.066,-0.212l-0.065,-0.212l-0.063,-0.212l-0.062,-0.212l-0.061,-0.213l-0.06,-0.212l-0.058,-0.213l-0.057,-0.214l-0.055,-0.214l-0.054,-0.213l-0.053,-0.215l-0.052,-0.214l-0.05,-0.215l-0.049,-0.215l-0.048,-0.215l-0.046,-0.215l-0.045,-0.216l-0.044,-0.215l-0.042,-0.216l-0.042,-0.216l-0.039,-0.216l-0.039,-0.217l-0.037,-0.217l-0.036,-0.216l-0.034,-0.217l-0.034,-0.217l-0.032,-0.218l-0.03,-0.217l-0.03,-0.217l-0.028,-0.218l-0.027,-0.218l-0.025,-0.218l-0.024,-0.217l-0.023,-0.218l-0.022,-0.219l-0.02,-0.218l-0.019,-0.219l-0.017,-0.218l-0.017,-0.219l-0.015,-0.218l-0.013,-0.219l-0.013,-0.218l-0.011,-0.219l-0.01,-0.219l-0.008,-0.219l-0.007,-0.219l-0.006,-0.219l-0.005,-0.219l-0.003,-0.219l-0.002,-0.218l0,-0.219l0,-0.22l0.002,-0.218l0.003,-0.219l0.005,-0.219l0.006,-0.219l0.007,-0.219l0.008,-0.219l0.01,-0.219l0.011,-0.219l0.013,-0.218l0.013,-0.219l0.015,-0.218l0.017,-0.219l0.017,-0.218l0.019,-0.219l0.02,-0.218l0.022,-0.219l0.023,-0.218l0.024,-0.217l0.025,-0.218l0.027,-0.218l0.028,-0.218l0.03,-0.217l0.03,-0.217l0.032,-0.218l0.034,-0.217l0.034,-0.217l0.036,-0.216l0.037,-0.217l0.039,-0.217l0.039,-0.216l0.042,-0.216l0.042,-0.216l0.044,-0.215l0.045,-0.216l0.046,-0.215l0.048,-0.215l0.049,-0.215l0.05,-0.215l0.052,-0.214l0.053,-0.215l0.054,-0.213l0.055,-0.214l0.057,-0.214l0.058,-0.212l0.06,-0.213l0.061,-0.213l0.062,-0.212l0.063,-0.212l0.065,-0.212l0.066,-0.212l0.067,-0.21l0.069,-0.212l0.07,-0.21l0.071,-0.21l0.073,-0.21l0.074,-0.21l0.075,-0.209l0.076,-0.208l0.078,-0.209l0.079,-0.208l0.081,-0.208l0.082,-0.207l0.083,-0.207l0.084,-0.206l0.086,-0.206l0.087,-0.206l0.088,-0.206l0.09,-0.204l0.091,-0.205l0.092,-0.204l0.094,-0.203l0.095,-0.204l0.096,-0.202l0.098,-0.202l0.099,-0.202l0.1,-0.201l0.101,-0.201l0.103,-0.2l0.104,-0.2l0.106,-0.199l0.106,-0.199l0.109,-0.198l0.109,-0.198l0.111,-0.197l0.112,-0.197l0.113,-0.196l0.114,-0.195l0.116,-0.195l0.117,-0.194l0.119,-0.194l0.12,-0.193l0.121,-0.193l0.122,-0.192l0.124,-0.191l0.125,-0.191l0.126,-0.19l0.128,-0.19l0.129,-0.188l0.13,-0.188l0.132,-0.188l0.132,-0.187l0.135,-0.186l0.135,-0.186l0.136,-0.184l0.138,-0.184l0.14,-0.184l0.14,-0.182l0.142,-0.182l0.143,-0.182l0.144,-0.18l0.146,-0.18l0.147,-0.179l0.148,-0.178l0.149,-0.177l0.151,-0.177l0.152,-0.176l0.153,-0.175l0.155,-0.175l0.156,-0.173l0.157,-0.173l0.158,-0.172l0.16,-0.171l0.16,-0.17l0.162,-0.169l0.164,-0.169l0.164,-0.168l0.155,-0.155l87.704,-87.704l0.155,-0.154l0.167,-0.165l0.169,-0.163l0.17,-0.162l0.17,-0.161l0.171,-0.16l0.172,-0.158l0.172,-0.157l0.174,-0.156l0.174,-0.154l0.175,-0.153l0.176,-0.152l0.177,-0.151l0.177,-0.149l0.179,-0.149l0.179,-0.147l0.179,-0.145l0.181,-0.144l0.181,-0.143l0.182,-0.142l0.183,-0.141l0.183,-0.139l0.184,-0.138l0.185,-0.137l0.186,-0.135l0.185,-0.134l0.188,-0.133l0.187,-0.132l0.188,-0.129l0.189,-0.129l0.19,-0.128l0.19,-0.126l0.19,-0.126l0.192,-0.123l0.192,-0.123l0.192,-0.121l0.193,-0.12l0.194,-0.118l0.194,-0.117l0.195,-0.116l0.196,-0.115l0.196,-0.113l0.197,-0.112l0.197,-0.111l0.197,-0.109l0.199,-0.108l0.198,-0.107l0.2,-0.105l0.199,-0.104l0.2,-0.103l0.201,-0.102l0.202,-0.1l0.201,-0.099l0.202,-0.097l0.203,-0.096l0.203,-0.095l0.204,-0.094l0.204,-0.092l0.204,-0.091l0.205,-0.09l0.205,-0.088l0.206,-0.087l0.206,-0.086l0.207,-0.085l0.207,-0.083l0.207,-0.082l0.208,-0.08l0.208,-0.079l0.208,-0.078l0.209,-0.077l0.209,-0.075l0.21,-0.074l0.209,-0.072l0.21,-0.072l0.211,-0.07l0.211,-0.068l0.211,-0.068l0.211,-0.066l0.212,-0.064l0.212,-0.064l0.213,-0.062l0.212,-0.061l0.213,-0.059l0.213,-0.058l0.214,-0.057l0.213,-0.056l0.214,-0.054l0.214,-0.053l0.215,-0.051l0.214,-0.051l0.215,-0.049l0.215,-0.047l0.216,-0.047l0.215,-0.045l0.216,-0.043l0.216,-0.043l0.216,-0.041l0.216,-0.04l0.216,-0.038l0.217,-0.038l0.217,-0.035l0.217,-0.035l0.217,-0.033l0.217,-0.032l0.217,-0.031l0.218,-0.029l0.218,-0.028l0.217,-0.027l0.218,-0.026l0.218,-0.024l0.218,-0.023l0.218,-0.021l0.219,-0.02l0.218,-0.019l0.219,-0.018l0.218,-0.016l0.219,-0.015l0.218,-0.014l0.219,-0.012l0.219,-0.011l0.219,-0.01l0.218,-0.008l0.219,-0.008l0.219,-0.006l0.219,-0.004l0.219,-0.003l0.219,-0.002l0.219,-0.001l0.219,0.001Zm-0.378,10l-0.16,0.001l-0.159,0.002l-0.16,0.004l-0.159,0.004l-0.159,0.005l-0.16,0.006l-0.159,0.007l-0.159,0.009l-0.159,0.009l-0.16,0.01l-0.159,0.01l-0.159,0.012l-0.159,0.013l-0.159,0.014l-0.159,0.015l-0.158,0.015l-0.159,0.017l-0.159,0.017l-0.158,0.019l-0.159,0.019l-0.158,0.021l-0.158,0.021l-0.158,0.023l-0.158,0.023l-0.158,0.024l-0.158,0.025l-0.158,0.026l-0.157,0.027l-0.158,0.028l-0.157,0.029l-0.157,0.03l-0.157,0.031l-0.157,0.032l-0.157,0.033l-0.156,0.033l-0.156,0.035l-0.157,0.036l-0.156,0.036l-0.155,0.038l-0.156,0.038l-0.156,0.039l-0.155,0.041l-0.155,0.041l-0.155,0.042l-0.154,0.044l-0.155,0.044l-0.154,0.045l-0.154,0.046l-0.154,0.047l-0.153,0.048l-0.153,0.049l-0.153,0.049l-0.153,0.051l-0.153,0.052l-0.152,0.053l-0.152,0.053l-0.152,0.055l-0.151,0.055l-0.152,0.057l-0.151,0.057l-0.15,0.059l-0.151,0.059l-0.15,0.06l-0.15,0.062l-0.149,0.062l-0.149,0.063l-0.149,0.064l-0.149,0.065l-0.148,0.066l-0.148,0.067l-0.147,0.068l-0.148,0.069l-0.147,0.07l-0.146,0.07l-0.146,0.072l-0.146,0.073l-0.146,0.073l-0.145,0.075l-0.145,0.075l-0.144,0.077l-0.144,0.077l-0.144,0.078l-0.143,0.08l-0.143,0.08l-0.143,0.081l-0.142,0.082l-0.142,0.083l-0.141,0.084l-0.141,0.085l-0.14,0.086l-0.14,0.087l-0.14,0.088l-0.139,0.088l-0.139,0.09l-0.138,0.091l-0.138,0.091l-0.137,0.093l-0.137,0.094l-0.137,0.094l-0.136,0.095l-0.136,0.097l-0.135,0.097l-0.134,0.098l-0.135,0.1l-0.133,0.1l-0.133,0.101l-0.133,0.102l-0.132,0.103l-0.132,0.104l-0.131,0.105l-0.131,0.106l-0.13,0.106l-0.13,0.108l-0.129,0.109l-0.128,0.11l-0.128,0.11l-0.128,0.112l-0.127,0.112l-0.126,0.114l-0.126,0.114l-0.125,0.115l-0.125,0.117l-0.124,0.117l-0.124,0.118l-0.123,0.119l-0.122,0.12l-0.122,0.121l-87.681,87.682l-0.121,0.122l-0.12,0.122l-0.119,0.123l-0.119,0.123l-0.117,0.125l-0.116,0.124l-0.115,0.126l-0.115,0.125l-0.113,0.127l-0.113,0.127l-0.111,0.127l-0.111,0.128l-0.11,0.129l-0.108,0.129l-0.108,0.13l-0.107,0.13l-0.106,0.13l-0.105,0.132l-0.104,0.131l-0.103,0.132l-0.102,0.133l-0.101,0.133l-0.1,0.134l-0.099,0.134l-0.098,0.135l-0.098,0.135l-0.096,0.135l-0.095,0.137l-0.095,0.136l-0.093,0.137l-0.093,0.137l-0.092,0.138l-0.09,0.139l-0.09,0.138l-0.089,0.14l-0.088,0.139l-0.086,0.14l-0.086,0.141l-0.085,0.141l-0.084,0.141l-0.083,0.142l-0.083,0.142l-0.081,0.142l-0.08,0.143l-0.079,0.143l-0.079,0.144l-0.077,0.144l-0.076,0.145l-0.076,0.144l-0.074,0.146l-0.074,0.145l-0.073,0.146l-0.071,0.146l-0.071,0.147l-0.07,0.147l-0.069,0.147l-0.067,0.148l-0.067,0.148l-0.066,0.148l-0.065,0.148l-0.065,0.149l-0.063,0.149l-0.062,0.15l-0.061,0.15l-0.06,0.15l-0.06,0.15l-0.058,0.151l-0.058,0.151l-0.056,0.151l-0.056,0.152l-0.054,0.151l-0.054,0.152l-0.052,0.153l-0.052,0.152l-0.051,0.153l-0.05,0.153l-0.049,0.153l-0.048,0.154l-0.047,0.154l-0.046,0.154l-0.045,0.154l-0.044,0.154l-0.043,0.155l-0.042,0.155l-0.042,0.155l-0.04,0.155l-0.039,0.155l-0.039,0.156l-0.037,0.156l-0.037,0.156l-0.036,0.156l-0.034,0.156l-0.034,0.157l-0.033,0.157l-0.031,0.156l-0.031,0.157l-0.03,0.157l-0.029,0.158l-0.028,0.157l-0.027,0.158l-0.026,0.157l-0.026,0.158l-0.024,0.158l-0.023,0.158l-0.022,0.158l-0.022,0.158l-0.02,0.159l-0.02,0.158l-0.018,0.159l-0.018,0.158l-0.016,0.159l-0.016,0.159l-0.015,0.159l-0.013,0.159l-0.013,0.159l-0.012,0.159l-0.011,0.159l-0.01,0.159l-0.009,0.159l-0.008,0.16l-0.007,0.159l-0.006,0.159l-0.006,0.16l-0.004,0.159l-0.003,0.159l-0.003,0.16l-0.001,0.159l0,0.16l0,0.159l0.001,0.159l0.003,0.16l0.003,0.159l0.004,0.16l0.006,0.159l0.006,0.159l0.007,0.16l0.008,0.159l0.009,0.159l0.01,0.159l0.011,0.159l0.012,0.159l0.013,0.159l0.013,0.159l0.015,0.159l0.016,0.159l0.016,0.159l0.018,0.158l0.018,0.159l0.02,0.158l0.02,0.159l0.022,0.158l0.022,0.158l0.023,0.158l0.024,0.158l0.026,0.158l0.026,0.157l0.027,0.158l0.028,0.157l0.029,0.158l0.03,0.157l0.031,0.157l0.031,0.157l0.033,0.156l0.034,0.157l0.034,0.156l0.036,0.156l0.037,0.156l0.037,0.156l0.039,0.156l0.039,0.155l0.04,0.155l0.042,0.155l0.042,0.155l0.043,0.155l0.044,0.154l0.045,0.154l0.046,0.154l0.047,0.154l0.048,0.154l0.049,0.153l0.05,0.153l0.051,0.153l0.052,0.152l0.052,0.153l0.054,0.152l0.054,0.152l0.056,0.151l0.056,0.151l0.058,0.151l0.058,0.151l0.06,0.15l0.06,0.15l0.061,0.15l0.062,0.15l0.063,0.149l0.065,0.149l0.065,0.148l0.066,0.149l0.067,0.147l0.067,0.148l0.069,0.147l0.07,0.147l0.071,0.147l0.071,0.146l0.073,0.146l0.074,0.145l0.074,0.146l0.076,0.144l0.076,0.145l0.077,0.144l0.079,0.144l0.079,0.143l0.08,0.143l0.081,0.142l0.083,0.142l0.083,0.142l0.084,0.141l0.085,0.141l0.086,0.141l0.086,0.14l0.088,0.139l0.089,0.14l0.09,0.138l0.09,0.139l0.092,0.138l0.093,0.137l0.093,0.137l0.095,0.137l0.095,0.136l0.096,0.135l0.098,0.135l0.098,0.135l0.099,0.134l0.1,0.134l0.101,0.133l0.102,0.133l0.103,0.132l0.104,0.132l0.105,0.131l0.106,0.13l0.107,0.131l0.108,0.129l0.108,0.129l0.11,0.129l0.111,0.128l0.111,0.127l0.113,0.127l0.113,0.127l0.115,0.125l0.115,0.126l0.116,0.124l0.117,0.125l0.119,0.123l0.119,0.123l0.12,0.123l0.121,0.121l87.681,87.682l0.122,0.121l0.122,0.12l0.123,0.119l0.124,0.118l0.124,0.117l0.125,0.117l0.125,0.115l0.126,0.114l0.126,0.114l0.127,0.112l0.128,0.112l0.128,0.111l0.128,0.109l0.129,0.109l0.13,0.108l0.13,0.106l0.131,0.106l0.131,0.105l0.132,0.104l0.132,0.103l0.133,0.102l0.133,0.101l0.133,0.101l0.135,0.099l0.134,0.098l0.135,0.097l0.136,0.097l0.136,0.095l0.137,0.095l0.137,0.093l0.137,0.093l0.138,0.091l0.138,0.091l0.139,0.09l0.139,0.088l0.14,0.088l0.14,0.087l0.14,0.086l0.141,0.085l0.141,0.084l0.142,0.083l0.142,0.082l0.143,0.081l0.143,0.081l0.143,0.079l0.144,0.078l0.144,0.078l0.144,0.076l0.145,0.075l0.145,0.075l0.146,0.074l0.146,0.072l0.146,0.072l0.146,0.071l0.147,0.069l0.148,0.069l0.147,0.068l0.148,0.067l0.148,0.066l0.149,0.065l0.149,0.064l0.149,0.063l0.149,0.062l0.15,0.062l0.15,0.06l0.151,0.059l0.15,0.059l0.151,0.057l0.152,0.057l0.151,0.055l0.152,0.055l0.152,0.053l0.152,0.053l0.153,0.052l0.153,0.051l0.153,0.049l0.153,0.049l0.153,0.048l0.154,0.047l0.154,0.046l0.154,0.045l0.155,0.045l0.154,0.043l0.155,0.042l0.155,0.041l0.155,0.041l0.156,0.039l0.156,0.038l0.155,0.038l0.156,0.037l0.157,0.035l0.156,0.035l0.156,0.034l0.157,0.032l0.157,0.032l0.157,0.031l0.157,0.03l0.157,0.029l0.158,0.028l0.157,0.027l0.158,0.026l0.158,0.025l0.158,0.024l0.158,0.024l0.158,0.022l0.158,0.021l0.158,0.021l0.159,0.019l0.158,0.019l0.159,0.017l0.159,0.017l0.158,0.015l0.159,0.015l0.159,0.014l0.159,0.013l0.159,0.012l0.159,0.011l0.16,0.01l0.159,0.009l0.159,0.008l0.159,0.007l0.16,0.006l0.159,0.005l0.159,0.004l0.16,0.004l0.159,0.002l0.16,0.002l0.159,0l0.159,0l0.16,-0.002l0.159,-0.002l0.16,-0.004l0.159,-0.004l0.159,-0.005l0.16,-0.006l0.159,-0.007l0.159,-0.008l0.159,-0.009l0.16,-0.01l0.159,-0.011l0.159,-0.012l0.159,-0.013l0.159,-0.014l0.159,-0.015l0.158,-0.015l0.159,-0.017l0.159,-0.017l0.158,-0.019l0.159,-0.019l0.158,-0.021l0.158,-0.021l0.158,-0.022l0.159,-0.024l0.157,-0.024l0.158,-0.025l0.158,-0.026l0.157,-0.027l0.158,-0.028l0.157,-0.029l0.157,-0.03l0.157,-0.031l0.157,-0.032l0.157,-0.032l0.156,-0.034l0.157,-0.035l0.156,-0.035l0.156,-0.037l0.156,-0.038l0.155,-0.038l0.156,-0.039l0.155,-0.041l0.155,-0.041l0.155,-0.042l0.154,-0.043l0.155,-0.045l0.154,-0.045l0.154,-0.046l0.154,-0.047l0.153,-0.048l0.154,-0.049l0.153,-0.049l0.152,-0.051l0.153,-0.052l0.152,-0.053l0.152,-0.053l0.152,-0.055l0.152,-0.055l0.151,-0.057l0.151,-0.057l0.15,-0.059l0.151,-0.059l0.15,-0.06l0.15,-0.062l0.149,-0.062l0.149,-0.063l0.149,-0.064l0.149,-0.065l0.148,-0.066l0.148,-0.067l0.148,-0.068l0.147,-0.069l0.147,-0.069l0.146,-0.071l0.147,-0.072l0.145,-0.072l0.146,-0.074l0.145,-0.075l0.145,-0.075l0.144,-0.076l0.144,-0.078l0.144,-0.078l0.143,-0.079l0.143,-0.081l0.143,-0.081l0.142,-0.082l0.142,-0.083l0.141,-0.084l0.141,-0.085l0.14,-0.086l0.14,-0.087l0.14,-0.088l0.139,-0.088l0.139,-0.09l0.138,-0.091l0.138,-0.091l0.138,-0.093l0.137,-0.093l0.136,-0.095l0.136,-0.095l0.136,-0.097l0.135,-0.097l0.134,-0.098l0.135,-0.099l0.133,-0.101l0.133,-0.101l0.133,-0.102l0.132,-0.103l0.132,-0.104l0.131,-0.105l0.131,-0.106l0.13,-0.106l0.13,-0.108l0.129,-0.109l0.128,-0.109l0.128,-0.111l0.128,-0.112l0.127,-0.112l0.126,-0.114l0.126,-0.114l0.125,-0.115l0.125,-0.117l0.124,-0.117l0.124,-0.118l0.123,-0.119l0.122,-0.12l0.122,-0.121l87.681,-87.682l0.121,-0.121l0.12,-0.123l0.119,-0.123l0.119,-0.123l0.117,-0.125l0.116,-0.124l0.116,-0.126l0.114,-0.125l0.113,-0.127l0.113,-0.127l0.111,-0.127l0.111,-0.128l0.11,-0.129l0.108,-0.129l0.108,-0.129l0.107,-0.131l0.106,-0.13l0.105,-0.131l0.104,-0.132l0.103,-0.132l0.102,-0.133l0.101,-0.133l0.1,-0.134l0.099,-0.134l0.098,-0.135l0.098,-0.135l0.096,-0.135l0.096,-0.136l0.094,-0.137l0.094,-0.137l0.092,-0.137l0.092,-0.138l0.09,-0.139l0.09,-0.138l0.089,-0.14l0.088,-0.139l0.087,-0.14l0.085,-0.141l0.085,-0.141l0.084,-0.141l0.084,-0.142l0.082,-0.142l0.081,-0.142l0.08,-0.143l0.079,-0.143l0.079,-0.144l0.077,-0.144l0.076,-0.145l0.076,-0.144l0.074,-0.146l0.074,-0.145l0.073,-0.146l0.071,-0.146l0.071,-0.147l0.07,-0.147l0.069,-0.147l0.068,-0.148l0.067,-0.147l0.065,-0.149l0.066,-0.148l0.064,-0.149l0.063,-0.149l0.062,-0.15l0.061,-0.15l0.06,-0.15l0.06,-0.15l0.058,-0.151l0.058,-0.151l0.056,-0.151l0.056,-0.151l0.054,-0.152l0.054,-0.152l0.053,-0.153l0.051,-0.152l0.051,-0.153l0.05,-0.153l0.049,-0.153l0.048,-0.154l0.047,-0.154l0.046,-0.154l0.045,-0.154l0.044,-0.154l0.043,-0.155l0.042,-0.155l0.042,-0.155l0.04,-0.155l0.04,-0.155l0.038,-0.156l0.037,-0.156l0.037,-0.156l0.036,-0.156l0.034,-0.156l0.034,-0.157l0.033,-0.156l0.032,-0.157l0.03,-0.157l0.03,-0.157l0.029,-0.158l0.028,-0.157l0.027,-0.158l0.026,-0.157l0.026,-0.158l0.024,-0.158l0.023,-0.158l0.022,-0.158l0.022,-0.158l0.02,-0.159l0.02,-0.158l0.018,-0.159l0.018,-0.158l0.016,-0.159l0.016,-0.159l0.015,-0.159l0.013,-0.159l0.013,-0.159l0.012,-0.159l0.011,-0.159l0.01,-0.159l0.009,-0.159l0.008,-0.159l0.007,-0.16l0.006,-0.159l0.006,-0.159l0.004,-0.16l0.003,-0.159l0.003,-0.16l0.001,-0.159l0.001,-0.159l-0.001,-0.16l-0.001,-0.159l-0.003,-0.16l-0.003,-0.159l-0.004,-0.159l-0.006,-0.16l-0.006,-0.159l-0.007,-0.159l-0.008,-0.16l-0.009,-0.159l-0.01,-0.159l-0.011,-0.159l-0.012,-0.159l-0.013,-0.159l-0.013,-0.159l-0.015,-0.159l-0.016,-0.159l-0.016,-0.159l-0.018,-0.158l-0.018,-0.159l-0.02,-0.158l-0.02,-0.159l-0.022,-0.158l-0.022,-0.158l-0.023,-0.158l-0.024,-0.158l-0.026,-0.158l-0.026,-0.157l-0.027,-0.158l-0.028,-0.157l-0.029,-0.158l-0.03,-0.157l-0.03,-0.157l-0.032,-0.156l-0.033,-0.157l-0.034,-0.157l-0.034,-0.156l-0.036,-0.156l-0.037,-0.156l-0.037,-0.156l-0.038,-0.156l-0.04,-0.155l-0.04,-0.155l-0.042,-0.155l-0.042,-0.155l-0.043,-0.155l-0.044,-0.154l-0.045,-0.154l-0.046,-0.154l-0.047,-0.154l-0.048,-0.154l-0.049,-0.153l-0.05,-0.153l-0.051,-0.153l-0.051,-0.152l-0.053,-0.153l-0.054,-0.152l-0.054,-0.151l-0.056,-0.152l-0.056,-0.151l-0.058,-0.151l-0.058,-0.151l-0.06,-0.15l-0.06,-0.15l-0.061,-0.15l-0.062,-0.15l-0.063,-0.149l-0.064,-0.149l-0.066,-0.148l-0.065,-0.148l-0.067,-0.148l-0.068,-0.148l-0.069,-0.147l-0.07,-0.147l-0.071,-0.147l-0.071,-0.146l-0.073,-0.146l-0.074,-0.145l-0.074,-0.146l-0.076,-0.144l-0.076,-0.145l-0.077,-0.144l-0.079,-0.144l-0.079,-0.143l-0.08,-0.143l-0.081,-0.142l-0.082,-0.142l-0.084,-0.142l-0.084,-0.141l-0.085,-0.141l-0.085,-0.141l-0.087,-0.14l-0.088,-0.139l-0.089,-0.14l-0.09,-0.138l-0.09,-0.139l-0.092,-0.138l-0.092,-0.137l-0.094,-0.137l-0.094,-0.136l-0.096,-0.137l-0.096,-0.135l-0.098,-0.135l-0.098,-0.135l-0.099,-0.134l-0.1,-0.134l-0.101,-0.133l-0.102,-0.133l-0.103,-0.132l-0.104,-0.131l-0.105,-0.132l-0.106,-0.13l-0.107,-0.13l-0.108,-0.13l-0.108,-0.129l-0.11,-0.129l-0.111,-0.128l-0.111,-0.127l-0.113,-0.127l-0.113,-0.127l-0.114,-0.125l-0.116,-0.126l-0.116,-0.124l-0.117,-0.125l-0.119,-0.123l-0.119,-0.123l-0.12,-0.122l-0.121,-0.122l-87.681,-87.682l-0.122,-0.121l-0.122,-0.12l-0.123,-0.119l-0.124,-0.118l-0.124,-0.117l-0.125,-0.117l-0.125,-0.115l-0.126,-0.114l-0.126,-0.114l-0.127,-0.112l-0.128,-0.112l-0.128,-0.11l-0.128,-0.11l-0.129,-0.109l-0.13,-0.108l-0.13,-0.106l-0.131,-0.106l-0.131,-0.105l-0.132,-0.104l-0.132,-0.103l-0.133,-0.102l-0.133,-0.101l-0.133,-0.1l-0.135,-0.1l-0.134,-0.098l-0.135,-0.097l-0.136,-0.097l-0.136,-0.095l-0.136,-0.094l-0.137,-0.094l-0.138,-0.093l-0.138,-0.091l-0.138,-0.091l-0.139,-0.09l-0.139,-0.088l-0.14,-0.088l-0.14,-0.087l-0.14,-0.086l-0.141,-0.085l-0.141,-0.084l-0.142,-0.083l-0.142,-0.082l-0.143,-0.081l-0.143,-0.08l-0.143,-0.08l-0.144,-0.078l-0.144,-0.077l-0.144,-0.077l-0.145,-0.075l-0.145,-0.075l-0.146,-0.073l-0.145,-0.073l-0.147,-0.072l-0.146,-0.07l-0.147,-0.07l-0.147,-0.069l-0.148,-0.068l-0.148,-0.067l-0.148,-0.066l-0.149,-0.065l-0.149,-0.064l-0.149,-0.063l-0.149,-0.062l-0.15,-0.062l-0.15,-0.06l-0.151,-0.059l-0.15,-0.059l-0.151,-0.057l-0.151,-0.057l-0.152,-0.055l-0.152,-0.055l-0.152,-0.053l-0.152,-0.053l-0.153,-0.052l-0.152,-0.051l-0.153,-0.049l-0.154,-0.049l-0.153,-0.048l-0.154,-0.047l-0.154,-0.046l-0.154,-0.045l-0.155,-0.044l-0.154,-0.044l-0.155,-0.042l-0.155,-0.041l-0.155,-0.041l-0.156,-0.039l-0.155,-0.038l-0.156,-0.038l-0.156,-0.036l-0.156,-0.036l-0.157,-0.035l-0.156,-0.033l-0.157,-0.033l-0.157,-0.032l-0.157,-0.031l-0.157,-0.03l-0.157,-0.029l-0.158,-0.028l-0.157,-0.027l-0.158,-0.026l-0.158,-0.025l-0.157,-0.024l-0.159,-0.023l-0.158,-0.023l-0.158,-0.021l-0.158,-0.021l-0.159,-0.019l-0.158,-0.019l-0.159,-0.017l-0.159,-0.017l-0.158,-0.015l-0.159,-0.015l-0.159,-0.014l-0.159,-0.013l-0.159,-0.012l-0.159,-0.01l-0.16,-0.01l-0.159,-0.009l-0.159,-0.009l-0.159,-0.007l-0.16,-0.006l-0.159,-0.005l-0.159,-0.004l-0.16,-0.004l-0.159,-0.002l-0.16,-0.001l-0.159,-0.001l-0.159,0.001Z" style="fill:#fff;"/><path d="M143.263,72.924c-7.08,7.08 -7.08,18.577 0,25.657l81.249,81.249c7.081,7.081 18.577,7.081 25.658,0l81.249,-81.249c7.08,-7.08 7.08,-18.577 0,-25.657l-81.249,-81.249c-7.081,-7.081 -18.577,-7.081 -25.658,0l-81.249,81.249Z" style="fill:#eae8e8;stroke:#fff;stroke-width:2.67px;"/><path d="M331.124,7.118c-11.687,11.482 -16.878,24.353 -13.992,38.953l-40.109,-40.11c14.599,2.887 27.471,-2.305 38.952,-13.992c0.051,-0.052 0.102,-0.105 0.154,-0.157l54.548,-54.548c4.182,-4.181 10.971,-4.181 15.153,0c4.181,4.181 4.181,10.971 0,15.152l-54.549,54.548c-0.052,0.052 -0.104,0.104 -0.157,0.154Zm42.584,-57.732c-2.23,-2.23 -2.23,-5.851 0,-8.081c2.23,-2.231 5.851,-2.231 8.081,0c2.23,2.23 2.23,5.851 0,8.081c-2.23,2.23 -5.851,2.23 -8.081,0Zm-65.849,58.582c1.491,-0.96 3.45,-0.75 4.703,0.504c0.649,0.625 1.345,1.321 1.987,1.963c1.306,1.307 1.528,3.347 0.532,4.904c-2.668,4.24 -4.549,8.997 -5.518,14.354l-16.162,-16.163c5.397,-0.976 10.185,-2.878 14.458,-5.562Z" style="fill:#eae8e8;"/><g><path d="M268.66,137.205l-82.771,-82.771" style="fill:#eae8e8;stroke:#fff;stroke-width:4px;"/><path d="M258.51,147.355l-82.771,-82.771" style="fill:#eae8e8;stroke:#fff;stroke-width:4px;"/><path d="M248.409,157.456l-82.771,-82.771" style="fill:#eae8e8;stroke:#fff;stroke-width:4px;"/><path d="M238.307,167.558l-82.771,-82.771" style="fill:#eae8e8;stroke:#fff;stroke-width:4px;"/><path d="M319.168,86.697l-82.771,-82.771" style="fill:#eae8e8;stroke:#fff;stroke-width:4px;"/><path d="M309.018,96.847l-82.771,-82.771" style="fill:#eae8e8;stroke:#fff;stroke-width:4px;"/><path d="M298.916,106.948l-82.771,-82.771" style="fill:#eae8e8;stroke:#fff;stroke-width:4px;"/><path d="M288.815,117.05l-82.771,-82.771" style="fill:#eae8e8;stroke:#fff;stroke-width:4px;"/><path d="M278.727,127.138l-82.771,-82.771" style="fill:#eae8e8;stroke:#fff;stroke-width:4px;"/></g></g><g><path d="M374.554,300.752c-13.698,13.698 -13.698,35.94 0,49.638l115.821,115.82c13.697,13.698 35.939,13.698 49.637,0l115.821,-115.82c13.698,-13.698 13.698,-35.94 0,-49.638l-115.821,-115.821c-13.698,-13.697 -35.94,-13.697 -49.637,0l-115.821,115.821Z" style="fill:#fff;"/><path d="M390.923,308.625c-9.352,9.353 -9.352,24.539 0,33.892l107.324,107.324c9.353,9.352 24.54,9.352 33.892,0l107.324,-107.324c9.353,-9.353 9.353,-24.539 0,-33.892l-107.324,-107.324c-9.352,-9.353 -24.539,-9.353 -33.892,0l-107.324,107.324Z" style="fill:#fff;stroke:#ddd;stroke-width:2.67px;"/><path d="M639.074,221.701c-15.437,15.166 -22.295,32.168 -18.482,51.453l-52.982,-52.982c19.285,3.813 36.287,-3.045 51.453,-18.482c0.067,-0.07 0.135,-0.139 0.204,-0.208l72.054,-72.054c5.523,-5.523 14.492,-5.523 20.015,0c5.523,5.523 5.523,14.492 0,20.015l-72.054,72.054c-0.069,0.069 -0.138,0.137 -0.208,0.204Zm56.25,-76.261c-2.946,-2.946 -2.946,-7.729 0,-10.675c2.946,-2.945 7.729,-2.945 10.675,0c2.946,2.946 2.946,7.729 0,10.675c-2.946,2.946 -7.729,2.946 -10.675,0Zm-86.981,77.382c1.97,-1.267 4.556,-0.989 6.212,0.667c0.857,0.825 1.776,1.745 2.624,2.592c1.726,1.727 2.019,4.422 0.703,6.479c-3.524,5.6 -6.008,11.883 -7.288,18.96l-21.35,-21.349c7.13,-1.29 13.455,-3.803 19.099,-7.349Z" style="fill:#fff;"/><g><path d="M583.186,284.201l-109.334,109.334" style="fill:#fff;stroke:#ddd;stroke-width:4px;"/><path d="M596.594,297.608l-109.335,109.335" style="fill:#fff;stroke:#ddd;stroke-width:4px;"/><path d="M609.937,310.951l-109.334,109.335" style="fill:#fff;stroke:#ddd;stroke-width:4px;"/><path d="M623.28,324.295l-109.334,109.334" style="fill:#fff;stroke:#ddd;stroke-width:4px;"/><path d="M516.469,217.484l-109.334,109.334" style="fill:#fff;stroke:#ddd;stroke-width:4px;"/><path d="M529.877,230.891l-109.335,109.335" style="fill:#fff;stroke:#ddd;stroke-width:4px;"/><path d="M543.22,244.235l-109.334,109.334" style="fill:#fff;stroke:#ddd;stroke-width:4px;"/><path d="M556.563,257.578l-109.334,109.334" style="fill:#fff;stroke:#ddd;stroke-width:4px;"/><path d="M569.889,270.904l-109.334,109.334" style="fill:#fff;stroke:#ddd;stroke-width:4px;"/></g></g></svg>