<?xml version="1.0" encoding="UTF-8" standalone="no"?><!DOCTYPE svg PUBLIC "-//W3C//DTD SVG 1.1//EN" "http://www.w3.org/Graphics/SVG/1.1/DTD/svg11.dtd"><svg width="100%" height="100%" viewBox="0 0 650 400" version="1.1" xmlns="http://www.w3.org/2000/svg" xmlns:xlink="http://www.w3.org/1999/xlink" xml:space="preserve" xmlns:serif="http://www.serif.com/" style="fill-rule:evenodd;clip-rule:evenodd;stroke-linejoin:round;stroke-miterlimit:1.41421;"><g><path d="M301.218,197.939c0.328,-3.251 1.341,-5.97 3.34,-7.922c0,0 19.152,-12.769 24.39,-16.26c0.854,-0.569 1.857,-0.873 2.884,-0.873c26.021,0 366.283,0 395.606,0c1.322,0 2.624,0.322 3.794,0.937c6.803,3.581 30.771,16.196 30.771,16.196c2.829,1.544 4.95,3.937 5.129,8.652c0.007,0.131 0.011,0.262 0.011,0.394l0,168.655c0,4.047 -3.286,7.332 -7.333,7.332l-451.345,0c-4.047,0 -7.333,-3.285 -7.333,-7.332l0,-168.655c0,-0.382 0.029,-0.758 0.086,-1.124Z" style="fill:#f0f0f0;"/><clipPath id="_clip1"><path d="M301.218,197.939c0.328,-3.251 1.341,-5.97 3.34,-7.922c0,0 19.152,-12.769 24.39,-16.26c0.854,-0.569 1.857,-0.873 2.884,-0.873c26.021,0 366.283,0 395.606,0c1.322,0 2.624,0.322 3.794,0.937c6.803,3.581 30.771,16.196 30.771,16.196c2.829,1.544 4.95,3.937 5.129,8.652c0.007,0.131 0.011,0.262 0.011,0.394l0,168.655c0,4.047 -3.286,7.332 -7.333,7.332l-451.345,0c-4.047,0 -7.333,-3.285 -7.333,-7.332l0,-168.655c0,-0.382 0.029,-0.758 0.086,-1.124Z"/></clipPath><g clip-path="url(#_clip1)"><rect x="301.132" y="159.178" width="466.011" height="35.68" style="fill:#e2e2e2;"/><path d="M785.989,160.445l0,243.123l-500.277,0l0,-243.123l500.277,0Zm-33.748,229.318c3.912,-0.001 7.086,-3.152 7.086,-7.033l0,-184.031c0,-0.126 -0.003,-0.252 -0.01,-0.377c-0.173,-4.522 -5.649,-6.817 -8.384,-8.299c0,0 -23.163,-12.098 -29.739,-15.533c-1.13,-0.59 -4.102,-2.612 -5.379,-2.612c-28.34,0 -348.622,0 -373.771,0c-0.992,0 -3.675,2.004 -4.501,2.551c-5.061,3.348 -23.571,15.594 -23.571,15.594c-2.294,1.813 -5.025,5.296 -5.025,8.676l0,184.031c0,3.881 3.176,7.033 7.087,7.033l436.207,0Z" style="fill:#bcbcbc;fill-opacity:0.5;"/></g><rect x="308.947" y="210.308" width="450.38" height="16.792" style="fill:#fff;"/><rect x="308.947" y="227.101" width="450.38" height="17.133" style="fill:#bcbcbc;"/></g><g><g><path d="M265.97,107.999l0,164.228c0,4.332 -3.517,7.848 -7.848,7.848l-82.404,0c-4.331,0 -7.848,-3.516 -7.848,-7.848l0,-164.228l98.1,0Z" style="fill:#f0f0f0;"/><clipPath id="_clip2"><path d="M265.97,107.999l0,164.228c0,4.332 -3.517,7.848 -7.848,7.848l-82.404,0c-4.331,0 -7.848,-3.516 -7.848,-7.848l0,-164.228l98.1,0Z"/></clipPath><g clip-path="url(#_clip2)"><path d="M257.612,107.321c0.258,-0.537 0.223,-1.168 -0.094,-1.673c-0.316,-0.504 -0.87,-0.81 -1.466,-0.81c-12.766,0 -66.046,0 -78.438,0c-0.558,0 -1.077,0.287 -1.373,0.759c-0.297,0.473 -0.33,1.065 -0.088,1.568c1.091,2.264 2.71,5.624 3.589,7.447c0.38,0.789 1.179,1.291 2.055,1.291c9.338,0 61.432,0 70.373,0c0.799,0 1.527,-0.458 1.873,-1.177c0.846,-1.754 2.456,-5.095 3.569,-7.405Z" style="fill:#d6d6d6;"/></g><path d="M163.5,97.545c-0.112,-0.595 0.046,-1.209 0.433,-1.675c0.387,-0.467 0.961,-0.736 1.566,-0.736c14.51,0 88.939,0 103.001,0c0.567,0 1.103,0.252 1.465,0.688c0.361,0.436 0.51,1.01 0.405,1.566c-0.619,3.285 -1.695,9 -1.695,9l0,0l0,0.001l-0.001,0.002l-0.002,0l-2.033,1.608l-99.437,0l-2.033,-1.608l-0.003,0c0,0 -1.043,-5.539 -1.666,-8.846Z" style="fill:#bcbcbc;"/></g><g><path d="M265.97,289.276l0,75.422c0,4.332 -3.516,7.848 -7.848,7.848l-82.404,0c-4.331,0 -7.848,-3.516 -7.848,-7.848l0,-75.422l98.1,0Z" style="fill:#f0f0f0;"/><clipPath id="_clip3"><path d="M265.97,289.276l0,75.422c0,4.332 -3.516,7.848 -7.848,7.848l-82.404,0c-4.331,0 -7.848,-3.516 -7.848,-7.848l0,-75.422l98.1,0Z"/></clipPath><g clip-path="url(#_clip3)"><path d="M257.612,287.807c0.258,-0.536 0.223,-1.168 -0.094,-1.672c-0.316,-0.505 -0.87,-0.811 -1.466,-0.811c-12.766,0 -66.046,0 -78.438,0c-0.558,0 -1.077,0.287 -1.373,0.76c-0.297,0.472 -0.33,1.064 -0.088,1.567c1.091,2.265 2.71,5.624 3.589,7.447c0.38,0.789 1.179,1.291 2.055,1.291c9.338,0 61.432,0 70.373,0c0.799,0 1.527,-0.457 1.873,-1.177c0.846,-1.754 2.456,-5.095 3.569,-7.405Z" style="fill:#d6d6d6;"/></g><path d="M163.5,278.821c-0.112,-0.595 0.046,-1.209 0.433,-1.675c0.387,-0.466 0.961,-0.736 1.566,-0.736c14.51,0 88.939,0 103.001,0c0.567,0 1.103,0.253 1.465,0.688c0.361,0.436 0.51,1.01 0.405,1.567c-0.619,3.285 -1.695,9 -1.695,9l0,0l0,0l-0.001,0.003l-0.002,0l-2.033,1.608l-99.437,0l-2.033,-1.608l-0.003,0c0,0 -1.043,-5.539 -1.666,-8.847Z" style="fill:#bcbcbc;"/><path d="M256.087,365.344c0.249,0.537 0.207,1.163 -0.111,1.661c-0.318,0.498 -0.869,0.799 -1.46,0.799c-12.369,0 -63.356,0 -75.363,0c-0.554,0 -1.069,-0.282 -1.367,-0.749c-0.299,-0.467 -0.338,-1.053 -0.105,-1.556c1.045,-2.252 2.598,-5.602 3.45,-7.438c0.373,-0.806 1.181,-1.322 2.069,-1.322c9.168,0 58.79,0 67.569,0c0.81,0 1.546,0.47 1.886,1.205c0.82,1.767 2.366,5.102 3.432,7.4Z" style="fill:#e2e2e2;"/></g><g><path d="M153.397,107.999l0,75.423c0,4.331 -3.517,7.847 -7.848,7.848l-82.404,0c-4.331,0 -7.848,-3.517 -7.848,-7.848l0,-75.423l98.1,0Z" style="fill:#f0f0f0;"/><clipPath id="_clip4"><path d="M153.397,107.999l0,75.423c0,4.331 -3.517,7.847 -7.848,7.848l-82.404,0c-4.331,0 -7.848,-3.517 -7.848,-7.848l0,-75.423l98.1,0Z"/></clipPath><g clip-path="url(#_clip4)"><path d="M145.039,106.531c0.258,-0.537 0.223,-1.169 -0.094,-1.673c-0.317,-0.504 -0.87,-0.811 -1.466,-0.811c-12.766,0 -66.047,0 -78.438,0c-0.558,0 -1.077,0.287 -1.374,0.76c-0.297,0.472 -0.33,1.064 -0.087,1.567c1.091,2.265 2.71,5.624 3.589,7.448c0.38,0.789 1.178,1.29 2.054,1.29c9.338,0 61.433,0 70.374,0c0.798,0 1.526,-0.457 1.873,-1.176c0.845,-1.754 2.456,-5.096 3.569,-7.405Z" style="fill:#d6d6d6;"/></g><path d="M50.927,97.545c-0.113,-0.595 0.046,-1.209 0.433,-1.675c0.386,-0.467 0.96,-0.736 1.566,-0.736c14.51,0 88.938,0 103.001,0c0.566,0 1.103,0.252 1.464,0.688c0.362,0.436 0.51,1.01 0.406,1.566c-0.619,3.285 -1.695,9 -1.695,9l0,0l0,0.001l-0.001,0.002l-0.002,0l-2.034,1.608l-99.436,0l-2.033,-1.608l-0.004,0c0,0 -1.043,-5.539 -1.665,-8.846Z" style="fill:#bcbcbc;"/></g><g><path d="M153.397,200.47l0,164.228c0,4.332 -3.517,7.848 -7.848,7.848l-82.404,0c-4.331,0 -7.848,-3.516 -7.848,-7.848l0,-164.228l98.1,0Z" style="fill:#f0f0f0;"/><clipPath id="_clip5"><path d="M153.397,200.47l0,164.228c0,4.332 -3.517,7.848 -7.848,7.848l-82.404,0c-4.331,0 -7.848,-3.516 -7.848,-7.848l0,-164.228l98.1,0Z"/></clipPath><g clip-path="url(#_clip5)"><path d="M145.039,199.682c0.258,-0.537 0.223,-1.168 -0.094,-1.673c-0.317,-0.504 -0.87,-0.81 -1.466,-0.81c-12.766,0 -66.047,0 -78.438,0c-0.558,0 -1.077,0.287 -1.374,0.759c-0.297,0.473 -0.33,1.065 -0.087,1.567c1.091,2.265 2.71,5.625 3.589,7.448c0.38,0.789 1.178,1.291 2.054,1.291c9.338,0 61.433,0 70.374,0c0.798,0 1.526,-0.458 1.873,-1.177c0.845,-1.754 2.456,-5.095 3.569,-7.405Z" style="fill:#d6d6d6;"/></g><path d="M50.927,190.016c-0.113,-0.595 0.046,-1.21 0.433,-1.676c0.386,-0.466 0.96,-0.735 1.566,-0.735c14.51,0 88.938,0 103.001,0c0.566,0 1.103,0.252 1.464,0.688c0.362,0.435 0.51,1.01 0.406,1.566c-0.619,3.285 -1.695,9 -1.695,9l0,0l0,0l-0.001,0.003l-0.002,0l-2.034,1.608l-99.436,0l-2.033,-1.608l-0.004,0c0,0 -1.043,-5.539 -1.665,-8.846Z" style="fill:#bcbcbc;"/><path d="M144.174,365.344c0.248,0.537 0.206,1.163 -0.112,1.661c-0.318,0.498 -0.868,0.799 -1.459,0.799c-12.369,0 -63.357,0 -75.364,0c-0.553,0 -1.069,-0.282 -1.367,-0.749c-0.298,-0.467 -0.337,-1.053 -0.104,-1.556c1.044,-2.252 2.598,-5.602 3.449,-7.438c0.374,-0.806 1.181,-1.322 2.069,-1.322c9.169,0 58.79,0 67.569,0c0.81,0 1.546,0.47 1.887,1.205c0.82,1.767 2.366,5.102 3.432,7.4Z" style="fill:#e2e2e2;"/></g></g><g><path d="M362.95,25.697c1.219,-2.718 28.604,-5.843 49.391,-5.681c17.459,0.137 45.884,2.441 48.317,5.681l0,147.698c-2.779,7.354 -21.811,9.96 -48.854,10.225c-37.7,-0.494 -46.234,-4.957 -48.854,-10.225l0,-147.698Z" style="fill:#f0f0f0;"/><path d="M460.658,47.012c-14.523,0.911 -29.914,1.4 -45.846,1.4c-18.151,0 -35.598,-0.635 -51.862,-1.804l0,-3.203c16.907,1.276 35.135,1.972 54.135,1.972c15.103,0 29.72,-0.44 43.573,-1.261l0,2.896Z" style="fill:#bcbcbc;"/><path d="M436.231,77.675c0,-6.741 -5.473,-12.213 -12.214,-12.213c-8.989,-0.126 -16.922,-0.355 -24.427,0c-6.74,0 -12.213,5.472 -12.213,12.213c-0.737,25.448 -0.571,50.013 0,74.028c0,6.741 5.473,12.214 12.213,12.214c8.198,0.719 16.334,0.627 24.427,0c6.741,0 12.214,-5.473 12.214,-12.214c0.314,-24.484 0.256,-49.138 0,-74.028Z" style="fill:#bcbcbc;"/><path d="M431.708,75.783c0,-3.295 -2.676,-5.971 -5.971,-5.971c-9.478,-0.467 -18.721,-0.304 -27.866,0c-3.295,0 -5.971,2.676 -5.971,5.971c-1.557,25.976 -1.116,51.903 0,77.813c0,3.295 2.676,5.971 5.971,5.971c9.283,1.047 18.574,1.279 27.866,0c3.295,0 5.971,-2.676 5.971,-5.971c0.838,-26.14 0.942,-52.103 0,-77.813Z" style="fill:#d6d6d6;"/></g><g><path d="M484.448,25.697c1.219,-2.718 28.604,-5.843 49.391,-5.681c17.459,0.137 45.884,2.441 48.317,5.681l0,147.698c-2.779,7.354 -21.811,9.96 -48.854,10.225c-37.7,-0.494 -46.234,-4.957 -48.854,-10.225l0,-147.698Z" style="fill:#f0f0f0;"/><path d="M582.156,47.012c-14.523,0.911 -29.913,1.4 -45.846,1.4c-18.151,0 -35.598,-0.635 -51.862,-1.804l0,-3.203c16.907,1.276 35.135,1.972 54.135,1.972c15.103,0 29.72,-0.44 43.573,-1.261l0,2.896Z" style="fill:#bcbcbc;"/><path d="M557.729,77.675c0,-6.741 -5.473,-12.213 -12.214,-12.213c-8.989,-0.126 -16.922,-0.355 -24.426,0c-6.741,0 -12.214,5.472 -12.214,12.213c-0.737,25.448 -0.571,50.013 0,74.028c0,6.741 5.473,12.214 12.214,12.214c8.197,0.719 16.333,0.627 24.426,0c6.741,0 12.214,-5.473 12.214,-12.214c0.314,-24.484 0.256,-49.138 0,-74.028Z" style="fill:#bcbcbc;"/><path d="M553.206,75.783c0,-3.295 -2.676,-5.971 -5.971,-5.971c-9.478,-0.467 -18.721,-0.304 -27.866,0c-3.295,0 -5.971,2.676 -5.971,5.971c-1.557,25.976 -1.116,51.903 0,77.813c0,3.295 2.676,5.971 5.971,5.971c9.283,1.047 18.574,1.279 27.866,0c3.295,0 5.971,-2.676 5.971,-5.971c0.838,-26.14 0.942,-52.103 0,-77.813Z" style="fill:#d6d6d6;"/></g><g><path d="M602.692,25.697c1.219,-2.718 28.604,-5.843 49.39,-5.681c17.46,0.137 45.884,2.441 48.317,5.681l0,147.698c-2.778,7.354 -21.81,9.96 -48.853,10.225c-37.7,-0.494 -46.234,-4.957 -48.854,-10.225l0,-147.698Z" style="fill:#f0f0f0;"/><path d="M700.399,47.012c-14.523,0.911 -29.913,1.4 -45.845,1.4c-18.151,0 -35.599,-0.635 -51.862,-1.804l0,-3.203c16.906,1.276 35.135,1.972 54.134,1.972c15.104,0 29.721,-0.44 43.573,-1.261l0,2.896Z" style="fill:#bcbcbc;"/><path d="M675.972,77.675c0,-6.741 -5.472,-12.213 -12.213,-12.213c-8.989,-0.126 -16.922,-0.355 -24.427,0c-6.741,0 -12.213,5.472 -12.213,12.213c-0.737,25.448 -0.572,50.013 0,74.028c0,6.741 5.472,12.214 12.213,12.214c8.198,0.719 16.333,0.627 24.427,0c6.741,0 12.213,-5.473 12.213,-12.214c0.315,-24.484 0.257,-49.138 0,-74.028Z" style="fill:#bcbcbc;"/><path d="M671.45,75.783c0,-3.295 -2.676,-5.971 -5.972,-5.971c-9.477,-0.467 -18.721,-0.304 -27.865,0c-3.296,0 -5.971,2.676 -5.971,5.971c-1.557,25.976 -1.116,51.903 0,77.813c0,3.295 2.675,5.971 5.971,5.971c9.282,1.047 18.573,1.279 27.865,0c3.296,0 5.972,-2.676 5.972,-5.971c0.838,-26.14 0.942,-52.103 0,-77.813Z" style="fill:#d6d6d6;"/></g></svg>