<?xml version="1.0" encoding="UTF-8" standalone="no"?><!DOCTYPE svg PUBLIC "-//W3C//DTD SVG 1.1//EN" "http://www.w3.org/Graphics/SVG/1.1/DTD/svg11.dtd"><svg width="100%" height="100%" viewBox="0 0 650 400" version="1.1" xmlns="http://www.w3.org/2000/svg" xmlns:xlink="http://www.w3.org/1999/xlink" xml:space="preserve" xmlns:serif="http://www.serif.com/" style="fill-rule:evenodd;clip-rule:evenodd;stroke-linejoin:round;stroke-miterlimit:1.41421;"><path d="M517.302,469.52c-18.215,31.61 -34.727,41.546 -38.864,39.237c-2.881,-1.608 -6.364,-17.275 13.434,-53.92c5.164,-9.56 23.188,-36.733 29.054,-44.92c15.619,-21.801 31.184,-46.741 41.412,-68.644c4.973,-10.649 6.258,-20.154 23.249,-58.103c23.247,-47.826 52.611,-86.017 77.072,-95.524c5.32,-2.068 13.661,0.671 11.027,7.24c0,0 -83.041,140.526 -93.98,156.414c-8.87,12.884 -25.335,39.433 -38.56,70.291c-9.001,20.314 -14.923,32.447 -23.844,47.929Z" style="fill:#b7b7b7;"/><clipPath id="_clip1"><path d="M517.302,469.52c-18.215,31.61 -34.727,41.546 -38.864,39.237c-2.881,-1.608 -6.364,-17.275 13.434,-53.92c5.164,-9.56 23.188,-36.733 29.054,-44.92c15.619,-21.801 31.184,-46.741 41.412,-68.644c4.973,-10.649 6.258,-20.154 23.249,-58.103c23.247,-47.826 52.611,-86.017 77.072,-95.524c5.32,-2.068 13.661,0.671 11.027,7.24c0,0 -83.041,140.526 -93.98,156.414c-8.87,12.884 -25.335,39.433 -38.56,70.291c-9.001,20.314 -14.923,32.447 -23.844,47.929Z"/></clipPath><g clip-path="url(#_clip1)"><path d="M571.366,316.723c-5.891,17.769 -14.398,38.573 -7.343,42.167c5.599,3.727 16.646,-8.45 23.06,-18.559l95.721,-148.642l-10.554,-11.058l-24.151,3.186l-49.482,65.266l-29.279,59.802l2.028,7.838Z" style="fill:#d6d6d6;"/></g><path d="M50.115,413.27c-18.215,31.61 -34.728,41.546 -38.865,39.237c-2.88,-1.608 -6.363,-17.275 13.434,-53.92c5.165,-9.56 23.189,-36.733 29.054,-44.92c15.619,-21.801 31.184,-46.741 41.413,-68.644c4.972,-10.649 6.258,-20.154 23.249,-58.103c23.246,-47.826 52.611,-86.017 77.072,-95.524c5.32,-2.068 13.66,0.671 11.026,7.24c0,0 -83.041,140.526 -93.979,156.414c-8.87,12.884 -25.335,39.433 -38.56,70.291c-9.002,20.314 -14.923,32.447 -23.844,47.929Z" style="fill:#b7b7b7;"/><clipPath id="_clip2"><path d="M50.115,413.27c-18.215,31.61 -34.728,41.546 -38.865,39.237c-2.88,-1.608 -6.363,-17.275 13.434,-53.92c5.165,-9.56 23.189,-36.733 29.054,-44.92c15.619,-21.801 31.184,-46.741 41.413,-68.644c4.972,-10.649 6.258,-20.154 23.249,-58.103c23.246,-47.826 52.611,-86.017 77.072,-95.524c5.32,-2.068 13.66,0.671 11.026,7.24c0,0 -83.041,140.526 -93.979,156.414c-8.87,12.884 -25.335,39.433 -38.56,70.291c-9.002,20.314 -14.923,32.447 -23.844,47.929Z"/></clipPath><g clip-path="url(#_clip2)"><path d="M104.179,260.473c-5.892,17.769 -14.398,38.573 -7.344,42.167c5.599,3.727 16.646,-8.45 23.061,-18.559l95.72,-148.642l-10.553,-11.058l-24.151,3.186l-49.483,65.266l-29.279,59.802l2.029,7.838Z" style="fill:#d6d6d6;"/></g><path d="M428.557,50.672c18.215,-31.611 34.728,-41.547 38.865,-39.238c2.88,1.608 6.363,17.276 -13.434,53.92c-5.165,9.56 -23.189,36.733 -29.054,44.92c-15.619,21.802 -31.184,46.741 -41.413,68.644c-4.972,10.649 -6.258,20.154 -23.249,58.103c-23.246,47.826 -52.611,86.017 -77.072,95.524c-5.32,2.068 -13.66,-0.67 -11.026,-7.24c0,0 83.041,-140.525 93.98,-156.414c8.87,-12.884 25.334,-39.432 38.559,-70.291c9.002,-20.314 14.923,-32.447 23.844,-47.928Z" style="fill:#b7b7b7;"/><clipPath id="_clip3"><path d="M428.557,50.672c18.215,-31.611 34.728,-41.547 38.865,-39.238c2.88,1.608 6.363,17.276 -13.434,53.92c-5.165,9.56 -23.189,36.733 -29.054,44.92c-15.619,21.802 -31.184,46.741 -41.413,68.644c-4.972,10.649 -6.258,20.154 -23.249,58.103c-23.246,47.826 -52.611,86.017 -77.072,95.524c-5.32,2.068 -13.66,-0.67 -11.026,-7.24c0,0 83.041,-140.525 93.98,-156.414c8.87,-12.884 25.334,-39.432 38.559,-70.291c9.002,-20.314 14.923,-32.447 23.844,-47.928Z"/></clipPath><g clip-path="url(#_clip3)"><path d="M374.493,203.469c5.892,-17.77 14.398,-38.574 7.344,-42.167c-5.599,-3.728 -16.646,8.449 -23.061,18.558l-95.72,148.642l10.553,11.058l24.151,-3.185l49.483,-65.266l29.279,-59.803l-2.029,-7.837Z" style="fill:#d6d6d6;"/></g><path d="M356.855,99.498c5.13,2.962 5.421,25.143 -15.265,56.804c-14.631,22.394 -60.524,84.677 -60.524,84.677c-16.753,24.24 -36.294,60.136 -36.858,66.999c-0.321,3.914 0.334,13.72 -0.699,22.389c-1.422,11.927 -11.31,27.819 -22.458,44.619c-8.766,13.21 -27.933,39.225 -29.791,41.696c-1.859,2.471 -4.052,3.498 -1.775,-1.024c2.277,-4.522 34.173,-60.704 36.648,-65.279c2.474,-4.575 -2.338,-5.512 -4.26,-2.459c-1.923,3.052 -37.371,61.373 -39.651,64.578c-1.697,2.384 -2.204,0.857 -1.352,-0.735c0.853,-1.593 34.5,-64.378 35.894,-66.793c1.395,-2.414 -2.064,-6.244 -4.352,-2.513c-2.288,3.732 -38.595,64.047 -39.159,64.908c-0.564,0.862 -2.564,1.668 -1.401,-0.809c1.164,-2.477 33.923,-64.647 34.894,-67.37c0.972,-2.722 -2.366,-6.183 -4.286,-3.089c-1.92,3.094 -37.705,65.572 -38.578,66.819c-0.873,1.246 -1.944,0.883 -1.396,-0.806c0.297,-0.915 10.335,-24.781 21.842,-47.817c9.743,-19.505 18.187,-34.621 28.232,-41.794c8.249,-5.891 14.314,-8.95 18.931,-13.018c4.101,-3.613 21.759,-26.821 39.362,-64.399c17.604,-37.578 34.369,-75.096 44.243,-94.077c17.977,-34.559 36.629,-44.469 41.759,-41.507Z" style="fill:#c3c3c3;"/><clipPath id="_clip4"><path d="M356.855,99.498c5.13,2.962 5.421,25.143 -15.265,56.804c-14.631,22.394 -60.524,84.677 -60.524,84.677c-16.753,24.24 -36.294,60.136 -36.858,66.999c-0.321,3.914 0.334,13.72 -0.699,22.389c-1.422,11.927 -11.31,27.819 -22.458,44.619c-8.766,13.21 -27.933,39.225 -29.791,41.696c-1.859,2.471 -4.052,3.498 -1.775,-1.024c2.277,-4.522 34.173,-60.704 36.648,-65.279c2.474,-4.575 -2.338,-5.512 -4.26,-2.459c-1.923,3.052 -37.371,61.373 -39.651,64.578c-1.697,2.384 -2.204,0.857 -1.352,-0.735c0.853,-1.593 34.5,-64.378 35.894,-66.793c1.395,-2.414 -2.064,-6.244 -4.352,-2.513c-2.288,3.732 -38.595,64.047 -39.159,64.908c-0.564,0.862 -2.564,1.668 -1.401,-0.809c1.164,-2.477 33.923,-64.647 34.894,-67.37c0.972,-2.722 -2.366,-6.183 -4.286,-3.089c-1.92,3.094 -37.705,65.572 -38.578,66.819c-0.873,1.246 -1.944,0.883 -1.396,-0.806c0.297,-0.915 10.335,-24.781 21.842,-47.817c9.743,-19.505 18.187,-34.621 28.232,-41.794c8.249,-5.891 14.314,-8.95 18.931,-13.018c4.101,-3.613 21.759,-26.821 39.362,-64.399c17.604,-37.578 34.369,-75.096 44.243,-94.077c17.977,-34.559 36.629,-44.469 41.759,-41.507Z"/></clipPath><g clip-path="url(#_clip4)"><path d="M245.084,331.694c0.373,-10.585 -0.21,-20.417 -4.873,-27.032c-1.003,-1.378 -2.538,-2.273 -4.232,-2.466c-7.244,-0.793 -14.167,2.377 -23.051,8.603l-20.266,5.431l-48.653,84.269l56.495,32.617l48.653,-84.269l-4.073,-17.153Z" style="fill:#d6d6d6;"/></g><path d="M280.299,469.432c-5.13,-2.962 -5.421,-25.143 15.265,-56.804c14.632,-22.394 60.524,-84.676 60.524,-84.676c16.753,-24.24 36.295,-60.136 36.858,-66.999c0.322,-3.915 -0.334,-13.721 0.7,-22.39c1.421,-11.926 11.31,-27.819 22.458,-44.619c8.765,-13.21 27.933,-39.225 29.791,-41.696c1.858,-2.471 4.051,-3.497 1.774,1.025c-2.277,4.522 -34.173,60.704 -36.647,65.278c-2.475,4.575 2.337,5.512 4.26,2.46c1.922,-3.053 37.37,-61.374 39.651,-64.578c1.696,-2.385 2.204,-0.858 1.351,0.735c-0.852,1.592 -34.5,64.377 -35.894,66.792c-1.394,2.415 2.065,6.244 4.352,2.513c2.288,-3.731 38.595,-64.046 39.159,-64.908c0.564,-0.861 2.564,-1.668 1.401,0.809c-1.163,2.477 -33.922,64.648 -34.894,67.37c-0.971,2.722 2.367,6.184 4.286,3.09c1.92,-3.094 37.705,-65.573 38.578,-66.819c0.873,-1.247 1.945,-0.884 1.396,0.806c-0.297,0.915 -10.335,24.78 -21.842,47.816c-9.742,19.505 -18.187,34.621 -28.232,41.795c-8.249,5.891 -14.313,8.95 -18.931,13.018c-4.101,3.612 -21.758,26.82 -39.362,64.398c-17.603,37.578 -34.369,75.096 -44.243,94.077c-17.977,34.559 -36.629,44.469 -41.759,41.507Z" style="fill:#c3c3c3;"/><clipPath id="_clip5"><path d="M280.299,469.432c-5.13,-2.962 -5.421,-25.143 15.265,-56.804c14.632,-22.394 60.524,-84.676 60.524,-84.676c16.753,-24.24 36.295,-60.136 36.858,-66.999c0.322,-3.915 -0.334,-13.721 0.7,-22.39c1.421,-11.926 11.31,-27.819 22.458,-44.619c8.765,-13.21 27.933,-39.225 29.791,-41.696c1.858,-2.471 4.051,-3.497 1.774,1.025c-2.277,4.522 -34.173,60.704 -36.647,65.278c-2.475,4.575 2.337,5.512 4.26,2.46c1.922,-3.053 37.37,-61.374 39.651,-64.578c1.696,-2.385 2.204,-0.858 1.351,0.735c-0.852,1.592 -34.5,64.377 -35.894,66.792c-1.394,2.415 2.065,6.244 4.352,2.513c2.288,-3.731 38.595,-64.046 39.159,-64.908c0.564,-0.861 2.564,-1.668 1.401,0.809c-1.163,2.477 -33.922,64.648 -34.894,67.37c-0.971,2.722 2.367,6.184 4.286,3.09c1.92,-3.094 37.705,-65.573 38.578,-66.819c0.873,-1.247 1.945,-0.884 1.396,0.806c-0.297,0.915 -10.335,24.78 -21.842,47.816c-9.742,19.505 -18.187,34.621 -28.232,41.795c-8.249,5.891 -14.313,8.95 -18.931,13.018c-4.101,3.612 -21.758,26.82 -39.362,64.398c-17.603,37.578 -34.369,75.096 -44.243,94.077c-17.977,34.559 -36.629,44.469 -41.759,41.507Z"/></clipPath><g clip-path="url(#_clip5)"><path d="M392.07,237.237c-0.372,10.584 0.21,20.416 4.873,27.031c1.003,1.379 2.539,2.274 4.233,2.467c7.244,0.793 14.166,-2.377 23.05,-8.604l20.267,-5.43l48.653,-84.269l-56.496,-32.618l-48.653,84.269l4.073,17.154Z" style="fill:#d6d6d6;"/></g><path d="M11.549,330.37c-5.13,-2.962 -5.421,-25.143 15.265,-56.804c14.632,-22.394 60.524,-84.677 60.524,-84.677c16.753,-24.24 36.295,-60.136 36.858,-66.999c0.322,-3.914 -0.334,-13.72 0.7,-22.389c1.421,-11.927 11.31,-27.819 22.458,-44.619c8.765,-13.21 27.933,-39.225 29.791,-41.696c1.858,-2.471 4.052,-3.498 1.774,1.024c-2.277,4.522 -34.173,60.704 -36.647,65.279c-2.475,4.575 2.337,5.512 4.26,2.459c1.922,-3.052 37.37,-61.373 39.651,-64.578c1.696,-2.384 2.204,-0.857 1.351,0.735c-0.852,1.592 -34.5,64.378 -35.894,66.792c-1.394,2.415 2.065,6.245 4.352,2.513c2.288,-3.731 38.595,-64.046 39.159,-64.907c0.564,-0.862 2.564,-1.668 1.401,0.809c-1.163,2.477 -33.922,64.647 -34.894,67.37c-0.971,2.722 2.367,6.183 4.287,3.089c1.919,-3.094 37.704,-65.572 38.577,-66.819c0.873,-1.246 1.945,-0.884 1.396,0.806c-0.297,0.915 -10.335,24.781 -21.842,47.817c-9.742,19.505 -18.187,34.621 -28.232,41.794c-8.249,5.891 -14.313,8.95 -18.931,13.018c-4.101,3.613 -21.758,26.821 -39.362,64.399c-17.603,37.578 -34.369,75.095 -44.242,94.077c-17.978,34.559 -36.63,44.468 -41.76,41.507Z" style="fill:#c3c3c3;"/><clipPath id="_clip6"><path d="M11.549,330.37c-5.13,-2.962 -5.421,-25.143 15.265,-56.804c14.632,-22.394 60.524,-84.677 60.524,-84.677c16.753,-24.24 36.295,-60.136 36.858,-66.999c0.322,-3.914 -0.334,-13.72 0.7,-22.389c1.421,-11.927 11.31,-27.819 22.458,-44.619c8.765,-13.21 27.933,-39.225 29.791,-41.696c1.858,-2.471 4.052,-3.498 1.774,1.024c-2.277,4.522 -34.173,60.704 -36.647,65.279c-2.475,4.575 2.337,5.512 4.26,2.459c1.922,-3.052 37.37,-61.373 39.651,-64.578c1.696,-2.384 2.204,-0.857 1.351,0.735c-0.852,1.592 -34.5,64.378 -35.894,66.792c-1.394,2.415 2.065,6.245 4.352,2.513c2.288,-3.731 38.595,-64.046 39.159,-64.907c0.564,-0.862 2.564,-1.668 1.401,0.809c-1.163,2.477 -33.922,64.647 -34.894,67.37c-0.971,2.722 2.367,6.183 4.287,3.089c1.919,-3.094 37.704,-65.572 38.577,-66.819c0.873,-1.246 1.945,-0.884 1.396,0.806c-0.297,0.915 -10.335,24.781 -21.842,47.817c-9.742,19.505 -18.187,34.621 -28.232,41.794c-8.249,5.891 -14.313,8.95 -18.931,13.018c-4.101,3.613 -21.758,26.821 -39.362,64.399c-17.603,37.578 -34.369,75.095 -44.242,94.077c-17.978,34.559 -36.63,44.468 -41.76,41.507Z"/></clipPath><g clip-path="url(#_clip6)"><path d="M123.32,98.174c-0.372,10.585 0.21,20.416 4.873,27.031c1.003,1.379 2.539,2.274 4.233,2.467c7.244,0.793 14.166,-2.377 23.05,-8.603l20.267,-5.431l48.653,-84.269l-56.496,-32.617l-48.653,84.269l4.073,17.153Z" style="fill:#d6d6d6;"/></g><path d="M61.239,485.242c-3.809,-2.199 -3.633,-19.348 12.502,-44.2c11.413,-17.578 47.069,-66.56 47.069,-66.56c13.043,-19.044 24.892,-41.09 25.439,-46.407c0.311,-3.033 -0.606,-15.569 0.326,-22.291c1.283,-9.249 12.242,-23.313 20.933,-36.503c6.833,-10.372 22.591,-30.332 24.034,-32.276c1.443,-1.943 3.112,-2.776 1.318,0.761c-1.795,3.538 -26.806,47.553 -28.75,51.135c-1.944,3.582 1.662,4.221 3.163,1.826c1.502,-2.395 29.225,-48.127 30.998,-50.646c1.32,-1.874 1.675,-0.702 1.005,0.544c-0.671,1.247 -27.117,50.4 -28.21,52.292c-1.092,1.892 1.444,4.792 3.232,1.866c1.789,-2.927 30.193,-50.216 30.633,-50.893c0.44,-0.676 1.96,-1.335 1.04,0.601c-0.919,1.936 -26.686,50.598 -27.466,52.721c-0.78,2.122 1.672,4.739 3.172,2.313c1.5,-2.427 29.551,-51.381 30.23,-52.36c0.679,-0.98 1.479,-0.719 1.036,0.598c-0.24,0.713 -7.355,19.848 -16.427,37.867c-7.681,15.257 -14.075,30.695 -21.764,36.422c-6.315,4.702 -15.533,9.14 -19.081,12.368c-3.152,2.867 -13.357,15.066 -27.277,44.44c-13.921,29.374 -27.209,58.686 -34.98,73.54c-14.148,27.046 -28.365,35.041 -32.175,32.842Z" style="fill:#c3c3c3;"/><clipPath id="_clip7"><path d="M61.239,485.242c-3.809,-2.199 -3.633,-19.348 12.502,-44.2c11.413,-17.578 47.069,-66.56 47.069,-66.56c13.043,-19.044 24.892,-41.09 25.439,-46.407c0.311,-3.033 -0.606,-15.569 0.326,-22.291c1.283,-9.249 12.242,-23.313 20.933,-36.503c6.833,-10.372 22.591,-30.332 24.034,-32.276c1.443,-1.943 3.112,-2.776 1.318,0.761c-1.795,3.538 -26.806,47.553 -28.75,51.135c-1.944,3.582 1.662,4.221 3.163,1.826c1.502,-2.395 29.225,-48.127 30.998,-50.646c1.32,-1.874 1.675,-0.702 1.005,0.544c-0.671,1.247 -27.117,50.4 -28.21,52.292c-1.092,1.892 1.444,4.792 3.232,1.866c1.789,-2.927 30.193,-50.216 30.633,-50.893c0.44,-0.676 1.96,-1.335 1.04,0.601c-0.919,1.936 -26.686,50.598 -27.466,52.721c-0.78,2.122 1.672,4.739 3.172,2.313c1.5,-2.427 29.551,-51.381 30.23,-52.36c0.679,-0.98 1.479,-0.719 1.036,0.598c-0.24,0.713 -7.355,19.848 -16.427,37.867c-7.681,15.257 -14.075,30.695 -21.764,36.422c-6.315,4.702 -15.533,9.14 -19.081,12.368c-3.152,2.867 -13.357,15.066 -27.277,44.44c-13.921,29.374 -27.209,58.686 -34.98,73.54c-14.148,27.046 -28.365,35.041 -32.175,32.842Z"/></clipPath><g clip-path="url(#_clip7)"><path d="M145.675,310.332c-0.43,7.518 -0.244,14.531 2.412,19.524c1.083,1.996 3.189,3.221 5.459,3.175c4.91,-0.074 9.81,-2.61 15.964,-7.112l15.353,-4.56l40.125,-69.499l-41.949,-24.219l-40.125,69.498l2.761,13.193Z" style="fill:#d6d6d6;"/></g><path d="M665.689,57.217c3.809,2.199 3.634,19.347 -12.502,44.2c-11.413,17.578 -47.069,66.56 -47.069,66.56c-13.042,19.044 -24.892,41.09 -25.438,46.407c-0.312,3.033 0.605,15.569 -0.327,22.291c-1.282,9.249 -12.241,23.313 -20.932,36.503c-6.834,10.372 -22.592,30.332 -24.034,32.275c-1.443,1.944 -3.113,2.777 -1.318,-0.76c1.795,-3.538 26.805,-47.553 28.749,-51.135c1.944,-3.582 -1.661,-4.221 -3.163,-1.826c-1.501,2.395 -29.224,48.127 -30.998,50.646c-1.319,1.874 -1.674,0.702 -1.004,-0.544c0.67,-1.247 27.117,-50.4 28.209,-52.292c1.093,-1.892 -1.443,-4.792 -3.232,-1.866c-1.788,2.926 -30.193,50.216 -30.633,50.893c-0.44,0.676 -1.96,1.335 -1.04,-0.601c0.92,-1.936 26.687,-50.598 27.467,-52.721c0.779,-2.122 -1.672,-4.74 -3.172,-2.313c-1.5,2.427 -29.551,51.381 -30.23,52.36c-0.68,0.98 -1.48,0.718 -1.037,-0.598c0.24,-0.713 7.355,-19.848 16.427,-37.867c7.682,-15.257 14.076,-30.695 21.765,-36.422c6.315,-4.702 15.532,-9.14 19.081,-12.368c3.151,-2.867 13.357,-15.066 27.277,-44.44c13.92,-29.374 27.209,-58.686 34.98,-73.54c14.147,-27.046 28.365,-35.041 32.174,-32.842Z" style="fill:#c3c3c3;"/><clipPath id="_clip8"><path d="M665.689,57.217c3.809,2.199 3.634,19.347 -12.502,44.2c-11.413,17.578 -47.069,66.56 -47.069,66.56c-13.042,19.044 -24.892,41.09 -25.438,46.407c-0.312,3.033 0.605,15.569 -0.327,22.291c-1.282,9.249 -12.241,23.313 -20.932,36.503c-6.834,10.372 -22.592,30.332 -24.034,32.275c-1.443,1.944 -3.113,2.777 -1.318,-0.76c1.795,-3.538 26.805,-47.553 28.749,-51.135c1.944,-3.582 -1.661,-4.221 -3.163,-1.826c-1.501,2.395 -29.224,48.127 -30.998,50.646c-1.319,1.874 -1.674,0.702 -1.004,-0.544c0.67,-1.247 27.117,-50.4 28.209,-52.292c1.093,-1.892 -1.443,-4.792 -3.232,-1.866c-1.788,2.926 -30.193,50.216 -30.633,50.893c-0.44,0.676 -1.96,1.335 -1.04,-0.601c0.92,-1.936 26.687,-50.598 27.467,-52.721c0.779,-2.122 -1.672,-4.74 -3.172,-2.313c-1.5,2.427 -29.551,51.381 -30.23,52.36c-0.68,0.98 -1.48,0.718 -1.037,-0.598c0.24,-0.713 7.355,-19.848 16.427,-37.867c7.682,-15.257 14.076,-30.695 21.765,-36.422c6.315,-4.702 15.532,-9.14 19.081,-12.368c3.151,-2.867 13.357,-15.066 27.277,-44.44c13.92,-29.374 27.209,-58.686 34.98,-73.54c14.147,-27.046 28.365,-35.041 32.174,-32.842Z"/></clipPath><g clip-path="url(#_clip8)"><path d="M581.254,232.127c0.43,-7.518 0.243,-14.531 -2.412,-19.524c-1.083,-1.996 -3.189,-3.221 -5.46,-3.175c-4.909,0.074 -9.809,2.61 -15.964,7.112l-15.353,4.56l-40.125,69.499l41.95,24.219l40.124,-69.498l-2.76,-13.193Z" style="fill:#d6d6d6;"/></g><path d="M340.41,33.855c-7.523,11.115 -17.479,27.75 -27.417,48.965c-17.603,37.577 -34.369,75.095 -44.243,94.076c-17.977,34.559 -36.629,44.469 -41.759,41.507c-5.13,-2.961 -5.421,-25.143 15.265,-56.803c14.631,-22.394 60.524,-84.677 60.524,-84.677c10.222,-14.79 21.482,-33.919 28.835,-48.146c5.33,-11.148 5.598,-20.864 1.914,-29.463c-4.508,-13.208 -4.082,-25.345 0.011,-36.686c7.654,-16.676 17.675,-30.398 30.177,-41.024c17.747,-14.754 33.369,-21.569 45.567,-15.588c6.372,3.004 10.585,10.88 11.676,25.8c0.231,12.919 -1.987,26.406 -8.109,40.802c-6.47,15.058 -14.42,27.352 -24.526,35.621c-7.128,5.317 -15.258,8.484 -24.21,9.886c-10.26,0.681 -17.872,6.485 -23.705,15.73Z" style="fill:#c3c3c3;"/><clipPath id="_clip9"><path d="M340.41,33.855c-7.523,11.115 -17.479,27.75 -27.417,48.965c-17.603,37.577 -34.369,75.095 -44.243,94.076c-17.977,34.559 -36.629,44.469 -41.759,41.507c-5.13,-2.961 -5.421,-25.143 15.265,-56.803c14.631,-22.394 60.524,-84.677 60.524,-84.677c10.222,-14.79 21.482,-33.919 28.835,-48.146c5.33,-11.148 5.598,-20.864 1.914,-29.463c-4.508,-13.208 -4.082,-25.345 0.011,-36.686c7.654,-16.676 17.675,-30.398 30.177,-41.024c17.747,-14.754 33.369,-21.569 45.567,-15.588c6.372,3.004 10.585,10.88 11.676,25.8c0.231,12.919 -1.987,26.406 -8.109,40.802c-6.47,15.058 -14.42,27.352 -24.526,35.621c-7.128,5.317 -15.258,8.484 -24.21,9.886c-10.26,0.681 -17.872,6.485 -23.705,15.73Z"/></clipPath><g clip-path="url(#_clip9)"><path d="M419.261,-111.791c21.272,12.28 22.19,50.572 2.05,85.455c-20.14,34.884 -53.761,53.234 -75.032,40.953c-21.271,-12.281 -22.19,-50.572 -2.05,-85.456c20.14,-34.883 53.761,-53.233 75.032,-40.952Z" style="fill:#d6d6d6;"/></g><path d="M563.255,108.305c-7.523,11.115 -17.479,27.75 -27.417,48.965c-17.604,37.578 -34.369,75.095 -44.243,94.077c-17.977,34.559 -36.629,44.469 -41.759,41.507c-5.13,-2.962 -5.421,-25.143 15.265,-56.804c14.631,-22.394 60.524,-84.677 60.524,-84.677c10.222,-14.79 21.482,-33.919 28.835,-48.145c5.329,-11.148 5.598,-20.865 1.914,-29.463c-4.508,-13.208 -4.082,-25.346 0.011,-36.687c7.654,-16.675 17.675,-30.397 30.177,-41.024c17.746,-14.754 33.368,-21.568 45.567,-15.588c6.372,3.004 10.584,10.881 11.676,25.8c0.231,12.919 -1.987,26.407 -8.11,40.802c-6.469,15.058 -14.419,27.353 -24.525,35.621c-7.128,5.317 -15.258,8.485 -24.211,9.886c-10.259,0.681 -17.871,6.485 -23.704,15.73Z" style="fill:#c3c3c3;"/><clipPath id="_clip10"><path d="M563.255,108.305c-7.523,11.115 -17.479,27.75 -27.417,48.965c-17.604,37.578 -34.369,75.095 -44.243,94.077c-17.977,34.559 -36.629,44.469 -41.759,41.507c-5.13,-2.962 -5.421,-25.143 15.265,-56.804c14.631,-22.394 60.524,-84.677 60.524,-84.677c10.222,-14.79 21.482,-33.919 28.835,-48.145c5.329,-11.148 5.598,-20.865 1.914,-29.463c-4.508,-13.208 -4.082,-25.346 0.011,-36.687c7.654,-16.675 17.675,-30.397 30.177,-41.024c17.746,-14.754 33.368,-21.568 45.567,-15.588c6.372,3.004 10.584,10.881 11.676,25.8c0.231,12.919 -1.987,26.407 -8.11,40.802c-6.469,15.058 -14.419,27.353 -24.525,35.621c-7.128,5.317 -15.258,8.485 -24.211,9.886c-10.259,0.681 -17.871,6.485 -23.704,15.73Z"/></clipPath><g clip-path="url(#_clip10)"><path d="M642.106,-37.341c21.271,12.281 22.19,50.572 2.05,85.456c-20.14,34.883 -53.761,53.233 -75.032,40.953c-21.271,-12.281 -22.19,-50.573 -2.05,-85.456c20.14,-34.884 53.761,-53.234 75.032,-40.953Z" style="fill:#d6d6d6;"/></g><path d="M419.252,437.131c-7.523,11.114 -17.479,27.749 -27.417,48.964c-17.604,37.578 -34.369,75.096 -44.243,94.077c-17.977,34.559 -36.629,44.469 -41.759,41.507c-5.13,-2.962 -5.421,-25.143 15.265,-56.804c14.631,-22.394 60.524,-84.676 60.524,-84.676c10.222,-14.79 21.482,-33.92 28.835,-48.146c5.33,-11.148 5.598,-20.864 1.914,-29.463c-4.508,-13.208 -4.082,-25.345 0.011,-36.687c7.654,-16.675 17.675,-30.397 30.177,-41.024c17.747,-14.753 33.369,-21.568 45.567,-15.587c6.372,3.004 10.584,10.88 11.676,25.8c0.231,12.918 -1.987,26.406 -8.109,40.801c-6.47,15.059 -14.42,27.353 -24.526,35.621c-7.128,5.318 -15.258,8.485 -24.21,9.886c-10.26,0.682 -17.872,6.486 -23.705,15.731Z" style="fill:#c3c3c3;"/><clipPath id="_clip11"><path d="M419.252,437.131c-7.523,11.114 -17.479,27.749 -27.417,48.964c-17.604,37.578 -34.369,75.096 -44.243,94.077c-17.977,34.559 -36.629,44.469 -41.759,41.507c-5.13,-2.962 -5.421,-25.143 15.265,-56.804c14.631,-22.394 60.524,-84.676 60.524,-84.676c10.222,-14.79 21.482,-33.92 28.835,-48.146c5.33,-11.148 5.598,-20.864 1.914,-29.463c-4.508,-13.208 -4.082,-25.345 0.011,-36.687c7.654,-16.675 17.675,-30.397 30.177,-41.024c17.747,-14.753 33.369,-21.568 45.567,-15.587c6.372,3.004 10.584,10.88 11.676,25.8c0.231,12.918 -1.987,26.406 -8.109,40.801c-6.47,15.059 -14.42,27.353 -24.526,35.621c-7.128,5.318 -15.258,8.485 -24.21,9.886c-10.26,0.682 -17.872,6.486 -23.705,15.731Z"/></clipPath><g clip-path="url(#_clip11)"><path d="M498.103,291.484c21.272,12.281 22.19,50.573 2.05,85.456c-20.14,34.884 -53.761,53.234 -75.032,40.953c-21.271,-12.281 -22.19,-50.573 -2.05,-85.456c20.14,-34.883 53.761,-53.234 75.032,-40.953Z" style="fill:#d6d6d6;"/></g><path d="M270.758,19.162c5.238,-7.739 12.17,-19.321 19.09,-34.093c12.257,-26.165 23.93,-52.287 30.805,-65.504c12.517,-24.062 25.504,-30.962 29.076,-28.9c3.572,2.062 3.775,17.507 -10.629,39.551c-10.187,15.593 -42.141,58.959 -42.141,58.959c-7.117,10.298 -14.957,23.617 -20.078,33.522c-3.71,7.762 -3.897,14.528 -1.332,20.515c3.139,9.196 2.843,17.647 -0.007,25.544c-5.33,11.611 -12.307,21.165 -21.012,28.564c-12.357,10.273 -23.234,15.017 -31.728,10.853c-4.436,-2.091 -7.369,-7.575 -8.129,-17.964c-0.161,-8.995 1.383,-18.386 5.646,-28.409c4.505,-10.485 10.04,-19.045 17.077,-24.802c4.963,-3.702 10.624,-5.908 16.857,-6.883c7.143,-0.475 12.443,-4.516 16.505,-10.953Z" style="fill:#c3c3c3;"/><clipPath id="_clip12"><path d="M270.758,19.162c5.238,-7.739 12.17,-19.321 19.09,-34.093c12.257,-26.165 23.93,-52.287 30.805,-65.504c12.517,-24.062 25.504,-30.962 29.076,-28.9c3.572,2.062 3.775,17.507 -10.629,39.551c-10.187,15.593 -42.141,58.959 -42.141,58.959c-7.117,10.298 -14.957,23.617 -20.078,33.522c-3.71,7.762 -3.897,14.528 -1.332,20.515c3.139,9.196 2.843,17.647 -0.007,25.544c-5.33,11.611 -12.307,21.165 -21.012,28.564c-12.357,10.273 -23.234,15.017 -31.728,10.853c-4.436,-2.091 -7.369,-7.575 -8.129,-17.964c-0.161,-8.995 1.383,-18.386 5.646,-28.409c4.505,-10.485 10.04,-19.045 17.077,-24.802c4.963,-3.702 10.624,-5.908 16.857,-6.883c7.143,-0.475 12.443,-4.516 16.505,-10.953Z"/></clipPath><g clip-path="url(#_clip12)"><path d="M215.856,120.572c-14.811,-8.551 -15.451,-35.212 -1.428,-59.501c14.023,-24.288 37.433,-37.065 52.243,-28.514c14.811,8.551 15.451,35.212 1.428,59.501c-14.023,24.288 -37.433,37.065 -52.243,28.514Z" style="fill:#d6d6d6;"/></g><path d="M510.789,47.59c5.239,-7.739 12.17,-19.321 19.09,-34.093c12.257,-26.164 23.931,-52.287 30.805,-65.503c12.517,-24.063 25.505,-30.963 29.076,-28.901c3.572,2.062 3.775,17.507 -10.628,39.551c-10.188,15.593 -42.142,58.959 -42.142,58.959c-7.117,10.298 -14.957,23.617 -20.077,33.523c-3.711,7.762 -3.898,14.527 -1.332,20.514c3.138,9.197 2.842,17.648 -0.008,25.544c-5.33,11.611 -12.307,21.165 -21.012,28.564c-12.356,10.273 -23.234,15.018 -31.727,10.854c-4.437,-2.092 -7.37,-7.576 -8.13,-17.964c-0.161,-8.995 1.383,-18.386 5.647,-28.41c4.504,-10.484 10.039,-19.045 17.076,-24.802c4.963,-3.702 10.624,-5.907 16.857,-6.883c7.144,-0.475 12.444,-4.516 16.505,-10.953Z" style="fill:#c3c3c3;"/><clipPath id="_clip13"><path d="M510.789,47.59c5.239,-7.739 12.17,-19.321 19.09,-34.093c12.257,-26.164 23.931,-52.287 30.805,-65.503c12.517,-24.063 25.505,-30.963 29.076,-28.901c3.572,2.062 3.775,17.507 -10.628,39.551c-10.188,15.593 -42.142,58.959 -42.142,58.959c-7.117,10.298 -14.957,23.617 -20.077,33.523c-3.711,7.762 -3.898,14.527 -1.332,20.514c3.138,9.197 2.842,17.648 -0.008,25.544c-5.33,11.611 -12.307,21.165 -21.012,28.564c-12.356,10.273 -23.234,15.018 -31.727,10.854c-4.437,-2.092 -7.37,-7.576 -8.13,-17.964c-0.161,-8.995 1.383,-18.386 5.647,-28.41c4.504,-10.484 10.039,-19.045 17.076,-24.802c4.963,-3.702 10.624,-5.907 16.857,-6.883c7.144,-0.475 12.444,-4.516 16.505,-10.953Z"/></clipPath><g clip-path="url(#_clip13)"><path d="M455.887,149.001c-14.811,-8.551 -15.45,-35.213 -1.427,-59.501c14.023,-24.289 37.432,-37.066 52.243,-28.515c14.81,8.551 15.45,35.213 1.427,59.501c-14.023,24.289 -37.432,37.066 -52.243,28.515Z" style="fill:#d6d6d6;"/></g></svg>