<?xml version="1.0" encoding="UTF-8" standalone="no"?><!DOCTYPE svg PUBLIC "-//W3C//DTD SVG 1.1//EN" "http://www.w3.org/Graphics/SVG/1.1/DTD/svg11.dtd"><svg width="100%" height="100%" viewBox="0 0 650 400" version="1.1" xmlns="http://www.w3.org/2000/svg" xmlns:xlink="http://www.w3.org/1999/xlink" xml:space="preserve" xmlns:serif="http://www.serif.com/" style="fill-rule:evenodd;clip-rule:evenodd;stroke-linejoin:round;stroke-miterlimit:1.41421;"><rect x="0" y="0" width="650" height="400" style="fill:#fff;"/><g><path d="M613.481,-47.459l-537.596,144.048l103.527,386.37l537.597,-144.048l-103.528,-386.37Z" style="fill:#f0f0f0;"/><clipPath id="_clip1"><path d="M613.481,-47.459l-537.596,144.048l103.527,386.37l537.597,-144.048l-103.528,-386.37Z"/></clipPath><g clip-path="url(#_clip1)"><path d="M97.378,90.83l-21.493,5.759l103.527,386.37l21.494,-5.759l-103.528,-386.37Z" style="fill:#d6d6d6;"/><path d="M613.481,-47.459l-21.493,5.759l103.527,386.37l21.494,-5.759l-103.528,-386.37Z" style="fill:#d6d6d6;"/></g><g><circle cx="372.447" cy="224.75" r="154.408" style="fill:#fff;"/><circle cx="372.447" cy="224.75" r="109.161" style="fill:#f3f3f3;"/><clipPath id="_clip2"><circle cx="372.447" cy="224.75" r="109.161"/></clipPath><g clip-path="url(#_clip2)"><circle cx="362.17" cy="213.495" r="109.161" style="fill:#fff;"/></g><path d="M372.804,114.089l0.358,0.002l0.357,0.003l0.357,0.004l0.356,0.005l0.357,0.006l0.356,0.007l0.356,0.009l0.355,0.009l0.355,0.011l0.355,0.012l0.355,0.013l0.354,0.014l0.354,0.015l0.354,0.016l0.354,0.018l0.353,0.018l0.353,0.02l0.353,0.021l0.352,0.021l0.352,0.023l0.352,0.024l0.351,0.025l0.352,0.027l0.35,0.027l0.351,0.028l0.35,0.03l0.35,0.03l0.35,0.032l0.349,0.033l0.349,0.034l0.349,0.034l0.348,0.036l0.349,0.037l0.347,0.039l0.348,0.039l0.347,0.04l0.347,0.041l0.346,0.043l0.346,0.043l0.346,0.045l0.346,0.046l0.345,0.046l0.345,0.048l0.344,0.049l0.344,0.05l0.344,0.051l0.344,0.052l0.343,0.053l0.342,0.054l0.343,0.055l0.342,0.056l0.342,0.057l0.341,0.059l0.341,0.059l0.341,0.06l0.34,0.062l0.34,0.062l0.34,0.064l0.339,0.064l0.339,0.066l0.338,0.066l0.338,0.068l0.338,0.069l0.337,0.069l0.337,0.071l0.337,0.072l0.336,0.072l0.336,0.074l0.336,0.075l0.335,0.076l0.335,0.077l0.334,0.077l0.334,0.079l0.334,0.08l0.333,0.081l0.333,0.082l0.332,0.083l0.332,0.083l0.332,0.085l0.331,0.086l0.331,0.087l0.33,0.088l0.33,0.089l0.33,0.089l0.329,0.091l0.329,0.092l0.328,0.093l0.328,0.094l0.327,0.094l0.328,0.096l0.326,0.097l0.327,0.098l0.325,0.098l0.326,0.1l0.325,0.101l0.325,0.101l0.324,0.103l0.323,0.103l0.324,0.105l0.323,0.105l0.322,0.107l0.322,0.107l0.322,0.108l0.321,0.11l0.32,0.11l0.321,0.111l0.319,0.112l0.32,0.114l0.319,0.114l0.318,0.115l0.318,0.116l0.318,0.117l0.317,0.117l0.316,0.119l0.316,0.12l0.316,0.121l0.315,0.121l0.315,0.123l0.314,0.123l0.314,0.125l0.314,0.125l0.313,0.126l0.312,0.127l0.312,0.129l0.311,0.129l0.311,0.13l0.311,0.13l0.31,0.132l0.31,0.133l0.309,0.134l0.308,0.134l0.308,0.135l0.308,0.137l0.307,0.137l0.307,0.138l0.306,0.139l0.305,0.14l0.306,0.141l0.304,0.142l0.304,0.143l0.304,0.143l0.303,0.145l0.303,0.145l0.302,0.146l0.301,0.147l0.301,0.148l0.301,0.149l0.3,0.15l0.3,0.151l0.299,0.151l0.298,0.152l0.298,0.154l0.297,0.154l0.297,0.155l0.297,0.156l0.296,0.157l0.295,0.157l0.295,0.159l0.294,0.159l0.294,0.16l0.293,0.161l0.293,0.162l0.292,0.163l0.291,0.164l0.291,0.164l0.291,0.166l0.29,0.166l0.289,0.167l0.289,0.168l0.288,0.169l0.288,0.169l0.287,0.171l0.287,0.171l0.286,0.172l0.285,0.173l0.285,0.174l0.284,0.174l0.284,0.176l0.283,0.176l0.283,0.177l0.282,0.178l0.282,0.179l0.281,0.179l0.28,0.181l0.28,0.181l0.279,0.182l0.279,0.183l0.277,0.184l0.278,0.184l0.277,0.185l0.276,0.187l0.276,0.186l0.275,0.188l0.274,0.189l0.274,0.189l0.274,0.19l0.272,0.191l0.272,0.192l0.272,0.192l0.271,0.194l0.27,0.194l0.27,0.195l0.269,0.195l0.268,0.197l0.268,0.197l0.267,0.198l0.267,0.199l0.266,0.2l0.265,0.2l0.265,0.201l0.264,0.202l0.264,0.203l0.263,0.203l0.262,0.204l0.261,0.205l0.261,0.206l0.261,0.207l0.26,0.207l0.259,0.208l0.258,0.209l0.258,0.21l0.257,0.21l0.257,0.211l0.255,0.212l0.256,0.212l0.254,0.214l0.254,0.214l0.254,0.215l0.252,0.215l0.252,0.217l0.252,0.217l0.25,0.218l0.25,0.218l0.25,0.22l0.248,0.22l0.248,0.22l0.248,0.222l0.246,0.222l0.246,0.223l0.246,0.224l0.244,0.224l0.244,0.225l0.244,0.226l0.242,0.227l0.242,0.227l0.242,0.228l0.24,0.229l0.24,0.229l0.239,0.23l0.239,0.231l0.238,0.232l0.237,0.232l0.236,0.233l0.236,0.233l0.235,0.235l0.234,0.235l0.234,0.236l0.233,0.236l0.232,0.237l0.232,0.238l0.231,0.239l0.23,0.239l0.229,0.24l0.229,0.24l0.228,0.242l0.227,0.242l0.227,0.242l0.226,0.243l0.225,0.244l0.224,0.245l0.224,0.245l0.223,0.247l0.222,0.246l0.221,0.248l0.221,0.247l0.22,0.249l0.22,0.25l0.218,0.25l0.218,0.25l0.217,0.252l0.216,0.252l0.216,0.252l0.215,0.254l0.214,0.253l0.213,0.255l0.213,0.255l0.212,0.256l0.211,0.257l0.21,0.257l0.21,0.258l0.209,0.258l0.208,0.259l0.207,0.26l0.207,0.26l0.205,0.261l0.205,0.262l0.205,0.262l0.203,0.263l0.203,0.264l0.202,0.264l0.201,0.265l0.2,0.265l0.2,0.266l0.199,0.267l0.198,0.267l0.197,0.268l0.196,0.268l0.196,0.269l0.195,0.27l0.194,0.27l0.193,0.271l0.193,0.271l0.192,0.273l0.191,0.272l0.19,0.274l0.189,0.273l0.189,0.275l0.187,0.275l0.187,0.276l0.186,0.276l0.186,0.277l0.184,0.277l0.184,0.278l0.183,0.279l0.182,0.279l0.181,0.28l0.18,0.28l0.18,0.281l0.179,0.282l0.178,0.282l0.177,0.282l0.176,0.284l0.175,0.283l0.175,0.285l0.174,0.285l0.173,0.285l0.172,0.286l0.171,0.287l0.171,0.287l0.169,0.288l0.169,0.288l0.168,0.289l0.167,0.289l0.166,0.29l0.165,0.291l0.165,0.291l0.164,0.291l0.162,0.292l0.162,0.293l0.161,0.293l0.161,0.294l0.159,0.294l0.159,0.295l0.157,0.295l0.157,0.296l0.156,0.296l0.155,0.297l0.154,0.298l0.153,0.298l0.153,0.298l0.151,0.299l0.151,0.3l0.15,0.3l0.149,0.3l0.148,0.301l0.147,0.302l0.146,0.302l0.145,0.303l0.145,0.303l0.143,0.304l0.143,0.304l0.142,0.304l0.14,0.305l0.14,0.306l0.14,0.306l0.138,0.307l0.137,0.307l0.136,0.307l0.136,0.309l0.134,0.308l0.134,0.309l0.133,0.31l0.131,0.31l0.131,0.31l0.13,0.311l0.129,0.312l0.128,0.312l0.128,0.312l0.126,0.313l0.125,0.313l0.124,0.314l0.124,0.315l0.123,0.314l0.121,0.316l0.121,0.315l0.12,0.316l0.118,0.317l0.118,0.317l0.117,0.318l0.116,0.318l0.115,0.318l0.114,0.319l0.113,0.319l0.112,0.32l0.112,0.32l0.11,0.321l0.109,0.321l0.109,0.322l0.107,0.322l0.106,0.322l0.106,0.323l0.104,0.323l0.104,0.324l0.103,0.324l0.101,0.325l0.101,0.325l0.099,0.325l0.099,0.326l0.098,0.326l0.097,0.327l0.095,0.327l0.095,0.328l0.094,0.328l0.093,0.328l0.091,0.329l0.091,0.329l0.09,0.33l0.089,0.33l0.088,0.33l0.087,0.331l0.086,0.331l0.084,0.332l0.084,0.332l0.083,0.332l0.082,0.333l0.081,0.333l0.08,0.334l0.078,0.334l0.078,0.334l0.077,0.335l0.076,0.335l0.075,0.335l0.073,0.336l0.073,0.337l0.072,0.336l0.07,0.337l0.07,0.338l0.069,0.338l0.067,0.338l0.067,0.338l0.066,0.339l0.064,0.339l0.064,0.34l0.062,0.34l0.061,0.34l0.061,0.341l0.059,0.341l0.058,0.341l0.058,0.342l0.056,0.342l0.055,0.342l0.054,0.343l0.053,0.343l0.052,0.344l0.051,0.344l0.05,0.344l0.049,0.344l0.047,0.345l0.047,0.345l0.046,0.346l0.044,0.346l0.044,0.346l0.042,0.346l0.042,0.347l0.04,0.347l0.039,0.348l0.038,0.347l0.037,0.348l0.036,0.349l0.035,0.348l0.034,0.35l0.033,0.349l0.032,0.35l0.03,0.35l0.03,0.35l0.028,0.35l0.027,0.351l0.026,0.351l0.026,0.352l0.024,0.352l0.022,0.352l0.022,0.352l0.021,0.353l0.02,0.353l0.018,0.353l0.017,0.354l0.017,0.353l0.015,0.355l0.014,0.354l0.013,0.355l0.012,0.355l0.01,0.355l0.01,0.355l0.008,0.356l0.008,0.356l0.006,0.356l0.005,0.357l0.004,0.357l0.003,0.357l0.002,0.357l0,0.358l0,0.358l-0.002,0.357l-0.003,0.357l-0.004,0.357l-0.005,0.357l-0.006,0.356l-0.008,0.356l-0.008,0.356l-0.01,0.355l-0.01,0.355l-0.012,0.355l-0.013,0.355l-0.014,0.354l-0.015,0.354l-0.017,0.354l-0.017,0.354l-0.018,0.353l-0.02,0.353l-0.021,0.353l-0.022,0.352l-0.022,0.352l-0.024,0.352l-0.026,0.352l-0.026,0.351l-0.027,0.351l-0.028,0.35l-0.03,0.35l-0.03,0.35l-0.032,0.35l-0.033,0.349l-0.034,0.349l-0.035,0.349l-0.036,0.349l-0.037,0.348l-0.038,0.347l-0.039,0.348l-0.04,0.347l-0.042,0.347l-0.042,0.346l-0.044,0.346l-0.044,0.346l-0.046,0.346l-0.047,0.345l-0.047,0.345l-0.049,0.344l-0.05,0.344l-0.051,0.344l-0.052,0.344l-0.053,0.343l-0.054,0.343l-0.055,0.342l-0.056,0.342l-0.058,0.342l-0.058,0.341l-0.059,0.341l-0.061,0.341l-0.061,0.34l-0.062,0.34l-0.064,0.34l-0.064,0.339l-0.066,0.339l-0.067,0.338l-0.067,0.338l-0.069,0.338l-0.07,0.338l-0.07,0.337l-0.072,0.336l-0.073,0.336l-0.073,0.336l-0.075,0.336l-0.076,0.335l-0.077,0.335l-0.078,0.334l-0.078,0.334l-0.08,0.334l-0.081,0.333l-0.082,0.333l-0.083,0.332l-0.084,0.332l-0.084,0.332l-0.086,0.331l-0.087,0.331l-0.088,0.33l-0.089,0.33l-0.09,0.33l-0.091,0.329l-0.091,0.329l-0.093,0.328l-0.094,0.328l-0.095,0.328l-0.095,0.327l-0.097,0.326l-0.098,0.327l-0.099,0.326l-0.099,0.325l-0.101,0.325l-0.101,0.325l-0.103,0.324l-0.104,0.324l-0.104,0.323l-0.106,0.323l-0.106,0.322l-0.107,0.322l-0.109,0.322l-0.109,0.321l-0.11,0.32l-0.112,0.321l-0.112,0.32l-0.113,0.319l-0.114,0.319l-0.115,0.318l-0.116,0.318l-0.117,0.318l-0.118,0.317l-0.118,0.316l-0.12,0.317l-0.121,0.315l-0.121,0.316l-0.123,0.314l-0.124,0.315l-0.124,0.314l-0.125,0.313l-0.126,0.313l-0.128,0.312l-0.128,0.312l-0.129,0.312l-0.13,0.311l-0.131,0.31l-0.131,0.31l-0.133,0.31l-0.134,0.309l-0.134,0.308l-0.136,0.308l-0.136,0.308l-0.137,0.307l-0.138,0.307l-0.14,0.306l-0.14,0.306l-0.14,0.305l-0.142,0.304l-0.143,0.304l-0.143,0.304l-0.145,0.303l-0.145,0.303l-0.146,0.302l-0.147,0.301l-0.148,0.302l-0.149,0.3l-0.15,0.3l-0.151,0.3l-0.151,0.299l-0.153,0.298l-0.153,0.298l-0.154,0.298l-0.155,0.296l-0.156,0.297l-0.157,0.296l-0.157,0.295l-0.159,0.295l-0.159,0.294l-0.161,0.294l-0.161,0.293l-0.162,0.293l-0.162,0.292l-0.164,0.291l-0.165,0.291l-0.165,0.291l-0.166,0.29l-0.167,0.289l-0.168,0.289l-0.169,0.288l-0.169,0.288l-0.171,0.287l-0.171,0.287l-0.172,0.286l-0.173,0.285l-0.174,0.285l-0.175,0.285l-0.175,0.283l-0.176,0.284l-0.177,0.282l-0.178,0.282l-0.179,0.282l-0.18,0.281l-0.18,0.28l-0.181,0.28l-0.182,0.279l-0.183,0.279l-0.184,0.278l-0.184,0.277l-0.186,0.277l-0.186,0.276l-0.187,0.276l-0.187,0.275l-0.189,0.274l-0.189,0.274l-0.19,0.274l-0.191,0.272l-0.192,0.272l-0.193,0.272l-0.193,0.271l-0.194,0.27l-0.195,0.27l-0.196,0.269l-0.196,0.268l-0.197,0.268l-0.198,0.267l-0.199,0.267l-0.2,0.266l-0.2,0.265l-0.201,0.265l-0.202,0.264l-0.203,0.264l-0.203,0.263l-0.205,0.262l-0.205,0.262l-0.205,0.261l-0.207,0.26l-0.207,0.26l-0.208,0.259l-0.209,0.258l-0.21,0.258l-0.21,0.257l-0.211,0.257l-0.212,0.256l-0.213,0.255l-0.213,0.255l-0.214,0.253l-0.215,0.254l-0.216,0.252l-0.216,0.252l-0.217,0.252l-0.218,0.25l-0.218,0.25l-0.22,0.25l-0.22,0.248l-0.221,0.248l-0.221,0.248l-0.222,0.246l-0.223,0.246l-0.224,0.246l-0.224,0.245l-0.225,0.244l-0.226,0.243l-0.227,0.242l-0.227,0.242l-0.228,0.242l-0.229,0.24l-0.229,0.24l-0.23,0.239l-0.231,0.239l-0.232,0.238l-0.232,0.237l-0.233,0.236l-0.234,0.236l-0.234,0.235l-0.235,0.235l-0.236,0.233l-0.236,0.233l-0.237,0.232l-0.238,0.232l-0.239,0.231l-0.239,0.23l-0.24,0.229l-0.24,0.229l-0.242,0.228l-0.242,0.227l-0.242,0.227l-0.244,0.226l-0.244,0.225l-0.244,0.224l-0.246,0.224l-0.246,0.223l-0.246,0.222l-0.248,0.222l-0.248,0.22l-0.248,0.22l-0.25,0.22l-0.25,0.218l-0.25,0.218l-0.252,0.217l-0.252,0.217l-0.252,0.215l-0.254,0.215l-0.254,0.214l-0.254,0.213l-0.256,0.213l-0.255,0.212l-0.257,0.211l-0.257,0.21l-0.258,0.21l-0.258,0.209l-0.259,0.208l-0.26,0.207l-0.261,0.207l-0.261,0.206l-0.261,0.205l-0.262,0.204l-0.263,0.203l-0.264,0.203l-0.264,0.202l-0.265,0.201l-0.265,0.2l-0.266,0.2l-0.267,0.199l-0.267,0.198l-0.268,0.197l-0.268,0.197l-0.269,0.195l-0.27,0.195l-0.27,0.194l-0.271,0.194l-0.272,0.192l-0.272,0.192l-0.272,0.191l-0.274,0.19l-0.274,0.189l-0.274,0.189l-0.275,0.187l-0.276,0.187l-0.276,0.186l-0.277,0.186l-0.278,0.184l-0.277,0.184l-0.279,0.183l-0.279,0.182l-0.28,0.181l-0.28,0.18l-0.281,0.18l-0.282,0.179l-0.282,0.178l-0.283,0.177l-0.283,0.176l-0.284,0.176l-0.284,0.174l-0.285,0.174l-0.285,0.173l-0.286,0.172l-0.287,0.171l-0.287,0.171l-0.288,0.169l-0.288,0.169l-0.289,0.168l-0.289,0.167l-0.29,0.166l-0.291,0.166l-0.291,0.164l-0.291,0.164l-0.293,0.163l-0.292,0.162l-0.293,0.161l-0.294,0.16l-0.294,0.159l-0.295,0.159l-0.295,0.157l-0.296,0.157l-0.297,0.156l-0.297,0.155l-0.297,0.154l-0.298,0.153l-0.298,0.153l-0.299,0.151l-0.3,0.151l-0.3,0.15l-0.301,0.149l-0.301,0.148l-0.301,0.147l-0.302,0.146l-0.303,0.145l-0.303,0.145l-0.304,0.143l-0.304,0.143l-0.304,0.142l-0.306,0.141l-0.305,0.14l-0.306,0.139l-0.307,0.138l-0.307,0.137l-0.308,0.136l-0.308,0.136l-0.308,0.134l-0.309,0.134l-0.31,0.133l-0.31,0.132l-0.311,0.13l-0.311,0.13l-0.311,0.129l-0.312,0.128l-0.312,0.128l-0.313,0.126l-0.314,0.125l-0.314,0.125l-0.314,0.123l-0.315,0.123l-0.315,0.121l-0.316,0.121l-0.316,0.12l-0.316,0.119l-0.317,0.117l-0.318,0.117l-0.318,0.116l-0.318,0.115l-0.319,0.114l-0.32,0.113l-0.319,0.113l-0.321,0.111l-0.32,0.11l-0.321,0.109l-0.322,0.109l-0.322,0.107l-0.322,0.107l-0.323,0.105l-0.324,0.105l-0.323,0.103l-0.324,0.103l-0.325,0.101l-0.325,0.101l-0.326,0.1l-0.325,0.098l-0.327,0.098l-0.326,0.097l-0.328,0.095l-0.327,0.095l-0.328,0.094l-0.328,0.093l-0.329,0.092l-0.329,0.09l-0.33,0.09l-0.33,0.089l-0.33,0.088l-0.331,0.087l-0.331,0.086l-0.332,0.085l-0.332,0.083l-0.332,0.083l-0.333,0.082l-0.333,0.081l-0.334,0.08l-0.334,0.079l-0.334,0.077l-0.335,0.077l-0.335,0.076l-0.336,0.075l-0.336,0.074l-0.336,0.072l-0.337,0.072l-0.337,0.071l-0.337,0.069l-0.338,0.069l-0.338,0.068l-0.338,0.066l-0.339,0.066l-0.339,0.064l-0.34,0.064l-0.34,0.062l-0.34,0.062l-0.341,0.06l-0.341,0.059l-0.341,0.059l-0.342,0.057l-0.342,0.056l-0.343,0.055l-0.342,0.054l-0.344,0.053l-0.343,0.052l-0.344,0.051l-0.344,0.05l-0.344,0.049l-0.345,0.048l-0.345,0.046l-0.346,0.046l-0.346,0.045l-0.346,0.043l-0.346,0.042l-0.347,0.042l-0.347,0.04l-0.348,0.039l-0.347,0.038l-0.349,0.038l-0.348,0.036l-0.349,0.034l-0.349,0.034l-0.349,0.033l-0.35,0.032l-0.35,0.03l-0.35,0.03l-0.351,0.028l-0.35,0.027l-0.352,0.027l-0.351,0.025l-0.352,0.024l-0.352,0.023l-0.352,0.021l-0.353,0.021l-0.353,0.02l-0.353,0.018l-0.354,0.018l-0.354,0.016l-0.354,0.015l-0.354,0.014l-0.355,0.013l-0.355,0.012l-0.355,0.011l-0.355,0.009l-0.356,0.009l-0.356,0.007l-0.357,0.006l-0.356,0.005l-0.357,0.004l-0.357,0.003l-0.358,0.002l-0.357,0l-0.358,0l-0.357,-0.002l-0.357,-0.003l-0.357,-0.004l-0.357,-0.005l-0.356,-0.006l-0.356,-0.007l-0.356,-0.009l-0.355,-0.009l-0.356,-0.011l-0.355,-0.012l-0.354,-0.013l-0.355,-0.014l-0.354,-0.015l-0.354,-0.016l-0.353,-0.018l-0.353,-0.018l-0.353,-0.02l-0.353,-0.021l-0.352,-0.021l-0.352,-0.023l-0.352,-0.024l-0.352,-0.025l-0.351,-0.027l-0.351,-0.027l-0.35,-0.028l-0.351,-0.03l-0.35,-0.03l-0.349,-0.032l-0.35,-0.033l-0.349,-0.034l-0.348,-0.034l-0.349,-0.036l-0.348,-0.038l-0.348,-0.038l-0.347,-0.039l-0.347,-0.04l-0.347,-0.042l-0.347,-0.042l-0.346,-0.043l-0.345,-0.045l-0.346,-0.046l-0.345,-0.046l-0.345,-0.048l-0.344,-0.049l-0.345,-0.05l-0.343,-0.051l-0.344,-0.052l-0.343,-0.053l-0.343,-0.054l-0.342,-0.055l-0.342,-0.056l-0.342,-0.057l-0.341,-0.059l-0.341,-0.059l-0.341,-0.06l-0.34,-0.062l-0.34,-0.062l-0.34,-0.064l-0.339,-0.064l-0.339,-0.066l-0.339,-0.066l-0.338,-0.068l-0.337,-0.069l-0.338,-0.069l-0.337,-0.071l-0.336,-0.072l-0.337,-0.072l-0.336,-0.074l-0.335,-0.075l-0.335,-0.076l-0.335,-0.077l-0.334,-0.077l-0.334,-0.079l-0.334,-0.08l-0.333,-0.081l-0.333,-0.082l-0.332,-0.083l-0.332,-0.083l-0.332,-0.085l-0.331,-0.086l-0.331,-0.087l-0.33,-0.088l-0.33,-0.089l-0.33,-0.09l-0.329,-0.09l-0.329,-0.092l-0.328,-0.093l-0.328,-0.094l-0.328,-0.095l-0.327,-0.095l-0.327,-0.097l-0.326,-0.098l-0.326,-0.098l-0.325,-0.1l-0.325,-0.101l-0.325,-0.101l-0.324,-0.103l-0.324,-0.103l-0.323,-0.105l-0.323,-0.105l-0.322,-0.107l-0.322,-0.107l-0.322,-0.109l-0.321,-0.109l-0.321,-0.11l-0.32,-0.111l-0.32,-0.113l-0.319,-0.113l-0.319,-0.114l-0.318,-0.115l-0.318,-0.116l-0.318,-0.117l-0.317,-0.118l-0.317,-0.118l-0.316,-0.12l-0.316,-0.121l-0.315,-0.121l-0.315,-0.123l-0.314,-0.123l-0.314,-0.125l-0.313,-0.125l-0.313,-0.126l-0.312,-0.128l-0.312,-0.128l-0.312,-0.129l-0.311,-0.13l-0.31,-0.13l-0.31,-0.132l-0.31,-0.133l-0.309,-0.134l-0.309,-0.134l-0.308,-0.136l-0.307,-0.136l-0.307,-0.137l-0.307,-0.138l-0.306,-0.139l-0.306,-0.14l-0.305,-0.141l-0.305,-0.142l-0.304,-0.143l-0.303,-0.143l-0.303,-0.145l-0.303,-0.145l-0.302,-0.146l-0.302,-0.147l-0.301,-0.148l-0.3,-0.149l-0.3,-0.15l-0.3,-0.151l-0.299,-0.151l-0.298,-0.153l-0.298,-0.153l-0.298,-0.154l-0.297,-0.155l-0.296,-0.156l-0.296,-0.157l-0.295,-0.157l-0.295,-0.159l-0.294,-0.159l-0.294,-0.16l-0.293,-0.161l-0.293,-0.162l-0.292,-0.163l-0.292,-0.164l-0.291,-0.164l-0.29,-0.166l-0.29,-0.166l-0.289,-0.167l-0.289,-0.168l-0.289,-0.169l-0.287,-0.169l-0.287,-0.171l-0.287,-0.171l-0.286,-0.172l-0.286,-0.173l-0.284,-0.174l-0.285,-0.174l-0.284,-0.176l-0.283,-0.176l-0.282,-0.177l-0.282,-0.178l-0.282,-0.179l-0.281,-0.18l-0.28,-0.18l-0.28,-0.181l-0.279,-0.182l-0.279,-0.183l-0.278,-0.184l-0.277,-0.184l-0.277,-0.186l-0.276,-0.186l-0.276,-0.187l-0.275,-0.187l-0.275,-0.189l-0.274,-0.189l-0.273,-0.19l-0.273,-0.191l-0.272,-0.192l-0.271,-0.192l-0.271,-0.194l-0.27,-0.194l-0.27,-0.195l-0.269,-0.195l-0.269,-0.197l-0.267,-0.197l-0.268,-0.198l-0.266,-0.199l-0.266,-0.2l-0.266,-0.2l-0.264,-0.201l-0.265,-0.202l-0.263,-0.203l-0.263,-0.203l-0.262,-0.204l-0.262,-0.205l-0.261,-0.206l-0.26,-0.207l-0.26,-0.207l-0.259,-0.208l-0.258,-0.209l-0.258,-0.21l-0.257,-0.21l-0.257,-0.211l-0.256,-0.212l-0.255,-0.213l-0.255,-0.213l-0.254,-0.214l-0.253,-0.215l-0.253,-0.215l-0.252,-0.217l-0.251,-0.217l-0.251,-0.218l-0.25,-0.218l-0.249,-0.22l-0.249,-0.22l-0.248,-0.22l-0.247,-0.222l-0.247,-0.222l-0.246,-0.223l-0.245,-0.224l-0.245,-0.224l-0.244,-0.225l-0.243,-0.226l-0.243,-0.227l-0.242,-0.227l-0.241,-0.228l-0.24,-0.229l-0.24,-0.229l-0.24,-0.23l-0.238,-0.231l-0.238,-0.232l-0.237,-0.232l-0.237,-0.233l-0.235,-0.233l-0.235,-0.235l-0.235,-0.235l-0.233,-0.236l-0.233,-0.236l-0.233,-0.237l-0.231,-0.238l-0.231,-0.239l-0.23,-0.239l-0.23,-0.24l-0.228,-0.24l-0.228,-0.242l-0.228,-0.242l-0.226,-0.242l-0.226,-0.244l-0.225,-0.244l-0.225,-0.244l-0.223,-0.246l-0.223,-0.246l-0.222,-0.246l-0.222,-0.248l-0.221,-0.248l-0.22,-0.248l-0.219,-0.25l-0.219,-0.25l-0.217,-0.25l-0.217,-0.252l-0.217,-0.252l-0.215,-0.252l-0.215,-0.254l-0.214,-0.253l-0.214,-0.255l-0.212,-0.255l-0.212,-0.256l-0.211,-0.257l-0.211,-0.257l-0.209,-0.258l-0.209,-0.258l-0.208,-0.259l-0.207,-0.26l-0.207,-0.26l-0.206,-0.261l-0.205,-0.262l-0.204,-0.262l-0.203,-0.263l-0.203,-0.264l-0.202,-0.264l-0.201,-0.265l-0.201,-0.265l-0.199,-0.266l-0.199,-0.267l-0.198,-0.267l-0.197,-0.268l-0.197,-0.268l-0.196,-0.269l-0.194,-0.27l-0.194,-0.27l-0.194,-0.271l-0.192,-0.271l-0.192,-0.273l-0.191,-0.272l-0.19,-0.274l-0.189,-0.274l-0.189,-0.274l-0.188,-0.275l-0.187,-0.276l-0.186,-0.276l-0.185,-0.277l-0.184,-0.277l-0.184,-0.278l-0.183,-0.279l-0.182,-0.279l-0.181,-0.28l-0.181,-0.28l-0.179,-0.281l-0.179,-0.282l-0.178,-0.282l-0.177,-0.282l-0.176,-0.284l-0.176,-0.283l-0.174,-0.285l-0.174,-0.285l-0.173,-0.285l-0.172,-0.286l-0.172,-0.287l-0.17,-0.287l-0.17,-0.288l-0.168,-0.288l-0.168,-0.289l-0.167,-0.289l-0.166,-0.29l-0.166,-0.291l-0.164,-0.291l-0.164,-0.291l-0.163,-0.292l-0.162,-0.293l-0.161,-0.293l-0.16,-0.294l-0.159,-0.294l-0.159,-0.295l-0.158,-0.295l-0.156,-0.296l-0.156,-0.296l-0.155,-0.297l-0.154,-0.298l-0.154,-0.298l-0.152,-0.298l-0.152,-0.299l-0.15,-0.3l-0.15,-0.3l-0.149,-0.3l-0.148,-0.302l-0.147,-0.301l-0.146,-0.302l-0.146,-0.303l-0.144,-0.303l-0.144,-0.304l-0.142,-0.304l-0.142,-0.304l-0.141,-0.305l-0.14,-0.306l-0.139,-0.306l-0.138,-0.307l-0.137,-0.307l-0.137,-0.308l-0.135,-0.308l-0.135,-0.308l-0.133,-0.309l-0.133,-0.31l-0.132,-0.31l-0.131,-0.31l-0.13,-0.311l-0.129,-0.312l-0.128,-0.312l-0.127,-0.312l-0.126,-0.313l-0.125,-0.313l-0.125,-0.314l-0.123,-0.315l-0.123,-0.314l-0.121,-0.316l-0.121,-0.315l-0.12,-0.317l-0.119,-0.316l-0.118,-0.317l-0.116,-0.318l-0.116,-0.318l-0.115,-0.318l-0.115,-0.319l-0.113,-0.319l-0.112,-0.32l-0.111,-0.32l-0.11,-0.321l-0.11,-0.321l-0.108,-0.322l-0.107,-0.322l-0.107,-0.322l-0.105,-0.323l-0.105,-0.323l-0.103,-0.324l-0.103,-0.324l-0.102,-0.325l-0.1,-0.325l-0.1,-0.325l-0.099,-0.326l-0.097,-0.327l-0.097,-0.326l-0.096,-0.327l-0.094,-0.328l-0.094,-0.328l-0.093,-0.328l-0.092,-0.329l-0.091,-0.329l-0.089,-0.33l-0.089,-0.33l-0.088,-0.33l-0.087,-0.331l-0.086,-0.331l-0.085,-0.332l-0.084,-0.332l-0.082,-0.332l-0.082,-0.333l-0.081,-0.333l-0.08,-0.334l-0.079,-0.334l-0.078,-0.334l-0.076,-0.335l-0.076,-0.335l-0.075,-0.336l-0.074,-0.335l-0.072,-0.337l-0.072,-0.336l-0.071,-0.337l-0.07,-0.338l-0.068,-0.338l-0.068,-0.338l-0.066,-0.338l-0.066,-0.339l-0.064,-0.339l-0.064,-0.34l-0.062,-0.34l-0.062,-0.34l-0.06,-0.341l-0.059,-0.341l-0.059,-0.341l-0.057,-0.342l-0.056,-0.342l-0.055,-0.342l-0.054,-0.343l-0.053,-0.343l-0.052,-0.344l-0.051,-0.344l-0.05,-0.344l-0.049,-0.344l-0.048,-0.345l-0.047,-0.345l-0.045,-0.346l-0.045,-0.346l-0.043,-0.346l-0.043,-0.346l-0.041,-0.347l-0.04,-0.347l-0.04,-0.348l-0.038,-0.347l-0.037,-0.348l-0.036,-0.349l-0.035,-0.349l-0.033,-0.349l-0.033,-0.349l-0.032,-0.35l-0.03,-0.35l-0.03,-0.35l-0.028,-0.35l-0.028,-0.351l-0.026,-0.351l-0.025,-0.352l-0.024,-0.352l-0.023,-0.352l-0.022,-0.352l-0.02,-0.353l-0.02,-0.353l-0.018,-0.353l-0.018,-0.354l-0.016,-0.353l-0.015,-0.355l-0.014,-0.354l-0.013,-0.355l-0.012,-0.355l-0.011,-0.355l-0.009,-0.355l-0.009,-0.356l-0.007,-0.356l-0.006,-0.356l-0.005,-0.357l-0.004,-0.357l-0.003,-0.357l-0.002,-0.357l0,-0.358l0,-0.358l0.002,-0.357l0.003,-0.357l0.004,-0.357l0.005,-0.357l0.006,-0.356l0.007,-0.356l0.009,-0.356l0.009,-0.355l0.011,-0.356l0.012,-0.354l0.013,-0.355l0.014,-0.354l0.015,-0.355l0.016,-0.353l0.018,-0.354l0.018,-0.353l0.02,-0.353l0.02,-0.353l0.022,-0.352l0.023,-0.352l0.024,-0.352l0.025,-0.352l0.026,-0.351l0.028,-0.351l0.028,-0.35l0.03,-0.35l0.03,-0.35l0.032,-0.35l0.033,-0.349l0.033,-0.35l0.035,-0.348l0.036,-0.349l0.037,-0.348l0.038,-0.348l0.04,-0.347l0.04,-0.347l0.041,-0.347l0.043,-0.346l0.043,-0.347l0.045,-0.345l0.045,-0.346l0.047,-0.345l0.048,-0.345l0.049,-0.344l0.05,-0.344l0.051,-0.344l0.052,-0.344l0.053,-0.343l0.054,-0.343l0.055,-0.342l0.056,-0.342l0.057,-0.342l0.059,-0.341l0.059,-0.341l0.06,-0.341l0.062,-0.34l0.062,-0.34l0.064,-0.34l0.064,-0.339l0.066,-0.339l0.066,-0.338l0.068,-0.338l0.068,-0.338l0.07,-0.338l0.071,-0.337l0.072,-0.336l0.072,-0.337l0.074,-0.335l0.075,-0.336l0.076,-0.335l0.076,-0.335l0.078,-0.334l0.079,-0.334l0.08,-0.334l0.081,-0.333l0.082,-0.333l0.082,-0.332l0.084,-0.332l0.085,-0.332l0.086,-0.331l0.087,-0.331l0.088,-0.33l0.089,-0.33l0.089,-0.33l0.091,-0.329l0.092,-0.329l0.093,-0.328l0.094,-0.328l0.094,-0.328l0.096,-0.327l0.097,-0.326l0.097,-0.327l0.099,-0.326l0.1,-0.325l0.1,-0.325l0.102,-0.325l0.103,-0.324l0.103,-0.324l0.105,-0.323l0.105,-0.323l0.107,-0.322l0.107,-0.322l0.108,-0.322l0.11,-0.321l0.11,-0.321l0.111,-0.32l0.112,-0.32l0.113,-0.319l0.115,-0.319l0.115,-0.318l0.116,-0.318l0.116,-0.318l0.118,-0.317l0.119,-0.317l0.12,-0.316l0.121,-0.315l0.121,-0.316l0.123,-0.314l0.123,-0.315l0.125,-0.314l0.125,-0.313l0.126,-0.313l0.127,-0.312l0.128,-0.312l0.129,-0.312l0.13,-0.311l0.131,-0.31l0.132,-0.31l0.133,-0.31l0.133,-0.309l0.135,-0.308l0.135,-0.309l0.137,-0.307l0.137,-0.307l0.138,-0.307l0.139,-0.306l0.14,-0.306l0.141,-0.305l0.142,-0.304l0.142,-0.304l0.144,-0.304l0.144,-0.303l0.146,-0.303l0.146,-0.302l0.147,-0.302l0.148,-0.301l0.149,-0.3l0.15,-0.3l0.15,-0.3l0.152,-0.299l0.152,-0.298l0.154,-0.298l0.154,-0.298l0.155,-0.297l0.156,-0.296l0.156,-0.296l0.158,-0.295l0.159,-0.295l0.159,-0.294l0.16,-0.294l0.161,-0.293l0.162,-0.293l0.163,-0.292l0.164,-0.291l0.164,-0.291l0.165,-0.291l0.167,-0.29l0.167,-0.289l0.168,-0.289l0.168,-0.288l0.17,-0.288l0.17,-0.287l0.172,-0.287l0.172,-0.286l0.173,-0.285l0.174,-0.285l0.174,-0.285l0.176,-0.283l0.176,-0.284l0.177,-0.282l0.178,-0.282l0.179,-0.282l0.179,-0.281l0.181,-0.28l0.181,-0.28l0.182,-0.279l0.183,-0.279l0.184,-0.278l0.184,-0.277l0.185,-0.277l0.186,-0.276l0.187,-0.276l0.188,-0.275l0.189,-0.275l0.189,-0.273l0.19,-0.274l0.191,-0.272l0.192,-0.273l0.192,-0.271l0.194,-0.271l0.194,-0.27l0.194,-0.27l0.196,-0.269l0.197,-0.268l0.197,-0.268l0.198,-0.268l0.199,-0.266l0.199,-0.266l0.201,-0.266l0.201,-0.264l0.202,-0.264l0.203,-0.264l0.203,-0.263l0.204,-0.262l0.205,-0.262l0.206,-0.261l0.207,-0.26l0.207,-0.26l0.208,-0.259l0.209,-0.258l0.209,-0.258l0.211,-0.257l0.211,-0.257l0.212,-0.256l0.212,-0.255l0.214,-0.255l0.214,-0.253l0.215,-0.254l0.215,-0.252l0.217,-0.252l0.217,-0.252l0.217,-0.25l0.219,-0.25l0.219,-0.25l0.22,-0.248l0.221,-0.248l0.222,-0.248l0.222,-0.247l0.223,-0.246l0.223,-0.245l0.225,-0.245l0.225,-0.244l0.226,-0.243l0.226,-0.242l0.228,-0.242l0.228,-0.242l0.228,-0.24l0.23,-0.24l0.23,-0.239l0.231,-0.239l0.231,-0.238l0.233,-0.237l0.233,-0.236l0.233,-0.236l0.235,-0.235l0.235,-0.235l0.235,-0.233l0.237,-0.233l0.237,-0.232l0.238,-0.232l0.238,-0.231l0.24,-0.23l0.24,-0.229l0.24,-0.229l0.241,-0.228l0.242,-0.227l0.243,-0.227l0.243,-0.226l0.244,-0.225l0.245,-0.224l0.245,-0.224l0.246,-0.223l0.247,-0.222l0.247,-0.222l0.248,-0.22l0.249,-0.22l0.249,-0.22l0.25,-0.218l0.251,-0.218l0.251,-0.217l0.252,-0.217l0.253,-0.215l0.253,-0.215l0.254,-0.214l0.255,-0.214l0.255,-0.212l0.256,-0.212l0.257,-0.211l0.257,-0.21l0.258,-0.21l0.258,-0.209l0.259,-0.208l0.26,-0.207l0.26,-0.207l0.261,-0.206l0.262,-0.205l0.262,-0.204l0.263,-0.203l0.263,-0.203l0.265,-0.202l0.264,-0.201l0.266,-0.2l0.266,-0.2l0.266,-0.199l0.268,-0.198l0.267,-0.197l0.269,-0.197l0.269,-0.195l0.27,-0.195l0.27,-0.194l0.271,-0.194l0.271,-0.192l0.272,-0.192l0.273,-0.191l0.273,-0.19l0.274,-0.189l0.275,-0.189l0.275,-0.188l0.276,-0.186l0.276,-0.187l0.277,-0.185l0.277,-0.184l0.278,-0.184l0.279,-0.183l0.279,-0.182l0.28,-0.181l0.28,-0.181l0.281,-0.179l0.281,-0.179l0.283,-0.178l0.282,-0.177l0.283,-0.176l0.284,-0.176l0.285,-0.174l0.284,-0.174l0.286,-0.173l0.286,-0.172l0.287,-0.171l0.287,-0.171l0.287,-0.169l0.289,-0.169l0.289,-0.168l0.289,-0.167l0.29,-0.166l0.29,-0.166l0.291,-0.164l0.292,-0.164l0.292,-0.163l0.293,-0.162l0.293,-0.161l0.294,-0.16l0.294,-0.159l0.295,-0.159l0.295,-0.157l0.296,-0.157l0.296,-0.156l0.297,-0.155l0.298,-0.154l0.298,-0.154l0.298,-0.152l0.299,-0.151l0.3,-0.151l0.3,-0.15l0.3,-0.149l0.301,-0.148l0.302,-0.147l0.302,-0.146l0.303,-0.145l0.303,-0.145l0.303,-0.143l0.304,-0.143l0.305,-0.142l0.305,-0.141l0.306,-0.14l0.306,-0.139l0.307,-0.138l0.307,-0.137l0.307,-0.136l0.308,-0.136l0.309,-0.134l0.309,-0.134l0.31,-0.133l0.31,-0.132l0.31,-0.13l0.311,-0.13l0.312,-0.129l0.312,-0.129l0.312,-0.127l0.313,-0.126l0.313,-0.125l0.314,-0.125l0.314,-0.123l0.315,-0.123l0.315,-0.121l0.316,-0.121l0.316,-0.12l0.317,-0.119l0.317,-0.117l0.318,-0.117l0.318,-0.116l0.318,-0.115l0.319,-0.114l0.319,-0.114l0.32,-0.112l0.32,-0.111l0.321,-0.11l0.321,-0.11l0.322,-0.108l0.322,-0.107l0.322,-0.107l0.323,-0.105l0.323,-0.105l0.324,-0.103l0.324,-0.103l0.325,-0.101l0.325,-0.101l0.325,-0.1l0.326,-0.098l0.326,-0.098l0.327,-0.097l0.327,-0.096l0.328,-0.094l0.328,-0.094l0.328,-0.093l0.329,-0.092l0.329,-0.091l0.33,-0.089l0.33,-0.089l0.33,-0.088l0.331,-0.087l0.331,-0.086l0.332,-0.085l0.332,-0.083l0.332,-0.083l0.333,-0.082l0.333,-0.081l0.334,-0.08l0.334,-0.079l0.334,-0.077l0.335,-0.077l0.335,-0.076l0.335,-0.075l0.336,-0.074l0.337,-0.072l0.336,-0.072l0.337,-0.071l0.338,-0.069l0.337,-0.069l0.338,-0.068l0.339,-0.066l0.339,-0.066l0.339,-0.064l0.34,-0.064l0.34,-0.062l0.34,-0.062l0.341,-0.06l0.341,-0.059l0.341,-0.059l0.342,-0.057l0.342,-0.056l0.342,-0.055l0.343,-0.054l0.343,-0.053l0.344,-0.052l0.343,-0.051l0.345,-0.05l0.344,-0.049l0.345,-0.048l0.345,-0.046l0.346,-0.046l0.345,-0.045l0.346,-0.043l0.347,-0.043l0.347,-0.041l0.347,-0.04l0.347,-0.039l0.348,-0.039l0.348,-0.037l0.349,-0.036l0.348,-0.034l0.349,-0.034l0.35,-0.033l0.349,-0.032l0.35,-0.03l0.351,-0.03l0.35,-0.028l0.351,-0.027l0.351,-0.027l0.352,-0.025l0.352,-0.024l0.352,-0.023l0.352,-0.021l0.353,-0.021l0.353,-0.02l0.353,-0.018l0.353,-0.018l0.354,-0.016l0.354,-0.015l0.355,-0.014l0.354,-0.013l0.355,-0.012l0.356,-0.011l0.355,-0.009l0.356,-0.009l0.356,-0.007l0.356,-0.006l0.357,-0.005l0.357,-0.004l0.357,-0.003l0.357,-0.002l0.358,0l0.357,0Zm-0.705,3l-0.348,0.002l-0.348,0.003l-0.347,0.004l-0.347,0.004l-0.347,0.007l-0.347,0.007l-0.346,0.008l-0.346,0.009l-0.346,0.011l-0.345,0.011l-0.345,0.013l-0.345,0.013l-0.345,0.015l-0.344,0.016l-0.344,0.017l-0.344,0.018l-0.343,0.019l-0.343,0.02l-0.343,0.021l-0.343,0.023l-0.342,0.023l-0.342,0.024l-0.342,0.026l-0.341,0.026l-0.342,0.028l-0.34,0.029l-0.341,0.03l-0.34,0.03l-0.34,0.032l-0.34,0.033l-0.339,0.034l-0.339,0.035l-0.339,0.036l-0.338,0.037l-0.338,0.038l-0.338,0.04l-0.337,0.04l-0.337,0.041l-0.337,0.042l-0.336,0.044l-0.336,0.044l-0.336,0.046l-0.336,0.046l-0.335,0.048l-0.335,0.048l-0.334,0.05l-0.334,0.05l-0.334,0.052l-0.333,0.052l-0.334,0.054l-0.332,0.055l-0.333,0.055l-0.332,0.057l-0.332,0.058l-0.331,0.059l-0.331,0.059l-0.331,0.061l-0.33,0.062l-0.33,0.063l-0.33,0.063l-0.329,0.065l-0.329,0.066l-0.328,0.067l-0.329,0.067l-0.327,0.069l-0.328,0.07l-0.327,0.071l-0.327,0.071l-0.326,0.073l-0.326,0.074l-0.326,0.075l-0.325,0.075l-0.325,0.077l-0.324,0.078l-0.324,0.078l-0.324,0.08l-0.323,0.08l-0.323,0.082l-0.323,0.082l-0.322,0.084l-0.322,0.084l-0.321,0.086l-0.321,0.086l-0.321,0.088l-0.32,0.088l-0.32,0.089l-0.319,0.091l-0.319,0.091l-0.319,0.092l-0.318,0.093l-0.318,0.094l-0.317,0.095l-0.317,0.096l-0.316,0.097l-0.317,0.098l-0.315,0.099l-0.316,0.1l-0.314,0.1l-0.315,0.102l-0.314,0.103l-0.314,0.103l-0.313,0.105l-0.313,0.105l-0.312,0.106l-0.312,0.108l-0.311,0.108l-0.311,0.109l-0.311,0.11l-0.31,0.111l-0.31,0.112l-0.309,0.113l-0.309,0.113l-0.308,0.115l-0.308,0.115l-0.308,0.117l-0.307,0.117l-0.307,0.119l-0.306,0.119l-0.306,0.12l-0.305,0.121l-0.305,0.122l-0.304,0.123l-0.304,0.123l-0.303,0.125l-0.303,0.125l-0.303,0.127l-0.302,0.127l-0.302,0.128l-0.301,0.129l-0.3,0.13l-0.3,0.131l-0.3,0.132l-0.299,0.133l-0.299,0.133l-0.298,0.135l-0.298,0.135l-0.297,0.136l-0.297,0.137l-0.297,0.138l-0.295,0.139l-0.296,0.139l-0.295,0.141l-0.294,0.141l-0.294,0.142l-0.293,0.144l-0.293,0.144l-0.293,0.144l-0.291,0.146l-0.292,0.147l-0.291,0.147l-0.29,0.148l-0.29,0.149l-0.289,0.15l-0.289,0.151l-0.289,0.152l-0.287,0.152l-0.288,0.154l-0.286,0.154l-0.287,0.155l-0.286,0.156l-0.285,0.156l-0.284,0.158l-0.285,0.158l-0.283,0.16l-0.283,0.16l-0.283,0.161l-0.282,0.161l-0.282,0.163l-0.281,0.163l-0.28,0.164l-0.28,0.165l-0.279,0.166l-0.279,0.167l-0.278,0.167l-0.278,0.168l-0.277,0.17l-0.277,0.169l-0.276,0.171l-0.276,0.172l-0.275,0.172l-0.274,0.173l-0.274,0.174l-0.273,0.175l-0.273,0.175l-0.272,0.177l-0.272,0.177l-0.271,0.178l-0.271,0.178l-0.269,0.18l-0.27,0.18l-0.269,0.181l-0.268,0.182l-0.268,0.183l-0.267,0.183l-0.266,0.184l-0.266,0.185l-0.265,0.186l-0.265,0.187l-0.264,0.187l-0.264,0.188l-0.263,0.189l-0.262,0.19l-0.262,0.19l-0.261,0.191l-0.261,0.192l-0.26,0.193l-0.259,0.193l-0.259,0.194l-0.258,0.195l-0.258,0.196l-0.257,0.197l-0.256,0.197l-0.256,0.198l-0.255,0.199l-0.255,0.199l-0.254,0.2l-0.253,0.201l-0.253,0.202l-0.252,0.202l-0.252,0.204l-0.25,0.204l-0.251,0.204l-0.249,0.206l-0.249,0.206l-0.249,0.207l-0.247,0.207l-0.247,0.209l-0.247,0.209l-0.246,0.21l-0.245,0.21l-0.245,0.211l-0.243,0.212l-0.244,0.213l-0.242,0.213l-0.242,0.214l-0.242,0.215l-0.24,0.216l-0.24,0.216l-0.24,0.217l-0.239,0.218l-0.238,0.218l-0.237,0.219l-0.237,0.22l-0.236,0.22l-0.235,0.221l-0.235,0.222l-0.234,0.223l-0.234,0.223l-0.233,0.224l-0.232,0.225l-0.231,0.225l-0.231,0.226l-0.23,0.227l-0.229,0.227l-0.229,0.228l-0.228,0.229l-0.228,0.229l-0.226,0.23l-0.226,0.231l-0.226,0.232l-0.224,0.232l-0.224,0.232l-0.223,0.234l-0.223,0.234l-0.222,0.235l-0.221,0.235l-0.22,0.236l-0.22,0.237l-0.219,0.238l-0.219,0.238l-0.217,0.238l-0.217,0.24l-0.216,0.24l-0.216,0.24l-0.215,0.242l-0.214,0.242l-0.213,0.242l-0.213,0.244l-0.212,0.244l-0.211,0.244l-0.211,0.245l-0.209,0.246l-0.209,0.247l-0.209,0.247l-0.207,0.248l-0.207,0.248l-0.206,0.249l-0.206,0.25l-0.205,0.25l-0.204,0.251l-0.203,0.251l-0.202,0.252l-0.202,0.253l-0.201,0.253l-0.2,0.254l-0.2,0.255l-0.198,0.255l-0.198,0.256l-0.198,0.256l-0.196,0.257l-0.196,0.258l-0.195,0.258l-0.194,0.259l-0.193,0.259l-0.193,0.26l-0.192,0.261l-0.191,0.261l-0.191,0.262l-0.189,0.262l-0.189,0.263l-0.188,0.264l-0.188,0.264l-0.186,0.265l-0.186,0.265l-0.185,0.266l-0.184,0.267l-0.184,0.267l-0.182,0.267l-0.182,0.268l-0.181,0.269l-0.18,0.27l-0.18,0.27l-0.179,0.27l-0.177,0.271l-0.178,0.272l-0.176,0.272l-0.175,0.273l-0.175,0.273l-0.174,0.274l-0.173,0.274l-0.173,0.275l-0.171,0.276l-0.171,0.276l-0.17,0.277l-0.169,0.277l-0.168,0.278l-0.167,0.278l-0.167,0.279l-0.166,0.279l-0.165,0.28l-0.164,0.281l-0.163,0.281l-0.163,0.281l-0.162,0.282l-0.16,0.283l-0.161,0.283l-0.159,0.284l-0.158,0.284l-0.158,0.284l-0.156,0.286l-0.156,0.285l-0.155,0.287l-0.154,0.286l-0.154,0.288l-0.152,0.288l-0.152,0.288l-0.151,0.289l-0.15,0.289l-0.149,0.29l-0.148,0.29l-0.148,0.291l-0.146,0.292l-0.146,0.292l-0.145,0.292l-0.144,0.293l-0.143,0.293l-0.142,0.294l-0.141,0.294l-0.141,0.295l-0.139,0.296l-0.139,0.296l-0.138,0.296l-0.137,0.297l-0.136,0.297l-0.136,0.298l-0.134,0.298l-0.134,0.299l-0.132,0.299l-0.132,0.3l-0.131,0.3l-0.13,0.3l-0.129,0.302l-0.128,0.301l-0.127,0.302l-0.127,0.303l-0.125,0.303l-0.125,0.303l-0.124,0.304l-0.122,0.304l-0.122,0.305l-0.121,0.306l-0.12,0.305l-0.12,0.306l-0.118,0.307l-0.117,0.307l-0.117,0.308l-0.115,0.308l-0.115,0.308l-0.114,0.309l-0.112,0.309l-0.112,0.31l-0.111,0.31l-0.11,0.311l-0.109,0.311l-0.109,0.311l-0.107,0.312l-0.106,0.313l-0.106,0.312l-0.104,0.314l-0.104,0.313l-0.102,0.314l-0.102,0.315l-0.101,0.315l-0.099,0.315l-0.099,0.316l-0.098,0.316l-0.097,0.316l-0.096,0.317l-0.095,0.318l-0.094,0.317l-0.093,0.319l-0.092,0.318l-0.092,0.319l-0.09,0.32l-0.089,0.319l-0.088,0.321l-0.088,0.32l-0.086,0.321l-0.086,0.322l-0.084,0.321l-0.084,0.322l-0.082,0.323l-0.082,0.323l-0.08,0.323l-0.08,0.324l-0.079,0.324l-0.077,0.325l-0.077,0.324l-0.076,0.326l-0.074,0.325l-0.074,0.326l-0.073,0.327l-0.072,0.326l-0.07,0.327l-0.07,0.328l-0.069,0.328l-0.068,0.328l-0.066,0.328l-0.066,0.329l-0.065,0.33l-0.064,0.329l-0.062,0.33l-0.062,0.33l-0.061,0.331l-0.06,0.331l-0.058,0.332l-0.058,0.331l-0.057,0.332l-0.055,0.333l-0.055,0.333l-0.054,0.333l-0.052,0.333l-0.052,0.334l-0.051,0.334l-0.049,0.335l-0.049,0.334l-0.047,0.335l-0.047,0.336l-0.045,0.336l-0.044,0.336l-0.044,0.336l-0.042,0.337l-0.041,0.337l-0.041,0.337l-0.039,0.338l-0.038,0.338l-0.037,0.339l-0.036,0.338l-0.035,0.339l-0.034,0.34l-0.033,0.339l-0.032,0.34l-0.031,0.34l-0.029,0.341l-0.029,0.341l-0.028,0.341l-0.026,0.341l-0.026,0.342l-0.024,0.342l-0.024,0.342l-0.022,0.343l-0.021,0.343l-0.02,0.343l-0.019,0.343l-0.018,0.344l-0.017,0.344l-0.016,0.345l-0.015,0.344l-0.013,0.345l-0.013,0.345l-0.012,0.346l-0.01,0.345l-0.009,0.346l-0.009,0.347l-0.007,0.346l-0.006,0.347l-0.005,0.347l-0.004,0.347l-0.002,0.348l-0.002,0.348l0,0.348l0,0.348l0.002,0.348l0.002,0.348l0.004,0.347l0.005,0.347l0.006,0.347l0.007,0.346l0.009,0.347l0.009,0.346l0.01,0.345l0.012,0.346l0.013,0.345l0.013,0.345l0.015,0.344l0.016,0.345l0.017,0.344l0.018,0.344l0.019,0.343l0.02,0.343l0.021,0.343l0.022,0.343l0.024,0.342l0.024,0.342l0.026,0.342l0.026,0.341l0.028,0.341l0.029,0.341l0.029,0.341l0.031,0.34l0.032,0.34l0.033,0.339l0.034,0.34l0.035,0.339l0.036,0.338l0.037,0.339l0.038,0.338l0.039,0.337l0.041,0.338l0.041,0.337l0.042,0.337l0.044,0.336l0.044,0.336l0.045,0.336l0.047,0.336l0.047,0.335l0.049,0.334l0.049,0.335l0.051,0.334l0.052,0.334l0.052,0.333l0.054,0.333l0.055,0.333l0.055,0.333l0.057,0.332l0.058,0.331l0.058,0.332l0.06,0.331l0.061,0.331l0.062,0.33l0.062,0.33l0.064,0.329l0.065,0.33l0.066,0.329l0.066,0.328l0.068,0.328l0.069,0.328l0.07,0.328l0.07,0.327l0.072,0.326l0.073,0.327l0.074,0.326l0.074,0.325l0.076,0.326l0.077,0.324l0.077,0.325l0.079,0.324l0.08,0.324l0.08,0.323l0.082,0.323l0.082,0.323l0.084,0.322l0.084,0.321l0.086,0.322l0.086,0.321l0.088,0.32l0.088,0.321l0.089,0.319l0.09,0.32l0.092,0.319l0.092,0.318l0.093,0.319l0.094,0.317l0.095,0.318l0.096,0.317l0.097,0.316l0.098,0.316l0.099,0.316l0.099,0.315l0.101,0.315l0.102,0.315l0.102,0.314l0.104,0.313l0.104,0.314l0.106,0.312l0.106,0.313l0.107,0.312l0.109,0.311l0.109,0.311l0.11,0.311l0.111,0.31l0.112,0.31l0.112,0.309l0.114,0.309l0.115,0.308l0.115,0.308l0.117,0.308l0.117,0.307l0.118,0.306l0.12,0.307l0.12,0.305l0.121,0.306l0.122,0.305l0.122,0.304l0.124,0.304l0.125,0.303l0.125,0.303l0.127,0.303l0.127,0.302l0.128,0.301l0.129,0.301l0.13,0.301l0.131,0.3l0.132,0.3l0.132,0.299l0.134,0.299l0.134,0.298l0.136,0.298l0.136,0.297l0.137,0.297l0.138,0.296l0.139,0.296l0.139,0.296l0.141,0.294l0.141,0.295l0.142,0.294l0.143,0.293l0.144,0.293l0.145,0.292l0.146,0.292l0.146,0.292l0.148,0.291l0.148,0.29l0.149,0.29l0.15,0.289l0.151,0.289l0.152,0.288l0.152,0.288l0.154,0.287l0.154,0.287l0.155,0.287l0.156,0.285l0.156,0.285l0.158,0.285l0.158,0.284l0.159,0.284l0.161,0.283l0.16,0.283l0.162,0.282l0.163,0.281l0.163,0.281l0.164,0.281l0.165,0.28l0.166,0.279l0.167,0.279l0.167,0.278l0.168,0.278l0.169,0.277l0.17,0.277l0.171,0.276l0.171,0.275l0.173,0.275l0.173,0.275l0.174,0.274l0.175,0.273l0.175,0.273l0.176,0.272l0.178,0.272l0.177,0.271l0.179,0.27l0.18,0.27l0.18,0.27l0.181,0.268l0.182,0.269l0.182,0.267l0.184,0.267l0.184,0.267l0.185,0.266l0.186,0.265l0.186,0.265l0.188,0.264l0.188,0.264l0.189,0.263l0.189,0.262l0.191,0.262l0.191,0.261l0.192,0.261l0.193,0.26l0.193,0.259l0.194,0.259l0.195,0.258l0.196,0.258l0.196,0.257l0.198,0.256l0.198,0.256l0.198,0.255l0.2,0.255l0.2,0.254l0.201,0.253l0.202,0.253l0.202,0.252l0.203,0.251l0.204,0.251l0.205,0.25l0.206,0.25l0.206,0.249l0.207,0.248l0.207,0.248l0.209,0.247l0.209,0.247l0.209,0.246l0.211,0.245l0.211,0.244l0.212,0.244l0.213,0.243l0.213,0.243l0.214,0.242l0.215,0.241l0.216,0.241l0.216,0.24l0.217,0.24l0.217,0.238l0.219,0.238l0.219,0.238l0.22,0.237l0.22,0.236l0.221,0.235l0.222,0.235l0.223,0.234l0.223,0.234l0.224,0.232l0.224,0.232l0.226,0.232l0.226,0.231l0.226,0.23l0.228,0.229l0.228,0.229l0.229,0.228l0.229,0.227l0.23,0.227l0.231,0.226l0.231,0.225l0.232,0.225l0.233,0.224l0.234,0.223l0.234,0.223l0.235,0.222l0.235,0.221l0.236,0.22l0.237,0.22l0.237,0.219l0.238,0.218l0.239,0.218l0.24,0.217l0.24,0.216l0.24,0.216l0.242,0.215l0.242,0.214l0.242,0.213l0.244,0.213l0.243,0.212l0.245,0.211l0.245,0.21l0.246,0.21l0.247,0.209l0.247,0.209l0.247,0.207l0.249,0.207l0.249,0.206l0.249,0.206l0.251,0.204l0.25,0.204l0.252,0.203l0.252,0.203l0.253,0.202l0.253,0.201l0.254,0.2l0.255,0.199l0.255,0.199l0.256,0.198l0.256,0.197l0.257,0.197l0.258,0.196l0.258,0.195l0.259,0.194l0.259,0.193l0.26,0.193l0.261,0.192l0.261,0.191l0.262,0.19l0.262,0.19l0.263,0.189l0.264,0.188l0.264,0.187l0.265,0.187l0.265,0.186l0.266,0.185l0.266,0.184l0.268,0.183l0.267,0.183l0.268,0.182l0.269,0.181l0.27,0.18l0.269,0.18l0.271,0.178l0.271,0.178l0.272,0.177l0.272,0.177l0.273,0.175l0.273,0.175l0.274,0.174l0.274,0.173l0.275,0.172l0.276,0.172l0.276,0.17l0.277,0.17l0.277,0.169l0.278,0.169l0.278,0.167l0.279,0.167l0.279,0.166l0.28,0.165l0.28,0.164l0.281,0.163l0.282,0.163l0.282,0.161l0.283,0.161l0.283,0.16l0.283,0.16l0.285,0.158l0.284,0.157l0.286,0.157l0.285,0.156l0.287,0.155l0.286,0.154l0.288,0.154l0.287,0.152l0.289,0.152l0.289,0.151l0.289,0.15l0.29,0.149l0.29,0.148l0.291,0.147l0.292,0.147l0.291,0.146l0.293,0.144l0.293,0.144l0.293,0.143l0.294,0.143l0.294,0.141l0.295,0.141l0.296,0.139l0.295,0.139l0.297,0.138l0.297,0.137l0.297,0.136l0.298,0.135l0.298,0.135l0.299,0.133l0.299,0.133l0.3,0.132l0.3,0.131l0.3,0.13l0.301,0.129l0.302,0.128l0.302,0.127l0.303,0.126l0.303,0.126l0.303,0.125l0.304,0.123l0.304,0.123l0.305,0.122l0.305,0.121l0.306,0.12l0.306,0.119l0.307,0.119l0.307,0.117l0.308,0.117l0.307,0.115l0.309,0.115l0.309,0.113l0.309,0.113l0.31,0.112l0.31,0.111l0.311,0.11l0.311,0.109l0.311,0.108l0.312,0.108l0.312,0.106l0.313,0.105l0.313,0.105l0.314,0.103l0.314,0.103l0.315,0.102l0.314,0.1l0.316,0.1l0.315,0.099l0.317,0.098l0.316,0.097l0.317,0.096l0.317,0.095l0.318,0.094l0.318,0.093l0.319,0.092l0.319,0.091l0.319,0.091l0.32,0.089l0.32,0.088l0.321,0.088l0.321,0.086l0.321,0.085l0.322,0.085l0.322,0.083l0.323,0.083l0.323,0.082l0.323,0.08l0.324,0.08l0.324,0.078l0.324,0.078l0.325,0.077l0.325,0.075l0.326,0.075l0.326,0.074l0.326,0.073l0.327,0.071l0.327,0.071l0.328,0.07l0.327,0.069l0.329,0.067l0.328,0.067l0.329,0.066l0.329,0.065l0.33,0.063l0.33,0.063l0.33,0.062l0.331,0.061l0.331,0.059l0.331,0.059l0.332,0.058l0.332,0.057l0.333,0.055l0.332,0.055l0.334,0.054l0.333,0.052l0.334,0.052l0.334,0.05l0.334,0.05l0.335,0.048l0.335,0.048l0.336,0.046l0.336,0.046l0.336,0.044l0.336,0.044l0.337,0.042l0.337,0.041l0.337,0.04l0.338,0.04l0.338,0.038l0.338,0.037l0.339,0.036l0.339,0.035l0.339,0.034l0.34,0.033l0.34,0.032l0.34,0.03l0.341,0.03l0.34,0.029l0.342,0.027l0.341,0.027l0.342,0.026l0.342,0.024l0.342,0.023l0.343,0.023l0.343,0.021l0.343,0.02l0.343,0.019l0.344,0.018l0.344,0.017l0.344,0.016l0.345,0.015l0.345,0.013l0.345,0.013l0.346,0.011l0.345,0.011l0.346,0.009l0.346,0.008l0.347,0.007l0.347,0.006l0.347,0.005l0.347,0.004l0.348,0.003l0.348,0.002l0.348,0l0.348,0l0.348,-0.002l0.347,-0.003l0.348,-0.004l0.347,-0.005l0.347,-0.006l0.346,-0.007l0.346,-0.008l0.346,-0.009l0.346,-0.011l0.346,-0.011l0.345,-0.013l0.345,-0.013l0.344,-0.015l0.345,-0.016l0.344,-0.017l0.343,-0.018l0.344,-0.019l0.343,-0.02l0.343,-0.021l0.343,-0.023l0.342,-0.023l0.342,-0.024l0.342,-0.026l0.341,-0.027l0.341,-0.027l0.341,-0.029l0.341,-0.03l0.34,-0.03l0.34,-0.032l0.339,-0.033l0.34,-0.034l0.338,-0.035l0.339,-0.036l0.339,-0.037l0.338,-0.038l0.337,-0.04l0.338,-0.04l0.337,-0.041l0.337,-0.042l0.336,-0.044l0.336,-0.044l0.336,-0.046l0.335,-0.046l0.335,-0.048l0.335,-0.048l0.335,-0.05l0.334,-0.05l0.334,-0.052l0.333,-0.052l0.333,-0.054l0.333,-0.055l0.332,-0.055l0.332,-0.057l0.332,-0.058l0.332,-0.059l0.331,-0.059l0.33,-0.061l0.331,-0.062l0.33,-0.063l0.329,-0.063l0.33,-0.065l0.328,-0.066l0.329,-0.067l0.328,-0.067l0.328,-0.069l0.327,-0.07l0.328,-0.071l0.326,-0.071l0.327,-0.073l0.326,-0.074l0.325,-0.075l0.325,-0.075l0.325,-0.077l0.325,-0.078l0.324,-0.078l0.323,-0.08l0.324,-0.08l0.323,-0.082l0.322,-0.083l0.322,-0.083l0.322,-0.085l0.322,-0.085l0.321,-0.086l0.32,-0.088l0.32,-0.088l0.32,-0.089l0.32,-0.091l0.319,-0.091l0.318,-0.092l0.318,-0.093l0.318,-0.094l0.318,-0.095l0.317,-0.096l0.316,-0.097l0.316,-0.098l0.316,-0.099l0.315,-0.1l0.315,-0.1l0.315,-0.102l0.314,-0.103l0.313,-0.103l0.313,-0.105l0.313,-0.105l0.313,-0.106l0.311,-0.108l0.312,-0.108l0.311,-0.109l0.311,-0.11l0.31,-0.111l0.31,-0.112l0.309,-0.113l0.309,-0.113l0.308,-0.115l0.308,-0.115l0.308,-0.117l0.307,-0.117l0.306,-0.119l0.307,-0.119l0.305,-0.12l0.306,-0.121l0.304,-0.122l0.305,-0.123l0.304,-0.123l0.303,-0.125l0.303,-0.126l0.303,-0.126l0.302,-0.127l0.301,-0.128l0.301,-0.129l0.301,-0.13l0.3,-0.131l0.3,-0.132l0.299,-0.133l0.299,-0.133l0.298,-0.135l0.298,-0.135l0.297,-0.136l0.297,-0.137l0.296,-0.138l0.296,-0.139l0.295,-0.139l0.295,-0.141l0.295,-0.141l0.294,-0.143l0.293,-0.143l0.293,-0.144l0.292,-0.144l0.292,-0.146l0.292,-0.147l0.29,-0.147l0.291,-0.148l0.29,-0.149l0.289,-0.15l0.289,-0.151l0.288,-0.152l0.288,-0.152l0.287,-0.154l0.287,-0.154l0.286,-0.155l0.286,-0.156l0.285,-0.157l0.285,-0.157l0.284,-0.158l0.284,-0.16l0.283,-0.16l0.283,-0.161l0.282,-0.161l0.281,-0.163l0.281,-0.163l0.281,-0.164l0.28,-0.165l0.279,-0.166l0.279,-0.167l0.278,-0.167l0.278,-0.169l0.277,-0.169l0.277,-0.17l0.276,-0.17l0.275,-0.172l0.275,-0.172l0.275,-0.173l0.274,-0.174l0.273,-0.175l0.273,-0.175l0.272,-0.177l0.272,-0.177l0.271,-0.178l0.27,-0.178l0.27,-0.18l0.269,-0.18l0.269,-0.181l0.269,-0.182l0.267,-0.183l0.267,-0.183l0.267,-0.184l0.266,-0.185l0.265,-0.186l0.265,-0.187l0.264,-0.187l0.263,-0.188l0.263,-0.189l0.263,-0.19l0.262,-0.19l0.261,-0.191l0.26,-0.192l0.261,-0.193l0.259,-0.193l0.259,-0.194l0.258,-0.195l0.258,-0.196l0.257,-0.197l0.256,-0.197l0.256,-0.198l0.255,-0.199l0.255,-0.199l0.253,-0.2l0.254,-0.201l0.253,-0.202l0.252,-0.203l0.251,-0.203l0.251,-0.204l0.25,-0.204l0.25,-0.206l0.249,-0.206l0.248,-0.207l0.248,-0.207l0.247,-0.209l0.247,-0.209l0.245,-0.21l0.246,-0.21l0.244,-0.211l0.244,-0.212l0.243,-0.213l0.243,-0.213l0.242,-0.214l0.241,-0.215l0.241,-0.216l0.24,-0.216l0.239,-0.217l0.239,-0.218l0.238,-0.218l0.238,-0.219l0.236,-0.22l0.237,-0.22l0.235,-0.221l0.235,-0.222l0.234,-0.223l0.233,-0.223l0.233,-0.224l0.232,-0.225l0.232,-0.225l0.23,-0.226l0.231,-0.227l0.229,-0.227l0.229,-0.228l0.228,-0.229l0.227,-0.229l0.227,-0.23l0.226,-0.231l0.225,-0.232l0.225,-0.232l0.224,-0.233l0.223,-0.233l0.222,-0.234l0.222,-0.235l0.222,-0.235l0.22,-0.236l0.22,-0.237l0.219,-0.238l0.218,-0.238l0.218,-0.238l0.217,-0.24l0.216,-0.24l0.216,-0.241l0.214,-0.241l0.215,-0.242l0.213,-0.243l0.213,-0.243l0.211,-0.244l0.212,-0.244l0.21,-0.245l0.21,-0.246l0.209,-0.247l0.209,-0.247l0.207,-0.248l0.207,-0.248l0.206,-0.249l0.206,-0.25l0.204,-0.25l0.204,-0.251l0.203,-0.251l0.203,-0.252l0.202,-0.253l0.201,-0.253l0.2,-0.254l0.199,-0.255l0.199,-0.255l0.198,-0.256l0.197,-0.256l0.197,-0.257l0.195,-0.258l0.195,-0.258l0.195,-0.259l0.193,-0.259l0.193,-0.26l0.192,-0.261l0.191,-0.261l0.19,-0.262l0.19,-0.262l0.189,-0.263l0.188,-0.264l0.187,-0.264l0.187,-0.265l0.185,-0.265l0.186,-0.266l0.184,-0.267l0.183,-0.267l0.183,-0.267l0.182,-0.269l0.181,-0.268l0.18,-0.27l0.179,-0.27l0.179,-0.27l0.178,-0.271l0.177,-0.272l0.177,-0.272l0.175,-0.273l0.175,-0.273l0.174,-0.274l0.173,-0.275l0.172,-0.275l0.172,-0.275l0.17,-0.276l0.17,-0.277l0.169,-0.277l0.169,-0.278l0.167,-0.278l0.167,-0.279l0.165,-0.279l0.166,-0.28l0.164,-0.281l0.163,-0.281l0.163,-0.281l0.161,-0.282l0.161,-0.283l0.16,-0.283l0.159,-0.284l0.159,-0.284l0.157,-0.284l0.157,-0.286l0.156,-0.285l0.155,-0.287l0.154,-0.287l0.153,-0.287l0.153,-0.288l0.152,-0.288l0.15,-0.289l0.15,-0.289l0.15,-0.29l0.148,-0.291l0.147,-0.29l0.147,-0.292l0.145,-0.292l0.145,-0.292l0.144,-0.293l0.143,-0.293l0.143,-0.294l0.141,-0.295l0.14,-0.294l0.14,-0.296l0.139,-0.296l0.138,-0.296l0.137,-0.297l0.136,-0.297l0.135,-0.298l0.135,-0.298l0.133,-0.299l0.133,-0.299l0.132,-0.3l0.13,-0.3l0.13,-0.301l0.129,-0.301l0.129,-0.301l0.127,-0.302l0.126,-0.303l0.126,-0.303l0.124,-0.303l0.124,-0.304l0.123,-0.304l0.122,-0.305l0.121,-0.306l0.12,-0.305l0.119,-0.307l0.119,-0.306l0.117,-0.307l0.116,-0.308l0.116,-0.308l0.115,-0.308l0.113,-0.309l0.113,-0.309l0.112,-0.31l0.111,-0.31l0.11,-0.311l0.109,-0.311l0.108,-0.311l0.107,-0.312l0.107,-0.313l0.105,-0.312l0.105,-0.314l0.103,-0.313l0.103,-0.314l0.101,-0.315l0.101,-0.315l0.1,-0.315l0.099,-0.316l0.098,-0.316l0.097,-0.316l0.096,-0.317l0.095,-0.318l0.094,-0.318l0.093,-0.318l0.092,-0.318l0.091,-0.319l0.09,-0.32l0.09,-0.319l0.088,-0.321l0.087,-0.32l0.087,-0.321l0.085,-0.322l0.085,-0.321l0.083,-0.322l0.083,-0.323l0.081,-0.323l0.081,-0.323l0.08,-0.324l0.078,-0.324l0.078,-0.325l0.077,-0.324l0.075,-0.326l0.075,-0.325l0.074,-0.326l0.072,-0.327l0.072,-0.326l0.071,-0.327l0.07,-0.328l0.068,-0.328l0.068,-0.328l0.067,-0.328l0.066,-0.329l0.065,-0.33l0.063,-0.329l0.063,-0.33l0.062,-0.33l0.06,-0.331l0.06,-0.331l0.059,-0.332l0.058,-0.331l0.056,-0.332l0.056,-0.333l0.055,-0.333l0.053,-0.333l0.053,-0.333l0.052,-0.334l0.05,-0.334l0.05,-0.335l0.048,-0.334l0.048,-0.335l0.046,-0.336l0.046,-0.336l0.044,-0.336l0.043,-0.336l0.043,-0.337l0.041,-0.337l0.04,-0.338l0.039,-0.337l0.039,-0.338l0.037,-0.339l0.036,-0.338l0.035,-0.339l0.034,-0.34l0.033,-0.339l0.032,-0.34l0.03,-0.34l0.03,-0.341l0.029,-0.341l0.027,-0.341l0.027,-0.341l0.025,-0.342l0.025,-0.342l0.023,-0.342l0.022,-0.343l0.022,-0.343l0.02,-0.343l0.019,-0.343l0.018,-0.344l0.017,-0.344l0.016,-0.345l0.014,-0.344l0.014,-0.345l0.013,-0.345l0.011,-0.346l0.011,-0.345l0.009,-0.346l0.008,-0.347l0.007,-0.346l0.006,-0.347l0.005,-0.347l0.004,-0.347l0.003,-0.348l0.002,-0.348l0,-0.348l0,-0.348l-0.002,-0.348l-0.003,-0.348l-0.004,-0.347l-0.005,-0.347l-0.006,-0.347l-0.007,-0.346l-0.008,-0.347l-0.009,-0.346l-0.011,-0.345l-0.011,-0.346l-0.013,-0.345l-0.014,-0.345l-0.014,-0.345l-0.016,-0.344l-0.017,-0.344l-0.018,-0.344l-0.019,-0.343l-0.02,-0.343l-0.022,-0.343l-0.022,-0.343l-0.023,-0.342l-0.025,-0.342l-0.025,-0.342l-0.027,-0.341l-0.027,-0.341l-0.029,-0.341l-0.03,-0.341l-0.03,-0.34l-0.032,-0.34l-0.033,-0.339l-0.034,-0.34l-0.035,-0.339l-0.036,-0.338l-0.037,-0.339l-0.039,-0.338l-0.039,-0.338l-0.04,-0.337l-0.041,-0.337l-0.043,-0.337l-0.043,-0.336l-0.044,-0.336l-0.046,-0.336l-0.046,-0.336l-0.048,-0.335l-0.048,-0.334l-0.05,-0.335l-0.05,-0.334l-0.052,-0.334l-0.053,-0.333l-0.053,-0.333l-0.055,-0.333l-0.056,-0.333l-0.056,-0.332l-0.058,-0.331l-0.059,-0.332l-0.06,-0.331l-0.06,-0.331l-0.062,-0.33l-0.063,-0.33l-0.063,-0.329l-0.065,-0.33l-0.066,-0.329l-0.067,-0.328l-0.068,-0.328l-0.068,-0.328l-0.07,-0.328l-0.071,-0.327l-0.072,-0.326l-0.072,-0.327l-0.074,-0.326l-0.075,-0.325l-0.075,-0.326l-0.077,-0.324l-0.078,-0.325l-0.078,-0.324l-0.08,-0.324l-0.081,-0.323l-0.081,-0.323l-0.083,-0.323l-0.083,-0.322l-0.085,-0.321l-0.085,-0.322l-0.087,-0.321l-0.087,-0.32l-0.088,-0.321l-0.09,-0.319l-0.09,-0.32l-0.091,-0.319l-0.092,-0.318l-0.093,-0.319l-0.094,-0.317l-0.095,-0.318l-0.096,-0.317l-0.097,-0.316l-0.098,-0.316l-0.099,-0.316l-0.1,-0.315l-0.101,-0.315l-0.101,-0.315l-0.103,-0.314l-0.103,-0.313l-0.105,-0.314l-0.105,-0.312l-0.107,-0.313l-0.107,-0.312l-0.108,-0.311l-0.109,-0.311l-0.11,-0.311l-0.111,-0.31l-0.112,-0.31l-0.113,-0.309l-0.113,-0.309l-0.115,-0.308l-0.116,-0.308l-0.116,-0.308l-0.117,-0.307l-0.119,-0.307l-0.119,-0.306l-0.12,-0.305l-0.121,-0.306l-0.122,-0.305l-0.123,-0.304l-0.124,-0.304l-0.124,-0.303l-0.126,-0.303l-0.126,-0.303l-0.127,-0.302l-0.129,-0.301l-0.129,-0.301l-0.13,-0.301l-0.13,-0.3l-0.132,-0.3l-0.133,-0.299l-0.133,-0.299l-0.135,-0.298l-0.135,-0.298l-0.136,-0.297l-0.137,-0.297l-0.138,-0.296l-0.139,-0.296l-0.14,-0.296l-0.14,-0.294l-0.141,-0.295l-0.143,-0.294l-0.143,-0.293l-0.144,-0.293l-0.145,-0.292l-0.145,-0.292l-0.147,-0.292l-0.147,-0.291l-0.148,-0.29l-0.15,-0.29l-0.15,-0.289l-0.15,-0.289l-0.152,-0.288l-0.153,-0.288l-0.153,-0.288l-0.154,-0.286l-0.155,-0.287l-0.156,-0.285l-0.157,-0.286l-0.157,-0.284l-0.159,-0.284l-0.159,-0.284l-0.16,-0.283l-0.161,-0.283l-0.161,-0.282l-0.163,-0.281l-0.163,-0.281l-0.164,-0.281l-0.166,-0.28l-0.165,-0.279l-0.167,-0.279l-0.167,-0.278l-0.169,-0.278l-0.169,-0.277l-0.17,-0.277l-0.17,-0.276l-0.172,-0.275l-0.172,-0.276l-0.173,-0.274l-0.174,-0.274l-0.175,-0.273l-0.175,-0.273l-0.177,-0.272l-0.177,-0.272l-0.178,-0.271l-0.179,-0.27l-0.179,-0.27l-0.18,-0.27l-0.181,-0.268l-0.182,-0.269l-0.183,-0.267l-0.183,-0.267l-0.184,-0.267l-0.186,-0.266l-0.185,-0.265l-0.187,-0.265l-0.187,-0.264l-0.188,-0.264l-0.189,-0.263l-0.19,-0.262l-0.19,-0.262l-0.191,-0.261l-0.192,-0.261l-0.193,-0.26l-0.193,-0.259l-0.195,-0.259l-0.195,-0.258l-0.195,-0.258l-0.197,-0.257l-0.197,-0.256l-0.198,-0.256l-0.199,-0.255l-0.199,-0.255l-0.201,-0.254l-0.2,-0.253l-0.202,-0.253l-0.203,-0.252l-0.203,-0.251l-0.204,-0.251l-0.204,-0.25l-0.206,-0.25l-0.206,-0.249l-0.207,-0.248l-0.208,-0.248l-0.208,-0.247l-0.209,-0.247l-0.21,-0.246l-0.21,-0.245l-0.212,-0.244l-0.211,-0.244l-0.213,-0.244l-0.213,-0.242l-0.215,-0.242l-0.214,-0.242l-0.216,-0.24l-0.216,-0.24l-0.217,-0.24l-0.218,-0.238l-0.218,-0.238l-0.219,-0.238l-0.22,-0.237l-0.22,-0.236l-0.222,-0.235l-0.222,-0.235l-0.222,-0.234l-0.223,-0.234l-0.224,-0.232l-0.225,-0.233l-0.225,-0.231l-0.226,-0.231l-0.227,-0.23l-0.227,-0.229l-0.228,-0.229l-0.229,-0.228l-0.229,-0.227l-0.231,-0.227l-0.23,-0.226l-0.232,-0.225l-0.232,-0.225l-0.233,-0.224l-0.233,-0.223l-0.234,-0.223l-0.235,-0.222l-0.235,-0.221l-0.237,-0.22l-0.236,-0.22l-0.238,-0.219l-0.238,-0.218l-0.239,-0.218l-0.239,-0.217l-0.24,-0.216l-0.241,-0.216l-0.241,-0.215l-0.242,-0.214l-0.243,-0.213l-0.243,-0.213l-0.244,-0.212l-0.244,-0.211l-0.246,-0.21l-0.245,-0.21l-0.247,-0.209l-0.247,-0.209l-0.248,-0.207l-0.248,-0.207l-0.249,-0.206l-0.25,-0.206l-0.25,-0.204l-0.251,-0.204l-0.251,-0.204l-0.252,-0.202l-0.253,-0.202l-0.254,-0.201l-0.253,-0.2l-0.255,-0.199l-0.255,-0.199l-0.256,-0.198l-0.256,-0.197l-0.257,-0.197l-0.258,-0.196l-0.258,-0.195l-0.259,-0.194l-0.259,-0.193l-0.261,-0.193l-0.26,-0.192l-0.261,-0.191l-0.262,-0.19l-0.263,-0.19l-0.263,-0.189l-0.263,-0.188l-0.264,-0.187l-0.265,-0.187l-0.265,-0.186l-0.266,-0.185l-0.267,-0.184l-0.267,-0.183l-0.267,-0.183l-0.269,-0.182l-0.269,-0.181l-0.269,-0.18l-0.27,-0.18l-0.27,-0.178l-0.271,-0.178l-0.272,-0.177l-0.272,-0.177l-0.273,-0.175l-0.273,-0.175l-0.274,-0.174l-0.275,-0.173l-0.275,-0.172l-0.275,-0.172l-0.276,-0.171l-0.277,-0.169l-0.277,-0.17l-0.278,-0.168l-0.278,-0.167l-0.279,-0.167l-0.279,-0.166l-0.28,-0.165l-0.281,-0.164l-0.281,-0.163l-0.281,-0.163l-0.282,-0.161l-0.283,-0.161l-0.283,-0.16l-0.284,-0.16l-0.284,-0.158l-0.285,-0.158l-0.285,-0.156l-0.286,-0.156l-0.286,-0.155l-0.287,-0.154l-0.287,-0.154l-0.288,-0.152l-0.288,-0.152l-0.289,-0.151l-0.289,-0.15l-0.29,-0.149l-0.291,-0.148l-0.29,-0.147l-0.292,-0.147l-0.292,-0.146l-0.292,-0.144l-0.293,-0.144l-0.293,-0.144l-0.294,-0.142l-0.295,-0.141l-0.295,-0.141l-0.295,-0.139l-0.296,-0.139l-0.296,-0.138l-0.297,-0.137l-0.297,-0.136l-0.298,-0.135l-0.298,-0.135l-0.299,-0.133l-0.299,-0.133l-0.3,-0.132l-0.3,-0.131l-0.301,-0.13l-0.301,-0.129l-0.301,-0.128l-0.302,-0.127l-0.303,-0.127l-0.303,-0.125l-0.303,-0.125l-0.304,-0.123l-0.305,-0.123l-0.304,-0.122l-0.306,-0.121l-0.305,-0.12l-0.307,-0.119l-0.306,-0.119l-0.307,-0.117l-0.308,-0.117l-0.308,-0.115l-0.308,-0.115l-0.309,-0.114l-0.309,-0.112l-0.31,-0.112l-0.31,-0.111l-0.311,-0.11l-0.311,-0.109l-0.312,-0.108l-0.311,-0.108l-0.313,-0.106l-0.313,-0.105l-0.313,-0.105l-0.313,-0.103l-0.314,-0.103l-0.315,-0.102l-0.315,-0.1l-0.315,-0.1l-0.316,-0.099l-0.316,-0.098l-0.316,-0.097l-0.317,-0.096l-0.318,-0.095l-0.318,-0.094l-0.318,-0.093l-0.318,-0.092l-0.319,-0.091l-0.32,-0.091l-0.32,-0.089l-0.32,-0.088l-0.32,-0.088l-0.321,-0.086l-0.322,-0.086l-0.321,-0.084l-0.323,-0.084l-0.322,-0.082l-0.323,-0.082l-0.323,-0.08l-0.324,-0.08l-0.324,-0.078l-0.325,-0.078l-0.325,-0.077l-0.325,-0.075l-0.325,-0.075l-0.326,-0.074l-0.327,-0.073l-0.326,-0.071l-0.328,-0.071l-0.327,-0.07l-0.328,-0.069l-0.328,-0.067l-0.329,-0.067l-0.328,-0.066l-0.33,-0.065l-0.329,-0.063l-0.33,-0.063l-0.331,-0.062l-0.33,-0.061l-0.331,-0.059l-0.332,-0.059l-0.331,-0.058l-0.333,-0.057l-0.332,-0.055l-0.333,-0.055l-0.333,-0.054l-0.333,-0.052l-0.334,-0.052l-0.334,-0.05l-0.335,-0.05l-0.335,-0.048l-0.335,-0.048l-0.335,-0.046l-0.336,-0.046l-0.336,-0.044l-0.336,-0.044l-0.337,-0.042l-0.337,-0.041l-0.338,-0.04l-0.337,-0.04l-0.338,-0.038l-0.339,-0.037l-0.339,-0.036l-0.338,-0.035l-0.34,-0.034l-0.339,-0.033l-0.34,-0.032l-0.341,-0.03l-0.34,-0.03l-0.341,-0.029l-0.341,-0.028l-0.341,-0.026l-0.342,-0.026l-0.342,-0.024l-0.342,-0.023l-0.343,-0.023l-0.343,-0.021l-0.343,-0.02l-0.344,-0.019l-0.343,-0.018l-0.344,-0.017l-0.345,-0.016l-0.344,-0.015l-0.345,-0.013l-0.345,-0.013l-0.346,-0.011l-0.346,-0.011l-0.346,-0.009l-0.346,-0.008l-0.346,-0.007l-0.347,-0.007l-0.347,-0.004l-0.348,-0.004l-0.347,-0.003l-0.348,-0.002l-0.348,0l-0.348,0Z" style="fill:#eee;"/></g><path d="M624.881,308.043c-8.442,1.862 -15.133,-8.154 -17.908,-19.948l-31.09,-153.639c-2.128,-10.864 -5.622,-13.244 -9.45,-13.554c-19.136,-4.554 -26.215,-16.256 -30.307,-29.729c-11.012,-39.847 2.796,-64.026 12.898,-66.629c9.995,-2.782 33.941,11.281 44.329,51.295c3.195,13.713 2.936,27.382 -11.27,40.869c-3.14,2.178 -4.963,5.982 -1.378,16.456l49.845,148.614c3.492,11.602 2.725,23.616 -5.472,26.212l-0.097,0.03l-0.1,0.023Z" style="fill:#fff;"/><path d="M151.651,149.072c-0.726,-3.075 3.507,-4.733 4.484,-1.201l15.254,65.395l3.658,-0.98l-15.255,-65.395c-0.763,-2.837 2.455,-4.853 3.733,-1.001l17.255,64.395l3.11,-0.833l-17.255,-64.395c-0.957,-3.668 3.024,-4.818 4.118,-1.103l19.255,63.395l2.888,-0.774l-19.254,-63.395c-0.888,-2.688 2.551,-5.241 3.93,-1.054c10.009,29.901 27.208,70.83 19.856,74.101c-5.939,5.129 -7.921,11.596 -5.198,21.625l46.308,138.071c3.359,11.158 2.621,22.713 -5.263,25.211l-0.093,0.029l-0.096,0.022c-8.12,1.79 -14.555,-7.843 -17.224,-19.186l-28.884,-142.739c-2.658,-11.577 -8.587,-14.059 -15.472,-16.088c-7.219,-0.192 -13.436,-41.263 -19.855,-74.1Z" style="fill:#fff;"/><path d="M513.951,43.218c0,0 40.403,146.083 43.923,158.812c0.162,0.583 0.216,1.191 0.162,1.795c-0.131,1.446 -0.385,4.25 -0.516,5.696c-0.054,0.602 0.014,1.208 0.201,1.782c2.955,9.103 28.1,86.541 28.1,86.541c3.796,12.61 2.447,23.745 -6.464,26.567l-0.105,0.033l-0.108,0.025c-9.177,2.023 -14.01,-7.455 -17.026,-20.274c0,0 -16.022,-79.181 -17.904,-88.478c-0.127,-0.629 -0.405,-1.218 -0.809,-1.717c-12.519,-17.661 -54.359,-153.555 -40.706,-174.828c4.742,-3.39 8.818,-3.599 11.252,4.046Z" style="fill:#fff;"/></g></svg>