<?xml version="1.0" encoding="UTF-8" standalone="no"?><!DOCTYPE svg PUBLIC "-//W3C//DTD SVG 1.1//EN" "http://www.w3.org/Graphics/SVG/1.1/DTD/svg11.dtd"><svg width="100%" height="100%" viewBox="0 0 566 28" version="1.1" xmlns="http://www.w3.org/2000/svg" xmlns:xlink="http://www.w3.org/1999/xlink" xml:space="preserve" xmlns:serif="http://www.serif.com/" style="fill-rule:evenodd;clip-rule:evenodd;stroke-linejoin:round;stroke-miterlimit:1.41421;"><path d="M14.58,19.23c0.36,0 0.64,0.09 0.84,0.27c0.2,0.18 0.3,0.43 0.3,0.75c0,0.34 -0.1,0.6 -0.3,0.78c-0.2,0.18 -0.48,0.27 -0.84,0.27l-13.41,0c-0.36,0 -0.645,-0.1 -0.855,-0.3c-0.21,-0.2 -0.315,-0.45 -0.315,-0.75c0,-0.3 0.11,-0.61 0.33,-0.93l12,-17.1l-11.16,0c-0.36,0 -0.64,-0.09 -0.84,-0.27c-0.2,-0.18 -0.3,-0.43 -0.3,-0.75c0,-0.34 0.1,-0.6 0.3,-0.78c0.2,-0.18 0.48,-0.27 0.84,-0.27l13.08,0c0.36,0 0.645,0.1 0.855,0.3c0.21,0.2 0.315,0.45 0.315,0.75c0,0.28 -0.11,0.58 -0.33,0.9l-12.03,17.13l11.52,0Z" style="fill:#393939;fill-rule:nonzero;"/><path d="M24.51,6.33c3.66,0 5.49,1.92 5.49,5.76l0,8.16c0,0.36 -0.105,0.65 -0.315,0.87c-0.21,0.22 -0.495,0.33 -0.855,0.33c-0.36,0 -0.65,-0.11 -0.87,-0.33c-0.22,-0.22 -0.33,-0.51 -0.33,-0.87l0,-1.44c-0.38,0.86 -0.96,1.525 -1.74,1.995c-0.78,0.47 -1.68,0.705 -2.7,0.705c-0.94,0 -1.805,-0.19 -2.595,-0.57c-0.79,-0.38 -1.415,-0.91 -1.875,-1.59c-0.46,-0.68 -0.69,-1.43 -0.69,-2.25c0,-1.1 0.28,-1.955 0.84,-2.565c0.56,-0.61 1.48,-1.05 2.76,-1.32c1.28,-0.27 3.06,-0.405 5.34,-0.405l0.66,0l0,-0.99c0,-1.2 -0.245,-2.08 -0.735,-2.64c-0.49,-0.56 -1.285,-0.84 -2.385,-0.84c-1.36,0 -2.74,0.37 -4.14,1.11c-0.54,0.34 -0.92,0.51 -1.14,0.51c-0.24,0 -0.44,-0.09 -0.6,-0.27c-0.16,-0.18 -0.24,-0.41 -0.24,-0.69c0,-0.28 0.085,-0.525 0.255,-0.735c0.17,-0.21 0.445,-0.425 0.825,-0.645c0.7,-0.4 1.495,-0.715 2.385,-0.945c0.89,-0.23 1.775,-0.345 2.655,-0.345Zm-0.99,13.26c1.2,0 2.185,-0.405 2.955,-1.215c0.77,-0.81 1.155,-1.855 1.155,-3.135l0,-0.87l-0.54,0c-1.76,0 -3.1,0.075 -4.02,0.225c-0.92,0.15 -1.575,0.4 -1.965,0.75c-0.39,0.35 -0.585,0.865 -0.585,1.545c0,0.78 0.285,1.425 0.855,1.935c0.57,0.51 1.285,0.765 2.145,0.765Z" style="fill:#393939;fill-rule:nonzero;"/><path d="M41.79,6.33c1.28,0 2.41,0.32 3.39,0.96c0.98,0.64 1.74,1.535 2.28,2.685c0.54,1.15 0.81,2.485 0.81,4.005c0,1.52 -0.27,2.845 -0.81,3.975c-0.54,1.13 -1.295,2.005 -2.265,2.625c-0.97,0.62 -2.105,0.93 -3.405,0.93c-1.14,0 -2.135,-0.25 -2.985,-0.75c-0.85,-0.5 -1.495,-1.21 -1.935,-2.13l0,7.05c0,0.36 -0.105,0.645 -0.315,0.855c-0.21,0.21 -0.505,0.315 -0.885,0.315c-0.38,0 -0.68,-0.11 -0.9,-0.33c-0.22,-0.22 -0.33,-0.5 -0.33,-0.84l0,-18.09c0,-0.36 0.11,-0.65 0.33,-0.87c0.22,-0.22 0.52,-0.33 0.9,-0.33c0.38,0 0.675,0.11 0.885,0.33c0.21,0.22 0.315,0.51 0.315,0.87l0,1.62c0.44,-0.92 1.085,-1.63 1.935,-2.13c0.85,-0.5 1.845,-0.75 2.985,-0.75Zm-0.48,13.17c1.42,0 2.52,-0.48 3.3,-1.44c0.78,-0.96 1.17,-2.32 1.17,-4.08c0,-1.76 -0.39,-3.135 -1.17,-4.125c-0.78,-0.99 -1.88,-1.485 -3.3,-1.485c-1.42,0 -2.515,0.48 -3.285,1.44c-0.77,0.96 -1.155,2.33 -1.155,4.11c0,1.78 0.385,3.155 1.155,4.125c0.77,0.97 1.865,1.455 3.285,1.455Z" style="fill:#393939;fill-rule:nonzero;"/><path d="M53.13,21.45c-0.36,0 -0.655,-0.105 -0.885,-0.315c-0.23,-0.21 -0.345,-0.505 -0.345,-0.885l0,-12.66c0,-0.38 0.115,-0.675 0.345,-0.885c0.23,-0.21 0.525,-0.315 0.885,-0.315c0.36,0 0.65,0.105 0.87,0.315c0.22,0.21 0.33,0.505 0.33,0.885l0,12.66c0,0.4 -0.11,0.7 -0.33,0.9c-0.22,0.2 -0.51,0.3 -0.87,0.3Zm0,-18.21c-0.48,0 -0.87,-0.14 -1.17,-0.42c-0.3,-0.28 -0.45,-0.65 -0.45,-1.11c0,-0.44 0.15,-0.8 0.45,-1.08c0.3,-0.28 0.69,-0.42 1.17,-0.42c0.48,0 0.87,0.14 1.17,0.42c0.3,0.28 0.45,0.64 0.45,1.08c0,0.46 -0.15,0.83 -0.45,1.11c-0.3,0.28 -0.69,0.42 -1.17,0.42Z" style="fill:#393939;fill-rule:nonzero;"/><path d="M63.78,21.51c-0.92,0 -1.795,-0.11 -2.625,-0.33c-0.83,-0.22 -1.565,-0.53 -2.205,-0.93c-0.36,-0.24 -0.615,-0.465 -0.765,-0.675c-0.15,-0.21 -0.225,-0.465 -0.225,-0.765c0,-0.26 0.075,-0.475 0.225,-0.645c0.15,-0.17 0.345,-0.255 0.585,-0.255c0.24,0 0.59,0.15 1.05,0.45c0.6,0.36 1.195,0.645 1.785,0.855c0.59,0.21 1.325,0.315 2.205,0.315c1.08,0 1.92,-0.19 2.52,-0.57c0.6,-0.38 0.9,-0.93 0.9,-1.65c0,-0.44 -0.11,-0.795 -0.33,-1.065c-0.22,-0.27 -0.6,-0.51 -1.14,-0.72c-0.54,-0.21 -1.33,-0.425 -2.37,-0.645c-1.76,-0.38 -3.02,-0.89 -3.78,-1.53c-0.76,-0.64 -1.14,-1.51 -1.14,-2.61c0,-0.86 0.24,-1.62 0.72,-2.28c0.48,-0.66 1.145,-1.18 1.995,-1.56c0.85,-0.38 1.815,-0.57 2.895,-0.57c0.78,0 1.535,0.105 2.265,0.315c0.73,0.21 1.375,0.505 1.935,0.885c0.68,0.48 1.02,0.98 1.02,1.5c0,0.26 -0.08,0.48 -0.24,0.66c-0.16,0.18 -0.35,0.27 -0.57,0.27c-0.24,0 -0.6,-0.17 -1.08,-0.51c-0.56,-0.36 -1.09,-0.64 -1.59,-0.84c-0.5,-0.2 -1.12,-0.3 -1.86,-0.3c-0.94,0 -1.695,0.21 -2.265,0.63c-0.57,0.42 -0.855,0.98 -0.855,1.68c0,0.44 0.105,0.795 0.315,1.065c0.21,0.27 0.56,0.51 1.05,0.72c0.49,0.21 1.195,0.415 2.115,0.615c1.36,0.3 2.415,0.63 3.165,0.99c0.75,0.36 1.285,0.8 1.605,1.32c0.32,0.52 0.48,1.18 0.48,1.98c0,1.26 -0.53,2.275 -1.59,3.045c-1.06,0.77 -2.46,1.155 -4.2,1.155Z" style="fill:#393939;fill-rule:nonzero;"/><path d="M83.85,19.38c0.34,0 0.6,0.085 0.78,0.255c0.18,0.17 0.27,0.405 0.27,0.705c0,0.3 -0.09,0.535 -0.27,0.705c-0.18,0.17 -0.44,0.255 -0.78,0.255l-10.5,0c-0.34,0 -0.62,-0.105 -0.84,-0.315c-0.22,-0.21 -0.33,-0.465 -0.33,-0.765c0,-0.32 0.12,-0.63 0.36,-0.93l8.88,-10.68l-8.22,0c-0.34,0 -0.605,-0.085 -0.795,-0.255c-0.19,-0.17 -0.285,-0.395 -0.285,-0.675c0,-0.3 0.095,-0.54 0.285,-0.72c0.19,-0.18 0.455,-0.27 0.795,-0.27l10.17,0c0.36,0 0.65,0.105 0.87,0.315c0.22,0.21 0.33,0.465 0.33,0.765c0,0.32 -0.12,0.63 -0.36,0.93l-8.91,10.68l8.55,0Z" style="fill:#393939;fill-rule:nonzero;"/><path d="M100.86,21.51c-0.92,0 -1.795,-0.11 -2.625,-0.33c-0.83,-0.22 -1.565,-0.53 -2.205,-0.93c-0.36,-0.24 -0.615,-0.465 -0.765,-0.675c-0.15,-0.21 -0.225,-0.465 -0.225,-0.765c0,-0.26 0.075,-0.475 0.225,-0.645c0.15,-0.17 0.345,-0.255 0.585,-0.255c0.24,0 0.59,0.15 1.05,0.45c0.6,0.36 1.195,0.645 1.785,0.855c0.59,0.21 1.325,0.315 2.205,0.315c1.08,0 1.92,-0.19 2.52,-0.57c0.6,-0.38 0.9,-0.93 0.9,-1.65c0,-0.44 -0.11,-0.795 -0.33,-1.065c-0.22,-0.27 -0.6,-0.51 -1.14,-0.72c-0.54,-0.21 -1.33,-0.425 -2.37,-0.645c-1.76,-0.38 -3.02,-0.89 -3.78,-1.53c-0.76,-0.64 -1.14,-1.51 -1.14,-2.61c0,-0.86 0.24,-1.62 0.72,-2.28c0.48,-0.66 1.145,-1.18 1.995,-1.56c0.85,-0.38 1.815,-0.57 2.895,-0.57c0.78,0 1.535,0.105 2.265,0.315c0.73,0.21 1.375,0.505 1.935,0.885c0.68,0.48 1.02,0.98 1.02,1.5c0,0.26 -0.08,0.48 -0.24,0.66c-0.16,0.18 -0.35,0.27 -0.57,0.27c-0.24,0 -0.6,-0.17 -1.08,-0.51c-0.56,-0.36 -1.09,-0.64 -1.59,-0.84c-0.5,-0.2 -1.12,-0.3 -1.86,-0.3c-0.94,0 -1.695,0.21 -2.265,0.63c-0.57,0.42 -0.855,0.98 -0.855,1.68c0,0.44 0.105,0.795 0.315,1.065c0.21,0.27 0.56,0.51 1.05,0.72c0.49,0.21 1.195,0.415 2.115,0.615c1.36,0.3 2.415,0.63 3.165,0.99c0.75,0.36 1.285,0.8 1.605,1.32c0.32,0.52 0.48,1.18 0.48,1.98c0,1.26 -0.53,2.275 -1.59,3.045c-1.06,0.77 -2.46,1.155 -4.2,1.155Z" style="fill:#393939;fill-rule:nonzero;"/><path d="M111.57,21.45c-0.36,0 -0.655,-0.105 -0.885,-0.315c-0.23,-0.21 -0.345,-0.505 -0.345,-0.885l0,-12.66c0,-0.38 0.115,-0.675 0.345,-0.885c0.23,-0.21 0.525,-0.315 0.885,-0.315c0.36,0 0.65,0.105 0.87,0.315c0.22,0.21 0.33,0.505 0.33,0.885l0,12.66c0,0.4 -0.11,0.7 -0.33,0.9c-0.22,0.2 -0.51,0.3 -0.87,0.3Zm0,-18.21c-0.48,0 -0.87,-0.14 -1.17,-0.42c-0.3,-0.28 -0.45,-0.65 -0.45,-1.11c0,-0.44 0.15,-0.8 0.45,-1.08c0.3,-0.28 0.69,-0.42 1.17,-0.42c0.48,0 0.87,0.14 1.17,0.42c0.3,0.28 0.45,0.64 0.45,1.08c0,0.46 -0.15,0.83 -0.45,1.11c-0.3,0.28 -0.69,0.42 -1.17,0.42Z" style="fill:#393939;fill-rule:nonzero;"/><path d="M128.25,20.28c-1.18,0.66 -1.995,1.23 -2.445,1.71c-0.45,0.48 -0.675,1.02 -0.675,1.62c0,0.58 0.175,1.04 0.525,1.38c0.35,0.34 0.805,0.51 1.365,0.51c0.42,0 0.9,-0.12 1.44,-0.36c0.16,-0.06 0.28,-0.09 0.36,-0.09c0.18,0 0.325,0.065 0.435,0.195c0.11,0.13 0.165,0.295 0.165,0.495c0,0.34 -0.15,0.6 -0.45,0.78c-0.68,0.38 -1.42,0.57 -2.22,0.57c-1.04,0 -1.885,-0.295 -2.535,-0.885c-0.65,-0.59 -0.975,-1.345 -0.975,-2.265c0,-0.98 0.35,-1.79 1.05,-2.43l-0.54,0c-2.26,0 -4.045,-0.67 -5.355,-2.01c-1.31,-1.34 -1.965,-3.19 -1.965,-5.55c0,-1.5 0.29,-2.825 0.87,-3.975c0.58,-1.15 1.395,-2.045 2.445,-2.685c1.05,-0.64 2.245,-0.96 3.585,-0.96c1.9,0 3.41,0.62 4.53,1.86c1.12,1.24 1.68,2.92 1.68,5.04c0,0.4 -0.08,0.69 -0.24,0.87c-0.16,0.18 -0.42,0.27 -0.78,0.27l-9.66,0c0.18,3.44 1.81,5.16 4.89,5.16c0.78,0 1.45,-0.105 2.01,-0.315c0.56,-0.21 1.16,-0.495 1.8,-0.855c0.52,-0.3 0.87,-0.45 1.05,-0.45c0.22,0 0.41,0.09 0.57,0.27c0.16,0.18 0.24,0.41 0.24,0.69c0,0.26 -0.095,0.505 -0.285,0.735c-0.19,0.23 -0.485,0.455 -0.885,0.675Zm-4.89,-12.06c-1.28,0 -2.305,0.4 -3.075,1.2c-0.77,0.8 -1.225,1.93 -1.365,3.39l8.49,0c-0.04,-1.48 -0.41,-2.615 -1.11,-3.405c-0.7,-0.79 -1.68,-1.185 -2.94,-1.185Z" style="fill:#393939;fill-rule:nonzero;"/><path d="M152.58,0c0.38,0 0.68,0.11 0.9,0.33c0.22,0.22 0.33,0.5 0.33,0.84l0,19.08c0,0.36 -0.11,0.65 -0.33,0.87c-0.22,0.22 -0.52,0.33 -0.9,0.33c-0.38,0 -0.675,-0.11 -0.885,-0.33c-0.21,-0.22 -0.315,-0.51 -0.315,-0.87l0,-1.62c-0.44,0.92 -1.085,1.63 -1.935,2.13c-0.85,0.5 -1.845,0.75 -2.985,0.75c-1.28,0 -2.41,-0.32 -3.39,-0.96c-0.98,-0.64 -1.74,-1.535 -2.28,-2.685c-0.54,-1.15 -0.81,-2.485 -0.81,-4.005c0,-1.5 0.27,-2.82 0.81,-3.96c0.54,-1.14 1.3,-2.02 2.28,-2.64c0.98,-0.62 2.11,-0.93 3.39,-0.93c1.14,0 2.135,0.25 2.985,0.75c0.85,0.5 1.495,1.21 1.935,2.13l0,-8.04c0,-0.36 0.105,-0.645 0.315,-0.855c0.21,-0.21 0.505,-0.315 0.885,-0.315Zm-5.64,19.5c1.42,0 2.515,-0.485 3.285,-1.455c0.77,-0.97 1.155,-2.345 1.155,-4.125c0,-1.78 -0.385,-3.15 -1.155,-4.11c-0.77,-0.96 -1.865,-1.44 -3.285,-1.44c-1.42,0 -2.525,0.48 -3.315,1.44c-0.79,0.96 -1.185,2.31 -1.185,4.05c0,1.78 0.395,3.165 1.185,4.155c0.79,0.99 1.895,1.485 3.315,1.485Z" style="fill:#393939;fill-rule:nonzero;"/><path d="M164.37,21.51c-1.38,0 -2.595,-0.31 -3.645,-0.93c-1.05,-0.62 -1.86,-1.505 -2.43,-2.655c-0.57,-1.15 -0.855,-2.485 -0.855,-4.005c0,-1.52 0.285,-2.855 0.855,-4.005c0.57,-1.15 1.38,-2.035 2.43,-2.655c1.05,-0.62 2.265,-0.93 3.645,-0.93c1.38,0 2.6,0.31 3.66,0.93c1.06,0.62 1.875,1.505 2.445,2.655c0.57,1.15 0.855,2.485 0.855,4.005c0,1.52 -0.285,2.855 -0.855,4.005c-0.57,1.15 -1.385,2.035 -2.445,2.655c-1.06,0.62 -2.28,0.93 -3.66,0.93Zm0,-2.01c1.44,0 2.545,-0.475 3.315,-1.425c0.77,-0.95 1.155,-2.335 1.155,-4.155c0,-1.78 -0.39,-3.155 -1.17,-4.125c-0.78,-0.97 -1.88,-1.455 -3.3,-1.455c-1.42,0 -2.52,0.485 -3.3,1.455c-0.78,0.97 -1.17,2.345 -1.17,4.125c0,1.8 0.385,3.18 1.155,4.14c0.77,0.96 1.875,1.44 3.315,1.44Z" style="fill:#393939;fill-rule:nonzero;"/><path d="M190.05,6.33c3.5,0 5.25,1.93 5.25,5.79l0,8.13c0,0.38 -0.105,0.675 -0.315,0.885c-0.21,0.21 -0.505,0.315 -0.885,0.315c-0.38,0 -0.68,-0.105 -0.9,-0.315c-0.22,-0.21 -0.33,-0.505 -0.33,-0.885l0,-7.98c0,-1.36 -0.265,-2.35 -0.795,-2.97c-0.53,-0.62 -1.375,-0.93 -2.535,-0.93c-1.34,0 -2.41,0.41 -3.21,1.23c-0.8,0.82 -1.2,1.93 -1.2,3.33l0,7.32c0,0.38 -0.105,0.675 -0.315,0.885c-0.21,0.21 -0.505,0.315 -0.885,0.315c-0.38,0 -0.68,-0.105 -0.9,-0.315c-0.22,-0.21 -0.33,-0.505 -0.33,-0.885l0,-12.66c0,-0.36 0.11,-0.65 0.33,-0.87c0.22,-0.22 0.52,-0.33 0.9,-0.33c0.36,0 0.645,0.11 0.855,0.33c0.21,0.22 0.315,0.5 0.315,0.84l0,1.53c0.48,-0.9 1.15,-1.585 2.01,-2.055c0.86,-0.47 1.84,-0.705 2.94,-0.705Z" style="fill:#393939;fill-rule:nonzero;"/><path d="M205.71,6.33c3.66,0 5.49,1.92 5.49,5.76l0,8.16c0,0.36 -0.105,0.65 -0.315,0.87c-0.21,0.22 -0.495,0.33 -0.855,0.33c-0.36,0 -0.65,-0.11 -0.87,-0.33c-0.22,-0.22 -0.33,-0.51 -0.33,-0.87l0,-1.44c-0.38,0.86 -0.96,1.525 -1.74,1.995c-0.78,0.47 -1.68,0.705 -2.7,0.705c-0.94,0 -1.805,-0.19 -2.595,-0.57c-0.79,-0.38 -1.415,-0.91 -1.875,-1.59c-0.46,-0.68 -0.69,-1.43 -0.69,-2.25c0,-1.1 0.28,-1.955 0.84,-2.565c0.56,-0.61 1.48,-1.05 2.76,-1.32c1.28,-0.27 3.06,-0.405 5.34,-0.405l0.66,0l0,-0.99c0,-1.2 -0.245,-2.08 -0.735,-2.64c-0.49,-0.56 -1.285,-0.84 -2.385,-0.84c-1.36,0 -2.74,0.37 -4.14,1.11c-0.54,0.34 -0.92,0.51 -1.14,0.51c-0.24,0 -0.44,-0.09 -0.6,-0.27c-0.16,-0.18 -0.24,-0.41 -0.24,-0.69c0,-0.28 0.085,-0.525 0.255,-0.735c0.17,-0.21 0.445,-0.425 0.825,-0.645c0.7,-0.4 1.495,-0.715 2.385,-0.945c0.89,-0.23 1.775,-0.345 2.655,-0.345Zm-0.99,13.26c1.2,0 2.185,-0.405 2.955,-1.215c0.77,-0.81 1.155,-1.855 1.155,-3.135l0,-0.87l-0.54,0c-1.76,0 -3.1,0.075 -4.02,0.225c-0.92,0.15 -1.575,0.4 -1.965,0.75c-0.39,0.35 -0.585,0.865 -0.585,1.545c0,0.78 0.285,1.425 0.855,1.935c0.57,0.51 1.285,0.765 2.145,0.765Z" style="fill:#393939;fill-rule:nonzero;"/><path d="M220.56,21.51c-0.92,0 -1.795,-0.11 -2.625,-0.33c-0.83,-0.22 -1.565,-0.53 -2.205,-0.93c-0.36,-0.24 -0.615,-0.465 -0.765,-0.675c-0.15,-0.21 -0.225,-0.465 -0.225,-0.765c0,-0.26 0.075,-0.475 0.225,-0.645c0.15,-0.17 0.345,-0.255 0.585,-0.255c0.24,0 0.59,0.15 1.05,0.45c0.6,0.36 1.195,0.645 1.785,0.855c0.59,0.21 1.325,0.315 2.205,0.315c1.08,0 1.92,-0.19 2.52,-0.57c0.6,-0.38 0.9,-0.93 0.9,-1.65c0,-0.44 -0.11,-0.795 -0.33,-1.065c-0.22,-0.27 -0.6,-0.51 -1.14,-0.72c-0.54,-0.21 -1.33,-0.425 -2.37,-0.645c-1.76,-0.38 -3.02,-0.89 -3.78,-1.53c-0.76,-0.64 -1.14,-1.51 -1.14,-2.61c0,-0.86 0.24,-1.62 0.72,-2.28c0.48,-0.66 1.145,-1.18 1.995,-1.56c0.85,-0.38 1.815,-0.57 2.895,-0.57c0.78,0 1.535,0.105 2.265,0.315c0.73,0.21 1.375,0.505 1.935,0.885c0.68,0.48 1.02,0.98 1.02,1.5c0,0.26 -0.08,0.48 -0.24,0.66c-0.16,0.18 -0.35,0.27 -0.57,0.27c-0.24,0 -0.6,-0.17 -1.08,-0.51c-0.56,-0.36 -1.09,-0.64 -1.59,-0.84c-0.5,-0.2 -1.12,-0.3 -1.86,-0.3c-0.94,0 -1.695,0.21 -2.265,0.63c-0.57,0.42 -0.855,0.98 -0.855,1.68c0,0.44 0.105,0.795 0.315,1.065c0.21,0.27 0.56,0.51 1.05,0.72c0.49,0.21 1.195,0.415 2.115,0.615c1.36,0.3 2.415,0.63 3.165,0.99c0.75,0.36 1.285,0.8 1.605,1.32c0.32,0.52 0.48,1.18 0.48,1.98c0,1.26 -0.53,2.275 -1.59,3.045c-1.06,0.77 -2.46,1.155 -4.2,1.155Z" style="fill:#393939;fill-rule:nonzero;"/><path d="M240.63,19.38c0.34,0 0.6,0.085 0.78,0.255c0.18,0.17 0.27,0.405 0.27,0.705c0,0.3 -0.09,0.535 -0.27,0.705c-0.18,0.17 -0.44,0.255 -0.78,0.255l-10.5,0c-0.34,0 -0.62,-0.105 -0.84,-0.315c-0.22,-0.21 -0.33,-0.465 -0.33,-0.765c0,-0.32 0.12,-0.63 0.36,-0.93l8.88,-10.68l-8.22,0c-0.34,0 -0.605,-0.085 -0.795,-0.255c-0.19,-0.17 -0.285,-0.395 -0.285,-0.675c0,-0.3 0.095,-0.54 0.285,-0.72c0.19,-0.18 0.455,-0.27 0.795,-0.27l10.17,0c0.36,0 0.65,0.105 0.87,0.315c0.22,0.21 0.33,0.465 0.33,0.765c0,0.32 -0.12,0.63 -0.36,0.93l-8.91,10.68l8.55,0Z" style="fill:#393939;fill-rule:nonzero;"/><path d="M255.96,17.91c0.22,0 0.41,0.09 0.57,0.27c0.16,0.18 0.24,0.41 0.24,0.69c0,0.5 -0.35,0.96 -1.05,1.38c-0.72,0.42 -1.48,0.735 -2.28,0.945c-0.8,0.21 -1.58,0.315 -2.34,0.315c-2.26,0 -4.045,-0.67 -5.355,-2.01c-1.31,-1.34 -1.965,-3.19 -1.965,-5.55c0,-1.5 0.29,-2.825 0.87,-3.975c0.58,-1.15 1.395,-2.045 2.445,-2.685c1.05,-0.64 2.245,-0.96 3.585,-0.96c1.9,0 3.41,0.62 4.53,1.86c1.12,1.24 1.68,2.92 1.68,5.04c0,0.4 -0.08,0.69 -0.24,0.87c-0.16,0.18 -0.42,0.27 -0.78,0.27l-9.66,0c0.18,3.44 1.81,5.16 4.89,5.16c0.78,0 1.45,-0.105 2.01,-0.315c0.56,-0.21 1.16,-0.495 1.8,-0.855c0.52,-0.3 0.87,-0.45 1.05,-0.45Zm-5.25,-9.69c-1.28,0 -2.305,0.4 -3.075,1.2c-0.77,0.8 -1.225,1.93 -1.365,3.39l8.49,0c-0.04,-1.48 -0.41,-2.615 -1.11,-3.405c-0.7,-0.79 -1.68,-1.185 -2.94,-1.185Z" style="fill:#393939;fill-rule:nonzero;"/><path d="M272.31,6.39c0.38,0 0.68,0.11 0.9,0.33c0.22,0.22 0.33,0.51 0.33,0.87l0,12.72c0,2.18 -0.56,3.825 -1.68,4.935c-1.12,1.11 -2.78,1.665 -4.98,1.665c-2.14,0 -3.92,-0.42 -5.34,-1.26c-0.72,-0.4 -1.08,-0.86 -1.08,-1.38c0,-0.28 0.075,-0.51 0.225,-0.69c0.15,-0.18 0.345,-0.27 0.585,-0.27c0.2,0 0.56,0.14 1.08,0.42c0.7,0.36 1.39,0.65 2.07,0.87c0.68,0.22 1.49,0.33 2.43,0.33c1.42,0 2.49,-0.375 3.21,-1.125c0.72,-0.75 1.08,-1.845 1.08,-3.285l0,-2.58c-0.42,0.94 -1.065,1.66 -1.935,2.16c-0.87,0.5 -1.895,0.75 -3.075,0.75c-1.28,0 -2.415,-0.3 -3.405,-0.9c-0.99,-0.6 -1.76,-1.45 -2.31,-2.55c-0.55,-1.1 -0.825,-2.37 -0.825,-3.81c0,-1.44 0.275,-2.71 0.825,-3.81c0.55,-1.1 1.32,-1.95 2.31,-2.55c0.99,-0.6 2.125,-0.9 3.405,-0.9c1.16,0 2.17,0.25 3.03,0.75c0.86,0.5 1.51,1.21 1.95,2.13l0,-1.62c0,-0.36 0.105,-0.65 0.315,-0.87c0.21,-0.22 0.505,-0.33 0.885,-0.33Zm-5.7,12.45c1.4,0 2.5,-0.465 3.3,-1.395c0.8,-0.93 1.2,-2.215 1.2,-3.855c0,-1.62 -0.395,-2.895 -1.185,-3.825c-0.79,-0.93 -1.895,-1.395 -3.315,-1.395c-1.42,0 -2.535,0.465 -3.345,1.395c-0.81,0.93 -1.215,2.205 -1.215,3.825c0,1.64 0.405,2.925 1.215,3.855c0.81,0.93 1.925,1.395 3.345,1.395Z" style="fill:#393939;fill-rule:nonzero;"/><path d="M284.1,21.51c-1.38,0 -2.595,-0.31 -3.645,-0.93c-1.05,-0.62 -1.86,-1.505 -2.43,-2.655c-0.57,-1.15 -0.855,-2.485 -0.855,-4.005c0,-1.52 0.285,-2.855 0.855,-4.005c0.57,-1.15 1.38,-2.035 2.43,-2.655c1.05,-0.62 2.265,-0.93 3.645,-0.93c1.38,0 2.6,0.31 3.66,0.93c1.06,0.62 1.875,1.505 2.445,2.655c0.57,1.15 0.855,2.485 0.855,4.005c0,1.52 -0.285,2.855 -0.855,4.005c-0.57,1.15 -1.385,2.035 -2.445,2.655c-1.06,0.62 -2.28,0.93 -3.66,0.93Zm0,-2.01c1.44,0 2.545,-0.475 3.315,-1.425c0.77,-0.95 1.155,-2.335 1.155,-4.155c0,-1.78 -0.39,-3.155 -1.17,-4.125c-0.78,-0.97 -1.88,-1.455 -3.3,-1.455c-1.42,0 -2.52,0.485 -3.3,1.455c-0.78,0.97 -1.17,2.345 -1.17,4.125c0,1.8 0.385,3.18 1.155,4.14c0.77,0.96 1.875,1.44 3.315,1.44Z" style="fill:#393939;fill-rule:nonzero;"/><path d="M318.6,0c0.36,0 0.64,0.115 0.84,0.345c0.2,0.23 0.3,0.535 0.3,0.915l0,18.93c0,0.38 -0.105,0.685 -0.315,0.915c-0.21,0.23 -0.505,0.345 -0.885,0.345c-0.38,0 -0.71,-0.17 -0.99,-0.51l-12.45,-16.65l0,15.9c0,0.38 -0.105,0.685 -0.315,0.915c-0.21,0.23 -0.495,0.345 -0.855,0.345c-0.36,0 -0.64,-0.115 -0.84,-0.345c-0.2,-0.23 -0.3,-0.535 -0.3,-0.915l0,-18.93c0,-0.38 0.105,-0.685 0.315,-0.915c0.21,-0.23 0.505,-0.345 0.885,-0.345c0.4,0 0.74,0.17 1.02,0.51l12.42,16.65l0,-15.9c0,-0.38 0.105,-0.685 0.315,-0.915c0.21,-0.23 0.495,-0.345 0.855,-0.345Z" style="fill:#393939;fill-rule:nonzero;"/><path d="M335.91,17.91c0.22,0 0.41,0.09 0.57,0.27c0.16,0.18 0.24,0.41 0.24,0.69c0,0.5 -0.35,0.96 -1.05,1.38c-0.72,0.42 -1.48,0.735 -2.28,0.945c-0.8,0.21 -1.58,0.315 -2.34,0.315c-2.26,0 -4.045,-0.67 -5.355,-2.01c-1.31,-1.34 -1.965,-3.19 -1.965,-5.55c0,-1.5 0.29,-2.825 0.87,-3.975c0.58,-1.15 1.395,-2.045 2.445,-2.685c1.05,-0.64 2.245,-0.96 3.585,-0.96c1.9,0 3.41,0.62 4.53,1.86c1.12,1.24 1.68,2.92 1.68,5.04c0,0.4 -0.08,0.69 -0.24,0.87c-0.16,0.18 -0.42,0.27 -0.78,0.27l-9.66,0c0.18,3.44 1.81,5.16 4.89,5.16c0.78,0 1.45,-0.105 2.01,-0.315c0.56,-0.21 1.16,-0.495 1.8,-0.855c0.52,-0.3 0.87,-0.45 1.05,-0.45Zm-5.25,-9.69c-1.28,0 -2.305,0.4 -3.075,1.2c-0.77,0.8 -1.225,1.93 -1.365,3.39l8.49,0c-0.04,-1.48 -0.41,-2.615 -1.11,-3.405c-0.7,-0.79 -1.68,-1.185 -2.94,-1.185Z" style="fill:#393939;fill-rule:nonzero;"/><path d="M360.21,7.17c0.2,-0.48 0.53,-0.72 0.99,-0.72c0.3,0 0.57,0.1 0.81,0.3c0.24,0.2 0.36,0.45 0.36,0.75c0,0.14 -0.03,0.29 -0.09,0.45l-4.98,12.6c-0.12,0.26 -0.295,0.465 -0.525,0.615c-0.23,0.15 -0.485,0.225 -0.765,0.225c-0.26,0 -0.505,-0.075 -0.735,-0.225c-0.23,-0.15 -0.405,-0.355 -0.525,-0.615l-4.14,-10.53l-4.11,10.53c-0.1,0.26 -0.27,0.465 -0.51,0.615c-0.24,0.15 -0.5,0.225 -0.78,0.225c-0.26,0 -0.51,-0.075 -0.75,-0.225c-0.24,-0.15 -0.42,-0.355 -0.54,-0.615l-4.98,-12.57c-0.06,-0.16 -0.09,-0.3 -0.09,-0.42c0,-0.32 0.135,-0.59 0.405,-0.81c0.27,-0.22 0.565,-0.33 0.885,-0.33c0.48,0 0.82,0.24 1.02,0.72l4.11,11.07l4.23,-10.98c0.12,-0.26 0.285,-0.46 0.495,-0.6c0.21,-0.14 0.435,-0.21 0.675,-0.21c0.26,0 0.495,0.07 0.705,0.21c0.21,0.14 0.365,0.34 0.465,0.6l4.23,10.95l4.14,-11.01Z" style="fill:#393939;fill-rule:nonzero;"/><path d="M370.14,21.51c-0.92,0 -1.795,-0.11 -2.625,-0.33c-0.83,-0.22 -1.565,-0.53 -2.205,-0.93c-0.36,-0.24 -0.615,-0.465 -0.765,-0.675c-0.15,-0.21 -0.225,-0.465 -0.225,-0.765c0,-0.26 0.075,-0.475 0.225,-0.645c0.15,-0.17 0.345,-0.255 0.585,-0.255c0.24,0 0.59,0.15 1.05,0.45c0.6,0.36 1.195,0.645 1.785,0.855c0.59,0.21 1.325,0.315 2.205,0.315c1.08,0 1.92,-0.19 2.52,-0.57c0.6,-0.38 0.9,-0.93 0.9,-1.65c0,-0.44 -0.11,-0.795 -0.33,-1.065c-0.22,-0.27 -0.6,-0.51 -1.14,-0.72c-0.54,-0.21 -1.33,-0.425 -2.37,-0.645c-1.76,-0.38 -3.02,-0.89 -3.78,-1.53c-0.76,-0.64 -1.14,-1.51 -1.14,-2.61c0,-0.86 0.24,-1.62 0.72,-2.28c0.48,-0.66 1.145,-1.18 1.995,-1.56c0.85,-0.38 1.815,-0.57 2.895,-0.57c0.78,0 1.535,0.105 2.265,0.315c0.73,0.21 1.375,0.505 1.935,0.885c0.68,0.48 1.02,0.98 1.02,1.5c0,0.26 -0.08,0.48 -0.24,0.66c-0.16,0.18 -0.35,0.27 -0.57,0.27c-0.24,0 -0.6,-0.17 -1.08,-0.51c-0.56,-0.36 -1.09,-0.64 -1.59,-0.84c-0.5,-0.2 -1.12,-0.3 -1.86,-0.3c-0.94,0 -1.695,0.21 -2.265,0.63c-0.57,0.42 -0.855,0.98 -0.855,1.68c0,0.44 0.105,0.795 0.315,1.065c0.21,0.27 0.56,0.51 1.05,0.72c0.49,0.21 1.195,0.415 2.115,0.615c1.36,0.3 2.415,0.63 3.165,0.99c0.75,0.36 1.285,0.8 1.605,1.32c0.32,0.52 0.48,1.18 0.48,1.98c0,1.26 -0.53,2.275 -1.59,3.045c-1.06,0.77 -2.46,1.155 -4.2,1.155Z" style="fill:#393939;fill-rule:nonzero;"/><path d="M380.85,21.45c-0.36,0 -0.655,-0.105 -0.885,-0.315c-0.23,-0.21 -0.345,-0.505 -0.345,-0.885l0,-19.05c0,-0.38 0.115,-0.675 0.345,-0.885c0.23,-0.21 0.525,-0.315 0.885,-0.315c0.34,0 0.625,0.105 0.855,0.315c0.23,0.21 0.345,0.505 0.345,0.885l0,19.05c0,0.38 -0.115,0.675 -0.345,0.885c-0.23,0.21 -0.515,0.315 -0.855,0.315Z" style="fill:#393939;fill-rule:nonzero;"/><path d="M397.89,17.91c0.22,0 0.41,0.09 0.57,0.27c0.16,0.18 0.24,0.41 0.24,0.69c0,0.5 -0.35,0.96 -1.05,1.38c-0.72,0.42 -1.48,0.735 -2.28,0.945c-0.8,0.21 -1.58,0.315 -2.34,0.315c-2.26,0 -4.045,-0.67 -5.355,-2.01c-1.31,-1.34 -1.965,-3.19 -1.965,-5.55c0,-1.5 0.29,-2.825 0.87,-3.975c0.58,-1.15 1.395,-2.045 2.445,-2.685c1.05,-0.64 2.245,-0.96 3.585,-0.96c1.9,0 3.41,0.62 4.53,1.86c1.12,1.24 1.68,2.92 1.68,5.04c0,0.4 -0.08,0.69 -0.24,0.87c-0.16,0.18 -0.42,0.27 -0.78,0.27l-9.66,0c0.18,3.44 1.81,5.16 4.89,5.16c0.78,0 1.45,-0.105 2.01,-0.315c0.56,-0.21 1.16,-0.495 1.8,-0.855c0.52,-0.3 0.87,-0.45 1.05,-0.45Zm-5.25,-9.69c-1.28,0 -2.305,0.4 -3.075,1.2c-0.77,0.8 -1.225,1.93 -1.365,3.39l8.49,0c-0.04,-1.48 -0.41,-2.615 -1.11,-3.405c-0.7,-0.79 -1.68,-1.185 -2.94,-1.185Z" style="fill:#393939;fill-rule:nonzero;"/><path d="M409.05,19.53c0.7,0.06 1.05,0.38 1.05,0.96c0,0.34 -0.125,0.595 -0.375,0.765c-0.25,0.17 -0.625,0.235 -1.125,0.195l-0.81,-0.06c-1.6,-0.12 -2.78,-0.6 -3.54,-1.44c-0.76,-0.84 -1.14,-2.11 -1.14,-3.81l0,-7.53l-2.01,0c-0.34,0 -0.605,-0.085 -0.795,-0.255c-0.19,-0.17 -0.285,-0.395 -0.285,-0.675c0,-0.3 0.095,-0.54 0.285,-0.72c0.19,-0.18 0.455,-0.27 0.795,-0.27l2.01,0l0,-3.39c0,-0.38 0.11,-0.675 0.33,-0.885c0.22,-0.21 0.52,-0.315 0.9,-0.315c0.36,0 0.65,0.105 0.87,0.315c0.22,0.21 0.33,0.505 0.33,0.885l0,3.39l3.33,0c0.32,0 0.575,0.09 0.765,0.27c0.19,0.18 0.285,0.42 0.285,0.72c0,0.28 -0.095,0.505 -0.285,0.675c-0.19,0.17 -0.445,0.255 -0.765,0.255l-3.33,0l0,7.65c0,1.1 0.225,1.895 0.675,2.385c0.45,0.49 1.125,0.765 2.025,0.825l0.81,0.06Z" style="fill:#393939;fill-rule:nonzero;"/><path d="M419.34,19.53c0.7,0.06 1.05,0.38 1.05,0.96c0,0.34 -0.125,0.595 -0.375,0.765c-0.25,0.17 -0.625,0.235 -1.125,0.195l-0.81,-0.06c-1.6,-0.12 -2.78,-0.6 -3.54,-1.44c-0.76,-0.84 -1.14,-2.11 -1.14,-3.81l0,-7.53l-2.01,0c-0.34,0 -0.605,-0.085 -0.795,-0.255c-0.19,-0.17 -0.285,-0.395 -0.285,-0.675c0,-0.3 0.095,-0.54 0.285,-0.72c0.19,-0.18 0.455,-0.27 0.795,-0.27l2.01,0l0,-3.39c0,-0.38 0.11,-0.675 0.33,-0.885c0.22,-0.21 0.52,-0.315 0.9,-0.315c0.36,0 0.65,0.105 0.87,0.315c0.22,0.21 0.33,0.505 0.33,0.885l0,3.39l3.33,0c0.32,0 0.575,0.09 0.765,0.27c0.19,0.18 0.285,0.42 0.285,0.72c0,0.28 -0.095,0.505 -0.285,0.675c-0.19,0.17 -0.445,0.255 -0.765,0.255l-3.33,0l0,7.65c0,1.1 0.225,1.895 0.675,2.385c0.45,0.49 1.125,0.765 2.025,0.825l0.81,0.06Z" style="fill:#393939;fill-rule:nonzero;"/><path d="M434.1,17.91c0.22,0 0.41,0.09 0.57,0.27c0.16,0.18 0.24,0.41 0.24,0.69c0,0.5 -0.35,0.96 -1.05,1.38c-0.72,0.42 -1.48,0.735 -2.28,0.945c-0.8,0.21 -1.58,0.315 -2.34,0.315c-2.26,0 -4.045,-0.67 -5.355,-2.01c-1.31,-1.34 -1.965,-3.19 -1.965,-5.55c0,-1.5 0.29,-2.825 0.87,-3.975c0.58,-1.15 1.395,-2.045 2.445,-2.685c1.05,-0.64 2.245,-0.96 3.585,-0.96c1.9,0 3.41,0.62 4.53,1.86c1.12,1.24 1.68,2.92 1.68,5.04c0,0.4 -0.08,0.69 -0.24,0.87c-0.16,0.18 -0.42,0.27 -0.78,0.27l-9.66,0c0.18,3.44 1.81,5.16 4.89,5.16c0.78,0 1.45,-0.105 2.01,-0.315c0.56,-0.21 1.16,-0.495 1.8,-0.855c0.52,-0.3 0.87,-0.45 1.05,-0.45Zm-5.25,-9.69c-1.28,0 -2.305,0.4 -3.075,1.2c-0.77,0.8 -1.225,1.93 -1.365,3.39l8.49,0c-0.04,-1.48 -0.41,-2.615 -1.11,-3.405c-0.7,-0.79 -1.68,-1.185 -2.94,-1.185Z" style="fill:#393939;fill-rule:nonzero;"/><path d="M445.83,6.39c0.84,-0.06 1.26,0.28 1.26,1.02c0,0.32 -0.09,0.575 -0.27,0.765c-0.18,0.19 -0.49,0.305 -0.93,0.345l-0.9,0.09c-1.34,0.12 -2.335,0.595 -2.985,1.425c-0.65,0.83 -0.975,1.805 -0.975,2.925l0,7.29c0,0.4 -0.11,0.7 -0.33,0.9c-0.22,0.2 -0.51,0.3 -0.87,0.3c-0.36,0 -0.655,-0.105 -0.885,-0.315c-0.23,-0.21 -0.345,-0.505 -0.345,-0.885l0,-12.66c0,-0.38 0.12,-0.675 0.36,-0.885c0.24,-0.21 0.53,-0.315 0.87,-0.315c0.32,0 0.59,0.105 0.81,0.315c0.22,0.21 0.33,0.495 0.33,0.855l0,1.68c0.42,-0.88 1.015,-1.55 1.785,-2.01c0.77,-0.46 1.655,-0.73 2.655,-0.81l0.42,-0.03Z" style="fill:#393939;fill-rule:nonzero;"/><path d="M455.04,6.33c3.66,0 5.49,1.92 5.49,5.76l0,8.16c0,0.36 -0.105,0.65 -0.315,0.87c-0.21,0.22 -0.495,0.33 -0.855,0.33c-0.36,0 -0.65,-0.11 -0.87,-0.33c-0.22,-0.22 -0.33,-0.51 -0.33,-0.87l0,-1.44c-0.38,0.86 -0.96,1.525 -1.74,1.995c-0.78,0.47 -1.68,0.705 -2.7,0.705c-0.94,0 -1.805,-0.19 -2.595,-0.57c-0.79,-0.38 -1.415,-0.91 -1.875,-1.59c-0.46,-0.68 -0.69,-1.43 -0.69,-2.25c0,-1.1 0.28,-1.955 0.84,-2.565c0.56,-0.61 1.48,-1.05 2.76,-1.32c1.28,-0.27 3.06,-0.405 5.34,-0.405l0.66,0l0,-0.99c0,-1.2 -0.245,-2.08 -0.735,-2.64c-0.49,-0.56 -1.285,-0.84 -2.385,-0.84c-1.36,0 -2.74,0.37 -4.14,1.11c-0.54,0.34 -0.92,0.51 -1.14,0.51c-0.24,0 -0.44,-0.09 -0.6,-0.27c-0.16,-0.18 -0.24,-0.41 -0.24,-0.69c0,-0.28 0.085,-0.525 0.255,-0.735c0.17,-0.21 0.445,-0.425 0.825,-0.645c0.7,-0.4 1.495,-0.715 2.385,-0.945c0.89,-0.23 1.775,-0.345 2.655,-0.345Zm-0.99,13.26c1.2,0 2.185,-0.405 2.955,-1.215c0.77,-0.81 1.155,-1.855 1.155,-3.135l0,-0.87l-0.54,0c-1.76,0 -3.1,0.075 -4.02,0.225c-0.92,0.15 -1.575,0.4 -1.965,0.75c-0.39,0.35 -0.585,0.865 -0.585,1.545c0,0.78 0.285,1.425 0.855,1.935c0.57,0.51 1.285,0.765 2.145,0.765Z" style="fill:#393939;fill-rule:nonzero;"/><path d="M473.94,21.45c-0.36,0 -0.655,-0.105 -0.885,-0.315c-0.23,-0.21 -0.345,-0.505 -0.345,-0.885l0,-12.66c0,-0.38 0.115,-0.675 0.345,-0.885c0.23,-0.21 0.525,-0.315 0.885,-0.315c0.36,0 0.65,0.105 0.87,0.315c0.22,0.21 0.33,0.505 0.33,0.885l0,12.66c0,0.4 -0.11,0.7 -0.33,0.9c-0.22,0.2 -0.51,0.3 -0.87,0.3Zm0,-18.21c-0.48,0 -0.87,-0.14 -1.17,-0.42c-0.3,-0.28 -0.45,-0.65 -0.45,-1.11c0,-0.44 0.15,-0.8 0.45,-1.08c0.3,-0.28 0.69,-0.42 1.17,-0.42c0.48,0 0.87,0.14 1.17,0.42c0.3,0.28 0.45,0.64 0.45,1.08c0,0.46 -0.15,0.83 -0.45,1.11c-0.3,0.28 -0.69,0.42 -1.17,0.42Z" style="fill:#393939;fill-rule:nonzero;"/><path d="M498.15,19.38c0.34,0 0.6,0.085 0.78,0.255c0.18,0.17 0.27,0.405 0.27,0.705c0,0.3 -0.09,0.535 -0.27,0.705c-0.18,0.17 -0.44,0.255 -0.78,0.255l-10.5,0c-0.34,0 -0.62,-0.105 -0.84,-0.315c-0.22,-0.21 -0.33,-0.465 -0.33,-0.765c0,-0.32 0.12,-0.63 0.36,-0.93l8.88,-10.68l-8.22,0c-0.34,0 -0.605,-0.085 -0.795,-0.255c-0.19,-0.17 -0.285,-0.395 -0.285,-0.675c0,-0.3 0.095,-0.54 0.285,-0.72c0.19,-0.18 0.455,-0.27 0.795,-0.27l10.17,0c0.36,0 0.65,0.105 0.87,0.315c0.22,0.21 0.33,0.465 0.33,0.765c0,0.32 -0.12,0.63 -0.36,0.93l-8.91,10.68l8.55,0Z" style="fill:#393939;fill-rule:nonzero;"/><path d="M512.85,7.14c0.22,-0.48 0.57,-0.72 1.05,-0.72c0.3,0 0.57,0.1 0.81,0.3c0.24,0.2 0.36,0.45 0.36,0.75c0,0.18 -0.04,0.34 -0.12,0.48l-8.43,18.18c-0.1,0.22 -0.245,0.39 -0.435,0.51c-0.19,0.12 -0.385,0.18 -0.585,0.18c-0.3,0 -0.565,-0.095 -0.795,-0.285c-0.23,-0.19 -0.345,-0.435 -0.345,-0.735c0,-0.16 0.04,-0.32 0.12,-0.48l2.1,-4.53l-5.94,-12.84c-0.08,-0.14 -0.12,-0.29 -0.12,-0.45c0,-0.3 0.135,-0.56 0.405,-0.78c0.27,-0.22 0.565,-0.33 0.885,-0.33c0.2,0 0.395,0.06 0.585,0.18c0.19,0.12 0.335,0.29 0.435,0.51l5.01,11.25l5.01,-11.19Z" style="fill:#393939;fill-rule:nonzero;"/><path d="M522.39,21.51c-0.92,0 -1.795,-0.11 -2.625,-0.33c-0.83,-0.22 -1.565,-0.53 -2.205,-0.93c-0.36,-0.24 -0.615,-0.465 -0.765,-0.675c-0.15,-0.21 -0.225,-0.465 -0.225,-0.765c0,-0.26 0.075,-0.475 0.225,-0.645c0.15,-0.17 0.345,-0.255 0.585,-0.255c0.24,0 0.59,0.15 1.05,0.45c0.6,0.36 1.195,0.645 1.785,0.855c0.59,0.21 1.325,0.315 2.205,0.315c1.08,0 1.92,-0.19 2.52,-0.57c0.6,-0.38 0.9,-0.93 0.9,-1.65c0,-0.44 -0.11,-0.795 -0.33,-1.065c-0.22,-0.27 -0.6,-0.51 -1.14,-0.72c-0.54,-0.21 -1.33,-0.425 -2.37,-0.645c-1.76,-0.38 -3.02,-0.89 -3.78,-1.53c-0.76,-0.64 -1.14,-1.51 -1.14,-2.61c0,-0.86 0.24,-1.62 0.72,-2.28c0.48,-0.66 1.145,-1.18 1.995,-1.56c0.85,-0.38 1.815,-0.57 2.895,-0.57c0.78,0 1.535,0.105 2.265,0.315c0.73,0.21 1.375,0.505 1.935,0.885c0.68,0.48 1.02,0.98 1.02,1.5c0,0.26 -0.08,0.48 -0.24,0.66c-0.16,0.18 -0.35,0.27 -0.57,0.27c-0.24,0 -0.6,-0.17 -1.08,-0.51c-0.56,-0.36 -1.09,-0.64 -1.59,-0.84c-0.5,-0.2 -1.12,-0.3 -1.86,-0.3c-0.94,0 -1.695,0.21 -2.265,0.63c-0.57,0.42 -0.855,0.98 -0.855,1.68c0,0.44 0.105,0.795 0.315,1.065c0.21,0.27 0.56,0.51 1.05,0.72c0.49,0.21 1.195,0.415 2.115,0.615c1.36,0.3 2.415,0.63 3.165,0.99c0.75,0.36 1.285,0.8 1.605,1.32c0.32,0.52 0.48,1.18 0.48,1.98c0,1.26 -0.53,2.275 -1.59,3.045c-1.06,0.77 -2.46,1.155 -4.2,1.155Z" style="fill:#393939;fill-rule:nonzero;"/><path d="M543.54,19.38c0.32,0.3 0.48,0.62 0.48,0.96c0,0.3 -0.105,0.56 -0.315,0.78c-0.21,0.22 -0.465,0.33 -0.765,0.33c-0.26,0 -0.53,-0.12 -0.81,-0.36l-7.83,-6.75l0,5.91c0,0.38 -0.115,0.675 -0.345,0.885c-0.23,0.21 -0.515,0.315 -0.855,0.315c-0.36,0 -0.655,-0.105 -0.885,-0.315c-0.23,-0.21 -0.345,-0.505 -0.345,-0.885l0,-19.05c0,-0.38 0.115,-0.675 0.345,-0.885c0.23,-0.21 0.525,-0.315 0.885,-0.315c0.34,0 0.625,0.105 0.855,0.315c0.23,0.21 0.345,0.505 0.345,0.885l0,12.18l7.17,-6.57c0.24,-0.24 0.51,-0.36 0.81,-0.36c0.3,0 0.56,0.11 0.78,0.33c0.22,0.22 0.33,0.48 0.33,0.78c0,0.34 -0.14,0.64 -0.42,0.9l-5.91,5.28l6.48,5.64Z" style="fill:#393939;fill-rule:nonzero;"/><path d="M552.72,6.33c3.66,0 5.49,1.92 5.49,5.76l0,8.16c0,0.36 -0.105,0.65 -0.315,0.87c-0.21,0.22 -0.495,0.33 -0.855,0.33c-0.36,0 -0.65,-0.11 -0.87,-0.33c-0.22,-0.22 -0.33,-0.51 -0.33,-0.87l0,-1.44c-0.38,0.86 -0.96,1.525 -1.74,1.995c-0.78,0.47 -1.68,0.705 -2.7,0.705c-0.94,0 -1.805,-0.19 -2.595,-0.57c-0.79,-0.38 -1.415,-0.91 -1.875,-1.59c-0.46,-0.68 -0.69,-1.43 -0.69,-2.25c0,-1.1 0.28,-1.955 0.84,-2.565c0.56,-0.61 1.48,-1.05 2.76,-1.32c1.28,-0.27 3.06,-0.405 5.34,-0.405l0.66,0l0,-0.99c0,-1.2 -0.245,-2.08 -0.735,-2.64c-0.49,-0.56 -1.285,-0.84 -2.385,-0.84c-1.36,0 -2.74,0.37 -4.14,1.11c-0.54,0.34 -0.92,0.51 -1.14,0.51c-0.24,0 -0.44,-0.09 -0.6,-0.27c-0.16,-0.18 -0.24,-0.41 -0.24,-0.69c0,-0.28 0.085,-0.525 0.255,-0.735c0.17,-0.21 0.445,-0.425 0.825,-0.645c0.7,-0.4 1.495,-0.715 2.385,-0.945c0.89,-0.23 1.775,-0.345 2.655,-0.345Zm-0.99,13.26c1.2,0 2.185,-0.405 2.955,-1.215c0.77,-0.81 1.155,-1.855 1.155,-3.135l0,-0.87l-0.54,0c-1.76,0 -3.1,0.075 -4.02,0.225c-0.92,0.15 -1.575,0.4 -1.965,0.75c-0.39,0.35 -0.585,0.865 -0.585,1.545c0,0.78 0.285,1.425 0.855,1.935c0.57,0.51 1.285,0.765 2.145,0.765Z" style="fill:#393939;fill-rule:nonzero;"/><path d="M559.62,26.76c-0.5,0.04 -0.875,-0.025 -1.125,-0.195c-0.25,-0.17 -0.375,-0.425 -0.375,-0.765c0,-0.54 0.35,-0.85 1.05,-0.93l0.84,-0.06c0.9,-0.06 1.565,-0.33 1.995,-0.81c0.43,-0.48 0.645,-1.27 0.645,-2.37l0,-14.04c0,-0.38 0.115,-0.675 0.345,-0.885c0.23,-0.21 0.525,-0.315 0.885,-0.315c0.36,0 0.65,0.105 0.87,0.315c0.22,0.21 0.33,0.505 0.33,0.885l0,13.89c0,1.68 -0.375,2.94 -1.125,3.78c-0.75,0.84 -1.915,1.32 -3.495,1.44l-0.84,0.06Zm4.26,-23.52c-0.48,0 -0.87,-0.14 -1.17,-0.42c-0.3,-0.28 -0.45,-0.65 -0.45,-1.11c0,-0.44 0.15,-0.8 0.45,-1.08c0.3,-0.28 0.69,-0.42 1.17,-0.42c0.48,0 0.87,0.14 1.17,0.42c0.3,0.28 0.45,0.64 0.45,1.08c0,0.46 -0.15,0.83 -0.45,1.11c-0.3,0.28 -0.69,0.42 -1.17,0.42Z" style="fill:#393939;fill-rule:nonzero;"/></svg>