<?xml version="1.0" encoding="UTF-8" standalone="no"?><!DOCTYPE svg PUBLIC "-//W3C//DTD SVG 1.1//EN" "http://www.w3.org/Graphics/SVG/1.1/DTD/svg11.dtd"><svg width="100%" height="100%" viewBox="0 0 561 69" version="1.1" xmlns="http://www.w3.org/2000/svg" xmlns:xlink="http://www.w3.org/1999/xlink" xml:space="preserve" xmlns:serif="http://www.serif.com/" style="fill-rule:evenodd;clip-rule:evenodd;stroke-linejoin:round;stroke-miterlimit:1.41421;"><path d="M4.831,31.689l3.979,0c0.6,0 1.121,-0.023 1.563,-0.071c0.443,-0.047 0.845,-0.142 1.208,-0.284c0.363,-0.142 0.703,-0.324 1.019,-0.545c0.316,-0.221 0.647,-0.505 0.994,-0.852l27.048,-27.805c0.505,-0.506 0.971,-0.861 1.397,-1.066c0.426,-0.205 0.955,-0.308 1.587,-0.308l3.931,0l-29.273,30.079c-0.6,0.631 -1.129,1.121 -1.587,1.468c-0.458,0.347 -0.971,0.632 -1.539,0.853c0.663,0.189 1.255,0.481 1.776,0.876c0.521,0.395 1.05,0.908 1.587,1.539l30.884,32.211l-3.932,0c-0.821,0 -1.405,-0.119 -1.752,-0.355c-0.348,-0.237 -0.711,-0.545 -1.09,-0.924l-28.373,-28.989c-0.348,-0.348 -0.664,-0.648 -0.948,-0.9c-0.284,-0.253 -0.608,-0.466 -0.971,-0.64c-0.363,-0.174 -0.797,-0.3 -1.302,-0.379c-0.506,-0.079 -1.137,-0.118 -1.895,-0.118l-4.311,0l0,32.305l-4.831,0l0,-67.121l4.831,0l0,31.026Z" style="fill:#393939;fill-rule:nonzero;"/><path d="M85.878,64.326c3.221,0 6.103,-0.561 8.645,-1.682c2.542,-1.121 4.697,-2.676 6.466,-4.665c1.768,-1.99 3.118,-4.335 4.05,-7.035c0.931,-2.7 1.397,-5.613 1.397,-8.739l0,-41.447l4.832,0l0,41.447c0,3.695 -0.585,7.145 -1.753,10.35c-1.168,3.205 -2.85,6 -5.045,8.384c-2.195,2.384 -4.863,4.255 -8.005,5.613c-3.142,1.358 -6.671,2.037 -10.587,2.037c-3.916,0 -7.444,-0.679 -10.587,-2.037c-3.142,-1.358 -5.81,-3.229 -8.005,-5.613c-2.194,-2.384 -3.876,-5.179 -5.044,-8.384c-1.169,-3.205 -1.753,-6.655 -1.753,-10.35l0,-41.447l4.879,0l0,41.4c0,3.126 0.466,6.039 1.397,8.739c0.932,2.7 2.274,5.045 4.026,7.034c1.753,1.99 3.9,3.553 6.443,4.69c2.542,1.136 5.423,1.705 8.644,1.705Z" style="fill:#393939;fill-rule:nonzero;"/><path d="M136.846,40.784l0,27l-4.831,0l0,-67.026l17.289,0c7.863,0 13.792,1.721 17.787,5.163c3.995,3.442 5.992,8.353 5.992,14.732c0,2.936 -0.545,5.636 -1.634,8.099c-1.09,2.464 -2.661,4.587 -4.713,6.371c-2.053,1.785 -4.548,3.174 -7.485,4.169c-2.936,0.995 -6.252,1.492 -9.947,1.492l-12.458,0Zm0,-3.884l12.458,0c2.969,0 5.621,-0.411 7.958,-1.232c2.337,-0.821 4.318,-1.958 5.945,-3.41c1.626,-1.453 2.873,-3.166 3.742,-5.14c0.868,-1.973 1.302,-4.129 1.302,-6.465c0,-5.148 -1.586,-9.111 -4.76,-11.89c-3.174,-2.779 -7.903,-4.168 -14.187,-4.168l-12.458,0l0,32.305Z" style="fill:#393939;fill-rule:nonzero;"/><path d="M246.598,34.247c0,5.179 -0.773,9.876 -2.321,14.092c-1.547,4.216 -3.726,7.816 -6.537,10.8c-2.81,2.984 -6.173,5.29 -10.089,6.916c-3.916,1.626 -8.258,2.439 -13.026,2.439c-4.705,0 -9.016,-0.813 -12.932,-2.439c-3.915,-1.626 -7.279,-3.932 -10.089,-6.916c-2.811,-2.984 -4.997,-6.584 -6.561,-10.8c-1.563,-4.216 -2.344,-8.913 -2.344,-14.092c0,-5.147 0.781,-9.829 2.344,-14.044c1.564,-4.216 3.75,-7.816 6.561,-10.8c2.81,-2.985 6.174,-5.298 10.089,-6.94c3.916,-1.642 8.227,-2.463 12.932,-2.463c4.768,0 9.11,0.813 13.026,2.439c3.916,1.627 7.279,3.94 10.089,6.94c2.811,3 4.99,6.608 6.537,10.824c1.548,4.215 2.321,8.897 2.321,14.044Zm-5.021,0c0,-4.674 -0.647,-8.873 -1.942,-12.6c-1.295,-3.726 -3.118,-6.884 -5.471,-9.473c-2.352,-2.59 -5.187,-4.571 -8.502,-5.945c-3.316,-1.374 -6.995,-2.061 -11.037,-2.061c-3.979,0 -7.619,0.687 -10.919,2.061c-3.3,1.374 -6.142,3.355 -8.526,5.945c-2.384,2.589 -4.231,5.747 -5.542,9.473c-1.31,3.727 -1.966,7.926 -1.966,12.6c0,4.705 0.656,8.913 1.966,12.624c1.311,3.71 3.158,6.86 5.542,9.45c2.384,2.589 5.226,4.563 8.526,5.921c3.3,1.358 6.94,2.037 10.919,2.037c4.042,0 7.721,-0.679 11.037,-2.037c3.315,-1.358 6.15,-3.332 8.502,-5.921c2.353,-2.59 4.176,-5.74 5.471,-9.45c1.295,-3.711 1.942,-7.919 1.942,-12.624Z" style="fill:#393939;fill-rule:nonzero;"/><path d="M264.74,0.758c0.442,0 0.79,0.055 1.042,0.166c0.253,0.11 0.521,0.355 0.806,0.734l43.389,58.073c-0.095,-0.947 -0.142,-1.863 -0.142,-2.747l0,-56.226l4.263,0l0,67.026l-2.321,0c-0.726,0 -1.311,-0.316 -1.753,-0.948l-43.578,-58.168c0.094,0.948 0.142,1.848 0.142,2.7l0,56.416l-4.216,0l0,-67.026l2.368,0Z" style="fill:#393939;fill-rule:nonzero;"/><path d="M356.966,64.326l15.395,0l0,-54.419c0,-1.075 0.047,-2.212 0.142,-3.413l-14.779,13.13c-0.316,0.285 -0.695,0.428 -1.137,0.428c-0.537,0 -0.947,-0.19 -1.232,-0.57l-1.373,-1.896l19.373,-17.112l3.506,0l0,63.852l14.636,0l0,3.458l-34.531,0l0,-3.458Z" style="fill:#393939;fill-rule:nonzero;"/><path d="M448.765,34.247c0,5.874 -0.631,10.958 -1.894,15.253c-1.263,4.294 -2.984,7.847 -5.163,10.658c-2.179,2.81 -4.729,4.902 -7.65,6.276c-2.921,1.373 -6.04,2.06 -9.356,2.06c-3.315,0 -6.426,-0.687 -9.331,-2.06c-2.905,-1.374 -5.447,-3.466 -7.626,-6.276c-2.179,-2.811 -3.892,-6.364 -5.14,-10.658c-1.247,-4.295 -1.871,-9.379 -1.871,-15.253c0,-5.873 0.624,-10.958 1.871,-15.252c1.248,-4.295 2.961,-7.848 5.14,-10.658c2.179,-2.811 4.721,-4.903 7.626,-6.276c2.905,-1.374 6.016,-2.061 9.331,-2.061c3.316,0 6.435,0.687 9.356,2.061c2.921,1.373 5.471,3.465 7.65,6.276c2.179,2.81 3.9,6.363 5.163,10.658c1.263,4.294 1.894,9.379 1.894,15.252Zm-4.736,0c0,-5.431 -0.521,-10.073 -1.564,-13.926c-1.042,-3.853 -2.439,-7.003 -4.192,-9.45c-1.752,-2.447 -3.805,-4.239 -6.157,-5.376c-2.353,-1.137 -4.824,-1.706 -7.414,-1.706c-2.589,0 -5.052,0.569 -7.389,1.706c-2.337,1.137 -4.389,2.929 -6.158,5.376c-1.768,2.447 -3.174,5.597 -4.216,9.45c-1.042,3.853 -1.563,8.495 -1.563,13.926c0,5.463 0.521,10.113 1.563,13.95c1.042,3.837 2.448,6.979 4.216,9.426c1.769,2.448 3.821,4.232 6.158,5.353c2.337,1.121 4.8,1.681 7.389,1.681c2.59,0 5.061,-0.56 7.414,-1.681c2.352,-1.121 4.405,-2.905 6.157,-5.353c1.753,-2.447 3.15,-5.589 4.192,-9.426c1.043,-3.837 1.564,-8.487 1.564,-13.95Z" style="fill:#393939;fill-rule:nonzero;"/><path d="M507.312,0.758l0,1.658c0,0.663 -0.221,1.31 -0.663,1.942l-42.536,59.399l42.82,0l0,4.027l-49.262,0l0,-1.753c0,-0.6 0.189,-1.168 0.568,-1.705l42.631,-59.542l-41.968,0l0,-4.026l48.41,0Z" style="fill:#393939;fill-rule:nonzero;"/><path d="M529.007,33.584l19.753,-10.279l0,2.984c0,0.348 -0.064,0.632 -0.19,0.853c-0.126,0.221 -0.363,0.426 -0.71,0.616l-18.853,10.042l0,25.863l31.784,0l0,4.121l-36.616,0l0,-27.805l-9.236,4.784l0,-3.126c0,-0.6 0.284,-1.058 0.852,-1.374l8.384,-4.405l0,-35.1l4.832,0l0,32.826Z" style="fill:#393939;fill-rule:nonzero;"/></svg>