<?xml version="1.0" encoding="UTF-8" standalone="no"?><!DOCTYPE svg PUBLIC "-//W3C//DTD SVG 1.1//EN" "http://www.w3.org/Graphics/SVG/1.1/DTD/svg11.dtd"><svg width="100%" height="100%" viewBox="0 0 1120 350" version="1.1" xmlns="http://www.w3.org/2000/svg" xmlns:xlink="http://www.w3.org/1999/xlink" xml:space="preserve" xmlns:serif="http://www.serif.com/" style="fill-rule:evenodd;clip-rule:evenodd;stroke-linejoin:round;stroke-miterlimit:1.41421;"><path d="M219.869,96.041l-59.709,0l-0.158,0l-0.142,0.002l-0.142,0.002l-0.142,0.003l-0.142,0.004l-0.141,0.005l-0.142,0.005l-0.141,0.007l-0.141,0.007l-0.141,0.009l-0.141,0.009l-0.141,0.01l-0.141,0.011l-0.141,0.012l-0.14,0.012l-0.14,0.014l-0.14,0.014l-0.14,0.015l-0.14,0.016l-0.14,0.017l-0.139,0.018l-0.14,0.019l-0.139,0.019l-0.139,0.02l-0.138,0.022l-0.139,0.022l-0.138,0.022l-0.139,0.024l-0.138,0.025l-0.138,0.025l-0.137,0.026l-0.138,0.027l-0.137,0.028l-0.137,0.029l-0.137,0.029l-0.136,0.031l-0.137,0.031l-0.136,0.032l-0.136,0.033l-0.135,0.033l-0.136,0.035l-0.135,0.035l-0.135,0.036l-0.135,0.037l-0.134,0.038l-0.134,0.039l-0.134,0.039l-0.134,0.04l-0.134,0.041l-0.133,0.042l-0.133,0.043l-0.132,0.043l-0.133,0.044l-0.132,0.045l-0.131,0.046l-0.132,0.047l-0.131,0.047l-0.131,0.049l-0.131,0.049l-0.13,0.049l-0.13,0.051l-0.129,0.051l-0.13,0.053l-0.129,0.053l-0.129,0.053l-0.128,0.055l-0.128,0.055l-0.127,0.056l-0.128,0.057l-0.127,0.058l-0.126,0.058l-0.127,0.06l-0.126,0.06l-0.125,0.06l-0.126,0.062l-0.124,0.062l-0.125,0.063l-0.124,0.064l-0.124,0.065l-0.123,0.065l-0.123,0.066l-0.123,0.067l-0.122,0.068l-0.122,0.068l-0.121,0.069l-0.121,0.07l-0.121,0.071l-0.12,0.071l-0.119,0.072l-0.12,0.073l-0.119,0.074l-0.118,0.074l-0.118,0.075l-0.118,0.076l-0.117,0.077l-0.117,0.077l-0.116,0.078l-0.116,0.079l-0.115,0.079l-0.115,0.081l-0.115,0.081l-0.114,0.081l-0.114,0.083l-0.113,0.083l-0.112,0.084l-0.112,0.085l-0.112,0.085l-0.111,0.086l-0.111,0.087l-0.11,0.087l-0.11,0.088l-0.109,0.089l-0.109,0.09l-0.108,0.09l-0.108,0.091l-0.107,0.092l-0.107,0.093l-0.106,0.093l-0.105,0.094l-0.106,0.094l-0.104,0.096l-0.104,0.096l-0.104,0.097l-0.103,0.097l-0.102,0.098l-0.102,0.099l-0.102,0.099l-0.101,0.101l-0.1,0.101l-0.099,0.101l-0.099,0.102l-0.098,0.102l-0.098,0.103l-0.097,0.104l-0.096,0.104l-0.095,0.105l-0.094,0.105l-0.094,0.105l-0.094,0.107l-0.092,0.106l-0.092,0.108l-0.091,0.107l-0.09,0.108l-0.09,0.109l-0.089,0.109l-0.088,0.11l-0.088,0.111l-0.087,0.11l-0.085,0.111l-0.086,0.112l-0.084,0.112l-0.084,0.113l-0.084,0.113l-0.082,0.113l-0.082,0.114l-0.081,0.115l-0.08,0.115l-0.08,0.115l-0.078,0.116l-0.078,0.116l-0.078,0.117l-0.076,0.118l-0.076,0.117l-0.075,0.118l-0.075,0.118l-0.073,0.119l-0.073,0.12l-0.072,0.12l-0.072,0.12l-0.07,0.12l-0.07,0.121l-0.069,0.122l-0.069,0.121l-0.067,0.123l-0.067,0.122l-0.066,0.123l-0.066,0.124l-0.064,0.123l-0.064,0.124l-0.063,0.125l-0.063,0.125l-0.061,0.125l-0.061,0.126l-0.06,0.125l-0.059,0.127l-0.058,0.126l-0.058,0.127l-0.057,0.128l-0.056,0.127l-0.055,0.129l-0.055,0.128l-0.054,0.128l-0.053,0.13l-0.052,0.129l-0.051,0.129l-0.051,0.131l-0.05,0.13l-0.049,0.13l-0.048,0.131l-0.047,0.131l-0.047,0.132l-0.046,0.132l-0.045,0.132l-0.044,0.132l-0.044,0.132l-0.042,0.134l-0.042,0.133l-0.041,0.133l-0.04,0.134l-0.04,0.134l-0.038,0.134l-0.038,0.135l-0.037,0.134l-0.036,0.135l-0.035,0.135l-0.035,0.136l-0.033,0.135l-0.033,0.137l-0.032,0.136l-0.032,0.136l-0.03,0.137l-0.029,0.136l-0.029,0.137l-0.028,0.138l-0.027,0.137l-0.026,0.138l-0.026,0.138l-0.024,0.137l-0.024,0.139l-0.023,0.138l-0.022,0.139l-0.021,0.139l-0.02,0.139l-0.02,0.139l-0.018,0.139l-0.018,0.14l-0.017,0.139l-0.016,0.14l-0.015,0.14l-0.014,0.14l-0.014,0.141l-0.013,0.14l-0.011,0.14l-0.011,0.141l-0.01,0.141l-0.01,0.141l-0.008,0.141l-0.007,0.141l-0.007,0.142l-0.006,0.141l-0.004,0.142l-0.004,0.141l-0.003,0.142l-0.003,0.142l-0.001,0.142l0,0.158l0,0.195l0,0.166l0.001,0.149l0.003,0.149l0.003,0.148l0.004,0.148l0.006,0.148l0.006,0.148l0.007,0.147l0.007,0.147l0.009,0.147l0.01,0.146l0.011,0.146l0.011,0.146l0.013,0.145l0.013,0.145l0.014,0.145l0.015,0.145l0.016,0.144l0.017,0.144l0.018,0.143l0.019,0.143l0.019,0.143l0.021,0.143l0.021,0.142l0.022,0.142l0.023,0.141l0.024,0.142l0.025,0.14l0.025,0.141l0.027,0.14l0.027,0.14l0.028,0.14l0.029,0.139l0.03,0.139l0.031,0.139l0.031,0.138l0.032,0.138l0.033,0.138l0.034,0.137l0.035,0.137l0.036,0.137l0.036,0.136l0.037,0.136l0.038,0.135l0.039,0.136l0.04,0.134l0.04,0.135l0.042,0.134l0.042,0.134l0.043,0.134l0.043,0.133l0.045,0.133l0.045,0.132l0.046,0.132l0.047,0.132l0.048,0.131l0.048,0.131l0.049,0.131l0.05,0.129l0.051,0.131l0.051,0.129l0.053,0.129l0.053,0.129l0.054,0.128l0.054,0.128l0.055,0.127l0.057,0.128l0.056,0.126l0.058,0.127l0.058,0.126l0.059,0.125l0.06,0.125l0.061,0.125l0.061,0.124l0.062,0.124l0.063,0.124l0.063,0.123l0.065,0.122l0.064,0.122l0.066,0.123l0.067,0.121l0.067,0.121l0.068,0.12l0.068,0.12l0.07,0.12l0.07,0.119l0.07,0.119l0.071,0.118l0.073,0.118l0.072,0.117l0.074,0.117l0.074,0.117l0.075,0.116l0.075,0.115l0.077,0.116l0.077,0.114l0.077,0.114l0.078,0.113l0.079,0.114l0.08,0.113l0.08,0.112l0.081,0.111l0.082,0.111l0.082,0.111l0.083,0.11l0.083,0.11l0.085,0.109l0.085,0.109l0.085,0.108l0.086,0.107l0.087,0.108l0.087,0.106l0.088,0.106l0.089,0.106l0.089,0.105l0.09,0.104l0.091,0.104l0.091,0.103l0.092,0.103l0.092,0.102l0.093,0.102l0.093,0.101l0.095,0.101l0.095,0.1l0.095,0.099l0.096,0.099l0.096,0.098l0.098,0.098l0.097,0.097l0.099,0.097l0.098,0.096l0.1,0.095l0.1,0.094l0.1,0.095l0.102,0.093l0.101,0.093l0.102,0.093l0.103,0.091l0.103,0.092l0.104,0.09l0.105,0.09l0.105,0.089l0.105,0.089l0.106,0.088l0.107,0.088l0.107,0.086l0.108,0.086l0.108,0.086l0.108,0.085l0.11,0.084l0.109,0.084l0.11,0.082l0.111,0.082l0.111,0.082l0.112,0.081l0.112,0.08l0.113,0.08l0.113,0.079l0.113,0.078l0.115,0.078l0.114,0.077l0.115,0.076l0.115,0.075l0.117,0.075l0.116,0.075l0.117,0.073l0.117,0.073l0.118,0.072l0.118,0.071l0.119,0.071l0.119,0.07l0.12,0.069l0.12,0.069l0.121,0.068l0.121,0.067l0.121,0.066l0.122,0.066l0.122,0.065l0.123,0.064l0.123,0.064l0.123,0.062l0.124,0.062l0.124,0.062l0.125,0.06l0.125,0.06l0.126,0.059l0.126,0.058l0.126,0.058l0.127,0.057l0.127,0.056l0.127,0.055l0.128,0.055l0.129,0.054l0.128,0.053l0.129,0.052l0.13,0.051l0.13,0.051l0.13,0.05l0.131,0.049l0.13,0.049l0.132,0.047l0.131,0.047l0.133,0.046l0.132,0.045l0.133,0.045l0.133,0.044l0.133,0.043l0.134,0.042l0.134,0.041l0.135,0.04l0.135,0.04l0.135,0.039l0.135,0.038l0.137,0.037l0.136,0.037l0.136,0.035l0.137,0.035l0.138,0.034l0.137,0.033l0.138,0.032l0.138,0.032l0.139,0.03l0.139,0.03l0.14,0.029l0.139,0.028l0.14,0.028l0.14,0.026l0.141,0.026l0.141,0.024l0.141,0.024l0.142,0.023l0.142,0.022l0.142,0.022l0.142,0.02l0.143,0.02l0.143,0.018l0.144,0.018l0.144,0.017l0.144,0.016l0.144,0.015l0.145,0.014l0.145,0.014l0.145,0.012l0.146,0.012l0.146,0.01l0.147,0.01l0.146,0.009l0.147,0.008l0.147,0.007l0.148,0.006l0.148,0.005l0.148,0.004l0.149,0.004l0.149,0.002l0.149,0.001l0.165,0.001l37.703,0l0.257,0.001l0.273,0.002l0.272,0.005l0.271,0.006l0.272,0.007l0.271,0.01l0.271,0.011l0.27,0.013l0.27,0.014l0.27,0.017l0.269,0.017l0.269,0.02l0.268,0.021l0.269,0.023l0.267,0.025l0.267,0.026l0.267,0.028l0.267,0.03l0.265,0.031l0.265,0.033l0.266,0.034l0.264,0.037l0.264,0.037l0.263,0.04l0.264,0.041l0.262,0.042l0.262,0.045l0.261,0.046l0.261,0.047l0.261,0.049l0.26,0.051l0.259,0.052l0.259,0.054l0.258,0.055l0.257,0.057l0.258,0.059l0.256,0.06l0.256,0.061l0.255,0.063l0.255,0.065l0.254,0.066l0.254,0.068l0.253,0.069l0.252,0.071l0.251,0.072l0.251,0.074l0.251,0.075l0.249,0.077l0.25,0.079l0.248,0.079l0.247,0.082l0.247,0.082l0.247,0.085l0.245,0.085l0.245,0.087l0.245,0.089l0.243,0.09l0.243,0.091l0.242,0.093l0.242,0.095l0.24,0.095l0.24,0.098l0.239,0.098l0.239,0.1l0.238,0.102l0.237,0.102l0.236,0.105l0.235,0.105l0.235,0.107l0.234,0.108l0.233,0.11l0.232,0.111l0.232,0.113l0.23,0.113l0.23,0.116l0.229,0.116l0.228,0.118l0.228,0.119l0.227,0.12l0.225,0.122l0.225,0.123l0.225,0.125l0.222,0.125l0.223,0.127l0.222,0.129l0.22,0.129l0.22,0.131l0.219,0.132l0.218,0.134l0.217,0.134l0.216,0.136l0.216,0.137l0.214,0.139l0.214,0.139l0.213,0.141l0.211,0.142l0.212,0.144l0.209,0.144l0.209,0.146l0.209,0.147l0.207,0.149l0.206,0.149l0.205,0.151l0.204,0.151l0.204,0.154l0.202,0.154l0.202,0.155l0.2,0.157l0.2,0.158l0.198,0.158l0.198,0.161l0.196,0.161l0.196,0.162l0.194,0.164l0.194,0.164l0.192,0.166l0.192,0.167l0.19,0.168l0.19,0.169l0.188,0.17l0.188,0.172l0.186,0.172l0.186,0.174l0.183,0.174l0.184,0.176l0.182,0.177l0.181,0.178l0.18,0.179l0.18,0.18l0.177,0.181l0.177,0.182l0.176,0.183l0.175,0.185l0.173,0.185l0.173,0.187l0.171,0.187l0.17,0.189l0.17,0.189l0.168,0.191l0.166,0.191l0.166,0.192l0.165,0.194l0.163,0.195l0.163,0.195l0.161,0.197l0.16,0.197l0.159,0.199l0.157,0.199l0.157,0.201l0.156,0.201l0.154,0.203l0.153,0.203l0.151,0.204l0.151,0.205l0.15,0.207l0.148,0.207l0.147,0.208l0.146,0.209l0.145,0.21l0.143,0.21l0.142,0.212l0.141,0.213l0.14,0.214l0.138,0.214l0.137,0.216l0.136,0.216l0.135,0.217l0.133,0.218l0.132,0.219l0.131,0.22l0.13,0.221l0.128,0.221l0.127,0.223l0.126,0.223l0.124,0.224l0.123,0.225l0.122,0.226l0.121,0.227l0.118,0.227l0.118,0.228l0.117,0.23l0.115,0.229l0.114,0.23l0.112,0.232l0.111,0.233l0.11,0.233l0.108,0.233l0.107,0.235l0.106,0.236l0.104,0.236l0.103,0.237l0.101,0.237l0.1,0.239l0.099,0.239l0.097,0.24l0.096,0.241l0.094,0.241l0.093,0.242l0.091,0.243l0.09,0.244l0.089,0.244l0.087,0.245l0.086,0.246l0.084,0.246l0.083,0.247l0.081,0.247l0.08,0.249l0.078,0.249l0.077,0.249l0.075,0.251l0.074,0.251l0.072,0.251l0.071,0.253l0.069,0.253l0.068,0.253l0.067,0.255l0.064,0.254l0.063,0.255l0.062,0.256l0.06,0.257l0.058,0.257l0.057,0.258l0.056,0.258l0.053,0.258l0.053,0.26l0.05,0.26l0.049,0.26l0.048,0.261l0.046,0.261l0.044,0.262l0.043,0.263l0.041,0.263l0.039,0.263l0.038,0.264l0.036,0.265l0.035,0.265l0.032,0.265l0.032,0.266l0.029,0.267l0.028,0.266l0.026,0.267l0.025,0.268l0.023,0.268l0.021,0.268l0.02,0.269l0.018,0.27l0.016,0.269l0.015,0.27l0.012,0.27l0.012,0.271l0.009,0.271l0.008,0.272l0.006,0.272l0.004,0.272l0.003,0.273l0.001,0.256l0,0.082l-0.001,0.249l-0.003,0.265l-0.004,0.264l-0.006,0.264l-0.007,0.263l-0.009,0.264l-0.011,0.264l-0.012,0.262l-0.014,0.263l-0.015,0.262l-0.017,0.262l-0.019,0.264l-0.02,0.261l-0.022,0.262l-0.024,0.26l-0.025,0.262l-0.026,0.261l-0.029,0.26l-0.03,0.261l-0.031,0.26l-0.033,0.26l-0.035,0.259l-0.036,0.259l-0.038,0.258l-0.039,0.259l-0.041,0.257l-0.043,0.259l-0.044,0.258l-0.045,0.256l-0.048,0.256l-0.048,0.257l-0.051,0.256l-0.052,0.255l-0.053,0.255l-0.055,0.255l-0.057,0.254l-0.058,0.254l-0.059,0.253l-0.061,0.254l-0.063,0.252l-0.064,0.252l-0.066,0.251l-0.067,0.252l-0.069,0.251l-0.07,0.25l-0.072,0.249l-0.073,0.249l-0.075,0.25l-0.076,0.248l-0.078,0.248l-0.079,0.247l-0.081,0.246l-0.083,0.247l-0.084,0.246l-0.085,0.246l-0.086,0.244l-0.089,0.243l-0.089,0.244l-0.092,0.243l-0.093,0.243l-0.094,0.242l-0.095,0.24l-0.097,0.241l-0.099,0.241l-0.1,0.239l-0.101,0.238l-0.103,0.239l-0.105,0.237l-0.106,0.237l-0.107,0.237l-0.109,0.236l-0.11,0.234l-0.111,0.234l-0.114,0.234l-0.114,0.233l-0.116,0.233l-0.117,0.231l-0.119,0.231l-0.12,0.231l-0.122,0.229l-0.123,0.229l-0.124,0.228l-0.126,0.227l-0.128,0.227l-0.128,0.226l-0.13,0.225l-0.132,0.224l-0.133,0.224l-0.134,0.223l-0.135,0.222l-0.137,0.221l-0.139,0.221l-0.14,0.22l-0.141,0.218l-0.143,0.219l-0.144,0.217l-0.145,0.217l-0.146,0.215l-0.149,0.215l-0.149,0.214l-0.151,0.213l-0.152,0.213l-0.154,0.211l-0.154,0.21l-0.157,0.21l-0.157,0.209l-0.159,0.208l-0.16,0.207l-0.162,0.206l-0.163,0.205l-0.164,0.204l-0.166,0.204l-0.167,0.202l-0.167,0.201l-0.17,0.201l-0.171,0.2l-0.172,0.198l-0.174,0.198l-0.174,0.196l-0.176,0.196l-0.178,0.195l-0.178,0.193l-0.18,0.193l-0.181,0.192l-0.183,0.19l-0.184,0.19l-0.185,0.189l-0.186,0.187l-0.188,0.186l-0.188,0.185l-0.19,0.184l-0.191,0.183l-0.191,0.181l-0.193,0.18l-0.194,0.179l-0.194,0.177l-0.196,0.176l-0.196,0.175l-0.198,0.173l-0.199,0.173l-0.199,0.17l-0.201,0.17l-0.201,0.168l-0.203,0.167l-0.203,0.165l-0.204,0.165l-0.205,0.163l-0.206,0.161l-0.207,0.16l-0.208,0.159l-0.209,0.158l-0.21,0.156l-0.21,0.155l-0.212,0.153l-0.212,0.152l-0.213,0.151l-0.214,0.15l-0.215,0.148l-0.216,0.146l-0.216,0.146l-0.218,0.144l-0.218,0.142l-0.218,0.141l-0.22,0.14l-0.221,0.139l-0.221,0.137l-0.223,0.136l-0.222,0.134l-0.224,0.133l-0.224,0.131l-0.225,0.13l-0.227,0.129l-0.226,0.127l-0.227,0.126l-0.229,0.124l-0.228,0.123l-0.23,0.122l-0.23,0.12l-0.231,0.119l-0.232,0.117l-0.232,0.116l-0.233,0.115l-0.234,0.113l-0.234,0.112l-0.235,0.11l-0.236,0.108l-0.236,0.108l-0.237,0.106l-0.238,0.104l-0.238,0.103l-0.239,0.101l-0.239,0.1l-0.24,0.099l-0.24,0.097l-0.242,0.096l-0.242,0.094l-0.242,0.093l-0.243,0.091l-0.243,0.089l-0.245,0.089l-0.244,0.087l-0.246,0.085l-0.245,0.084l-0.246,0.082l-0.247,0.081l-0.247,0.079l-0.248,0.078l-0.249,0.076l-0.249,0.075l-0.248,0.073l-0.25,0.072l-0.251,0.07l-0.251,0.069l-0.251,0.067l-0.251,0.066l-0.252,0.064l-0.253,0.063l-0.253,0.061l-0.253,0.06l-0.255,0.058l-0.254,0.056l-0.254,0.055l-0.255,0.054l-0.256,0.052l-0.256,0.05l-0.256,0.049l-0.256,0.047l-0.257,0.046l-0.257,0.044l-0.258,0.042l-0.258,0.041l-0.259,0.039l-0.259,0.038l-0.259,0.037l-0.259,0.034l-0.26,0.033l-0.26,0.032l-0.259,0.03l-0.261,0.028l-0.261,0.027l-0.261,0.025l-0.262,0.023l-0.261,0.022l-0.262,0.02l-0.262,0.019l-0.262,0.017l-0.263,0.016l-0.263,0.014l-0.263,0.012l-0.264,0.01l-0.263,0.009l-0.264,0.008l-0.263,0.006l-0.265,0.004l-0.264,0.002l-0.248,0.001l-64.52,0l0,-20l64.488,0l0.156,-0.001l0.14,-0.001l0.14,-0.002l0.14,-0.003l0.14,-0.004l0.14,-0.005l0.139,-0.005l0.14,-0.007l0.139,-0.007l0.139,-0.008l0.139,-0.01l0.139,-0.009l0.139,-0.011l0.139,-0.012l0.138,-0.012l0.139,-0.014l0.138,-0.014l0.137,-0.015l0.139,-0.016l0.138,-0.016l0.137,-0.018l0.138,-0.018l0.137,-0.019l0.137,-0.02l0.137,-0.021l0.137,-0.022l0.136,-0.022l0.137,-0.024l0.135,-0.024l0.137,-0.025l0.136,-0.026l0.135,-0.027l0.135,-0.027l0.136,-0.028l0.135,-0.03l0.135,-0.03l0.134,-0.03l0.134,-0.032l0.134,-0.032l0.134,-0.033l0.134,-0.034l0.133,-0.035l0.133,-0.036l0.133,-0.036l0.133,-0.038l0.132,-0.038l0.133,-0.039l0.132,-0.039l0.131,-0.041l0.131,-0.041l0.131,-0.042l0.131,-0.043l0.131,-0.043l0.13,-0.045l0.13,-0.045l0.13,-0.046l0.129,-0.047l0.129,-0.047l0.129,-0.049l0.128,-0.049l0.128,-0.05l0.128,-0.05l0.128,-0.052l0.127,-0.052l0.127,-0.053l0.127,-0.054l0.126,-0.055l0.126,-0.055l0.126,-0.056l0.125,-0.057l0.125,-0.058l0.125,-0.058l0.124,-0.059l0.123,-0.06l0.124,-0.061l0.123,-0.061l0.123,-0.063l0.123,-0.063l0.122,-0.063l0.121,-0.065l0.122,-0.065l0.12,-0.066l0.121,-0.067l0.12,-0.067l0.12,-0.068l0.119,-0.069l0.119,-0.07l0.119,-0.07l0.118,-0.072l0.118,-0.071l0.117,-0.073l0.117,-0.073l0.116,-0.074l0.116,-0.075l0.116,-0.076l0.115,-0.076l0.115,-0.077l0.114,-0.078l0.114,-0.078l0.113,-0.08l0.113,-0.08l0.113,-0.08l0.112,-0.081l0.111,-0.082l0.111,-0.083l0.111,-0.084l0.11,-0.084l0.11,-0.085l0.109,-0.085l0.109,-0.087l0.108,-0.087l0.108,-0.087l0.107,-0.089l0.107,-0.089l0.106,-0.09l0.106,-0.091l0.105,-0.091l0.105,-0.091l0.104,-0.093l0.104,-0.094l0.103,-0.094l0.103,-0.095l0.102,-0.095l0.101,-0.096l0.101,-0.096l0.101,-0.098l0.1,-0.098l0.1,-0.099l0.098,-0.1l0.099,-0.1l0.097,-0.1l0.097,-0.101l0.096,-0.102l0.095,-0.102l0.095,-0.103l0.094,-0.103l0.093,-0.104l0.093,-0.104l0.092,-0.105l0.091,-0.105l0.091,-0.106l0.09,-0.106l0.089,-0.107l0.088,-0.107l0.088,-0.107l0.087,-0.109l0.087,-0.109l0.085,-0.109l0.085,-0.109l0.084,-0.111l0.084,-0.11l0.082,-0.111l0.082,-0.112l0.082,-0.112l0.08,-0.112l0.08,-0.114l0.079,-0.113l0.079,-0.114l0.078,-0.114l0.077,-0.115l0.076,-0.115l0.075,-0.115l0.075,-0.117l0.074,-0.116l0.073,-0.116l0.073,-0.118l0.072,-0.118l0.071,-0.118l0.071,-0.118l0.069,-0.119l0.069,-0.12l0.069,-0.12l0.067,-0.119l0.067,-0.121l0.066,-0.121l0.065,-0.122l0.065,-0.121l0.063,-0.122l0.063,-0.122l0.062,-0.124l0.062,-0.123l0.06,-0.123l0.06,-0.124l0.059,-0.124l0.059,-0.125l0.058,-0.125l0.056,-0.125l0.057,-0.126l0.055,-0.125l0.055,-0.127l0.053,-0.127l0.053,-0.127l0.053,-0.127l0.051,-0.127l0.051,-0.128l0.05,-0.129l0.049,-0.128l0.048,-0.129l0.048,-0.128l0.047,-0.13l0.046,-0.13l0.045,-0.13l0.044,-0.13l0.044,-0.13l0.043,-0.131l0.042,-0.132l0.041,-0.131l0.041,-0.132l0.039,-0.131l0.039,-0.132l0.038,-0.133l0.037,-0.133l0.037,-0.132l0.035,-0.134l0.035,-0.133l0.034,-0.134l0.034,-0.134l0.032,-0.133l0.031,-0.135l0.031,-0.135l0.03,-0.134l0.029,-0.135l0.029,-0.136l0.027,-0.135l0.027,-0.135l0.026,-0.136l0.025,-0.136l0.024,-0.137l0.023,-0.136l0.023,-0.135l0.021,-0.138l0.021,-0.137l0.02,-0.137l0.02,-0.137l0.018,-0.138l0.017,-0.137l0.017,-0.138l0.016,-0.138l0.015,-0.138l0.014,-0.138l0.013,-0.138l0.013,-0.139l0.012,-0.139l0.01,-0.139l0.01,-0.138l0.009,-0.139l0.008,-0.14l0.008,-0.139l0.006,-0.14l0.006,-0.139l0.005,-0.139l0.004,-0.141l0.003,-0.14l0.002,-0.139l0.001,-0.141l0.001,-0.155l0,-0.02l-0.001,-0.162l-0.001,-0.146l-0.003,-0.145l-0.003,-0.146l-0.004,-0.144l-0.005,-0.145l-0.006,-0.144l-0.007,-0.144l-0.008,-0.144l-0.008,-0.144l-0.01,-0.142l-0.01,-0.143l-0.011,-0.143l-0.013,-0.142l-0.013,-0.142l-0.014,-0.141l-0.014,-0.142l-0.016,-0.14l-0.017,-0.141l-0.017,-0.141l-0.018,-0.139l-0.019,-0.14l-0.02,-0.139l-0.021,-0.139l-0.022,-0.139l-0.022,-0.138l-0.023,-0.138l-0.025,-0.138l-0.025,-0.138l-0.026,-0.137l-0.026,-0.136l-0.028,-0.137l-0.028,-0.136l-0.029,-0.136l-0.03,-0.136l-0.031,-0.135l-0.031,-0.135l-0.033,-0.134l-0.033,-0.134l-0.034,-0.135l-0.035,-0.133l-0.035,-0.133l-0.037,-0.132l-0.037,-0.133l-0.038,-0.133l-0.039,-0.132l-0.039,-0.131l-0.04,-0.131l-0.042,-0.131l-0.042,-0.13l-0.042,-0.13l-0.044,-0.131l-0.044,-0.129l-0.045,-0.129l-0.046,-0.128l-0.046,-0.129l-0.048,-0.128l-0.048,-0.127l-0.049,-0.128l-0.049,-0.126l-0.05,-0.127l-0.052,-0.126l-0.051,-0.126l-0.053,-0.125l-0.053,-0.126l-0.054,-0.124l-0.055,-0.124l-0.056,-0.124l-0.056,-0.123l-0.057,-0.124l-0.058,-0.123l-0.058,-0.122l-0.059,-0.121l-0.061,-0.122l-0.06,-0.122l-0.061,-0.12l-0.062,-0.12l-0.064,-0.121l-0.063,-0.119l-0.064,-0.119l-0.065,-0.119l-0.066,-0.118l-0.066,-0.117l-0.067,-0.118l-0.068,-0.117l-0.068,-0.117l-0.069,-0.116l-0.07,-0.115l-0.07,-0.115l-0.072,-0.115l-0.071,-0.114l-0.073,-0.114l-0.073,-0.114l-0.074,-0.113l-0.074,-0.112l-0.075,-0.112l-0.077,-0.112l-0.076,-0.111l-0.077,-0.11l-0.078,-0.11l-0.079,-0.11l-0.078,-0.109l-0.08,-0.109l-0.081,-0.108l-0.081,-0.108l-0.082,-0.107l-0.082,-0.107l-0.083,-0.106l-0.083,-0.105l-0.085,-0.106l-0.085,-0.105l-0.085,-0.104l-0.086,-0.103l-0.087,-0.103l-0.087,-0.103l-0.088,-0.102l-0.088,-0.102l-0.089,-0.101l-0.09,-0.1l-0.09,-0.1l-0.091,-0.099l-0.092,-0.099l-0.092,-0.099l-0.092,-0.097l-0.093,-0.097l-0.094,-0.097l-0.095,-0.096l-0.095,-0.096l-0.095,-0.095l-0.097,-0.094l-0.096,-0.094l-0.097,-0.093l-0.098,-0.093l-0.098,-0.092l-0.099,-0.091l-0.1,-0.091l-0.1,-0.091l-0.1,-0.089l-0.101,-0.089l-0.101,-0.089l-0.103,-0.088l-0.102,-0.087l-0.103,-0.087l-0.104,-0.086l-0.104,-0.085l-0.105,-0.085l-0.105,-0.084l-0.106,-0.084l-0.106,-0.083l-0.107,-0.082l-0.107,-0.082l-0.107,-0.081l-0.109,-0.08l-0.109,-0.08l-0.109,-0.079l-0.109,-0.079l-0.11,-0.077l-0.111,-0.078l-0.111,-0.076l-0.111,-0.076l-0.113,-0.075l-0.112,-0.075l-0.113,-0.073l-0.113,-0.074l-0.114,-0.072l-0.115,-0.072l-0.114,-0.071l-0.115,-0.071l-0.116,-0.069l-0.116,-0.07l-0.117,-0.068l-0.117,-0.068l-0.117,-0.067l-0.118,-0.066l-0.118,-0.066l-0.118,-0.064l-0.12,-0.065l-0.119,-0.063l-0.12,-0.063l-0.121,-0.062l-0.12,-0.062l-0.121,-0.06l-0.122,-0.06l-0.122,-0.059l-0.122,-0.059l-0.123,-0.057l-0.123,-0.057l-0.123,-0.057l-0.124,-0.055l-0.124,-0.055l-0.125,-0.054l-0.125,-0.054l-0.125,-0.052l-0.127,-0.052l-0.125,-0.051l-0.127,-0.051l-0.127,-0.049l-0.127,-0.049l-0.128,-0.048l-0.128,-0.047l-0.128,-0.047l-0.129,-0.046l-0.129,-0.045l-0.129,-0.044l-0.13,-0.043l-0.13,-0.043l-0.131,-0.042l-0.131,-0.041l-0.131,-0.04l-0.131,-0.04l-0.132,-0.039l-0.132,-0.038l-0.133,-0.037l-0.133,-0.036l-0.133,-0.036l-0.133,-0.035l-0.134,-0.034l-0.135,-0.033l-0.134,-0.032l-0.135,-0.032l-0.135,-0.031l-0.136,-0.03l-0.136,-0.029l-0.136,-0.028l-0.136,-0.028l-0.137,-0.026l-0.137,-0.026l-0.137,-0.025l-0.138,-0.024l-0.138,-0.023l-0.139,-0.023l-0.138,-0.022l-0.139,-0.02l-0.14,-0.02l-0.139,-0.019l-0.14,-0.019l-0.14,-0.017l-0.141,-0.017l-0.141,-0.015l-0.141,-0.015l-0.142,-0.014l-0.142,-0.013l-0.142,-0.012l-0.142,-0.011l-0.143,-0.011l-0.143,-0.009l-0.144,-0.009l-0.143,-0.008l-0.144,-0.007l-0.145,-0.006l-0.144,-0.005l-0.145,-0.004l-0.145,-0.003l-0.146,-0.002l-0.146,-0.002l-0.161,0l-37.704,0l-0.26,-0.001l-0.276,-0.003l-0.275,-0.004l-0.275,-0.006l-0.275,-0.008l-0.275,-0.009l-0.273,-0.012l-0.274,-0.013l-0.274,-0.014l-0.273,-0.017l-0.272,-0.018l-0.272,-0.02l-0.272,-0.021l-0.271,-0.024l-0.271,-0.025l-0.271,-0.026l-0.27,-0.028l-0.269,-0.03l-0.269,-0.032l-0.269,-0.033l-0.268,-0.035l-0.267,-0.037l-0.268,-0.038l-0.266,-0.04l-0.266,-0.041l-0.266,-0.044l-0.265,-0.044l-0.265,-0.047l-0.264,-0.048l-0.263,-0.05l-0.264,-0.051l-0.262,-0.053l-0.262,-0.054l-0.261,-0.056l-0.261,-0.058l-0.26,-0.059l-0.26,-0.061l-0.259,-0.062l-0.258,-0.064l-0.258,-0.065l-0.257,-0.068l-0.257,-0.068l-0.256,-0.07l-0.255,-0.072l-0.255,-0.073l-0.254,-0.075l-0.253,-0.076l-0.253,-0.078l-0.252,-0.079l-0.251,-0.081l-0.251,-0.082l-0.25,-0.084l-0.249,-0.085l-0.249,-0.087l-0.248,-0.088l-0.247,-0.089l-0.247,-0.092l-0.246,-0.092l-0.244,-0.094l-0.245,-0.096l-0.243,-0.097l-0.243,-0.098l-0.242,-0.1l-0.242,-0.101l-0.24,-0.103l-0.24,-0.104l-0.239,-0.105l-0.239,-0.107l-0.237,-0.108l-0.236,-0.11l-0.236,-0.111l-0.236,-0.112l-0.234,-0.114l-0.233,-0.115l-0.233,-0.117l-0.232,-0.118l-0.231,-0.119l-0.23,-0.12l-0.229,-0.122l-0.229,-0.123l-0.228,-0.125l-0.227,-0.126l-0.225,-0.127l-0.225,-0.129l-0.225,-0.13l-0.223,-0.131l-0.223,-0.132l-0.221,-0.134l-0.221,-0.135l-0.22,-0.136l-0.219,-0.138l-0.218,-0.139l-0.217,-0.14l-0.216,-0.141l-0.215,-0.143l-0.215,-0.144l-0.213,-0.145l-0.213,-0.146l-0.211,-0.148l-0.211,-0.149l-0.209,-0.15l-0.209,-0.151l-0.208,-0.152l-0.207,-0.154l-0.206,-0.155l-0.205,-0.156l-0.203,-0.157l-0.203,-0.159l-0.202,-0.16l-0.201,-0.16l-0.2,-0.162l-0.199,-0.164l-0.198,-0.164l-0.197,-0.165l-0.196,-0.167l-0.195,-0.168l-0.193,-0.169l-0.193,-0.17l-0.192,-0.171l-0.191,-0.172l-0.19,-0.174l-0.188,-0.174l-0.187,-0.176l-0.187,-0.177l-0.186,-0.178l-0.184,-0.179l-0.183,-0.18l-0.183,-0.181l-0.181,-0.182l-0.18,-0.183l-0.179,-0.185l-0.178,-0.185l-0.177,-0.187l-0.175,-0.187l-0.175,-0.189l-0.173,-0.19l-0.173,-0.191l-0.171,-0.191l-0.17,-0.193l-0.169,-0.194l-0.168,-0.195l-0.166,-0.196l-0.166,-0.197l-0.164,-0.198l-0.163,-0.199l-0.162,-0.2l-0.161,-0.2l-0.16,-0.203l-0.158,-0.202l-0.157,-0.204l-0.157,-0.205l-0.155,-0.206l-0.153,-0.207l-0.153,-0.207l-0.151,-0.209l-0.15,-0.21l-0.149,-0.21l-0.147,-0.212l-0.147,-0.212l-0.145,-0.214l-0.144,-0.214l-0.142,-0.216l-0.142,-0.216l-0.14,-0.217l-0.139,-0.218l-0.137,-0.219l-0.137,-0.22l-0.135,-0.22l-0.133,-0.222l-0.133,-0.223l-0.131,-0.223l-0.13,-0.224l-0.128,-0.225l-0.128,-0.226l-0.126,-0.227l-0.124,-0.228l-0.123,-0.228l-0.122,-0.229l-0.121,-0.231l-0.119,-0.231l-0.118,-0.232l-0.116,-0.232l-0.116,-0.234l-0.113,-0.234l-0.113,-0.235l-0.111,-0.236l-0.109,-0.237l-0.109,-0.237l-0.107,-0.239l-0.105,-0.239l-0.104,-0.239l-0.103,-0.241l-0.101,-0.241l-0.1,-0.242l-0.098,-0.243l-0.097,-0.244l-0.095,-0.244l-0.094,-0.245l-0.093,-0.246l-0.091,-0.246l-0.09,-0.248l-0.088,-0.248l-0.087,-0.248l-0.085,-0.25l-0.084,-0.25l-0.082,-0.25l-0.081,-0.252l-0.079,-0.252l-0.078,-0.252l-0.076,-0.254l-0.075,-0.254l-0.073,-0.255l-0.071,-0.255l-0.071,-0.256l-0.068,-0.257l-0.067,-0.256l-0.066,-0.258l-0.064,-0.259l-0.062,-0.259l-0.061,-0.26l-0.059,-0.26l-0.057,-0.26l-0.057,-0.262l-0.054,-0.262l-0.053,-0.262l-0.051,-0.263l-0.05,-0.263l-0.048,-0.265l-0.046,-0.264l-0.045,-0.265l-0.043,-0.266l-0.042,-0.267l-0.04,-0.266l-0.038,-0.267l-0.036,-0.268l-0.035,-0.268l-0.034,-0.269l-0.031,-0.269l-0.03,-0.269l-0.028,-0.27l-0.027,-0.27l-0.025,-0.271l-0.023,-0.272l-0.022,-0.271l-0.02,-0.273l-0.018,-0.272l-0.016,-0.273l-0.015,-0.274l-0.013,-0.273l-0.011,-0.274l-0.01,-0.275l-0.008,-0.274l-0.006,-0.275l-0.004,-0.276l-0.003,-0.276l0,-0.26l0,-0.258l0,-0.251l0.003,-0.266l0.004,-0.266l0.006,-0.265l0.007,-0.266l0.009,-0.266l0.011,-0.265l0.012,-0.265l0.014,-0.265l0.016,-0.264l0.017,-0.264l0.019,-0.265l0.02,-0.263l0.022,-0.264l0.024,-0.263l0.025,-0.263l0.027,-0.263l0.029,-0.262l0.03,-0.262l0.032,-0.262l0.033,-0.262l0.035,-0.261l0.036,-0.261l0.038,-0.261l0.04,-0.26l0.041,-0.26l0.043,-0.259l0.044,-0.259l0.046,-0.259l0.048,-0.259l0.049,-0.258l0.051,-0.258l0.052,-0.257l0.054,-0.257l0.055,-0.256l0.057,-0.256l0.059,-0.256l0.06,-0.256l0.061,-0.254l0.063,-0.255l0.065,-0.254l0.066,-0.253l0.068,-0.253l0.069,-0.253l0.071,-0.252l0.072,-0.251l0.074,-0.251l0.075,-0.251l0.077,-0.25l0.079,-0.25l0.08,-0.249l0.081,-0.249l0.083,-0.248l0.084,-0.247l0.086,-0.247l0.088,-0.246l0.089,-0.246l0.09,-0.245l0.092,-0.245l0.093,-0.245l0.095,-0.243l0.097,-0.243l0.097,-0.242l0.1,-0.242l0.1,-0.241l0.103,-0.241l0.103,-0.24l0.105,-0.239l0.107,-0.239l0.108,-0.238l0.11,-0.237l0.111,-0.237l0.112,-0.236l0.114,-0.235l0.115,-0.235l0.117,-0.234l0.118,-0.233l0.12,-0.233l0.121,-0.232l0.122,-0.231l0.124,-0.231l0.126,-0.229l0.126,-0.229l0.129,-0.229l0.129,-0.227l0.131,-0.227l0.133,-0.226l0.134,-0.225l0.135,-0.225l0.137,-0.224l0.138,-0.223l0.139,-0.222l0.141,-0.221l0.142,-0.221l0.144,-0.22l0.145,-0.218l0.146,-0.218l0.148,-0.218l0.149,-0.216l0.151,-0.216l0.151,-0.214l0.154,-0.214l0.154,-0.213l0.156,-0.212l0.158,-0.212l0.158,-0.21l0.16,-0.209l0.162,-0.209l0.163,-0.207l0.163,-0.207l0.166,-0.206l0.167,-0.205l0.168,-0.203l0.169,-0.203l0.171,-0.202l0.172,-0.201l0.174,-0.2l0.174,-0.199l0.176,-0.198l0.178,-0.197l0.178,-0.197l0.18,-0.195l0.182,-0.194l0.182,-0.193l0.184,-0.192l0.185,-0.191l0.187,-0.19l0.187,-0.189l0.189,-0.187l0.19,-0.187l0.191,-0.185l0.192,-0.184l0.193,-0.182l0.194,-0.182l0.195,-0.179l0.196,-0.179l0.197,-0.177l0.198,-0.176l0.2,-0.175l0.2,-0.174l0.2,-0.172l0.202,-0.17l0.203,-0.17l0.204,-0.168l0.205,-0.167l0.206,-0.165l0.207,-0.164l0.207,-0.163l0.208,-0.161l0.21,-0.16l0.21,-0.159l0.211,-0.157l0.213,-0.156l0.213,-0.155l0.213,-0.153l0.215,-0.152l0.216,-0.151l0.216,-0.149l0.217,-0.148l0.218,-0.146l0.219,-0.145l0.22,-0.144l0.221,-0.142l0.221,-0.141l0.222,-0.139l0.223,-0.138l0.224,-0.137l0.224,-0.135l0.226,-0.134l0.226,-0.132l0.226,-0.131l0.228,-0.13l0.228,-0.128l0.229,-0.127l0.23,-0.125l0.231,-0.124l0.231,-0.123l0.232,-0.121l0.232,-0.119l0.234,-0.119l0.234,-0.116l0.234,-0.116l0.236,-0.114l0.236,-0.112l0.236,-0.111l0.238,-0.11l0.238,-0.108l0.238,-0.106l0.24,-0.105l0.24,-0.104l0.24,-0.102l0.242,-0.101l0.241,-0.099l0.243,-0.098l0.243,-0.097l0.243,-0.094l0.244,-0.094l0.245,-0.092l0.245,-0.09l0.246,-0.089l0.247,-0.087l0.247,-0.086l0.247,-0.085l0.248,-0.083l0.249,-0.081l0.249,-0.08l0.249,-0.078l0.251,-0.077l0.25,-0.075l0.251,-0.074l0.252,-0.073l0.252,-0.07l0.253,-0.07l0.253,-0.067l0.253,-0.067l0.254,-0.064l0.254,-0.063l0.255,-0.062l0.256,-0.06l0.255,-0.058l0.256,-0.057l0.257,-0.056l0.257,-0.054l0.257,-0.052l0.258,-0.051l0.258,-0.049l0.258,-0.047l0.259,-0.046l0.259,-0.045l0.26,-0.042l0.26,-0.042l0.26,-0.039l0.261,-0.038l0.261,-0.037l0.261,-0.035l0.261,-0.033l0.262,-0.032l0.263,-0.03l0.262,-0.029l0.263,-0.026l0.263,-0.026l0.263,-0.023l0.264,-0.022l0.263,-0.021l0.264,-0.019l0.265,-0.017l0.264,-0.016l0.265,-0.014l0.265,-0.012l0.265,-0.011l0.266,-0.009l0.265,-0.007l0.266,-0.006l0.266,-0.004l0.266,-0.002l0.251,-0.001l59.74,0l0,20Z" style="fill:#f16437;"/><path d="M551.598,238.069c0,-5.578 4.643,-16.185 17.963,-16.185c7.346,0 15.975,4.205 15.975,16.185l-33.935,0m17.963,-30.847c-22.446,0 -32.161,15.075 -35.433,27.805c-0.871,3.387 -1.292,7.02 -1.292,10.519c0,8.249 2.315,16.73 7.231,23.444c7.115,9.717 18.486,14.454 30.391,14.9c12.117,0.453 20.221,-1.621 26.285,-5.14c1.181,-0.687 1.44,-1.514 1.44,-3.709l0,-9.794c0,-2.009 -1.195,-2.923 -3.074,-1.729c-6.527,4.16 -14.413,6.717 -24.434,5.928c-10.093,-0.794 -18.428,-7.869 -19.219,-17.874l49.836,0c1.103,0 1.972,-0.826 2.044,-2.034c0.82,-13.636 -3.092,-42.313 -33.774,-42.313m-120.915,63.285l-20.828,0c-2.915,-0.179 -5.464,-0.931 -7.791,-2.721c-2.506,-1.946 -3.653,-4.227 -3.675,-7.22c0.037,-3.948 2.666,-11.896 16.035,-11.896l16.257,0l0,21.835l0.002,0.002Zm16.245,-32.557c0,-10.026 -2.243,-17.722 -7.048,-22.869c-4.992,-5.337 -13.928,-7.861 -22.873,-7.861c-8.943,0 -17.538,2.301 -25.149,6.829c-0.498,0.291 -0.793,0.821 -0.793,1.398c0,0.044 0,0.06 0.002,0.092c0,0 0.671,11.017 0.675,11.05c0.117,1.493 1.309,1.981 2.658,1.142c11.686,-7.28 24.49,-7.693 30.331,-4.753c6.872,3.46 5.952,12.211 5.952,12.211l-17.262,0c-7.884,0 -32.089,2.806 -32.089,25.171c0,0.079 0,0.144 0.003,0.234c0,0.039 -0.003,0.081 -0.003,0.131c0.009,7.628 2.624,13.784 7.835,17.844c4.827,3.796 11.426,5.601 19.597,5.602l36.008,-0.009c1.202,0 2.177,-0.976 2.177,-2.177l-0.022,-44.036m184.421,31.276c-9.061,0 -15.611,-6.631 -18.359,-14.873c-0.877,-2.623 -1.462,-5.834 -1.465,-8.808c0.003,-2.975 0.588,-6.186 1.465,-8.811c2.75,-8.24 9.3,-14.873 18.359,-14.873c20.28,0 20.963,20.709 20.967,23.684c-0.005,2.974 -0.689,23.681 -20.967,23.681m37.616,-23.681c0,-8.36 -2.225,-16.594 -7.226,-23.444c-7.117,-9.718 -18.482,-14.867 -30.391,-14.9c-11.91,0.032 -23.273,5.181 -30.387,14.9c-9.727,13.284 -9.738,33.589 0,46.887c7.115,9.718 18.478,14.866 30.387,14.9c7.8,-0.02 15.355,-2.247 21.647,-6.505l0,9.271c0,12.591 -11.01,14.88 -18.052,15.314c-4.732,0.293 -11.462,-0.347 -14.492,-0.801c-1.929,-0.291 -3.276,0.048 -3.276,2.069c0.008,-0.043 -0.038,11.139 0.004,11.156c-0.042,0.822 0.624,1.711 1.988,1.828c16.333,1.405 27.357,1.107 35.65,-3.603c5.895,-3.349 9.947,-8.881 12.077,-15.342c1.534,-4.649 2.075,-10.367 2.075,-15.33l0,-36.399l-0.004,-0.001Zm54.03,-33.881l0,8.861c0.026,1.957 -1.256,2.86 -2.978,2.506c-14.271,-2.944 -23.039,3.401 -23.039,16.59l-0.021,42.365c0,1.204 -0.974,2.18 -2.178,2.18l-12.627,0c-1.202,0 -2.177,-0.976 -2.177,-2.18l0,-43.479c0,-11.342 5.14,-17.847 9.299,-21.987c5.648,-5.623 13.896,-9.319 23.082,-9.317c1.363,-0.008 6.429,0.22 8.758,0.834l0.006,0c1.658,0.483 1.877,1.367 1.877,3.628m-247.544,70.322c0,1.201 -0.976,2.177 -2.179,2.177l-12.626,0c-1.204,0 -2.179,-0.976 -2.179,-2.177l0,-103.768c0,-1.205 0.975,-2.18 2.179,-2.18l12.626,0c1.203,0 2.179,0.975 2.179,2.18l0,103.768Zm29.664,0c0,1.201 -0.976,2.177 -2.179,2.177l-12.627,0c-1.202,0 -2.178,-0.976 -2.178,-2.177l0,-103.768c0,-1.205 0.976,-2.18 2.178,-2.18l12.627,0c1.203,0 2.179,0.975 2.179,2.18l0,103.768m276.701,-27.634c-2.75,8.241 -9.302,14.821 -18.363,14.872c-9.061,-0.051 -15.614,-6.631 -18.364,-14.872c-0.875,-2.624 -1.462,-5.835 -1.464,-8.809c0.002,-2.974 0.589,-6.186 1.464,-8.811c2.75,-8.239 9.303,-14.82 18.364,-14.873c9.061,0.053 15.613,6.634 18.363,14.873c0.876,2.625 1.46,5.837 1.465,8.811c-0.005,2.974 -0.589,6.185 -1.465,8.809m12.028,-32.251c-7.114,-9.718 -18.478,-14.868 -30.391,-14.9c-11.912,0.032 -23.275,5.181 -30.392,14.9c-4.915,6.712 -7.229,15.193 -7.229,23.443c0,8.251 2.314,16.73 7.229,23.444c7.116,9.718 18.479,14.866 30.392,14.9c11.911,-0.033 23.275,-5.181 30.391,-14.9c4.916,-6.713 7.232,-15.193 7.232,-23.444c0,-8.25 -2.316,-16.729 -7.232,-23.443" style="fill:#f16437;fill-rule:nonzero;"/><path d="M341.539,104.157l-0.314,4.538l-0.03,0.416l-0.031,0.417l-0.031,0.416l-0.032,0.417l-0.034,0.417l-0.034,0.418l-0.034,0.417l-0.036,0.418l-0.037,0.418l-0.037,0.418l-0.039,0.418l-0.039,0.419l-0.04,0.419l-0.041,0.419l-0.042,0.419l-0.042,0.419l-0.044,0.419l-0.045,0.42l-0.045,0.42l-0.046,0.42l-0.047,0.42l-0.048,0.42l-0.049,0.421l-0.05,0.421l-0.051,0.421l-0.052,0.421l-0.052,0.421l-0.053,0.421l-0.055,0.422l-0.055,0.422l-0.056,0.422l-0.057,0.422l-0.058,0.422l-0.059,0.423l-0.06,0.422l-0.06,0.423l-0.062,0.423l-0.062,0.423l-0.064,0.424l-0.064,0.423l-0.065,0.424l-0.066,0.424l-0.067,0.423l-0.068,0.424l-0.069,0.425l-0.07,0.424l-0.071,0.425l-0.071,0.425l-0.073,0.424l-0.073,0.425l-0.075,0.426l-0.075,0.425l-0.077,0.426l-0.077,0.426l-0.078,0.425l-0.079,0.426l-0.08,0.427l-0.081,0.426l-0.082,0.426l-0.083,0.427l-0.084,0.427l-0.085,0.427l-0.085,0.426l-0.087,0.428l-0.088,0.427l-0.088,0.427l-0.09,0.428l-0.09,0.428l-0.091,0.428l-0.093,0.427l-0.093,0.428l-0.094,0.429l-0.096,0.428l-0.096,0.429l-0.097,0.429l-0.098,0.428l-0.099,0.429l-0.1,0.429l-0.101,0.43l-0.102,0.429l-0.103,0.429l-0.104,0.43l-0.105,0.429l-0.106,0.431l-0.107,0.43l-0.108,0.429l-0.109,0.431l-0.11,0.43l-0.11,0.43l-0.112,0.431l-0.113,0.431l-0.114,0.431l-0.114,0.43l-0.116,0.432l-0.117,0.431l-0.118,0.431l-0.118,0.431l-0.12,0.432l-0.121,0.431l-0.121,0.432l-0.123,0.432l-0.124,0.432l-0.124,0.432l-0.126,0.432l-0.127,0.432l-0.127,0.432l-0.129,0.433l-0.13,0.432l-0.131,0.433l-0.131,0.433l-0.133,0.433l-0.134,0.433l-0.135,0.433l-0.135,0.433l-0.137,0.433l-0.138,0.434l-0.139,0.433l-0.14,0.434l-0.141,0.433l-0.141,0.434l-0.143,0.434l-0.144,0.434l-0.145,0.434l-0.146,0.434l-0.147,0.434l-0.148,0.434l-0.149,0.434l-0.151,0.435l-0.151,0.435l-0.152,0.434l-0.153,0.435l-0.155,0.434l-0.155,0.435l-0.156,0.435l-0.158,0.435l-0.158,0.435l-0.16,0.436l-0.16,0.435l-0.162,0.435l-0.162,0.435l-0.164,0.436l-0.165,0.435l-0.165,0.436l-0.167,0.435l-0.168,0.436l-0.169,0.436l-0.17,0.436l-0.171,0.436l-0.172,0.436l-0.174,0.436l-0.174,0.436l-0.175,0.436l-0.177,0.437l-0.177,0.436l-0.178,0.436l-0.18,0.437l-0.181,0.436l-0.181,0.436l-0.183,0.437l-0.184,0.437l-0.185,0.437l-0.186,0.436l-0.187,0.437l-0.188,0.437l-0.19,0.437l-0.19,0.437l-0.192,0.437l-0.192,0.437l-0.194,0.437l-0.194,0.437l-0.196,0.438l-0.197,0.437l-0.198,0.437l-0.199,0.438l-0.2,0.437l-0.202,0.438l-0.202,0.437l-0.203,0.438l-0.205,0.437l-0.205,0.438l-0.207,0.437l-0.208,0.438l-0.209,0.438l-0.21,0.438l-0.211,0.437l-0.212,0.438l-0.214,0.438l-0.214,0.438l-0.216,0.438l-0.216,0.438l-0.218,0.438l-0.219,0.438l-0.22,0.438l-0.221,0.438l-0.223,0.438l-0.223,0.438l-0.225,0.438l-0.225,0.438l-0.227,0.439l-0.228,0.438l-0.229,0.438l-0.23,0.438l-0.231,0.439l-0.233,0.438l-0.233,0.438l-0.235,0.439l-0.236,0.438l-0.237,0.438l-0.238,0.439l-0.239,0.438l-0.24,0.438l-0.242,0.439l-0.242,0.438l-0.244,0.439l-0.245,0.438l-0.246,0.439l-0.247,0.438l-0.248,0.439l-0.25,0.438l-0.251,0.438l-0.251,0.439l-0.253,0.439l-0.254,0.438l-0.256,0.439l-0.256,0.438l-0.258,0.439l-0.258,0.438l-0.26,0.439l-0.261,0.438l-0.262,0.438l-0.264,0.439l-0.264,0.439l-0.266,0.438l-0.267,0.438l-0.268,0.439l-0.269,0.438l-0.27,0.439l-0.272,0.438l-0.273,0.439l-0.273,0.438l-0.275,0.439l-0.277,0.438l-0.277,0.438l-0.279,0.439l-0.279,0.438l-0.281,0.439l-0.282,0.438l-0.284,0.438l-0.284,0.439l-0.286,0.438l-0.287,0.438l-0.288,0.438l-0.289,0.439l-0.29,0.438l-0.292,0.438l-0.293,0.438l-0.294,0.438l-0.295,0.438l-0.296,0.439l-0.298,0.437l-0.299,0.439l-0.3,0.438l-0.301,0.438l-0.302,0.437l-0.304,0.438l-0.305,0.438l-0.306,0.438l-0.307,0.438l-0.308,0.438l-0.31,0.438l-0.311,0.437l-0.312,0.438l-0.313,0.438l-0.315,0.437l-0.315,0.438l-0.317,0.438l-0.318,0.437l-0.32,0.437l-0.32,0.438l-0.322,0.437l-0.323,0.438l-0.324,0.437l-0.326,0.437l-0.327,0.438l-0.328,0.437l-0.329,0.437l-0.33,0.437l-0.332,0.437l-0.332,0.437l-0.335,0.437l-0.335,0.437l-0.337,0.437l-0.337,0.436l-0.339,0.437l-0.341,0.437l-0.341,0.437l-0.343,0.436l-0.344,0.436l-0.345,0.437l-0.347,0.436l-0.348,0.437l-0.349,0.436l-0.35,0.436l-0.351,0.437l-0.353,0.436l-0.354,0.436l-0.355,0.436l-0.357,0.436l-0.358,0.436l-0.359,0.436l-0.36,0.435l-0.361,0.436l-0.363,0.436l-0.364,0.435l-0.366,0.436l-0.366,0.435l-0.368,0.436l-0.369,0.435l-0.371,0.435l-0.371,0.435l-0.373,0.436l-0.375,0.434l-0.375,0.435l-0.377,0.435l-0.378,0.435l-0.379,0.435l-0.381,0.435l-0.382,0.434l-0.383,0.435l-0.384,0.434l-0.386,0.435l-0.387,0.434l-0.389,0.434l-0.389,0.434l-0.391,0.434l-0.392,0.434l-0.394,0.434l-0.395,0.434l-0.396,0.434l-0.397,0.433l-0.399,0.434l-0.4,0.433l-0.401,0.434l-0.403,0.433l-0.403,0.433l-0.406,0.433l-0.406,0.433l-0.408,0.433l-0.409,0.433l-0.41,0.433l-0.412,0.433l-0.413,0.432l-0.414,0.433l-0.416,0.432l-0.417,0.433l-0.418,0.432l-0.42,0.432l-0.421,0.432l-0.422,0.432l-0.424,0.432l-0.425,0.432l-0.426,0.431l-0.427,0.432l-0.429,0.431l-0.43,0.432l-0.432,0.431l-0.433,0.431l-0.434,0.431l-0.435,0.431l-0.437,0.431l-0.439,0.431l-0.439,0.43l-0.441,0.431l-0.442,0.43l-0.443,0.43l-0.445,0.431l-0.447,0.43l-0.447,0.43l-0.449,0.43l-0.45,0.43l-0.452,0.429l-0.453,0.43l-0.454,0.429l-0.456,0.43l-0.457,0.429l-0.458,0.429l-0.46,0.429l-0.461,0.429l-0.462,0.428l-0.464,0.429l-0.465,0.429l-0.467,0.428l-0.468,0.428l-0.469,0.429l-0.471,0.428l-0.471,0.428l-0.474,0.427l-0.475,0.428l-0.476,0.428l-0.477,0.427l-0.479,0.428l-0.48,0.427l-0.482,0.427l-0.483,0.427l-0.484,0.427l-0.486,0.426l-0.487,0.427l-0.488,0.426l-0.49,0.427l-0.491,0.426l-0.493,0.426l-0.494,0.426l-0.495,0.426l-0.497,0.426l-0.498,0.425l-0.5,0.425l-0.501,0.426l-0.502,0.425l-0.504,0.425l-0.505,0.425l-0.507,0.425l-0.508,0.424l-0.509,0.425l-0.511,0.424l-0.512,0.424l-0.513,0.424l-0.515,0.424l-0.517,0.424l-0.517,0.424l-0.52,0.423l-0.52,0.424l-0.522,0.423l-0.524,0.423l-0.525,0.423l-0.526,0.423l-0.527,0.422l-0.53,0.423l-0.53,0.422l-0.532,0.422l-0.534,0.422l-0.534,0.422l-0.537,0.422l-0.537,0.422l-0.539,0.421l-0.541,0.421l-0.542,0.421l-0.543,0.422l-0.545,0.42l-0.546,0.421l-0.548,0.421l-0.549,0.42l-0.551,0.42l-0.552,0.42l-0.553,0.42l-0.555,0.42l-0.557,0.42l-0.557,0.419l-0.56,0.419l-0.56,0.42l-0.562,0.419l-0.564,0.418l-0.565,0.419l-0.567,0.418l-0.567,0.419l-0.57,0.418l-0.571,0.418l-0.572,0.418l-0.574,0.417l-0.575,0.418l-0.577,0.417l-0.578,0.418l-0.58,0.417l-0.581,0.416l-0.582,0.417l-0.585,0.417l-0.585,0.416l-0.587,0.416l-0.588,0.416l-0.59,0.416l-0.592,0.416l-0.593,0.415l-0.594,0.415l-0.596,0.415l-0.597,0.415l-0.599,0.415l-0.6,0.415l-0.602,0.414l-0.604,0.415l-0.604,0.414l-0.607,0.414l-0.607,0.413l-0.61,0.414l-0.61,0.413l-0.612,0.413l-0.614,0.413l-0.616,0.413l-0.616,0.413l-0.619,0.412l-0.619,0.413l-0.622,0.412l-0.622,0.411l-0.624,0.412l-0.626,0.412l-0.628,0.411l-0.628,0.411l-0.631,0.411l-0.631,0.411l-0.634,0.411l-0.635,0.41l-0.636,0.41l-6.043,3.885l-6.67,-4.293l-0.635,-0.411l-0.631,-0.409l-0.629,-0.409l-0.628,-0.409l-0.626,-0.41l-0.625,-0.41l-0.623,-0.41l-0.622,-0.41l-0.621,-0.41l-0.618,-0.41l-0.618,-0.411l-0.616,-0.411l-0.614,-0.411l-0.613,-0.411l-0.611,-0.411l-0.61,-0.412l-0.609,-0.412l-0.607,-0.412l-0.605,-0.412l-0.604,-0.412l-0.603,-0.413l-0.601,-0.412l-0.599,-0.413l-0.598,-0.413l-0.597,-0.413l-0.596,-0.413l-0.593,-0.414l-0.592,-0.413l-0.591,-0.414l-0.589,-0.414l-0.588,-0.415l-0.587,-0.414l-0.584,-0.414l-0.584,-0.415l-0.582,-0.415l-0.58,-0.415l-0.579,-0.415l-0.578,-0.415l-0.576,-0.416l-0.575,-0.416l-0.573,-0.416l-0.572,-0.416l-0.57,-0.416l-0.569,-0.416l-0.567,-0.417l-0.566,-0.416l-0.565,-0.417l-0.563,-0.417l-0.562,-0.417l-0.56,-0.418l-0.559,-0.417l-0.557,-0.418l-0.556,-0.418l-0.555,-0.418l-0.552,-0.417l-0.552,-0.419l-0.55,-0.418l-0.549,-0.419l-0.547,-0.418l-0.546,-0.419l-0.545,-0.419l-0.543,-0.42l-0.541,-0.419l-0.541,-0.419l-0.538,-0.42l-0.538,-0.42l-0.536,-0.42l-0.534,-0.42l-0.533,-0.42l-0.532,-0.42l-0.53,-0.421l-0.529,-0.421l-0.528,-0.42l-0.526,-0.421l-0.524,-0.421l-0.523,-0.422l-0.522,-0.421l-0.521,-0.422l-0.519,-0.421l-0.517,-0.422l-0.517,-0.422l-0.514,-0.422l-0.514,-0.422l-0.512,-0.423l-0.51,-0.422l-0.51,-0.423l-0.508,-0.423l-0.506,-0.422l-0.505,-0.424l-0.504,-0.423l-0.502,-0.423l-0.501,-0.423l-0.499,-0.424l-0.498,-0.424l-0.497,-0.423l-0.496,-0.425l-0.494,-0.424l-0.492,-0.424l-0.491,-0.424l-0.49,-0.425l-0.489,-0.424l-0.487,-0.425l-0.486,-0.425l-0.484,-0.425l-0.483,-0.425l-0.482,-0.425l-0.48,-0.426l-0.479,-0.425l-0.477,-0.426l-0.476,-0.426l-0.475,-0.425l-0.474,-0.426l-0.472,-0.427l-0.47,-0.426l-0.47,-0.426l-0.468,-0.427l-0.466,-0.426l-0.466,-0.427l-0.464,-0.427l-0.462,-0.426l-0.462,-0.428l-0.46,-0.427l-0.458,-0.427l-0.457,-0.427l-0.456,-0.428l-0.455,-0.428l-0.453,-0.427l-0.452,-0.428l-0.45,-0.428l-0.449,-0.428l-0.448,-0.428l-0.447,-0.428l-0.445,-0.429l-0.444,-0.428l-0.442,-0.429l-0.441,-0.429l-0.44,-0.428l-0.439,-0.429l-0.437,-0.429l-0.436,-0.429l-0.434,-0.43l-0.434,-0.429l-0.431,-0.429l-0.431,-0.43l-0.429,-0.429l-0.428,-0.43l-0.427,-0.43l-0.425,-0.43l-0.424,-0.43l-0.423,-0.43l-0.421,-0.43l-0.42,-0.431l-0.419,-0.43l-0.417,-0.43l-0.416,-0.431l-0.415,-0.431l-0.414,-0.43l-0.412,-0.431l-0.411,-0.431l-0.41,-0.431l-0.408,-0.431l-0.407,-0.432l-0.406,-0.431l-0.404,-0.431l-0.403,-0.432l-0.402,-0.431l-0.401,-0.432l-0.399,-0.432l-0.398,-0.431l-0.396,-0.432l-0.396,-0.432l-0.394,-0.432l-0.393,-0.433l-0.391,-0.432l-0.391,-0.432l-0.389,-0.432l-0.387,-0.433l-0.387,-0.432l-0.385,-0.433l-0.384,-0.433l-0.382,-0.433l-0.382,-0.432l-0.38,-0.433l-0.378,-0.433l-0.378,-0.433l-0.376,-0.434l-0.375,-0.433l-0.374,-0.433l-0.372,-0.433l-0.371,-0.434l-0.37,-0.433l-0.369,-0.434l-0.367,-0.434l-0.367,-0.433l-0.364,-0.434l-0.364,-0.434l-0.362,-0.434l-0.361,-0.434l-0.36,-0.434l-0.359,-0.434l-0.357,-0.434l-0.356,-0.434l-0.355,-0.434l-0.354,-0.435l-0.352,-0.434l-0.351,-0.435l-0.35,-0.434l-0.349,-0.435l-0.347,-0.434l-0.347,-0.435l-0.344,-0.435l-0.344,-0.434l-0.343,-0.435l-0.341,-0.435l-0.34,-0.435l-0.339,-0.435l-0.337,-0.435l-0.336,-0.435l-0.335,-0.435l-0.334,-0.436l-0.333,-0.435l-0.331,-0.435l-0.33,-0.435l-0.329,-0.436l-0.328,-0.435l-0.327,-0.436l-0.325,-0.435l-0.324,-0.436l-0.323,-0.435l-0.321,-0.436l-0.321,-0.436l-0.319,-0.436l-0.318,-0.435l-0.317,-0.436l-0.315,-0.436l-0.315,-0.436l-0.313,-0.436l-0.312,-0.436l-0.311,-0.436l-0.309,-0.436l-0.309,-0.436l-0.307,-0.436l-0.306,-0.436l-0.305,-0.436l-0.303,-0.436l-0.302,-0.437l-0.302,-0.436l-0.3,-0.436l-0.298,-0.436l-0.298,-0.437l-0.296,-0.436l-0.296,-0.436l-0.294,-0.437l-0.292,-0.436l-0.292,-0.437l-0.291,-0.436l-0.289,-0.437l-0.288,-0.436l-0.287,-0.437l-0.286,-0.436l-0.284,-0.437l-0.284,-0.437l-0.282,-0.436l-0.281,-0.437l-0.28,-0.436l-0.278,-0.437l-0.278,-0.437l-0.276,-0.436l-0.276,-0.437l-0.274,-0.437l-0.272,-0.436l-0.272,-0.437l-0.271,-0.437l-0.269,-0.437l-0.268,-0.436l-0.267,-0.437l-0.266,-0.437l-0.265,-0.437l-0.264,-0.437l-0.262,-0.436l-0.261,-0.437l-0.26,-0.437l-0.259,-0.437l-0.258,-0.436l-0.257,-0.437l-0.255,-0.437l-0.255,-0.437l-0.253,-0.437l-0.252,-0.436l-0.251,-0.437l-0.25,-0.437l-0.248,-0.437l-0.248,-0.437l-0.246,-0.436l-0.246,-0.437l-0.244,-0.437l-0.243,-0.437l-0.242,-0.436l-0.24,-0.437l-0.24,-0.437l-0.238,-0.436l-0.238,-0.437l-0.236,-0.437l-0.235,-0.436l-0.234,-0.437l-0.233,-0.436l-0.231,-0.437l-0.231,-0.437l-0.229,-0.436l-0.229,-0.437l-0.227,-0.436l-0.226,-0.437l-0.225,-0.436l-0.224,-0.437l-0.223,-0.436l-0.222,-0.436l-0.22,-0.437l-0.22,-0.436l-0.218,-0.436l-0.217,-0.437l-0.216,-0.436l-0.215,-0.436l-0.214,-0.436l-0.213,-0.437l-0.212,-0.436l-0.21,-0.436l-0.21,-0.436l-0.208,-0.436l-0.208,-0.436l-0.206,-0.436l-0.205,-0.436l-0.204,-0.436l-0.203,-0.435l-0.202,-0.436l-0.201,-0.436l-0.199,-0.436l-0.199,-0.435l-0.198,-0.436l-0.196,-0.436l-0.195,-0.435l-0.195,-0.436l-0.193,-0.435l-0.192,-0.435l-0.191,-0.436l-0.19,-0.435l-0.189,-0.435l-0.188,-0.435l-0.187,-0.436l-0.185,-0.435l-0.185,-0.435l-0.184,-0.435l-0.182,-0.435l-0.181,-0.435l-0.181,-0.434l-0.179,-0.435l-0.178,-0.435l-0.177,-0.434l-0.177,-0.435l-0.175,-0.435l-0.174,-0.434l-0.173,-0.434l-0.172,-0.435l-0.17,-0.434l-0.17,-0.434l-0.169,-0.434l-0.168,-0.434l-0.166,-0.434l-0.166,-0.434l-0.164,-0.434l-0.164,-0.434l-0.162,-0.434l-0.162,-0.433l-0.16,-0.434l-0.16,-0.433l-0.158,-0.434l-0.157,-0.433l-0.156,-0.433l-0.156,-0.433l-0.154,-0.433l-0.153,-0.433l-0.152,-0.433l-0.151,-0.433l-0.15,-0.433l-0.149,-0.433l-0.148,-0.432l-0.147,-0.433l-0.146,-0.432l-0.145,-0.433l-0.144,-0.432l-0.143,-0.432l-0.142,-0.432l-0.141,-0.432l-0.139,-0.432l-0.139,-0.432l-0.138,-0.431l-0.137,-0.432l-0.136,-0.432l-0.134,-0.431l-0.134,-0.431l-0.133,-0.432l-0.132,-0.431l-0.131,-0.431l-0.129,-0.431l-0.129,-0.43l-0.128,-0.431l-0.127,-0.431l-0.125,-0.43l-0.125,-0.431l-0.124,-0.43l-0.123,-0.43l-0.122,-0.43l-0.121,-0.43l-0.119,-0.43l-0.119,-0.43l-0.118,-0.43l-0.117,-0.429l-0.116,-0.429l-0.115,-0.43l-0.114,-0.429l-0.113,-0.429l-0.112,-0.429l-0.111,-0.429l-0.11,-0.429l-0.109,-0.428l-0.108,-0.429l-0.107,-0.428l-0.106,-0.428l-0.105,-0.428l-0.104,-0.428l-0.104,-0.428l-0.102,-0.428l-0.101,-0.428l-0.101,-0.427l-0.099,-0.427l-0.098,-0.428l-0.098,-0.427l-0.096,-0.427l-0.096,-0.426l-0.094,-0.427l-0.094,-0.427l-0.093,-0.426l-0.092,-0.426l-0.09,-0.427l-0.09,-0.426l-0.089,-0.425l-0.088,-0.426l-0.087,-0.426l-0.086,-0.425l-0.085,-0.426l-0.085,-0.425l-0.083,-0.425l-0.082,-0.425l-0.082,-0.424l-0.08,-0.425l-0.08,-0.425l-0.078,-0.424l-0.078,-0.424l-0.077,-0.424l-0.075,-0.424l-0.075,-0.423l-0.074,-0.424l-0.073,-0.423l-0.072,-0.424l-0.072,-0.423l-0.07,-0.423l-0.069,-0.422l-0.069,-0.423l-0.067,-0.422l-0.067,-0.423l-0.066,-0.422l-0.064,-0.422l-0.064,-0.422l-0.063,-0.421l-0.062,-0.422l-0.061,-0.421l-0.061,-0.421l-0.059,-0.421l-0.059,-0.421l-0.057,-0.42l-0.057,-0.421l-0.056,-0.42l-0.055,-0.42l-0.054,-0.42l-0.053,-0.42l-0.052,-0.42l-0.051,-0.419l-0.051,-0.419l-0.049,-0.419l-0.049,-0.419l-0.048,-0.419l-0.047,-0.419l-0.046,-0.418l-0.045,-0.418l-0.044,-0.418l-0.043,-0.418l-0.043,-0.418l-0.041,-0.417l-0.041,-0.417l-0.04,-0.417l-0.039,-0.417l-0.038,-0.417l-0.038,-0.416l-0.036,-0.417l-0.036,-0.416l-0.034,-0.416l-0.034,-0.415l-0.033,-0.416l-0.032,-0.415l-0.032,-0.415l-0.03,-0.415l-0.03,-0.415l-0.314,-4.536l73.152,-84.07l178.221,0l73.152,84.07Zm-242.264,-64.07l-61.698,70.907l0.004,0.051l0.035,0.377l0.035,0.376l0.036,0.377l0.037,0.377l0.037,0.377l0.039,0.377l0.039,0.378l0.04,0.378l0.041,0.377l0.041,0.378l0.043,0.378l0.043,0.379l0.044,0.378l0.045,0.379l0.045,0.379l0.047,0.379l0.047,0.379l0.048,0.379l0.049,0.38l0.049,0.38l0.051,0.379l0.051,0.38l0.052,0.381l0.053,0.38l0.053,0.38l0.055,0.381l0.055,0.381l0.056,0.381l0.057,0.381l0.058,0.381l0.059,0.382l0.059,0.382l0.06,0.381l0.061,0.382l0.062,0.383l0.063,0.382l0.063,0.382l0.065,0.383l0.065,0.383l0.066,0.383l0.067,0.383l0.068,0.383l0.068,0.383l0.07,0.384l0.07,0.384l0.071,0.383l0.072,0.384l0.073,0.385l0.074,0.384l0.074,0.384l0.075,0.385l0.077,0.385l0.077,0.385l0.078,0.385l0.078,0.385l0.08,0.385l0.08,0.386l0.082,0.386l0.082,0.386l0.083,0.386l0.084,0.386l0.085,0.386l0.086,0.386l0.086,0.387l0.087,0.387l0.089,0.386l0.089,0.387l0.09,0.388l0.091,0.387l0.092,0.387l0.092,0.388l0.094,0.388l0.094,0.387l0.096,0.389l0.096,0.388l0.097,0.388l0.098,0.388l0.099,0.389l0.1,0.389l0.1,0.388l0.102,0.39l0.102,0.389l0.103,0.389l0.105,0.389l0.105,0.39l0.106,0.389l0.107,0.39l0.108,0.39l0.108,0.39l0.11,0.39l0.111,0.391l0.111,0.39l0.112,0.391l0.114,0.391l0.114,0.39l0.115,0.391l0.116,0.392l0.117,0.391l0.118,0.391l0.119,0.392l0.119,0.391l0.121,0.392l0.122,0.392l0.122,0.392l0.123,0.392l0.125,0.392l0.125,0.393l0.126,0.392l0.127,0.393l0.129,0.393l0.129,0.393l0.13,0.393l0.13,0.393l0.132,0.393l0.133,0.394l0.134,0.393l0.134,0.394l0.136,0.394l0.137,0.393l0.137,0.394l0.139,0.394l0.139,0.395l0.14,0.394l0.142,0.395l0.142,0.394l0.143,0.395l0.145,0.395l0.145,0.395l0.146,0.395l0.147,0.395l0.148,0.395l0.149,0.395l0.15,0.396l0.151,0.396l0.152,0.395l0.153,0.396l0.154,0.396l0.155,0.396l0.156,0.396l0.156,0.397l0.158,0.396l0.159,0.396l0.16,0.397l0.161,0.397l0.161,0.397l0.163,0.396l0.164,0.398l0.165,0.397l0.165,0.397l0.167,0.397l0.168,0.398l0.168,0.397l0.17,0.398l0.171,0.398l0.172,0.397l0.172,0.398l0.174,0.398l0.175,0.399l0.175,0.398l0.177,0.398l0.178,0.399l0.179,0.398l0.18,0.399l0.18,0.399l0.182,0.399l0.183,0.398l0.184,0.399l0.185,0.4l0.186,0.399l0.187,0.399l0.188,0.4l0.189,0.399l0.19,0.4l0.191,0.399l0.192,0.4l0.193,0.4l0.194,0.4l0.195,0.4l0.197,0.4l0.197,0.4l0.198,0.401l0.2,0.4l0.2,0.401l0.201,0.4l0.203,0.401l0.204,0.401l0.204,0.4l0.206,0.401l0.207,0.401l0.207,0.401l0.209,0.402l0.21,0.401l0.211,0.401l0.212,0.402l0.213,0.401l0.214,0.402l0.215,0.401l0.217,0.402l0.217,0.402l0.219,0.402l0.219,0.402l0.221,0.402l0.221,0.402l0.223,0.402l0.224,0.402l0.225,0.403l0.226,0.402l0.227,0.403l0.228,0.402l0.229,0.403l0.23,0.402l0.232,0.403l0.232,0.403l0.234,0.403l0.235,0.403l0.235,0.403l0.237,0.403l0.238,0.403l0.239,0.403l0.24,0.404l0.242,0.403l0.242,0.404l0.244,0.403l0.244,0.404l0.246,0.403l0.247,0.404l0.248,0.404l0.249,0.404l0.25,0.403l0.251,0.404l0.253,0.404l0.253,0.404l0.255,0.405l0.256,0.404l0.257,0.404l0.258,0.404l0.259,0.405l0.26,0.404l0.262,0.404l0.262,0.405l0.264,0.404l0.265,0.405l0.266,0.405l0.267,0.404l0.268,0.405l0.269,0.405l0.271,0.405l0.272,0.405l0.272,0.405l0.274,0.405l0.276,0.405l0.276,0.405l0.277,0.405l0.279,0.405l0.28,0.405l0.281,0.406l0.282,0.405l0.283,0.405l0.284,0.406l0.286,0.405l0.287,0.406l0.288,0.405l0.289,0.406l0.29,0.405l0.291,0.406l0.293,0.406l0.294,0.405l0.295,0.406l0.296,0.406l0.297,0.406l0.298,0.406l0.3,0.405l0.301,0.406l0.302,0.406l0.303,0.406l0.305,0.406l0.305,0.406l0.307,0.406l0.308,0.407l0.309,0.406l0.311,0.406l0.311,0.406l0.313,0.406l0.314,0.407l0.315,0.406l0.317,0.406l0.317,0.406l0.319,0.407l0.32,0.406l0.321,0.407l0.323,0.406l0.323,0.406l0.325,0.407l0.326,0.406l0.328,0.407l0.328,0.406l0.33,0.407l0.331,0.406l0.332,0.407l0.334,0.407l0.334,0.406l0.336,0.407l0.337,0.406l0.339,0.407l0.339,0.406l0.341,0.407l0.342,0.407l0.343,0.406l0.345,0.407l0.346,0.407l0.347,0.406l0.348,0.407l0.35,0.407l0.35,0.406l0.352,0.407l0.354,0.407l0.354,0.407l0.356,0.406l0.357,0.407l0.358,0.407l0.36,0.406l0.361,0.407l0.362,0.407l0.363,0.406l0.365,0.407l0.366,0.407l0.367,0.407l0.368,0.406l0.37,0.407l0.371,0.407l0.372,0.406l0.374,0.407l0.374,0.407l0.376,0.406l0.378,0.407l0.378,0.407l0.38,0.406l0.382,0.407l0.382,0.406l0.384,0.407l0.385,0.407l0.386,0.406l0.388,0.407l0.389,0.406l0.39,0.407l0.392,0.406l0.392,0.407l0.394,0.406l0.396,0.407l0.397,0.406l0.398,0.406l0.399,0.407l0.401,0.406l0.402,0.407l0.403,0.406l0.405,0.406l0.405,0.406l0.408,0.406l0.408,0.407l0.41,0.406l0.411,0.406l0.413,0.406l0.414,0.406l0.415,0.406l0.416,0.406l0.418,0.406l0.419,0.406l0.421,0.406l0.421,0.406l0.424,0.406l0.424,0.406l0.426,0.405l0.427,0.406l0.428,0.406l0.43,0.406l0.431,0.405l0.433,0.406l0.434,0.405l0.435,0.406l0.437,0.405l0.437,0.406l0.44,0.405l0.44,0.405l0.442,0.406l0.443,0.405l0.445,0.405l0.446,0.405l0.448,0.405l0.448,0.406l0.45,0.404l0.452,0.405l0.453,0.405l0.454,0.405l0.456,0.405l0.457,0.405l0.458,0.404l0.46,0.405l0.461,0.404l0.462,0.405l0.464,0.404l0.465,0.405l0.467,0.404l0.468,0.404l0.469,0.405l0.471,0.404l0.472,0.404l0.473,0.404l0.476,0.404l0.476,0.404l0.477,0.404l0.479,0.403l0.481,0.404l0.482,0.404l0.483,0.403l0.485,0.404l0.486,0.403l0.487,0.404l0.489,0.403l0.491,0.403l0.491,0.403l0.493,0.403l0.495,0.403l0.496,0.403l0.497,0.403l0.499,0.403l0.5,0.403l0.502,0.402l0.503,0.403l0.504,0.402l0.506,0.403l0.508,0.402l0.508,0.402l0.51,0.402l0.512,0.402l0.513,0.402l0.514,0.402l0.516,0.402l0.518,0.402l0.518,0.401l0.521,0.402l0.521,0.401l0.523,0.402l0.525,0.401l0.526,0.401l0.527,0.401l0.529,0.401l0.53,0.401l0.532,0.401l0.533,0.4l0.535,0.401l0.536,0.401l0.537,0.4l0.54,0.4l0.54,0.401l0.542,0.4l0.543,0.4l0.545,0.4l0.546,0.4l0.548,0.399l0.549,0.4l0.551,0.399l0.552,0.4l0.554,0.399l0.555,0.399l0.557,0.399l0.558,0.399l0.559,0.399l0.561,0.399l0.563,0.399l0.564,0.398l0.565,0.399l0.567,0.398l0.569,0.398l0.57,0.398l0.571,0.398l0.573,0.398l0.574,0.398l0.576,0.397l0.578,0.398l0.578,0.397l0.581,0.398l0.582,0.397l0.583,0.397l0.585,0.397l0.586,0.396l0.588,0.397l0.59,0.397l0.59,0.396l0.593,0.396l0.594,0.397l0.595,0.396l0.597,0.395l0.598,0.396l0.6,0.396l0.072,0.047l0.087,-0.058l0.602,-0.397l0.601,-0.397l0.599,-0.398l0.598,-0.398l0.596,-0.397l0.595,-0.398l0.593,-0.398l0.591,-0.398l0.591,-0.398l0.588,-0.399l0.587,-0.398l0.586,-0.399l0.584,-0.399l0.583,-0.398l0.58,-0.399l0.58,-0.399l0.578,-0.4l0.576,-0.399l0.575,-0.399l0.574,-0.4l0.572,-0.4l0.57,-0.399l0.57,-0.4l0.567,-0.4l0.566,-0.4l0.565,-0.401l0.563,-0.4l0.561,-0.4l0.56,-0.401l0.559,-0.401l0.557,-0.4l0.555,-0.401l0.554,-0.401l0.553,-0.401l0.551,-0.402l0.55,-0.401l0.548,-0.401l0.547,-0.402l0.545,-0.401l0.544,-0.402l0.542,-0.402l0.541,-0.402l0.539,-0.402l0.538,-0.402l0.537,-0.402l0.535,-0.403l0.533,-0.402l0.532,-0.402l0.531,-0.403l0.529,-0.403l0.528,-0.402l0.526,-0.403l0.525,-0.403l0.523,-0.403l0.522,-0.403l0.52,-0.404l0.519,-0.403l0.518,-0.403l0.516,-0.404l0.515,-0.403l0.513,-0.404l0.511,-0.404l0.511,-0.404l0.509,-0.404l0.507,-0.403l0.506,-0.404l0.505,-0.405l0.503,-0.404l0.502,-0.404l0.5,-0.405l0.499,-0.404l0.497,-0.404l0.496,-0.405l0.495,-0.405l0.493,-0.405l0.492,-0.404l0.49,-0.405l0.489,-0.405l0.488,-0.405l0.486,-0.405l0.485,-0.406l0.483,-0.405l0.482,-0.405l0.48,-0.405l0.479,-0.406l0.478,-0.405l0.476,-0.406l0.475,-0.406l0.474,-0.405l0.472,-0.406l0.47,-0.406l0.47,-0.406l0.468,-0.406l0.466,-0.406l0.465,-0.406l0.464,-0.406l0.462,-0.406l0.461,-0.406l0.46,-0.407l0.458,-0.406l0.457,-0.406l0.455,-0.407l0.454,-0.406l0.453,-0.407l0.451,-0.406l0.45,-0.407l0.449,-0.407l0.447,-0.407l0.445,-0.406l0.445,-0.407l0.443,-0.407l0.442,-0.407l0.44,-0.407l0.439,-0.407l0.438,-0.407l0.436,-0.407l0.435,-0.408l0.433,-0.407l0.432,-0.407l0.431,-0.407l0.43,-0.407l0.428,-0.408l0.427,-0.407l0.425,-0.408l0.424,-0.407l0.423,-0.408l0.421,-0.407l0.42,-0.408l0.419,-0.407l0.417,-0.408l0.417,-0.408l0.414,-0.407l0.414,-0.408l0.412,-0.408l0.41,-0.407l0.41,-0.408l0.408,-0.408l0.407,-0.408l0.405,-0.408l0.404,-0.408l0.403,-0.408l0.401,-0.408l0.401,-0.408l0.399,-0.408l0.397,-0.408l0.396,-0.408l0.395,-0.408l0.394,-0.408l0.392,-0.408l0.391,-0.408l0.39,-0.408l0.388,-0.408l0.387,-0.408l0.386,-0.409l0.384,-0.408l0.383,-0.408l0.382,-0.408l0.381,-0.408l0.379,-0.409l0.378,-0.408l0.377,-0.408l0.375,-0.408l0.374,-0.409l0.373,-0.408l0.372,-0.408l0.37,-0.409l0.369,-0.408l0.368,-0.408l0.366,-0.408l0.365,-0.409l0.364,-0.408l0.363,-0.408l0.361,-0.409l0.36,-0.408l0.359,-0.408l0.357,-0.409l0.357,-0.408l0.355,-0.408l0.353,-0.408l0.353,-0.409l0.351,-0.408l0.35,-0.408l0.349,-0.409l0.347,-0.408l0.347,-0.408l0.345,-0.408l0.343,-0.409l0.343,-0.408l0.341,-0.408l0.34,-0.408l0.339,-0.409l0.337,-0.408l0.336,-0.408l0.336,-0.408l0.333,-0.408l0.333,-0.408l0.331,-0.409l0.33,-0.408l0.329,-0.408l0.328,-0.408l0.326,-0.408l0.325,-0.408l0.324,-0.408l0.323,-0.408l0.321,-0.408l0.32,-0.408l0.32,-0.408l0.317,-0.407l0.317,-0.408l0.315,-0.408l0.315,-0.408l0.313,-0.408l0.311,-0.407l0.311,-0.408l0.309,-0.408l0.308,-0.408l0.307,-0.407l0.306,-0.408l0.305,-0.407l0.303,-0.408l0.302,-0.407l0.301,-0.408l0.3,-0.408l0.298,-0.407l0.298,-0.407l0.296,-0.408l0.295,-0.407l0.294,-0.407l0.293,-0.408l0.291,-0.406l0.29,-0.408l0.289,-0.407l0.288,-0.407l0.287,-0.407l0.286,-0.407l0.284,-0.407l0.283,-0.407l0.282,-0.407l0.281,-0.407l0.28,-0.406l0.279,-0.407l0.277,-0.407l0.276,-0.406l0.275,-0.407l0.274,-0.406l0.273,-0.407l0.272,-0.407l0.27,-0.406l0.269,-0.406l0.269,-0.406l0.266,-0.407l0.267,-0.406l0.264,-0.406l0.264,-0.406l0.262,-0.406l0.261,-0.406l0.261,-0.406l0.259,-0.406l0.257,-0.406l0.257,-0.406l0.256,-0.405l0.254,-0.406l0.254,-0.406l0.252,-0.405l0.251,-0.405l0.25,-0.406l0.249,-0.405l0.247,-0.405l0.247,-0.406l0.246,-0.405l0.244,-0.405l0.243,-0.405l0.242,-0.405l0.241,-0.405l0.24,-0.405l0.239,-0.404l0.238,-0.405l0.236,-0.405l0.236,-0.404l0.234,-0.405l0.233,-0.404l0.232,-0.404l0.231,-0.404l0.23,-0.405l0.229,-0.404l0.228,-0.404l0.227,-0.404l0.225,-0.404l0.225,-0.404l0.223,-0.404l0.223,-0.403l0.221,-0.404l0.22,-0.403l0.219,-0.404l0.218,-0.403l0.217,-0.403l0.216,-0.403l0.215,-0.404l0.214,-0.403l0.212,-0.402l0.212,-0.403l0.21,-0.403l0.21,-0.403l0.208,-0.403l0.207,-0.402l0.207,-0.403l0.205,-0.402l0.204,-0.402l0.203,-0.403l0.202,-0.402l0.201,-0.402l0.2,-0.402l0.199,-0.402l0.197,-0.402l0.197,-0.401l0.196,-0.401l0.194,-0.402l0.194,-0.402l0.193,-0.401l0.191,-0.401l0.191,-0.401l0.189,-0.401l0.188,-0.401l0.188,-0.401l0.186,-0.401l0.186,-0.401l0.184,-0.4l0.183,-0.401l0.182,-0.4l0.181,-0.4l0.181,-0.401l0.179,-0.399l0.178,-0.4l0.177,-0.4l0.176,-0.4l0.175,-0.4l0.174,-0.399l0.173,-0.4l0.172,-0.399l0.171,-0.4l0.17,-0.399l0.169,-0.399l0.168,-0.399l0.167,-0.399l0.166,-0.399l0.165,-0.398l0.164,-0.398l0.163,-0.399l0.162,-0.399l0.161,-0.398l0.16,-0.398l0.159,-0.398l0.158,-0.398l0.158,-0.397l0.156,-0.398l0.155,-0.398l0.154,-0.397l0.153,-0.397l0.152,-0.398l0.151,-0.397l0.15,-0.397l0.149,-0.397l0.149,-0.396l0.147,-0.397l0.146,-0.397l0.145,-0.396l0.145,-0.396l0.143,-0.397l0.143,-0.396l0.141,-0.396l0.14,-0.395l0.14,-0.396l0.139,-0.396l0.137,-0.395l0.137,-0.396l0.135,-0.395l0.135,-0.395l0.134,-0.395l0.133,-0.395l0.132,-0.395l0.131,-0.394l0.129,-0.395l0.13,-0.394l0.128,-0.394l0.127,-0.394l0.126,-0.395l0.125,-0.394l0.124,-0.393l0.124,-0.394l0.122,-0.393l0.122,-0.394l0.12,-0.393l0.12,-0.393l0.119,-0.393l0.118,-0.393l0.116,-0.392l0.116,-0.393l0.116,-0.393l0.114,-0.392l0.113,-0.392l0.112,-0.392l0.111,-0.392l0.111,-0.392l0.109,-0.392l0.109,-0.391l0.108,-0.391l0.106,-0.392l0.106,-0.391l0.105,-0.391l0.104,-0.391l0.104,-0.39l0.102,-0.391l0.101,-0.39l0.101,-0.391l0.099,-0.39l0.099,-0.389l0.098,-0.391l0.096,-0.389l0.096,-0.389l0.096,-0.39l0.094,-0.39l0.093,-0.389l0.093,-0.389l0.091,-0.388l0.091,-0.389l0.089,-0.389l0.089,-0.388l0.088,-0.388l0.088,-0.389l0.086,-0.388l0.085,-0.387l0.085,-0.388l0.083,-0.388l0.083,-0.387l0.082,-0.387l0.081,-0.387l0.08,-0.387l0.08,-0.387l0.078,-0.387l0.078,-0.386l0.076,-0.387l0.076,-0.385l0.075,-0.386l0.074,-0.387l0.073,-0.385l0.073,-0.386l0.071,-0.385l0.071,-0.385l0.07,-0.386l0.069,-0.384l0.068,-0.385l0.068,-0.385l0.066,-0.384l0.066,-0.385l0.065,-0.384l0.064,-0.384l0.063,-0.383l0.062,-0.384l0.061,-0.384l0.061,-0.383l0.06,-0.383l0.059,-0.383l0.058,-0.383l0.057,-0.383l0.057,-0.382l0.055,-0.383l0.055,-0.382l0.054,-0.382l0.053,-0.382l0.053,-0.382l0.051,-0.381l0.051,-0.381l0.05,-0.381l0.049,-0.382l0.048,-0.38l0.048,-0.381l0.046,-0.381l0.046,-0.38l0.045,-0.38l0.044,-0.38l0.044,-0.38l0.042,-0.38l0.042,-0.379l0.041,-0.379l0.04,-0.379l0.04,-0.379l0.038,-0.379l0.038,-0.379l0.037,-0.378l0.036,-0.379l0.036,-0.378l0.034,-0.378l0.006,-0.067l-61.698,-70.907l-160.003,0Z" style="fill:#f16437;"/><path d="M440.076,71.522c-0.321,0.525 -0.657,0.911 -1.007,1.159c-0.35,0.249 -0.788,0.373 -1.313,0.373c-0.555,0 -1.175,-0.234 -1.86,-0.701c-0.686,-0.467 -1.532,-0.985 -2.539,-1.554c-1.007,-0.569 -2.196,-1.094 -3.568,-1.575c-1.371,-0.482 -3.005,-0.723 -4.902,-0.723c-1.751,0 -3.29,0.219 -4.618,0.657c-1.328,0.438 -2.444,1.05 -3.349,1.838c-0.904,0.788 -1.583,1.715 -2.035,2.78c-0.452,1.065 -0.678,2.225 -0.678,3.48c0,1.605 0.423,2.94 1.269,4.005c0.846,1.065 1.962,1.977 3.349,2.736c1.386,0.758 2.969,1.422 4.749,1.991c1.78,0.569 3.596,1.175 5.449,1.817c1.853,0.642 3.67,1.371 5.45,2.188c1.78,0.817 3.363,1.853 4.749,3.108c1.386,1.255 2.502,2.787 3.349,4.596c0.846,1.809 1.269,4.012 1.269,6.61c0,2.801 -0.481,5.427 -1.444,7.879c-0.963,2.451 -2.357,4.588 -4.181,6.412c-1.823,1.824 -4.07,3.261 -6.74,4.312c-2.671,1.05 -5.713,1.575 -9.127,1.575c-2.013,0 -3.976,-0.197 -5.887,-0.591c-1.912,-0.393 -3.735,-0.948 -5.472,-1.663c-1.736,-0.715 -3.363,-1.583 -4.88,-2.604c-1.518,-1.022 -2.875,-2.16 -4.071,-3.414l2.977,-4.903c0.262,-0.408 0.598,-0.729 1.006,-0.963c0.409,-0.233 0.861,-0.35 1.357,-0.35c0.671,0 1.415,0.314 2.233,0.941c0.817,0.627 1.801,1.313 2.954,2.057c1.153,0.744 2.546,1.43 4.18,2.058c1.635,0.627 3.59,0.941 5.866,0.941c3.706,0 6.573,-0.905 8.601,-2.714c2.028,-1.809 3.042,-4.304 3.042,-7.485c0,-1.78 -0.423,-3.232 -1.269,-4.355c-0.847,-1.124 -1.963,-2.065 -3.349,-2.824c-1.386,-0.758 -2.969,-1.4 -4.749,-1.926c-1.78,-0.525 -3.589,-1.087 -5.428,-1.685c-1.838,-0.598 -3.647,-1.298 -5.427,-2.101c-1.781,-0.802 -3.364,-1.853 -4.75,-3.152c-1.386,-1.298 -2.502,-2.903 -3.348,-4.814c-0.847,-1.912 -1.27,-4.297 -1.27,-7.157c0,-2.276 0.445,-4.479 1.335,-6.61c0.89,-2.13 2.189,-4.019 3.896,-5.668c1.707,-1.649 3.816,-2.969 6.325,-3.961c2.51,-0.993 5.369,-1.489 8.579,-1.489c3.619,0 6.938,0.569 9.958,1.707c3.021,1.138 5.625,2.758 7.814,4.859l-2.495,4.903Z" style="fill:#5a5a5a;fill-rule:nonzero;"/><path d="M489.932,79.138l0,44.647l-5.691,0c-1.254,0 -2.057,-0.598 -2.407,-1.795l-0.7,-4.158c-0.934,0.992 -1.919,1.897 -2.955,2.714c-1.036,0.817 -2.137,1.517 -3.305,2.101c-1.167,0.584 -2.414,1.036 -3.742,1.357c-1.328,0.321 -2.751,0.481 -4.268,0.481c-2.451,0 -4.611,-0.408 -6.478,-1.225c-1.868,-0.817 -3.436,-1.97 -4.706,-3.458c-1.269,-1.488 -2.225,-3.276 -2.867,-5.362c-0.642,-2.087 -0.963,-4.385 -0.963,-6.894l0,-28.408l9.411,0l0,28.408c0,3.005 0.693,5.34 2.079,7.003c1.387,1.664 3.495,2.495 6.325,2.495c2.072,0 4.006,-0.474 5.8,-1.422c1.795,-0.949 3.48,-2.255 5.056,-3.918l0,-32.566l9.411,0Z" style="fill:#5a5a5a;fill-rule:nonzero;"/><path d="M510.811,112.579c1.313,1.693 2.75,2.882 4.311,3.568c1.562,0.686 3.291,1.029 5.187,1.029c3.677,0 6.544,-1.343 8.602,-4.027c2.057,-2.685 3.086,-6.683 3.086,-11.994c0,-2.743 -0.234,-5.085 -0.701,-7.025c-0.467,-1.941 -1.138,-3.524 -2.013,-4.75c-0.876,-1.225 -1.941,-2.115 -3.196,-2.67c-1.254,-0.554 -2.67,-0.831 -4.246,-0.831c-2.392,0 -4.457,0.518 -6.193,1.554c-1.737,1.036 -3.349,2.516 -4.837,4.442l0,20.704Zm-0.482,-26.963c1.868,-2.189 3.991,-3.954 6.369,-5.296c2.379,-1.343 5.143,-2.014 8.295,-2.014c2.51,0 4.786,0.504 6.828,1.51c2.043,1.007 3.794,2.473 5.253,4.399c1.459,1.926 2.59,4.312 3.392,7.157c0.803,2.845 1.204,6.106 1.204,9.783c0,3.298 -0.445,6.369 -1.335,9.214c-0.89,2.845 -2.167,5.311 -3.83,7.397c-1.663,2.087 -3.677,3.721 -6.041,4.903c-2.363,1.182 -5.033,1.773 -8.01,1.773c-2.626,0 -4.851,-0.423 -6.675,-1.27c-1.824,-0.846 -3.48,-2.013 -4.968,-3.501l0,18.953l-9.411,0l0,-59.486l5.69,0c1.284,0 2.101,0.598 2.452,1.794l0.787,4.684Z" style="fill:#5a5a5a;fill-rule:nonzero;"/><path d="M580.102,96.428c0,-1.576 -0.226,-3.042 -0.679,-4.399c-0.452,-1.357 -1.116,-2.539 -1.991,-3.546c-0.876,-1.007 -1.963,-1.795 -3.261,-2.364c-1.299,-0.569 -2.794,-0.853 -4.487,-0.853c-3.414,0 -6.099,0.977 -8.054,2.933c-1.955,1.955 -3.195,4.698 -3.721,8.229l22.193,0Zm-22.455,5.778c0.117,2.538 0.51,4.734 1.182,6.587c0.671,1.853 1.568,3.393 2.692,4.618c1.123,1.226 2.465,2.138 4.027,2.736c1.561,0.598 3.304,0.897 5.23,0.897c1.839,0 3.429,-0.211 4.771,-0.634c1.343,-0.424 2.51,-0.891 3.502,-1.401c0.992,-0.511 1.839,-0.978 2.539,-1.401c0.7,-0.423 1.342,-0.635 1.926,-0.635c0.759,0 1.342,0.292 1.751,0.876l2.67,3.458c-1.109,1.313 -2.364,2.422 -3.765,3.326c-1.4,0.905 -2.888,1.642 -4.464,2.211c-1.576,0.569 -3.196,0.978 -4.859,1.226c-1.663,0.248 -3.283,0.372 -4.859,0.372c-3.093,0 -5.96,-0.518 -8.601,-1.554c-2.641,-1.036 -4.931,-2.561 -6.872,-4.574c-1.94,-2.014 -3.458,-4.509 -4.552,-7.485c-1.094,-2.977 -1.642,-6.406 -1.642,-10.287c0,-3.093 0.489,-5.982 1.467,-8.667c0.977,-2.684 2.378,-5.019 4.202,-7.003c1.824,-1.984 4.041,-3.553 6.653,-4.706c2.612,-1.152 5.566,-1.729 8.864,-1.729c2.743,0 5.282,0.445 7.616,1.336c2.335,0.89 4.348,2.195 6.041,3.917c1.692,1.722 3.013,3.83 3.961,6.325c0.948,2.495 1.423,5.333 1.423,8.514c0,1.459 -0.161,2.436 -0.482,2.932c-0.321,0.497 -0.904,0.745 -1.751,0.745l-28.67,0Z" style="fill:#5a5a5a;fill-rule:nonzero;"/><path d="M606.19,87.411c1.4,-2.831 3.093,-5.056 5.077,-6.675c1.985,-1.62 4.363,-2.43 7.135,-2.43c0.963,0 1.868,0.11 2.714,0.328c0.846,0.219 1.605,0.548 2.276,0.985l-0.657,7.091c-0.116,0.496 -0.299,0.839 -0.547,1.029c-0.248,0.19 -0.576,0.285 -0.985,0.285c-0.437,0 -1.065,-0.081 -1.882,-0.241c-0.817,-0.161 -1.678,-0.241 -2.582,-0.241c-1.313,0 -2.473,0.19 -3.48,0.569c-1.007,0.379 -1.912,0.934 -2.714,1.663c-0.802,0.73 -1.51,1.62 -2.123,2.67c-0.613,1.051 -1.182,2.247 -1.707,3.59l0,27.751l-9.411,0l0,-44.647l5.471,0c0.993,0 1.678,0.182 2.058,0.547c0.379,0.365 0.642,0.999 0.788,1.904l0.569,5.822Z" style="fill:#5a5a5a;fill-rule:nonzero;"/><path d="M684.279,71.522c-0.321,0.525 -0.657,0.911 -1.007,1.159c-0.35,0.249 -0.788,0.373 -1.313,0.373c-0.555,0 -1.175,-0.234 -1.861,-0.701c-0.685,-0.467 -1.532,-0.985 -2.538,-1.554c-1.007,-0.569 -2.196,-1.094 -3.568,-1.575c-1.371,-0.482 -3.005,-0.723 -4.902,-0.723c-1.751,0 -3.29,0.219 -4.618,0.657c-1.328,0.438 -2.444,1.05 -3.349,1.838c-0.904,0.788 -1.583,1.715 -2.035,2.78c-0.452,1.065 -0.679,2.225 -0.679,3.48c0,1.605 0.424,2.94 1.27,4.005c0.846,1.065 1.962,1.977 3.348,2.736c1.386,0.758 2.97,1.422 4.75,1.991c1.78,0.569 3.596,1.175 5.449,1.817c1.853,0.642 3.67,1.371 5.45,2.188c1.78,0.817 3.363,1.853 4.749,3.108c1.386,1.255 2.502,2.787 3.349,4.596c0.846,1.809 1.269,4.012 1.269,6.61c0,2.801 -0.482,5.427 -1.445,7.879c-0.962,2.451 -2.356,4.588 -4.18,6.412c-1.824,1.824 -4.07,3.261 -6.741,4.312c-2.67,1.05 -5.712,1.575 -9.126,1.575c-2.013,0 -3.976,-0.197 -5.887,-0.591c-1.912,-0.393 -3.735,-0.948 -5.472,-1.663c-1.736,-0.715 -3.363,-1.583 -4.88,-2.604c-1.518,-1.022 -2.875,-2.16 -4.071,-3.414l2.976,-4.903c0.263,-0.408 0.599,-0.729 1.007,-0.963c0.409,-0.233 0.861,-0.35 1.357,-0.35c0.671,0 1.415,0.314 2.232,0.941c0.817,0.627 1.802,1.313 2.955,2.057c1.153,0.744 2.546,1.43 4.18,2.058c1.634,0.627 3.59,0.941 5.866,0.941c3.706,0 6.573,-0.905 8.601,-2.714c2.028,-1.809 3.042,-4.304 3.042,-7.485c0,-1.78 -0.423,-3.232 -1.269,-4.355c-0.847,-1.124 -1.963,-2.065 -3.349,-2.824c-1.386,-0.758 -2.969,-1.4 -4.749,-1.926c-1.78,-0.525 -3.59,-1.087 -5.428,-1.685c-1.838,-0.598 -3.648,-1.298 -5.428,-2.101c-1.78,-0.802 -3.363,-1.853 -4.749,-3.152c-1.386,-1.298 -2.502,-2.903 -3.348,-4.814c-0.847,-1.912 -1.27,-4.297 -1.27,-7.157c0,-2.276 0.445,-4.479 1.335,-6.61c0.89,-2.13 2.189,-4.019 3.896,-5.668c1.707,-1.649 3.815,-2.969 6.325,-3.961c2.51,-0.993 5.369,-1.489 8.579,-1.489c3.619,0 6.938,0.569 9.958,1.707c3.021,1.138 5.625,2.758 7.814,4.859l-2.495,4.903Z" style="fill:#5a5a5a;fill-rule:nonzero;"/><path d="M705.858,112.579c1.313,1.693 2.75,2.882 4.312,3.568c1.561,0.686 3.29,1.029 5.187,1.029c3.676,0 6.543,-1.343 8.601,-4.027c2.057,-2.685 3.086,-6.683 3.086,-11.994c0,-2.743 -0.234,-5.085 -0.701,-7.025c-0.467,-1.941 -1.138,-3.524 -2.013,-4.75c-0.876,-1.225 -1.941,-2.115 -3.196,-2.67c-1.254,-0.554 -2.67,-0.831 -4.245,-0.831c-2.393,0 -4.458,0.518 -6.194,1.554c-1.736,1.036 -3.349,2.516 -4.837,4.442l0,20.704Zm-0.481,-26.963c1.867,-2.189 3.99,-3.954 6.368,-5.296c2.379,-1.343 5.144,-2.014 8.295,-2.014c2.51,0 4.786,0.504 6.829,1.51c2.042,1.007 3.793,2.473 5.252,4.399c1.459,1.926 2.59,4.312 3.392,7.157c0.803,2.845 1.204,6.106 1.204,9.783c0,3.298 -0.445,6.369 -1.335,9.214c-0.89,2.845 -2.167,5.311 -3.83,7.397c-1.663,2.087 -3.677,3.721 -6.04,4.903c-2.364,1.182 -5.034,1.773 -8.011,1.773c-2.626,0 -4.851,-0.423 -6.675,-1.27c-1.824,-0.846 -3.48,-2.013 -4.968,-3.501l0,18.953l-9.411,0l0,-59.486l5.69,0c1.284,0 2.102,0.598 2.452,1.794l0.788,4.684Z" style="fill:#5a5a5a;fill-rule:nonzero;"/><path d="M754.751,87.411c1.401,-2.831 3.093,-5.056 5.078,-6.675c1.984,-1.62 4.362,-2.43 7.135,-2.43c0.962,0 1.867,0.11 2.713,0.328c0.847,0.219 1.605,0.548 2.276,0.985l-0.656,7.091c-0.117,0.496 -0.299,0.839 -0.547,1.029c-0.248,0.19 -0.577,0.285 -0.985,0.285c-0.438,0 -1.065,-0.081 -1.882,-0.241c-0.817,-0.161 -1.678,-0.241 -2.583,-0.241c-1.313,0 -2.473,0.19 -3.48,0.569c-1.006,0.379 -1.911,0.934 -2.714,1.663c-0.802,0.73 -1.51,1.62 -2.122,2.67c-0.613,1.051 -1.182,2.247 -1.708,3.59l0,27.751l-9.41,0l0,-44.647l5.471,0c0.992,0 1.678,0.182 2.057,0.547c0.38,0.365 0.642,0.999 0.788,1.904l0.569,5.822Z" style="fill:#5a5a5a;fill-rule:nonzero;"/><path d="M809.641,83.077c0,0.671 -0.109,1.328 -0.328,1.97c-0.219,0.642 -0.533,1.182 -0.941,1.62l-22.63,29.808l23.155,0l0,7.31l-34.055,0l0,-3.939c0,-0.438 0.103,-0.963 0.307,-1.576c0.204,-0.613 0.511,-1.197 0.919,-1.751l22.805,-30.071l-22.717,0l0,-7.31l33.485,0l0,3.939Z" style="fill:#5a5a5a;fill-rule:nonzero;"/><path d="M846.584,96.428c0,-1.576 -0.226,-3.042 -0.678,-4.399c-0.452,-1.357 -1.116,-2.539 -1.992,-3.546c-0.875,-1.007 -1.962,-1.795 -3.261,-2.364c-1.298,-0.569 -2.794,-0.853 -4.486,-0.853c-3.414,0 -6.099,0.977 -8.054,2.933c-1.955,1.955 -3.196,4.698 -3.721,8.229l22.192,0Zm-22.455,5.778c0.117,2.538 0.511,4.734 1.182,6.587c0.671,1.853 1.569,3.393 2.692,4.618c1.124,1.226 2.466,2.138 4.027,2.736c1.561,0.598 3.305,0.897 5.231,0.897c1.838,0 3.429,-0.211 4.771,-0.634c1.342,-0.424 2.51,-0.891 3.502,-1.401c0.992,-0.511 1.838,-0.978 2.539,-1.401c0.7,-0.423 1.342,-0.635 1.926,-0.635c0.758,0 1.342,0.292 1.75,0.876l2.671,3.458c-1.109,1.313 -2.364,2.422 -3.765,3.326c-1.401,0.905 -2.889,1.642 -4.465,2.211c-1.575,0.569 -3.195,0.978 -4.858,1.226c-1.664,0.248 -3.283,0.372 -4.859,0.372c-3.093,0 -5.96,-0.518 -8.601,-1.554c-2.641,-1.036 -4.932,-2.561 -6.872,-4.574c-1.941,-2.014 -3.458,-4.509 -4.552,-7.485c-1.095,-2.977 -1.642,-6.406 -1.642,-10.287c0,-3.093 0.489,-5.982 1.466,-8.667c0.978,-2.684 2.379,-5.019 4.203,-7.003c1.823,-1.984 4.041,-3.553 6.653,-4.706c2.612,-1.152 5.566,-1.729 8.864,-1.729c2.743,0 5.281,0.445 7.616,1.336c2.334,0.89 4.348,2.195 6.04,3.917c1.693,1.722 3.013,3.83 3.962,6.325c0.948,2.495 1.422,5.333 1.422,8.514c0,1.459 -0.16,2.436 -0.481,2.932c-0.321,0.497 -0.905,0.745 -1.751,0.745l-28.671,0Z" style="fill:#5a5a5a;fill-rule:nonzero;"/><path d="M892.282,90.125c-1.313,-1.693 -2.757,-2.875 -4.333,-3.546c-1.576,-0.671 -3.283,-1.007 -5.122,-1.007c-3.676,0 -6.551,1.35 -8.623,4.049c-2.071,2.699 -3.107,6.69 -3.107,11.972c0,2.743 0.233,5.085 0.7,7.025c0.467,1.941 1.138,3.524 2.013,4.749c0.876,1.226 1.941,2.116 3.196,2.67c1.255,0.555 2.67,0.832 4.246,0.832c2.393,0 4.457,-0.518 6.193,-1.554c1.737,-1.036 3.349,-2.502 4.837,-4.399l0,-20.791Zm9.411,-31.122l0,64.782l-5.69,0c-1.255,0 -2.058,-0.598 -2.408,-1.795l-0.831,-4.858c-1.868,2.188 -3.991,3.954 -6.369,5.296c-2.378,1.342 -5.143,2.014 -8.295,2.014c-2.509,0 -4.786,-0.504 -6.828,-1.51c-2.043,-1.007 -3.794,-2.474 -5.253,-4.4c-1.459,-1.926 -2.59,-4.311 -3.392,-7.156c-0.803,-2.845 -1.204,-6.106 -1.204,-9.783c0,-3.327 0.445,-6.406 1.335,-9.236c0.89,-2.831 2.167,-5.289 3.83,-7.376c1.663,-2.086 3.684,-3.72 6.063,-4.902c2.378,-1.182 5.041,-1.773 7.988,-1.773c2.626,0 4.859,0.416 6.697,1.248c1.838,0.831 3.487,1.991 4.946,3.48l0,-24.031l9.411,0Z" style="fill:#5a5a5a;fill-rule:nonzero;"/><path d="M937.017,104.263c-3.356,0.117 -6.186,0.386 -8.492,0.81c-2.305,0.423 -4.173,0.963 -5.603,1.619c-1.429,0.657 -2.458,1.437 -3.085,2.342c-0.628,0.905 -0.942,1.897 -0.942,2.976c0,1.051 0.168,1.948 0.504,2.692c0.335,0.745 0.802,1.357 1.4,1.839c0.599,0.481 1.299,0.831 2.102,1.05c0.802,0.219 1.685,0.329 2.648,0.329c2.451,0 4.559,-0.46 6.325,-1.379c1.765,-0.919 3.48,-2.254 5.143,-4.005l0,-8.273Zm-24.95,-18.91c5.048,-4.698 11.06,-7.047 18.034,-7.047c2.568,0 4.851,0.416 6.85,1.248c1.999,0.831 3.677,2.006 5.034,3.523c1.357,1.518 2.393,3.32 3.108,5.406c0.715,2.087 1.072,4.399 1.072,6.938l0,28.364l-4.202,0c-0.904,0 -1.59,-0.139 -2.057,-0.416c-0.467,-0.277 -0.861,-0.839 -1.182,-1.685l-0.919,-3.633c-1.138,1.021 -2.262,1.933 -3.371,2.736c-1.108,0.802 -2.254,1.481 -3.436,2.035c-1.182,0.555 -2.451,0.97 -3.808,1.248c-1.357,0.277 -2.852,0.415 -4.486,0.415c-1.81,0 -3.495,-0.248 -5.056,-0.744c-1.561,-0.496 -2.911,-1.247 -4.049,-2.254c-1.138,-1.007 -2.035,-2.254 -2.692,-3.742c-0.657,-1.489 -0.985,-3.24 -0.985,-5.253c0,-1.722 0.46,-3.4 1.379,-5.034c0.919,-1.634 2.437,-3.1 4.552,-4.399c2.116,-1.298 4.903,-2.371 8.361,-3.217c3.458,-0.846 7.725,-1.328 12.803,-1.445l0,-2.976c0,-3.21 -0.686,-5.603 -2.057,-7.179c-1.372,-1.575 -3.385,-2.363 -6.041,-2.363c-1.809,0 -3.326,0.226 -4.552,0.678c-1.226,0.452 -2.291,0.941 -3.195,1.467c-0.905,0.525 -1.708,1.014 -2.408,1.466c-0.7,0.452 -1.444,0.678 -2.232,0.678c-0.642,0 -1.189,-0.167 -1.642,-0.503c-0.452,-0.336 -0.824,-0.751 -1.116,-1.248l-1.707,-3.064Z" style="fill:#5a5a5a;fill-rule:nonzero;"/><path d="M1019.57,79.138l-14.314,44.647l-7.485,0c-0.875,0 -1.488,-0.569 -1.838,-1.707l-8.886,-27.795c-0.233,-0.788 -0.445,-1.576 -0.635,-2.364c-0.189,-0.788 -0.357,-1.561 -0.503,-2.32c-0.321,1.576 -0.715,3.152 -1.182,4.728l-9.017,27.751c-0.321,1.138 -1.007,1.707 -2.057,1.707l-7.135,0l-14.313,-44.647l7.441,0c0.729,0 1.335,0.182 1.816,0.547c0.482,0.365 0.796,0.795 0.942,1.291l7.441,26.001c0.292,1.196 0.547,2.356 0.766,3.48c0.219,1.123 0.416,2.239 0.591,3.348c0.292,-1.109 0.598,-2.225 0.919,-3.348c0.321,-1.124 0.656,-2.284 1.007,-3.48l8.36,-26.132c0.146,-0.525 0.445,-0.956 0.897,-1.291c0.453,-0.336 1,-0.504 1.642,-0.504l4.114,0c0.672,0 1.241,0.168 1.707,0.504c0.467,0.335 0.774,0.766 0.92,1.291l8.141,26.132c0.35,1.196 0.679,2.363 0.985,3.501c0.307,1.139 0.591,2.277 0.854,3.415c0.204,-1.109 0.423,-2.233 0.656,-3.371c0.234,-1.138 0.511,-2.32 0.832,-3.545l7.572,-26.001c0.176,-0.525 0.497,-0.963 0.963,-1.313c0.467,-0.35 1.036,-0.525 1.708,-0.525l7.091,0Z" style="fill:#5a5a5a;fill-rule:nonzero;"/><path d="M1057.26,87.892c-0.292,0.38 -0.569,0.671 -0.832,0.876c-0.262,0.204 -0.642,0.306 -1.138,0.306c-0.496,0 -1.014,-0.175 -1.554,-0.525c-0.539,-0.35 -1.181,-0.737 -1.926,-1.16c-0.744,-0.423 -1.641,-0.81 -2.691,-1.16c-1.051,-0.35 -2.364,-0.525 -3.94,-0.525c-2.043,0 -3.83,0.364 -5.362,1.094c-1.532,0.729 -2.816,1.773 -3.852,3.13c-1.036,1.357 -1.809,3.005 -2.32,4.946c-0.51,1.94 -0.766,4.122 -0.766,6.544c0,2.509 0.277,4.742 0.832,6.697c0.554,1.955 1.349,3.604 2.385,4.946c1.036,1.342 2.291,2.364 3.765,3.064c1.473,0.7 3.129,1.051 4.968,1.051c1.809,0 3.283,-0.219 4.421,-0.657c1.138,-0.438 2.086,-0.919 2.845,-1.445c0.759,-0.525 1.408,-1.006 1.948,-1.444c0.54,-0.438 1.116,-0.657 1.729,-0.657c0.759,0 1.342,0.292 1.751,0.876l2.67,3.458c-1.08,1.313 -2.276,2.422 -3.59,3.326c-1.313,0.905 -2.699,1.642 -4.158,2.211c-1.459,0.569 -2.976,0.978 -4.552,1.226c-1.576,0.248 -3.166,0.372 -4.771,0.372c-2.772,0 -5.362,-0.518 -7.77,-1.554c-2.407,-1.036 -4.508,-2.539 -6.303,-4.509c-1.794,-1.969 -3.21,-4.377 -4.246,-7.222c-1.036,-2.845 -1.554,-6.092 -1.554,-9.739c0,-3.298 0.467,-6.355 1.401,-9.171c0.934,-2.816 2.298,-5.245 4.093,-7.288c1.794,-2.042 4.019,-3.64 6.675,-4.793c2.655,-1.152 5.719,-1.729 9.192,-1.729c3.239,0 6.092,0.526 8.557,1.576c2.466,1.051 4.662,2.539 6.588,4.465l-2.495,3.414Z" style="fill:#5a5a5a;fill-rule:nonzero;"/><path d="M1091.58,104.263c-3.356,0.117 -6.186,0.386 -8.492,0.81c-2.305,0.423 -4.172,0.963 -5.602,1.619c-1.43,0.657 -2.459,1.437 -3.086,2.342c-0.628,0.905 -0.941,1.897 -0.941,2.976c0,1.051 0.167,1.948 0.503,2.692c0.336,0.745 0.802,1.357 1.401,1.839c0.598,0.481 1.298,0.831 2.101,1.05c0.802,0.219 1.685,0.329 2.648,0.329c2.451,0 4.56,-0.46 6.325,-1.379c1.765,-0.919 3.48,-2.254 5.143,-4.005l0,-8.273Zm-24.95,-18.91c5.049,-4.698 11.06,-7.047 18.034,-7.047c2.568,0 4.852,0.416 6.85,1.248c1.999,0.831 3.677,2.006 5.034,3.523c1.357,1.518 2.393,3.32 3.108,5.406c0.715,2.087 1.072,4.399 1.072,6.938l0,28.364l-4.202,0c-0.904,0 -1.59,-0.139 -2.057,-0.416c-0.467,-0.277 -0.861,-0.839 -1.182,-1.685l-0.919,-3.633c-1.138,1.021 -2.261,1.933 -3.37,2.736c-1.109,0.802 -2.255,1.481 -3.436,2.035c-1.182,0.555 -2.452,0.97 -3.809,1.248c-1.357,0.277 -2.852,0.415 -4.486,0.415c-1.809,0 -3.495,-0.248 -5.056,-0.744c-1.561,-0.496 -2.911,-1.247 -4.049,-2.254c-1.138,-1.007 -2.035,-2.254 -2.692,-3.742c-0.656,-1.489 -0.985,-3.24 -0.985,-5.253c0,-1.722 0.46,-3.4 1.379,-5.034c0.919,-1.634 2.437,-3.1 4.552,-4.399c2.116,-1.298 4.903,-2.371 8.361,-3.217c3.458,-0.846 7.726,-1.328 12.803,-1.445l0,-2.976c0,-3.21 -0.686,-5.603 -2.057,-7.179c-1.372,-1.575 -3.385,-2.363 -6.041,-2.363c-1.809,0 -3.326,0.226 -4.552,0.678c-1.226,0.452 -2.291,0.941 -3.195,1.467c-0.905,0.525 -1.707,1.014 -2.408,1.466c-0.7,0.452 -1.444,0.678 -2.232,0.678c-0.642,0 -1.189,-0.167 -1.641,-0.503c-0.453,-0.336 -0.825,-0.751 -1.117,-1.248l-1.707,-3.064Z" style="fill:#5a5a5a;fill-rule:nonzero;"/></svg>