<?xml version="1.0" encoding="UTF-8" standalone="no"?>
<!DOCTYPE svg PUBLIC "-//W3C//DTD SVG 1.1//EN" "http://www.w3.org/Graphics/SVG/1.1/DTD/svg11.dtd">
<svg width="100%" height="100%" viewBox="0 0 210 80" version="1.1" xmlns="http://www.w3.org/2000/svg" xmlns:xlink="http://www.w3.org/1999/xlink" xml:space="preserve" xmlns:serif="http://www.serif.com/" style="fill-rule:evenodd;clip-rule:evenodd;stroke-linejoin:round;stroke-miterlimit:2;">
    <g transform="matrix(1,0,0,1,-209,0)">
        <g id="Artboard2" transform="matrix(1.05,0,0,1,-106,0)">
            <rect x="300" y="0" width="200" height="80" style="fill:none;"/>
            <g id="Allegro.pl_sklep" transform="matrix(1.32103,0,0,1.38708,400,40.9553)">
                <g transform="matrix(1,0,0,1,-64,-21.5)">
                    <path d="M123.529,14.353C121.397,11.605 118.107,9.994 114.628,9.994C111.149,9.994 107.86,11.605 105.727,14.353C104.316,16.367 103.575,18.775 103.612,21.233C103.575,23.692 104.316,26.1 105.727,28.113C107.86,30.862 111.149,32.473 114.628,32.473C118.107,32.473 121.397,30.862 123.529,28.113C124.94,26.1 125.68,23.692 125.645,21.233C125.68,18.775 124.94,16.367 123.529,14.353ZM120.003,23.813C119.195,26.23 117.277,28.113 114.62,28.174C111.962,28.234 110.044,26.23 109.245,23.813C108.673,22.141 108.673,20.326 109.245,18.653C110.053,16.237 111.971,14.353 114.62,14.293C117.268,14.233 119.195,16.237 120.003,18.653C120.573,20.323 120.573,22.135 120.003,23.805L120.003,23.813ZM38.948,31.897C38.948,32.247 38.661,32.534 38.312,32.534L34.614,32.534C34.265,32.534 33.977,32.247 33.977,31.897L33.977,1.496C33.977,1.147 34.265,0.86 34.614,0.86L38.312,0.86C38.661,0.86 38.948,1.147 38.948,1.496L38.948,31.897ZM30.262,31.897C30.262,32.247 29.975,32.534 29.626,32.534L25.928,32.534C25.579,32.534 25.291,32.247 25.291,31.897L25.291,1.496C25.291,1.151 25.573,0.865 25.919,0.86L29.617,0.86C29.966,0.86 30.254,1.147 30.254,1.496L30.254,31.897L30.262,31.897ZM102.777,11.257L102.777,13.837C102.781,13.867 102.783,13.897 102.783,13.927C102.783,14.295 102.481,14.597 102.113,14.597C102.046,14.597 101.981,14.588 101.917,14.568C97.738,13.708 95.166,15.566 95.166,19.427L95.166,31.897C95.166,32.247 94.879,32.534 94.53,32.534L90.832,32.534C90.483,32.534 90.196,32.247 90.196,31.897L90.196,19.161C90.151,16.726 91.142,14.383 92.922,12.719C94.729,10.953 97.163,9.969 99.69,9.985C100.556,9.987 101.419,10.068 102.27,10.225C102.709,10.372 102.777,10.63 102.777,11.292L102.777,11.257ZM86.945,21.225C86.992,18.765 86.25,16.353 84.829,14.345C82.697,11.596 79.407,9.985 75.928,9.985C72.449,9.985 69.16,11.596 67.027,14.345C64.172,18.476 64.172,23.974 67.027,28.105C69.127,30.893 72.438,32.515 75.928,32.465C78.183,32.472 80.39,31.808 82.266,30.556L82.266,33.273C82.266,36.963 79.041,37.634 76.977,37.763C75.557,37.81 74.136,37.732 72.729,37.53C72.161,37.444 71.766,37.53 71.766,38.141L71.766,41.409C71.779,41.706 72.027,41.943 72.324,41.943C72.333,41.943 72.342,41.943 72.351,41.942C77.141,42.355 80.366,42.269 82.791,40.884C84.49,39.88 85.751,38.274 86.326,36.387C86.755,34.93 86.96,33.416 86.936,31.897L86.936,21.225L86.945,21.225ZM75.928,28.156C73.271,28.156 71.353,26.213 70.545,23.796C69.973,22.124 69.973,20.308 70.545,18.636C71.353,16.22 73.271,14.276 75.928,14.276C81.871,14.276 82.069,20.339 82.069,21.216C82.069,22.093 81.871,28.156 75.928,28.156ZM21.903,18.997C21.903,16.065 21.249,13.837 19.839,12.298C18.429,10.759 15.591,9.993 12.959,9.993C10.318,9.983 7.72,10.674 5.434,11.997C5.289,12.083 5.2,12.241 5.202,12.41L5.4,15.643C5.448,15.918 5.688,16.12 5.967,16.12C6.106,16.12 6.241,16.07 6.346,15.979C9.571,13.992 13.441,13.622 15.41,14.62C16.513,15.255 17.176,16.453 17.13,17.725L17.13,18.198L11.755,18.198C9.442,18.198 2.355,19.058 2.355,25.568L2.355,25.637C2.243,27.644 3.098,29.589 4.651,30.865C6.326,32.045 8.351,32.624 10.396,32.508L21.275,32.508C21.624,32.508 21.912,32.221 21.912,31.872L21.912,18.972L21.903,18.997ZM17.13,28.535L10.706,28.535C9.882,28.511 9.085,28.232 8.427,27.735C7.74,27.253 7.336,26.459 7.352,25.619C7.352,24.458 8.134,22.136 12.047,22.136L17.13,22.136L17.13,28.535ZM52.562,9.993C45.983,9.993 43.102,14.405 42.182,18.137C41.929,19.144 41.802,20.178 41.803,21.216C41.768,23.675 42.508,26.083 43.919,28.096C46.054,30.842 49.342,32.452 52.82,32.456C56.372,32.585 58.745,31.983 60.56,30.951C60.922,30.718 61.096,30.277 60.99,29.859L60.99,26.995C60.99,26.411 60.637,26.135 60.13,26.488C58.006,27.849 55.485,28.455 52.975,28.208C50.03,28.169 47.55,25.915 47.23,22.988L61.85,22.988C62.177,22.988 62.447,22.721 62.452,22.394C62.71,18.395 61.549,9.993 52.562,9.993ZM47.307,19.032C47.426,16.392 49.63,14.284 52.273,14.284C52.372,14.284 52.472,14.287 52.571,14.293C52.661,14.288 52.751,14.285 52.841,14.285C55.266,14.285 57.261,16.28 57.261,18.705C57.261,18.814 57.257,18.923 57.249,19.032L47.307,19.032Z" style="fill:white;fill-rule:nonzero;"/>
                </g>
            </g>
        </g>
    </g>
</svg>
