<?xml version="1.0" encoding="utf-8"?>
<!-- Generator: Adobe Illustrator 19.1.1, SVG Export Plug-In . SVG Version: 6.00 Build 0)  -->
<svg version="1.1" id="Layer_1" xmlns="http://www.w3.org/2000/svg" xmlns:xlink="http://www.w3.org/1999/xlink" x="0px" y="0px"
	 width="99.667px" height="43.5px" viewBox="0 0 99.667 43.5" style="enable-background:new 0 0 99.667 43.5;" xml:space="preserve"
	>
<style type="text/css">
	.st0{fill:none;}
	.st1{fill:#67AE3E;}
	.st2{fill:#FFFFFF;}
</style>
<g>
	<g>
		<g>
			<path class="st0" d="M31.75,7.208v20.368c0,2.321-1.279,4.463-3.258,5.457l-9.002,4.523v1.669l0.61-0.306l9.002-4.523
				c2.473-1.243,4.071-3.92,4.071-6.82V7.208V5.931l-1.188-0.211c-6.046-1.072-10.6-1.687-12.494-1.687v1.508
				C21.298,5.541,25.847,6.161,31.75,7.208z"/>
			<path class="st0" d="M5.808,5.931v1.276v20.368c0,2.9,1.598,5.577,4.071,6.82l9.002,4.523l0.61,0.306v-1.669l-9.002-4.523
				c-1.979-0.995-3.258-3.137-3.258-5.457V7.208c5.903-1.047,10.452-1.667,12.259-1.667V4.033c-1.894,0-6.448,0.615-12.494,1.687
				L5.808,5.931z"/>
			<path class="st1" d="M33.148,3.704C29.574,3.06,22.413,1.838,19.485,1.838c-2.928,0-10.088,1.222-13.663,1.866
				C4.605,3.924,3.721,5.04,3.721,6.348v21.208c0,3.777,2.053,7.215,5.274,8.834l10.491,5.272l10.491-5.272
				c3.221-1.618,5.274-5.057,5.274-8.834V6.348C35.25,5.04,34.366,3.924,33.148,3.704z"/>
			<polygon class="st0" points="19.429,20.967 12.194,17.874 19.429,28.205 19.429,28.205 19.429,28.204 19.43,28.204 19.49,28.102 
				19.49,20.909 19.43,20.966 			"/>
			<polygon class="st0" points="29.213,11.776 19.49,20.909 19.49,28.102 			"/>
			<rect x="9.941" y="9.996" class="st2" width="20.213" height="19.888"/>
			<path class="st1" d="M19.585,5.287l0.001-0.216c-1.882,0-6.618,0.64-12.764,1.722v21.046c0,2.398,1.331,4.611,3.392,5.639
				l9.372,4.674v-0.482l9.023-4.534c2.005-1.008,3.301-3.178,3.301-5.529V6.972C26.017,5.927,21.47,5.305,19.585,5.287z
				 M19.523,28.489v0.001h-0.001L11.99,17.815l7.501,3.039l9.85-9.252L19.523,28.489z"/>
		</g>
		<g>
			<path class="st0" d="M7.235,27.583c0,2.313,1.271,4.453,3.258,5.454l8.992,4.522v-1.151v1.151h0l9.009-4.522
				c1.971-1.001,3.258-3.141,3.258-5.454V7.2c-5.897-1.036-10.458-1.657-12.267-1.657h0v2.47v-2.47
				c-1.808,0-6.353,0.621-12.25,1.657V27.583z"/>
			<path class="st2" d="M32.471,5.801L31.98,5.716C26.2,4.692,21.818,4.101,19.777,4.051V4.046l-0.292-0.004
				c-1.89,0-6.451,0.604-12.495,1.674L6.518,5.798C6.105,5.87,5.801,6.249,5.801,6.693v20.89c0,2.915,1.585,5.569,4.071,6.817
				l9.01,4.523l0.603,0.311l0.619-0.311l8.992-4.522c2.476-1.243,4.073-3.918,4.073-6.817V6.672
				C33.169,6.24,32.874,5.871,32.471,5.801z M31.752,27.583c0,2.313-1.287,4.453-3.258,5.454l-9.009,4.522l-8.992-4.522
				c-1.987-1.001-3.258-3.141-3.258-5.454V7.953c0-0.434,0.302-0.806,0.706-0.876c5.553-0.962,9.809-1.534,11.544-1.534
				c1.724,0,5.95,0.565,11.45,1.515c0.468,0.081,0.817,0.511,0.817,1.014L31.752,27.583L31.752,27.583z"/>
		</g>
	</g>
	<g>
		<g>
			<g>
				<g>
					<path class="st1" d="M43.948,17.724l3.996-5.588l0.702-0.567h-4.697V9.922h6.547v1.647l-4.022,5.642l-0.688,0.513h4.711v1.647
						h-6.547V17.724z"/>
				</g>
				<g>
					<path class="st1" d="M56.559,17.278h-2.902l-0.715,2.093h-1.849l3.402-9.517h1.363l3.402,9.517h-1.944L56.559,17.278z
						 M54.129,15.793h2.025l-0.702-2.105l-0.284-1.485h-0.068l-0.284,1.499L54.129,15.793z"/>
					<path class="st1" d="M64.914,9.922h1.755v6.101c0,0.612-0.081,1.138-0.243,1.579c-0.162,0.441-0.387,0.805-0.675,1.093
						c-0.288,0.288-0.639,0.499-1.053,0.635c-0.415,0.135-0.868,0.202-1.363,0.202c-2.394,0-3.591-1.094-3.591-3.28V9.922h1.849
						v5.966c0,0.369,0.033,0.682,0.101,0.938c0.068,0.256,0.173,0.464,0.317,0.621c0.144,0.158,0.324,0.27,0.54,0.338
						c0.216,0.067,0.467,0.101,0.756,0.101c0.566,0,0.976-0.158,1.228-0.473c0.252-0.315,0.378-0.824,0.378-1.526
						C64.914,15.888,64.914,9.922,64.914,9.922z"/>
					<path class="st1" d="M67.965,9.922h5.602v1.647h-3.753v2.335h3.456v1.647h-3.456v3.82h-1.849V9.922z"/>
					<path class="st1" d="M79.195,17.278h-2.902l-0.715,2.093h-1.849l3.402-9.517h1.363l3.402,9.517h-1.944L79.195,17.278z
						 M76.765,15.793h2.025l-0.702-2.105l-0.284-1.485h-0.068l-0.284,1.499L76.765,15.793z"/>
					<path class="st1" d="M84.77,14.443l-0.742-1.485H83.96l0.216,1.485v4.927h-1.755V9.854h1.35l3.577,5.035l0.715,1.444h0.068
						l-0.216-1.444V9.922h1.755v9.517h-1.35L84.77,14.443z"/>
					<path class="st1" d="M91.007,9.922h5.602v1.647h-3.753v2.2h3.415v1.647h-3.415v2.308h3.821v1.647h-5.67L91.007,9.922
						L91.007,9.922z"/>
				</g>
			</g>
		</g>
		<g>
			<path class="st1" d="M43.548,28.671c0-1.594,0.351-2.822,1.053-3.683s1.703-1.291,3.006-1.291c0.683,0,1.28,0.118,1.791,0.356
				c0.51,0.237,0.933,0.573,1.271,1.011c0.337,0.437,0.588,0.961,0.751,1.572c0.164,0.61,0.246,1.289,0.246,2.036
				c0,1.595-0.353,2.822-1.059,3.683c-0.706,0.861-1.707,1.291-3,1.291c-0.692,0-1.294-0.118-1.804-0.356
				c-0.51-0.237-0.931-0.573-1.264-1.011c-0.332-0.437-0.581-0.961-0.744-1.572C43.63,30.097,43.548,29.418,43.548,28.671z
				 M45.516,28.671c0,0.484,0.041,0.927,0.124,1.333c0.081,0.405,0.206,0.754,0.375,1.046c0.169,0.292,0.385,0.519,0.649,0.683
				c0.264,0.164,0.579,0.246,0.943,0.246c0.665,0,1.18-0.26,1.545-0.779c0.365-0.519,0.547-1.362,0.547-2.528
				c0-0.464-0.039-0.897-0.116-1.298c-0.078-0.401-0.198-0.751-0.362-1.052c-0.164-0.301-0.378-0.536-0.643-0.704
				c-0.264-0.168-0.588-0.252-0.97-0.252c-0.665,0-1.18,0.267-1.544,0.799C45.698,26.696,45.516,27.533,45.516,28.671z"/>
			<path class="st1" d="M52.718,23.984c0.383-0.073,0.804-0.13,1.264-0.171c0.46-0.041,0.918-0.062,1.373-0.062
				c0.474,0,0.95,0.039,1.428,0.117c0.478,0.078,0.909,0.232,1.291,0.464c0.383,0.233,0.695,0.556,0.936,0.97
				c0.241,0.415,0.362,0.955,0.362,1.62c0,0.601-0.105,1.109-0.314,1.523c-0.21,0.415-0.487,0.754-0.834,1.018
				c-0.346,0.264-0.74,0.456-1.182,0.574c-0.442,0.119-0.9,0.178-1.373,0.178c-0.045,0-0.118,0-0.218,0
				c-0.1,0-0.205-0.002-0.314-0.007c-0.109-0.005-0.217-0.011-0.321-0.02c-0.105-0.009-0.18-0.018-0.226-0.027v3.293h-1.872
				L52.718,23.984L52.718,23.984z M55.506,25.364c-0.182,0-0.356,0.007-0.52,0.02c-0.164,0.014-0.296,0.029-0.396,0.048v3.102
				c0.037,0.009,0.091,0.018,0.164,0.027c0.073,0.01,0.151,0.017,0.232,0.021c0.082,0.005,0.162,0.007,0.24,0.007
				c0.077,0,0.134,0,0.171,0c0.246,0,0.489-0.023,0.731-0.069c0.241-0.045,0.458-0.13,0.649-0.253
				c0.191-0.123,0.344-0.294,0.457-0.512c0.114-0.219,0.171-0.506,0.171-0.861c0-0.301-0.055-0.548-0.164-0.744
				c-0.109-0.196-0.252-0.353-0.43-0.472s-0.38-0.2-0.608-0.246C55.975,25.387,55.743,25.364,55.506,25.364z"/>
			<path class="st1" d="M60.439,23.888h1.872v9.566h-1.872L60.439,23.888L60.439,23.888z"/>
			<path class="st1" d="M66.234,28.466l-0.751-1.503h-0.069l0.218,1.503v4.988h-1.777V23.82h1.367l3.622,5.098l0.724,1.462h0.069
				l-0.218-1.462v-5.029h1.777v9.635h-1.367L66.234,28.466z"/>
			<path class="st1" d="M72.739,23.888h1.872v9.566h-1.872V23.888z"/>
			<path class="st1" d="M76.155,23.888h5.672v1.667h-3.799v2.227h3.457v1.667h-3.457v2.337h3.868v1.667h-5.74L76.155,23.888
				L76.155,23.888z"/>
		</g>
	</g>
</g>
</svg>
