<?xml version="1.0" encoding="UTF-8" standalone="no"?>
<!DOCTYPE svg PUBLIC "-//W3C//DTD SVG 1.1//EN" "http://www.w3.org/Graphics/SVG/1.1/DTD/svg11.dtd">
<svg width="100%" height="100%" viewBox="0 0 190 80" version="1.1" xmlns="http://www.w3.org/2000/svg" xmlns:xlink="http://www.w3.org/1999/xlink" xml:space="preserve" xmlns:serif="http://www.serif.com/" style="fill-rule:evenodd;clip-rule:evenodd;stroke-linejoin:round;stroke-miterlimit:2;">
    <g id="Artboard1" transform="matrix(0.95,0,0,1,0,0)">
        <rect x="0" y="0" width="200" height="80" style="fill:none;"/>
        <g transform="matrix(1.05263,0,0,1,-3.15789,0)">
            <path d="M147.006,54.454C144.972,59.035 143.977,64.124 144.287,69.457L87.786,72.667L31.197,75.877C30.843,69.966 28.983,64.542 25.972,59.915C25.928,59.826 25.862,59.76 25.817,59.671C22.806,55.044 20.924,49.598 20.592,43.708C20.238,37.819 21.5,32.196 23.958,27.259C24.002,27.17 24.046,27.082 24.09,26.993C26.548,22.056 27.788,16.432 27.456,10.543L84.022,7.333L140.611,4.123C140.943,10.012 142.803,15.458 145.814,20.085C145.858,20.174 145.925,20.24 145.969,20.329C148.958,24.956 150.84,30.402 151.172,36.292C151.415,40.764 150.751,45.103 149.334,49.088C148.958,48.911 148.559,48.823 148.139,48.823C146.523,48.823 145.216,50.129 145.216,51.745C145.216,52.956 145.939,53.991 146.991,54.438C147.211,53.954 147.41,53.469 147.652,53.007C147.696,52.918 147.74,52.83 147.785,52.741C148.382,51.568 148.892,50.328 149.334,49.088L149.338,49.077C150.356,49.534 151.056,50.55 151.039,51.745C151.039,53.361 149.733,54.668 148.117,54.668C147.725,54.668 147.355,54.603 147.006,54.454ZM165.784,37.664C162.928,37.664 161.445,39.635 160.648,40.565C160.648,38.971 160.382,37.664 160.028,37.664C159.873,37.664 159.74,37.731 159.651,37.753L157.083,38.749C156.928,38.816 156.707,38.882 156.707,39.103C156.707,39.48 156.928,40.255 156.973,41.029C156.973,41.428 156.995,42.004 156.84,42.712L153.165,59.937C153.142,60.136 153.032,60.424 153.032,60.601C153.032,60.756 153.032,60.889 153.187,60.889C153.275,60.889 153.541,60.822 153.674,60.8L156.508,60.225C156.995,60.136 157.017,60.003 157.083,59.671L158.345,53.826C158.854,54.114 159.563,54.623 161.135,54.623C166.692,54.623 169.304,47.627 169.304,42.469C169.282,39.28 168.064,37.664 165.784,37.664ZM138.973,28.631C136.98,26.085 134.08,24.801 130.361,24.779C122.833,24.779 118.671,30.225 118.649,40.1C118.627,49.952 122.767,55.398 130.316,55.42L130.361,55.42C137.888,55.42 142.028,49.996 142.073,40.144C142.073,35.14 141.032,31.266 138.973,28.631ZM47.935,49.265C47.78,49 47.581,48.756 47.271,48.756C46.894,48.756 46.429,48.978 45.832,49.265C44.924,49.708 43.662,50.306 42.068,50.306C39.854,50.306 38.415,49.354 37.574,47.339C36.843,45.59 36.511,43.022 36.533,38.993C36.555,32.129 38.105,29.45 42.134,29.45C43.662,29.45 44.813,30.247 45.654,30.823C46.186,31.177 46.562,31.443 46.894,31.443C47.182,31.443 47.426,31.155 47.581,30.956L49.285,28.609C49.551,28.277 49.551,28.056 49.551,27.879C49.551,26.838 45.123,24.58 41.802,24.58L41.758,24.58C33.943,24.58 29.625,30.093 29.603,40.1C29.581,50.24 33.544,55.199 41.736,55.221L41.758,55.221C46.186,55.221 49.595,53.317 49.595,52.387C49.595,52.144 49.507,51.966 49.374,51.723L47.935,49.265ZM116.391,25.465L101.181,25.421C100.339,25.421 100.029,25.576 100.029,26.462L99.985,53.583C99.985,54.468 100.273,54.645 101.114,54.645L116.368,54.69C117.254,54.69 117.453,54.49 117.475,53.649L117.475,50.859C117.475,49.996 117.254,49.819 116.324,49.797L106.583,49.775L106.605,41.849L114.354,41.871C115.217,41.871 115.461,41.649 115.461,40.83L115.483,38.019C115.483,37.642 115.439,37.354 115.261,37.177C115.084,37 114.774,36.956 114.332,36.956L106.627,36.934L106.649,30.314L115.483,30.336C115.771,30.336 116.479,30.336 116.701,29.539L117.653,26.55C117.719,26.373 117.741,26.262 117.741,26.085C117.719,25.51 117.232,25.465 116.391,25.465ZM94.871,25.421L91.484,25.421C90.642,25.421 90.332,25.576 90.332,26.462L90.31,39.812C90.31,40.365 90.332,41.317 90.377,42.314C90.399,43.088 90.421,43.863 90.443,44.528C89.956,43.111 89.159,41.184 87.941,39.081L80.325,25.997C80.015,25.487 79.882,25.355 79.107,25.355L75.277,25.355C74.392,25.355 74.17,25.576 74.17,26.395L74.104,53.516C74.104,54.402 74.392,54.579 75.233,54.579L78.62,54.601C79.462,54.601 79.772,54.446 79.772,53.538L79.816,38.373C79.816,37.111 79.772,35.782 79.727,34.808L79.727,34.742C80.192,36.181 80.901,37.509 82.096,39.568L90.531,53.959C90.841,54.535 91.041,54.645 91.749,54.645L94.804,54.668C95.734,54.668 95.956,54.468 95.956,53.605L96.022,26.506C96,25.554 95.668,25.421 94.871,25.421ZM179.378,31.797C179.422,31.598 179.466,31.354 179.466,31.155C179.466,30.934 179.444,30.845 179.311,30.845C179.223,30.845 178.979,30.912 178.869,30.934L176.035,31.509C175.548,31.62 175.526,31.731 175.459,32.063L171.895,48.557C171.629,49.686 171.518,50.815 171.518,51.966C171.518,54.048 172.78,54.668 174.64,54.668C175.902,54.668 177.894,54.225 177.894,53.738C177.894,53.649 177.872,53.516 177.872,53.406L177.54,51.192C177.518,50.992 177.407,50.97 177.319,50.97C177.164,50.97 176.677,51.192 176.123,51.192C175.636,51.192 175.393,50.992 175.393,50.55C175.393,50.107 175.614,49.288 175.769,48.513L179.378,31.797ZM69.543,25.355L54.355,25.31C53.558,25.31 53.226,25.465 53.204,26.373L53.138,53.472C53.138,53.826 53.182,54.114 53.359,54.291C53.536,54.49 53.846,54.513 54.267,54.513L69.521,54.557C70.407,54.557 70.606,54.358 70.606,53.516L70.606,50.727C70.606,49.863 70.384,49.664 69.477,49.664L59.735,49.642L59.757,41.716L67.462,41.738C68.259,41.738 68.613,41.583 68.613,40.697L68.613,37.908C68.613,37.531 68.591,37.266 68.414,37.089C68.237,36.912 67.927,36.867 67.484,36.867L59.78,36.845L59.802,30.225L68.658,30.247C68.923,30.247 69.61,30.247 69.831,29.473L70.783,26.484C70.849,26.307 70.872,26.196 70.872,25.997C70.872,25.399 70.384,25.355 69.543,25.355ZM160.958,51.657C159.873,51.657 159.164,51.147 158.899,51.014L160.028,45.723C160.515,43.398 161.932,40.897 163.88,40.897C164.876,40.897 165.43,41.738 165.43,43.111C165.43,46.454 164.234,51.657 160.958,51.657ZM125.556,40.122C125.579,35.295 126.42,29.561 130.361,29.561L130.361,29.384L130.383,29.539C131.999,29.539 133.217,30.491 134.014,32.329C134.766,34.122 135.165,36.734 135.143,40.122C135.121,44.926 134.279,50.66 130.316,50.66C126.376,50.66 125.556,44.926 125.556,40.122Z" style="fill:white;fill-rule:nonzero;"/>
        </g>
    </g>
</svg>
