<?xml version="1.0" encoding="UTF-8" standalone="no"?><!DOCTYPE svg PUBLIC "-//W3C//DTD SVG 1.1//EN" "http://www.w3.org/Graphics/SVG/1.1/DTD/svg11.dtd"><svg width="100%" height="100%" viewBox="0 0 900 380" version="1.1" xmlns="http://www.w3.org/2000/svg" xmlns:xlink="http://www.w3.org/1999/xlink" xml:space="preserve" xmlns:serif="http://www.serif.com/" style="fill-rule:evenodd;clip-rule:evenodd;stroke-linecap:round;stroke-linejoin:round;stroke-miterlimit:1.5;"><rect x="280.341" y="64.883" width="587.159" height="180" style="fill:url(#_Linear1);stroke:#d8dfe2;stroke-width:11.42px;"/><path d="M195.5,14.883l21.456,33.133l32.502,-22.4l7.144,38.822l38.6,-8.257l-8.257,38.6l38.822,7.143l-22.4,32.503l33.133,21.456l-33.133,21.456l22.4,32.502l-38.822,7.143l8.257,38.601l-38.6,-8.257l-7.144,38.822l-32.502,-22.401l-21.456,33.134l-21.456,-33.134l-32.502,22.401l-7.144,-38.822l-38.6,8.257l8.257,-38.601l-38.822,-7.143l22.4,-32.502l-33.133,-21.456l33.133,-21.456l-22.4,-32.503l38.822,-7.143l-8.257,-38.6l38.6,8.257l7.144,-38.822l32.502,22.4l21.456,-33.133Z" style="fill:url(#_Linear2);"/><clipPath id="_clip3"><path d="M195.5,14.883l21.456,33.133l32.502,-22.4l7.144,38.822l38.6,-8.257l-8.257,38.6l38.822,7.143l-22.4,32.503l33.133,21.456l-33.133,21.456l22.4,32.502l-38.822,7.143l8.257,38.601l-38.6,-8.257l-7.144,38.822l-32.502,-22.401l-21.456,33.134l-21.456,-33.134l-32.502,22.401l-7.144,-38.822l-38.6,8.257l8.257,-38.601l-38.822,-7.143l22.4,-32.502l-33.133,-21.456l33.133,-21.456l-22.4,-32.503l38.822,-7.143l-8.257,-38.6l38.6,8.257l7.144,-38.822l32.502,22.4l21.456,-33.133Z"/></clipPath><g clip-path="url(#_clip3)"><circle cx="57.9" cy="301.883" r="206.392" style="fill:url(#_Linear4);"/></g><path d="M241.214,63.879l0.585,0.082l0.569,0.162l0.541,0.239l0.503,0.311l0.455,0.377l0.4,0.436l0.335,0.487l0.266,0.528l0.19,0.56l0.112,0.58l0.031,0.591l-0.051,0.589l-0.131,0.576l-0.22,0.732l-0.216,0.723l-0.212,0.724l-0.21,0.723l-0.207,0.723l-0.204,0.721l-0.202,0.722l-0.198,0.721l-0.196,0.721l-0.192,0.72l-0.19,0.719l-0.187,0.719l-0.183,0.719l-0.181,0.718l-0.178,0.717l-0.174,0.717l-0.172,0.716l-0.168,0.716l-0.166,0.715l-0.163,0.717l-0.079,0.355l-0.079,0.357l-0.079,0.357l-0.078,0.357l-0.076,0.357l-0.076,0.356l-0.076,0.357l-0.074,0.356l-0.074,0.356l-0.073,0.356l-0.072,0.356l-0.071,0.355l-0.07,0.356l-0.07,0.355l-0.069,0.355l-0.068,0.356l-0.067,0.355l-0.066,0.354l-0.066,0.355l-0.065,0.355l-0.063,0.354l-0.063,0.354l-0.063,0.354l-0.061,0.354l-0.061,0.354l-0.059,0.354l-0.059,0.353l-0.058,0.354l-0.057,0.353l-0.057,0.353l-0.055,0.353l-0.055,0.353l-0.054,0.352l-0.052,0.353l-0.053,0.352l-0.051,0.353l-0.05,0.352l-0.05,0.351l-0.048,0.352l-0.048,0.352l-0.047,0.351l-0.046,0.352l-0.045,0.351l-0.044,0.351l-0.043,0.351l-0.043,0.35l-0.041,0.351l-0.041,0.35l-0.04,0.351l-0.039,0.35l-0.038,0.35l-0.037,0.349l-0.036,0.35l-0.035,0.35l-0.035,0.349l-0.033,0.349l-0.033,0.349l-0.032,0.349l-0.03,0.349l-0.03,0.348l-0.029,0.349l-0.028,0.348l-0.027,0.348l-0.027,0.348l-0.025,0.348l-0.024,0.348l-0.024,0.347l-0.022,0.347l-0.022,0.348l-0.02,0.347l-0.02,0.347l-0.019,0.346l-0.017,0.347l-0.017,0.346l-0.016,0.346l-0.015,0.347l-0.014,0.346l-0.013,0.345l-0.012,0.346l-0.011,0.345l-0.01,0.346l-0.01,0.345l-0.008,0.345l-0.007,0.344l-0.006,0.345l-0.006,0.345l-0.004,0.344l-0.003,0.344l-0.003,0.344l-0.001,0.344l-0.001,0.344l0.001,0.343l0.002,0.344l0.002,0.343l0.004,0.343l0.004,0.343l0.006,0.343l0.006,0.342l0.008,0.343l0.008,0.342l0.01,0.342l0.01,0.342l0.012,0.342l0.012,0.341l0.014,0.342l0.014,0.341l0.016,0.341l0.016,0.341l0.018,0.341l0.019,0.341l0.019,0.341l0.021,0.34l0.022,0.34l0.023,0.34l0.023,0.34l0.025,0.34l0.026,0.339l0.027,0.34l0.028,0.339l0.029,0.339l0.03,0.339l0.031,0.339l0.032,0.338l0.034,0.339l0.034,0.338l0.035,0.338l0.037,0.338l0.037,0.338l0.039,0.338l0.039,0.337l0.041,0.338l0.042,0.337l0.042,0.337l0.044,0.337l0.045,0.336l0.046,0.337l0.047,0.336l0.049,0.337l0.049,0.336l0.05,0.336l0.052,0.336l0.053,0.335l0.053,0.336l0.055,0.335l0.056,0.335l0.057,0.335l0.058,0.335l0.059,0.335l0.061,0.334l0.061,0.335l0.063,0.334l0.063,0.334l0.065,0.334l0.066,0.334l0.067,0.333l0.068,0.334l0.07,0.333l0.07,0.333l0.072,0.333l0.073,0.333l0.073,0.333l0.075,0.333l0.077,0.332l0.077,0.332l0.078,0.333l0.08,0.331l0.081,0.332l0.082,0.332l0.083,0.331l0.084,0.332l0.086,0.331l0.086,0.331l0.088,0.331l0.089,0.331l0.09,0.331l0.091,0.33l0.093,0.33l0.094,0.331l0.094,0.33l0.096,0.33l0.098,0.329l0.098,0.33l0.1,0.33l0.101,0.329l0.102,0.329l0.103,0.329l0.104,0.329l0.106,0.329l0.107,0.328l0.108,0.329l0.109,0.328l0.111,0.329l0.111,0.328l0.113,0.328l0.115,0.327l0.115,0.328l0.117,0.328l0.118,0.327l0.119,0.327l0.12,0.327l0.122,0.327l0.123,0.327l0.124,0.327l0.125,0.326l0.127,0.327l0.128,0.326l0.129,0.326l0.13,0.326l0.132,0.326l0.133,0.326l0.134,0.325l0.136,0.326l0.136,0.325l0.138,0.325l0.14,0.325l0.143,0.332l0.189,0.53l0.119,0.551l0.045,0.561l-0.029,0.562l-0.102,0.554l-0.174,0.536l-0.242,0.508l-0.307,0.472l-0.366,0.428l-0.419,0.376l-0.464,0.318l-0.514,0.305l-0.509,0.304l-0.508,0.305l-0.509,0.307l-0.507,0.309l-0.508,0.311l-0.508,0.312l-0.507,0.315l-0.507,0.316l-0.507,0.319l-0.506,0.32l-0.507,0.321l-0.506,0.324l-0.506,0.326l-0.505,0.327l-0.506,0.329l-0.505,0.331l-0.505,0.333l-0.505,0.334l-0.505,0.337l-0.504,0.338l-0.504,0.34l-0.504,0.342l-0.504,0.343l-0.504,0.345l-0.503,0.348l-0.503,0.349l-0.503,0.35l-0.502,0.353l-0.503,0.354l-0.502,0.356l-0.502,0.358l-0.502,0.36l-0.501,0.361l-0.502,0.363l-0.501,0.365l-0.501,0.367l-0.501,0.368l-0.5,0.37l-0.5,0.372l-0.5,0.374l-0.5,0.375l-0.5,0.377l-0.499,0.379l-0.5,0.381l-0.499,0.382l-0.498,0.384l-0.499,0.386l-0.498,0.388l-0.498,0.389l-0.498,0.391l-0.498,0.393l-0.498,0.394l-0.497,0.396l-0.497,0.398l-0.497,0.399l-0.497,0.402l-0.496,0.403l-0.496,0.404l-0.496,0.407l-0.496,0.408l-0.496,0.409l-0.495,0.412l-0.495,0.413l-0.495,0.414l-0.495,0.417l-0.495,0.418l-0.494,0.42l-0.494,0.421l-0.494,0.423l-0.494,0.425l-0.493,0.426l-0.494,0.428l-0.493,0.43l-0.493,0.431l-0.492,0.433l-0.493,0.435l-0.492,0.436l-0.492,0.438l-0.492,0.44l-0.492,0.441l-0.491,0.442l-0.492,0.445l-0.491,0.446l-0.49,0.448l-0.491,0.449l-0.491,0.451l-0.49,0.452l-0.49,0.454l-0.49,0.456l-0.489,0.457l-0.49,0.459l-0.489,0.461l-0.489,0.462l-0.489,0.463l-0.488,0.466l-0.489,0.466l-0.488,0.469l-0.488,0.47l-0.488,0.471l-0.487,0.473l-0.488,0.475l-0.487,0.476l-0.487,0.478l-0.487,0.48l-0.487,0.48l-0.486,0.483l-0.486,0.484l-0.486,0.485l-0.486,0.488l-0.486,0.488l-0.485,0.49l-0.485,0.492l-0.485,0.493l-0.485,0.495l-0.485,0.496l-0.484,0.498l-0.484,0.5l-0.484,0.5l-0.484,0.503l-0.484,0.504l-0.483,0.505l-0.484,0.507l-0.483,0.508l-0.482,0.51l-0.483,0.511l-0.483,0.513l-0.482,0.515l-0.482,0.515l-0.482,0.518l-0.482,0.518l-0.481,0.521l-0.481,0.521l-0.481,0.524l-0.481,0.524l-0.481,0.526l-0.481,0.528l-0.48,0.529l-0.48,0.53l-0.48,0.532l-0.48,0.534l-0.48,0.535l-0.479,0.536l-0.479,0.537l-0.479,0.54l-0.479,0.54l-0.479,0.542l-0.478,0.544l-0.478,0.544l-0.478,0.547l-0.478,0.547l-0.478,0.549l-0.477,0.551l-0.478,0.552l-0.477,0.553l-0.477,0.555l-0.477,0.556l-0.476,0.557l-0.477,0.559l-0.476,0.56l-0.476,0.562l-0.476,0.563l-0.475,0.564l-0.476,0.566l-0.475,0.567l-0.475,0.569l-0.475,0.57l-0.475,0.571l-0.475,0.573l-0.474,0.573l-0.474,0.576l-0.474,0.576l-0.474,0.578l-0.474,0.58l-0.473,0.58l-0.473,0.583l-0.473,0.583l-0.473,0.585l-0.473,0.586l-0.473,0.587l-0.472,0.589l-0.472,0.59l-0.472,0.591l-0.472,0.592l-0.472,0.594l-0.472,0.596l-0.471,0.596l-0.471,0.598l-0.471,0.599l-0.471,0.6l-0.47,0.602l-0.471,0.603l-0.47,0.604l-0.47,0.606l-0.47,0.607l-0.47,0.608l-0.47,0.609l-0.469,0.611l-0.469,0.612l-0.469,0.613l-0.469,0.614l-0.469,0.616l-0.469,0.617l-0.468,0.618l-0.468,0.62l-0.468,0.62l-0.468,0.622l-0.468,0.623l-0.467,0.625l-0.468,0.625l-0.467,0.627l-0.467,0.628l-0.467,0.63l-0.467,0.63l-0.466,0.632l-0.467,0.633l-0.466,0.634l-0.466,0.635l-0.466,0.637l-0.465,0.638l-0.466,0.638l-0.465,0.641l-0.466,0.641l-0.465,0.642l-0.465,0.644l-0.464,0.645l-0.465,0.646l-0.464,0.647l-0.465,0.649l-0.464,0.649l-0.464,0.651l-0.463,0.652l-0.464,0.653l-0.463,0.654l-0.464,0.656l-0.463,0.656l-0.463,0.658l-0.463,0.658l-0.462,0.66l-0.463,0.661l-0.462,0.663l-0.462,0.663l-0.462,0.664l-0.462,0.666l-0.462,0.667l-0.461,0.668l-0.462,0.669l-0.461,0.67l-0.461,0.671l-0.461,0.672l-0.461,0.673l-0.46,0.674l-0.921,1.353l-0.923,1.36l-0.365,0.465l-0.425,0.411l-0.478,0.348l-0.521,0.28l-0.555,0.205l-0.578,0.127l-0.589,0.046l-0.59,-0.035l-0.58,-0.116l-0.559,-0.195l-0.526,-0.269l-0.484,-0.34l-0.434,-0.403l-0.373,-0.458l-0.317,-0.449l-0.315,-0.444l-0.315,-0.443l-0.316,-0.441l-0.316,-0.44l-0.316,-0.439l-0.316,-0.437l-0.317,-0.436l-0.317,-0.434l-0.317,-0.433l-0.318,-0.432l-0.317,-0.43l-0.318,-0.429l-0.319,-0.427l-0.318,-0.426l-0.319,-0.425l-0.319,-0.424l-0.32,-0.422l-0.32,-0.42l-0.32,-0.419l-0.32,-0.418l-0.321,-0.417l-0.32,-0.415l-0.321,-0.414l-0.322,-0.413l-0.322,-0.411l-0.321,-0.41l-0.323,-0.408l-0.322,-0.407l-0.323,-0.406l-0.323,-0.405l-0.323,-0.403l-0.324,-0.402l-0.324,-0.401l-0.324,-0.399l-0.324,-0.398l-0.325,-0.397l-0.325,-0.395l-0.325,-0.394l-0.325,-0.393l-0.326,-0.391l-0.326,-0.391l-0.326,-0.389l-0.327,-0.387l-0.326,-0.387l-0.327,-0.385l-0.328,-0.384l-0.327,-0.382l-0.328,-0.381l-0.328,-0.381l-0.328,-0.378l-0.329,-0.378l-0.329,-0.376l-0.329,-0.375l-0.329,-0.374l-0.33,-0.372l-0.329,-0.372l-0.331,-0.37l-0.33,-0.369l-0.33,-0.367l-0.331,-0.367l-0.331,-0.365l-0.332,-0.364l-0.331,-0.362l-0.332,-0.362l-0.332,-0.36l-0.333,-0.359l-0.332,-0.358l-0.333,-0.357l-0.333,-0.355l-0.334,-0.355l-0.333,-0.353l-0.334,-0.351l-0.334,-0.351l-0.334,-0.35l-0.335,-0.348l-0.335,-0.347l-0.335,-0.346l-0.335,-0.345l-0.336,-0.344l-0.336,-0.342l-0.336,-0.342l-0.336,-0.34l-0.336,-0.339l-0.337,-0.338l-0.337,-0.336l-0.337,-0.336l-0.338,-0.334l-0.337,-0.334l-0.338,-0.332l-0.339,-0.331l-0.338,-0.33l-0.339,-0.329l-0.339,-0.327l-0.339,-0.327l-0.339,-0.325l-0.34,-0.325l-0.339,-0.323l-0.34,-0.322l-0.341,-0.321l-0.34,-0.32l-0.341,-0.318l-0.341,-0.318l-0.341,-0.317l-0.342,-0.315l-0.341,-0.315l-0.342,-0.313l-0.342,-0.312l-0.343,-0.312l-0.342,-0.31l-0.343,-0.309l-0.343,-0.308l-0.343,-0.307l-0.344,-0.306l-0.344,-0.304l-0.344,-0.304l-0.344,-0.303l-0.344,-0.302l-0.345,-0.3l-0.345,-0.3l-0.345,-0.298l-0.345,-0.298l-0.345,-0.296l-0.346,-0.296l-0.346,-0.294l-0.346,-0.294l-0.347,-0.292l-0.346,-0.291l-0.347,-0.291l-0.347,-0.289l-0.347,-0.288l-0.348,-0.288l-0.347,-0.286l-0.348,-0.285l-0.348,-0.285l-0.349,-0.283l-0.348,-0.282l-0.349,-0.282l-0.349,-0.28l-0.349,-0.28l-0.35,-0.278l-0.349,-0.278l-0.35,-0.276l-0.35,-0.276l-0.35,-0.274l-0.351,-0.274l-0.35,-0.272l-0.351,-0.272l-0.351,-0.271l-0.352,-0.27l-0.351,-0.269l-0.352,-0.268l-0.352,-0.267l-0.352,-0.266l-0.352,-0.265l-0.353,-0.264l-0.352,-0.263l-0.353,-0.262l-0.353,-0.262l-0.354,-0.26l-0.353,-0.26l-0.354,-0.259l-0.354,-0.257l-0.354,-0.257l-0.355,-0.256l-0.354,-0.255l-0.355,-0.255l-0.355,-0.253l-0.355,-0.252l-0.355,-0.252l-0.356,-0.25l-0.356,-0.25l-0.356,-0.249l-0.356,-0.248l-0.356,-0.247l-0.357,-0.246l-0.356,-0.246l-0.357,-0.244l-0.357,-0.244l-0.358,-0.243l-0.357,-0.242l-0.358,-0.241l-0.358,-0.24l-0.358,-0.24l-0.358,-0.238l-0.359,-0.238l-0.359,-0.237l-0.358,-0.236l-0.36,-0.235l-0.359,-0.235l-0.359,-0.233l-0.36,-0.233l-0.36,-0.232l-0.36,-0.231l-0.36,-0.231l-0.36,-0.229l-0.361,-0.229l-0.361,-0.228l-0.361,-0.227l-0.361,-0.226l-0.361,-0.226l-0.362,-0.225l-0.361,-0.224l-0.362,-0.223l-0.362,-0.223l-0.362,-0.221l-0.363,-0.221l-0.362,-0.22l-0.363,-0.219l-0.363,-0.219l-0.363,-0.218l-0.364,-0.217l-0.363,-0.216l-0.362,-0.215l-0.73,-0.43l-0.728,-0.426l-0.73,-0.423l-0.73,-0.42l-0.731,-0.417l-0.731,-0.414l-0.732,-0.411l-0.733,-0.409l-0.733,-0.406l-0.735,-0.403l-0.734,-0.4l-0.736,-0.397l-0.736,-0.395l-0.737,-0.392l-0.738,-0.39l-0.738,-0.386l-0.739,-0.385l-0.739,-0.381l-0.74,-0.379l-0.741,-0.377l-0.747,-0.377l-0.503,-0.298l-0.457,-0.363l-0.404,-0.423l-0.343,-0.473l-0.275,-0.515l-0.203,-0.549l-0.126,-0.57l-0.048,-0.582l0.032,-0.584l0.111,-0.574l0.188,-0.553l0.261,-0.523l0.33,-0.482l0.392,-0.433l0.448,-0.376l59.344,-43.311l0.485,-0.306l0.521,-0.239l0.548,-0.167l0.566,-0.093l0.573,-0.017l0.57,0.06l0.557,0.135l0.534,0.209l0.501,0.277l0.46,0.342l0.41,0.401l0.354,0.451l0.29,0.494l25.684,51.369l0.116,-0.245l0.328,-0.691l0.33,-0.691l0.33,-0.691l0.331,-0.691l0.332,-0.69l0.332,-0.69l0.334,-0.689l0.334,-0.69l0.335,-0.689l0.336,-0.689l0.337,-0.688l0.338,-0.688l0.339,-0.688l0.339,-0.688l0.341,-0.687l0.341,-0.687l0.342,-0.687l0.344,-0.686l0.344,-0.686l0.345,-0.686l0.346,-0.686l0.347,-0.685l0.348,-0.685l0.349,-0.684l0.35,-0.684l0.351,-0.684l0.352,-0.684l0.353,-0.683l0.354,-0.683l0.355,-0.682l0.356,-0.682l0.357,-0.682l0.358,-0.681l0.359,-0.681l0.36,-0.681l0.362,-0.681l0.362,-0.679l0.363,-0.68l0.365,-0.679l0.365,-0.679l0.367,-0.679l0.368,-0.678l0.369,-0.677l0.37,-0.678l0.371,-0.677l0.373,-0.676l0.373,-0.676l0.375,-0.676l0.376,-0.675l0.377,-0.675l0.378,-0.675l0.38,-0.674l0.38,-0.673l0.382,-0.674l0.383,-0.672l0.384,-0.673l0.386,-0.672l0.387,-0.671l0.388,-0.671l0.389,-0.671l0.39,-0.67l0.392,-0.67l0.393,-0.669l0.395,-0.669l0.395,-0.668l0.397,-0.668l0.399,-0.668l0.399,-0.667l0.401,-0.666l0.402,-0.666l0.404,-0.666l0.405,-0.665l0.406,-0.665l0.408,-0.664l0.409,-0.664l0.41,-0.663l0.412,-0.663l0.413,-0.662l0.415,-0.661l0.416,-0.662l0.417,-0.66l0.419,-0.66l0.42,-0.66l0.422,-0.659l0.423,-0.659l0.425,-0.658l0.426,-0.657l0.428,-0.657l0.429,-0.657l0.43,-0.656l0.432,-0.655l0.434,-0.655l0.435,-0.655l0.437,-0.653l0.438,-0.654l0.439,-0.652l0.442,-0.652l0.442,-0.652l0.445,-0.651l0.446,-0.65l0.447,-0.65l0.449,-0.65l0.451,-0.648l0.452,-0.648l0.454,-0.648l0.455,-0.647l0.457,-0.646l0.459,-0.646l0.46,-0.645l0.462,-0.645l0.464,-0.644l0.465,-0.643l0.467,-0.643l0.469,-0.642l0.47,-0.641l0.472,-0.641l0.474,-0.641l0.475,-0.639l0.477,-0.639l0.479,-0.639l0.481,-0.637l0.482,-0.638l0.484,-0.636l0.486,-0.636l0.487,-0.635l0.49,-0.634l0.491,-0.634l0.493,-0.633l0.494,-0.633l0.497,-0.632l0.498,-0.631l0.5,-0.631l0.502,-0.629l0.504,-0.63l0.505,-0.628l0.508,-0.628l0.509,-0.627l0.511,-0.626l0.513,-0.626l0.515,-0.625l0.517,-0.624l0.519,-0.624l0.52,-0.623l0.523,-0.622l0.524,-0.621l0.526,-0.621l0.528,-0.62l0.531,-0.62l0.532,-0.618l0.534,-0.618l0.536,-0.617l0.538,-0.616l0.54,-0.616l0.541,-0.615l0.544,-0.614l0.546,-0.613l0.548,-0.613l0.55,-0.612l0.552,-0.611l0.554,-0.61l0.556,-0.61l0.558,-0.608l0.56,-0.608l0.562,-0.608l0.564,-0.606l0.567,-0.606l0.568,-0.605l0.57,-0.604l0.573,-0.603l0.575,-0.602l0.576,-0.602l0.579,-0.601l0.581,-0.6l0.583,-0.599l0.586,-0.599l0.587,-0.597l0.589,-0.597l0.592,-0.596l0.594,-0.595l0.596,-0.594l0.598,-0.594l0.601,-0.592l0.602,-0.592l0.605,-0.591l0.607,-0.59l0.61,-0.589l0.611,-0.589l0.614,-0.587l0.616,-0.587l0.618,-0.586l0.621,-0.585l0.622,-0.584l0.625,-0.583l0.628,-0.582l0.629,-0.581l0.632,-0.581l0.634,-0.58l0.637,-0.578l0.639,-0.578l0.641,-0.577l0.643,-0.576l0.646,-0.575l0.648,-0.575l0.651,-0.573l0.653,-0.572l0.655,-0.572l0.658,-0.57l0.66,-0.57l0.662,-0.569l0.665,-0.567l0.667,-0.567l0.67,-0.566l0.672,-0.565l0.675,-0.564l0.676,-0.563l0.68,-0.562l0.682,-0.562l0.684,-0.56l0.687,-0.559l0.689,-0.558l0.692,-0.558l0.694,-0.556l0.697,-0.556l0.699,-0.554l0.702,-0.553l0.704,-0.553l0.706,-0.551l0.71,-0.551l0.712,-0.549l0.714,-0.549l0.717,-0.547l0.719,-0.547l0.723,-0.545l0.724,-0.545l0.727,-0.543l0.73,-0.543l0.733,-0.541l0.735,-0.541l0.737,-0.539l0.741,-0.538l0.742,-0.538l0.746,-0.536l0.748,-0.535l0.747,-0.531l0.504,-0.309l0.542,-0.237l0.569,-0.159l0.586,-0.081l0.591,0.002Zm-1.046,4.808l-0.739,0.529l-0.737,0.53l-0.734,0.531l-0.731,0.532l-0.729,0.532l-0.726,0.534l-0.723,0.535l-0.721,0.536l-0.718,0.537l-0.716,0.537l-0.713,0.539l-0.711,0.54l-0.708,0.541l-0.705,0.541l-0.703,0.543l-0.701,0.544l-0.698,0.544l-0.695,0.546l-0.693,0.546l-0.691,0.548l-0.688,0.548l-0.685,0.55l-0.683,0.55l-0.681,0.551l-0.678,0.552l-0.675,0.554l-0.674,0.554l-0.67,0.555l-0.669,0.556l-0.666,0.556l-0.663,0.558l-0.661,0.559l-0.659,0.56l-0.656,0.56l-0.654,0.562l-0.652,0.562l-0.649,0.563l-0.647,0.564l-0.645,0.566l-0.642,0.565l-0.64,0.567l-0.637,0.568l-0.635,0.569l-0.633,0.569l-0.631,0.571l-0.628,0.571l-0.626,0.572l-0.624,0.573l-0.622,0.574l-0.619,0.575l-0.617,0.576l-0.615,0.576l-0.612,0.577l-0.61,0.579l-0.608,0.579l-0.606,0.58l-0.604,0.58l-0.601,0.582l-0.599,0.583l-0.598,0.583l-0.594,0.584l-0.593,0.585l-0.591,0.586l-0.588,0.586l-0.586,0.588l-0.584,0.588l-0.582,0.589l-0.58,0.59l-0.578,0.591l-0.575,0.591l-0.574,0.593l-0.571,0.593l-0.57,0.594l-0.567,0.594l-0.565,0.596l-0.563,0.596l-0.561,0.597l-0.559,0.598l-0.557,0.599l-0.555,0.599l-0.553,0.6l-0.551,0.601l-0.549,0.602l-0.547,0.603l-0.545,0.603l-0.542,0.604l-0.541,0.605l-0.539,0.605l-0.537,0.607l-0.535,0.607l-0.534,0.608l-0.531,0.608l-0.529,0.609l-0.527,0.611l-0.526,0.61l-0.523,0.612l-0.522,0.612l-0.519,0.613l-0.518,0.614l-0.516,0.614l-0.514,0.615l-0.512,0.616l-0.511,0.617l-0.508,0.617l-0.507,0.618l-0.505,0.618l-0.503,0.62l-0.501,0.62l-0.499,0.621l-0.498,0.621l-0.495,0.622l-0.494,0.623l-0.493,0.623l-0.49,0.625l-0.489,0.625l-0.487,0.625l-0.485,0.626l-0.483,0.627l-0.482,0.628l-0.48,0.628l-0.478,0.629l-0.477,0.629l-0.475,0.63l-0.473,0.631l-0.471,0.632l-0.47,0.632l-0.468,0.632l-0.467,0.634l-0.464,0.634l-0.464,0.634l-0.461,0.636l-0.46,0.636l-0.458,0.636l-0.457,0.637l-0.455,0.638l-0.453,0.638l-0.452,0.639l-0.45,0.64l-0.449,0.64l-0.447,0.641l-0.446,0.641l-0.444,0.642l-0.442,0.643l-0.441,0.643l-0.439,0.644l-0.438,0.644l-0.437,0.645l-0.434,0.645l-0.434,0.647l-0.432,0.646l-0.43,0.647l-0.429,0.648l-0.427,0.649l-0.426,0.648l-0.425,0.65l-0.423,0.65l-0.421,0.651l-0.42,0.651l-0.419,0.651l-0.417,0.653l-0.416,0.652l-0.415,0.654l-0.413,0.653l-0.412,0.655l-0.41,0.655l-0.409,0.655l-0.407,0.656l-0.407,0.656l-0.405,0.657l-0.403,0.658l-0.402,0.658l-0.401,0.658l-0.4,0.659l-0.398,0.66l-0.397,0.66l-0.396,0.66l-0.394,0.661l-0.393,0.662l-0.392,0.662l-0.391,0.662l-0.389,0.663l-0.388,0.664l-0.387,0.664l-0.386,0.664l-0.384,0.665l-0.383,0.665l-0.382,0.666l-0.381,0.666l-0.38,0.667l-0.378,0.667l-0.377,0.668l-0.376,0.668l-0.375,0.668l-0.374,0.669l-0.372,0.669l-0.372,0.67l-0.37,0.67l-0.369,0.671l-0.368,0.671l-0.367,0.672l-0.366,0.672l-0.365,0.672l-0.364,0.673l-0.362,0.673l-0.362,0.674l-0.36,0.674l-0.36,0.674l-0.358,0.675l-0.357,0.675l-0.357,0.676l-0.355,0.676l-0.354,0.676l-0.353,0.677l-0.352,0.677l-0.352,0.678l-0.35,0.678l-0.349,0.678l-0.349,0.679l-0.347,0.679l-0.346,0.679l-0.346,0.68l-0.344,0.68l-0.344,0.68l-0.342,0.681l-0.342,0.682l-0.341,0.681l-0.34,0.682l-0.339,0.682l-0.338,0.683l-0.337,0.683l-0.337,0.683l-0.335,0.684l-0.335,0.683l-0.334,0.685l-0.333,0.684l-0.332,0.685l-0.331,0.685l-0.33,0.686l-0.33,0.686l-0.329,0.686l-0.328,0.686l-0.327,0.687l-0.327,0.687l-0.326,0.687l-0.325,0.688l-0.324,0.688l-0.323,0.688l-0.323,0.688l-0.322,0.689l-0.322,0.689l-0.32,0.69l-0.32,0.689l-0.319,0.69l-0.636,1.38l-29.656,-59.31l-59.344,43.31l0.753,0.38l0.752,0.383l0.752,0.385l0.751,0.388l0.751,0.39l0.75,0.393l0.75,0.396l0.749,0.398l0.748,0.402l0.748,0.404l0.747,0.407l0.747,0.41l0.746,0.412l0.745,0.416l0.745,0.418l0.744,0.422l0.743,0.424l0.743,0.427l0.742,0.431l0.741,0.433l0.741,0.436l0.37,0.22l0.37,0.22l0.37,0.221l0.37,0.221l0.369,0.223l0.369,0.223l0.369,0.224l0.369,0.225l0.369,0.226l0.369,0.226l0.368,0.227l0.368,0.229l0.368,0.228l0.368,0.23l0.368,0.231l0.368,0.231l0.367,0.232l0.367,0.233l0.367,0.234l0.367,0.234l0.366,0.236l0.367,0.236l0.366,0.237l0.366,0.238l0.366,0.239l0.366,0.239l0.365,0.241l0.366,0.241l0.365,0.242l0.365,0.243l0.365,0.244l0.364,0.245l0.365,0.246l0.364,0.246l0.364,0.248l0.364,0.248l0.363,0.249l0.364,0.25l0.363,0.251l0.363,0.252l0.363,0.252l0.363,0.254l0.362,0.254l0.363,0.256l0.362,0.256l0.362,0.257l0.361,0.258l0.362,0.259l0.361,0.26l0.361,0.261l0.361,0.262l0.361,0.263l0.36,0.263l0.361,0.265l0.36,0.265l0.36,0.267l0.359,0.267l0.36,0.268l0.359,0.27l0.359,0.27l0.359,0.271l0.359,0.272l0.358,0.273l0.358,0.274l0.358,0.275l0.358,0.276l0.358,0.277l0.357,0.278l0.357,0.279l0.357,0.28l0.357,0.28l0.357,0.282l0.356,0.283l0.356,0.284l0.356,0.285l0.355,0.285l0.356,0.287l0.355,0.288l0.355,0.289l0.355,0.29l0.355,0.29l0.354,0.292l0.354,0.293l0.354,0.294l0.354,0.295l0.353,0.296l0.353,0.297l0.353,0.298l0.353,0.299l0.353,0.3l0.352,0.301l0.352,0.302l0.352,0.303l0.352,0.305l0.351,0.305l0.351,0.306l0.351,0.308l0.351,0.308l0.351,0.31l0.35,0.31l0.35,0.312l0.35,0.313l0.349,0.314l0.35,0.315l0.349,0.316l0.349,0.317l0.348,0.318l0.349,0.319l0.348,0.321l0.348,0.321l0.347,0.323l0.348,0.324l0.347,0.324l0.347,0.326l0.347,0.327l0.346,0.328l0.346,0.33l0.346,0.33l0.346,0.332l0.345,0.332l0.346,0.334l0.345,0.335l0.344,0.336l0.345,0.337l0.344,0.339l0.344,0.339l0.344,0.341l0.343,0.342l0.343,0.343l0.343,0.344l0.343,0.345l0.343,0.346l0.342,0.348l0.342,0.349l0.342,0.35l0.341,0.351l0.341,0.352l0.341,0.354l0.341,0.355l0.34,0.355l0.34,0.358l0.34,0.358l0.34,0.359l0.339,0.361l0.339,0.362l0.339,0.363l0.339,0.364l0.338,0.366l0.338,0.367l0.338,0.368l0.338,0.369l0.337,0.37l0.337,0.372l0.337,0.373l0.336,0.374l0.336,0.375l0.336,0.377l0.336,0.378l0.335,0.379l0.335,0.38l0.335,0.382l0.335,0.382l0.334,0.385l0.334,0.385l0.334,0.387l0.333,0.387l0.333,0.39l0.333,0.39l0.333,0.392l0.332,0.393l0.332,0.394l0.332,0.396l0.332,0.397l0.331,0.398l0.331,0.399l0.33,0.401l0.331,0.402l0.33,0.403l0.33,0.405l0.329,0.406l0.329,0.407l0.329,0.409l0.329,0.41l0.328,0.411l0.329,0.413l0.327,0.414l0.328,0.415l0.327,0.417l0.327,0.418l0.327,0.419l0.326,0.42l0.326,0.422l0.326,0.424l0.325,0.424l0.325,0.426l0.325,0.428l0.325,0.428l0.324,0.431l0.324,0.431l0.324,0.433l0.323,0.434l0.323,0.436l0.323,0.437l0.323,0.438l0.322,0.44l0.322,0.441l0.321,0.443l0.321,0.443l0.321,0.446l0.321,0.446l0.32,0.449l0.32,0.449l0.32,0.451l0.32,0.452l0.924,-1.362l0.925,-1.359l0.463,-0.678l0.463,-0.676l0.463,-0.676l0.464,-0.674l0.463,-0.674l0.464,-0.672l0.464,-0.671l0.464,-0.67l0.464,-0.669l0.464,-0.668l0.465,-0.666l0.465,-0.666l0.464,-0.665l0.466,-0.663l0.465,-0.662l0.465,-0.661l0.466,-0.66l0.465,-0.659l0.466,-0.658l0.466,-0.656l0.467,-0.656l0.466,-0.654l0.467,-0.653l0.467,-0.652l0.467,-0.651l0.467,-0.649l0.467,-0.649l0.468,-0.647l0.467,-0.646l0.468,-0.645l0.468,-0.644l0.468,-0.643l0.469,-0.641l0.468,-0.64l0.469,-0.639l0.469,-0.638l0.469,-0.637l0.47,-0.635l0.469,-0.635l0.47,-0.633l0.47,-0.632l0.47,-0.63l0.47,-0.63l0.47,-0.628l0.471,-0.627l0.471,-0.626l0.471,-0.624l0.471,-0.624l0.471,-0.622l0.472,-0.621l0.472,-0.619l0.471,-0.619l0.473,-0.617l0.472,-0.616l0.472,-0.614l0.473,-0.614l0.473,-0.612l0.473,-0.611l0.473,-0.609l0.474,-0.609l0.474,-0.607l0.473,-0.606l0.474,-0.604l0.475,-0.604l0.474,-0.602l0.475,-0.6l0.475,-0.6l0.475,-0.598l0.475,-0.597l0.475,-0.595l0.476,-0.594l0.476,-0.593l0.476,-0.592l0.476,-0.59l0.477,-0.589l0.476,-0.588l0.477,-0.586l0.477,-0.585l0.477,-0.584l0.478,-0.583l0.477,-0.581l0.478,-0.579l0.478,-0.579l0.479,-0.577l0.478,-0.576l0.479,-0.574l0.479,-0.573l0.479,-0.572l0.479,-0.57l0.48,-0.569l0.479,-0.568l0.48,-0.566l0.48,-0.565l0.481,-0.563l0.48,-0.562l0.481,-0.561l0.481,-0.559l0.481,-0.558l0.482,-0.557l0.481,-0.555l0.482,-0.554l0.482,-0.552l0.482,-0.551l0.483,-0.55l0.482,-0.548l0.483,-0.547l0.483,-0.546l0.484,-0.544l0.483,-0.542l0.484,-0.541l0.484,-0.54l0.484,-0.538l0.485,-0.537l0.484,-0.536l0.485,-0.534l0.485,-0.532l0.486,-0.531l0.485,-0.53l0.486,-0.528l0.486,-0.527l0.486,-0.525l0.487,-0.524l0.486,-0.522l0.487,-0.521l0.487,-0.52l0.488,-0.518l0.487,-0.516l0.488,-0.515l0.488,-0.514l0.488,-0.512l0.488,-0.511l0.489,-0.509l0.489,-0.507l0.489,-0.507l0.49,-0.504l0.489,-0.503l0.49,-0.502l0.49,-0.5l0.49,-0.499l0.491,-0.497l0.491,-0.495l0.491,-0.494l0.491,-0.493l0.491,-0.491l0.492,-0.489l0.492,-0.488l0.492,-0.487l0.492,-0.485l0.493,-0.483l0.493,-0.482l0.493,-0.48l0.493,-0.479l0.494,-0.477l0.494,-0.475l0.494,-0.474l0.494,-0.473l0.495,-0.471l0.495,-0.469l0.495,-0.468l0.495,-0.466l0.495,-0.464l0.496,-0.463l0.496,-0.462l0.496,-0.46l0.497,-0.458l0.496,-0.457l0.497,-0.455l0.498,-0.453l0.497,-0.452l0.498,-0.45l0.498,-0.449l0.498,-0.447l0.498,-0.445l0.499,-0.444l0.499,-0.442l0.499,-0.441l0.5,-0.438l0.499,-0.438l0.5,-0.435l0.5,-0.434l0.501,-0.433l0.501,-0.43l0.501,-0.43l0.501,-0.427l0.501,-0.426l0.502,-0.424l0.502,-0.422l0.502,-0.421l0.503,-0.419l0.502,-0.418l0.503,-0.415l0.504,-0.414l0.503,-0.413l0.504,-0.411l0.504,-0.409l0.504,-0.407l0.505,-0.406l0.504,-0.404l0.505,-0.402l0.506,-0.401l0.505,-0.398l0.506,-0.398l0.506,-0.395l0.507,-0.394l0.506,-0.392l0.507,-0.39l0.507,-0.389l0.508,-0.387l0.507,-0.385l0.508,-0.383l0.508,-0.382l0.509,-0.38l0.509,-0.378l0.509,-0.377l0.509,-0.374l0.509,-0.373l0.51,-0.371l0.51,-0.37l0.511,-0.368l0.51,-0.366l0.511,-0.364l0.511,-0.362l0.512,-0.361l0.512,-0.359l0.512,-0.357l0.512,-0.355l0.512,-0.353l0.513,-0.352l0.513,-0.35l0.514,-0.348l0.513,-0.347l0.514,-0.344l0.514,-0.343l0.515,-0.341l0.514,-0.339l0.515,-0.337l0.516,-0.336l0.515,-0.334l0.516,-0.331l0.516,-0.33l0.517,-0.329l0.516,-0.326l0.517,-0.325l0.517,-0.322l0.518,-0.321l0.518,-0.319l0.518,-0.317l0.518,-0.316l0.519,-0.313l0.519,-0.312l0.519,-0.31l0.52,-0.308l-0.147,-0.338l-0.145,-0.339l-0.144,-0.339l-0.143,-0.339l-0.141,-0.339l-0.14,-0.34l-0.138,-0.339l-0.138,-0.34l-0.136,-0.34l-0.134,-0.34l-0.134,-0.34l-0.132,-0.341l-0.13,-0.34l-0.13,-0.341l-0.128,-0.341l-0.127,-0.341l-0.125,-0.341l-0.125,-0.341l-0.123,-0.341l-0.121,-0.342l-0.121,-0.342l-0.119,-0.342l-0.118,-0.342l-0.116,-0.342l-0.115,-0.342l-0.114,-0.343l-0.113,-0.342l-0.112,-0.343l-0.11,-0.343l-0.109,-0.343l-0.107,-0.343l-0.107,-0.344l-0.105,-0.343l-0.104,-0.344l-0.103,-0.344l-0.101,-0.344l-0.1,-0.344l-0.099,-0.344l-0.098,-0.344l-0.096,-0.345l-0.096,-0.345l-0.094,-0.344l-0.092,-0.345l-0.092,-0.346l-0.09,-0.345l-0.089,-0.345l-0.088,-0.346l-0.087,-0.346l-0.085,-0.345l-0.085,-0.346l-0.083,-0.347l-0.081,-0.346l-0.081,-0.346l-0.079,-0.347l-0.079,-0.347l-0.077,-0.346l-0.075,-0.347l-0.075,-0.348l-0.074,-0.347l-0.072,-0.347l-0.071,-0.348l-0.07,-0.347l-0.068,-0.348l-0.068,-0.348l-0.066,-0.348l-0.066,-0.349l-0.064,-0.348l-0.062,-0.348l-0.062,-0.349l-0.061,-0.349l-0.059,-0.349l-0.058,-0.349l-0.057,-0.349l-0.056,-0.349l-0.055,-0.35l-0.054,-0.349l-0.052,-0.35l-0.051,-0.35l-0.051,-0.35l-0.049,-0.35l-0.048,-0.351l-0.047,-0.35l-0.045,-0.35l-0.045,-0.351l-0.043,-0.351l-0.042,-0.351l-0.042,-0.351l-0.04,-0.351l-0.039,-0.352l-0.038,-0.351l-0.036,-0.352l-0.036,-0.351l-0.034,-0.352l-0.034,-0.352l-0.032,-0.352l-0.031,-0.353l-0.031,-0.352l-0.029,-0.352l-0.028,-0.353l-0.026,-0.353l-0.026,-0.353l-0.025,-0.353l-0.024,-0.353l-0.022,-0.353l-0.022,-0.353l-0.02,-0.354l-0.019,-0.354l-0.019,-0.353l-0.017,-0.354l-0.016,-0.354l-0.015,-0.354l-0.014,-0.355l-0.013,-0.354l-0.012,-0.355l-0.011,-0.354l-0.01,-0.355l-0.009,-0.355l-0.008,-0.355l-0.006,-0.355l-0.006,-0.355l-0.005,-0.356l-0.003,-0.355l-0.003,-0.356l-0.002,-0.356l0,-0.355l0,-0.356l0.002,-0.357l0.002,-0.356l0.004,-0.356l0.004,-0.357l0.006,-0.356l0.006,-0.357l0.008,-0.357l0.008,-0.357l0.01,-0.357l0.01,-0.357l0.012,-0.357l0.012,-0.358l0.014,-0.357l0.014,-0.358l0.016,-0.357l0.016,-0.358l0.017,-0.358l0.019,-0.358l0.019,-0.359l0.02,-0.358l0.022,-0.358l0.022,-0.359l0.023,-0.359l0.024,-0.358l0.025,-0.359l0.026,-0.359l0.027,-0.359l0.028,-0.36l0.029,-0.359l0.03,-0.359l0.031,-0.36l0.032,-0.36l0.032,-0.359l0.034,-0.36l0.035,-0.36l0.035,-0.36l0.036,-0.361l0.038,-0.36l0.038,-0.36l0.039,-0.361l0.04,-0.361l0.041,-0.36l0.042,-0.361l0.043,-0.361l0.044,-0.361l0.044,-0.361l0.046,-0.362l0.046,-0.361l0.048,-0.362l0.048,-0.361l0.049,-0.362l0.05,-0.362l0.051,-0.362l0.051,-0.362l0.053,-0.362l0.054,-0.362l0.054,-0.363l0.055,-0.362l0.056,-0.363l0.057,-0.362l0.058,-0.363l0.059,-0.363l0.06,-0.363l0.06,-0.363l0.061,-0.363l0.063,-0.363l0.063,-0.364l0.063,-0.363l0.065,-0.364l0.066,-0.363l0.066,-0.364l0.067,-0.364l0.068,-0.364l0.069,-0.364l0.07,-0.364l0.071,-0.364l0.071,-0.365l0.072,-0.364l0.073,-0.365l0.074,-0.364l0.075,-0.365l0.075,-0.365l0.076,-0.365l0.077,-0.365l0.078,-0.365l0.079,-0.365l0.079,-0.365l0.081,-0.366l0.081,-0.365l0.082,-0.366l0.166,-0.731l0.169,-0.732l0.172,-0.732l0.176,-0.733l0.179,-0.733l0.181,-0.733l0.185,-0.734l0.187,-0.734l0.191,-0.734l0.194,-0.735l0.196,-0.735l0.2,-0.735l0.202,-0.736l0.206,-0.736l0.208,-0.736l0.211,-0.737l0.214,-0.737l0.217,-0.738l0.219,-0.737l0.223,-0.739l-0.742,0.528Z" style="fill:#1a446e;"/><path d="M116.5,286.883c39.433,-58.243 80.656,-104.805 125,-131c-12.563,-28.891 -10.544,-59.502 -1,-91c-63.41,44.995 -97.911,101.076 -125,160l-29.655,-59.311l-59.345,43.311c32.143,16.151 62.755,39.337 90,78Z" style="fill:url(#_Linear5);stroke:#fff;stroke-width:5.21px;"/><g transform="matrix(0.883394,0,0,0.883394,-159.602,-44.3397)"><path d="M730.231,179.97c0,-1.803 -0.712,-3.215 -2.136,-4.236c-1.424,-1.02 -3.393,-1.531 -5.909,-1.531c-2.611,0 -4.64,0.416 -6.088,1.246c-1.447,0.831 -2.171,1.935 -2.171,3.311c0,1.187 0.451,2.172 1.353,2.955c0.901,0.783 2.052,1.412 3.453,1.887c1.4,0.474 3.31,0.996 5.731,1.566c3.56,0.854 6.491,1.732 8.793,2.634c2.302,0.902 4.272,2.302 5.91,4.201c1.637,1.899 2.456,4.438 2.456,7.618c0,5.554 -1.792,9.624 -5.375,12.211c-3.584,2.587 -8.509,3.88 -14.774,3.88c-5.696,0 -10.407,-1.246 -14.133,-3.738c-3.726,-2.492 -5.589,-6.277 -5.589,-11.356l0.071,-1.566l10.395,0l-0.071,1.139c0,2.088 0.783,3.738 2.349,4.948c1.567,1.21 3.774,1.816 6.622,1.816c3.322,0 5.708,-0.523 7.155,-1.567c1.448,-1.044 2.172,-2.373 2.172,-3.987c0,-1.234 -0.439,-2.243 -1.317,-3.026c-0.878,-0.783 -1.994,-1.4 -3.347,-1.851c-1.352,-0.451 -3.239,-0.961 -5.66,-1.531c-3.607,-0.902 -6.55,-1.803 -8.829,-2.705c-2.278,-0.902 -4.248,-2.35 -5.909,-4.343c-1.661,-1.994 -2.492,-4.676 -2.492,-8.046c0,-3.133 0.854,-5.791 2.563,-7.974c1.709,-2.183 3.999,-3.809 6.871,-4.877c2.872,-1.068 6.087,-1.602 9.647,-1.602c5.459,0 9.921,1.198 13.386,3.595c3.465,2.397 5.197,5.969 5.197,10.716l0,0.854l-10.324,0l0,-0.641Z" style="fill:#0a7627;fill-rule:nonzero;"/><path d="M749.17,187.233l0,-23.496l10.395,0l0,18.227l5.055,-2.563l0,6.265l-5.055,2.492l0,26.842l-10.395,0l0,-21.573l-4.984,2.492l0,-6.194l4.984,-2.492Z" style="fill:#0a7627;fill-rule:nonzero;"/><path d="M802.142,206.456c0,0.712 0.213,1.246 0.64,1.602c0.428,0.356 0.902,0.534 1.424,0.534c0.475,0 0.997,-0.095 1.567,-0.285c0.569,-0.19 1.02,-0.356 1.352,-0.498l0,6.408c-1.756,0.997 -3.844,1.495 -6.265,1.495c-4.747,0 -7.5,-1.733 -8.259,-5.197c-2.99,3.464 -6.645,5.197 -10.965,5.197c-3.702,0 -6.751,-0.997 -9.149,-2.99c-2.397,-1.994 -3.595,-4.889 -3.595,-8.687l0,-25.417l10.395,0l0,23.139c0,1.851 0.534,3.382 1.602,4.592c1.068,1.211 2.433,1.816 4.094,1.816c1.851,0 3.441,-0.7 4.77,-2.1c1.329,-1.401 1.994,-3.098 1.994,-5.091l0,-22.356l10.395,0l0,27.838Z" style="fill:#0a7627;fill-rule:nonzero;"/><path d="M821.508,200.262c0,2.373 0.617,4.355 1.851,5.945c1.234,1.59 2.895,2.385 4.984,2.385c2.183,0 3.904,-0.676 5.161,-2.029c1.258,-1.353 1.887,-3.358 1.887,-6.016l9.826,0c0,3.37 -0.724,6.194 -2.172,8.472c-1.448,2.279 -3.358,3.964 -5.731,5.055c-2.374,1.092 -4.984,1.638 -7.832,1.638l-1.139,0c-5.317,0 -9.541,-1.578 -12.674,-4.735c-3.132,-3.156 -4.699,-7.535 -4.699,-13.136l0,-2.065c0,-3.702 0.748,-6.894 2.243,-9.576c1.495,-2.682 3.548,-4.734 6.159,-6.158c2.61,-1.424 5.601,-2.136 8.971,-2.136l1.139,0c2.8,0 5.399,0.605 7.796,1.815c2.397,1.211 4.319,2.967 5.767,5.269c1.448,2.302 2.172,5.019 2.172,8.152l-10.324,0c0,-2.468 -0.546,-4.438 -1.638,-5.909c-1.091,-1.472 -2.705,-2.208 -4.841,-2.208c-2.136,0 -3.821,0.843 -5.055,2.528c-1.234,1.685 -1.851,3.809 -1.851,6.372l0,6.337Z" style="fill:#0a7627;fill-rule:nonzero;"/><path d="M863.372,182.178c2.753,-2.848 6.123,-4.272 10.11,-4.272c3.703,0 6.752,0.996 9.149,2.99c2.397,1.994 3.596,4.889 3.596,8.686l0,25.418l-10.395,0l0,-23.139c0,-1.852 -0.534,-3.382 -1.602,-4.593c-1.068,-1.21 -2.433,-1.815 -4.094,-1.815c-1.851,0 -3.441,0.7 -4.77,2.1c-1.329,1.4 -1.994,3.097 -1.994,5.091l0,22.356l-10.395,0l0,-51.263l10.395,0l0,18.441Z" style="fill:#0a7627;fill-rule:nonzero;"/><path d="M917.839,190.437c0,-1.614 -0.51,-2.92 -1.531,-3.916c-1.02,-0.997 -2.67,-1.496 -4.948,-1.496c-1.329,0 -2.468,0.226 -3.418,0.677c-0.949,0.451 -1.673,1.009 -2.171,1.673c-0.499,0.665 -0.748,1.282 -0.748,1.851l0,0.57l-10.039,0c-0.095,-0.57 -0.142,-0.997 -0.142,-1.282c0,-2.041 0.676,-3.868 2.029,-5.482c1.353,-1.614 3.24,-2.872 5.66,-3.774c2.421,-0.901 5.198,-1.352 8.331,-1.352l1.495,0c5.126,0 9.018,1.008 11.676,3.026c2.658,2.017 3.987,4.782 3.987,8.294l0,16.803c0,0.854 0.202,1.495 0.606,1.922c0.403,0.428 0.889,0.641 1.459,0.641c0.475,0 0.997,-0.095 1.566,-0.285c0.57,-0.19 1.021,-0.356 1.353,-0.498l0,6.408c-1.756,0.997 -3.845,1.495 -6.265,1.495c-2.611,0 -4.604,-0.534 -5.981,-1.602c-1.376,-1.068 -2.183,-2.575 -2.421,-4.521c-3.322,4.082 -7.404,6.123 -12.246,6.123c-3.607,0 -6.574,-0.736 -8.9,-2.207c-2.325,-1.472 -3.488,-4.272 -3.488,-8.402c0,-3.37 0.961,-5.945 2.883,-7.725c1.923,-1.78 4.593,-2.978 8.01,-3.595c3.418,-0.617 7.832,-0.926 13.243,-0.926l0,-2.42Zm0,8.259c-4.509,0 -7.867,0.439 -10.075,1.317c-2.207,0.878 -3.31,2.314 -3.31,4.307c0,1.567 0.439,2.67 1.317,3.311c0.878,0.641 2.219,0.961 4.023,0.961c1.234,0 2.468,-0.332 3.702,-0.997c1.234,-0.664 2.266,-1.613 3.097,-2.848c0.831,-1.234 1.246,-2.61 1.246,-4.129l0,-1.922Z" style="fill:#0a7627;fill-rule:nonzero;"/><path d="M957.781,177.906c2.326,0 4.415,0.498 6.266,1.495c1.851,0.997 3.275,2.444 4.272,4.343c2.468,-3.892 6.004,-5.838 10.608,-5.838c3.418,0 6.254,1.032 8.508,3.097c2.255,2.065 3.382,4.924 3.382,8.579l0,25.418l-10.395,0l0,-23.353c0,-1.994 -0.427,-3.524 -1.281,-4.592c-0.855,-1.068 -2.041,-1.602 -3.56,-1.602c-1.661,0 -3.062,0.664 -4.201,1.993c-1.139,1.329 -1.709,2.991 -1.709,4.984l0,22.57l-10.395,0l0,-23.353c0,-1.946 -0.439,-3.465 -1.317,-4.557c-0.878,-1.091 -2.076,-1.637 -3.595,-1.637c-1.662,0 -3.05,0.664 -4.165,1.993c-1.116,1.329 -1.674,2.991 -1.674,4.984l0,22.57l-10.395,0l0,-36.382l7.832,0c0.285,1.186 0.665,2.966 1.139,5.34c1.282,-2.042 2.837,-3.56 4.664,-4.557c1.827,-0.997 3.833,-1.495 6.016,-1.495Z" style="fill:#0a7627;fill-rule:nonzero;"/><path d="M583.705,275.091c0,1.662 0.736,2.86 2.207,3.596c1.472,0.736 3.299,1.104 5.482,1.104c1.899,0 3.596,-0.285 5.091,-0.855c1.495,-0.569 2.243,-1.471 2.243,-2.705c0,-1.329 -0.688,-2.279 -2.065,-2.848c-1.376,-0.57 -3.512,-1.068 -6.408,-1.496c-3.038,-0.522 -5.529,-1.091 -7.476,-1.708c-1.946,-0.617 -3.619,-1.685 -5.019,-3.204c-1.4,-1.519 -2.1,-3.631 -2.1,-6.337c0,-2.468 0.723,-4.568 2.171,-6.301c1.448,-1.732 3.37,-3.038 5.767,-3.916c2.397,-0.878 5.02,-1.317 7.868,-1.317l1.424,0c2.515,0 4.9,0.415 7.155,1.246c2.255,0.831 4.07,1.994 5.447,3.489c1.376,1.495 2.064,3.192 2.064,5.09c0,0.38 -0.023,0.724 -0.071,1.033c-0.047,0.308 -0.071,0.486 -0.071,0.534l-9.113,0c0,-2.848 -2.184,-4.272 -6.551,-4.272c-1.993,0 -3.595,0.285 -4.805,0.854c-1.211,0.57 -1.816,1.353 -1.816,2.35c0,1.186 0.653,2.017 1.958,2.492c1.305,0.474 3.358,0.925 6.159,1.352c3.18,0.523 5.755,1.08 7.725,1.674c1.969,0.593 3.69,1.661 5.162,3.204c1.471,1.542 2.207,3.714 2.207,6.514c0,4.32 -1.519,7.44 -4.557,9.363c-3.038,1.922 -6.906,2.883 -11.605,2.883l-2.35,0c-2.943,0 -5.577,-0.451 -7.903,-1.352c-2.326,-0.902 -4.141,-2.184 -5.447,-3.845c-1.305,-1.661 -1.958,-3.56 -1.958,-5.696l0.072,-1.424l9.113,0l0,0.498Z" style="fill:#0a7627;fill-rule:nonzero;"/><path d="M639.809,265.907c-2.563,9.018 -4.509,15.782 -5.838,20.291l-11.605,0l-11.107,-36.382l10.751,0l6.265,22.499l0.427,0c1.235,-4.367 2.184,-7.642 2.848,-9.826l3.631,-12.673l10.395,0l6.337,22.499l0.427,0c2.848,-9.968 4.96,-17.468 6.337,-22.499l10.11,0l-11.107,36.382l-11.463,0l-5.98,-20.291l-0.428,0Z" style="fill:#0a7627;fill-rule:nonzero;"/><path d="M709.014,269.04c0,3.654 -0.771,6.835 -2.314,9.54c-1.542,2.706 -3.667,4.77 -6.372,6.194c-2.706,1.424 -5.743,2.136 -9.113,2.136l-1.14,0c-3.37,0 -6.407,-0.712 -9.113,-2.136c-2.706,-1.424 -4.83,-3.488 -6.372,-6.194c-1.543,-2.705 -2.314,-5.886 -2.314,-9.54l0,-2.065c0,-3.655 0.771,-6.835 2.314,-9.541c1.542,-2.705 3.666,-4.77 6.372,-6.194c2.706,-1.424 5.743,-2.136 9.113,-2.136l1.14,0c3.37,0 6.407,0.712 9.113,2.136c2.705,1.424 4.83,3.489 6.372,6.194c1.543,2.706 2.314,5.886 2.314,9.541l0,2.065Zm-10.537,-3.916c0,-2.896 -0.724,-5.103 -2.172,-6.622c-1.447,-1.519 -3.334,-2.278 -5.66,-2.278c-2.326,0 -4.213,0.759 -5.66,2.278c-1.448,1.519 -2.172,3.726 -2.172,6.622l0,5.767c0,2.895 0.724,5.102 2.172,6.621c1.447,1.519 3.334,2.279 5.66,2.279c2.326,0 4.213,-0.76 5.66,-2.279c1.448,-1.519 2.172,-3.726 2.172,-6.621l0,-5.767Z" style="fill:#0a7627;fill-rule:nonzero;"/><path d="M716.704,234.936l10.537,0l0,8.187l-10.537,0l0,-8.187Zm0.071,51.262l0,-36.382l10.395,0l0,36.382l-10.395,0Z" style="fill:#0a7627;fill-rule:nonzero;"/><path d="M745.468,271.46c0,2.374 0.617,4.355 1.851,5.945c1.234,1.59 2.895,2.386 4.984,2.386c2.183,0 3.904,-0.677 5.162,-2.03c1.257,-1.352 1.886,-3.358 1.886,-6.016l9.826,0c0,3.37 -0.724,6.194 -2.172,8.473c-1.447,2.278 -3.358,3.963 -5.731,5.055c-2.374,1.091 -4.984,1.637 -7.832,1.637l-1.139,0c-5.316,0 -9.541,-1.578 -12.674,-4.734c-3.132,-3.157 -4.699,-7.536 -4.699,-13.136l0,-2.065c0,-3.703 0.748,-6.895 2.243,-9.576c1.495,-2.682 3.548,-4.735 6.159,-6.159c2.61,-1.424 5.601,-2.136 8.971,-2.136l1.139,0c2.8,0 5.399,0.605 7.796,1.816c2.397,1.21 4.32,2.966 5.767,5.268c1.448,2.302 2.172,5.02 2.172,8.152l-10.324,0c0,-2.468 -0.546,-4.438 -1.638,-5.909c-1.091,-1.471 -2.705,-2.207 -4.841,-2.207c-2.136,0 -3.821,0.842 -5.055,2.527c-1.234,1.685 -1.851,3.81 -1.851,6.373l0,6.336Z" style="fill:#0a7627;fill-rule:nonzero;"/><path d="M787.332,253.376c2.753,-2.848 6.123,-4.272 10.111,-4.272c3.702,0 6.751,0.997 9.149,2.99c2.397,1.994 3.595,4.889 3.595,8.687l0,25.417l-10.395,0l0,-23.139c0,-1.851 -0.534,-3.382 -1.602,-4.592c-1.068,-1.211 -2.433,-1.816 -4.094,-1.816c-1.851,0 -3.441,0.7 -4.77,2.1c-1.329,1.401 -1.994,3.098 -1.994,5.091l0,22.356l-10.395,0l0,-51.262l10.395,0l0,18.44Z" style="fill:#0a7627;fill-rule:nonzero;"/><path d="M858.246,286.198l-8.615,-11.89l-4.058,3.916l0,7.974l-10.395,0l0,-51.262l10.395,0l0,31.825l12.744,-16.945l11.748,0l-13.385,17.088l13.954,19.294l-12.388,0Z" style="fill:#0a7627;fill-rule:nonzero;"/><rect x="875.191" y="234.936" width="10.395" height="51.263" style="fill:#0a7627;fill-rule:nonzero;"/><path d="M894.984,234.936l10.538,0l0,8.187l-10.538,0l0,-8.187Zm0.071,51.262l0,-36.382l10.395,0l0,36.382l-10.395,0Z" style="fill:#0a7627;fill-rule:nonzero;"/><path d="M948.597,272.599c0,3.181 -0.76,5.851 -2.279,8.01c-1.519,2.16 -3.524,3.75 -6.016,4.771c-2.492,1.02 -5.209,1.53 -8.152,1.53l-1.139,0c-3.37,0 -6.408,-0.712 -9.114,-2.136c-2.705,-1.424 -4.829,-3.476 -6.372,-6.158c-1.543,-2.682 -2.314,-5.874 -2.314,-9.576l0,-2.065c0,-3.655 0.783,-6.835 2.35,-9.541c1.566,-2.705 3.69,-4.77 6.372,-6.194c2.682,-1.424 5.708,-2.136 9.078,-2.136l1.139,0c2.943,0 5.672,0.605 8.188,1.816c2.515,1.21 4.533,2.966 6.051,5.268c1.519,2.302 2.279,5.02 2.279,8.152l0,5.412l-24.92,0l0,1.708c0,2.374 0.701,4.355 2.101,5.945c1.4,1.59 3.31,2.386 5.731,2.386c2.184,0 3.904,-0.606 5.162,-1.816c1.258,-1.21 1.887,-3.002 1.887,-5.376l9.968,0Zm-17.515,-16.375c-2.089,0 -3.786,0.736 -5.091,2.207c-1.305,1.471 -2.053,3.346 -2.243,5.625l14.382,0c0,-2.421 -0.557,-4.332 -1.673,-5.732c-1.115,-1.4 -2.907,-2.1 -5.375,-2.1Z" style="fill:#0a7627;fill-rule:nonzero;"/><path d="M965.328,255.156c2.991,-4.035 6.859,-6.052 11.606,-6.052c3.702,0 6.752,0.997 9.149,2.99c2.397,1.994 3.595,4.889 3.595,8.687l0,25.417l-10.395,0l0,-23.139c0,-1.851 -0.534,-3.382 -1.602,-4.592c-1.068,-1.211 -2.432,-1.816 -4.094,-1.816c-1.851,0 -3.441,0.7 -4.77,2.1c-1.329,1.401 -1.994,3.098 -1.994,5.091l0,22.356l-10.395,0l0,-36.382l7.761,0l1.139,5.34Z" style="fill:#0a7627;fill-rule:nonzero;"/><path d="M1018.66,285.558c-0.949,0.379 -2.195,0.7 -3.738,0.961c-1.543,0.261 -2.907,0.391 -4.094,0.391c-3.655,0 -6.408,-0.783 -8.259,-2.349c-1.851,-1.567 -2.777,-4.177 -2.777,-7.832l0,-19.793l-3.987,0l0,-7.12l4.343,0l3.631,-11.605l6.408,0l0,11.605l8.473,0l0,7.12l-8.473,0l0,18.013c0,1.899 0.368,3.18 1.104,3.845c0.736,0.664 1.72,0.997 2.955,0.997c0.569,0 1.305,-0.095 2.207,-0.285c0.902,-0.19 1.637,-0.404 2.207,-0.641l0,6.693Z" style="fill:#0a7627;fill-rule:nonzero;"/><path d="M1038.73,245.259l6.55,-10.323l9.185,0l0.071,0.213l-8.615,10.11l-7.191,0Zm21.858,23.781c0,3.654 -0.772,6.835 -2.314,9.54c-1.543,2.706 -3.667,4.77 -6.373,6.194c-2.705,1.424 -5.743,2.136 -9.113,2.136l-1.139,0c-3.37,0 -6.408,-0.712 -9.113,-2.136c-2.706,-1.424 -4.83,-3.488 -6.373,-6.194c-1.542,-2.705 -2.314,-5.886 -2.314,-9.54l0,-2.065c0,-3.655 0.772,-6.835 2.314,-9.541c1.543,-2.705 3.667,-4.77 6.373,-6.194c2.705,-1.424 5.743,-2.136 9.113,-2.136l1.139,0c3.37,0 6.408,0.712 9.113,2.136c2.706,1.424 4.83,3.489 6.373,6.194c1.542,2.706 2.314,5.886 2.314,9.541l0,2.065Zm-10.538,-3.916c0,-2.896 -0.724,-5.103 -2.171,-6.622c-1.448,-1.519 -3.335,-2.278 -5.661,-2.278c-2.325,0 -4.212,0.759 -5.66,2.278c-1.447,1.519 -2.171,3.726 -2.171,6.622l0,5.767c0,2.895 0.724,5.102 2.171,6.621c1.448,1.519 3.335,2.279 5.66,2.279c2.326,0 4.213,-0.76 5.661,-2.279c1.447,-1.519 2.171,-3.726 2.171,-6.621l0,-5.767Z" style="fill:#0a7627;fill-rule:nonzero;"/><path d="M1092.77,265.907c-2.563,9.018 -4.509,15.782 -5.838,20.291l-11.605,0l-11.107,-36.382l10.751,0l6.265,22.499l0.427,0c1.234,-4.367 2.184,-7.642 2.848,-9.826l3.631,-12.673l10.395,0l6.337,22.499l0.427,0c2.848,-9.968 4.96,-17.468 6.337,-22.499l10.11,0l-11.107,36.382l-11.463,0l-5.98,-20.291l-0.428,0Z" style="fill:#0a7627;fill-rule:nonzero;"/></g><g><path d="M81.181,316.546c11.747,0 21.285,9.538 21.285,21.286c0,11.747 -9.538,21.285 -21.285,21.285c-11.747,0 -21.285,-9.538 -21.285,-21.285c0,-11.748 9.538,-21.286 21.285,-21.286Zm6.985,21.007c0.009,2.293 -0.245,14.088 -6.486,14.088c-0.084,0 -0.167,-0.002 -0.251,-0.006l-0.031,0.002c-0.071,0.002 -0.143,0.004 -0.217,0.004c-6.293,0 -6.498,-11.982 -6.486,-14.14c-0.012,-2.159 0.193,-14.14 6.486,-14.14c0.084,0 0.167,0.001 0.248,0.005l0.031,-0.001c0.074,-0.003 0.146,-0.004 0.22,-0.004c6.29,0 6.498,11.981 6.486,14.14l0,0.052Z" style="fill:#18395e;"/><path d="M269.058,316.546c11.747,0 21.285,9.538 21.285,21.286c0,11.747 -9.538,21.285 -21.285,21.285c-11.75,0 -21.288,-9.538 -21.288,-21.285c0,-11.748 9.538,-21.286 21.288,-21.286Zm6.981,21.007c0.013,2.293 -0.241,14.088 -6.482,14.088c-0.087,0 -0.167,-0.002 -0.251,-0.006l-0.031,0.002c-0.071,0.002 -0.146,0.004 -0.217,0.004c-6.294,0 -6.501,-11.982 -6.486,-14.14c-0.015,-2.159 0.192,-14.14 6.486,-14.14c0.084,0 0.167,0.001 0.248,0.005l0.031,-0.001c0.071,-0.003 0.146,-0.004 0.22,-0.004c6.29,0 6.498,11.981 6.482,14.14l0,0.052Z" style="fill:#18395e;"/><path d="M121.248,323.383l0,17.674c0.601,0.125 1.221,0.192 1.859,0.192l0.291,0c4.983,0 9.03,-4.046 9.03,-9.029c0,-4.983 -4.047,-9.029 -9.03,-9.029l-0.291,0c-0.638,0 -1.258,0.066 -1.859,0.192Zm0,35.41l-14.338,0l0,-42.753l14.338,0l0,0.003c0,0 24.988,-0.585 24.988,16.092c0,16.676 -24.988,15.614 -24.988,15.614l0,11.044Z" style="fill:#18395e;"/><rect x="150.875" y="316.546" width="12.534" height="7.843" style="fill:#18395e;"/><rect x="150.875" y="329.913" width="12.534" height="29.205" style="fill:#18395e;"/><path d="M169.35,323.348c0.034,-2.066 0.936,-4.106 2.655,-5.524c3.111,-2.567 7.722,-2.126 10.288,0.985l16.092,19.497l0,-21.76l8.391,0l0,34.585c-0.012,2.095 -0.917,4.172 -2.655,5.608c-3.115,2.568 -7.725,2.127 -10.291,-0.985l-16.089,-19.496l0,22.859l-8.391,0l0,-35.769Z" style="fill:#18395e;"/><path d="M225.019,334.14l19.057,0l0,6.992l-19.057,0l0,10.993l19.057,0l0,6.992l-25.713,0c-3.676,0 -6.66,-2.983 -6.66,-6.656l0,-29.258c0,-3.674 2.984,-6.657 6.66,-6.657l25.713,0l0,6.992l-19.057,0l0,10.602Z" style="fill:#18395e;"/><ellipse cx="294.688" cy="350.172" rx="2.494" ry="2.495" style="fill:#18395e;"/><path d="M329.75,326.957l-2.367,0l-2.923,25.71l2.368,0l2.922,-25.71Z" style="fill:#18395e;"/><path d="M305.273,336.67c2.104,-2.355 5.079,-3.868 8.181,-3.868c5.367,0 9.104,4.53 8.338,10.11c-0.768,5.581 -5.748,10.112 -11.115,10.112c-2.931,0 -5.376,-1.351 -6.87,-3.487l-1.087,9.58l-2.368,0l2.925,-25.71l2.365,0l-0.369,3.263Zm-0.933,8.182c0.36,3.473 3.028,6.049 6.629,6.049c4.239,0 8.174,-3.58 8.781,-7.989c0.605,-4.408 -2.345,-7.988 -6.588,-7.988c-3.73,0 -7.223,2.767 -8.422,6.433l-0.4,3.495Z" style="fill:#18395e;"/></g><defs><linearGradient id="_Linear1" x1="0" y1="0" x2="1" y2="0" gradientUnits="userSpaceOnUse" gradientTransform="matrix(-6.81485e-14,178,-178,-6.81485e-14,280.5,64.8827)"><stop offset="0" style="stop-color:#fdfdfe;stop-opacity:1"/><stop offset="1" style="stop-color:#eef0ed;stop-opacity:1"/></linearGradient><linearGradient id="_Linear2" x1="0" y1="0" x2="1" y2="0" gradientUnits="userSpaceOnUse" gradientTransform="matrix(199.404,199.404,-199.404,199.404,95.7979,56.1806)"><stop offset="0" style="stop-color:#1d5180;stop-opacity:1"/><stop offset="1" style="stop-color:#183960;stop-opacity:1"/></linearGradient><linearGradient id="_Linear4" x1="0" y1="0" x2="1" y2="0" gradientUnits="userSpaceOnUse" gradientTransform="matrix(-323.433,-216.51,216.51,-323.433,257.899,353.011)"><stop offset="0" style="stop-color:#1d5180;stop-opacity:1"/><stop offset="1" style="stop-color:#183a61;stop-opacity:1"/></linearGradient><linearGradient id="_Linear5" x1="0" y1="0" x2="1" y2="0" gradientUnits="userSpaceOnUse" gradientTransform="matrix(140,-105,105,140,78.5,220.883)"><stop offset="0" style="stop-color:#479238;stop-opacity:1"/><stop offset="1" style="stop-color:#79b322;stop-opacity:1"/></linearGradient></defs></svg>