<?xml version="1.0" encoding="UTF-8" standalone="no"?>
<!DOCTYPE svg PUBLIC "-//W3C//DTD SVG 1.1//EN" "http://www.w3.org/Graphics/SVG/1.1/DTD/svg11.dtd">
<svg width="100%" height="100%" viewBox="0 0 240 80" version="1.1" xmlns="http://www.w3.org/2000/svg" xmlns:xlink="http://www.w3.org/1999/xlink" xml:space="preserve" xmlns:serif="http://www.serif.com/" style="fill-rule:evenodd;clip-rule:evenodd;stroke-linejoin:round;stroke-miterlimit:2;">
    <g transform="matrix(1,0,0,1,-449,0)">
        <g id="Artboard3" transform="matrix(1.2,0,0,1,-271,0)">
            <rect x="600" y="0" width="200" height="80" style="fill:none;"/>
            <g transform="matrix(1.67027,0,0,2.00432,615.544,23.7614)">
                <path d="M39.174,5.25L34.431,5.25L34.431,16.303L39.174,16.303L39.174,5.25ZM8.055,0.191C12.501,0.191 16.11,3.801 16.11,8.247C16.11,12.693 12.501,16.302 8.055,16.302C3.61,16.302 0,12.693 0,8.247C0,3.801 3.61,0.191 8.055,0.191ZM92.862,7.807C93.659,6.916 94.784,6.344 95.958,6.344C97.989,6.344 99.404,8.058 99.114,10.17C98.823,12.282 96.939,13.996 94.907,13.996C93.798,13.996 92.873,13.485 92.307,12.677L91.896,16.302L91,16.302L92.107,6.572L93.002,6.572L92.862,7.807ZM62.49,6.85L69.702,6.85L69.702,9.496L62.49,9.496L62.49,13.656L69.702,13.656L69.702,16.302L59.971,16.302C58.58,16.302 57.451,15.173 57.451,13.783L57.451,2.711C57.451,1.32 58.58,0.191 59.971,0.191L69.702,0.191L69.702,2.838L62.49,2.838L62.49,6.85ZM41.423,2.766C41.435,1.984 41.777,1.212 42.427,0.675C43.605,-0.296 45.35,-0.129 46.321,1.048L52.411,8.427L52.411,0.191L55.586,0.191L55.586,13.28C55.582,14.073 55.239,14.859 54.582,15.402C53.403,16.374 51.658,16.207 50.687,15.03L44.598,7.651L44.598,16.302L41.423,16.302L41.423,2.766ZM79.157,0.191C83.602,0.191 87.212,3.801 87.212,8.247C87.212,12.693 83.602,16.302 79.157,16.302C74.71,16.302 71.1,12.693 71.1,8.247C71.1,3.801 74.71,0.191 79.157,0.191ZM23.218,16.18L17.792,16.18L17.792,0L23.218,0L23.218,0.001C23.218,0.001 32.675,-0.22 32.675,6.091C32.675,12.402 23.218,12 23.218,12L23.218,16.18ZM88.856,11.973C89.377,11.973 89.8,12.396 89.8,12.917C89.8,13.438 89.377,13.861 88.856,13.861C88.335,13.861 87.912,13.438 87.912,12.917C87.912,12.396 88.335,11.973 88.856,11.973ZM102.126,4.132L101.23,4.132L100.124,13.861L101.02,13.861L102.126,4.132ZM10.699,8.142L10.699,8.122C10.703,7.305 10.625,2.771 8.244,2.771L8.149,2.773C8.118,2.771 8.087,2.771 8.055,2.771C5.674,2.771 5.596,7.305 5.601,8.122C5.596,8.939 5.674,13.473 8.055,13.473L8.149,13.471C8.181,13.472 8.212,13.473 8.244,13.473C10.606,13.473 10.702,9.009 10.699,8.142ZM81.799,8.142C81.804,9.009 81.708,13.473 79.346,13.473C79.313,13.473 79.282,13.472 79.251,13.471L79.157,13.473C76.775,13.473 76.696,8.939 76.702,8.122C76.696,7.305 76.775,2.771 79.157,2.771C79.189,2.771 79.22,2.771 79.251,2.773L79.346,2.771C81.726,2.771 81.805,7.305 81.799,8.122L81.799,8.142ZM92.509,10.904C92.645,12.218 93.655,13.193 95.018,13.193C96.622,13.193 98.111,11.838 98.341,10.17C98.57,8.501 97.454,7.147 95.848,7.147C94.436,7.147 93.114,8.194 92.661,9.581L92.509,10.904ZM23.218,2.779L23.218,9.468C23.446,9.515 23.681,9.54 23.922,9.54L24.032,9.54C25.918,9.54 27.45,8.009 27.45,6.123C27.45,4.237 25.918,2.706 24.032,2.706L23.922,2.706C23.681,2.706 23.446,2.731 23.218,2.779ZM39.174,0.191L34.431,0.191L34.431,3.159L39.174,3.159L39.174,0.191Z" style="fill:white;"/>
            </g>
        </g>
    </g>
</svg>
