<?xml version="1.0" encoding="UTF-8" standalone="no"?><!DOCTYPE svg PUBLIC "-//W3C//DTD SVG 1.1//EN" "http://www.w3.org/Graphics/SVG/1.1/DTD/svg11.dtd"><svg width="100%" height="100%" viewBox="0 0 387 289" version="1.1" xmlns="http://www.w3.org/2000/svg" xmlns:xlink="http://www.w3.org/1999/xlink" xml:space="preserve" xmlns:serif="http://www.serif.com/" style="fill-rule:evenodd;clip-rule:evenodd;stroke-linejoin:round;stroke-miterlimit:1.41421;"><g><g><path d="M323.736,262.061c-4.77,0.832 -8.586,-0.385 -10.026,-3.197c-0.601,-1.174 -0.797,-3.542 -0.43,-5.192c1.069,-4.804 5.803,-7.794 11.123,-7.026c4.2,0.607 5.766,3.072 4.779,7.522l-0.262,1.181l-11.151,0l0.105,0.788c0.234,1.74 1.725,2.696 4.187,2.683c1.647,-0.009 2.887,-0.314 4.413,-1.088c1.404,-0.711 1.615,-0.67 1.455,0.282c-0.072,0.426 -0.272,1.295 -0.444,1.932c-0.303,1.126 -0.338,1.168 -1.221,1.496c-0.499,0.185 -1.637,0.464 -2.528,0.619Zm-66.407,0.088c-4.437,0.692 -7.91,-0.871 -8.683,-3.906c-0.497,-1.953 -0.082,-4.931 0.96,-6.885c1.106,-2.076 3.61,-3.97 5.927,-4.483c4.525,-1.002 8.231,0.332 9.253,3.332c0.374,1.1 0.38,3.594 0.012,5.01c-0.936,3.59 -3.944,6.383 -7.469,6.932Zm20.604,-0.375c0.676,-0.223 1.329,-0.506 1.453,-0.627c0.122,-0.121 0.403,-0.944 0.623,-1.828c0.22,-0.883 0.445,-1.755 0.498,-1.937c0.138,-0.464 -0.57,-0.437 -1.252,0.048c-1.246,0.887 -2.512,1.318 -3.876,1.32c-2.375,0.003 -3.306,-0.912 -3.306,-3.249c0,-1.83 0.535,-3.131 1.73,-4.205c1.11,-0.998 2.083,-1.321 3.58,-1.186c1.186,0.106 1.939,0.44 2.905,1.288c1.041,0.914 1.235,0.745 1.822,-1.595l0.514,-2.048l-0.643,-0.269c-2.075,-0.867 -5.493,-1.103 -7.706,-0.532c-3.087,0.796 -5.528,2.839 -6.694,5.601c-0.437,1.036 -0.502,1.452 -0.509,3.267c-0.007,1.904 0.037,2.171 0.522,3.158c1.135,2.312 3.653,3.441 7.315,3.28c1.14,-0.05 2.244,-0.227 3.024,-0.486Zm29.139,-18.901c2.249,0 2.446,0.028 2.358,0.331c-0.123,0.419 -0.874,3.642 -0.874,3.749c0,0.043 0.978,0.079 2.174,0.079c1.196,0 2.174,0.062 2.174,0.138c0,0.075 -0.142,0.798 -0.316,1.606l-0.316,1.47l-2.232,0c-2.16,0 -2.236,0.014 -2.333,0.425c-1.519,6.465 -1.664,7.453 -1.153,7.878c0.44,0.365 1.533,0.451 2.565,0.204c0.533,-0.128 1.014,-0.189 1.067,-0.135c0.054,0.053 -0.049,0.78 -0.228,1.614l-0.326,1.516l-1.168,0.203c-1.548,0.27 -3.94,0.238 -5.078,-0.069c-1.198,-0.321 -2.01,-1.134 -2.207,-2.21c-0.169,-0.917 -0.042,-1.769 0.777,-5.233c0.814,-3.439 0.733,-4.193 -0.454,-4.193c-0.48,0 -0.536,-0.055 -0.435,-0.425c0.064,-0.234 0.216,-0.957 0.338,-1.607l0.223,-1.182l0.993,0c0.784,0 1.015,-0.07 1.092,-0.331c0.054,-0.181 0.28,-1.117 0.502,-2.079l0.403,-1.749l2.454,0Zm-71.866,16.588c0.326,-1.378 0.673,-2.811 0.771,-3.184l0.179,-0.68l2.411,-0.117c6.107,-0.297 9.636,-2.478 10.447,-6.454c0.263,-1.29 0.131,-2.88 -0.31,-3.758c-0.51,-1.014 -1.605,-1.998 -2.664,-2.394c-1.48,-0.553 -3.783,-0.753 -8.706,-0.755l-4.399,-0.001l0.311,0.602c0.227,0.44 0.284,0.885 0.209,1.654c-0.136,1.383 -3.439,15.345 -3.793,16.029c-0.151,0.292 -0.506,0.763 -0.79,1.047l-0.516,0.516l6.258,0l0.592,-2.505Zm61.425,1.796c0.295,-1.112 0.573,-2.388 0.579,-2.647c0.003,-0.181 -0.876,-0.236 -3.783,-0.236l-3.786,0l4.684,-4.156c4.652,-4.126 4.687,-4.164 5.001,-5.245c0.173,-0.6 0.322,-1.282 0.33,-1.518l0.016,-0.427l-7.035,0.049l-7.034,0.05l-0.33,1.417c-0.182,0.78 -0.334,1.523 -0.338,1.65c-0.006,0.174 0.887,0.245 3.552,0.284l3.561,0.051l-3.934,3.498c-2.164,1.923 -4.281,3.801 -4.705,4.172c-0.654,0.573 -0.825,0.887 -1.128,2.067c-0.197,0.764 -0.315,1.46 -0.262,1.545c0.052,0.085 3.319,0.154 7.26,0.154l7.165,0l0.187,-0.708Zm41.776,-14.225l1.064,2.079c0.585,1.144 1.134,2.08 1.22,2.08c0.086,0 0.937,-0.936 1.89,-2.08l1.734,-2.079l7.195,0l-7.654,7.467l2.024,3.474c1.114,1.911 2.07,3.591 2.124,3.734c0.082,0.212 -0.422,0.258 -2.803,0.256l-2.903,-0.002l-1.112,-2.172c-0.612,-1.194 -1.177,-2.171 -1.256,-2.171c-0.079,0 -0.975,0.978 -1.992,2.174l-1.849,2.173l-3.464,0c-1.906,0 -3.468,-0.063 -3.47,-0.141c-0.004,-0.078 1.701,-1.801 3.788,-3.828l3.796,-3.686l-1.481,-2.552c-0.815,-1.404 -1.761,-3.041 -2.102,-3.639l-0.621,-1.087l5.872,0Zm20.203,14.455c1.271,-0.377 2.501,-1.521 5.981,-5.556c5.541,-6.426 6.898,-7.215 14.19,-8.251c1.247,-0.177 2.438,-0.39 2.646,-0.473c0.208,-0.083 -4.13,-0.152 -9.641,-0.153l-10.018,-0.004l-5.19,5.073c-4.485,4.384 -5.165,5.123 -5.009,5.437c0.099,0.2 0.641,1.231 1.204,2.29l1.023,1.926l1.92,0c1.174,0 2.298,-0.112 2.894,-0.289Zm-104.074,-2.913c-0.793,-0.498 -0.987,-1.037 -0.987,-2.73c0,-3.304 1.839,-5.976 4.113,-5.976c1.613,0 2.394,1.049 2.36,3.17c-0.039,2.41 -0.863,4.302 -2.328,5.345c-0.867,0.618 -2.337,0.706 -3.158,0.191Zm97.763,-3.361c0.633,-0.595 3.054,-2.934 5.378,-5.198l4.226,-4.117l6.469,0c6.427,0 6.476,-0.003 7.871,-0.479c1.828,-0.624 5.404,-1.333 8.019,-1.588c1.144,-0.112 2.335,-0.233 2.647,-0.268c0.312,-0.036 -5.502,-0.078 -12.92,-0.094l-13.487,-0.028l-5.321,5.216c-2.927,2.869 -5.348,5.286 -5.38,5.371c-0.066,0.178 1.077,2.266 1.241,2.266c0.058,0 0.624,-0.486 1.257,-1.081Zm-27.864,-2.888l0,-0.647c0,-0.903 -0.743,-1.743 -1.684,-1.902c-0.867,-0.146 -2.182,0.171 -2.834,0.684c-0.438,0.345 -1.342,1.531 -1.342,1.76c0,0.058 1.318,0.105 2.93,0.105l2.93,0Zm-87.332,-1.627c0,-0.063 0.274,-1.091 0.609,-2.284l0.61,-2.17l1.929,0.064c2.425,0.079 2.964,0.383 3.052,1.718c0.049,0.736 -0.028,0.958 -0.526,1.525c-0.788,0.899 -1.941,1.262 -4.006,1.262c-0.918,0 -1.668,-0.052 -1.668,-0.115Z" style="fill:#fff;"/></g><path d="M16.242,253.574c0,1.13 -0.195,2.181 -0.584,3.154c-0.39,0.972 -0.939,1.818 -1.647,2.537c-0.708,0.719 -1.561,1.282 -2.559,1.69c-0.997,0.407 -2.104,0.611 -3.32,0.611c-1.216,0 -2.325,-0.204 -3.326,-0.611c-1.001,-0.408 -1.858,-0.971 -2.569,-1.69c-0.712,-0.719 -1.263,-1.565 -1.652,-2.537c-0.39,-0.973 -0.585,-2.024 -0.585,-3.154c0,-1.13 0.195,-2.182 0.585,-3.154c0.389,-0.973 0.94,-1.817 1.652,-2.532c0.711,-0.715 1.568,-1.277 2.569,-1.684c1.001,-0.408 2.11,-0.612 3.326,-0.612c1.216,0 2.323,0.206 3.32,0.617c0.998,0.411 1.851,0.974 2.559,1.69c0.708,0.715 1.257,1.559 1.647,2.531c0.389,0.973 0.584,2.021 0.584,3.144Zm-3.712,0c0,-0.773 -0.1,-1.468 -0.3,-2.087c-0.2,-0.619 -0.488,-1.142 -0.864,-1.572c-0.375,-0.429 -0.835,-0.758 -1.378,-0.987c-0.544,-0.228 -1.162,-0.343 -1.856,-0.343c-0.701,0 -1.325,0.115 -1.872,0.343c-0.547,0.229 -1.009,0.558 -1.384,0.987c-0.376,0.43 -0.663,0.953 -0.864,1.572c-0.2,0.619 -0.3,1.314 -0.3,2.087c0,0.779 0.1,1.478 0.3,2.097c0.201,0.619 0.488,1.143 0.864,1.572c0.375,0.429 0.837,0.756 1.384,0.981c0.547,0.226 1.171,0.338 1.872,0.338c0.694,0 1.312,-0.112 1.856,-0.338c0.543,-0.225 1.003,-0.552 1.378,-0.981c0.376,-0.429 0.664,-0.953 0.864,-1.572c0.2,-0.619 0.3,-1.318 0.3,-2.097Z" style="fill:#fff;fill-rule:nonzero;"/><path d="M32.56,253.574c0,1.13 -0.195,2.172 -0.585,3.127c-0.39,0.955 -0.939,1.781 -1.647,2.478c-0.708,0.698 -1.561,1.241 -2.558,1.631c-0.998,0.39 -2.105,0.585 -3.321,0.585l-6.072,0l0,-15.631l6.072,0c1.216,0 2.323,0.196 3.321,0.59c0.997,0.393 1.85,0.937 2.558,1.63c0.708,0.694 1.257,1.518 1.647,2.473c0.39,0.955 0.585,1.994 0.585,3.117Zm-3.712,0c0,-0.773 -0.1,-1.47 -0.301,-2.092c-0.2,-0.622 -0.488,-1.15 -0.863,-1.583c-0.376,-0.432 -0.835,-0.765 -1.379,-0.997c-0.543,-0.233 -1.162,-0.349 -1.856,-0.349l-2.424,0l0,10.052l2.424,0c0.694,0 1.313,-0.116 1.856,-0.348c0.544,-0.233 1.003,-0.565 1.379,-0.998c0.375,-0.433 0.663,-0.96 0.863,-1.583c0.201,-0.622 0.301,-1.323 0.301,-2.102Z" style="fill:#fff;fill-rule:nonzero;"/><path d="M40.885,258.659c0.479,0 0.87,-0.061 1.174,-0.183c0.304,-0.121 0.542,-0.278 0.714,-0.472c0.172,-0.193 0.29,-0.411 0.354,-0.654c0.064,-0.243 0.096,-0.49 0.096,-0.74c0,-0.286 -0.037,-0.544 -0.112,-0.773c-0.075,-0.228 -0.204,-0.422 -0.386,-0.579c-0.183,-0.157 -0.424,-0.279 -0.725,-0.365c-0.3,-0.086 -0.679,-0.128 -1.137,-0.128l-2.532,0l0,3.894l2.554,0Zm-2.554,-10.181l0,3.862l1.889,0c0.4,0 0.761,-0.029 1.083,-0.086c0.322,-0.057 0.596,-0.157 0.821,-0.3c0.225,-0.143 0.397,-0.34 0.515,-0.59c0.118,-0.251 0.177,-0.565 0.177,-0.944c0,-0.372 -0.047,-0.682 -0.14,-0.928c-0.093,-0.247 -0.236,-0.445 -0.429,-0.596c-0.193,-0.15 -0.438,-0.257 -0.735,-0.322c-0.296,-0.064 -0.649,-0.096 -1.056,-0.096l-2.125,0Zm2.125,-2.714c1.08,0 1.999,0.1 2.757,0.3c0.758,0.2 1.376,0.483 1.856,0.848c0.479,0.364 0.828,0.808 1.046,1.33c0.218,0.522 0.327,1.105 0.327,1.749c0,0.35 -0.05,0.688 -0.15,1.013c-0.1,0.326 -0.258,0.63 -0.472,0.912c-0.215,0.283 -0.49,0.542 -0.826,0.778c-0.337,0.236 -0.741,0.44 -1.213,0.612c1.03,0.25 1.792,0.654 2.285,1.212c0.494,0.558 0.741,1.28 0.741,2.167c0,0.665 -0.129,1.284 -0.387,1.856c-0.257,0.572 -0.634,1.071 -1.131,1.496c-0.497,0.426 -1.111,0.759 -1.84,0.998c-0.73,0.24 -1.563,0.36 -2.5,0.36l-6.244,0l0,-15.631l5.751,0Z" style="fill:#fff;fill-rule:nonzero;"/><rect x="49.07" y="245.764" width="3.648" height="15.631" style="fill:#fff;fill-rule:nonzero;"/><path d="M71.084,253.574c0,1.13 -0.195,2.181 -0.584,3.154c-0.39,0.972 -0.939,1.818 -1.647,2.537c-0.708,0.719 -1.561,1.282 -2.559,1.69c-0.998,0.407 -2.104,0.611 -3.32,0.611c-1.216,0 -2.325,-0.204 -3.326,-0.611c-1.001,-0.408 -1.858,-0.971 -2.569,-1.69c-0.712,-0.719 -1.263,-1.565 -1.652,-2.537c-0.39,-0.973 -0.585,-2.024 -0.585,-3.154c0,-1.13 0.195,-2.182 0.585,-3.154c0.389,-0.973 0.94,-1.817 1.652,-2.532c0.711,-0.715 1.568,-1.277 2.569,-1.684c1.001,-0.408 2.11,-0.612 3.326,-0.612c1.216,0 2.322,0.206 3.32,0.617c0.998,0.411 1.851,0.974 2.559,1.69c0.708,0.715 1.257,1.559 1.647,2.531c0.389,0.973 0.584,2.021 0.584,3.144Zm-3.712,0c0,-0.773 -0.1,-1.468 -0.3,-2.087c-0.2,-0.619 -0.488,-1.142 -0.864,-1.572c-0.375,-0.429 -0.835,-0.758 -1.378,-0.987c-0.544,-0.228 -1.162,-0.343 -1.856,-0.343c-0.701,0 -1.325,0.115 -1.872,0.343c-0.547,0.229 -1.009,0.558 -1.384,0.987c-0.376,0.43 -0.663,0.953 -0.864,1.572c-0.2,0.619 -0.3,1.314 -0.3,2.087c0,0.779 0.1,1.478 0.3,2.097c0.201,0.619 0.488,1.143 0.864,1.572c0.375,0.429 0.837,0.756 1.384,0.981c0.547,0.226 1.171,0.338 1.872,0.338c0.694,0 1.312,-0.112 1.856,-0.338c0.543,-0.225 1.003,-0.552 1.378,-0.981c0.376,-0.429 0.664,-0.953 0.864,-1.572c0.2,-0.619 0.3,-1.318 0.3,-2.097Zm0.547,-12.209l-3.465,3.058c-0.086,0.078 -0.168,0.139 -0.246,0.182c-0.079,0.043 -0.161,0.075 -0.247,0.097c-0.086,0.021 -0.177,0.035 -0.274,0.043c-0.096,0.007 -0.205,0.01 -0.327,0.01l-2.424,0l2.027,-2.896c0.086,-0.115 0.17,-0.206 0.252,-0.274c0.082,-0.068 0.172,-0.118 0.268,-0.15c0.097,-0.032 0.208,-0.052 0.333,-0.059c0.125,-0.007 0.27,-0.011 0.434,-0.011l3.669,0Z" style="fill:#fff;fill-rule:nonzero;"/><path d="M78.304,253.112c0.494,0 0.914,-0.062 1.261,-0.187c0.347,-0.125 0.631,-0.299 0.853,-0.521c0.221,-0.221 0.382,-0.481 0.482,-0.777c0.101,-0.297 0.151,-0.617 0.151,-0.961c0,-0.686 -0.224,-1.223 -0.671,-1.609c-0.447,-0.386 -1.139,-0.579 -2.076,-0.579l-1.459,0l0,4.634l1.459,0Zm7.703,8.283l-3.283,0c-0.608,0 -1.044,-0.229 -1.309,-0.687l-2.596,-4.538c-0.121,-0.193 -0.257,-0.334 -0.407,-0.424c-0.151,-0.089 -0.365,-0.134 -0.644,-0.134l-0.923,0l0,5.783l-3.626,0l0,-15.631l5.085,0c1.13,0 2.094,0.116 2.891,0.348c0.798,0.233 1.449,0.556 1.953,0.971c0.504,0.415 0.871,0.905 1.1,1.47c0.228,0.565 0.343,1.18 0.343,1.845c0,0.508 -0.068,0.987 -0.204,1.438c-0.136,0.45 -0.336,0.867 -0.601,1.25c-0.264,0.382 -0.592,0.724 -0.981,1.024c-0.39,0.301 -0.839,0.547 -1.347,0.74c0.236,0.122 0.458,0.274 0.665,0.456c0.208,0.183 0.394,0.399 0.558,0.649l3.326,5.44Z" style="fill:#fff;fill-rule:nonzero;"/><path d="M113.578,245.764l-4.827,15.631l-3.283,0l-2.94,-9.688c-0.057,-0.15 -0.111,-0.316 -0.161,-0.499c-0.05,-0.182 -0.1,-0.373 -0.15,-0.574c-0.05,0.201 -0.1,0.392 -0.15,0.574c-0.05,0.183 -0.104,0.349 -0.161,0.499l-2.982,9.688l-3.283,0l-4.828,-15.631l3.047,0c0.315,0 0.578,0.071 0.789,0.214c0.21,0.143 0.348,0.333 0.413,0.569l2.145,8.153c0.065,0.258 0.129,0.538 0.193,0.842c0.065,0.304 0.129,0.621 0.193,0.95c0.129,-0.673 0.286,-1.27 0.472,-1.792l2.532,-8.153c0.065,-0.2 0.202,-0.381 0.413,-0.542c0.211,-0.161 0.467,-0.241 0.767,-0.241l1.073,0c0.315,0 0.569,0.073 0.762,0.22c0.193,0.146 0.34,0.334 0.44,0.563l2.51,8.153c0.186,0.501 0.343,1.069 0.472,1.706c0.057,-0.322 0.116,-0.624 0.177,-0.907c0.061,-0.282 0.123,-0.548 0.188,-0.799l2.145,-8.153c0.058,-0.208 0.194,-0.39 0.408,-0.547c0.215,-0.158 0.472,-0.236 0.773,-0.236l2.853,0Z" style="fill:#fff;fill-rule:nonzero;"/><path d="M125.604,253.434c0.944,0 1.624,-0.225 2.039,-0.676c0.415,-0.45 0.622,-1.08 0.622,-1.888c0,-0.357 -0.054,-0.683 -0.161,-0.976c-0.107,-0.293 -0.27,-0.545 -0.488,-0.756c-0.218,-0.211 -0.494,-0.374 -0.826,-0.488c-0.333,-0.115 -0.728,-0.172 -1.186,-0.172l-1.888,0l0,4.956l1.888,0Zm0,-7.67c1.102,0 2.048,0.13 2.838,0.391c0.79,0.261 1.441,0.621 1.952,1.078c0.512,0.458 0.889,0.998 1.132,1.62c0.243,0.623 0.365,1.295 0.365,2.017c0,0.78 -0.125,1.495 -0.375,2.146c-0.251,0.651 -0.633,1.209 -1.148,1.673c-0.515,0.465 -1.168,0.828 -1.958,1.089c-0.791,0.261 -1.726,0.392 -2.806,0.392l-1.888,0l0,5.225l-3.626,0l0,-15.631l5.514,0Z" style="fill:#fff;fill-rule:nonzero;"/><path d="M140.259,258.53c0.486,0 0.921,-0.08 1.303,-0.241c0.383,-0.161 0.707,-0.392 0.971,-0.692c0.265,-0.301 0.467,-0.667 0.606,-1.1c0.14,-0.433 0.21,-0.924 0.21,-1.475l0,-9.258l3.626,0l0,9.258c0,0.958 -0.156,1.838 -0.467,2.639c-0.311,0.801 -0.756,1.491 -1.336,2.071c-0.579,0.579 -1.283,1.03 -2.113,1.351c-0.83,0.322 -1.763,0.483 -2.8,0.483c-1.044,0 -1.981,-0.161 -2.811,-0.483c-0.829,-0.321 -1.534,-0.772 -2.113,-1.351c-0.58,-0.58 -1.023,-1.27 -1.331,-2.071c-0.307,-0.801 -0.461,-1.681 -0.461,-2.639l0,-9.258l3.626,0l0,9.247c0,0.551 0.07,1.043 0.209,1.475c0.14,0.433 0.342,0.801 0.607,1.105c0.264,0.304 0.588,0.537 0.97,0.698c0.383,0.161 0.818,0.241 1.304,0.241Z" style="fill:#fff;fill-rule:nonzero;"/><path d="M163.453,245.764l0,15.631l-1.888,0c-0.279,0 -0.513,-0.045 -0.703,-0.135c-0.189,-0.089 -0.377,-0.245 -0.563,-0.466l-7.37,-9.323c0.028,0.279 0.048,0.549 0.059,0.81c0.011,0.261 0.016,0.506 0.016,0.735l0,8.379l-3.197,0l0,-15.631l1.91,0c0.157,0 0.289,0.007 0.396,0.021c0.108,0.014 0.204,0.041 0.29,0.081c0.086,0.039 0.168,0.094 0.247,0.166c0.079,0.071 0.168,0.168 0.268,0.29l7.435,9.387c-0.036,-0.301 -0.061,-0.592 -0.075,-0.875c-0.015,-0.282 -0.022,-0.549 -0.022,-0.799l0,-8.271l3.197,0Z" style="fill:#fff;fill-rule:nonzero;"/><path d="M170.104,252.093l0.58,0c0.536,0 0.922,-0.168 1.158,-0.504l3.519,-5.107c0.208,-0.271 0.431,-0.459 0.671,-0.563c0.239,-0.103 0.538,-0.155 0.896,-0.155l3.154,0l-4.635,6.319c-0.329,0.436 -0.683,0.751 -1.062,0.944c0.272,0.1 0.519,0.239 0.74,0.418c0.222,0.179 0.429,0.411 0.622,0.697l4.721,7.253l-3.24,0c-0.207,0 -0.385,-0.015 -0.531,-0.043c-0.147,-0.029 -0.274,-0.072 -0.381,-0.129c-0.107,-0.057 -0.2,-0.127 -0.279,-0.209c-0.079,-0.083 -0.154,-0.177 -0.225,-0.285l-3.54,-5.439c-0.129,-0.2 -0.292,-0.341 -0.489,-0.424c-0.196,-0.082 -0.463,-0.123 -0.799,-0.123l-0.88,0l0,6.652l-3.626,0l0,-15.631l3.626,0l0,6.329Z" style="fill:#fff;fill-rule:nonzero;"/><path d="M191.486,257.35c0.085,0 0.171,0.016 0.257,0.048c0.086,0.032 0.168,0.088 0.247,0.167l1.437,1.512c-0.629,0.823 -1.418,1.443 -2.365,1.862c-0.948,0.418 -2.069,0.627 -3.363,0.627c-1.188,0 -2.252,-0.202 -3.192,-0.606c-0.941,-0.404 -1.738,-0.962 -2.392,-1.674c-0.655,-0.711 -1.157,-1.555 -1.508,-2.531c-0.35,-0.977 -0.525,-2.037 -0.525,-3.181c0,-1.166 0.189,-2.237 0.568,-3.213c0.379,-0.977 0.912,-1.819 1.599,-2.527c0.686,-0.708 1.509,-1.259 2.467,-1.652c0.958,-0.393 2.013,-0.59 3.165,-0.59c0.586,0 1.139,0.052 1.657,0.156c0.519,0.103 1.003,0.246 1.454,0.429c0.451,0.182 0.865,0.402 1.245,0.66c0.379,0.257 0.715,0.536 1.008,0.836l-1.223,1.642c-0.079,0.1 -0.172,0.191 -0.279,0.273c-0.107,0.083 -0.257,0.124 -0.451,0.124c-0.128,0 -0.25,-0.029 -0.364,-0.086c-0.115,-0.057 -0.236,-0.127 -0.365,-0.209c-0.129,-0.083 -0.27,-0.172 -0.424,-0.269c-0.154,-0.096 -0.336,-0.186 -0.547,-0.268c-0.211,-0.082 -0.458,-0.152 -0.74,-0.209c-0.283,-0.057 -0.613,-0.086 -0.993,-0.086c-0.6,0 -1.149,0.111 -1.646,0.333c-0.497,0.221 -0.926,0.545 -1.288,0.971c-0.361,0.425 -0.64,0.947 -0.836,1.566c-0.197,0.619 -0.295,1.325 -0.295,2.119c0,0.801 0.109,1.512 0.327,2.135c0.218,0.622 0.515,1.146 0.89,1.571c0.376,0.426 0.814,0.749 1.314,0.971c0.501,0.222 1.037,0.333 1.61,0.333c0.329,0 0.629,-0.016 0.901,-0.049c0.271,-0.032 0.525,-0.085 0.761,-0.16c0.236,-0.076 0.458,-0.176 0.666,-0.301c0.207,-0.125 0.418,-0.284 0.632,-0.477c0.086,-0.072 0.179,-0.131 0.279,-0.177c0.101,-0.047 0.204,-0.07 0.312,-0.07Z" style="fill:#fff;fill-rule:nonzero;"/><rect x="195.015" y="245.764" width="3.648" height="15.631" style="fill:#fff;fill-rule:nonzero;"/><path d="M205.335,248.553l0,3.648l4.914,0l0,2.682l-4.914,0l0,3.722l6.416,0l0,2.79l-10.063,0l0,-15.631l10.063,0l0,2.789l-6.416,0Z" style="fill:#fff;fill-rule:nonzero;"/></g><path d="M23.15,14.053c0,2.125 -0.318,4.037 -0.952,5.734c-0.635,1.698 -1.53,3.143 -2.683,4.335c-1.153,1.192 -2.533,2.106 -4.14,2.741c-1.607,0.634 -3.389,0.952 -5.345,0.952l-10.03,0l0,-27.504l10.03,0c1.956,0 3.738,0.317 5.345,0.952c1.607,0.635 2.987,1.549 4.14,2.741c1.153,1.192 2.048,2.637 2.683,4.335c0.634,1.697 0.952,3.602 0.952,5.714Zm-2.06,0c0,-1.918 -0.266,-3.628 -0.797,-5.131c-0.532,-1.503 -1.28,-2.773 -2.245,-3.81c-0.966,-1.037 -2.129,-1.827 -3.489,-2.371c-1.361,-0.545 -2.871,-0.817 -4.529,-0.817l-8.028,0l0,24.278l8.028,0c1.658,0 3.168,-0.272 4.529,-0.817c1.36,-0.544 2.523,-1.334 3.489,-2.371c0.965,-1.037 1.713,-2.307 2.245,-3.81c0.531,-1.503 0.797,-3.22 0.797,-5.151Z" style="fill:#fff;fill-rule:nonzero;"/><path d="M49.663,27.815l-1.536,0c-0.181,0 -0.33,-0.049 -0.447,-0.146c-0.117,-0.097 -0.207,-0.223 -0.272,-0.379l-3.246,-7.989l-13.509,0l-3.227,7.989c-0.052,0.143 -0.142,0.266 -0.272,0.369c-0.13,0.104 -0.285,0.156 -0.466,0.156l-1.517,0l11.255,-27.504l1.982,0l11.255,27.504Zm-18.408,-9.991l12.324,0l-5.618,-13.898c-0.09,-0.22 -0.181,-0.469 -0.272,-0.748c-0.091,-0.279 -0.181,-0.573 -0.272,-0.884c-0.091,0.311 -0.181,0.605 -0.272,0.884c-0.091,0.279 -0.182,0.535 -0.272,0.768l-5.618,13.878Z" style="fill:#fff;fill-rule:nonzero;"/><path d="M56.582,15.375l0,12.44l-1.982,0l0,-27.504l7.017,0c3.174,0 5.546,0.612 7.114,1.837c1.568,1.224 2.352,3.022 2.352,5.394c0,1.049 -0.182,2.008 -0.545,2.876c-0.362,0.869 -0.884,1.63 -1.564,2.284c-0.681,0.655 -1.5,1.193 -2.459,1.614c-0.959,0.421 -2.041,0.696 -3.246,0.826c0.311,0.194 0.589,0.453 0.836,0.777l9.466,11.896l-1.73,0c-0.208,0 -0.386,-0.039 -0.535,-0.117c-0.149,-0.077 -0.295,-0.207 -0.437,-0.388l-8.805,-11.158c-0.221,-0.285 -0.457,-0.485 -0.71,-0.602c-0.252,-0.117 -0.644,-0.175 -1.176,-0.175l-3.596,0Zm0,-1.477l4.782,0c1.218,0 2.31,-0.146 3.275,-0.438c0.966,-0.291 1.782,-0.709 2.449,-1.253c0.668,-0.545 1.176,-1.199 1.526,-1.963c0.35,-0.765 0.525,-1.627 0.525,-2.586c0,-1.956 -0.642,-3.408 -1.924,-4.354c-1.283,-0.946 -3.149,-1.419 -5.598,-1.419l-5.035,0l0,12.013Z" style="fill:#fff;fill-rule:nonzero;"/><path d="M91.764,19.807c0.194,0.363 0.363,0.751 0.505,1.166c0.078,-0.207 0.159,-0.411 0.243,-0.612c0.085,-0.201 0.179,-0.392 0.282,-0.574l10.807,-19.107c0.104,-0.168 0.208,-0.272 0.311,-0.311c0.104,-0.039 0.247,-0.058 0.428,-0.058l1.38,0l0,27.504l-1.749,0l0,-23.442c0,-0.336 0.019,-0.693 0.058,-1.069l-10.827,19.224c-0.181,0.337 -0.44,0.505 -0.777,0.505l-0.311,0c-0.324,0 -0.583,-0.168 -0.778,-0.505l-11.118,-19.243c0.039,0.376 0.059,0.739 0.059,1.088l0,23.442l-1.73,0l0,-27.504l1.36,0c0.182,0 0.327,0.019 0.438,0.058c0.11,0.039 0.217,0.143 0.32,0.311l11.099,19.127Z" style="fill:#fff;fill-rule:nonzero;"/><path d="M138.414,14.053c0,2.125 -0.318,4.053 -0.953,5.783c-0.635,1.73 -1.529,3.207 -2.682,4.432c-1.153,1.224 -2.533,2.17 -4.14,2.837c-1.607,0.668 -3.389,1.001 -5.345,1.001c-1.931,0 -3.7,-0.333 -5.307,-1.001c-1.607,-0.667 -2.987,-1.613 -4.14,-2.837c-1.153,-1.225 -2.051,-2.702 -2.692,-4.432c-0.642,-1.73 -0.962,-3.658 -0.962,-5.783c0,-2.112 0.32,-4.033 0.962,-5.763c0.641,-1.73 1.539,-3.207 2.692,-4.432c1.153,-1.224 2.533,-2.173 4.14,-2.847c1.607,-0.674 3.376,-1.011 5.307,-1.011c1.956,0 3.738,0.334 5.345,1.001c1.607,0.667 2.987,1.617 4.14,2.848c1.153,1.231 2.047,2.711 2.682,4.441c0.635,1.73 0.953,3.651 0.953,5.763Zm-2.061,0c0,-1.918 -0.265,-3.641 -0.796,-5.17c-0.532,-1.529 -1.28,-2.825 -2.246,-3.888c-0.965,-1.062 -2.128,-1.875 -3.489,-2.439c-1.36,-0.564 -2.87,-0.846 -4.528,-0.846c-1.633,0 -3.127,0.282 -4.481,0.846c-1.354,0.564 -2.52,1.377 -3.498,2.439c-0.979,1.063 -1.737,2.359 -2.275,3.888c-0.537,1.529 -0.806,3.252 -0.806,5.17c0,1.931 0.269,3.658 0.806,5.18c0.538,1.523 1.296,2.816 2.275,3.878c0.978,1.063 2.144,1.873 3.498,2.43c1.354,0.557 2.848,0.836 4.481,0.836c1.658,0 3.168,-0.279 4.528,-0.836c1.361,-0.557 2.524,-1.367 3.489,-2.43c0.966,-1.062 1.714,-2.355 2.246,-3.878c0.531,-1.522 0.796,-3.249 0.796,-5.18Z" style="fill:#fff;fill-rule:nonzero;"/><path d="M141.135,0.311l1.652,0c0.376,0 0.616,0.175 0.719,0.525l6.94,22.606c0.077,0.259 0.145,0.537 0.204,0.835c0.058,0.298 0.12,0.609 0.184,0.933c0.065,-0.324 0.13,-0.635 0.195,-0.933c0.064,-0.298 0.142,-0.576 0.233,-0.835l7.775,-22.606c0.052,-0.143 0.142,-0.266 0.272,-0.37c0.13,-0.103 0.285,-0.155 0.467,-0.155l0.544,0c0.181,0 0.33,0.049 0.447,0.146c0.116,0.097 0.207,0.223 0.272,0.379l7.775,22.606c0.091,0.259 0.172,0.531 0.243,0.816c0.071,0.285 0.139,0.589 0.204,0.913c0.065,-0.311 0.123,-0.612 0.175,-0.903c0.052,-0.292 0.117,-0.567 0.194,-0.826l6.939,-22.606c0.039,-0.143 0.127,-0.266 0.263,-0.37c0.136,-0.103 0.295,-0.155 0.476,-0.155l1.516,0l-8.649,27.504l-1.789,0l-8.125,-23.869c-0.103,-0.311 -0.194,-0.642 -0.272,-0.992c-0.077,0.35 -0.168,0.681 -0.272,0.992l-8.144,23.869l-1.769,0l-8.669,-27.504Z" style="fill:#fff;fill-rule:nonzero;"/><path d="M202.693,27.815l-1.535,0c-0.182,0 -0.331,-0.049 -0.447,-0.146c-0.117,-0.097 -0.208,-0.223 -0.272,-0.379l-3.246,-7.989l-13.509,0l-3.227,7.989c-0.052,0.143 -0.143,0.266 -0.272,0.369c-0.13,0.104 -0.285,0.156 -0.467,0.156l-1.516,0l11.254,-27.504l1.983,0l11.254,27.504Zm-18.407,-9.991l12.323,0l-5.617,-13.898c-0.091,-0.22 -0.181,-0.469 -0.272,-0.748c-0.091,-0.279 -0.182,-0.573 -0.272,-0.884c-0.091,0.311 -0.182,0.605 -0.272,0.884c-0.091,0.279 -0.182,0.535 -0.272,0.768l-5.618,13.878Z" style="fill:#fff;fill-rule:nonzero;"/><path d="M210.799,0.311l1.652,0c0.376,0 0.615,0.175 0.719,0.525l6.939,22.606c0.078,0.259 0.146,0.537 0.204,0.835c0.059,0.298 0.12,0.609 0.185,0.933c0.065,-0.324 0.13,-0.635 0.194,-0.933c0.065,-0.298 0.143,-0.576 0.234,-0.835l7.775,-22.606c0.051,-0.143 0.142,-0.266 0.272,-0.37c0.129,-0.103 0.285,-0.155 0.466,-0.155l0.544,0c0.182,0 0.331,0.049 0.448,0.146c0.116,0.097 0.207,0.223 0.272,0.379l7.775,22.606c0.09,0.259 0.171,0.531 0.243,0.816c0.071,0.285 0.139,0.589 0.204,0.913c0.064,-0.311 0.123,-0.612 0.175,-0.903c0.051,-0.292 0.116,-0.567 0.194,-0.826l6.939,-22.606c0.039,-0.143 0.126,-0.266 0.263,-0.37c0.136,-0.103 0.294,-0.155 0.476,-0.155l1.516,0l-8.65,27.504l-1.788,0l-8.125,-23.869c-0.104,-0.311 -0.194,-0.642 -0.272,-0.992c-0.078,0.35 -0.168,0.681 -0.272,0.992l-8.144,23.869l-1.769,0l-8.669,-27.504Z" style="fill:#fff;fill-rule:nonzero;"/><path d="M261.492,16.463l0,11.352l-2.003,0l0,-11.352l-10.165,-16.152l1.73,0c0.181,0 0.327,0.042 0.437,0.126c0.11,0.085 0.217,0.204 0.321,0.36l7.872,12.634c0.181,0.298 0.337,0.587 0.466,0.865c0.13,0.279 0.247,0.561 0.35,0.846c0.104,-0.285 0.22,-0.567 0.35,-0.846c0.13,-0.278 0.285,-0.567 0.467,-0.865l7.852,-12.634c0.078,-0.143 0.175,-0.259 0.292,-0.35c0.116,-0.091 0.266,-0.136 0.447,-0.136l1.749,0l-10.165,16.152Z" style="fill:#fff;fill-rule:nonzero;"/><path d="M289.54,3.654c-0.117,0.221 -0.285,0.331 -0.506,0.331c-0.169,0 -0.386,-0.12 -0.653,-0.36c-0.266,-0.24 -0.627,-0.505 -1.082,-0.797c-0.455,-0.291 -1.024,-0.56 -1.706,-0.807c-0.683,-0.246 -1.525,-0.369 -2.526,-0.369c-1.001,0 -1.881,0.143 -2.642,0.428c-0.76,0.285 -1.397,0.674 -1.911,1.166c-0.514,0.492 -0.904,1.063 -1.17,1.711c-0.267,0.647 -0.4,1.328 -0.4,2.04c0,0.933 0.198,1.704 0.594,2.314c0.396,0.609 0.918,1.127 1.567,1.555c0.649,0.427 1.385,0.787 2.209,1.078c0.824,0.292 1.671,0.58 2.54,0.865c0.87,0.285 1.716,0.6 2.54,0.943c0.824,0.343 1.561,0.774 2.21,1.293c0.648,0.518 1.171,1.156 1.567,1.914c0.395,0.758 0.593,1.701 0.593,2.828c0,1.154 -0.197,2.239 -0.593,3.256c-0.395,1.017 -0.968,1.902 -1.72,2.653c-0.751,0.752 -1.671,1.345 -2.76,1.779c-1.088,0.434 -2.332,0.651 -3.732,0.651c-1.814,0 -3.376,-0.321 -4.684,-0.962c-1.309,-0.642 -2.456,-1.52 -3.441,-2.634l0.545,-0.855c0.155,-0.195 0.336,-0.292 0.544,-0.292c0.117,0 0.266,0.078 0.447,0.233c0.182,0.156 0.403,0.347 0.662,0.574c0.26,0.227 0.571,0.473 0.935,0.738c0.363,0.266 0.785,0.512 1.265,0.739c0.48,0.227 1.031,0.418 1.654,0.574c0.623,0.155 1.33,0.233 2.122,0.233c1.09,0 2.063,-0.165 2.92,-0.496c0.856,-0.33 1.579,-0.781 2.17,-1.351c0.59,-0.57 1.041,-1.247 1.353,-2.031c0.311,-0.784 0.467,-1.623 0.467,-2.517c0,-0.972 -0.198,-1.772 -0.594,-2.401c-0.396,-0.628 -0.918,-1.153 -1.567,-1.574c-0.649,-0.421 -1.385,-0.774 -2.209,-1.059c-0.824,-0.286 -1.671,-0.564 -2.54,-0.836c-0.87,-0.272 -1.716,-0.577 -2.54,-0.914c-0.824,-0.337 -1.561,-0.768 -2.21,-1.292c-0.649,-0.525 -1.171,-1.18 -1.567,-1.964c-0.395,-0.784 -0.593,-1.765 -0.593,-2.944c0,-0.92 0.175,-1.808 0.525,-2.663c0.351,-0.856 0.863,-1.61 1.538,-2.265c0.675,-0.654 1.508,-1.179 2.501,-1.574c0.993,-0.395 2.125,-0.593 3.397,-0.593c1.427,0 2.708,0.227 3.844,0.68c1.135,0.454 2.17,1.147 3.103,2.08l-0.466,0.894Z" style="fill:#fff;fill-rule:nonzero;"/><path d="M305.109,16.463l0,11.352l-2.002,0l0,-11.352l-10.166,-16.152l1.73,0c0.182,0 0.327,0.042 0.438,0.126c0.11,0.085 0.217,0.204 0.32,0.36l7.872,12.634c0.182,0.298 0.337,0.587 0.467,0.865c0.129,0.279 0.246,0.561 0.35,0.846c0.103,-0.285 0.22,-0.567 0.35,-0.846c0.129,-0.278 0.285,-0.567 0.466,-0.865l7.853,-12.634c0.078,-0.143 0.175,-0.259 0.291,-0.35c0.117,-0.091 0.266,-0.136 0.447,-0.136l1.75,0l-10.166,16.152Z" style="fill:#fff;fill-rule:nonzero;"/><path d="M322.661,13.781l8.105,-4.218l0,1.225c0,0.142 -0.025,0.259 -0.077,0.35c-0.052,0.09 -0.149,0.175 -0.292,0.252l-7.736,4.121l0,10.613l13.043,0l0,1.691l-15.026,0l0,-11.41l-3.79,1.963l0,-1.283c0,-0.246 0.117,-0.434 0.35,-0.563l3.44,-1.808l0,-14.403l1.983,0l0,13.47Z" style="fill:#fff;fill-rule:nonzero;"/><path d="M343.129,13.004l1.632,0c0.247,0 0.46,-0.01 0.642,-0.03c0.181,-0.019 0.346,-0.058 0.495,-0.116c0.15,-0.058 0.289,-0.133 0.418,-0.224c0.13,-0.09 0.266,-0.207 0.409,-0.35l11.098,-11.409c0.208,-0.208 0.399,-0.353 0.574,-0.438c0.175,-0.084 0.392,-0.126 0.651,-0.126l1.613,0l-12.012,12.343c-0.246,0.259 -0.463,0.46 -0.651,0.602c-0.188,0.143 -0.399,0.259 -0.632,0.35c0.272,0.078 0.515,0.198 0.729,0.36c0.214,0.162 0.431,0.372 0.651,0.631l12.673,13.218l-1.613,0c-0.337,0 -0.577,-0.049 -0.719,-0.146c-0.143,-0.097 -0.292,-0.223 -0.447,-0.379l-11.643,-11.896c-0.143,-0.142 -0.272,-0.265 -0.389,-0.369c-0.117,-0.104 -0.249,-0.191 -0.399,-0.262c-0.149,-0.072 -0.327,-0.123 -0.534,-0.156c-0.207,-0.032 -0.467,-0.048 -0.778,-0.048l-1.768,0l0,13.256l-1.983,0l0,-27.543l1.983,0l0,12.732Z" style="fill:#fff;fill-rule:nonzero;"/><path d="M386.921,27.815l-1.535,0c-0.182,0 -0.331,-0.049 -0.447,-0.146c-0.117,-0.097 -0.208,-0.223 -0.273,-0.379l-3.246,-7.989l-13.509,0l-3.226,7.989c-0.052,0.143 -0.143,0.266 -0.272,0.369c-0.13,0.104 -0.285,0.156 -0.467,0.156l-1.516,0l11.254,-27.504l1.983,0l11.254,27.504Zm-18.407,-9.991l12.323,0l-5.617,-13.898c-0.091,-0.22 -0.182,-0.469 -0.272,-0.748c-0.091,-0.279 -0.182,-0.573 -0.272,-0.884c-0.091,0.311 -0.182,0.605 -0.273,0.884c-0.09,0.279 -0.181,0.535 -0.272,0.768l-5.617,13.878Z" style="fill:#fff;fill-rule:nonzero;"/><path d="M21.417,276.071l-0.398,0.678l-1.563,-0.904c-0.109,-0.066 -0.205,-0.133 -0.29,-0.199c-0.084,-0.066 -0.159,-0.15 -0.225,-0.253c0.096,0.199 0.144,0.419 0.144,0.66l0,1.789l-0.795,0l0,-1.78c0,-0.121 0.008,-0.232 0.023,-0.334c0.015,-0.103 0.046,-0.202 0.094,-0.299c-0.066,0.085 -0.138,0.16 -0.216,0.226c-0.079,0.067 -0.169,0.13 -0.271,0.19l-1.555,0.895l-0.397,-0.678l1.554,-0.904c0.229,-0.138 0.458,-0.211 0.687,-0.217c-0.121,-0.012 -0.237,-0.034 -0.348,-0.067c-0.112,-0.033 -0.225,-0.086 -0.339,-0.158l-1.563,-0.913l0.397,-0.678l1.564,0.904c0.108,0.066 0.204,0.135 0.289,0.208c0.084,0.072 0.159,0.159 0.226,0.262c-0.097,-0.211 -0.145,-0.437 -0.145,-0.678l0,-1.789l0.795,0l0,1.78c0,0.12 -0.007,0.233 -0.022,0.339c-0.015,0.105 -0.047,0.206 -0.095,0.302c0.066,-0.084 0.138,-0.159 0.217,-0.225c0.078,-0.067 0.168,-0.133 0.271,-0.199l1.554,-0.895l0.397,0.678l-1.554,0.904c-0.102,0.066 -0.205,0.117 -0.307,0.153c-0.102,0.036 -0.211,0.06 -0.325,0.072c0.114,0.012 0.223,0.035 0.325,0.068c0.102,0.033 0.205,0.083 0.307,0.149l1.564,0.913Z" style="fill:#fff;fill-rule:nonzero;"/><path d="M25.32,277.815c0.199,-0.223 0.41,-0.425 0.633,-0.606c0.223,-0.18 0.459,-0.335 0.709,-0.465c0.25,-0.129 0.515,-0.229 0.795,-0.298c0.28,-0.069 0.583,-0.104 0.908,-0.104c0.5,0 0.942,0.083 1.324,0.249c0.383,0.165 0.702,0.4 0.958,0.704c0.256,0.305 0.45,0.671 0.583,1.098c0.132,0.428 0.199,0.901 0.199,1.419l0,5.828l-1.618,0l0,-5.828c0,-0.693 -0.158,-1.231 -0.474,-1.613c-0.317,-0.383 -0.797,-0.574 -1.442,-0.574c-0.475,0 -0.92,0.115 -1.332,0.344c-0.413,0.228 -0.794,0.539 -1.143,0.93l0,6.741l-1.618,0l0,-9.153l0.967,0c0.229,0 0.37,0.111 0.425,0.334l0.126,0.994Z" style="fill:#fff;fill-rule:nonzero;"/><path d="M35.585,276.487l0,9.153l-1.608,0l0,-9.153l1.608,0Zm0.344,-2.874c0,0.157 -0.032,0.303 -0.095,0.438c-0.064,0.136 -0.148,0.256 -0.253,0.362c-0.106,0.105 -0.229,0.188 -0.371,0.248c-0.141,0.061 -0.29,0.091 -0.447,0.091c-0.157,0 -0.303,-0.03 -0.438,-0.091c-0.136,-0.06 -0.255,-0.143 -0.357,-0.248c-0.103,-0.106 -0.184,-0.226 -0.244,-0.362c-0.06,-0.135 -0.091,-0.281 -0.091,-0.438c0,-0.157 0.031,-0.306 0.091,-0.447c0.06,-0.142 0.141,-0.265 0.244,-0.371c0.102,-0.105 0.221,-0.188 0.357,-0.248c0.135,-0.06 0.281,-0.091 0.438,-0.091c0.157,0 0.306,0.031 0.447,0.091c0.142,0.06 0.265,0.143 0.371,0.248c0.105,0.106 0.189,0.229 0.253,0.371c0.063,0.141 0.095,0.29 0.095,0.447Z" style="fill:#fff;fill-rule:nonzero;"/><path d="M44.35,280.065c0,-0.374 -0.052,-0.715 -0.158,-1.026c-0.105,-0.31 -0.259,-0.578 -0.461,-0.804c-0.201,-0.226 -0.447,-0.401 -0.736,-0.524c-0.289,-0.124 -0.618,-0.185 -0.985,-0.185c-0.771,0 -1.381,0.224 -1.83,0.673c-0.449,0.449 -0.727,1.071 -0.836,1.866l5.006,0Zm1.302,4.292c-0.199,0.241 -0.437,0.45 -0.714,0.628c-0.277,0.178 -0.574,0.324 -0.89,0.438c-0.317,0.115 -0.643,0.201 -0.981,0.258c-0.337,0.057 -0.672,0.086 -1.003,0.086c-0.632,0 -1.215,-0.107 -1.748,-0.321c-0.533,-0.214 -0.994,-0.527 -1.383,-0.94c-0.388,-0.412 -0.691,-0.923 -0.908,-1.531c-0.217,-0.609 -0.325,-1.308 -0.325,-2.097c0,-0.638 0.098,-1.235 0.293,-1.789c0.196,-0.554 0.478,-1.035 0.845,-1.441c0.368,-0.407 0.816,-0.726 1.347,-0.958c0.53,-0.232 1.126,-0.348 1.789,-0.348c0.548,0 1.056,0.092 1.522,0.276c0.467,0.183 0.871,0.448 1.211,0.795c0.341,0.346 0.607,0.774 0.8,1.283c0.193,0.509 0.289,1.089 0.289,1.739c0,0.253 -0.027,0.422 -0.081,0.506c-0.054,0.085 -0.157,0.127 -0.307,0.127l-6.118,0c0.018,0.578 0.098,1.081 0.239,1.509c0.142,0.428 0.339,0.785 0.592,1.071c0.253,0.286 0.555,0.5 0.904,0.641c0.349,0.142 0.741,0.213 1.175,0.213c0.403,0 0.751,-0.047 1.043,-0.14c0.293,-0.094 0.544,-0.195 0.755,-0.303c0.211,-0.109 0.387,-0.209 0.528,-0.303c0.142,-0.093 0.264,-0.14 0.366,-0.14c0.133,0 0.235,0.051 0.308,0.154l0.452,0.587Z" style="fill:#fff;fill-rule:nonzero;"/><path d="M58.356,278.664c-0.301,-0.403 -0.626,-0.685 -0.976,-0.845c-0.349,-0.159 -0.741,-0.239 -1.174,-0.239c-0.85,0 -1.503,0.304 -1.961,0.913c-0.458,0.608 -0.687,1.476 -0.687,2.602c0,0.596 0.051,1.107 0.154,1.532c0.102,0.424 0.253,0.774 0.452,1.048c0.198,0.274 0.442,0.474 0.731,0.601c0.29,0.126 0.618,0.19 0.985,0.19c0.531,0 0.993,-0.121 1.387,-0.362c0.395,-0.241 0.758,-0.581 1.089,-1.021l0,-4.419Zm1.609,-6.334l0,13.31l-0.958,0c-0.229,0 -0.374,-0.111 -0.434,-0.334l-0.144,-1.112c-0.392,0.47 -0.838,0.85 -1.338,1.139c-0.5,0.289 -1.078,0.434 -1.735,0.434c-0.524,0 -1,-0.101 -1.427,-0.303c-0.428,-0.202 -0.793,-0.498 -1.094,-0.89c-0.301,-0.392 -0.533,-0.88 -0.696,-1.464c-0.162,-0.584 -0.244,-1.256 -0.244,-2.015c0,-0.675 0.091,-1.303 0.272,-1.884c0.18,-0.581 0.439,-1.086 0.777,-1.514c0.337,-0.427 0.751,-0.763 1.242,-1.007c0.491,-0.244 1.044,-0.366 1.658,-0.366c0.561,0 1.041,0.095 1.442,0.285c0.4,0.189 0.757,0.453 1.07,0.79l0,-5.069l1.609,0Z" style="fill:#fff;fill-rule:nonzero;"/><path d="M66.371,276.342c0.669,0 1.272,0.111 1.808,0.334c0.536,0.223 0.994,0.54 1.373,0.949c0.38,0.41 0.67,0.905 0.872,1.487c0.202,0.581 0.303,1.23 0.303,1.947c0,0.723 -0.101,1.373 -0.303,1.952c-0.202,0.578 -0.492,1.072 -0.872,1.482c-0.379,0.409 -0.837,0.724 -1.373,0.944c-0.536,0.22 -1.139,0.33 -1.808,0.33c-0.674,0 -1.281,-0.11 -1.82,-0.33c-0.54,-0.22 -0.999,-0.535 -1.378,-0.944c-0.38,-0.41 -0.671,-0.904 -0.872,-1.482c-0.202,-0.579 -0.303,-1.229 -0.303,-1.952c0,-0.717 0.101,-1.366 0.303,-1.947c0.201,-0.582 0.492,-1.077 0.872,-1.487c0.379,-0.409 0.838,-0.726 1.378,-0.949c0.539,-0.223 1.146,-0.334 1.82,-0.334Zm0,8.169c0.904,0 1.579,-0.303 2.025,-0.908c0.445,-0.606 0.668,-1.451 0.668,-2.535c0,-1.09 -0.223,-1.94 -0.668,-2.548c-0.446,-0.609 -1.121,-0.913 -2.025,-0.913c-0.457,0 -0.856,0.078 -1.197,0.235c-0.34,0.157 -0.623,0.383 -0.849,0.678c-0.226,0.295 -0.395,0.658 -0.506,1.089c-0.112,0.43 -0.167,0.917 -0.167,1.459c0,1.084 0.224,1.929 0.673,2.535c0.449,0.605 1.131,0.908 2.046,0.908Z" style="fill:#fff;fill-rule:nonzero;"/><path d="M75.408,285.785c-0.723,0 -1.279,-0.202 -1.668,-0.606c-0.388,-0.403 -0.582,-0.985 -0.582,-1.744l0,-5.602l-1.103,0c-0.096,0 -0.178,-0.029 -0.244,-0.086c-0.066,-0.057 -0.099,-0.146 -0.099,-0.266l0,-0.642l1.5,-0.19l0.37,-2.828c0.018,-0.09 0.059,-0.164 0.122,-0.221c0.064,-0.058 0.146,-0.086 0.249,-0.086l0.813,0l0,3.153l2.648,0l0,1.166l-2.648,0l0,5.494c0,0.386 0.093,0.672 0.28,0.858c0.187,0.187 0.428,0.281 0.723,0.281c0.169,0 0.315,-0.023 0.438,-0.068c0.124,-0.045 0.231,-0.095 0.321,-0.149c0.09,-0.055 0.167,-0.104 0.231,-0.149c0.063,-0.046 0.118,-0.068 0.167,-0.068c0.084,0 0.159,0.051 0.226,0.153l0.469,0.768c-0.277,0.26 -0.611,0.463 -1.003,0.61c-0.391,0.148 -0.795,0.222 -1.21,0.222Z" style="fill:#fff;fill-rule:nonzero;"/><path d="M86.974,276.487l-5.106,11.855c-0.054,0.121 -0.122,0.217 -0.203,0.289c-0.081,0.072 -0.206,0.109 -0.375,0.109l-1.193,0l1.672,-3.633l-3.777,-8.62l1.392,0c0.138,0 0.248,0.034 0.329,0.104c0.082,0.069 0.137,0.146 0.168,0.23l2.448,5.765c0.097,0.253 0.178,0.518 0.244,0.795c0.085,-0.283 0.175,-0.551 0.271,-0.804l2.377,-5.756c0.036,-0.096 0.098,-0.176 0.185,-0.24c0.087,-0.063 0.185,-0.094 0.294,-0.094l1.274,0Z" style="fill:#fff;fill-rule:nonzero;"/><path d="M94.51,278.113c-0.048,0.066 -0.096,0.118 -0.145,0.154c-0.048,0.036 -0.114,0.054 -0.198,0.054c-0.091,0 -0.19,-0.038 -0.299,-0.113c-0.108,-0.075 -0.242,-0.158 -0.402,-0.249c-0.159,-0.09 -0.355,-0.173 -0.587,-0.248c-0.232,-0.075 -0.517,-0.113 -0.854,-0.113c-0.452,0 -0.849,0.08 -1.193,0.24c-0.343,0.159 -0.631,0.39 -0.863,0.691c-0.232,0.301 -0.406,0.665 -0.524,1.093c-0.117,0.428 -0.176,0.907 -0.176,1.437c0,0.554 0.063,1.047 0.19,1.477c0.126,0.431 0.306,0.792 0.537,1.085c0.232,0.292 0.513,0.515 0.841,0.668c0.328,0.154 0.697,0.231 1.107,0.231c0.391,0 0.714,-0.047 0.967,-0.14c0.253,-0.094 0.462,-0.198 0.628,-0.312c0.165,-0.115 0.304,-0.218 0.415,-0.312c0.112,-0.093 0.222,-0.14 0.33,-0.14c0.133,0 0.235,0.051 0.307,0.154l0.452,0.587c-0.199,0.247 -0.425,0.458 -0.678,0.633c-0.253,0.174 -0.525,0.32 -0.817,0.438c-0.292,0.117 -0.598,0.203 -0.917,0.257c-0.32,0.055 -0.645,0.082 -0.976,0.082c-0.573,0 -1.104,-0.106 -1.595,-0.317c-0.491,-0.21 -0.917,-0.516 -1.279,-0.917c-0.361,-0.4 -0.644,-0.893 -0.849,-1.477c-0.205,-0.584 -0.308,-1.25 -0.308,-1.997c0,-0.681 0.095,-1.31 0.285,-1.889c0.19,-0.578 0.467,-1.076 0.831,-1.495c0.365,-0.419 0.814,-0.746 1.347,-0.981c0.533,-0.235 1.146,-0.352 1.839,-0.352c0.644,0 1.212,0.104 1.703,0.312c0.491,0.208 0.926,0.501 1.306,0.881l-0.425,0.578Z" style="fill:#fff;fill-rule:nonzero;"/><path d="M103.085,277.173c0,0.115 -0.019,0.226 -0.058,0.335c-0.04,0.108 -0.092,0.201 -0.158,0.28l-4.961,6.596l5.006,0l0,1.256l-6.895,0l0,-0.668c0,-0.079 0.018,-0.171 0.054,-0.276c0.036,-0.105 0.091,-0.206 0.163,-0.303l4.988,-6.641l-4.925,0l0,-1.265l6.786,0l0,0.686Z" style="fill:#fff;fill-rule:nonzero;"/><path d="M112.835,276.487l-5.105,11.855c-0.054,0.121 -0.122,0.217 -0.203,0.289c-0.082,0.072 -0.207,0.109 -0.375,0.109l-1.193,0l1.672,-3.633l-3.778,-8.62l1.392,0c0.139,0 0.249,0.034 0.33,0.104c0.081,0.069 0.137,0.146 0.167,0.23l2.449,5.765c0.096,0.253 0.178,0.518 0.244,0.795c0.084,-0.283 0.174,-0.551 0.271,-0.804l2.376,-5.756c0.037,-0.096 0.098,-0.176 0.186,-0.24c0.087,-0.063 0.185,-0.094 0.293,-0.094l1.274,0Z" style="fill:#fff;fill-rule:nonzero;"/><path d="M123.769,277.996c-0.072,0.132 -0.184,0.198 -0.334,0.198c-0.091,0 -0.193,-0.033 -0.307,-0.099c-0.115,-0.066 -0.255,-0.14 -0.421,-0.221c-0.165,-0.082 -0.363,-0.157 -0.591,-0.226c-0.229,-0.07 -0.5,-0.104 -0.814,-0.104c-0.271,0 -0.515,0.034 -0.732,0.104c-0.217,0.069 -0.402,0.164 -0.555,0.284c-0.154,0.121 -0.271,0.261 -0.353,0.421c-0.081,0.159 -0.122,0.332 -0.122,0.519c0,0.235 0.068,0.431 0.204,0.587c0.135,0.157 0.314,0.293 0.537,0.407c0.223,0.115 0.476,0.215 0.759,0.303c0.283,0.087 0.574,0.181 0.872,0.28c0.298,0.099 0.589,0.209 0.872,0.33c0.283,0.12 0.536,0.271 0.759,0.452c0.223,0.18 0.402,0.402 0.538,0.664c0.135,0.262 0.203,0.577 0.203,0.944c0,0.422 -0.075,0.812 -0.226,1.17c-0.15,0.359 -0.373,0.669 -0.668,0.931c-0.296,0.262 -0.657,0.468 -1.085,0.619c-0.427,0.151 -0.921,0.226 -1.482,0.226c-0.638,0 -1.216,-0.104 -1.735,-0.312c-0.518,-0.208 -0.957,-0.474 -1.319,-0.8l0.38,-0.614c0.048,-0.078 0.105,-0.139 0.171,-0.181c0.067,-0.042 0.151,-0.063 0.253,-0.063c0.109,0 0.223,0.042 0.344,0.126c0.12,0.085 0.266,0.178 0.438,0.281c0.172,0.102 0.381,0.195 0.628,0.28c0.247,0.084 0.554,0.126 0.922,0.126c0.313,0 0.587,-0.04 0.822,-0.122c0.235,-0.081 0.431,-0.191 0.587,-0.33c0.157,-0.138 0.273,-0.298 0.348,-0.479c0.076,-0.18 0.113,-0.373 0.113,-0.578c0,-0.253 -0.068,-0.462 -0.203,-0.628c-0.136,-0.166 -0.315,-0.307 -0.538,-0.425c-0.223,-0.117 -0.477,-0.219 -0.763,-0.307c-0.286,-0.087 -0.579,-0.179 -0.877,-0.275c-0.298,-0.097 -0.59,-0.207 -0.876,-0.33c-0.286,-0.124 -0.541,-0.279 -0.764,-0.466c-0.223,-0.186 -0.402,-0.417 -0.538,-0.691c-0.135,-0.274 -0.203,-0.607 -0.203,-0.998c0,-0.35 0.072,-0.686 0.217,-1.008c0.145,-0.322 0.355,-0.605 0.633,-0.849c0.277,-0.244 0.617,-0.439 1.021,-0.583c0.403,-0.145 0.864,-0.217 1.382,-0.217c0.603,0 1.143,0.095 1.622,0.285c0.479,0.189 0.893,0.45 1.243,0.781l-0.362,0.588Z" style="fill:#fff;fill-rule:nonzero;"/><path d="M132.39,280.065c0,-0.374 -0.053,-0.715 -0.158,-1.026c-0.106,-0.31 -0.26,-0.578 -0.461,-0.804c-0.202,-0.226 -0.448,-0.401 -0.737,-0.524c-0.289,-0.124 -0.617,-0.185 -0.985,-0.185c-0.771,0 -1.381,0.224 -1.83,0.673c-0.448,0.449 -0.727,1.071 -0.835,1.866l5.006,0Zm1.301,4.292c-0.199,0.241 -0.437,0.45 -0.714,0.628c-0.277,0.178 -0.574,0.324 -0.89,0.438c-0.316,0.115 -0.643,0.201 -0.98,0.258c-0.338,0.057 -0.672,0.086 -1.003,0.086c-0.633,0 -1.216,-0.107 -1.749,-0.321c-0.533,-0.214 -0.994,-0.527 -1.383,-0.94c-0.388,-0.412 -0.691,-0.923 -0.908,-1.531c-0.217,-0.609 -0.325,-1.308 -0.325,-2.097c0,-0.638 0.098,-1.235 0.294,-1.789c0.196,-0.554 0.477,-1.035 0.845,-1.441c0.367,-0.407 0.816,-0.726 1.346,-0.958c0.53,-0.232 1.127,-0.348 1.789,-0.348c0.548,0 1.056,0.092 1.523,0.276c0.467,0.183 0.87,0.448 1.211,0.795c0.34,0.346 0.607,0.774 0.799,1.283c0.193,0.509 0.289,1.089 0.289,1.739c0,0.253 -0.027,0.422 -0.081,0.506c-0.054,0.085 -0.156,0.127 -0.307,0.127l-6.118,0c0.018,0.578 0.098,1.081 0.24,1.509c0.141,0.428 0.339,0.785 0.592,1.071c0.253,0.286 0.554,0.5 0.903,0.641c0.35,0.142 0.741,0.213 1.175,0.213c0.404,0 0.752,-0.047 1.044,-0.14c0.292,-0.094 0.543,-0.195 0.754,-0.303c0.211,-0.109 0.387,-0.209 0.529,-0.303c0.141,-0.093 0.263,-0.14 0.366,-0.14c0.132,0 0.235,0.051 0.307,0.154l0.452,0.587Z" style="fill:#fff;fill-rule:nonzero;"/><path d="M137.332,278.321c0.29,-0.627 0.645,-1.116 1.067,-1.468c0.421,-0.353 0.936,-0.529 1.545,-0.529c0.193,0 0.378,0.021 0.556,0.063c0.177,0.042 0.335,0.109 0.474,0.199l-0.117,1.202c-0.037,0.15 -0.127,0.226 -0.272,0.226c-0.084,0 -0.207,-0.018 -0.37,-0.055c-0.163,-0.036 -0.346,-0.054 -0.551,-0.054c-0.289,0 -0.547,0.042 -0.773,0.127c-0.226,0.084 -0.428,0.209 -0.605,0.375c-0.178,0.165 -0.338,0.37 -0.479,0.614c-0.142,0.244 -0.27,0.523 -0.384,0.836l0,5.783l-1.618,0l0,-9.153l0.922,0c0.175,0 0.295,0.033 0.361,0.099c0.067,0.066 0.112,0.181 0.136,0.343l0.108,1.392Z" style="fill:#fff;fill-rule:nonzero;"/><path d="M155.007,276.487l-2.964,9.153l-1.274,0c-0.156,0 -0.265,-0.102 -0.325,-0.307l-2.024,-6.208c-0.048,-0.138 -0.088,-0.278 -0.118,-0.42c-0.03,-0.142 -0.06,-0.282 -0.09,-0.42c-0.03,0.138 -0.06,0.278 -0.09,0.42c-0.03,0.142 -0.07,0.285 -0.118,0.429l-2.06,6.199c-0.054,0.205 -0.175,0.307 -0.362,0.307l-1.21,0l-2.964,-9.153l1.265,0c0.126,0 0.233,0.033 0.321,0.099c0.087,0.066 0.146,0.145 0.176,0.235l1.753,5.892c0.102,0.433 0.184,0.843 0.244,1.228c0.054,-0.198 0.11,-0.4 0.167,-0.605c0.057,-0.205 0.119,-0.413 0.185,-0.623l1.934,-5.928c0.03,-0.091 0.083,-0.166 0.158,-0.226c0.075,-0.06 0.167,-0.09 0.276,-0.09l0.705,0c0.12,0 0.219,0.03 0.298,0.09c0.078,0.06 0.132,0.135 0.162,0.226l1.889,5.928c0.066,0.21 0.126,0.418 0.181,0.623c0.054,0.205 0.105,0.407 0.153,0.605c0.03,-0.198 0.068,-0.399 0.113,-0.6c0.045,-0.202 0.095,-0.412 0.149,-0.628l1.789,-5.892c0.031,-0.096 0.088,-0.176 0.172,-0.24c0.084,-0.063 0.184,-0.094 0.298,-0.094l1.211,0Z" style="fill:#fff;fill-rule:nonzero;"/><path d="M158.278,276.487l0,9.153l-1.608,0l0,-9.153l1.608,0Zm0.344,-2.874c0,0.157 -0.032,0.303 -0.095,0.438c-0.063,0.136 -0.148,0.256 -0.253,0.362c-0.106,0.105 -0.229,0.188 -0.371,0.248c-0.141,0.061 -0.29,0.091 -0.447,0.091c-0.157,0 -0.303,-0.03 -0.438,-0.091c-0.136,-0.06 -0.255,-0.143 -0.357,-0.248c-0.103,-0.106 -0.184,-0.226 -0.244,-0.362c-0.06,-0.135 -0.091,-0.281 -0.091,-0.438c0,-0.157 0.031,-0.306 0.091,-0.447c0.06,-0.142 0.141,-0.265 0.244,-0.371c0.102,-0.105 0.221,-0.188 0.357,-0.248c0.135,-0.06 0.281,-0.091 0.438,-0.091c0.157,0 0.306,0.031 0.447,0.091c0.142,0.06 0.265,0.143 0.371,0.248c0.105,0.106 0.19,0.229 0.253,0.371c0.063,0.141 0.095,0.29 0.095,0.447Z" style="fill:#fff;fill-rule:nonzero;"/><path d="M166.248,277.996c-0.072,0.132 -0.184,0.198 -0.334,0.198c-0.091,0 -0.193,-0.033 -0.307,-0.099c-0.115,-0.066 -0.255,-0.14 -0.421,-0.221c-0.165,-0.082 -0.363,-0.157 -0.591,-0.226c-0.229,-0.07 -0.5,-0.104 -0.814,-0.104c-0.271,0 -0.515,0.034 -0.732,0.104c-0.216,0.069 -0.402,0.164 -0.555,0.284c-0.154,0.121 -0.271,0.261 -0.353,0.421c-0.081,0.159 -0.122,0.332 -0.122,0.519c0,0.235 0.068,0.431 0.204,0.587c0.135,0.157 0.314,0.293 0.537,0.407c0.223,0.115 0.476,0.215 0.759,0.303c0.283,0.087 0.574,0.181 0.872,0.28c0.298,0.099 0.589,0.209 0.872,0.33c0.283,0.12 0.536,0.271 0.759,0.452c0.223,0.18 0.402,0.402 0.538,0.664c0.135,0.262 0.203,0.577 0.203,0.944c0,0.422 -0.075,0.812 -0.226,1.17c-0.15,0.359 -0.373,0.669 -0.668,0.931c-0.296,0.262 -0.657,0.468 -1.085,0.619c-0.427,0.151 -0.921,0.226 -1.482,0.226c-0.638,0 -1.216,-0.104 -1.735,-0.312c-0.518,-0.208 -0.957,-0.474 -1.319,-0.8l0.38,-0.614c0.048,-0.078 0.105,-0.139 0.171,-0.181c0.067,-0.042 0.151,-0.063 0.253,-0.063c0.109,0 0.223,0.042 0.344,0.126c0.12,0.085 0.266,0.178 0.438,0.281c0.172,0.102 0.381,0.195 0.628,0.28c0.247,0.084 0.554,0.126 0.922,0.126c0.313,0 0.587,-0.04 0.822,-0.122c0.235,-0.081 0.431,-0.191 0.587,-0.33c0.157,-0.138 0.273,-0.298 0.348,-0.479c0.076,-0.18 0.113,-0.373 0.113,-0.578c0,-0.253 -0.068,-0.462 -0.203,-0.628c-0.136,-0.166 -0.315,-0.307 -0.538,-0.425c-0.223,-0.117 -0.477,-0.219 -0.763,-0.307c-0.286,-0.087 -0.579,-0.179 -0.877,-0.275c-0.298,-0.097 -0.59,-0.207 -0.876,-0.33c-0.286,-0.124 -0.541,-0.279 -0.764,-0.466c-0.223,-0.186 -0.402,-0.417 -0.538,-0.691c-0.135,-0.274 -0.203,-0.607 -0.203,-0.998c0,-0.35 0.072,-0.686 0.217,-1.008c0.145,-0.322 0.355,-0.605 0.633,-0.849c0.277,-0.244 0.617,-0.439 1.021,-0.583c0.403,-0.145 0.864,-0.217 1.382,-0.217c0.603,0 1.143,0.095 1.622,0.285c0.479,0.189 0.893,0.45 1.243,0.781l-0.362,0.588Z" style="fill:#fff;fill-rule:nonzero;"/><path d="M172.601,276.342c0.668,0 1.271,0.111 1.807,0.334c0.536,0.223 0.994,0.54 1.373,0.949c0.38,0.41 0.671,0.905 0.872,1.487c0.202,0.581 0.303,1.23 0.303,1.947c0,0.723 -0.101,1.373 -0.303,1.952c-0.201,0.578 -0.492,1.072 -0.872,1.482c-0.379,0.409 -0.837,0.724 -1.373,0.944c-0.536,0.22 -1.139,0.33 -1.807,0.33c-0.675,0 -1.282,-0.11 -1.821,-0.33c-0.539,-0.22 -0.999,-0.535 -1.378,-0.944c-0.38,-0.41 -0.67,-0.904 -0.872,-1.482c-0.202,-0.579 -0.303,-1.229 -0.303,-1.952c0,-0.717 0.101,-1.366 0.303,-1.947c0.202,-0.582 0.492,-1.077 0.872,-1.487c0.379,-0.409 0.839,-0.726 1.378,-0.949c0.539,-0.223 1.146,-0.334 1.821,-0.334Zm0,8.169c0.903,0 1.578,-0.303 2.024,-0.908c0.445,-0.606 0.668,-1.451 0.668,-2.535c0,-1.09 -0.223,-1.94 -0.668,-2.548c-0.446,-0.609 -1.121,-0.913 -2.024,-0.913c-0.458,0 -0.857,0.078 -1.198,0.235c-0.34,0.157 -0.623,0.383 -0.849,0.678c-0.226,0.295 -0.395,0.658 -0.506,1.089c-0.112,0.43 -0.167,0.917 -0.167,1.459c0,1.084 0.224,1.929 0.673,2.535c0.449,0.605 1.131,0.908 2.047,0.908Zm2.638,-11.964l-2.105,2.331c-0.085,0.091 -0.167,0.155 -0.249,0.194c-0.081,0.04 -0.185,0.059 -0.311,0.059l-0.958,0l1.337,-2.187c0.084,-0.138 0.176,-0.239 0.276,-0.302c0.099,-0.064 0.245,-0.095 0.438,-0.095l1.572,0Z" style="fill:#fff;fill-rule:nonzero;"/><path d="M191.477,276.487l-2.964,9.153l-1.274,0c-0.156,0 -0.265,-0.102 -0.325,-0.307l-2.024,-6.208c-0.048,-0.138 -0.088,-0.278 -0.118,-0.42c-0.03,-0.142 -0.06,-0.282 -0.09,-0.42c-0.03,0.138 -0.06,0.278 -0.09,0.42c-0.031,0.142 -0.07,0.285 -0.118,0.429l-2.06,6.199c-0.054,0.205 -0.175,0.307 -0.362,0.307l-1.21,0l-2.964,-9.153l1.265,0c0.126,0 0.233,0.033 0.321,0.099c0.087,0.066 0.146,0.145 0.176,0.235l1.753,5.892c0.102,0.433 0.184,0.843 0.244,1.228c0.054,-0.198 0.11,-0.4 0.167,-0.605c0.057,-0.205 0.119,-0.413 0.185,-0.623l1.934,-5.928c0.03,-0.091 0.083,-0.166 0.158,-0.226c0.075,-0.06 0.167,-0.09 0.276,-0.09l0.704,0c0.121,0 0.22,0.03 0.299,0.09c0.078,0.06 0.132,0.135 0.162,0.226l1.889,5.928c0.066,0.21 0.126,0.418 0.181,0.623c0.054,0.205 0.105,0.407 0.153,0.605c0.03,-0.198 0.068,-0.399 0.113,-0.6c0.045,-0.202 0.095,-0.412 0.149,-0.628l1.789,-5.892c0.031,-0.096 0.088,-0.176 0.172,-0.24c0.084,-0.063 0.184,-0.094 0.298,-0.094l1.211,0Z" style="fill:#fff;fill-rule:nonzero;"/><path d="M205.031,284.167l0,1.473l-7.346,0l0,-12.949l1.744,0l0,11.476l5.602,0Z" style="fill:#fff;fill-rule:nonzero;"/><path d="M213.598,276.487l0,9.153l-0.958,0c-0.229,0 -0.374,-0.111 -0.434,-0.334l-0.126,-0.985c-0.398,0.44 -0.844,0.794 -1.338,1.062c-0.494,0.268 -1.06,0.402 -1.699,0.402c-0.5,0 -0.941,-0.083 -1.323,-0.249c-0.383,-0.165 -0.704,-0.399 -0.963,-0.7c-0.259,-0.301 -0.453,-0.666 -0.583,-1.093c-0.129,-0.428 -0.194,-0.901 -0.194,-1.419l0,-5.837l1.609,0l0,5.837c0,0.693 0.158,1.229 0.474,1.608c0.316,0.38 0.8,0.57 1.45,0.57c0.476,0 0.921,-0.113 1.333,-0.339c0.413,-0.226 0.794,-0.538 1.143,-0.935l0,-6.741l1.609,0Z" style="fill:#fff;fill-rule:nonzero;"/><path d="M217.763,283.435c0.296,0.398 0.619,0.678 0.972,0.841c0.352,0.162 0.739,0.244 1.161,0.244c0.861,0 1.521,-0.304 1.979,-0.913c0.458,-0.608 0.687,-1.515 0.687,-2.72c0,-1.12 -0.204,-1.944 -0.61,-2.471c-0.407,-0.527 -0.987,-0.791 -1.74,-0.791c-0.524,0 -0.98,0.121 -1.369,0.362c-0.388,0.241 -0.748,0.581 -1.08,1.021l0,4.427Zm0,-5.629c0.386,-0.446 0.821,-0.801 1.306,-1.066c0.485,-0.265 1.044,-0.398 1.676,-0.398c0.536,0 1.02,0.102 1.451,0.307c0.43,0.205 0.796,0.502 1.098,0.89c0.301,0.389 0.531,0.86 0.691,1.414c0.159,0.555 0.239,1.178 0.239,1.871c0,0.741 -0.09,1.416 -0.271,2.024c-0.181,0.608 -0.441,1.128 -0.781,1.559c-0.341,0.431 -0.755,0.765 -1.243,1.003c-0.488,0.238 -1.036,0.357 -1.645,0.357c-0.602,0 -1.109,-0.113 -1.522,-0.339c-0.413,-0.226 -0.773,-0.547 -1.08,-0.962l-0.081,0.831c-0.048,0.229 -0.187,0.343 -0.416,0.343l-1.039,0l0,-13.31l1.617,0l0,5.476Z" style="fill:#fff;fill-rule:nonzero;"/><path d="M227.965,276.487l0,9.153l-1.608,0l0,-9.153l1.608,0Zm0.344,-2.874c0,0.157 -0.032,0.303 -0.095,0.438c-0.064,0.136 -0.148,0.256 -0.253,0.362c-0.106,0.105 -0.229,0.188 -0.371,0.248c-0.141,0.061 -0.29,0.091 -0.447,0.091c-0.157,0 -0.303,-0.03 -0.438,-0.091c-0.136,-0.06 -0.255,-0.143 -0.357,-0.248c-0.103,-0.106 -0.184,-0.226 -0.244,-0.362c-0.06,-0.135 -0.091,-0.281 -0.091,-0.438c0,-0.157 0.031,-0.306 0.091,-0.447c0.06,-0.142 0.141,-0.265 0.244,-0.371c0.102,-0.105 0.221,-0.188 0.357,-0.248c0.135,-0.06 0.281,-0.091 0.438,-0.091c0.157,0 0.306,0.031 0.447,0.091c0.142,0.06 0.265,0.143 0.371,0.248c0.105,0.106 0.189,0.229 0.253,0.371c0.063,0.141 0.095,0.29 0.095,0.447Z" style="fill:#fff;fill-rule:nonzero;"/><path d="M235.565,281.52c-0.741,0.024 -1.372,0.083 -1.893,0.176c-0.522,0.093 -0.946,0.215 -1.275,0.366c-0.328,0.151 -0.566,0.328 -0.713,0.533c-0.148,0.205 -0.222,0.434 -0.222,0.687c0,0.241 0.039,0.449 0.118,0.623c0.078,0.175 0.185,0.318 0.32,0.43c0.136,0.111 0.296,0.192 0.479,0.243c0.184,0.052 0.381,0.077 0.592,0.077c0.283,0 0.542,-0.028 0.777,-0.086c0.235,-0.057 0.457,-0.14 0.665,-0.248c0.207,-0.108 0.406,-0.238 0.596,-0.389c0.19,-0.15 0.375,-0.322 0.556,-0.515l0,-1.897Zm-5.196,-3.741c0.506,-0.488 1.051,-0.853 1.635,-1.094c0.585,-0.241 1.232,-0.361 1.943,-0.361c0.512,0 0.967,0.084 1.365,0.253c0.397,0.169 0.732,0.404 1.003,0.705c0.271,0.301 0.476,0.665 0.614,1.093c0.139,0.428 0.208,0.898 0.208,1.41l0,5.855l-0.714,0c-0.157,0 -0.277,-0.025 -0.361,-0.077c-0.085,-0.051 -0.151,-0.152 -0.199,-0.302l-0.181,-0.868c-0.241,0.223 -0.476,0.42 -0.705,0.592c-0.229,0.172 -0.47,0.316 -0.723,0.434c-0.253,0.117 -0.522,0.208 -0.808,0.271c-0.287,0.063 -0.604,0.095 -0.954,0.095c-0.355,0 -0.689,-0.05 -1.003,-0.149c-0.313,-0.1 -0.586,-0.249 -0.817,-0.448c-0.232,-0.198 -0.416,-0.45 -0.552,-0.754c-0.135,-0.304 -0.203,-0.664 -0.203,-1.08c0,-0.361 0.099,-0.709 0.298,-1.044c0.199,-0.334 0.521,-0.631 0.967,-0.89c0.446,-0.259 1.027,-0.471 1.744,-0.637c0.717,-0.165 1.596,-0.26 2.639,-0.284l0,-0.714c0,-0.711 -0.154,-1.249 -0.461,-1.613c-0.307,-0.365 -0.756,-0.547 -1.347,-0.547c-0.397,0 -0.73,0.05 -0.998,0.149c-0.268,0.1 -0.5,0.211 -0.696,0.335c-0.196,0.123 -0.364,0.235 -0.506,0.334c-0.141,0.099 -0.282,0.149 -0.42,0.149c-0.109,0 -0.202,-0.029 -0.28,-0.086c-0.079,-0.057 -0.145,-0.128 -0.199,-0.212l-0.289,-0.515Z" style="fill:#fff;fill-rule:nonzero;"/><path d="M241.104,277.815c0.199,-0.223 0.409,-0.425 0.632,-0.606c0.223,-0.18 0.46,-0.335 0.71,-0.465c0.25,-0.129 0.515,-0.229 0.795,-0.298c0.28,-0.069 0.583,-0.104 0.908,-0.104c0.5,0 0.941,0.083 1.324,0.249c0.382,0.165 0.702,0.4 0.958,0.704c0.256,0.305 0.45,0.671 0.582,1.098c0.133,0.428 0.199,0.901 0.199,1.419l0,5.828l-1.617,0l0,-5.828c0,-0.693 -0.158,-1.231 -0.475,-1.613c-0.316,-0.383 -0.796,-0.574 -1.441,-0.574c-0.476,0 -0.92,0.115 -1.333,0.344c-0.412,0.228 -0.793,0.539 -1.143,0.93l0,6.741l-1.617,0l0,-9.153l0.967,0c0.229,0 0.37,0.111 0.424,0.334l0.127,0.994Z" style="fill:#fff;fill-rule:nonzero;"/><path d="M254.631,281.52c-0.741,0.024 -1.372,0.083 -1.893,0.176c-0.521,0.093 -0.946,0.215 -1.274,0.366c-0.329,0.151 -0.567,0.328 -0.714,0.533c-0.148,0.205 -0.221,0.434 -0.221,0.687c0,0.241 0.039,0.449 0.117,0.623c0.078,0.175 0.185,0.318 0.321,0.43c0.135,0.111 0.295,0.192 0.479,0.243c0.183,0.052 0.381,0.077 0.592,0.077c0.283,0 0.542,-0.028 0.777,-0.086c0.235,-0.057 0.456,-0.14 0.664,-0.248c0.208,-0.108 0.406,-0.238 0.596,-0.389c0.19,-0.15 0.375,-0.322 0.556,-0.515l0,-1.897Zm-5.196,-3.741c0.506,-0.488 1.051,-0.853 1.636,-1.094c0.584,-0.241 1.232,-0.361 1.942,-0.361c0.513,0 0.967,0.084 1.365,0.253c0.398,0.169 0.732,0.404 1.003,0.705c0.271,0.301 0.476,0.665 0.614,1.093c0.139,0.428 0.208,0.898 0.208,1.41l0,5.855l-0.714,0c-0.156,0 -0.277,-0.025 -0.361,-0.077c-0.084,-0.051 -0.151,-0.152 -0.199,-0.302l-0.181,-0.868c-0.241,0.223 -0.475,0.42 -0.704,0.592c-0.229,0.172 -0.47,0.316 -0.723,0.434c-0.253,0.117 -0.523,0.208 -0.809,0.271c-0.286,0.063 -0.604,0.095 -0.953,0.095c-0.356,0 -0.69,-0.05 -1.003,-0.149c-0.314,-0.1 -0.586,-0.249 -0.818,-0.448c-0.232,-0.198 -0.416,-0.45 -0.551,-0.754c-0.136,-0.304 -0.204,-0.664 -0.204,-1.08c0,-0.361 0.1,-0.709 0.299,-1.044c0.198,-0.334 0.521,-0.631 0.966,-0.89c0.446,-0.259 1.028,-0.471 1.744,-0.637c0.717,-0.165 1.597,-0.26 2.639,-0.284l0,-0.714c0,-0.711 -0.154,-1.249 -0.461,-1.613c-0.307,-0.365 -0.756,-0.547 -1.346,-0.547c-0.398,0 -0.731,0.05 -0.999,0.149c-0.268,0.1 -0.5,0.211 -0.696,0.335c-0.195,0.123 -0.364,0.235 -0.506,0.334c-0.141,0.099 -0.281,0.149 -0.42,0.149c-0.108,0 -0.202,-0.029 -0.28,-0.086c-0.078,-0.057 -0.144,-0.128 -0.199,-0.212l-0.289,-0.515Z" style="fill:#fff;fill-rule:nonzero;"/><path d="M264.977,276.487l0,9.153l-1.608,0l0,-9.153l1.608,0Zm0.344,-2.874c0,0.157 -0.032,0.303 -0.095,0.438c-0.063,0.136 -0.148,0.256 -0.253,0.362c-0.106,0.105 -0.229,0.188 -0.371,0.248c-0.141,0.061 -0.29,0.091 -0.447,0.091c-0.157,0 -0.303,-0.03 -0.438,-0.091c-0.136,-0.06 -0.255,-0.143 -0.357,-0.248c-0.103,-0.106 -0.184,-0.226 -0.244,-0.362c-0.06,-0.135 -0.09,-0.281 -0.09,-0.438c0,-0.157 0.03,-0.306 0.09,-0.447c0.06,-0.142 0.141,-0.265 0.244,-0.371c0.102,-0.105 0.221,-0.188 0.357,-0.248c0.135,-0.06 0.281,-0.091 0.438,-0.091c0.157,0 0.306,0.031 0.447,0.091c0.142,0.06 0.265,0.143 0.371,0.248c0.105,0.106 0.19,0.229 0.253,0.371c0.063,0.141 0.095,0.29 0.095,0.447Z" style="fill:#fff;fill-rule:nonzero;"/><path d="M274.366,278.366l0.66,0c0.228,0 0.412,-0.028 0.551,-0.086c0.138,-0.057 0.265,-0.155 0.379,-0.293l4.311,-4.88c0.12,-0.157 0.247,-0.265 0.379,-0.325c0.133,-0.06 0.295,-0.091 0.488,-0.091l1.482,0l-4.934,5.576c-0.12,0.144 -0.236,0.263 -0.348,0.357c-0.111,0.093 -0.23,0.17 -0.357,0.23c0.163,0.054 0.311,0.134 0.443,0.24c0.133,0.105 0.262,0.242 0.389,0.411l5.15,6.135l-1.518,0c-0.114,0 -0.212,-0.007 -0.293,-0.022c-0.082,-0.015 -0.153,-0.04 -0.213,-0.073c-0.06,-0.033 -0.113,-0.072 -0.158,-0.117c-0.045,-0.045 -0.089,-0.098 -0.131,-0.158l-4.464,-5.142c-0.12,-0.15 -0.25,-0.257 -0.388,-0.321c-0.139,-0.063 -0.35,-0.094 -0.633,-0.094l-0.795,0l0,5.927l-1.744,0l0,-12.949l1.744,0l0,5.675Z" style="fill:#fff;fill-rule:nonzero;"/><path d="M285.742,278.321c0.29,-0.627 0.645,-1.116 1.067,-1.468c0.421,-0.353 0.936,-0.529 1.545,-0.529c0.193,0 0.378,0.021 0.556,0.063c0.177,0.042 0.335,0.109 0.474,0.199l-0.117,1.202c-0.037,0.15 -0.127,0.226 -0.272,0.226c-0.084,0 -0.207,-0.018 -0.37,-0.055c-0.163,-0.036 -0.346,-0.054 -0.551,-0.054c-0.289,0 -0.547,0.042 -0.773,0.127c-0.226,0.084 -0.428,0.209 -0.605,0.375c-0.178,0.165 -0.338,0.37 -0.479,0.614c-0.142,0.244 -0.27,0.523 -0.384,0.836l0,5.783l-1.618,0l0,-9.153l0.922,0c0.175,0 0.295,0.033 0.361,0.099c0.067,0.066 0.112,0.181 0.136,0.343l0.108,1.392Z" style="fill:#fff;fill-rule:nonzero;"/><path d="M297.11,277.173c0,0.115 -0.02,0.226 -0.059,0.335c-0.039,0.108 -0.092,0.201 -0.158,0.28l-4.961,6.596l5.006,0l0,1.256l-6.894,0l0,-0.668c0,-0.079 0.018,-0.171 0.054,-0.276c0.036,-0.105 0.09,-0.206 0.163,-0.303l4.988,-6.641l-4.925,0l0,-1.265l6.786,0l0,0.686Z" style="fill:#fff;fill-rule:nonzero;"/><path d="M306.86,276.487l-5.105,11.855c-0.055,0.121 -0.122,0.217 -0.204,0.289c-0.081,0.072 -0.206,0.109 -0.375,0.109l-1.193,0l1.672,-3.633l-3.777,-8.62l1.392,0c0.138,0 0.248,0.034 0.329,0.104c0.082,0.069 0.137,0.146 0.168,0.23l2.448,5.765c0.097,0.253 0.178,0.518 0.244,0.795c0.085,-0.283 0.175,-0.551 0.271,-0.804l2.377,-5.756c0.036,-0.096 0.098,-0.176 0.185,-0.24c0.088,-0.063 0.185,-0.094 0.294,-0.094l1.274,0Z" style="fill:#fff;fill-rule:nonzero;"/><path d="M313.447,277.996c-0.072,0.132 -0.183,0.198 -0.334,0.198c-0.09,0 -0.193,-0.033 -0.307,-0.099c-0.115,-0.066 -0.255,-0.14 -0.42,-0.221c-0.166,-0.082 -0.363,-0.157 -0.592,-0.226c-0.229,-0.07 -0.5,-0.104 -0.814,-0.104c-0.271,0 -0.515,0.034 -0.731,0.104c-0.217,0.069 -0.403,0.164 -0.556,0.284c-0.154,0.121 -0.271,0.261 -0.353,0.421c-0.081,0.159 -0.122,0.332 -0.122,0.519c0,0.235 0.068,0.431 0.204,0.587c0.135,0.157 0.314,0.293 0.537,0.407c0.223,0.115 0.476,0.215 0.759,0.303c0.284,0.087 0.574,0.181 0.872,0.28c0.299,0.099 0.589,0.209 0.872,0.33c0.284,0.12 0.537,0.271 0.759,0.452c0.223,0.18 0.403,0.402 0.538,0.664c0.136,0.262 0.203,0.577 0.203,0.944c0,0.422 -0.075,0.812 -0.225,1.17c-0.151,0.359 -0.374,0.669 -0.669,0.931c-0.295,0.262 -0.657,0.468 -1.085,0.619c-0.427,0.151 -0.921,0.226 -1.481,0.226c-0.639,0 -1.217,-0.104 -1.735,-0.312c-0.518,-0.208 -0.958,-0.474 -1.32,-0.8l0.38,-0.614c0.048,-0.078 0.105,-0.139 0.172,-0.181c0.066,-0.042 0.15,-0.063 0.253,-0.063c0.108,0 0.222,0.042 0.343,0.126c0.12,0.085 0.266,0.178 0.438,0.281c0.172,0.102 0.381,0.195 0.628,0.28c0.247,0.084 0.554,0.126 0.922,0.126c0.313,0 0.587,-0.04 0.822,-0.122c0.235,-0.081 0.431,-0.191 0.588,-0.33c0.156,-0.138 0.272,-0.298 0.347,-0.479c0.076,-0.18 0.113,-0.373 0.113,-0.578c0,-0.253 -0.067,-0.462 -0.203,-0.628c-0.135,-0.166 -0.315,-0.307 -0.538,-0.425c-0.222,-0.117 -0.477,-0.219 -0.763,-0.307c-0.286,-0.087 -0.578,-0.179 -0.877,-0.275c-0.298,-0.097 -0.59,-0.207 -0.876,-0.33c-0.286,-0.124 -0.541,-0.279 -0.764,-0.466c-0.223,-0.186 -0.402,-0.417 -0.537,-0.691c-0.136,-0.274 -0.204,-0.607 -0.204,-0.998c0,-0.35 0.073,-0.686 0.217,-1.008c0.145,-0.322 0.356,-0.605 0.633,-0.849c0.277,-0.244 0.617,-0.439 1.021,-0.583c0.403,-0.145 0.864,-0.217 1.382,-0.217c0.603,0 1.143,0.095 1.622,0.285c0.479,0.189 0.893,0.45 1.243,0.781l-0.362,0.588Z" style="fill:#fff;fill-rule:nonzero;"/><path d="M322.258,277.173c0,0.115 -0.02,0.226 -0.059,0.335c-0.039,0.108 -0.092,0.201 -0.158,0.28l-4.961,6.596l5.006,0l0,1.256l-6.895,0l0,-0.668c0,-0.079 0.018,-0.171 0.055,-0.276c0.036,-0.105 0.09,-0.206 0.162,-0.303l4.988,-6.641l-4.925,0l0,-1.265l6.787,0l0,0.686Z" style="fill:#fff;fill-rule:nonzero;"/><path d="M326.92,285.785c-0.723,0 -1.278,-0.202 -1.667,-0.606c-0.388,-0.403 -0.583,-0.985 -0.583,-1.744l0,-5.602l-1.102,0c-0.097,0 -0.178,-0.029 -0.244,-0.086c-0.066,-0.057 -0.1,-0.146 -0.1,-0.266l0,-0.642l1.5,-0.19l0.371,-2.828c0.018,-0.09 0.059,-0.164 0.122,-0.221c0.063,-0.058 0.146,-0.086 0.248,-0.086l0.814,0l0,3.153l2.647,0l0,1.166l-2.647,0l0,5.494c0,0.386 0.093,0.672 0.28,0.858c0.187,0.187 0.428,0.281 0.723,0.281c0.168,0 0.314,-0.023 0.438,-0.068c0.123,-0.045 0.23,-0.095 0.321,-0.149c0.09,-0.055 0.167,-0.104 0.23,-0.149c0.063,-0.046 0.119,-0.068 0.167,-0.068c0.085,0 0.16,0.051 0.226,0.153l0.47,0.768c-0.277,0.26 -0.611,0.463 -1.003,0.61c-0.391,0.148 -0.795,0.222 -1.211,0.222Z" style="fill:#fff;fill-rule:nonzero;"/><path d="M334.402,276.342c0.669,0 1.271,0.111 1.807,0.334c0.537,0.223 0.994,0.54 1.374,0.949c0.379,0.41 0.67,0.905 0.872,1.487c0.202,0.581 0.303,1.23 0.303,1.947c0,0.723 -0.101,1.373 -0.303,1.952c-0.202,0.578 -0.493,1.072 -0.872,1.482c-0.38,0.409 -0.837,0.724 -1.374,0.944c-0.536,0.22 -1.138,0.33 -1.807,0.33c-0.674,0 -1.281,-0.11 -1.821,-0.33c-0.539,-0.22 -0.998,-0.535 -1.378,-0.944c-0.379,-0.41 -0.67,-0.904 -0.872,-1.482c-0.201,-0.579 -0.302,-1.229 -0.302,-1.952c0,-0.717 0.101,-1.366 0.302,-1.947c0.202,-0.582 0.493,-1.077 0.872,-1.487c0.38,-0.409 0.839,-0.726 1.378,-0.949c0.54,-0.223 1.147,-0.334 1.821,-0.334Zm0,8.169c0.904,0 1.579,-0.303 2.024,-0.908c0.446,-0.606 0.669,-1.451 0.669,-2.535c0,-1.09 -0.223,-1.94 -0.669,-2.548c-0.445,-0.609 -1.12,-0.913 -2.024,-0.913c-0.458,0 -0.857,0.078 -1.197,0.235c-0.34,0.157 -0.624,0.383 -0.849,0.678c-0.226,0.295 -0.395,0.658 -0.506,1.089c-0.112,0.43 -0.168,0.917 -0.168,1.459c0,1.084 0.225,1.929 0.674,2.535c0.448,0.605 1.131,0.908 2.046,0.908Z" style="fill:#fff;fill-rule:nonzero;"/><path d="M341.188,285.64l0,-7.78l-1.012,-0.117c-0.126,-0.031 -0.23,-0.077 -0.311,-0.14c-0.082,-0.064 -0.122,-0.156 -0.122,-0.276l0,-0.66l1.445,0l0,-0.885c0,-0.524 0.074,-0.99 0.222,-1.396c0.147,-0.407 0.358,-0.75 0.632,-1.03c0.274,-0.281 0.604,-0.493 0.99,-0.637c0.385,-0.145 0.819,-0.217 1.301,-0.217c0.41,0 0.786,0.06 1.129,0.18l-0.036,0.805c-0.012,0.144 -0.092,0.222 -0.239,0.235c-0.148,0.012 -0.345,0.018 -0.592,0.018c-0.277,0 -0.529,0.036 -0.755,0.108c-0.225,0.072 -0.42,0.19 -0.582,0.352c-0.163,0.163 -0.288,0.377 -0.375,0.642c-0.088,0.265 -0.131,0.593 -0.131,0.985l0,0.84l2.638,0l0,1.166l-2.584,0l0,7.807l-1.618,0Z" style="fill:#fff;fill-rule:nonzero;"/><path d="M193.461,61.431l-76.238,32.987l0,89.085l76.238,32.988l76.237,-32.988l0,-89.085l-76.237,-32.987Z" style="fill:#b9b9b9;"/><clipPath id="_clip1"><path d="M193.461,61.431l-76.238,32.987l0,89.085l76.238,32.988l76.237,-32.988l0,-89.085l-76.237,-32.987Z"/></clipPath><g clip-path="url(#_clip1)"><g><path d="M193.461,127.407l-76.238,-32.989l0,89.085l76.238,32.988l0,-89.084Z" style="fill:#f8f8f8;"/><path d="M193.461,216.491l76.237,-32.988l0,-89.085l-76.237,32.989l0,89.084Z" style="fill:#b9b9b9;"/><path d="M193.461,61.431l76.237,32.987l-76.237,32.989l-76.238,-32.989l76.238,-32.987Z" style="fill:#e1e1e1;"/></g><g><path d="M160.885,75.531l76.233,32.986l-11.196,4.845l-76.234,-32.987l11.197,-4.844Z" style="fill:#fff;"/><path d="M237.118,124.71l0,-16.191l-11.196,4.845l0,16.191l5.658,-7.494l5.538,2.649Z" style="fill:#fff;"/></g></g></svg>