<?xml version="1.0" encoding="UTF-8" standalone="no"?><!DOCTYPE svg PUBLIC "-//W3C//DTD SVG 1.1//EN" "http://www.w3.org/Graphics/SVG/1.1/DTD/svg11.dtd"><svg width="100%" height="100%" viewBox="0 0 317 225" version="1.1" xmlns="http://www.w3.org/2000/svg" xmlns:xlink="http://www.w3.org/1999/xlink" xml:space="preserve" xmlns:serif="http://www.serif.com/" style="fill-rule:evenodd;clip-rule:evenodd;stroke-linejoin:round;stroke-miterlimit:1.41421;"><g><g><path d="M73.382,40.899l84.799,-40.899l84.799,40.899l0,72.891l-169.598,0l0,-72.891Z" style="fill:#212121;"/><path d="M236.517,24.808c0,-3.522 -2.86,-6.382 -6.382,-6.382l-143.908,0c-3.522,0 -6.382,2.86 -6.382,6.382l0,78.413c0,3.523 2.86,6.383 6.382,6.383l143.908,0c3.522,0 6.382,-2.86 6.382,-6.383l0,-78.413Z" style="fill:url(#_Linear1);"/><path d="M242.98,40.899l0,72.891c0,6.549 -5.317,11.866 -11.866,11.866l-145.866,0c-6.549,0 -11.866,-5.317 -11.866,-11.866l0,-61.025c0,0 0,-11.866 0,-11.866l84.799,56.004l84.799,-56.004Z" style="fill:#383838;"/><clipPath id="_clip2"><path d="M242.98,40.899l0,72.891c0,6.549 -5.317,11.866 -11.866,11.866l-145.866,0c-6.549,0 -11.866,-5.317 -11.866,-11.866l0,-61.025c0,0 0,-11.866 0,-11.866l84.799,56.004l84.799,-56.004Z"/></clipPath><g clip-path="url(#_clip2)"><path d="M85.248,125.656l145.866,0l-72.933,-51.368l-72.933,51.368Z" style="fill:#2e2e2e;"/></g></g></g><g><path d="M4.865,204.291l2.226,0c0.336,0 0.628,-0.013 0.875,-0.04c0.248,-0.026 0.473,-0.079 0.676,-0.158c0.203,-0.08 0.393,-0.182 0.57,-0.305c0.176,-0.124 0.362,-0.283 0.556,-0.477l15.131,-15.555c0.283,-0.283 0.544,-0.482 0.782,-0.597c0.238,-0.114 0.534,-0.172 0.888,-0.172l2.199,0l-16.376,16.828c-0.336,0.353 -0.632,0.627 -0.888,0.821c-0.257,0.194 -0.544,0.353 -0.861,0.477c0.371,0.106 0.702,0.269 0.993,0.49c0.292,0.221 0.588,0.508 0.888,0.861l17.278,18.02l-2.2,0c-0.459,0 -0.786,-0.067 -0.98,-0.199c-0.195,-0.132 -0.398,-0.304 -0.61,-0.516l-15.873,-16.218c-0.194,-0.195 -0.371,-0.363 -0.53,-0.504c-0.159,-0.141 -0.34,-0.26 -0.543,-0.358c-0.203,-0.097 -0.446,-0.167 -0.729,-0.212c-0.283,-0.044 -0.636,-0.066 -1.06,-0.066l-2.412,0l0,18.073l-2.702,0l0,-37.55l2.702,0l0,17.357Z" style="fill:#232323;fill-rule:nonzero;"/><path d="M50.206,222.55c1.802,0 3.414,-0.314 4.836,-0.941c1.423,-0.628 2.628,-1.498 3.618,-2.61c0.989,-1.114 1.744,-2.425 2.266,-3.936c0.52,-1.51 0.781,-3.14 0.781,-4.889l0,-23.187l2.703,0l0,23.187c0,2.067 -0.327,3.997 -0.98,5.79c-0.654,1.793 -1.595,3.357 -2.823,4.691c-1.228,1.333 -2.72,2.38 -4.478,3.14c-1.758,0.76 -3.732,1.139 -5.923,1.139c-2.191,0 -4.164,-0.379 -5.923,-1.139c-1.757,-0.76 -3.25,-1.807 -4.478,-3.14c-1.227,-1.334 -2.168,-2.898 -2.822,-4.691c-0.654,-1.793 -0.98,-3.723 -0.98,-5.79l0,-23.187l2.729,0l0,23.161c0,1.749 0.261,3.378 0.782,4.889c0.521,1.51 1.272,2.822 2.252,3.935c0.981,1.113 2.182,1.988 3.604,2.624c1.422,0.635 3.034,0.954 4.836,0.954Z" style="fill:#232323;fill-rule:nonzero;"/><path d="M78.72,209.379l0,15.105l-2.703,0l0,-37.497l9.672,0c4.399,0 7.716,0.963 9.951,2.889c2.235,1.925 3.352,4.673 3.352,8.241c0,1.643 -0.305,3.153 -0.914,4.531c-0.61,1.379 -1.489,2.566 -2.637,3.564c-1.148,0.999 -2.544,1.776 -4.187,2.333c-1.643,0.556 -3.498,0.834 -5.565,0.834l-6.969,0Zm0,-2.173l6.969,0c1.661,0 3.145,-0.23 4.452,-0.689c1.307,-0.459 2.416,-1.095 3.326,-1.908c0.91,-0.812 1.607,-1.771 2.093,-2.875c0.486,-1.104 0.729,-2.31 0.729,-3.617c0,-2.88 -0.888,-5.097 -2.663,-6.652c-1.776,-1.554 -4.421,-2.331 -7.937,-2.331l-6.969,0l0,18.072Z" style="fill:#232323;fill-rule:nonzero;"/><path d="M140.119,205.722c0,2.898 -0.433,5.525 -1.299,7.884c-0.865,2.358 -2.084,4.372 -3.657,6.042c-1.572,1.669 -3.453,2.959 -5.644,3.869c-2.19,0.909 -4.62,1.364 -7.287,1.364c-2.632,0 -5.044,-0.455 -7.235,-1.364c-2.19,-0.91 -4.072,-2.2 -5.644,-3.869c-1.572,-1.67 -2.795,-3.684 -3.67,-6.042c-0.875,-2.359 -1.312,-4.986 -1.312,-7.884c0,-2.879 0.437,-5.499 1.312,-7.857c0.875,-2.358 2.098,-4.372 3.67,-6.041c1.572,-1.67 3.454,-2.964 5.644,-3.883c2.191,-0.919 4.603,-1.378 7.235,-1.378c2.667,0 5.097,0.455 7.287,1.365c2.191,0.91 4.072,2.204 5.644,3.882c1.573,1.678 2.792,3.697 3.657,6.055c0.866,2.358 1.299,4.978 1.299,7.857Zm-2.809,0c0,-2.615 -0.362,-4.964 -1.086,-7.049c-0.725,-2.084 -1.745,-3.851 -3.061,-5.299c-1.316,-1.449 -2.902,-2.557 -4.756,-3.326c-1.856,-0.769 -3.914,-1.153 -6.175,-1.153c-2.226,0 -4.262,0.384 -6.108,1.153c-1.847,0.769 -3.437,1.877 -4.77,3.326c-1.334,1.448 -2.367,3.215 -3.101,5.299c-0.732,2.085 -1.099,4.434 -1.099,7.049c0,2.632 0.367,4.986 1.099,7.063c0.734,2.075 1.767,3.837 3.101,5.286c1.333,1.449 2.923,2.553 4.77,3.313c1.846,0.759 3.882,1.139 6.108,1.139c2.261,0 4.319,-0.38 6.175,-1.139c1.854,-0.76 3.44,-1.864 4.756,-3.313c1.316,-1.449 2.336,-3.211 3.061,-5.286c0.724,-2.077 1.086,-4.431 1.086,-7.063Z" style="fill:#232323;fill-rule:nonzero;"/><path d="M150.268,186.987c0.248,0 0.442,0.031 0.583,0.093c0.142,0.062 0.292,0.199 0.451,0.411l24.274,32.488c-0.054,-0.53 -0.08,-1.042 -0.08,-1.537l0,-31.455l2.385,0l0,37.497l-1.299,0c-0.406,0 -0.733,-0.177 -0.98,-0.53l-24.379,-32.542c0.052,0.531 0.079,1.034 0.079,1.511l0,31.561l-2.359,0l0,-37.497l1.325,0Z" style="fill:#232323;fill-rule:nonzero;"/><path d="M201.863,222.55l8.612,0l0,-30.445c0,-0.601 0.027,-1.237 0.08,-1.909l-8.268,7.346c-0.177,0.159 -0.389,0.239 -0.636,0.239c-0.301,0 -0.53,-0.106 -0.689,-0.319l-0.768,-1.061l10.838,-9.573l1.961,0l0,35.722l8.188,0l0,1.934l-19.318,0l0,-1.934Z" style="fill:#232323;fill-rule:nonzero;"/><path d="M253.219,205.722c0,3.286 -0.353,6.13 -1.06,8.533c-0.706,2.403 -1.669,4.39 -2.888,5.963c-1.219,1.572 -2.646,2.742 -4.28,3.511c-1.634,0.768 -3.379,1.152 -5.234,1.152c-1.855,0 -3.595,-0.384 -5.22,-1.152c-1.625,-0.769 -3.047,-1.939 -4.266,-3.511c-1.219,-1.573 -2.178,-3.56 -2.876,-5.963c-0.698,-2.403 -1.047,-5.247 -1.047,-8.533c0,-3.285 0.349,-6.13 1.047,-8.532c0.698,-2.403 1.657,-4.391 2.876,-5.963c1.219,-1.572 2.641,-2.743 4.266,-3.511c1.625,-0.769 3.365,-1.153 5.22,-1.153c1.855,0 3.6,0.384 5.234,1.153c1.634,0.768 3.061,1.939 4.28,3.511c1.219,1.572 2.182,3.56 2.888,5.963c0.707,2.402 1.06,5.247 1.06,8.532Zm-2.65,0c0,-3.038 -0.291,-5.635 -0.875,-7.791c-0.583,-2.155 -1.364,-3.917 -2.345,-5.286c-0.98,-1.369 -2.129,-2.372 -3.444,-3.008c-1.317,-0.636 -2.699,-0.954 -4.148,-0.954c-1.448,0 -2.826,0.318 -4.134,0.954c-1.307,0.636 -2.455,1.639 -3.445,3.008c-0.989,1.369 -1.775,3.131 -2.358,5.286c-0.583,2.156 -0.875,4.753 -0.875,7.791c0,3.056 0.292,5.658 0.875,7.804c0.583,2.147 1.369,3.905 2.358,5.274c0.99,1.369 2.138,2.367 3.445,2.994c1.308,0.627 2.686,0.941 4.134,0.941c1.449,0 2.831,-0.314 4.148,-0.941c1.315,-0.627 2.464,-1.625 3.444,-2.994c0.981,-1.369 1.762,-3.127 2.345,-5.274c0.584,-2.146 0.875,-4.748 0.875,-7.804Z" style="fill:#232323;fill-rule:nonzero;"/><path d="M285.972,186.987l0,0.928c0,0.371 -0.124,0.733 -0.371,1.086l-23.796,33.23l23.955,0l0,2.253l-27.559,0l0,-0.981c0,-0.335 0.106,-0.653 0.318,-0.953l23.849,-33.311l-23.478,0l0,-2.252l27.082,0Z" style="fill:#232323;fill-rule:nonzero;"/><path d="M298.109,205.351l11.051,-5.75l0,1.669c0,0.195 -0.036,0.354 -0.107,0.477c-0.07,0.124 -0.203,0.239 -0.397,0.345l-10.547,5.618l0,14.469l17.781,0l0,2.305l-20.484,0l0,-15.555l-5.167,2.676l0,-1.749c0,-0.335 0.159,-0.591 0.477,-0.768l4.69,-2.465l0,-19.636l2.703,0l0,18.364Z" style="fill:#232323;fill-rule:nonzero;"/><path d="M8.157,170.278c0.201,0 0.358,0.05 0.47,0.151c0.111,0.101 0.167,0.241 0.167,0.42c0,0.19 -0.056,0.335 -0.167,0.436c-0.112,0.101 -0.269,0.151 -0.47,0.151l-7.502,0c-0.202,0 -0.361,-0.056 -0.479,-0.168c-0.117,-0.112 -0.176,-0.252 -0.176,-0.419c0,-0.168 0.062,-0.342 0.185,-0.521l6.713,-9.566l-6.243,0c-0.202,0 -0.358,-0.05 -0.47,-0.151c-0.112,-0.101 -0.168,-0.241 -0.168,-0.42c0,-0.19 0.056,-0.335 0.168,-0.436c0.112,-0.101 0.268,-0.151 0.47,-0.151l7.317,0c0.201,0 0.361,0.056 0.478,0.168c0.118,0.112 0.177,0.251 0.177,0.419c0,0.157 -0.062,0.325 -0.185,0.504l-6.73,9.583l6.445,0Z" style="fill:#232323;fill-rule:nonzero;"/><path d="M13.712,163.061c2.047,0 3.071,1.074 3.071,3.223l0,4.565c0,0.201 -0.059,0.363 -0.176,0.486c-0.118,0.123 -0.277,0.185 -0.478,0.185c-0.202,0 -0.364,-0.062 -0.487,-0.185c-0.123,-0.123 -0.185,-0.285 -0.185,-0.486l0,-0.806c-0.212,0.481 -0.537,0.853 -0.973,1.116c-0.437,0.263 -0.94,0.394 -1.511,0.394c-0.526,0 -1.009,-0.106 -1.451,-0.318c-0.442,-0.213 -0.792,-0.51 -1.049,-0.89c-0.258,-0.38 -0.386,-0.8 -0.386,-1.259c0,-0.615 0.156,-1.093 0.47,-1.435c0.313,-0.341 0.828,-0.587 1.544,-0.738c0.716,-0.151 1.712,-0.227 2.987,-0.227l0.369,0l0,-0.554c0,-0.671 -0.137,-1.163 -0.411,-1.476c-0.274,-0.314 -0.719,-0.47 -1.334,-0.47c-0.761,0 -1.533,0.207 -2.316,0.621c-0.302,0.19 -0.515,0.285 -0.638,0.285c-0.134,0 -0.246,-0.05 -0.336,-0.151c-0.089,-0.101 -0.134,-0.229 -0.134,-0.386c0,-0.157 0.048,-0.294 0.143,-0.411c0.095,-0.118 0.249,-0.238 0.461,-0.361c0.392,-0.224 0.837,-0.4 1.335,-0.529c0.497,-0.128 0.993,-0.193 1.485,-0.193Zm-0.554,7.418c0.671,0 1.222,-0.226 1.653,-0.679c0.431,-0.454 0.646,-1.038 0.646,-1.754l0,-0.487l-0.302,0c-0.984,0 -1.734,0.042 -2.249,0.126c-0.514,0.084 -0.881,0.224 -1.099,0.419c-0.218,0.196 -0.327,0.484 -0.327,0.865c0,0.436 0.159,0.797 0.478,1.082c0.319,0.286 0.719,0.428 1.2,0.428Z" style="fill:#232323;fill-rule:nonzero;"/><path d="M23.379,163.061c0.716,0 1.348,0.179 1.896,0.537c0.549,0.358 0.974,0.859 1.276,1.502c0.302,0.644 0.453,1.391 0.453,2.241c0,0.85 -0.151,1.591 -0.453,2.224c-0.302,0.632 -0.725,1.121 -1.267,1.468c-0.543,0.347 -1.178,0.52 -1.905,0.52c-0.638,0 -1.195,-0.139 -1.67,-0.419c-0.476,-0.28 -0.836,-0.677 -1.083,-1.192l0,3.944c0,0.202 -0.058,0.361 -0.176,0.479c-0.117,0.117 -0.282,0.176 -0.495,0.176c-0.212,0 -0.38,-0.062 -0.503,-0.185c-0.123,-0.123 -0.185,-0.28 -0.185,-0.47l0,-10.12c0,-0.201 0.062,-0.364 0.185,-0.487c0.123,-0.123 0.291,-0.184 0.503,-0.184c0.213,0 0.378,0.061 0.495,0.184c0.118,0.123 0.176,0.286 0.176,0.487l0,0.906c0.247,-0.514 0.607,-0.912 1.083,-1.191c0.475,-0.28 1.032,-0.42 1.67,-0.42Zm-0.269,7.368c0.795,0 1.41,-0.269 1.847,-0.806c0.436,-0.537 0.654,-1.298 0.654,-2.282c0,-0.985 -0.218,-1.754 -0.654,-2.308c-0.437,-0.554 -1.052,-0.831 -1.847,-0.831c-0.794,0 -1.407,0.269 -1.837,0.806c-0.431,0.537 -0.647,1.303 -0.647,2.299c0,0.996 0.216,1.765 0.647,2.308c0.43,0.543 1.043,0.814 1.837,0.814Z" style="fill:#232323;fill-rule:nonzero;"/><path d="M29.723,171.52c-0.201,0 -0.367,-0.059 -0.495,-0.176c-0.129,-0.118 -0.193,-0.283 -0.193,-0.495l0,-7.083c0,-0.213 0.064,-0.378 0.193,-0.495c0.128,-0.118 0.294,-0.176 0.495,-0.176c0.201,0 0.364,0.058 0.487,0.176c0.123,0.117 0.184,0.282 0.184,0.495l0,7.083c0,0.223 -0.061,0.391 -0.184,0.503c-0.123,0.112 -0.286,0.168 -0.487,0.168Zm0,-10.187c-0.269,0 -0.487,-0.079 -0.655,-0.235c-0.167,-0.157 -0.251,-0.364 -0.251,-0.621c0,-0.247 0.084,-0.448 0.251,-0.605c0.168,-0.156 0.386,-0.235 0.655,-0.235c0.268,0 0.487,0.079 0.654,0.235c0.168,0.157 0.252,0.358 0.252,0.605c0,0.257 -0.084,0.464 -0.252,0.621c-0.167,0.156 -0.386,0.235 -0.654,0.235Z" style="fill:#232323;fill-rule:nonzero;"/><path d="M35.681,171.553c-0.515,0 -1.004,-0.061 -1.469,-0.184c-0.464,-0.123 -0.875,-0.297 -1.233,-0.52c-0.202,-0.135 -0.344,-0.261 -0.428,-0.378c-0.084,-0.118 -0.126,-0.26 -0.126,-0.428c0,-0.146 0.042,-0.266 0.126,-0.361c0.084,-0.095 0.193,-0.143 0.327,-0.143c0.134,0 0.33,0.084 0.588,0.252c0.335,0.202 0.668,0.361 0.998,0.479c0.33,0.117 0.741,0.176 1.234,0.176c0.604,0 1.074,-0.107 1.409,-0.319c0.336,-0.213 0.504,-0.52 0.504,-0.923c0,-0.246 -0.062,-0.445 -0.185,-0.596c-0.123,-0.151 -0.335,-0.285 -0.637,-0.403c-0.302,-0.117 -0.744,-0.238 -1.326,-0.361c-0.985,-0.212 -1.69,-0.498 -2.115,-0.856c-0.425,-0.358 -0.638,-0.844 -0.638,-1.46c0,-0.481 0.135,-0.906 0.403,-1.275c0.269,-0.369 0.641,-0.66 1.116,-0.873c0.476,-0.213 1.016,-0.319 1.62,-0.319c0.436,0 0.858,0.059 1.267,0.176c0.408,0.118 0.769,0.283 1.082,0.495c0.381,0.269 0.571,0.549 0.571,0.84c0,0.145 -0.045,0.268 -0.134,0.369c-0.09,0.101 -0.196,0.151 -0.319,0.151c-0.134,0 -0.336,-0.095 -0.604,-0.285c-0.314,-0.202 -0.61,-0.358 -0.89,-0.47c-0.28,-0.112 -0.626,-0.168 -1.04,-0.168c-0.526,0 -0.949,0.117 -1.268,0.352c-0.318,0.235 -0.478,0.549 -0.478,0.94c0,0.246 0.059,0.445 0.176,0.596c0.118,0.151 0.314,0.285 0.588,0.403c0.274,0.117 0.668,0.232 1.183,0.344c0.761,0.168 1.351,0.352 1.771,0.554c0.419,0.201 0.719,0.447 0.898,0.738c0.179,0.291 0.268,0.66 0.268,1.108c0,0.705 -0.296,1.273 -0.889,1.703c-0.593,0.431 -1.377,0.646 -2.35,0.646Z" style="fill:#232323;fill-rule:nonzero;"/><path d="M46.909,170.362c0.19,0 0.335,0.047 0.436,0.142c0.101,0.096 0.151,0.227 0.151,0.395c0,0.168 -0.05,0.299 -0.151,0.394c-0.101,0.095 -0.246,0.143 -0.436,0.143l-5.874,0c-0.19,0 -0.347,-0.059 -0.47,-0.176c-0.123,-0.118 -0.185,-0.26 -0.185,-0.428c0,-0.179 0.067,-0.353 0.202,-0.521l4.967,-5.974l-4.598,0c-0.19,0 -0.339,-0.048 -0.445,-0.143c-0.106,-0.095 -0.159,-0.221 -0.159,-0.378c0,-0.167 0.053,-0.302 0.159,-0.402c0.106,-0.101 0.255,-0.151 0.445,-0.151l5.689,0c0.202,0 0.364,0.058 0.487,0.176c0.123,0.117 0.185,0.26 0.185,0.428c0,0.179 -0.068,0.352 -0.202,0.52l-4.984,5.975l4.783,0Z" style="fill:#232323;fill-rule:nonzero;"/><path d="M56.425,171.553c-0.515,0 -1.004,-0.061 -1.469,-0.184c-0.464,-0.123 -0.875,-0.297 -1.233,-0.52c-0.202,-0.135 -0.344,-0.261 -0.428,-0.378c-0.084,-0.118 -0.126,-0.26 -0.126,-0.428c0,-0.146 0.042,-0.266 0.126,-0.361c0.084,-0.095 0.193,-0.143 0.327,-0.143c0.134,0 0.33,0.084 0.587,0.252c0.336,0.202 0.669,0.361 0.999,0.479c0.33,0.117 0.741,0.176 1.234,0.176c0.604,0 1.074,-0.107 1.409,-0.319c0.336,-0.213 0.504,-0.52 0.504,-0.923c0,-0.246 -0.062,-0.445 -0.185,-0.596c-0.123,-0.151 -0.335,-0.285 -0.637,-0.403c-0.303,-0.117 -0.745,-0.238 -1.326,-0.361c-0.985,-0.212 -1.69,-0.498 -2.115,-0.856c-0.425,-0.358 -0.638,-0.844 -0.638,-1.46c0,-0.481 0.135,-0.906 0.403,-1.275c0.269,-0.369 0.641,-0.66 1.116,-0.873c0.476,-0.213 1.015,-0.319 1.62,-0.319c0.436,0 0.858,0.059 1.267,0.176c0.408,0.118 0.769,0.283 1.082,0.495c0.381,0.269 0.571,0.549 0.571,0.84c0,0.145 -0.045,0.268 -0.134,0.369c-0.09,0.101 -0.196,0.151 -0.319,0.151c-0.134,0 -0.336,-0.095 -0.604,-0.285c-0.314,-0.202 -0.61,-0.358 -0.89,-0.47c-0.28,-0.112 -0.626,-0.168 -1.04,-0.168c-0.526,0 -0.949,0.117 -1.268,0.352c-0.318,0.235 -0.478,0.549 -0.478,0.94c0,0.246 0.059,0.445 0.176,0.596c0.118,0.151 0.314,0.285 0.588,0.403c0.274,0.117 0.668,0.232 1.183,0.344c0.761,0.168 1.351,0.352 1.771,0.554c0.419,0.201 0.718,0.447 0.897,0.738c0.179,0.291 0.269,0.66 0.269,1.108c0,0.705 -0.297,1.273 -0.89,1.703c-0.593,0.431 -1.376,0.646 -2.349,0.646Z" style="fill:#232323;fill-rule:nonzero;"/><path d="M62.416,171.52c-0.201,0 -0.366,-0.059 -0.495,-0.176c-0.128,-0.118 -0.193,-0.283 -0.193,-0.495l0,-7.083c0,-0.213 0.065,-0.378 0.193,-0.495c0.129,-0.118 0.294,-0.176 0.495,-0.176c0.202,0 0.364,0.058 0.487,0.176c0.123,0.117 0.185,0.282 0.185,0.495l0,7.083c0,0.223 -0.062,0.391 -0.185,0.503c-0.123,0.112 -0.285,0.168 -0.487,0.168Zm0,-10.187c-0.268,0 -0.486,-0.079 -0.654,-0.235c-0.168,-0.157 -0.252,-0.364 -0.252,-0.621c0,-0.247 0.084,-0.448 0.252,-0.605c0.168,-0.156 0.386,-0.235 0.654,-0.235c0.269,0 0.487,0.079 0.655,0.235c0.168,0.157 0.252,0.358 0.252,0.605c0,0.257 -0.084,0.464 -0.252,0.621c-0.168,0.156 -0.386,0.235 -0.655,0.235Z" style="fill:#232323;fill-rule:nonzero;"/><path d="M71.748,170.865c-0.66,0.37 -1.116,0.688 -1.368,0.957c-0.252,0.268 -0.378,0.571 -0.378,0.906c0,0.325 0.098,0.582 0.294,0.772c0.196,0.19 0.45,0.286 0.764,0.286c0.235,0 0.503,-0.068 0.805,-0.202c0.09,-0.033 0.157,-0.05 0.202,-0.05c0.1,0 0.182,0.036 0.243,0.109c0.062,0.073 0.092,0.165 0.092,0.277c0,0.19 -0.084,0.336 -0.251,0.436c-0.381,0.213 -0.795,0.319 -1.242,0.319c-0.582,0 -1.055,-0.165 -1.418,-0.495c-0.364,-0.33 -0.546,-0.752 -0.546,-1.267c0,-0.548 0.196,-1.002 0.587,-1.36l-0.302,0c-1.264,0 -2.263,-0.374 -2.995,-1.124c-0.733,-0.75 -1.1,-1.785 -1.1,-3.105c0,-0.839 0.163,-1.58 0.487,-2.224c0.324,-0.643 0.78,-1.144 1.368,-1.502c0.587,-0.358 1.256,-0.537 2.005,-0.537c1.063,0 1.908,0.347 2.535,1.041c0.626,0.693 0.94,1.633 0.94,2.819c0,0.224 -0.045,0.386 -0.135,0.487c-0.089,0.101 -0.235,0.151 -0.436,0.151l-5.404,0c0.1,1.925 1.012,2.887 2.735,2.887c0.437,0 0.812,-0.059 1.125,-0.176c0.313,-0.118 0.649,-0.277 1.007,-0.479c0.291,-0.168 0.487,-0.252 0.587,-0.252c0.123,0 0.23,0.051 0.319,0.152c0.09,0.1 0.134,0.229 0.134,0.386c0,0.145 -0.053,0.282 -0.159,0.411c-0.106,0.128 -0.271,0.254 -0.495,0.377Zm-2.736,-6.746c-0.716,0 -1.289,0.223 -1.72,0.671c-0.431,0.447 -0.685,1.08 -0.764,1.896l4.75,0c-0.022,-0.828 -0.229,-1.463 -0.621,-1.905c-0.392,-0.442 -0.94,-0.662 -1.645,-0.662Z" style="fill:#232323;fill-rule:nonzero;"/><path d="M85.359,159.52c0.213,0 0.38,0.061 0.503,0.185c0.124,0.123 0.185,0.279 0.185,0.469l0,10.675c0,0.201 -0.061,0.363 -0.185,0.486c-0.123,0.123 -0.29,0.185 -0.503,0.185c-0.213,0 -0.378,-0.062 -0.495,-0.185c-0.118,-0.123 -0.176,-0.285 -0.176,-0.486l0,-0.907c-0.247,0.515 -0.607,0.912 -1.083,1.192c-0.475,0.28 -1.032,0.419 -1.67,0.419c-0.716,0 -1.348,-0.179 -1.896,-0.537c-0.549,-0.358 -0.974,-0.858 -1.276,-1.502c-0.302,-0.643 -0.453,-1.39 -0.453,-2.24c0,-0.839 0.151,-1.578 0.453,-2.216c0.302,-0.637 0.727,-1.13 1.276,-1.477c0.548,-0.346 1.18,-0.52 1.896,-0.52c0.638,0 1.195,0.14 1.67,0.42c0.476,0.279 0.836,0.677 1.083,1.191l0,-4.498c0,-0.201 0.058,-0.36 0.176,-0.478c0.117,-0.117 0.282,-0.176 0.495,-0.176Zm-3.155,10.909c0.794,0 1.407,-0.271 1.837,-0.814c0.431,-0.543 0.647,-1.312 0.647,-2.308c0,-0.996 -0.216,-1.762 -0.647,-2.299c-0.43,-0.537 -1.043,-0.806 -1.837,-0.806c-0.795,0 -1.413,0.269 -1.855,0.806c-0.442,0.537 -0.663,1.292 -0.663,2.266c0,0.996 0.221,1.77 0.663,2.324c0.442,0.554 1.06,0.831 1.855,0.831Z" style="fill:#232323;fill-rule:nonzero;"/><path d="M91.955,171.553c-0.772,0 -1.452,-0.173 -2.039,-0.52c-0.588,-0.347 -1.041,-0.842 -1.36,-1.485c-0.319,-0.644 -0.478,-1.39 -0.478,-2.241c0,-0.85 0.159,-1.597 0.478,-2.24c0.319,-0.644 0.772,-1.139 1.36,-1.486c0.587,-0.346 1.267,-0.52 2.039,-0.52c0.772,0 1.454,0.174 2.047,0.52c0.593,0.347 1.049,0.842 1.368,1.486c0.319,0.643 0.478,1.39 0.478,2.24c0,0.851 -0.159,1.597 -0.478,2.241c-0.319,0.643 -0.775,1.138 -1.368,1.485c-0.593,0.347 -1.275,0.52 -2.047,0.52Zm0,-1.124c0.805,0 1.423,-0.266 1.854,-0.797c0.431,-0.532 0.646,-1.307 0.646,-2.325c0,-0.996 -0.218,-1.765 -0.654,-2.307c-0.436,-0.543 -1.052,-0.814 -1.846,-0.814c-0.795,0 -1.41,0.271 -1.846,0.814c-0.437,0.542 -0.655,1.311 -0.655,2.307c0,1.007 0.215,1.779 0.646,2.316c0.431,0.537 1.049,0.806 1.855,0.806Z" style="fill:#232323;fill-rule:nonzero;"/><path d="M106.321,163.061c1.958,0 2.937,1.08 2.937,3.239l0,4.549c0,0.212 -0.059,0.377 -0.176,0.495c-0.118,0.117 -0.283,0.176 -0.495,0.176c-0.213,0 -0.381,-0.059 -0.504,-0.176c-0.123,-0.118 -0.184,-0.283 -0.184,-0.495l0,-4.465c0,-0.761 -0.149,-1.314 -0.445,-1.661c-0.297,-0.347 -0.769,-0.521 -1.418,-0.521c-0.75,0 -1.348,0.23 -1.796,0.689c-0.448,0.458 -0.671,1.079 -0.671,1.862l0,4.096c0,0.212 -0.059,0.377 -0.177,0.495c-0.117,0.117 -0.282,0.176 -0.495,0.176c-0.212,0 -0.38,-0.059 -0.503,-0.176c-0.123,-0.118 -0.185,-0.283 -0.185,-0.495l0,-7.083c0,-0.201 0.062,-0.364 0.185,-0.487c0.123,-0.123 0.291,-0.184 0.503,-0.184c0.202,0 0.361,0.061 0.479,0.184c0.117,0.123 0.176,0.28 0.176,0.47l0,0.856c0.268,-0.503 0.643,-0.886 1.124,-1.149c0.481,-0.263 1.03,-0.395 1.645,-0.395Z" style="fill:#232323;fill-rule:nonzero;"/><path d="M115.082,163.061c2.047,0 3.071,1.074 3.071,3.223l0,4.565c0,0.201 -0.059,0.363 -0.176,0.486c-0.118,0.123 -0.277,0.185 -0.478,0.185c-0.202,0 -0.364,-0.062 -0.487,-0.185c-0.123,-0.123 -0.185,-0.285 -0.185,-0.486l0,-0.806c-0.212,0.481 -0.537,0.853 -0.973,1.116c-0.436,0.263 -0.94,0.394 -1.511,0.394c-0.525,0 -1.009,-0.106 -1.451,-0.318c-0.442,-0.213 -0.792,-0.51 -1.049,-0.89c-0.258,-0.38 -0.386,-0.8 -0.386,-1.259c0,-0.615 0.156,-1.093 0.47,-1.435c0.313,-0.341 0.828,-0.587 1.544,-0.738c0.716,-0.151 1.712,-0.227 2.987,-0.227l0.369,0l0,-0.554c0,-0.671 -0.137,-1.163 -0.411,-1.476c-0.274,-0.314 -0.719,-0.47 -1.334,-0.47c-0.761,0 -1.533,0.207 -2.316,0.621c-0.302,0.19 -0.515,0.285 -0.638,0.285c-0.134,0 -0.246,-0.05 -0.336,-0.151c-0.089,-0.101 -0.134,-0.229 -0.134,-0.386c0,-0.157 0.048,-0.294 0.143,-0.411c0.095,-0.118 0.249,-0.238 0.461,-0.361c0.392,-0.224 0.837,-0.4 1.335,-0.529c0.497,-0.128 0.993,-0.193 1.485,-0.193Zm-0.554,7.418c0.671,0 1.222,-0.226 1.653,-0.679c0.431,-0.454 0.646,-1.038 0.646,-1.754l0,-0.487l-0.302,0c-0.984,0 -1.734,0.042 -2.249,0.126c-0.514,0.084 -0.881,0.224 -1.099,0.419c-0.218,0.196 -0.327,0.484 -0.327,0.865c0,0.436 0.159,0.797 0.478,1.082c0.319,0.286 0.719,0.428 1.2,0.428Z" style="fill:#232323;fill-rule:nonzero;"/><path d="M123.39,171.553c-0.515,0 -1.005,-0.061 -1.469,-0.184c-0.464,-0.123 -0.876,-0.297 -1.234,-0.52c-0.201,-0.135 -0.344,-0.261 -0.428,-0.378c-0.083,-0.118 -0.125,-0.26 -0.125,-0.428c0,-0.146 0.042,-0.266 0.125,-0.361c0.084,-0.095 0.193,-0.143 0.328,-0.143c0.134,0 0.33,0.084 0.587,0.252c0.336,0.202 0.669,0.361 0.999,0.479c0.33,0.117 0.741,0.176 1.233,0.176c0.604,0 1.074,-0.107 1.41,-0.319c0.336,-0.213 0.504,-0.52 0.504,-0.923c0,-0.246 -0.062,-0.445 -0.185,-0.596c-0.123,-0.151 -0.336,-0.285 -0.638,-0.403c-0.302,-0.117 -0.744,-0.238 -1.326,-0.361c-0.984,-0.212 -1.689,-0.498 -2.114,-0.856c-0.426,-0.358 -0.638,-0.844 -0.638,-1.46c0,-0.481 0.134,-0.906 0.403,-1.275c0.268,-0.369 0.64,-0.66 1.116,-0.873c0.475,-0.213 1.015,-0.319 1.619,-0.319c0.437,0 0.859,0.059 1.267,0.176c0.409,0.118 0.77,0.283 1.083,0.495c0.38,0.269 0.571,0.549 0.571,0.84c0,0.145 -0.045,0.268 -0.135,0.369c-0.089,0.101 -0.195,0.151 -0.319,0.151c-0.134,0 -0.335,-0.095 -0.604,-0.285c-0.313,-0.202 -0.61,-0.358 -0.889,-0.47c-0.28,-0.112 -0.627,-0.168 -1.041,-0.168c-0.526,0 -0.948,0.117 -1.267,0.352c-0.319,0.235 -0.478,0.549 -0.478,0.94c0,0.246 0.059,0.445 0.176,0.596c0.117,0.151 0.313,0.285 0.587,0.403c0.275,0.117 0.669,0.232 1.184,0.344c0.76,0.168 1.351,0.352 1.77,0.554c0.42,0.201 0.719,0.447 0.898,0.738c0.179,0.291 0.269,0.66 0.269,1.108c0,0.705 -0.297,1.273 -0.89,1.703c-0.593,0.431 -1.376,0.646 -2.349,0.646Z" style="fill:#232323;fill-rule:nonzero;"/><path d="M134.617,170.362c0.191,0 0.336,0.047 0.437,0.142c0.1,0.096 0.151,0.227 0.151,0.395c0,0.168 -0.051,0.299 -0.151,0.394c-0.101,0.095 -0.246,0.143 -0.437,0.143l-5.874,0c-0.19,0 -0.347,-0.059 -0.47,-0.176c-0.123,-0.118 -0.184,-0.26 -0.184,-0.428c0,-0.179 0.067,-0.353 0.201,-0.521l4.968,-5.974l-4.599,0c-0.19,0 -0.338,-0.048 -0.444,-0.143c-0.107,-0.095 -0.16,-0.221 -0.16,-0.378c0,-0.167 0.053,-0.302 0.16,-0.402c0.106,-0.101 0.254,-0.151 0.444,-0.151l5.69,0c0.201,0 0.364,0.058 0.487,0.176c0.123,0.117 0.184,0.26 0.184,0.428c0,0.179 -0.067,0.352 -0.201,0.52l-4.985,5.975l4.783,0Z" style="fill:#232323;fill-rule:nonzero;"/><path d="M143.194,169.539c0.123,0 0.229,0.051 0.318,0.152c0.09,0.1 0.135,0.229 0.135,0.386c0,0.279 -0.196,0.537 -0.588,0.772c-0.402,0.235 -0.828,0.411 -1.275,0.528c-0.448,0.118 -0.884,0.176 -1.309,0.176c-1.265,0 -2.263,-0.374 -2.996,-1.124c-0.733,-0.75 -1.099,-1.785 -1.099,-3.105c0,-0.839 0.162,-1.58 0.486,-2.224c0.325,-0.643 0.781,-1.144 1.368,-1.502c0.588,-0.358 1.256,-0.537 2.006,-0.537c1.063,0 1.907,0.347 2.534,1.041c0.627,0.693 0.94,1.633 0.94,2.819c0,0.224 -0.045,0.386 -0.134,0.487c-0.09,0.101 -0.235,0.151 -0.437,0.151l-5.404,0c0.101,1.925 1.013,2.887 2.736,2.887c0.436,0 0.811,-0.059 1.124,-0.176c0.313,-0.118 0.649,-0.277 1.007,-0.479c0.291,-0.168 0.487,-0.252 0.588,-0.252Zm-2.937,-5.42c-0.717,0 -1.29,0.223 -1.721,0.671c-0.43,0.447 -0.685,1.08 -0.763,1.896l4.749,0c-0.022,-0.828 -0.229,-1.463 -0.621,-1.905c-0.391,-0.442 -0.94,-0.662 -1.644,-0.662Z" style="fill:#232323;fill-rule:nonzero;"/><path d="M152.34,163.095c0.213,0 0.381,0.061 0.504,0.184c0.123,0.123 0.185,0.286 0.185,0.487l0,7.116c0,1.22 -0.314,2.14 -0.94,2.761c-0.627,0.621 -1.556,0.931 -2.786,0.931c-1.198,0 -2.193,-0.235 -2.988,-0.705c-0.403,-0.223 -0.604,-0.481 -0.604,-0.772c0,-0.156 0.042,-0.285 0.126,-0.386c0.084,-0.1 0.193,-0.151 0.327,-0.151c0.112,0 0.313,0.079 0.604,0.235c0.392,0.202 0.778,0.364 1.158,0.487c0.381,0.123 0.834,0.185 1.36,0.185c0.794,0 1.393,-0.21 1.796,-0.63c0.402,-0.419 0.604,-1.032 0.604,-1.837l0,-1.444c-0.235,0.526 -0.596,0.929 -1.083,1.209c-0.486,0.279 -1.06,0.419 -1.72,0.419c-0.716,0 -1.351,-0.168 -1.905,-0.503c-0.554,-0.336 -0.984,-0.811 -1.292,-1.427c-0.308,-0.615 -0.462,-1.326 -0.462,-2.131c0,-0.806 0.154,-1.516 0.462,-2.132c0.308,-0.615 0.738,-1.091 1.292,-1.426c0.554,-0.336 1.189,-0.504 1.905,-0.504c0.649,0 1.214,0.14 1.695,0.42c0.481,0.279 0.845,0.677 1.091,1.191l0,-0.906c0,-0.201 0.059,-0.364 0.176,-0.487c0.118,-0.123 0.283,-0.184 0.495,-0.184Zm-3.188,6.965c0.783,0 1.398,-0.26 1.846,-0.781c0.447,-0.52 0.671,-1.239 0.671,-2.156c0,-0.907 -0.221,-1.62 -0.663,-2.14c-0.442,-0.52 -1.06,-0.781 -1.854,-0.781c-0.795,0 -1.419,0.261 -1.872,0.781c-0.453,0.52 -0.679,1.233 -0.679,2.14c0,0.917 0.226,1.636 0.679,2.156c0.453,0.521 1.077,0.781 1.872,0.781Z" style="fill:#232323;fill-rule:nonzero;"/><path d="M158.936,171.553c-0.772,0 -1.452,-0.173 -2.039,-0.52c-0.587,-0.347 -1.041,-0.842 -1.359,-1.485c-0.319,-0.644 -0.479,-1.39 -0.479,-2.241c0,-0.85 0.16,-1.597 0.479,-2.24c0.318,-0.644 0.772,-1.139 1.359,-1.486c0.587,-0.346 1.267,-0.52 2.039,-0.52c0.772,0 1.455,0.174 2.048,0.52c0.593,0.347 1.049,0.842 1.368,1.486c0.318,0.643 0.478,1.39 0.478,2.24c0,0.851 -0.16,1.597 -0.478,2.241c-0.319,0.643 -0.775,1.138 -1.368,1.485c-0.593,0.347 -1.276,0.52 -2.048,0.52Zm0,-1.124c0.806,0 1.424,-0.266 1.855,-0.797c0.43,-0.532 0.646,-1.307 0.646,-2.325c0,-0.996 -0.218,-1.765 -0.655,-2.307c-0.436,-0.543 -1.051,-0.814 -1.846,-0.814c-0.794,0 -1.41,0.271 -1.846,0.814c-0.436,0.542 -0.655,1.311 -0.655,2.307c0,1.007 0.216,1.779 0.647,2.316c0.43,0.537 1.049,0.806 1.854,0.806Z" style="fill:#232323;fill-rule:nonzero;"/><path d="M178.237,159.52c0.201,0 0.358,0.064 0.47,0.193c0.112,0.129 0.168,0.299 0.168,0.512l0,10.59c0,0.213 -0.059,0.383 -0.177,0.512c-0.117,0.129 -0.282,0.193 -0.495,0.193c-0.212,0 -0.397,-0.095 -0.554,-0.285l-6.965,-9.315l0,8.895c0,0.213 -0.058,0.383 -0.176,0.512c-0.117,0.129 -0.277,0.193 -0.478,0.193c-0.202,0 -0.358,-0.064 -0.47,-0.193c-0.112,-0.129 -0.168,-0.299 -0.168,-0.512l0,-10.59c0,-0.213 0.059,-0.383 0.176,-0.512c0.118,-0.129 0.283,-0.193 0.495,-0.193c0.224,0 0.414,0.095 0.571,0.285l6.948,9.315l0,-8.895c0,-0.213 0.059,-0.383 0.176,-0.512c0.118,-0.129 0.277,-0.193 0.479,-0.193Z" style="fill:#232323;fill-rule:nonzero;"/><path d="M187.921,169.539c0.123,0 0.229,0.051 0.318,0.152c0.09,0.1 0.135,0.229 0.135,0.386c0,0.279 -0.196,0.537 -0.588,0.772c-0.402,0.235 -0.828,0.411 -1.275,0.528c-0.448,0.118 -0.884,0.176 -1.309,0.176c-1.265,0 -2.263,-0.374 -2.996,-1.124c-0.733,-0.75 -1.099,-1.785 -1.099,-3.105c0,-0.839 0.162,-1.58 0.486,-2.224c0.325,-0.643 0.781,-1.144 1.368,-1.502c0.588,-0.358 1.256,-0.537 2.006,-0.537c1.063,0 1.907,0.347 2.534,1.041c0.627,0.693 0.94,1.633 0.94,2.819c0,0.224 -0.045,0.386 -0.134,0.487c-0.09,0.101 -0.235,0.151 -0.437,0.151l-5.404,0c0.101,1.925 1.013,2.887 2.736,2.887c0.436,0 0.811,-0.059 1.124,-0.176c0.314,-0.118 0.649,-0.277 1.007,-0.479c0.291,-0.168 0.487,-0.252 0.588,-0.252Zm-2.937,-5.42c-0.717,0 -1.29,0.223 -1.721,0.671c-0.43,0.447 -0.685,1.08 -0.763,1.896l4.749,0c-0.022,-0.828 -0.229,-1.463 -0.621,-1.905c-0.391,-0.442 -0.94,-0.662 -1.644,-0.662Z" style="fill:#232323;fill-rule:nonzero;"/><path d="M201.515,163.531c0.112,-0.268 0.296,-0.403 0.554,-0.403c0.168,0 0.319,0.056 0.453,0.168c0.134,0.112 0.201,0.252 0.201,0.42c0,0.078 -0.016,0.162 -0.05,0.251l-2.786,7.049c-0.067,0.146 -0.165,0.261 -0.294,0.344c-0.128,0.084 -0.271,0.126 -0.428,0.126c-0.145,0 -0.282,-0.042 -0.411,-0.126c-0.129,-0.083 -0.226,-0.198 -0.294,-0.344l-2.316,-5.891l-2.299,5.891c-0.056,0.146 -0.151,0.261 -0.285,0.344c-0.135,0.084 -0.28,0.126 -0.437,0.126c-0.145,0 -0.285,-0.042 -0.419,-0.126c-0.134,-0.083 -0.235,-0.198 -0.302,-0.344l-2.786,-7.032c-0.034,-0.089 -0.051,-0.168 -0.051,-0.235c0,-0.179 0.076,-0.33 0.227,-0.453c0.151,-0.123 0.316,-0.184 0.495,-0.184c0.269,0 0.459,0.134 0.571,0.402l2.299,6.193l2.366,-6.142c0.067,-0.146 0.16,-0.258 0.277,-0.336c0.118,-0.078 0.244,-0.117 0.378,-0.117c0.145,0 0.277,0.039 0.394,0.117c0.118,0.078 0.205,0.19 0.26,0.336l2.367,6.126l2.316,-6.16Z" style="fill:#232323;fill-rule:nonzero;"/><path d="M207.07,171.553c-0.515,0 -1.004,-0.061 -1.468,-0.184c-0.465,-0.123 -0.876,-0.297 -1.234,-0.52c-0.201,-0.135 -0.344,-0.261 -0.428,-0.378c-0.084,-0.118 -0.126,-0.26 -0.126,-0.428c0,-0.146 0.042,-0.266 0.126,-0.361c0.084,-0.095 0.193,-0.143 0.327,-0.143c0.135,0 0.33,0.084 0.588,0.252c0.335,0.202 0.668,0.361 0.998,0.479c0.33,0.117 0.742,0.176 1.234,0.176c0.604,0 1.074,-0.107 1.41,-0.319c0.335,-0.213 0.503,-0.52 0.503,-0.923c0,-0.246 -0.061,-0.445 -0.184,-0.596c-0.123,-0.151 -0.336,-0.285 -0.638,-0.403c-0.302,-0.117 -0.744,-0.238 -1.326,-0.361c-0.985,-0.212 -1.69,-0.498 -2.115,-0.856c-0.425,-0.358 -0.637,-0.844 -0.637,-1.46c0,-0.481 0.134,-0.906 0.402,-1.275c0.269,-0.369 0.641,-0.66 1.116,-0.873c0.476,-0.213 1.016,-0.319 1.62,-0.319c0.436,0 0.859,0.059 1.267,0.176c0.409,0.118 0.769,0.283 1.083,0.495c0.38,0.269 0.57,0.549 0.57,0.84c0,0.145 -0.045,0.268 -0.134,0.369c-0.09,0.101 -0.196,0.151 -0.319,0.151c-0.134,0 -0.336,-0.095 -0.604,-0.285c-0.313,-0.202 -0.61,-0.358 -0.89,-0.47c-0.279,-0.112 -0.626,-0.168 -1.04,-0.168c-0.526,0 -0.948,0.117 -1.267,0.352c-0.319,0.235 -0.479,0.549 -0.479,0.94c0,0.246 0.059,0.445 0.177,0.596c0.117,0.151 0.313,0.285 0.587,0.403c0.274,0.117 0.669,0.232 1.183,0.344c0.761,0.168 1.351,0.352 1.771,0.554c0.419,0.201 0.719,0.447 0.898,0.738c0.179,0.291 0.268,0.66 0.268,1.108c0,0.705 -0.296,1.273 -0.889,1.703c-0.593,0.431 -1.376,0.646 -2.35,0.646Z" style="fill:#232323;fill-rule:nonzero;"/><path d="M213.062,171.52c-0.202,0 -0.367,-0.059 -0.495,-0.176c-0.129,-0.118 -0.193,-0.283 -0.193,-0.495l0,-10.658c0,-0.212 0.064,-0.377 0.193,-0.495c0.128,-0.117 0.293,-0.176 0.495,-0.176c0.19,0 0.349,0.059 0.478,0.176c0.129,0.118 0.193,0.283 0.193,0.495l0,10.658c0,0.212 -0.064,0.377 -0.193,0.495c-0.129,0.117 -0.288,0.176 -0.478,0.176Z" style="fill:#232323;fill-rule:nonzero;"/><path d="M222.595,169.539c0.123,0 0.229,0.051 0.318,0.152c0.09,0.1 0.135,0.229 0.135,0.386c0,0.279 -0.196,0.537 -0.588,0.772c-0.403,0.235 -0.828,0.411 -1.275,0.528c-0.448,0.118 -0.884,0.176 -1.309,0.176c-1.265,0 -2.263,-0.374 -2.996,-1.124c-0.733,-0.75 -1.099,-1.785 -1.099,-3.105c0,-0.839 0.162,-1.58 0.486,-2.224c0.325,-0.643 0.781,-1.144 1.368,-1.502c0.588,-0.358 1.256,-0.537 2.006,-0.537c1.063,0 1.907,0.347 2.534,1.041c0.627,0.693 0.94,1.633 0.94,2.819c0,0.224 -0.045,0.386 -0.134,0.487c-0.09,0.101 -0.235,0.151 -0.437,0.151l-5.404,0c0.101,1.925 1.013,2.887 2.736,2.887c0.436,0 0.811,-0.059 1.124,-0.176c0.313,-0.118 0.649,-0.277 1.007,-0.479c0.291,-0.168 0.487,-0.252 0.588,-0.252Zm-2.938,-5.42c-0.716,0 -1.289,0.223 -1.72,0.671c-0.431,0.447 -0.685,1.08 -0.763,1.896l4.749,0c-0.022,-0.828 -0.229,-1.463 -0.621,-1.905c-0.391,-0.442 -0.94,-0.662 -1.645,-0.662Z" style="fill:#232323;fill-rule:nonzero;"/><path d="M228.838,170.446c0.391,0.033 0.587,0.212 0.587,0.537c0,0.19 -0.07,0.333 -0.21,0.428c-0.139,0.095 -0.349,0.131 -0.629,0.109l-0.453,-0.034c-0.895,-0.067 -1.555,-0.335 -1.98,-0.805c-0.426,-0.47 -0.638,-1.181 -0.638,-2.132l0,-4.212l-1.125,0c-0.19,0 -0.338,-0.048 -0.444,-0.143c-0.107,-0.095 -0.16,-0.221 -0.16,-0.378c0,-0.167 0.053,-0.302 0.16,-0.402c0.106,-0.101 0.254,-0.151 0.444,-0.151l1.125,0l0,-1.897c0,-0.213 0.061,-0.378 0.184,-0.495c0.123,-0.118 0.291,-0.176 0.504,-0.176c0.201,0 0.364,0.058 0.487,0.176c0.123,0.117 0.184,0.282 0.184,0.495l0,1.897l1.863,0c0.179,0 0.322,0.05 0.428,0.151c0.106,0.1 0.16,0.235 0.16,0.402c0,0.157 -0.054,0.283 -0.16,0.378c-0.106,0.095 -0.249,0.143 -0.428,0.143l-1.863,0l0,4.279c0,0.616 0.126,1.061 0.378,1.335c0.252,0.274 0.629,0.428 1.133,0.461l0.453,0.034Z" style="fill:#232323;fill-rule:nonzero;"/><path d="M234.594,170.446c0.392,0.033 0.588,0.212 0.588,0.537c0,0.19 -0.07,0.333 -0.21,0.428c-0.14,0.095 -0.35,0.131 -0.629,0.109l-0.453,-0.034c-0.896,-0.067 -1.556,-0.335 -1.981,-0.805c-0.425,-0.47 -0.638,-1.181 -0.638,-2.132l0,-4.212l-1.124,0c-0.19,0 -0.339,-0.048 -0.445,-0.143c-0.106,-0.095 -0.159,-0.221 -0.159,-0.378c0,-0.167 0.053,-0.302 0.159,-0.402c0.106,-0.101 0.255,-0.151 0.445,-0.151l1.124,0l0,-1.897c0,-0.213 0.062,-0.378 0.185,-0.495c0.123,-0.118 0.291,-0.176 0.504,-0.176c0.201,0 0.363,0.058 0.486,0.176c0.123,0.117 0.185,0.282 0.185,0.495l0,1.897l1.863,0c0.179,0 0.321,0.05 0.428,0.151c0.106,0.1 0.159,0.235 0.159,0.402c0,0.157 -0.053,0.283 -0.159,0.378c-0.107,0.095 -0.249,0.143 -0.428,0.143l-1.863,0l0,4.279c0,0.616 0.126,1.061 0.377,1.335c0.252,0.274 0.63,0.428 1.133,0.461l0.453,0.034Z" style="fill:#232323;fill-rule:nonzero;"/><path d="M242.852,169.539c0.123,0 0.229,0.051 0.319,0.152c0.089,0.1 0.134,0.229 0.134,0.386c0,0.279 -0.196,0.537 -0.587,0.772c-0.403,0.235 -0.828,0.411 -1.276,0.528c-0.448,0.118 -0.884,0.176 -1.309,0.176c-1.264,0 -2.263,-0.374 -2.996,-1.124c-0.733,-0.75 -1.099,-1.785 -1.099,-3.105c0,-0.839 0.162,-1.58 0.487,-2.224c0.324,-0.643 0.78,-1.144 1.367,-1.502c0.588,-0.358 1.256,-0.537 2.006,-0.537c1.063,0 1.908,0.347 2.534,1.041c0.627,0.693 0.94,1.633 0.94,2.819c0,0.224 -0.045,0.386 -0.134,0.487c-0.09,0.101 -0.235,0.151 -0.437,0.151l-5.404,0c0.101,1.925 1.013,2.887 2.736,2.887c0.436,0 0.811,-0.059 1.124,-0.176c0.314,-0.118 0.649,-0.277 1.007,-0.479c0.291,-0.168 0.487,-0.252 0.588,-0.252Zm-2.937,-5.42c-0.716,0 -1.29,0.223 -1.721,0.671c-0.43,0.447 -0.685,1.08 -0.763,1.896l4.749,0c-0.022,-0.828 -0.229,-1.463 -0.621,-1.905c-0.391,-0.442 -0.939,-0.662 -1.644,-0.662Z" style="fill:#232323;fill-rule:nonzero;"/><path d="M249.414,163.095c0.47,-0.034 0.705,0.156 0.705,0.57c0,0.179 -0.05,0.322 -0.151,0.428c-0.101,0.107 -0.274,0.171 -0.52,0.193l-0.504,0.051c-0.75,0.067 -1.306,0.333 -1.67,0.797c-0.364,0.464 -0.545,1.01 -0.545,1.636l0,4.079c0,0.223 -0.062,0.391 -0.185,0.503c-0.123,0.112 -0.285,0.168 -0.487,0.168c-0.201,0 -0.366,-0.059 -0.495,-0.176c-0.128,-0.118 -0.193,-0.283 -0.193,-0.495l0,-7.083c0,-0.213 0.067,-0.378 0.202,-0.495c0.134,-0.118 0.296,-0.176 0.486,-0.176c0.179,0 0.33,0.058 0.453,0.176c0.124,0.117 0.185,0.277 0.185,0.478l0,0.94c0.235,-0.492 0.568,-0.867 0.999,-1.124c0.43,-0.258 0.926,-0.409 1.485,-0.453l0.235,-0.017Z" style="fill:#232323;fill-rule:nonzero;"/><path d="M254.566,163.061c2.048,0 3.072,1.074 3.072,3.223l0,4.565c0,0.201 -0.059,0.363 -0.177,0.486c-0.117,0.123 -0.276,0.185 -0.478,0.185c-0.201,0 -0.363,-0.062 -0.487,-0.185c-0.123,-0.123 -0.184,-0.285 -0.184,-0.486l0,-0.806c-0.213,0.481 -0.537,0.853 -0.974,1.116c-0.436,0.263 -0.939,0.394 -1.51,0.394c-0.526,0 -1.01,-0.106 -1.452,-0.318c-0.442,-0.213 -0.791,-0.51 -1.049,-0.89c-0.257,-0.38 -0.386,-0.8 -0.386,-1.259c0,-0.615 0.157,-1.093 0.47,-1.435c0.313,-0.341 0.828,-0.587 1.544,-0.738c0.716,-0.151 1.712,-0.227 2.988,-0.227l0.369,0l0,-0.554c0,-0.671 -0.137,-1.163 -0.411,-1.476c-0.274,-0.314 -0.719,-0.47 -1.335,-0.47c-0.76,0 -1.532,0.207 -2.316,0.621c-0.302,0.19 -0.514,0.285 -0.637,0.285c-0.135,0 -0.247,-0.05 -0.336,-0.151c-0.09,-0.101 -0.134,-0.229 -0.134,-0.386c0,-0.157 0.047,-0.294 0.142,-0.411c0.095,-0.118 0.249,-0.238 0.462,-0.361c0.391,-0.224 0.836,-0.4 1.334,-0.529c0.498,-0.128 0.993,-0.193 1.485,-0.193Zm-0.553,7.418c0.671,0 1.222,-0.226 1.653,-0.679c0.43,-0.454 0.646,-1.038 0.646,-1.754l0,-0.487l-0.302,0c-0.985,0 -1.735,0.042 -2.249,0.126c-0.515,0.084 -0.881,0.224 -1.099,0.419c-0.219,0.196 -0.328,0.484 -0.328,0.865c0,0.436 0.16,0.797 0.479,1.082c0.318,0.286 0.718,0.428 1.2,0.428Z" style="fill:#232323;fill-rule:nonzero;"/><path d="M265.14,171.52c-0.202,0 -0.367,-0.059 -0.495,-0.176c-0.129,-0.118 -0.193,-0.283 -0.193,-0.495l0,-7.083c0,-0.213 0.064,-0.378 0.193,-0.495c0.128,-0.118 0.293,-0.176 0.495,-0.176c0.201,0 0.363,0.058 0.486,0.176c0.124,0.117 0.185,0.282 0.185,0.495l0,7.083c0,0.223 -0.061,0.391 -0.185,0.503c-0.123,0.112 -0.285,0.168 -0.486,0.168Zm0,-10.187c-0.269,0 -0.487,-0.079 -0.655,-0.235c-0.168,-0.157 -0.252,-0.364 -0.252,-0.621c0,-0.247 0.084,-0.448 0.252,-0.605c0.168,-0.156 0.386,-0.235 0.655,-0.235c0.268,0 0.486,0.079 0.654,0.235c0.168,0.157 0.252,0.358 0.252,0.605c0,0.257 -0.084,0.464 -0.252,0.621c-0.168,0.156 -0.386,0.235 -0.654,0.235Z" style="fill:#232323;fill-rule:nonzero;"/><path d="M278.684,170.362c0.19,0 0.335,0.047 0.436,0.142c0.101,0.096 0.151,0.227 0.151,0.395c0,0.168 -0.05,0.299 -0.151,0.394c-0.101,0.095 -0.246,0.143 -0.436,0.143l-5.874,0c-0.191,0 -0.347,-0.059 -0.47,-0.176c-0.123,-0.118 -0.185,-0.26 -0.185,-0.428c0,-0.179 0.067,-0.353 0.201,-0.521l4.968,-5.974l-4.598,0c-0.19,0 -0.339,-0.048 -0.445,-0.143c-0.106,-0.095 -0.159,-0.221 -0.159,-0.378c0,-0.167 0.053,-0.302 0.159,-0.402c0.106,-0.101 0.255,-0.151 0.445,-0.151l5.689,0c0.202,0 0.364,0.058 0.487,0.176c0.123,0.117 0.185,0.26 0.185,0.428c0,0.179 -0.068,0.352 -0.202,0.52l-4.984,5.975l4.783,0Z" style="fill:#232323;fill-rule:nonzero;"/><path d="M286.907,163.514c0.124,-0.268 0.319,-0.402 0.588,-0.402c0.168,0 0.319,0.055 0.453,0.167c0.134,0.112 0.201,0.252 0.201,0.42c0,0.101 -0.022,0.19 -0.067,0.268l-4.716,10.171c-0.056,0.123 -0.137,0.218 -0.243,0.285c-0.106,0.067 -0.216,0.101 -0.327,0.101c-0.168,0 -0.316,-0.053 -0.445,-0.159c-0.129,-0.107 -0.193,-0.244 -0.193,-0.412c0,-0.089 0.022,-0.179 0.067,-0.268l1.175,-2.534l-3.323,-7.184c-0.045,-0.078 -0.067,-0.162 -0.067,-0.251c0,-0.168 0.075,-0.314 0.226,-0.437c0.151,-0.123 0.316,-0.184 0.495,-0.184c0.112,0 0.221,0.033 0.328,0.1c0.106,0.068 0.187,0.163 0.243,0.286l2.803,6.293l2.802,-6.26Z" style="fill:#232323;fill-rule:nonzero;"/><path d="M292.244,171.553c-0.514,0 -1.004,-0.061 -1.468,-0.184c-0.464,-0.123 -0.876,-0.297 -1.234,-0.52c-0.201,-0.135 -0.344,-0.261 -0.428,-0.378c-0.083,-0.118 -0.125,-0.26 -0.125,-0.428c0,-0.146 0.042,-0.266 0.125,-0.361c0.084,-0.095 0.193,-0.143 0.328,-0.143c0.134,0 0.33,0.084 0.587,0.252c0.336,0.202 0.669,0.361 0.999,0.479c0.33,0.117 0.741,0.176 1.233,0.176c0.604,0 1.074,-0.107 1.41,-0.319c0.336,-0.213 0.504,-0.52 0.504,-0.923c0,-0.246 -0.062,-0.445 -0.185,-0.596c-0.123,-0.151 -0.336,-0.285 -0.638,-0.403c-0.302,-0.117 -0.744,-0.238 -1.326,-0.361c-0.984,-0.212 -1.689,-0.498 -2.114,-0.856c-0.426,-0.358 -0.638,-0.844 -0.638,-1.46c0,-0.481 0.134,-0.906 0.403,-1.275c0.268,-0.369 0.64,-0.66 1.116,-0.873c0.475,-0.213 1.015,-0.319 1.619,-0.319c0.437,0 0.859,0.059 1.267,0.176c0.409,0.118 0.77,0.283 1.083,0.495c0.38,0.269 0.571,0.549 0.571,0.84c0,0.145 -0.045,0.268 -0.135,0.369c-0.089,0.101 -0.195,0.151 -0.319,0.151c-0.134,0 -0.335,-0.095 -0.604,-0.285c-0.313,-0.202 -0.61,-0.358 -0.889,-0.47c-0.28,-0.112 -0.627,-0.168 -1.041,-0.168c-0.526,0 -0.948,0.117 -1.267,0.352c-0.319,0.235 -0.478,0.549 -0.478,0.94c0,0.246 0.058,0.445 0.176,0.596c0.117,0.151 0.313,0.285 0.587,0.403c0.275,0.117 0.669,0.232 1.184,0.344c0.76,0.168 1.351,0.352 1.77,0.554c0.42,0.201 0.719,0.447 0.898,0.738c0.179,0.291 0.269,0.66 0.269,1.108c0,0.705 -0.297,1.273 -0.89,1.703c-0.593,0.431 -1.376,0.646 -2.35,0.646Z" style="fill:#232323;fill-rule:nonzero;"/><path d="M304.077,170.362c0.179,0.168 0.268,0.347 0.268,0.537c0,0.168 -0.059,0.313 -0.176,0.436c-0.118,0.123 -0.26,0.185 -0.428,0.185c-0.146,0 -0.297,-0.067 -0.453,-0.202l-4.381,-3.776l0,3.307c0,0.212 -0.064,0.377 -0.193,0.495c-0.128,0.117 -0.288,0.176 -0.478,0.176c-0.201,0 -0.366,-0.059 -0.495,-0.176c-0.129,-0.118 -0.193,-0.283 -0.193,-0.495l0,-10.658c0,-0.212 0.064,-0.377 0.193,-0.495c0.129,-0.117 0.294,-0.176 0.495,-0.176c0.19,0 0.35,0.059 0.478,0.176c0.129,0.118 0.193,0.283 0.193,0.495l0,6.814l4.012,-3.675c0.134,-0.135 0.285,-0.202 0.453,-0.202c0.168,0 0.313,0.062 0.436,0.185c0.123,0.123 0.185,0.268 0.185,0.436c0,0.19 -0.079,0.358 -0.235,0.504l-3.307,2.954l3.626,3.155Z" style="fill:#232323;fill-rule:nonzero;"/><path d="M309.212,163.061c2.048,0 3.072,1.074 3.072,3.223l0,4.565c0,0.201 -0.059,0.363 -0.177,0.486c-0.117,0.123 -0.277,0.185 -0.478,0.185c-0.201,0 -0.364,-0.062 -0.487,-0.185c-0.123,-0.123 -0.184,-0.285 -0.184,-0.486l0,-0.806c-0.213,0.481 -0.537,0.853 -0.974,1.116c-0.436,0.263 -0.94,0.394 -1.51,0.394c-0.526,0 -1.01,-0.106 -1.452,-0.318c-0.442,-0.213 -0.792,-0.51 -1.049,-0.89c-0.257,-0.38 -0.386,-0.8 -0.386,-1.259c0,-0.615 0.157,-1.093 0.47,-1.435c0.313,-0.341 0.828,-0.587 1.544,-0.738c0.716,-0.151 1.712,-0.227 2.987,-0.227l0.37,0l0,-0.554c0,-0.671 -0.137,-1.163 -0.412,-1.476c-0.274,-0.314 -0.718,-0.47 -1.334,-0.47c-0.761,0 -1.533,0.207 -2.316,0.621c-0.302,0.19 -0.515,0.285 -0.638,0.285c-0.134,0 -0.246,-0.05 -0.335,-0.151c-0.09,-0.101 -0.135,-0.229 -0.135,-0.386c0,-0.157 0.048,-0.294 0.143,-0.411c0.095,-0.118 0.249,-0.238 0.462,-0.361c0.391,-0.224 0.836,-0.4 1.334,-0.529c0.498,-0.128 0.993,-0.193 1.485,-0.193Zm-0.554,7.418c0.672,0 1.223,-0.226 1.654,-0.679c0.43,-0.454 0.646,-1.038 0.646,-1.754l0,-0.487l-0.302,0c-0.985,0 -1.735,0.042 -2.249,0.126c-0.515,0.084 -0.881,0.224 -1.1,0.419c-0.218,0.196 -0.327,0.484 -0.327,0.865c0,0.436 0.16,0.797 0.478,1.082c0.319,0.286 0.719,0.428 1.2,0.428Z" style="fill:#232323;fill-rule:nonzero;"/><path d="M313.072,174.49c-0.279,0.023 -0.489,-0.014 -0.629,-0.109c-0.14,-0.095 -0.21,-0.237 -0.21,-0.428c0,-0.302 0.196,-0.475 0.588,-0.52l0.47,-0.033c0.503,-0.034 0.875,-0.185 1.116,-0.454c0.24,-0.268 0.36,-0.71 0.36,-1.325l0,-7.855c0,-0.213 0.065,-0.378 0.193,-0.495c0.129,-0.118 0.294,-0.176 0.496,-0.176c0.201,0 0.363,0.058 0.486,0.176c0.123,0.117 0.185,0.282 0.185,0.495l0,7.771c0,0.939 -0.21,1.644 -0.629,2.114c-0.42,0.47 -1.072,0.739 -1.956,0.806l-0.47,0.033Zm2.384,-13.157c-0.269,0 -0.487,-0.079 -0.655,-0.235c-0.168,-0.157 -0.252,-0.364 -0.252,-0.621c0,-0.247 0.084,-0.448 0.252,-0.605c0.168,-0.156 0.386,-0.235 0.655,-0.235c0.268,0 0.486,0.079 0.654,0.235c0.168,0.157 0.252,0.358 0.252,0.605c0,0.257 -0.084,0.464 -0.252,0.621c-0.168,0.156 -0.386,0.235 -0.654,0.235Z" style="fill:#232323;fill-rule:nonzero;"/></g><defs><linearGradient id="_Linear1" x1="0" y1="0" x2="1" y2="0" gradientUnits="userSpaceOnUse" gradientTransform="matrix(156.672,-91.178,91.178,156.672,79.8449,109.604)"><stop offset="0" style="stop-color:#009dff;stop-opacity:1"/><stop offset="1" style="stop-color:#00ffa1;stop-opacity:1"/></linearGradient></defs></svg>