<?xml version="1.0" encoding="UTF-8" standalone="no"?><!DOCTYPE svg PUBLIC "-//W3C//DTD SVG 1.1//EN" "http://www.w3.org/Graphics/SVG/1.1/DTD/svg11.dtd"><svg width="100%" height="100%" viewBox="0 0 2250 2250" version="1.1" xmlns="http://www.w3.org/2000/svg" xmlns:xlink="http://www.w3.org/1999/xlink" xml:space="preserve" xmlns:serif="http://www.serif.com/" style="fill-rule:evenodd;clip-rule:evenodd;stroke-linecap:round;stroke-linejoin:round;stroke-miterlimit:1.5;"><path d="M722.922,290.101c-27.273,-0.294 -49.621,-22.821 -49.621,-50.158c0,-27.518 22.644,-50.161 50.161,-50.161c27.518,-0 50.161,22.643 50.161,50.161c0,0.002 0,0.004 0,0.006c0,27.522 -22.164,49.861 -49.617,50.152c27.091,0.294 49.322,22.525 49.614,49.617c0.292,-27.093 22.525,-49.325 49.618,-49.617c-27.27,-0.294 -49.615,-22.818 -49.615,-50.152c0,-27.514 22.641,-50.155 50.155,-50.155c0.005,0 0.009,0 0.013,0c27.511,0 50.149,22.638 50.149,50.149l-0,0.006c-0,27.335 -22.347,49.86 -49.618,50.152c27.272,0.296 49.618,22.822 49.618,50.158l-0,-0c-0,27.518 -22.644,50.161 -50.162,50.161c-27.337,0 -49.864,-22.347 -50.158,-49.62c-0.294,27.273 -22.821,49.62 -50.158,49.62c-27.517,0 -50.161,-22.643 -50.161,-50.161l0,-0c0,-27.337 22.348,-49.864 49.621,-50.158Zm868.553,-111.23c28.868,0.124 40.562,16.119 45.549,25.78l0.591,-0l-0,-21.899l39.406,0l0,139.742c0,25.511 -2.06,67.926 -79.127,67.926c-32.352,0 -66.475,-13.029 -68.24,-44.363l44.708,0c1.765,7.482 5.007,14.97 28.822,14.97c22.074,0 32.659,-9.982 32.659,-33.828l0,-17.74l-0.59,-0.553c-6.772,11.37 -17.068,22.175 -41.775,22.175c-37.641,0 -67.361,-24.675 -67.361,-76.244c-0,-51.015 30.587,-75.967 65.018,-75.967l0.34,0.001Zm-918.174,161.388c0,27.518 -22.644,50.161 -50.161,50.161c-27.518,0 -50.161,-22.643 -50.161,-50.161c-0,-27.518 22.643,-50.161 50.161,-50.161c27.517,-0 50.161,22.643 50.161,50.161Zm399.65,-105.643c-1.765,-9.806 -5.296,-20.184 -27.647,-20.184c-22.357,-0 -25.297,8.361 -25.297,14.995c-0,24.223 97.954,6.634 97.954,63.158c0,44.696 -44.124,52.769 -68.536,52.769c-35.593,-0 -74.127,-12.118 -75.308,-53.058l42.36,0c-0,12.973 8.235,22.49 34.123,22.49c21.183,-0 26.177,-10.089 26.177,-15.856c-0,-25.668 -97.069,-6.345 -97.069,-63.736c0,-22.49 14.411,-51.33 63.241,-51.33c30.592,0 67.065,7.494 70.294,50.752l-40.292,-0Zm330.511,40.945c1.181,11.535 3.531,37.491 36.775,37.491c11.47,-0 23.236,-5.767 26.478,-16.723l42.353,0c-10.881,36.907 -42.058,49.025 -68.831,49.025c-44.118,-0 -77.947,-20.762 -77.947,-83.914c0,-18.457 6.465,-77.576 75,-77.576c30.895,0 73.543,14.417 73.543,84.492l-0,7.205l-107.371,0Zm-237.268,65.76l-41.185,-0l0,-153.424l39.42,0l-0,22.496l0.59,-0c5.289,-10.089 16.76,-26.529 44.413,-26.529c22.647,0 32.943,8.079 43.534,24.512c5.302,-7.494 16.773,-24.512 41.775,-24.512c30.587,0 54.414,17.589 54.414,51.33l-0,106.12l0.006,0l-41.19,0l-0,-93.142c-0,-22.778 -10.296,-30.279 -22.358,-30.279c-20.586,0 -27.936,13.261 -27.936,31.435l0,91.993l-41.19,-0l-0,-92.282c-0,-12.978 -0,-31.146 -24.713,-31.146c-19.411,0 -25.58,13.261 -25.58,29.99l-0,93.438Zm434.942,-42.95c27.935,-0 35.003,-22.458 35.003,-42.698c-0,-23.84 -12.357,-43.251 -35.299,-43.251c-15.302,-0 -32.364,10.534 -32.364,44.915c-0,18.859 8.242,41.034 32.66,41.034Zm-626.88,-58.422c0.004,0.263 0.006,0.525 0.006,0.788c-0,27.517 -22.644,50.161 -50.161,50.161c-27.518,-0 -50.162,-22.644 -50.162,-50.161c0,-0.267 0.003,-0.534 0.007,-0.8c0.434,-27.212 22.939,-49.362 50.155,-49.362c27.22,0 49.727,22.157 50.155,49.374Zm494.224,9.379c-2.356,-24.807 -18.538,-32.302 -31.78,-32.302c-19.411,0 -29.707,12.112 -32.063,32.302l63.843,0Z" style="fill:#fff;"/><g><path d="M425.039,1309.42l146.004,0l0,230.277l-146.004,-0l51.783,-115.138l-51.783,-115.139Z" style="fill:#e8e8e8;"/><path d="M1824.96,1309.42l-146.004,0l-0,230.277l146.004,-0l-51.783,-115.138l51.783,-115.139Z" style="fill:#e8e8e8;"/><path d="M571.043,1309.42l-78.727,86.6l-0,230.277l78.727,-86.6l0,-230.277Z" style="fill:#b4b4b4;"/><path d="M1678.96,1309.42l78.727,86.6l0,230.277l-78.727,-86.6l-0,-230.277Z" style="fill:#b4b4b4;"/><path d="M552.724,1576.75l-0,-314.01l0.003,0l-0.003,-0.002l-0,-604.582c142.797,-86.591 346.199,-140.77 571.769,-140.77c225.571,-0 428.973,54.179 571.77,140.77l0,918.594c0,0 -571.77,234.478 -571.77,234.478c0,-0 -571.769,-234.478 -571.769,-234.478Z" style="fill:#2b2b2b;"/><path d="M586.498,1556.61l-0,-300.065l0.003,0l-0.003,-0.002l-0,-577.732c134.362,-82.746 325.749,-134.519 537.995,-134.519c212.246,-0 403.634,51.773 537.996,134.519l0,877.799c0,-0 -537.996,224.064 -537.996,224.064c0,-0 -537.995,-224.064 -537.995,-224.064Z" style="fill:#2b2b2b;stroke:#fff;stroke-width:11.51px;"/><rect x="492.316" y="1396.02" width="1265.37" height="230.277" style="fill:#fff;"/></g><g transform="matrix(3.18918,0,0,3.18918,-378.946,-678.305)"><g transform="matrix(108.735,0,0,108.735,362.647,521.518)"><path d="M0.039,-0c0,-0.046 0.003,-0.086 0.008,-0.121c0.004,-0.035 0.014,-0.065 0.027,-0.091c0.014,-0.026 0.033,-0.049 0.056,-0.069c0.022,-0.019 0.052,-0.038 0.088,-0.055c0.021,-0.01 0.042,-0.02 0.062,-0.03c0.02,-0.01 0.038,-0.021 0.053,-0.034c0.016,-0.012 0.029,-0.026 0.038,-0.041c0.01,-0.015 0.015,-0.033 0.015,-0.053c0,-0.027 -0.008,-0.048 -0.024,-0.062c-0.016,-0.013 -0.037,-0.02 -0.062,-0.02c-0.016,0 -0.032,0.002 -0.047,0.007c-0.015,0.005 -0.03,0.011 -0.044,0.019c-0.013,0.007 -0.026,0.016 -0.038,0.025c-0.012,0.009 -0.022,0.019 -0.031,0.028l-0.1,-0.106c0.011,-0.013 0.025,-0.026 0.043,-0.039c0.018,-0.013 0.039,-0.026 0.063,-0.037c0.024,-0.011 0.051,-0.021 0.08,-0.028c0.03,-0.007 0.062,-0.011 0.096,-0.011c0.079,0 0.14,0.02 0.182,0.06c0.043,0.039 0.064,0.093 0.064,0.162c-0,0.029 -0.004,0.055 -0.012,0.077c-0.008,0.021 -0.019,0.041 -0.033,0.058c-0.014,0.017 -0.031,0.032 -0.05,0.045c-0.019,0.013 -0.041,0.025 -0.064,0.037c-0.021,0.011 -0.04,0.021 -0.058,0.031c-0.017,0.01 -0.033,0.02 -0.046,0.031c-0.013,0.011 -0.023,0.022 -0.03,0.034c-0.007,0.012 -0.011,0.025 -0.011,0.039l0.305,0l0,0.144l-0.53,0Z" style="fill:#fff;fill-rule:nonzero;"/></g><g transform="matrix(108.735,0,0,108.735,448.765,521.518)"><path d="M0.366,-0.391l0,0.072l-0.118,0l0,0.128l-0.08,0l0,-0.128l-0.118,0l0,-0.072l0.118,0l0,-0.128l0.08,0l0,0.128l0.118,0Z" style="fill:#fff;fill-rule:nonzero;"/></g><g transform="matrix(108.735,0,0,108.735,512.81,521.518)"><path d="M0.268,0.009c-0.056,-0 -0.104,-0.011 -0.143,-0.033c-0.039,-0.021 -0.068,-0.053 -0.087,-0.095l0.083,-0.109c0.002,0.006 0.006,0.014 0.013,0.024c0.006,0.01 0.015,0.02 0.026,0.029c0.011,0.01 0.026,0.019 0.043,0.026c0.017,0.007 0.038,0.011 0.062,0.011c0.015,-0 0.029,-0.002 0.042,-0.005c0.013,-0.003 0.025,-0.008 0.036,-0.015c0.01,-0.006 0.018,-0.014 0.024,-0.024c0.006,-0.009 0.009,-0.02 0.009,-0.033c0,-0.031 -0.017,-0.053 -0.05,-0.066c-0.034,-0.013 -0.082,-0.02 -0.145,-0.02l-0.033,0l-0,-0.133l0.033,0c0.025,0 0.048,-0.002 0.069,-0.005c0.021,-0.003 0.04,-0.007 0.056,-0.014c0.016,-0.007 0.029,-0.015 0.038,-0.025c0.009,-0.011 0.014,-0.023 0.014,-0.038c0,-0.012 -0.003,-0.022 -0.009,-0.03c-0.005,-0.009 -0.012,-0.015 -0.02,-0.02c-0.008,-0.005 -0.017,-0.008 -0.026,-0.01c-0.009,-0.002 -0.018,-0.003 -0.025,-0.003c-0.02,0 -0.038,0.002 -0.053,0.007c-0.015,0.005 -0.029,0.011 -0.04,0.018c-0.012,0.007 -0.022,0.015 -0.03,0.024c-0.009,0.009 -0.015,0.017 -0.02,0.025l-0.102,-0.118c0.012,-0.015 0.027,-0.029 0.046,-0.041c0.018,-0.012 0.038,-0.022 0.06,-0.03c0.021,-0.008 0.044,-0.014 0.068,-0.018c0.023,-0.005 0.047,-0.007 0.07,-0.007c0.036,0 0.07,0.005 0.101,0.015c0.031,0.01 0.057,0.024 0.08,0.041c0.022,0.017 0.039,0.038 0.052,0.062c0.013,0.023 0.019,0.049 0.019,0.077c0,0.039 -0.012,0.072 -0.036,0.097c-0.024,0.025 -0.056,0.042 -0.095,0.051c0.022,0.004 0.042,0.012 0.06,0.023c0.018,0.011 0.033,0.024 0.046,0.041c0.013,0.016 0.022,0.034 0.029,0.055c0.007,0.02 0.01,0.041 0.01,0.063c0,0.035 -0.008,0.066 -0.024,0.092c-0.017,0.025 -0.038,0.046 -0.064,0.063c-0.026,0.017 -0.055,0.029 -0.088,0.037c-0.033,0.007 -0.066,0.011 -0.099,0.011Z" style="fill:#fff;fill-rule:nonzero;"/></g></g><path d="M791.124,1281.67l0,-205.551l20.266,0l-0,187.602l118.698,-0l0,17.949l-138.964,0Z" style="fill:#fff;fill-rule:nonzero;"/><path d="M1023.6,1076.12l17.081,0l85.405,205.551l-21.424,0l-26.635,-64.27l-92.353,-0l-26.345,64.27l-21.713,0l85.984,-205.551Zm49.795,125.358l-41.4,-101.618l-41.978,101.618l83.378,-0Z" style="fill:#fff;fill-rule:nonzero;"/><path d="M1281.26,1094.07l-73.245,-0l-0,187.601l-20.266,0l-0,-187.601l-73.246,-0l0,-17.95l166.757,0l0,17.95Z" style="fill:#fff;fill-rule:nonzero;"/><path d="M1355.38,1076.12l17.081,0l85.405,205.551l-21.423,0l-26.635,-64.27l-92.353,-0l-26.345,64.27l-21.714,0l85.984,-205.551Zm49.796,125.358l-41.4,-101.618l-41.979,101.618l83.379,-0Z" style="fill:#fff;fill-rule:nonzero;"/><path d="M751.889,1947.41l0,47.95l-19.369,-0l0,-83.853l15.117,0l39.092,49.249l0,-49.249l19.369,0l0,83.853l-15.589,-0l-38.62,-47.95Z" style="fill:#fff;fill-rule:nonzero;"/><path d="M844.954,1911.51l17.479,0l30.588,83.853l-19.841,-0l-6.495,-18.779l-26.101,0l-6.378,18.779l-19.841,-0l30.589,-83.853Zm18.542,51.729l-9.803,-29.644l-10.038,29.644l19.841,-0Z" style="fill:#fff;fill-rule:nonzero;"/><path d="M925.145,1995.36l0,-83.853l31.297,0c6.929,0 12.992,1.102 18.188,3.307c5.197,2.204 9.547,5.196 13.05,8.976c3.504,3.779 6.142,8.208 7.913,13.286c1.772,5.079 2.657,10.492 2.657,16.239c0,6.378 -0.984,12.145 -2.952,17.302c-1.968,5.157 -4.783,9.567 -8.444,13.228c-3.662,3.661 -8.071,6.495 -13.228,8.503c-5.157,2.008 -10.885,3.012 -17.184,3.012l-31.297,-0Zm53.382,-42.045c0,-3.7 -0.492,-7.066 -1.476,-10.097c-0.984,-3.032 -2.421,-5.65 -4.311,-7.854c-1.889,-2.205 -4.212,-3.898 -6.968,-5.079c-2.755,-1.181 -5.865,-1.771 -9.33,-1.771l-11.928,-0l-0,49.839l11.928,-0c3.543,-0 6.693,-0.63 9.448,-1.89c2.756,-1.259 5.059,-3.011 6.909,-5.255c1.851,-2.244 3.268,-4.882 4.252,-7.913c0.984,-3.031 1.476,-6.358 1.476,-9.98Z" style="fill:#fff;fill-rule:nonzero;"/><path d="M1045.73,1978.83c3.306,0 6.102,-0.689 8.385,-2.066c2.283,-1.378 4.133,-3.209 5.551,-5.492c1.417,-2.283 2.421,-4.901 3.011,-7.854c0.591,-2.953 0.886,-5.964 0.886,-9.035l0,-42.871l19.369,0l-0,42.871c-0,5.827 -0.728,11.259 -2.185,16.298c-1.457,5.039 -3.701,9.448 -6.732,13.228c-3.031,3.779 -6.889,6.751 -11.574,8.916c-4.685,2.166 -10.255,3.248 -16.711,3.248c-6.693,0 -12.401,-1.141 -17.125,-3.425c-4.724,-2.283 -8.563,-5.334 -11.515,-9.153c-2.953,-3.818 -5.118,-8.247 -6.496,-13.286c-1.378,-5.039 -2.067,-10.314 -2.067,-15.826l0,-42.871l19.369,0l0,42.871c0,3.228 0.315,6.299 0.945,9.212c0.63,2.913 1.653,5.512 3.071,7.795c1.417,2.283 3.247,4.094 5.491,5.433c2.244,1.338 5.02,2.007 8.327,2.007Z" style="fill:#fff;fill-rule:nonzero;"/><path d="M1093.2,1980.84l43.698,-52.319l-42.045,-0l0,-17.007l64.366,0l-0,14.527l-41.572,52.319l42.044,-0l0,17.007l-66.491,-0l-0,-14.527Zm26.337,-77.357l-0,-16.18l17.006,0l0,16.18l-17.006,0Z" style="fill:#fff;fill-rule:nonzero;"/><path d="M1230.68,1978.36l-0,17.007l-58.933,-0l-0,-83.853l57.87,0l-0,17.007l-38.501,-0l-0,16.298l33.068,-0l0,15.708l-33.068,-0l-0,17.833l39.564,-0Z" style="fill:#fff;fill-rule:nonzero;"/><path d="M1289.14,1911.51l17.48,0l30.588,83.853l-19.841,-0l-6.496,-18.779l-26.1,0l-6.378,18.779l-19.841,-0l30.588,-83.853Zm18.542,51.729l-9.802,-29.644l-10.039,29.644l19.841,-0Z" style="fill:#fff;fill-rule:nonzero;"/><path d="M1379.37,1995.95c-6.142,0 -11.771,-1.201 -16.889,-3.602c-5.118,-2.401 -9.527,-5.59 -13.227,-9.566c-3.701,-3.976 -6.575,-8.563 -8.622,-13.759c-2.047,-5.197 -3.071,-10.59 -3.071,-16.18c0,-5.354 0.945,-10.551 2.835,-15.59c1.889,-5.039 4.606,-9.507 8.149,-13.404c3.543,-3.898 7.854,-7.027 12.932,-9.389c5.078,-2.362 10.806,-3.543 17.184,-3.543c7.244,-0 13.601,1.515 19.073,4.546c5.473,3.032 9.823,7.303 13.051,12.815l-15.353,12.046c-0.473,-0.787 -1.162,-1.87 -2.067,-3.248c-0.906,-1.378 -2.067,-2.716 -3.484,-4.015c-1.418,-1.299 -3.15,-2.441 -5.197,-3.425c-2.047,-0.984 -4.409,-1.477 -7.086,-1.477c-3.307,0 -6.24,0.729 -8.799,2.185c-2.558,1.457 -4.684,3.366 -6.377,5.728c-1.693,2.362 -2.972,5.059 -3.838,8.09c-0.867,3.032 -1.3,6.122 -1.3,9.271c0,2.914 0.394,5.866 1.181,8.858c0.788,2.992 2.008,5.708 3.662,8.149c1.653,2.441 3.759,4.429 6.318,5.964c2.559,1.536 5.571,2.303 9.035,2.303c2.205,0 4.291,-0.334 6.259,-1.004c1.969,-0.669 3.74,-1.555 5.315,-2.657c1.575,-1.102 2.913,-2.362 4.015,-3.779c1.103,-1.417 1.929,-2.913 2.481,-4.488l-15.826,-0l-0,-17.007l36.848,0l-0,8.622c-0,5.039 -0.906,9.842 -2.717,14.408c-1.81,4.567 -4.35,8.563 -7.617,11.988c-3.268,3.425 -7.185,6.141 -11.751,8.149c-4.567,2.007 -9.606,3.011 -15.117,3.011Z" style="fill:#fff;fill-rule:nonzero;"/><path d="M1427.08,1995.36l-0,-83.853l31.297,0c6.929,0 12.991,1.102 18.188,3.307c5.196,2.204 9.546,5.196 13.05,8.976c3.504,3.779 6.141,8.208 7.913,13.286c1.771,5.079 2.657,10.492 2.657,16.239c0,6.378 -0.984,12.145 -2.952,17.302c-1.969,5.157 -4.783,9.567 -8.445,13.228c-3.661,3.661 -8.07,6.495 -13.227,8.503c-5.157,2.008 -10.885,3.012 -17.184,3.012l-31.297,-0Zm53.382,-42.045c0,-3.7 -0.492,-7.066 -1.476,-10.097c-0.984,-3.032 -2.421,-5.65 -4.311,-7.854c-1.889,-2.205 -4.212,-3.898 -6.968,-5.079c-2.756,-1.181 -5.866,-1.771 -9.33,-1.771l-11.928,-0l-0,49.839l11.928,-0c3.543,-0 6.692,-0.63 9.448,-1.89c2.756,-1.259 5.059,-3.011 6.909,-5.255c1.85,-2.244 3.268,-4.882 4.252,-7.913c0.984,-3.031 1.476,-6.358 1.476,-9.98Z" style="fill:#fff;fill-rule:nonzero;"/><path d="M377.471,2104.23l0,-54.137l22.723,-0c2.44,-0 4.689,0.508 6.748,1.525c2.059,1.016 3.825,2.351 5.299,4.003c1.474,1.652 2.631,3.533 3.47,5.642c0.838,2.11 1.258,4.258 1.258,6.443c-0,2.288 -0.394,4.486 -1.182,6.596c-0.788,2.11 -1.894,3.99 -3.317,5.642c-1.423,1.653 -3.139,2.974 -5.147,3.966c-2.008,0.991 -4.232,1.486 -6.672,1.486l-14.64,0l0,18.834l-8.54,0Zm8.54,-26.382l14.107,-0c1.22,-0 2.325,-0.255 3.316,-0.763c0.992,-0.508 1.843,-1.22 2.555,-2.135c0.711,-0.915 1.271,-1.982 1.677,-3.202c0.407,-1.22 0.61,-2.567 0.61,-4.042c0,-1.525 -0.228,-2.897 -0.686,-4.117c-0.457,-1.22 -1.093,-2.275 -1.906,-3.165c-0.814,-0.889 -1.741,-1.575 -2.783,-2.058c-1.042,-0.483 -2.123,-0.725 -3.241,-0.725l-13.649,0l0,20.207Z" style="fill:#fff;fill-rule:nonzero;"/><path d="M424.975,2104.23l0,-54.137l23.561,-0c2.44,-0 4.69,0.508 6.748,1.525c2.059,1.016 3.826,2.351 5.3,4.003c1.474,1.652 2.63,3.533 3.469,5.642c0.839,2.11 1.258,4.258 1.258,6.443c0,1.83 -0.254,3.584 -0.762,5.262c-0.508,1.677 -1.22,3.228 -2.135,4.651c-0.915,1.423 -2.033,2.656 -3.355,3.698c-1.322,1.042 -2.771,1.817 -4.346,2.326l12.733,20.587l-9.683,0l-11.743,-18.834l-12.505,0l0,18.834l-8.54,0Zm8.54,-26.382l14.945,-0c1.22,-0 2.326,-0.267 3.317,-0.801c0.991,-0.534 1.843,-1.271 2.554,-2.211c0.712,-0.941 1.271,-2.021 1.678,-3.241c0.407,-1.22 0.61,-2.516 0.61,-3.889c-0,-1.372 -0.242,-2.668 -0.725,-3.888c-0.482,-1.22 -1.118,-2.288 -1.906,-3.203c-0.788,-0.915 -1.703,-1.639 -2.745,-2.173c-1.042,-0.534 -2.122,-0.801 -3.24,-0.801l-14.488,0l0,20.207Z" style="fill:#fff;fill-rule:nonzero;"/><path d="M497.87,2104.61c-3.863,0 -7.383,-0.775 -10.56,-2.325c-3.178,-1.551 -5.91,-3.609 -8.197,-6.176c-2.288,-2.568 -4.054,-5.503 -5.3,-8.807c-1.245,-3.305 -1.868,-6.685 -1.868,-10.142c0,-3.609 0.661,-7.065 1.983,-10.37c1.321,-3.304 3.139,-6.227 5.452,-8.768c2.312,-2.542 5.057,-4.563 8.235,-6.062c3.177,-1.5 6.646,-2.25 10.408,-2.25c3.863,0 7.383,0.801 10.56,2.402c3.177,1.601 5.897,3.698 8.159,6.291c2.262,2.592 4.016,5.528 5.261,8.807c1.246,3.278 1.868,6.621 1.868,10.027c0,3.609 -0.648,7.065 -1.944,10.37c-1.296,3.304 -3.113,6.214 -5.452,8.73c-2.338,2.517 -5.096,4.524 -8.273,6.024c-3.177,1.5 -6.621,2.249 -10.332,2.249Zm-17.232,-27.45c-0,2.542 0.406,5.007 1.22,7.397c0.813,2.389 1.969,4.498 3.469,6.328c1.5,1.83 3.317,3.292 5.452,4.385c2.135,1.093 4.524,1.639 7.167,1.639c2.745,0 5.173,-0.572 7.282,-1.715c2.11,-1.144 3.902,-2.657 5.376,-4.537c1.474,-1.881 2.592,-3.991 3.355,-6.329c0.762,-2.338 1.144,-4.728 1.144,-7.168c-0,-2.592 -0.407,-5.07 -1.22,-7.434c-0.814,-2.364 -1.97,-4.448 -3.47,-6.253c-1.499,-1.804 -3.304,-3.253 -5.413,-4.346c-2.11,-1.093 -4.461,-1.639 -7.054,-1.639c-2.745,-0 -5.185,0.572 -7.32,1.715c-2.135,1.144 -3.939,2.631 -5.413,4.461c-1.475,1.83 -2.606,3.927 -3.393,6.291c-0.788,2.363 -1.182,4.765 -1.182,7.205Z" style="fill:#fff;fill-rule:nonzero;"/><path d="M578.238,2104.23l-0,-38.964l-16.089,29.509l-4.728,0l-16.165,-29.509l0,38.964l-8.54,0l0,-54.137l9.15,-0l17.919,33.092l17.919,-33.092l9.15,-0l0,54.137l-8.616,0Z" style="fill:#fff;fill-rule:nonzero;"/><path d="M621.548,2104.61c-3.864,0 -7.384,-0.775 -10.561,-2.325c-3.177,-1.551 -5.909,-3.609 -8.197,-6.176c-2.287,-2.568 -4.054,-5.503 -5.299,-8.807c-1.246,-3.305 -1.868,-6.685 -1.868,-10.142c-0,-3.609 0.661,-7.065 1.982,-10.37c1.322,-3.304 3.139,-6.227 5.452,-8.768c2.313,-2.542 5.058,-4.563 8.235,-6.062c3.177,-1.5 6.647,-2.25 10.408,-2.25c3.864,0 7.384,0.801 10.561,2.402c3.177,1.601 5.897,3.698 8.159,6.291c2.262,2.592 4.016,5.528 5.261,8.807c1.245,3.278 1.868,6.621 1.868,10.027c0,3.609 -0.648,7.065 -1.944,10.37c-1.297,3.304 -3.114,6.214 -5.452,8.73c-2.339,2.517 -5.096,4.524 -8.273,6.024c-3.177,1.5 -6.621,2.249 -10.332,2.249Zm-17.233,-27.45c0,2.542 0.407,5.007 1.22,7.397c0.814,2.389 1.97,4.498 3.47,6.328c1.499,1.83 3.317,3.292 5.452,4.385c2.135,1.093 4.524,1.639 7.167,1.639c2.745,0 5.172,-0.572 7.282,-1.715c2.11,-1.144 3.901,-2.657 5.376,-4.537c1.474,-1.881 2.592,-3.991 3.355,-6.329c0.762,-2.338 1.143,-4.728 1.143,-7.168c0,-2.592 -0.406,-5.07 -1.22,-7.434c-0.813,-2.364 -1.969,-4.448 -3.469,-6.253c-1.5,-1.804 -3.304,-3.253 -5.414,-4.346c-2.109,-1.093 -4.46,-1.639 -7.053,-1.639c-2.745,-0 -5.185,0.572 -7.32,1.715c-2.135,1.144 -3.94,2.631 -5.414,4.461c-1.474,1.83 -2.605,3.927 -3.393,6.291c-0.788,2.363 -1.182,4.765 -1.182,7.205Z" style="fill:#fff;fill-rule:nonzero;"/><path d="M652.963,2076.78c-0,-3.253 0.584,-6.494 1.754,-9.722c1.169,-3.228 2.884,-6.125 5.146,-8.692c2.263,-2.567 5.02,-4.639 8.274,-6.215c3.253,-1.575 6.938,-2.363 11.056,-2.363c4.931,-0 9.15,1.093 12.657,3.278c3.508,2.186 6.151,5.033 7.93,8.54l-6.71,4.499c-0.762,-1.627 -1.677,-2.999 -2.745,-4.117c-1.067,-1.119 -2.236,-2.008 -3.507,-2.669c-1.271,-0.661 -2.593,-1.131 -3.965,-1.411c-1.373,-0.279 -2.694,-0.419 -3.965,-0.419c-2.847,-0 -5.338,0.572 -7.473,1.715c-2.135,1.144 -3.927,2.657 -5.375,4.537c-1.449,1.881 -2.542,3.991 -3.279,6.329c-0.737,2.338 -1.106,4.677 -1.106,7.015c0,2.643 0.432,5.16 1.297,7.549c0.864,2.389 2.071,4.499 3.621,6.329c1.551,1.83 3.394,3.291 5.529,4.384c2.135,1.093 4.473,1.639 7.015,1.639c1.321,0 2.681,-0.165 4.079,-0.495c1.398,-0.331 2.745,-0.864 4.041,-1.601c1.297,-0.738 2.491,-1.665 3.584,-2.784c1.093,-1.118 1.995,-2.465 2.707,-4.041l7.091,4.041c-0.864,2.034 -2.084,3.826 -3.66,5.376c-1.576,1.55 -3.355,2.859 -5.337,3.927c-1.983,1.067 -4.08,1.881 -6.291,2.44c-2.211,0.559 -4.384,0.839 -6.519,0.839c-3.813,-0 -7.295,-0.814 -10.447,-2.44c-3.151,-1.627 -5.871,-3.749 -8.158,-6.367c-2.288,-2.618 -4.067,-5.592 -5.338,-8.921c-1.271,-3.33 -1.906,-6.723 -1.906,-10.18Z" style="fill:#fff;fill-rule:nonzero;"/><path d="M705.27,2094.7c0.865,0.61 2.148,1.207 3.851,1.792c1.703,0.584 3.647,0.877 5.833,0.877c2.339,-0 4.207,-0.42 5.605,-1.258c1.397,-0.839 2.465,-2.085 3.202,-3.737c0.737,-1.652 1.22,-3.711 1.449,-6.176c0.229,-2.465 0.343,-5.325 0.343,-8.578l-0,-27.526l8.616,-0l0,27.526c0,4.117 -0.203,7.866 -0.61,11.247c-0.406,3.38 -1.271,6.265 -2.592,8.654c-1.322,2.389 -3.254,4.245 -5.795,5.566c-2.542,1.322 -5.948,1.983 -10.218,1.983c-4.575,-0 -8.489,-1.118 -11.742,-3.355l2.058,-7.015Z" style="fill:#fff;fill-rule:nonzero;"/><path d="M760.552,2050.1l7.472,-0l21.35,54.137l-8.997,0l-5.719,-14.716l-20.893,-0l-5.642,14.716l-9.074,0l21.503,-54.137Zm12.428,33.092l-8.692,-23.256l-8.998,23.256l17.69,0Z" style="fill:#fff;fill-rule:nonzero;"/><path d="M850.146,2057.64l-17.995,0l-0,46.589l-8.617,0l0,-46.589l-18.071,0l0,-7.548l44.683,-0l-0,7.548Z" style="fill:#fff;fill-rule:nonzero;"/><path d="M857.389,2104.23l0,-54.137l23.562,-0c2.44,-0 4.689,0.508 6.748,1.525c2.058,1.016 3.825,2.351 5.299,4.003c1.474,1.652 2.631,3.533 3.469,5.642c0.839,2.11 1.259,4.258 1.259,6.443c-0,1.83 -0.255,3.584 -0.763,5.262c-0.508,1.677 -1.22,3.228 -2.135,4.651c-0.915,1.423 -2.033,2.656 -3.355,3.698c-1.322,1.042 -2.77,1.817 -4.346,2.326l12.734,20.587l-9.684,0l-11.743,-18.834l-12.505,0l0,18.834l-8.54,0Zm8.54,-26.382l14.945,-0c1.22,-0 2.326,-0.267 3.317,-0.801c0.991,-0.534 1.843,-1.271 2.555,-2.211c0.711,-0.941 1.27,-2.021 1.677,-3.241c0.407,-1.22 0.61,-2.516 0.61,-3.889c0,-1.372 -0.241,-2.668 -0.724,-3.888c-0.483,-1.22 -1.119,-2.288 -1.907,-3.203c-0.787,-0.915 -1.702,-1.639 -2.745,-2.173c-1.042,-0.534 -2.122,-0.801 -3.24,-0.801l-14.488,0l0,20.207Z" style="fill:#fff;fill-rule:nonzero;"/><path d="M983.354,2050.1l-17.003,54.137l-8.998,0l-14.716,-40.107l-14.411,40.107l-8.922,0l-17.08,-54.137l9.684,-0l12.658,41.327l13.343,-41.327l9.379,-0l13.725,41.327l12.658,-41.327l9.683,-0Z" style="fill:#fff;fill-rule:nonzero;"/><path d="M1003.48,2050.1l7.473,-0l21.35,54.137l-8.997,0l-5.719,-14.716l-20.893,-0l-5.642,14.716l-9.074,0l21.502,-54.137Zm12.429,33.092l-8.692,-23.256l-8.998,23.256l17.69,0Z" style="fill:#fff;fill-rule:nonzero;"/><path d="M1055.49,2104.23l0,-54.137l19.215,-0c4.372,-0 8.197,0.711 11.476,2.135c3.278,1.423 6.023,3.355 8.235,5.795c2.211,2.44 3.876,5.299 4.994,8.578c1.118,3.278 1.678,6.773 1.678,10.484c-0,4.118 -0.623,7.841 -1.869,11.171c-1.245,3.329 -3.011,6.176 -5.299,8.54c-2.287,2.364 -5.058,4.194 -8.311,5.49c-3.253,1.296 -6.888,1.944 -10.904,1.944l-19.215,0Zm36.905,-27.145c0,-2.847 -0.394,-5.464 -1.182,-7.854c-0.788,-2.389 -1.944,-4.435 -3.469,-6.138c-1.525,-1.703 -3.381,-3.037 -5.566,-4.003c-2.186,-0.966 -4.677,-1.449 -7.473,-1.449l-10.675,0l0,39.04l10.675,0c2.847,0 5.376,-0.495 7.587,-1.486c2.211,-0.992 4.067,-2.364 5.566,-4.118c1.5,-1.754 2.631,-3.825 3.393,-6.214c0.763,-2.39 1.144,-4.982 1.144,-7.778Z" style="fill:#fff;fill-rule:nonzero;"/><path d="M1132.58,2104.61c-3.863,0 -7.384,-0.775 -10.561,-2.325c-3.177,-1.551 -5.909,-3.609 -8.197,-6.176c-2.287,-2.568 -4.054,-5.503 -5.299,-8.807c-1.245,-3.305 -1.868,-6.685 -1.868,-10.142c-0,-3.609 0.661,-7.065 1.982,-10.37c1.322,-3.304 3.139,-6.227 5.452,-8.768c2.313,-2.542 5.058,-4.563 8.235,-6.062c3.177,-1.5 6.647,-2.25 10.408,-2.25c3.864,0 7.384,0.801 10.561,2.402c3.177,1.601 5.897,3.698 8.159,6.291c2.262,2.592 4.016,5.528 5.261,8.807c1.245,3.278 1.868,6.621 1.868,10.027c0,3.609 -0.648,7.065 -1.944,10.37c-1.296,3.304 -3.114,6.214 -5.452,8.73c-2.338,2.517 -5.096,4.524 -8.273,6.024c-3.177,1.5 -6.621,2.249 -10.332,2.249Zm-17.233,-27.45c0,2.542 0.407,5.007 1.22,7.397c0.814,2.389 1.97,4.498 3.47,6.328c1.499,1.83 3.317,3.292 5.452,4.385c2.135,1.093 4.524,1.639 7.167,1.639c2.745,0 5.172,-0.572 7.282,-1.715c2.11,-1.144 3.901,-2.657 5.376,-4.537c1.474,-1.881 2.592,-3.991 3.355,-6.329c0.762,-2.338 1.143,-4.728 1.143,-7.168c0,-2.592 -0.406,-5.07 -1.22,-7.434c-0.813,-2.364 -1.969,-4.448 -3.469,-6.253c-1.5,-1.804 -3.304,-3.253 -5.414,-4.346c-2.109,-1.093 -4.46,-1.639 -7.053,-1.639c-2.745,-0 -5.185,0.572 -7.32,1.715c-2.135,1.144 -3.939,2.631 -5.414,4.461c-1.474,1.83 -2.605,3.927 -3.393,6.291c-0.788,2.363 -1.182,4.765 -1.182,7.205Z" style="fill:#fff;fill-rule:nonzero;"/><path d="M1186.26,2104.23l-0,-54.061l8.54,-0l-0,27.831l25.467,-27.907l9.456,-0l-21.351,23.942l22.571,30.195l-9.532,0l-18.3,-24.934l-8.311,8.617l-0,16.317l-8.54,0Z" style="fill:#fff;fill-rule:nonzero;"/><path d="M1256.18,2104.61c-3.863,0 -7.383,-0.775 -10.56,-2.325c-3.177,-1.551 -5.91,-3.609 -8.197,-6.176c-2.288,-2.568 -4.054,-5.503 -5.3,-8.807c-1.245,-3.305 -1.868,-6.685 -1.868,-10.142c0,-3.609 0.661,-7.065 1.983,-10.37c1.321,-3.304 3.139,-6.227 5.452,-8.768c2.313,-2.542 5.058,-4.563 8.235,-6.062c3.177,-1.5 6.646,-2.25 10.408,-2.25c3.863,0 7.383,0.801 10.56,2.402c3.178,1.601 5.897,3.698 8.159,6.291c2.262,2.592 4.016,5.528 5.261,8.807c1.246,3.278 1.869,6.621 1.869,10.027c-0,3.609 -0.649,7.065 -1.945,10.37c-1.296,3.304 -3.113,6.214 -5.452,8.73c-2.338,2.517 -5.096,4.524 -8.273,6.024c-3.177,1.5 -6.621,2.249 -10.332,2.249Zm-17.232,-27.45c-0,2.542 0.406,5.007 1.22,7.397c0.813,2.389 1.97,4.498 3.469,6.328c1.5,1.83 3.317,3.292 5.452,4.385c2.135,1.093 4.524,1.639 7.168,1.639c2.745,0 5.172,-0.572 7.281,-1.715c2.11,-1.144 3.902,-2.657 5.376,-4.537c1.474,-1.881 2.593,-3.991 3.355,-6.329c0.763,-2.338 1.144,-4.728 1.144,-7.168c-0,-2.592 -0.407,-5.07 -1.22,-7.434c-0.814,-2.364 -1.97,-4.448 -3.47,-6.253c-1.499,-1.804 -3.304,-3.253 -5.413,-4.346c-2.11,-1.093 -4.461,-1.639 -7.053,-1.639c-2.745,-0 -5.185,0.572 -7.32,1.715c-2.135,1.144 -3.94,2.631 -5.414,4.461c-1.474,1.83 -2.605,3.927 -3.393,6.291c-0.788,2.363 -1.182,4.765 -1.182,7.205Z" style="fill:#fff;fill-rule:nonzero;"/><path d="M1316.11,2044.53l-5.49,-1.677l4.346,-8.388l8.006,0l-6.862,10.065Zm-16.546,21.579l-0,38.125l-8.54,0l-0,-54.137l6.71,-0l30.957,39.04l0,-38.964l8.616,-0l0,54.061l-7.091,0l-30.652,-38.125Z" style="fill:#fff;fill-rule:nonzero;"/><path d="M1346.08,2076.78c0,-3.253 0.585,-6.494 1.754,-9.722c1.169,-3.228 2.885,-6.125 5.147,-8.692c2.262,-2.567 5.02,-4.639 8.273,-6.215c3.253,-1.575 6.939,-2.363 11.056,-2.363c4.931,-0 9.15,1.093 12.658,3.278c3.507,2.186 6.151,5.033 7.93,8.54l-6.71,4.499c-0.763,-1.627 -1.678,-2.999 -2.745,-4.117c-1.068,-1.119 -2.237,-2.008 -3.508,-2.669c-1.271,-0.661 -2.592,-1.131 -3.965,-1.411c-1.372,-0.279 -2.694,-0.419 -3.965,-0.419c-2.846,-0 -5.337,0.572 -7.472,1.715c-2.135,1.144 -3.927,2.657 -5.376,4.537c-1.449,1.881 -2.542,3.991 -3.279,6.329c-0.737,2.338 -1.105,4.677 -1.105,7.015c-0,2.643 0.432,5.16 1.296,7.549c0.864,2.389 2.071,4.499 3.622,6.329c1.55,1.83 3.393,3.291 5.528,4.384c2.135,1.093 4.473,1.639 7.015,1.639c1.322,0 2.681,-0.165 4.079,-0.495c1.398,-0.331 2.745,-0.864 4.042,-1.601c1.296,-0.738 2.49,-1.665 3.583,-2.784c1.093,-1.118 1.996,-2.465 2.707,-4.041l7.091,4.041c-0.864,2.034 -2.084,3.826 -3.66,5.376c-1.575,1.55 -3.355,2.859 -5.337,3.927c-1.983,1.067 -4.079,1.881 -6.291,2.44c-2.211,0.559 -4.384,0.839 -6.519,0.839c-3.813,-0 -7.295,-0.814 -10.446,-2.44c-3.152,-1.627 -5.872,-3.749 -8.159,-6.367c-2.288,-2.618 -4.067,-5.592 -5.338,-8.921c-1.27,-3.33 -1.906,-6.723 -1.906,-10.18Z" style="fill:#fff;fill-rule:nonzero;"/><path d="M1416.84,2050.1l7.473,-0l21.35,54.137l-8.998,0l-5.719,-14.716l-20.892,-0l-5.643,14.716l-9.073,0l21.502,-54.137Zm12.429,33.092l-8.693,-23.256l-8.997,23.256l17.69,0Z" style="fill:#fff;fill-rule:nonzero;"/><path d="M1466.09,2104.23c-0,-3.558 0.279,-6.634 0.839,-9.226c0.559,-2.593 1.41,-4.867 2.554,-6.824c1.144,-1.958 2.605,-3.66 4.384,-5.109c1.779,-1.449 3.914,-2.783 6.405,-4.003c1.678,-0.814 3.381,-1.602 5.109,-2.364c1.728,-0.763 3.292,-1.627 4.689,-2.593c1.398,-0.965 2.542,-2.109 3.432,-3.431c0.889,-1.322 1.334,-2.974 1.334,-4.956c0,-2.491 -0.775,-4.55 -2.326,-6.176c-1.55,-1.627 -3.85,-2.44 -6.9,-2.44c-1.627,-0 -3.139,0.216 -4.537,0.648c-1.398,0.432 -2.694,0.991 -3.889,1.677c-1.194,0.686 -2.249,1.436 -3.164,2.25c-0.915,0.813 -1.678,1.601 -2.288,2.363l-5.337,-5.566c0.508,-0.661 1.334,-1.499 2.478,-2.516c1.144,-1.017 2.567,-2.008 4.27,-2.974c1.703,-0.966 3.685,-1.804 5.947,-2.516c2.263,-0.712 4.766,-1.068 7.511,-1.068c2.898,0 5.452,0.42 7.663,1.258c2.211,0.839 4.054,1.983 5.528,3.432c1.474,1.448 2.593,3.151 3.355,5.108c0.763,1.958 1.144,4.08 1.144,6.367c0,2.44 -0.407,4.537 -1.22,6.291c-0.813,1.754 -1.893,3.279 -3.241,4.575c-1.347,1.296 -2.884,2.44 -4.613,3.431c-1.728,0.991 -3.507,1.945 -5.337,2.86c-2.288,1.067 -4.219,2.109 -5.795,3.126c-1.576,1.017 -2.86,2.071 -3.851,3.164c-0.991,1.093 -1.703,2.262 -2.135,3.508c-0.432,1.245 -0.648,2.63 -0.648,4.155l26.916,0l0,7.549l-38.277,0Z" style="fill:#fff;fill-rule:nonzero;"/><path d="M1534.95,2104.99c-3.813,-0.051 -7.168,-0.941 -10.065,-2.669c-2.898,-1.728 -5.312,-3.914 -7.244,-6.558c-1.932,-2.643 -3.393,-5.579 -4.385,-8.806c-0.991,-3.228 -1.486,-6.367 -1.486,-9.417c-0,-3.254 0.533,-6.52 1.601,-9.799c1.067,-3.278 2.605,-6.227 4.613,-8.845c2.008,-2.617 4.435,-4.74 7.282,-6.366c2.847,-1.627 6.074,-2.44 9.684,-2.44c3.812,-0 7.154,0.876 10.026,2.63c2.873,1.754 5.287,3.978 7.244,6.672c1.957,2.694 3.419,5.655 4.385,8.883c0.965,3.228 1.448,6.316 1.448,9.265c0,3.304 -0.533,6.583 -1.601,9.836c-1.067,3.253 -2.605,6.176 -4.613,8.769c-2.008,2.592 -4.435,4.702 -7.282,6.328c-2.847,1.627 -6.049,2.466 -9.607,2.517Zm-14.488,-27.45c0.051,2.287 0.394,4.613 1.029,6.977c0.636,2.363 1.551,4.486 2.745,6.366c1.195,1.881 2.682,3.419 4.461,4.614c1.779,1.194 3.863,1.791 6.253,1.791c2.49,0 4.638,-0.635 6.443,-1.906c1.804,-1.271 3.291,-2.872 4.46,-4.804c1.17,-1.931 2.046,-4.066 2.631,-6.405c0.585,-2.338 0.877,-4.549 0.877,-6.633c-0,-2.288 -0.318,-4.614 -0.953,-6.977c-0.636,-2.364 -1.563,-4.486 -2.783,-6.367c-1.22,-1.881 -2.72,-3.419 -4.499,-4.613c-1.779,-1.195 -3.838,-1.792 -6.176,-1.792c-2.491,-0 -4.652,0.635 -6.482,1.906c-1.83,1.271 -3.329,2.885 -4.498,4.842c-1.17,1.957 -2.046,4.092 -2.631,6.405c-0.585,2.313 -0.877,4.511 -0.877,6.596Z" style="fill:#fff;fill-rule:nonzero;"/><path d="M1564.76,2104.23c0,-3.558 0.28,-6.634 0.839,-9.226c0.559,-2.593 1.411,-4.867 2.555,-6.824c1.143,-1.958 2.605,-3.66 4.384,-5.109c1.779,-1.449 3.914,-2.783 6.405,-4.003c1.677,-0.814 3.38,-1.602 5.109,-2.364c1.728,-0.763 3.291,-1.627 4.689,-2.593c1.398,-0.965 2.542,-2.109 3.431,-3.431c0.89,-1.322 1.335,-2.974 1.335,-4.956c-0,-2.491 -0.776,-4.55 -2.326,-6.176c-1.55,-1.627 -3.851,-2.44 -6.901,-2.44c-1.626,-0 -3.139,0.216 -4.536,0.648c-1.398,0.432 -2.695,0.991 -3.889,1.677c-1.195,0.686 -2.25,1.436 -3.165,2.25c-0.915,0.813 -1.677,1.601 -2.287,2.363l-5.338,-5.566c0.509,-0.661 1.335,-1.499 2.479,-2.516c1.143,-1.017 2.567,-2.008 4.27,-2.974c1.702,-0.966 3.685,-1.804 5.947,-2.516c2.262,-0.712 4.766,-1.068 7.511,-1.068c2.897,0 5.452,0.42 7.663,1.258c2.211,0.839 4.054,1.983 5.528,3.432c1.474,1.448 2.592,3.151 3.355,5.108c0.762,1.958 1.144,4.08 1.144,6.367c-0,2.44 -0.407,4.537 -1.22,6.291c-0.814,1.754 -1.894,3.279 -3.241,4.575c-1.347,1.296 -2.885,2.44 -4.613,3.431c-1.728,0.991 -3.508,1.945 -5.338,2.86c-2.287,1.067 -4.219,2.109 -5.795,3.126c-1.575,1.017 -2.859,2.071 -3.85,3.164c-0.991,1.093 -1.703,2.262 -2.135,3.508c-0.432,1.245 -0.648,2.63 -0.648,4.155l26.916,0l-0,7.549l-38.278,0Z" style="fill:#fff;fill-rule:nonzero;"/><path d="M1640.86,2096.68l-0,7.549l-28.746,0l-0,-7.549l10.446,0l-0,-38.582c-0.407,0.61 -1.08,1.283 -2.021,2.02c-0.94,0.738 -1.995,1.449 -3.164,2.135c-1.169,0.687 -2.377,1.259 -3.622,1.716c-1.245,0.458 -2.376,0.686 -3.393,0.686l-0,-7.777c1.372,-0 2.77,-0.369 4.194,-1.106c1.423,-0.737 2.719,-1.55 3.888,-2.44c1.17,-0.889 2.135,-1.715 2.898,-2.478c0.762,-0.762 1.169,-1.194 1.22,-1.296l8.616,-0l0,47.122l9.684,0Z" style="fill:#fff;fill-rule:nonzero;"/><path d="M1667.47,2104.23l0,-54.137l23.562,-0c2.44,-0 4.689,0.508 6.748,1.525c2.058,1.016 3.825,2.351 5.299,4.003c1.474,1.652 2.631,3.533 3.469,5.642c0.839,2.11 1.259,4.258 1.259,6.443c-0,1.83 -0.255,3.584 -0.763,5.262c-0.508,1.677 -1.22,3.228 -2.135,4.651c-0.915,1.423 -2.033,2.656 -3.355,3.698c-1.322,1.042 -2.77,1.817 -4.346,2.326l12.734,20.587l-9.684,0l-11.743,-18.834l-12.505,0l0,18.834l-8.54,0Zm8.54,-26.382l14.945,-0c1.22,-0 2.326,-0.267 3.317,-0.801c0.991,-0.534 1.843,-1.271 2.555,-2.211c0.711,-0.941 1.27,-2.021 1.677,-3.241c0.407,-1.22 0.61,-2.516 0.61,-3.889c0,-1.372 -0.241,-2.668 -0.724,-3.888c-0.483,-1.22 -1.119,-2.288 -1.907,-3.203c-0.787,-0.915 -1.702,-1.639 -2.745,-2.173c-1.042,-0.534 -2.122,-0.801 -3.24,-0.801l-14.488,0l0,20.207Z" style="fill:#fff;fill-rule:nonzero;"/><path d="M1740.37,2104.61c-3.863,0 -7.383,-0.775 -10.56,-2.325c-3.177,-1.551 -5.91,-3.609 -8.197,-6.176c-2.288,-2.568 -4.054,-5.503 -5.3,-8.807c-1.245,-3.305 -1.868,-6.685 -1.868,-10.142c0,-3.609 0.661,-7.065 1.983,-10.37c1.321,-3.304 3.139,-6.227 5.452,-8.768c2.313,-2.542 5.058,-4.563 8.235,-6.062c3.177,-1.5 6.646,-2.25 10.408,-2.25c3.863,0 7.383,0.801 10.56,2.402c3.178,1.601 5.897,3.698 8.159,6.291c2.262,2.592 4.016,5.528 5.261,8.807c1.246,3.278 1.869,6.621 1.869,10.027c-0,3.609 -0.648,7.065 -1.945,10.37c-1.296,3.304 -3.113,6.214 -5.452,8.73c-2.338,2.517 -5.096,4.524 -8.273,6.024c-3.177,1.5 -6.621,2.249 -10.332,2.249Zm-17.232,-27.45c-0,2.542 0.406,5.007 1.22,7.397c0.813,2.389 1.97,4.498 3.469,6.328c1.5,1.83 3.317,3.292 5.452,4.385c2.135,1.093 4.524,1.639 7.168,1.639c2.745,0 5.172,-0.572 7.281,-1.715c2.11,-1.144 3.902,-2.657 5.376,-4.537c1.474,-1.881 2.593,-3.991 3.355,-6.329c0.763,-2.338 1.144,-4.728 1.144,-7.168c-0,-2.592 -0.407,-5.07 -1.22,-7.434c-0.813,-2.364 -1.97,-4.448 -3.47,-6.253c-1.499,-1.804 -3.304,-3.253 -5.413,-4.346c-2.11,-1.093 -4.461,-1.639 -7.053,-1.639c-2.745,-0 -5.185,0.572 -7.32,1.715c-2.135,1.144 -3.94,2.631 -5.414,4.461c-1.474,1.83 -2.605,3.927 -3.393,6.291c-0.788,2.363 -1.182,4.765 -1.182,7.205Z" style="fill:#fff;fill-rule:nonzero;"/><path d="M1775.21,2104.23l-0,-54.061l8.54,-0l-0,27.831l25.467,-27.907l9.455,-0l-21.35,23.942l22.57,30.195l-9.531,0l-18.3,-24.934l-8.311,8.617l-0,16.317l-8.54,0Z" style="fill:#fff;fill-rule:nonzero;"/><path d="M1848.11,2096.91c2.846,0 5.21,-0.559 7.091,-1.677c1.881,-1.119 3.393,-2.58 4.537,-4.385c1.144,-1.804 1.957,-3.863 2.44,-6.176c0.483,-2.313 0.724,-4.689 0.724,-7.129l0,-27.45l8.616,-0l0,27.45c0,3.71 -0.432,7.205 -1.296,10.484c-0.864,3.279 -2.236,6.151 -4.117,8.616c-1.881,2.466 -4.308,4.41 -7.282,5.833c-2.974,1.424 -6.545,2.135 -10.713,2.135c-4.321,0 -7.968,-0.749 -10.942,-2.249c-2.974,-1.5 -5.376,-3.507 -7.206,-6.024c-1.83,-2.516 -3.151,-5.401 -3.965,-8.654c-0.813,-3.253 -1.22,-6.634 -1.22,-10.141l0,-27.45l8.54,-0l0,27.45c0,2.49 0.242,4.892 0.725,7.205c0.482,2.313 1.296,4.372 2.44,6.177c1.143,1.804 2.668,3.253 4.575,4.346c1.906,1.093 4.257,1.639 7.053,1.639Z" style="fill:#fff;fill-rule:nonzero;"/><path d="M728.002,1563.73c-7.657,0 -14.676,-1.497 -21.057,-4.491c-6.381,-2.994 -11.879,-6.97 -16.493,-11.928c-4.614,-4.957 -8.197,-10.676 -10.749,-17.155c-2.553,-6.479 -3.829,-13.204 -3.829,-20.174c0,-6.675 1.178,-13.154 3.534,-19.437c2.356,-6.283 5.743,-11.854 10.161,-16.714c4.417,-4.859 9.792,-8.761 16.124,-11.706c6.332,-2.946 13.474,-4.418 21.426,-4.418c9.031,-0 16.958,1.89 23.781,5.669c6.823,3.78 12.247,9.105 16.272,15.977l-19.143,15.02c-0.589,-0.981 -1.448,-2.331 -2.577,-4.049c-1.129,-1.718 -2.577,-3.387 -4.344,-5.007c-1.767,-1.62 -3.927,-3.043 -6.479,-4.27c-2.553,-1.227 -5.498,-1.841 -8.836,-1.841c-4.123,0 -7.78,0.908 -10.97,2.724c-3.191,1.816 -5.841,4.197 -7.952,7.142c-2.111,2.945 -3.706,6.308 -4.786,10.087c-1.08,3.78 -1.62,7.633 -1.62,11.56c0,3.632 0.491,7.313 1.473,11.044c0.982,3.73 2.503,7.117 4.565,10.16c2.061,3.043 4.688,5.522 7.878,7.437c3.191,1.914 6.946,2.871 11.265,2.871c2.749,-0 5.35,-0.417 7.804,-1.252c2.455,-0.834 4.664,-1.939 6.627,-3.313c1.963,-1.374 3.632,-2.945 5.007,-4.712c1.374,-1.767 2.405,-3.632 3.092,-5.596l-19.732,0l-0,-21.204l45.943,-0l0,10.749c0,6.283 -1.129,12.271 -3.387,17.965c-2.258,5.694 -5.424,10.676 -9.498,14.947c-4.074,4.27 -8.958,7.657 -14.651,10.16c-5.694,2.503 -11.977,3.755 -18.849,3.755Z" style="fill:#2b2b2b;fill-rule:nonzero;"/><path d="M944.319,1458.3l-32.543,104.551l-25.034,-0l-24.886,-64.94l-24.591,65.087l-25.033,-0l-32.544,-104.551l27.39,0l20.174,68.179l21.351,-68.179l26.359,0l21.794,68.032l20.026,-68.179l27.537,-0Z" style="fill:#2b2b2b;fill-rule:nonzero;"/><path d="M980.543,1458.44l21.794,0l38.139,104.551l-24.739,-0l-8.099,-23.414l-32.543,0l-7.952,23.414l-24.738,-0l38.138,-104.551Zm23.119,64.498l-12.222,-36.961l-12.516,36.961l24.738,-0Z" style="fill:#2b2b2b;fill-rule:nonzero;"/><path d="M1053.73,1563l-0,-104.551l47.121,0c4.909,0 9.449,1.031 13.621,3.093c4.173,2.061 7.78,4.761 10.824,8.099c3.043,3.337 5.423,7.117 7.141,11.338c1.718,4.221 2.577,8.492 2.577,12.811c0,3.24 -0.392,6.357 -1.178,9.351c-0.785,2.994 -1.914,5.816 -3.387,8.467c-1.472,2.651 -3.264,5.031 -5.374,7.142c-2.111,2.111 -4.492,3.902 -7.142,5.375l22.971,38.875l-27.242,-0l-20.026,-33.721l-15.756,-0l-0,33.721l-24.15,-0Zm24.15,-54.779l22.088,0c2.847,0 5.301,-1.35 7.362,-4.049c2.062,-2.7 3.093,-6.16 3.093,-10.382c-0,-4.319 -1.178,-7.755 -3.534,-10.308c-2.356,-2.552 -4.909,-3.828 -7.658,-3.828l-21.351,-0l-0,28.567Z" style="fill:#2b2b2b;fill-rule:nonzero;"/><path d="M1182.13,1458.44l21.793,0l38.139,104.551l-24.738,-0l-8.099,-23.414l-32.544,0l-7.951,23.414l-24.739,-0l38.139,-104.551Zm23.119,64.498l-12.222,-36.961l-12.517,36.961l24.739,-0Z" style="fill:#2b2b2b;fill-rule:nonzero;"/><path d="M1279.47,1503.21l-0,59.785l-24.15,-0l0,-104.551l18.849,0l48.741,61.405l-0,-61.405l24.15,0l-0,104.551l-19.438,-0l-48.152,-59.785Z" style="fill:#2b2b2b;fill-rule:nonzero;"/><path d="M1363.99,1509.84c-0,-6.283 1.178,-12.541 3.534,-18.775c2.356,-6.234 5.792,-11.805 10.308,-16.713c4.516,-4.909 10.013,-8.885 16.492,-11.928c6.48,-3.043 13.842,-4.565 22.089,-4.565c9.816,0 18.333,2.111 25.548,6.332c7.216,4.221 12.59,9.719 16.125,16.493l-18.555,12.958c-1.178,-2.749 -2.675,-5.031 -4.491,-6.847c-1.816,-1.816 -3.804,-3.289 -5.964,-4.418c-2.159,-1.129 -4.368,-1.914 -6.626,-2.356c-2.258,-0.442 -4.467,-0.663 -6.627,-0.663c-4.613,0 -8.638,0.933 -12.074,2.798c-3.436,1.865 -6.283,4.271 -8.541,7.216c-2.258,2.945 -3.927,6.283 -5.007,10.013c-1.08,3.73 -1.62,7.51 -1.62,11.339c0,4.123 0.639,8.099 1.915,11.927c1.276,3.829 3.117,7.216 5.522,10.161c2.405,2.945 5.301,5.276 8.688,6.994c3.387,1.718 7.191,2.577 11.412,2.577c2.16,0 4.393,-0.27 6.7,-0.81c2.307,-0.54 4.516,-1.374 6.627,-2.503c2.11,-1.129 4.049,-2.601 5.816,-4.418c1.767,-1.816 3.191,-4.049 4.27,-6.7l19.733,11.633c-1.571,3.829 -3.903,7.265 -6.995,10.308c-3.092,3.043 -6.651,5.596 -10.676,7.657c-4.025,2.062 -8.295,3.633 -12.811,4.713c-4.516,1.079 -8.934,1.619 -13.253,1.619c-7.559,0 -14.505,-1.546 -20.837,-4.638c-6.331,-3.092 -11.78,-7.191 -16.345,-12.296c-4.565,-5.105 -8.099,-10.897 -10.602,-17.376c-2.503,-6.479 -3.755,-13.056 -3.755,-19.732Z" style="fill:#2b2b2b;fill-rule:nonzero;"/><path d="M1470.16,1538.4c0.982,0.786 3.068,1.767 6.259,2.945c3.19,1.178 6.896,1.768 11.117,1.768c3.633,-0 6.529,-0.614 8.688,-1.841c2.16,-1.227 3.829,-3.117 5.007,-5.669c1.178,-2.553 1.939,-5.817 2.282,-9.793c0.344,-3.976 0.516,-8.712 0.516,-14.21l-0,-53.159l24.15,0l-0,53.159c-0,7.952 -0.418,15.192 -1.252,21.72c-0.834,6.528 -2.651,12.1 -5.448,16.713c-2.798,4.614 -6.897,8.198 -12.296,10.75c-5.4,2.552 -12.615,3.829 -21.647,3.829c-8.835,-0 -16.394,-2.16 -22.677,-6.48l5.301,-19.732Z" style="fill:#2b2b2b;fill-rule:nonzero;"/><rect x="1549.98" y="1458.44" width="24.15" height="104.551" style="fill:#2b2b2b;fill-rule:nonzero;"/></svg>