<?xml version="1.0" encoding="UTF-8" standalone="no"?>
<!DOCTYPE svg PUBLIC "-//W3C//DTD SVG 1.1//EN" "http://www.w3.org/Graphics/SVG/1.1/DTD/svg11.dtd">
<svg width="100%" height="100%" viewBox="0 0 87 40" version="1.1" xmlns="http://www.w3.org/2000/svg" xmlns:xlink="http://www.w3.org/1999/xlink" xml:space="preserve" xmlns:serif="http://www.serif.com/" style="fill-rule:evenodd;clip-rule:evenodd;stroke-linejoin:round;stroke-miterlimit:2;">
    <rect id="Artboard1" x="0" y="0" width="86.416" height="40" style="fill:none;"/>
    <g id="Artboard11" serif:id="Artboard1">
        <g>
            <rect x="27.584" y="12.962" width="2.566" height="13.785" style="fill:rgb(54,54,54);"/>
            <path d="M40.589,26.747L38.337,26.747L38.337,20.206C38.337,18.843 37.736,18.108 36.644,18.024C35.965,17.971 34.886,18.132 34.104,18.307L34.104,26.747L31.851,26.747L31.851,16.705C31.851,16.705 34.59,16.094 37.064,16.096C38.135,16.097 38.99,16.477 39.629,17.118C40.268,17.758 40.589,18.651 40.589,19.795L40.589,26.747Z" style="fill:rgb(54,54,54);fill-rule:nonzero;"/>
            <path d="M53.012,17.685C53.012,19.088 52.577,20.216 51.71,21.069C50.841,21.92 49.662,22.346 48.175,22.346L45.056,22.346L45.056,26.747L42.533,26.747L42.533,12.962L48.008,12.962C49.62,12.962 50.858,13.381 51.72,14.219C52.582,15.058 53.012,16.213 53.012,17.685ZM50.364,17.685C50.364,16.021 49.552,15.19 47.925,15.19L45.056,15.19L45.056,20.138L47.882,20.138C48.662,20.138 49.27,19.923 49.708,19.494C50.146,19.064 50.364,18.461 50.364,17.685Z" style="fill:rgb(54,54,54);fill-rule:nonzero;"/>
            <path d="M63.416,21.534C63.416,23.183 62.954,24.512 62.029,25.521C61.104,26.529 59.906,27.033 58.431,27.033C56.96,27.033 55.759,26.529 54.835,25.521C53.91,24.512 53.448,23.183 53.448,21.534C53.448,19.885 53.91,18.559 54.835,17.557C55.759,16.556 56.96,16.055 58.431,16.055C59.919,16.055 61.122,16.556 62.04,17.557C62.957,18.559 63.416,19.885 63.416,21.534ZM61.059,21.544C61.059,20.512 60.819,19.692 60.341,19.088C59.86,18.484 59.225,18.181 58.431,18.181C57.64,18.181 57.003,18.487 56.523,19.098C56.045,19.71 55.805,20.525 55.805,21.544C55.805,22.577 56.045,23.395 56.523,24C57.003,24.605 57.64,24.907 58.431,24.907C59.225,24.907 59.86,24.605 60.341,24C60.819,23.395 61.059,22.577 61.059,21.544Z" style="fill:rgb(54,54,54);fill-rule:nonzero;"/>
            <path d="M73.213,23.435C73.213,24.471 72.811,25.322 72.004,25.99C71.198,26.658 70.134,26.991 68.814,26.991C66.755,26.991 65.164,26.379 64.038,25.152L65.769,23.701C66.631,24.546 67.639,24.969 68.792,24.969C69.433,24.969 69.94,24.842 70.316,24.59C70.691,24.338 70.878,24.022 70.878,23.639C70.878,23.203 70.663,22.904 70.231,22.74C69.981,22.645 69.314,22.515 68.229,22.351C66.923,22.161 65.992,21.875 65.435,21.493C64.781,21.03 64.456,20.335 64.456,19.408C64.456,18.467 64.852,17.68 65.643,17.046C66.436,16.412 67.493,16.095 68.814,16.095C70.412,16.095 71.775,16.621 72.901,17.67L71.545,19.1C70.725,18.38 69.793,18.017 68.751,18.017C67.415,18.017 66.75,18.393 66.75,19.142C66.75,19.578 67.054,19.878 67.667,20.042C68.529,20.178 69.383,20.321 70.231,20.47C72.219,20.838 73.213,21.827 73.213,23.435Z" style="fill:rgb(54,54,54);fill-rule:nonzero;"/>
            <path d="M78.597,26.747C78.222,26.842 77.832,26.89 77.43,26.89C76.144,26.89 75.294,26.605 74.88,26.032C74.55,25.582 74.385,24.73 74.385,23.476L74.385,13.371L76.638,13.371L76.638,16.34L78.637,16.34L78.637,18.181L76.638,18.181L76.638,23.332C76.638,23.933 76.713,24.329 76.867,24.519C77.047,24.764 77.43,24.887 78.014,24.887C78.181,24.887 78.375,24.874 78.597,24.846L78.597,26.747Z" style="fill:rgb(54,54,54);fill-rule:nonzero;"/>
        </g>
        <g>
            <path d="M11.269,20.016C11.269,20.016 9.764,21.164 7.905,21.164C6.048,21.164 4.541,20.016 4.541,20.016C4.541,20.016 6.048,19.066 7.905,19.066C9.764,19.066 11.269,20.016 11.269,20.016Z" style="fill:white;fill-rule:nonzero;"/>
            <path d="M15.922,11.454C15.922,11.454 14.144,10.777 13.105,9.267C12.065,7.757 12.16,5.984 12.16,5.984C12.16,5.984 13.939,6.641 14.978,8.151C16.016,9.661 15.922,11.454 15.922,11.454Z" style="fill:white;fill-rule:nonzero;"/>
            <path d="M12.515,15.149C12.515,15.149 10.604,15.474 8.962,14.618C7.322,13.763 6.573,12.051 6.573,12.051C6.573,12.051 8.698,11.716 10.338,12.571C11.979,13.426 12.515,15.149 12.515,15.149Z" style="fill:white;fill-rule:nonzero;"/>
            <path d="M17.221,22.847C18.194,22.552 20.962,21.857 20.962,21.857C20.962,21.857 16.826,20.146 16.995,17.751C17.471,14.805 19.63,12.816 23.059,11.342C22.637,11.282 22.205,11.252 21.766,11.254C16.838,11.276 12.86,15.211 12.883,20.043C12.904,24.875 16.918,28.774 21.846,28.752C22.258,28.75 23.556,28.654 23.952,28.6C20.455,28.163 17.348,25.501 17.221,22.847Z" style="fill:white;fill-rule:nonzero;"/>
            <path d="M15.922,28.546C15.922,28.546 14.245,29.122 13.205,30.632C12.166,32.143 12.16,34.016 12.16,34.016C12.16,34.016 13.737,33.359 14.776,31.849C15.814,30.339 15.922,28.546 15.922,28.546Z" style="fill:white;fill-rule:nonzero;"/>
            <path d="M12.515,24.851C12.515,24.851 10.725,24.708 9.083,25.563C7.443,26.418 6.573,27.949 6.573,27.949C6.573,27.949 8.344,28.092 9.985,27.237C11.625,26.383 12.515,24.851 12.515,24.851Z" style="fill:white;fill-rule:nonzero;"/>
        </g>
    </g>
</svg>
