<?xml version="1.0" encoding="UTF-8" standalone="no"?><!DOCTYPE svg PUBLIC "-//W3C//DTD SVG 1.1//EN" "http://www.w3.org/Graphics/SVG/1.1/DTD/svg11.dtd"><svg width="100%" height="100%" viewBox="0 0 372 60" version="1.1" xmlns="http://www.w3.org/2000/svg" xmlns:xlink="http://www.w3.org/1999/xlink" xml:space="preserve" xmlns:serif="http://www.serif.com/" style="fill-rule:evenodd;clip-rule:evenodd;stroke-linejoin:round;stroke-miterlimit:1.41421;"><circle cx="321.694" cy="41.149" r="2.804" style="fill:#fff;"/><g><path d="M24.468,43.953l-4.856,0l-13.364,-11.991l0,11.991l-3.482,0l0,-36.979l3.482,0l0,21.04l12.318,-10.741l5.045,0l-14.62,12.727l15.477,13.953Z" style="fill:#fff;fill-rule:nonzero;"/><path d="M50.902,30.368c0,3.008 -0.286,5.395 -0.858,7.16c-0.785,2.403 -2.215,4.242 -4.292,5.518c-1.732,1.062 -3.898,1.593 -6.498,1.593c-5.117,0 -8.582,-2.002 -10.397,-6.007c-0.866,-1.88 -1.3,-4.717 -1.3,-8.509l0,-12.85l3.482,0l0,12.445c0,3.07 0.163,5.16 0.489,6.271c0.506,1.698 1.484,3.021 2.934,3.968c1.369,0.882 2.967,1.323 4.792,1.323c1.777,0 3.333,-0.417 4.67,-1.249c1.418,-0.899 2.396,-2.156 2.933,-3.773c0.343,-1.029 0.514,-3.209 0.514,-6.54l0,-12.445l3.531,0l0,13.095Z" style="fill:#fff;fill-rule:nonzero;"/><path d="M84.423,38.607c-2.681,4.022 -6.841,6.032 -12.481,6.032c-4.071,0 -7.512,-1.275 -10.324,-3.825c-2.894,-2.632 -4.34,-5.959 -4.34,-9.98c0,-2.6 0.649,-5.003 1.949,-7.21c1.3,-2.207 3.086,-3.931 5.358,-5.174c2.272,-1.242 4.815,-1.863 7.626,-1.863c3.63,0 6.727,0.972 9.294,2.918c1.144,0.866 2.117,1.97 2.918,3.31l-2.719,1.692c-2.352,-3.106 -5.561,-4.659 -9.627,-4.659c-3.152,0 -5.814,0.995 -7.986,2.985c-2.221,2.055 -3.331,4.64 -3.331,7.756c0,1.957 0.498,3.788 1.494,5.492c0.996,1.705 2.352,3.03 4.066,3.976c1.715,0.946 3.642,1.419 5.781,1.419c3.92,0 7.121,-1.553 9.603,-4.659l2.719,1.79Z" style="fill:#fff;fill-rule:nonzero;"/><path d="M114.291,43.953l-3.458,0l0,-12.714c0,-3.07 -0.122,-5.12 -0.367,-6.149c-0.847,-3.544 -3.08,-5.316 -6.699,-5.316c-2.069,0 -3.923,0.682 -5.562,2.046c-1.638,1.364 -2.717,3.066 -3.239,5.108c-0.326,1.273 -0.489,3.69 -0.489,7.251l0,9.774l-3.458,0l0,-36.979l3.458,0l0,15.081c2.759,-3.646 6.09,-5.468 9.993,-5.468c1.942,0 3.694,0.494 5.253,1.483c1.559,0.989 2.71,2.35 3.453,4.083c0.743,1.733 1.115,4.422 1.115,8.068l0,13.732Z" style="fill:#fff;fill-rule:nonzero;"/><path d="M144.918,43.953l-3.433,0l0,-12.714c0,-3.005 -0.13,-5.054 -0.391,-6.149c-0.848,-3.544 -3.081,-5.316 -6.699,-5.316c-2.07,0 -3.924,0.682 -5.562,2.046c-1.638,1.364 -2.718,3.066 -3.239,5.108c-0.326,1.29 -0.489,3.707 -0.489,7.251l0,9.774l-3.458,0l0,-26.68l3.458,0l0,4.782c2.726,-3.646 6.057,-5.468 9.992,-5.468c1.943,0 3.694,0.494 5.253,1.483c1.56,0.989 2.711,2.354 3.454,4.095c0.743,1.741 1.114,4.426 1.114,8.056l0,13.732Z" style="fill:#fff;fill-rule:nonzero;"/><path d="M156.296,9.12c0,0.781 -0.277,1.444 -0.83,1.99c-0.553,0.545 -1.221,0.818 -2.002,0.818c-0.765,0 -1.424,-0.277 -1.978,-0.831c-0.553,-0.553 -0.83,-1.212 -0.83,-1.977c0,-0.782 0.273,-1.449 0.818,-2.002c0.545,-0.554 1.209,-0.83 1.99,-0.83c0.781,0 1.449,0.276 2.002,0.83c0.553,0.553 0.83,1.22 0.83,2.002Zm-1.054,34.833l-3.482,0l0,-26.68l3.482,0l0,26.68Z" style="fill:#fff;fill-rule:nonzero;"/><path d="M188.91,43.953l-3.409,0l0,-4.586c-2.89,3.515 -6.459,5.272 -10.705,5.272c-3.854,0 -7.104,-1.389 -9.749,-4.168c-2.614,-2.73 -3.92,-6.041 -3.92,-9.932c0,-3.841 1.335,-7.127 4.005,-9.857c2.67,-2.73 5.924,-4.095 9.762,-4.095c4.394,0 7.929,1.863 10.607,5.591l0,-4.905l3.409,0l0,26.68Zm-3.188,-13.193c0,-3.05 -0.999,-5.619 -2.997,-7.707c-1.998,-2.088 -4.514,-3.131 -7.547,-3.131c-4.078,0 -7.119,1.786 -9.126,5.358c-0.962,1.696 -1.443,3.49 -1.443,5.382c0,1.892 0.481,3.69 1.443,5.395c0.963,1.704 2.255,3.034 3.878,3.988c1.623,0.954 3.364,1.431 5.223,1.431c1.876,0 3.654,-0.473 5.334,-1.419c1.679,-0.946 2.972,-2.226 3.877,-3.841c0.906,-1.615 1.358,-3.433 1.358,-5.456Z" style="fill:#fff;fill-rule:nonzero;"/><path d="M210.072,36.78c0,2.26 -0.776,4.135 -2.329,5.625c-1.553,1.489 -3.466,2.234 -5.738,2.234c-3.286,0 -5.91,-1.258 -7.872,-3.776l2.158,-2.452c1.745,1.962 3.596,2.943 5.553,2.943c1.289,0 2.435,-0.42 3.438,-1.26c1.003,-0.84 1.504,-1.896 1.504,-3.168c0,-1.288 -0.595,-2.422 -1.786,-3.4c-0.587,-0.489 -1.745,-1.174 -3.475,-2.055c-1.973,-1.013 -3.417,-2.019 -4.331,-3.016c-1.239,-1.34 -1.859,-2.942 -1.859,-4.806c0,-2.076 0.699,-3.772 2.096,-5.088c1.398,-1.316 3.135,-1.974 5.211,-1.974c2.452,0 4.921,1.201 7.406,3.604l-2.203,2.281c-1.827,-1.766 -3.613,-2.648 -5.358,-2.648c-1.061,0 -1.999,0.349 -2.815,1.048c-0.815,0.699 -1.223,1.569 -1.223,2.61c0,1.756 1.697,3.512 5.09,5.267c2.088,1.081 3.605,2.113 4.551,3.095c1.322,1.375 1.982,3.021 1.982,4.936Z" style="fill:#fff;fill-rule:nonzero;"/><path d="M237.806,43.953l-4.855,0l-13.364,-11.991l0,11.991l-3.482,0l0,-36.979l3.482,0l0,21.04l12.318,-10.741l5.044,0l-14.62,12.727l15.477,13.953Z" style="fill:#fff;fill-rule:nonzero;"/><rect x="240.822" y="6.974" width="3.458" height="36.979" style="fill:#fff;"/><path d="M277.629,30.883l-23.957,0c0.065,2.985 0.996,5.472 2.792,7.462c1.894,2.087 4.31,3.131 7.249,3.131c2.842,0 5.25,-0.863 7.225,-2.589c0.899,-0.782 1.87,-2.044 2.915,-3.786l2.894,1.52c-1.799,3.515 -4.292,5.885 -7.479,7.111c-1.554,0.605 -3.311,0.907 -5.273,0.907c-4.005,0 -7.319,-1.324 -9.943,-3.972c-2.624,-2.648 -3.936,-5.975 -3.936,-9.98c0,-3.384 1.038,-6.401 3.114,-9.049c2.632,-3.368 6.155,-5.051 10.569,-5.051c4.545,0 8.174,1.724 10.888,5.174c1.929,2.452 2.91,5.493 2.942,9.122Zm-3.751,-2.992c-0.85,-3.363 -2.673,-5.695 -5.469,-6.995c-1.438,-0.666 -2.951,-0.999 -4.536,-0.999c-2.616,0 -4.864,0.837 -6.744,2.51c-1.373,1.219 -2.411,3.047 -3.114,5.484l19.863,0Z" style="fill:#fff;fill-rule:nonzero;"/><path d="M311.862,30.539c0,3.891 -1.307,7.202 -3.92,9.932c-2.645,2.779 -5.895,4.168 -9.75,4.168c-4.229,0 -7.79,-1.757 -10.68,-5.272l0,14.345l-3.433,0l0,-36.439l3.433,0l0,4.905c2.711,-3.728 6.238,-5.591 10.582,-5.591c3.838,0 7.092,1.365 9.762,4.095c2.671,2.73 4.006,6.016 4.006,9.857Zm-3.482,0.123c0,-1.892 -0.473,-3.686 -1.419,-5.382c-0.946,-1.697 -2.231,-3.014 -3.854,-3.952c-1.622,-0.937 -3.388,-1.406 -5.296,-1.406c-3.034,0 -5.55,1.043 -7.548,3.131c-1.998,2.088 -2.997,4.657 -2.997,7.707c0,4.241 1.754,7.34 5.26,9.297c1.68,0.946 3.458,1.419 5.334,1.419c1.892,0 3.653,-0.489 5.284,-1.468c1.582,-0.962 2.85,-2.292 3.804,-3.988c0.955,-1.696 1.432,-3.482 1.432,-5.358Z" style="fill:#fff;fill-rule:nonzero;"/><path d="M359.867,30.539c0,3.891 -1.307,7.202 -3.92,9.932c-2.645,2.779 -5.895,4.168 -9.75,4.168c-4.229,0 -7.79,-1.757 -10.68,-5.272l0,14.345l-3.433,0l0,-36.439l3.433,0l0,4.905c2.711,-3.728 6.238,-5.591 10.582,-5.591c3.838,0 7.092,1.365 9.762,4.095c2.671,2.73 4.006,6.016 4.006,9.857Zm-3.482,0.123c0,-1.892 -0.473,-3.686 -1.419,-5.382c-0.946,-1.697 -2.231,-3.014 -3.853,-3.952c-1.623,-0.937 -3.389,-1.406 -5.297,-1.406c-3.034,0 -5.549,1.043 -7.547,3.131c-1.998,2.088 -2.997,4.657 -2.997,7.707c0,4.241 1.753,7.34 5.259,9.297c1.68,0.946 3.458,1.419 5.334,1.419c1.892,0 3.653,-0.489 5.284,-1.468c1.582,-0.962 2.85,-2.292 3.804,-3.988c0.955,-1.696 1.432,-3.482 1.432,-5.358Z" style="fill:#fff;fill-rule:nonzero;"/><rect x="365.776" y="6.974" width="3.458" height="36.979" style="fill:#fff;"/></g><rect x="2.766" y="51.094" width="273.459" height="2.163" style="fill:#fff;"/></svg>