<?xml version="1.0" encoding="UTF-8" standalone="no"?><!DOCTYPE svg PUBLIC "-//W3C//DTD SVG 1.1//EN" "http://www.w3.org/Graphics/SVG/1.1/DTD/svg11.dtd"><svg width="100%" height="100%" viewBox="0 0 417 42" version="1.1" xmlns="http://www.w3.org/2000/svg" xmlns:xlink="http://www.w3.org/1999/xlink" xml:space="preserve" xmlns:serif="http://www.serif.com/" style="fill-rule:evenodd;clip-rule:evenodd;stroke-linejoin:round;stroke-miterlimit:2;"><rect id="KitchenAid" x="0" y="0" width="416.667" height="41.667" style="fill:none;"/><g><rect id="polygon106" x="61.682" y="17.27" width="16.875" height="20.687"/><path id="path108" d="M69.921,15.279c4.706,0 8.522,-2.162 8.522,-4.83c-0,-2.667 -3.816,-4.829 -8.522,-4.829c-4.707,0 -8.523,2.162 -8.523,4.829c0,2.668 3.816,4.83 8.523,4.83Z"/><rect id="polygon110" x="348.757" y="17.27" width="16.872" height="20.687"/><path id="path112" d="M356.993,15.279c4.704,0 8.52,-2.162 8.52,-4.83c0.001,-2.667 -3.816,-4.829 -8.521,-4.829c-4.707,0 -8.523,2.162 -8.523,4.829c0,2.668 3.816,4.83 8.523,4.83l0.001,0Z"/><path id="path114" d="M158.518,6.219l0,31.738l17.275,0l0,-10.445c0,-2.41 2.009,-3.414 3.818,-3.414c1.807,-0.001 3.615,-0.603 3.615,3.817l0,-0.001l0,10.043l16.07,0l0,-13.257c0,-3.415 -1.408,-8.299 -10.044,-8.436c-6.328,-0.101 -11.349,1.707 -13.459,2.812l0,-12.857l-17.275,0Z"/><path id="path116" d="M85.199,17.27l0,6.83l5.625,-0l-0,6.628c-0,3.014 2.41,7.233 10.043,7.233c7.634,-0.001 10.446,-1.607 13.057,-2.612l0,-5.022c-1.205,0.401 -7.03,2.813 -7.03,-2.008l0,-4.219l7.03,-0l0,-6.83l-7.03,0l0,-6.629l-16.07,0l-0,6.629l-5.625,0Z"/><path id="path118" d="M152.894,19.075c-3.817,-2.31 -8.336,-3.213 -15.066,-3.213c-6.729,-0 -18.882,2.912 -18.882,11.349c0,8.436 10.647,11.45 17.476,11.45c6.83,-0 14.865,-1.507 16.472,-2.612l0,-5.826c-2.009,1.205 -16.472,4.018 -16.472,-2.711c0,-3.616 5.826,-4.42 7.533,-4.42c1.708,0 7.432,0.804 8.939,1.909l0,-5.926Z"/><path id="path120" d="M247.401,17.27l-0,20.69l17.275,0l-0,-10.445c-0,-2.41 2.009,-3.816 3.817,-3.816c3.314,-0.001 3.616,0.2 3.616,4.218l0.001,-0l-0,10.043l16.069,0l-0,-13.257c-0,-4.017 -1.809,-8.784 -10.446,-8.638c-5.926,0.101 -11.249,2.009 -13.057,3.014l-0,-1.809l-17.275,0Z"/><path id="path122" d="M327.852,3.006l-21.895,0c1.004,0.201 2.711,2.913 2.209,4.018l0,-0.001l-16.873,30.935l9.441,-0l3.917,-7.833l14.563,-0l3.817,7.833l21.795,-0l-16.974,-34.952Zm-20.037,20.79l4.569,-9.139l3.817,9.139l-8.386,0Z"/><path id="path124" d="M396.954,6.219l0,11.552c-2.109,-1.006 -7.032,-1.909 -10.145,-1.909c-4.921,0 -15.567,1.708 -15.567,10.847c0,9.843 10.445,11.249 14.563,11.249c4.117,-0.001 8.838,-0.602 11.148,-1.908l0.001,-0.001l0,1.908l16.07,0l-0,-31.738l-16.07,0Zm0,21.595c0,0.803 -1.708,2.009 -3.516,2.009c-1.719,-0.001 -5.725,0.401 -5.725,-3.415c0,-2.813 4.219,-3.918 5.524,-3.918c1.306,-0 3.716,0.302 3.716,2.311l0.001,0l0,3.013Z"/><path id="path126" d="M227.427,32.537c-2.51,0 -5.825,-0.502 -7.131,-4.318l0.001,-0.001l23.1,-0c-0,-4.72 -2.009,-13.458 -19.083,-13.559c-10.244,0 -20.488,3.415 -20.588,11.852c-0.101,8.436 11.046,11.45 21.391,11.45c10.345,-0.001 14.965,-1.607 16.372,-2.612l0,0l0.903,-4.82c-2.008,0.903 -7.331,2.209 -14.965,2.008Zm-3.213,-12.253c2.31,-0 3.213,1.105 3.213,3.214l-7.03,-0c0.1,-1.708 1.406,-3.214 3.817,-3.214Z"/><path id="path128" d="M3.643,3.006l0,34.952l18.28,-0l-0,-10.646c1.405,0 4.117,-0.904 6.327,2.511l0,-0.001l5.123,8.136l22.497,-0l-10.044,-15.869c-1.406,-2.008 -1.908,-4.017 -7.131,-4.519l0,-0.001l12.856,-14.563l-12.956,0l-9.843,12.354c-1.105,1.306 -0.602,2.512 -6.829,2.512l-0,-14.866l-18.28,0Z"/></g></svg>