<?xml version="1.0" encoding="UTF-8" standalone="no"?><!DOCTYPE svg PUBLIC "-//W3C//DTD SVG 1.1//EN" "http://www.w3.org/Graphics/SVG/1.1/DTD/svg11.dtd"><svg width="100%" height="100%" viewBox="0 0 417 94" version="1.1" xmlns="http://www.w3.org/2000/svg" xmlns:xlink="http://www.w3.org/1999/xlink" xml:space="preserve" xmlns:serif="http://www.serif.com/" style="fill-rule:evenodd;clip-rule:evenodd;stroke-linejoin:round;stroke-miterlimit:2;"><rect id="smeg" x="0" y="0" width="416.667" height="93.75" style="fill:none;"/><path d="M59.962,48.888c-10.064,-0.108 -18.31,-8.421 -18.31,-18.509c-0,-10.154 8.355,-18.51 18.51,-18.51c10.154,0 18.51,8.356 18.51,18.51c-0,0.001 -0,0.002 -0,0.003c-0,10.156 -8.179,18.399 -18.31,18.506c9.997,0.109 18.201,8.312 18.308,18.31c0.108,-9.998 8.312,-18.202 18.31,-18.31c-10.063,-0.108 -18.308,-8.42 -18.308,-18.506c-0,-10.153 8.354,-18.508 18.507,-18.508c0.002,0 0.003,0 0.005,0c10.152,0 18.505,8.354 18.505,18.505l0,0.003c0,10.087 -8.246,18.398 -18.309,18.506c10.063,0.109 18.309,8.422 18.309,18.509l0,0c0,10.154 -8.355,18.51 -18.51,18.51c-10.087,0 -18.4,-8.246 -18.509,-18.31c-0.108,10.064 -8.421,18.31 -18.508,18.31c-10.155,0 -18.51,-8.356 -18.51,-18.51l-0,0c-0,-10.088 8.246,-18.4 18.31,-18.509Zm320.506,-41.045c10.652,0.046 14.968,5.948 16.808,9.513l0.218,0l-0,-8.081l14.541,0l0,51.567c0,9.413 -0.76,25.065 -29.199,25.065c-11.938,0 -24.53,-4.808 -25.181,-16.37l16.498,-0c0.651,2.761 1.847,5.524 10.635,5.524c8.146,-0 12.052,-3.684 12.052,-12.483l0,-6.547l-0.218,-0.203c-2.499,4.195 -6.298,8.182 -15.415,8.182c-13.89,0 -24.857,-9.105 -24.857,-28.134c-0,-18.826 11.287,-28.033 23.992,-28.033l0.126,0Zm-338.816,59.554c-0,10.154 -8.356,18.51 -18.511,18.51c-10.154,0 -18.51,-8.356 -18.51,-18.51c0,-10.154 8.356,-18.51 18.51,-18.51c10.155,0 18.511,8.356 18.511,18.51Zm147.475,-38.983c-0.652,-3.619 -1.954,-7.448 -10.202,-7.448c-8.25,-0 -9.335,3.085 -9.335,5.533c-0,8.938 36.146,2.448 36.146,23.306c-0,16.493 -16.282,19.472 -25.291,19.472c-13.134,0 -27.353,-4.471 -27.789,-19.579l15.631,0c-0,4.787 3.039,8.299 12.592,8.299c7.817,0 9.659,-3.723 9.659,-5.851c0,-9.471 -35.819,-2.341 -35.819,-23.519c0,-8.299 5.318,-18.941 23.336,-18.941c11.29,-0 24.748,2.765 25.94,18.728l-14.868,-0Zm121.962,15.109c0.436,4.256 1.303,13.834 13.57,13.834c4.233,0 8.575,-2.128 9.771,-6.17l15.628,-0c-4.014,13.619 -15.519,18.09 -25.399,18.09c-16.28,0 -28.763,-7.661 -28.763,-30.965c0,-6.811 2.385,-28.626 27.676,-28.626c11.4,-0 27.138,5.32 27.138,31.178l-0,2.659l-39.621,0Zm-87.555,24.266l-15.197,-0l-0,-56.615l14.546,-0l-0,8.301l0.218,0c1.952,-3.723 6.184,-9.789 16.389,-9.789c8.357,-0 12.156,2.981 16.064,9.045c1.957,-2.766 6.19,-9.045 15.416,-9.045c11.286,-0 20.079,6.49 20.079,18.941l-0,39.16l0.002,-0l-15.2,-0l0,-34.371c0,-8.405 -3.799,-11.173 -8.25,-11.173c-7.596,-0 -10.308,4.893 -10.308,11.6l-0,33.946l-15.2,-0l-0,-34.053c-0,-4.789 -0,-11.493 -9.119,-11.493c-7.163,-0 -9.44,4.893 -9.44,11.066l0,34.48Zm160.499,-15.849c10.308,-0 12.916,-8.287 12.916,-15.756c0,-8.797 -4.56,-15.96 -13.025,-15.96c-5.647,-0 -11.943,3.887 -11.943,16.574c-0,6.959 3.041,15.142 12.052,15.142Zm-231.326,-21.558c0.002,0.097 0.002,0.193 0.002,0.29c0,10.155 -8.355,18.51 -18.51,18.51c-10.154,0 -18.51,-8.355 -18.51,-18.51c0,-0.098 0.001,-0.197 0.003,-0.295c0.16,-10.041 8.464,-18.215 18.507,-18.215c10.045,0 18.35,8.176 18.508,18.22Zm182.374,3.461c-0.869,-9.155 -6.84,-11.92 -11.727,-11.92c-7.163,-0 -10.962,4.469 -11.832,11.92l23.559,-0Z"/></svg>