<?xml version="1.0" encoding="UTF-8" standalone="no"?><!DOCTYPE svg PUBLIC "-//W3C//DTD SVG 1.1//EN" "http://www.w3.org/Graphics/SVG/1.1/DTD/svg11.dtd"><svg width="100%" height="100%" viewBox="0 0 209 209" version="1.1" xmlns="http://www.w3.org/2000/svg" xmlns:xlink="http://www.w3.org/1999/xlink" xml:space="preserve" xmlns:serif="http://www.serif.com/" style="fill-rule:evenodd;clip-rule:evenodd;stroke-linejoin:round;stroke-miterlimit:2;"><rect id="WMF" x="0" y="0" width="208.333" height="208.333" style="fill:none;"/><path d="M0.002,0l208.329,0l0,208.333l-208.329,0l-0,-208.333Zm148.158,91.868l-17.117,31.011l-0.015,67.879l25.277,-0.007l-0,-46.73l17.046,-0l-0.007,-12.842l-17.07,-0l0.031,-15.565l17.03,0l0,-23.746l-25.175,-0Zm-43.533,-0.661l-22.195,40.405l-22.243,-39.715l-22.961,-0.015l0.016,98.876l12.881,0l0.148,-62.368l22.711,41.139l23.67,-41.674l-0.056,62.896l24.826,0.007l-0.055,-67.835l-16.742,-31.716Zm-74.17,-73.632c3.917,6.935 52.263,92.52 52.263,92.52l21.852,-40.109l22.064,40.405l51.099,-92.676c0,-0 0.096,-0.094 0.141,-0.14l-14.557,0l-29.358,53.136l-14.276,-26.455l13.691,-26.681l-14.177,0l-7.2,13.028l-7.512,-13.028l-28.367,0l20.744,39.944l-7.559,13.785l-29.788,-53.729l-29.06,0Z"/></svg>