<?xml version="1.0" encoding="UTF-8" standalone="no"?><!DOCTYPE svg PUBLIC "-//W3C//DTD SVG 1.1//EN" "http://www.w3.org/Graphics/SVG/1.1/DTD/svg11.dtd"><svg width="100%" height="100%" viewBox="0 0 120 40" version="1.1" xmlns="http://www.w3.org/2000/svg" xmlns:xlink="http://www.w3.org/1999/xlink" xml:space="preserve" xmlns:serif="http://www.serif.com/" style="fill-rule:evenodd;clip-rule:evenodd;stroke-linejoin:round;stroke-miterlimit:1.41421;"><g><path d="M18.71,25.436l0.253,-0.026l0.266,-0.04l0.626,-0.08l0.692,-0.147l0.706,-0.159l0.693,-0.2l0.719,-0.213l0.719,-0.253l0.546,-0.173l0.226,-0.106l0.213,-0.134l0.186,-0.173l0.173,-0.186l0.134,-0.226l3.448,-7.244l5.526,13.768l0.067,0.16l0.093,0.146l0.12,0.133l0.133,0.107l0.16,0.093l0.159,0.053l0.174,0.04l0.173,0l4.7,0.014l-8.602,-18.442l-5.086,0l-7.217,13.288Z" style="fill:#fff;fill-rule:nonzero;"/><path d="M42.811,13.253l0,-3.329l-8.402,4.581l-0.08,0.04l-0.173,0.066l-0.187,0.054l-0.173,0l-0.146,-0.027l-0.16,-0.053l-0.133,-0.054l-0.053,-0.026l0.066,0.213l0.133,0.426l0.174,0.439l0.226,0.44l0.266,0.399l0.28,0.333l0.266,0.24l0.24,0.133l0.226,0.053l0.227,0l0.212,-0.026l0.16,-0.054l0.133,-0.053l0.054,-0.04l6.844,-3.755Z" style="fill:#fff;fill-rule:nonzero;"/><path d="M59.654,24.678l-0.093,0l-0.08,0.013l-0.079,0.013l-0.054,0.027l-0.066,0.04l-0.053,0.04l-0.054,0.053l-0.04,0.066l-0.639,1.079l2.889,0l0,1.904l-0.226,0.067l-0.2,0.053l-0.186,0.04l-0.2,0.04l-0.186,0.04l-0.253,0.026l-0.2,0.027l-0.173,0.014l-0.573,0l-0.199,-0.027l-0.28,-0.027l-0.173,-0.026l-0.173,-0.041l-0.173,-0.039l-0.173,-0.054l-0.16,-0.066l-0.2,-0.107l-0.159,-0.093l-0.134,-0.106l-0.133,-0.107l-0.133,-0.12l-0.12,-0.12l-0.12,-0.133l-0.093,-0.146l-0.12,-0.2l-0.079,-0.16l-0.067,-0.173l-0.054,-0.173l-0.04,-0.173l-0.039,-0.187l-0.027,-0.172l-0.013,-0.187l0,-0.533l0.026,-0.173l0.04,-0.159l0.053,-0.174l0.054,-0.159l0.067,-0.16l0.079,-0.16l0.067,-0.093l0.106,-0.147l0.12,-0.133l0.12,-0.133l0.133,-0.12l0.133,-0.106l0.187,-0.12l0.159,-0.093l0.174,-0.093l0.186,-0.067l0.173,-0.067l0.253,-0.066l0.2,-0.04l0.2,-0.027l0.186,-0.026l0.2,-0.014l0.199,-0.013l0.2,-0.014l0.187,0l0.199,0.014l0.2,0.013l0.2,0.027l0.199,0.027l0.2,0.026l0.2,0.04l0.2,0.027l0.199,0.04l0.2,0.053l0.2,0.04l0.2,0.053l0.186,0.053l0.2,0.054l0.093,0.026l0,-1.385l-0.226,-0.066l-0.187,-0.067l-0.2,-0.053l-0.199,-0.04l-0.187,-0.04l-0.199,-0.04l-0.2,-0.04l-0.36,-0.053l-0.199,-0.027l-0.2,-0.026l-0.2,-0.014l-0.2,-0.013l-0.186,-0.013l-1.012,0l-0.2,0.013l-0.199,0.013l-0.2,0.027l-0.187,0.027l-0.186,0.026l-0.2,0.054l-0.186,0.053l-0.253,0.067l-0.186,0.053l-0.173,0.066l-0.187,0.08l-0.16,0.08l-0.173,0.08l-0.16,0.107l-0.16,0.093l-0.186,0.133l-0.146,0.12l-0.147,0.119l-0.133,0.134l-0.133,0.146l-0.133,0.133l-0.107,0.147l-0.106,0.16l-0.107,0.159l-0.093,0.16l-0.12,0.226l-0.066,0.161l-0.067,0.186l-0.066,0.173l-0.04,0.186l-0.054,0.187l-0.026,0.186l-0.027,0.186l-0.013,0.24l0,0.373l0.026,0.186l0.027,0.2l0.026,0.186l0.054,0.187l0.04,0.186l0.066,0.173l0.067,0.174l0.093,0.199l0.08,0.173l0.186,0.32l0.107,0.16l0.12,0.146l0.106,0.146l0.133,0.134l0.16,0.146l0.16,0.12l0.16,0.107l0.173,0.106l0.173,0.093l0.173,0.094l0.173,0.093l0.187,0.066l0.173,0.08l0.186,0.067l0.213,0.066l0.2,0.04l0.199,0.04l0.4,0.054l0.2,0.026l0.213,0.013l0.186,0.027l0.213,0.013l0.2,0l0.346,0.014l0.2,-0.014l0.186,0l0.2,-0.013l0.213,-0.013l0.2,-0.014l0.199,-0.026l0.2,-0.027l0.2,-0.027l0.213,-0.013l0.186,-0.04l0.2,-0.026l0.2,-0.04l0.2,-0.04l0.199,-0.027l0.2,-0.053l0.2,-0.054l0.2,-0.039l0.199,-0.054l0.173,-0.053l0,-4.247l-3.502,0Zm7.936,-12.676l0.147,0.013l0.173,0.04l0.133,0.04l0.107,0.04l0.119,0.066l0.094,0.067l0.093,0.08l0.093,0.093l0.093,0.12l0.054,0.12l0.053,0.106l0.026,0.12l0.027,0.133l0,0.187l-0.013,0.119l-0.027,0.107l-0.04,0.12l-0.066,0.106l-0.08,0.107l-0.08,0.106l-0.133,0.12l-0.12,0.08l-0.133,0.067l-0.134,0.04l-0.133,0.053l-0.133,0.026l-0.146,0.014l-1.319,0l-0.066,0.013l-0.08,0.027l-0.053,0.013l-0.067,0.04l-0.053,0.053l-0.04,0.053l-0.027,0.027l-0.599,1.092l1.891,-0.013l1.917,2.862l2.264,0l-2.197,-3.342l0.187,-0.053l0.159,-0.067l0.16,-0.079l0.213,-0.107l0.146,-0.093l0.134,-0.093l0.133,-0.107l0.12,-0.12l0.106,-0.133l0.133,-0.173l0.093,-0.133l0.08,-0.147l0.054,-0.146l0.053,-0.133l0.04,-0.147l0.013,-0.173l0.014,-0.16l0,-0.119l-0.014,-0.16l-0.027,-0.16l-0.039,-0.16l-0.054,-0.16l-0.053,-0.159l-0.08,-0.16l-0.093,-0.147l-0.107,-0.146l-0.106,-0.133l-0.12,-0.12l-0.12,-0.12l-0.133,-0.106l-0.146,-0.107l-0.147,-0.08l-0.16,-0.08l-0.159,-0.066l-0.16,-0.054l-0.16,-0.053l-0.173,-0.04l-0.173,-0.013l-0.173,-0.013l-0.173,-0.014l-0.147,0.014l-5.619,0l0,7.762l2.024,0l0,-6.457l2.809,-0.014l0.12,0.014Zm9.614,-1.785l1.105,-1.278l-1.891,0l-0.625,1.278l1.411,0Zm20.772,8.269l2.037,0l0,-6.391l2.277,0l0.067,-0.014l0.079,-0.013l0.054,-0.013l0.053,-0.027l0.04,-0.026l0.027,-0.04l0.04,-0.04l0.013,-0.04l0.026,-0.054l0.014,-0.026l0.013,-0.014l0.373,-1.051l-7.324,0l-0.066,0.026l-0.053,0.014l-0.054,0.039l-0.053,0.04l-0.04,0.04l-0.04,0.054l-0.026,0.053l-0.014,0.027l-0.519,1.065l3.076,0l0,6.391Zm-26.644,7.377l0.16,-0.054l0.16,-0.053l0.146,-0.08l0.2,-0.106l0.133,-0.08l0.12,-0.107l0.12,-0.106l0.106,-0.12l0.093,-0.133l0.093,-0.133l0.08,-0.147l0.054,-0.16l0.053,-0.159l0.04,-0.16l0.026,-0.173l0.014,-0.173l0,-0.147l-0.014,-0.173l-0.026,-0.16l-0.027,-0.16l-0.053,-0.159l-0.053,-0.147l-0.08,-0.16l-0.067,-0.106l-0.093,-0.146l-0.107,-0.134l-0.119,-0.12l-0.12,-0.12l-0.2,-0.146l-0.16,-0.093l-0.159,-0.08l-0.174,-0.08l-0.279,-0.093l-0.187,-0.053l-0.199,-0.04l-0.187,-0.04l-0.186,-0.027l-0.2,-0.027l-0.2,-0.013l-0.199,-0.013l-4.967,0l0,7.776l2.037,0l0,-6.365l2.717,0l0.093,0.014l0.133,0.013l0.133,0.027l0.12,0.039l0.16,0.081l0.106,0.053l0.08,0.066l0.08,0.067l0.08,0.12l0.053,0.106l0.053,0.12l0.04,0.12l0.027,0.106l0.013,0.107l0,0.067l-0.013,0.106l-0.013,0.12l-0.04,0.093l-0.053,0.12l-0.067,0.12l-0.08,0.093l-0.133,0.147l-0.12,0.066l-0.12,0.08l-0.12,0.053l-0.146,0.053l-0.133,0.027l-0.133,0.027l-1.305,0l-0.054,0.013l-0.053,0.026l-0.066,0.027l-0.054,0.027l-0.053,0.04l-0.053,0.04l-0.04,0.04l-0.04,0.04l-0.027,0.053l-0.532,0.998l1.771,0l2.037,2.85l2.21,0l-2.223,-3.342l0.186,-0.053Zm-23.728,-4.394l-3.955,7.789l2.184,0l0.813,-1.758l2.37,0l0.093,-0.026l0.093,-0.027l0.08,-0.04l0.08,-0.053l0.066,-0.067l0.067,-0.066l0.053,-0.08l0.014,-0.027l0.612,-1.011l-2.889,0l1.624,-3.41l2.93,6.539l2.103,0l-3.595,-7.763l-2.743,0Zm46.391,-10.759l-1.984,0l0,7.776l1.984,0l0,-7.776Zm-39.64,6.644l0.147,0.133l0.293,0.24l0.159,0.107l0.16,0.106l0.16,0.107l0.173,0.093l0.173,0.08l0.133,0.053l0.186,0.053l0.187,0.067l0.187,0.053l0.199,0.053l0.186,0.04l0.2,0.027l0.187,0.04l0.239,0.027l0.4,0.026l0.199,0l0.2,0.013l0.2,0l0.2,-0.013l0.293,-0.013l0.2,-0.013l0.199,-0.014l0.187,-0.026l0.199,-0.027l0.187,-0.04l0.186,-0.04l0.2,-0.04l0.186,-0.04l0.2,-0.066l0.186,-0.04l0.187,-0.067l0.186,-0.067l0.147,-0.039l0,-1.465l-0.08,0.04l-0.187,0.066l-0.186,0.08l-0.187,0.054l-0.186,0.066l-0.186,0.053l-0.2,0.04l-0.28,0.054l-0.173,0.026l-0.199,0.027l-0.187,0.026l-0.186,0.014l-0.2,0.013l-0.4,0l-0.186,0.013l-0.173,-0.013l-0.186,-0.013l-0.173,-0.027l-0.187,-0.04l-0.173,-0.053l-0.2,-0.053l-0.16,-0.054l-0.159,-0.066l-0.147,-0.08l-0.146,-0.093l-0.134,-0.093l-0.133,-0.107l-0.173,-0.16l-0.106,-0.133l-0.107,-0.133l-0.106,-0.147l-0.08,-0.146l-0.067,-0.16l-0.066,-0.16l-0.067,-0.253l-0.04,-0.173l-0.026,-0.186l0,-0.533l0.026,-0.173l0.04,-0.253l0.04,-0.16l0.053,-0.173l0.054,-0.159l0.08,-0.147l0.08,-0.146l0.132,-0.187l0.12,-0.133l0.12,-0.12l0.147,-0.12l0.133,-0.106l0.146,-0.107l0.24,-0.133l0.16,-0.08l0.186,-0.066l0.173,-0.054l0.187,-0.053l0.253,-0.053l0.186,-0.013l0.2,-0.027l0.586,0l0.279,0.013l0.2,0.014l0.2,0.026l0.199,0.027l0.174,0.027l0.199,0.039l0.187,0.04l0.2,0.054l0.186,0.04l0.186,0.066l0.187,0.053l0.093,0.04l0.226,0.067l0.014,-1.451l-0.12,-0.027l-0.187,-0.053l-0.186,-0.067l-0.2,-0.053l-0.186,-0.04l-0.2,-0.053l-0.186,-0.04l-0.2,-0.04l-0.226,-0.04l-0.2,-0.027l-0.186,-0.026l-0.2,-0.027l-0.2,-0.013l-0.2,-0.014l-0.772,0l-0.187,0.014l-0.199,0.013l-0.2,0.027l-0.186,0.026l-0.187,0.04l-0.186,0.04l-0.187,0.053l-0.186,0.054l-0.213,0.066l-0.173,0.067l-0.173,0.066l-0.187,0.08l-0.159,0.093l-0.173,0.094l-0.16,0.093l-0.16,0.106l-0.146,0.12l-0.147,0.12l-0.133,0.12l-0.133,0.133l-0.134,0.133l-0.119,0.147l-0.12,0.146l-0.107,0.16l-0.106,0.146l-0.08,0.173l-0.093,0.16l-0.107,0.253l-0.066,0.173l-0.054,0.173l-0.053,0.187l-0.04,0.186l-0.04,0.187l-0.013,0.266l-0.013,0.186l0,0.373l0.053,0.373l0.026,0.186l0.054,0.174l0.053,0.186l0.093,0.266l0.08,0.173l0.08,0.16l0.093,0.173l0.093,0.16l0.107,0.147l0.106,0.146l0.12,0.16l0.16,0.146Zm20.492,11.904l2.051,0l0,-7.763l-2.038,0l-0.013,7.763Zm24.487,-7.763l-1.904,0l0,7.763l6.058,0l0.586,-1.385l-4.74,0l0,-6.378Zm-18.522,-4.367l-6.218,0l0,-5.1l5.925,0l-0.492,-1.331l-7.403,0l0,7.762l7.523,0l0.665,-1.331Zm28.495,10.719l-2.516,0l0,-5.02l5.925,0l-0.466,-1.358l-7.497,0l0,7.776l7.657,0l0.612,-1.398l-3.715,0Z" style="fill:#fff;fill-rule:nonzero;"/><path d="M108.229,24.611l-0.053,0.013l-0.067,0l-0.08,0.014l-0.067,0.026l-0.053,0.04l-0.067,0.04l-0.053,0.054l-0.013,0.026l-0.772,1.145l3.395,0l0.053,-0.013l0.067,-0.014l0.066,-0.026l0.067,-0.027l0.053,-0.04l0.054,-0.053l0.026,-0.04l0.826,-1.145l-3.382,0Zm-11.545,0.506l-0.013,-0.187l-0.027,-0.146l-0.027,-0.186l-0.039,-0.174l-0.054,-0.186l-0.053,-0.174l-0.08,-0.173l-0.066,-0.173l-0.093,-0.16l-0.094,-0.159l-0.12,-0.16l-0.119,-0.147l-0.12,-0.146l-0.133,-0.146l-0.133,-0.133l-0.147,-0.134l-0.146,-0.12l-0.174,-0.119l-0.16,-0.107l-0.173,-0.106l-0.173,-0.093l-0.186,-0.081l-0.173,-0.093l-0.174,-0.066l-0.186,-0.066l-0.187,-0.067l-0.186,-0.053l-0.186,-0.054l-0.2,-0.04l-0.187,-0.04l-0.199,-0.039l-0.2,-0.014l-0.186,-0.013l-0.187,-0.013l-0.173,0l-0.067,-0.014l-0.093,0l-0.16,0.014l-0.159,0l-0.187,0.013l-0.186,0.013l-0.2,0.014l-0.187,0.026l-0.199,0.04l-0.187,0.04l-0.186,0.04l-0.187,0.054l-0.186,0.053l-0.173,0.066l-0.173,0.08l-0.187,0.08l-0.16,0.08l-0.186,0.12l-0.147,0.093l-0.159,0.12l-0.146,0.119l-0.147,0.12l-0.134,0.134l-0.133,0.146l-0.119,0.133l-0.134,0.173l-0.106,0.147l-0.106,0.159l-0.094,0.16l-0.08,0.174l-0.065,0.173l-0.08,0.173l-0.053,0.186l-0.067,0.253l-0.026,0.187l-0.027,0.2l-0.027,0.186l0,0.532l0.027,0.2l0.013,0.187l0.04,0.186l0.04,0.187l0.04,0.173l0.067,0.2l0.066,0.186l0.08,0.173l0.08,0.16l0.093,0.173l0.107,0.16l0.16,0.24l0.119,0.146l0.133,0.133l0.134,0.147l0.133,0.133l0.146,0.12l0.174,0.133l0.159,0.106l0.16,0.093l0.173,0.107l0.173,0.08l0.187,0.093l0.173,0.067l0.187,0.08l0.253,0.066l0.186,0.054l0.2,0.039l0.199,0.04l0.187,0.027l0.2,0.027l0.186,0.013l0.2,0.027l0.199,0l0.174,0.013l0.213,0l0.199,-0.013l0.2,-0.013l0.2,-0.014l0.186,-0.027l0.32,-0.053l0.186,-0.04l0.187,-0.039l0.186,-0.054l0.187,-0.053l0.186,-0.08l0.174,-0.067l0.173,-0.08l0.252,-0.133l0.174,-0.093l0.159,-0.093l0.147,-0.106l0.147,-0.12l0.146,-0.12l0.133,-0.134l0.133,-0.132l0.174,-0.213l0.106,-0.16l0.106,-0.16l0.094,-0.173l0.08,-0.16l0.08,-0.173l0.066,-0.187l0.067,-0.173l0.04,-0.186l0.053,-0.187l0.027,-0.186l0.026,-0.186l0.027,-0.2l0.013,-0.187l0,-0.106l-0.013,-0.187l-0.015,-0.2Zm-2.183,0.333l0,0.16l-0.014,0.186l-0.026,0.187l-0.027,0.146l-0.04,0.186l-0.04,0.187l-0.066,0.173l-0.067,0.173l-0.067,0.173l-0.093,0.173l-0.093,0.147l-0.12,0.133l-0.12,0.12l-0.119,0.12l-0.134,0.12l-0.159,0.093l-0.147,0.093l-0.159,0.066l-0.16,0.054l-0.16,0.053l-0.159,0.04l-0.253,0.04l-0.187,0.013l-0.346,0l-0.187,-0.027l-0.173,-0.026l-0.173,-0.04l-0.173,-0.053l-0.173,-0.054l-0.174,-0.066l-0.199,-0.107l-0.147,-0.093l-0.133,-0.106l-0.133,-0.12l-0.12,-0.12l-0.186,-0.226l-0.094,-0.134l-0.08,-0.146l-0.08,-0.16l-0.066,-0.16l-0.067,-0.173l-0.053,-0.173l-0.04,-0.173l-0.04,-0.253l-0.027,-0.187l0,-0.36l0.027,-0.226l0.027,-0.199l0.027,-0.187l0.04,-0.173l0.053,-0.187l0.066,-0.159l0.067,-0.173l0.093,-0.147l0.08,-0.16l0.12,-0.133l0.106,-0.133l0.12,-0.12l0.133,-0.106l0.2,-0.147l0.146,-0.08l0.16,-0.08l0.16,-0.066l0.16,-0.054l0.159,-0.039l0.267,-0.041l0.253,-0.026l0.173,0l0.08,-0.014l0.266,0.027l0.32,0.054l0.159,0.039l0.174,0.054l0.159,0.066l0.147,0.067l0.159,0.093l0.134,0.093l0.133,0.106l0.133,0.12l0.12,0.12l0.12,0.133l0.093,0.147l0.093,0.146l0.066,0.16l0.067,0.16l0.066,0.16l0.041,0.159l0.026,0.133l0.027,0.187l0.027,0.186l0.026,0.173l0,0.188l0.001,0Zm-18.376,-11.571l-0.066,0l-0.08,0.013l-0.093,0.014l-0.067,0.04l-0.08,0.026l-0.053,0.053l-0.067,0.067l-0.825,1.119l3.289,0l0.08,-0.014l0.08,-0.013l0.066,-0.027l0.08,-0.04l0.067,-0.053l0.053,-0.04l0.053,-0.066l0.04,-0.04l0.719,-1.039l-3.196,0Zm11.252,4.447l0.266,-0.066l0.187,-0.067l0.173,-0.066l0.173,-0.067l0.173,-0.093l0.266,-0.147l0.16,-0.093l0.146,-0.093l0.16,-0.107l0.133,-0.119l0.134,-0.134l0.119,-0.119l0.16,-0.187l0.107,-0.146l0.093,-0.147l0.093,-0.159l0.093,-0.173l0.067,-0.174l0.08,-0.199l0.04,-0.2l0.053,-0.186l0.04,-0.187l0.027,-0.186l0.013,-0.186l0.013,-0.2l0.014,-0.173l0.013,-0.174l0,-0.146l-0.013,-0.173l-0.027,-0.187l-0.027,-0.186l-0.04,-0.173l-0.053,-0.187l-0.053,-0.173l-0.067,-0.173l-0.08,-0.173l-0.08,-0.16l-0.093,-0.16l-0.107,-0.16l-0.133,-0.186l-0.12,-0.147l-0.133,-0.133l-0.133,-0.133l-0.147,-0.12l-0.146,-0.093l-0.146,-0.106l-0.147,-0.094l-0.16,-0.093l-0.146,-0.08l-0.16,-0.08l-0.16,-0.066l-0.173,-0.067l-0.159,-0.053l-0.174,-0.053l-0.159,-0.054l-0.174,-0.039l-0.173,-0.04l-0.173,-0.027l-0.16,-0.027l-0.173,-0.013l-0.16,-0.013l-0.173,-0.014l-0.053,0l-0.107,0.014l-4.114,0l0,7.763l4.554,0l0.186,-0.014l0.187,-0.026l0.186,-0.027l0.2,-0.04l0.187,-0.04Zm-0.479,-1.318l-0.16,0.053l-0.16,0.04l-0.16,0.027l-0.159,0.027l-2.384,0l0,-5.153l1.958,0l0.186,0.013l0.08,0l0.093,0.013l0.16,0.04l0.173,0.04l0.16,0.053l0.16,0.066l0.159,0.081l0.147,0.079l0.146,0.094l0.147,0.106l0.12,0.12l0.106,0.093l0.12,0.133l0.093,0.134l0.093,0.146l0.067,0.146l0.08,0.16l0.053,0.147l0.04,0.173l0.027,0.107l0.04,0.173l0.026,0.173l0,0.493l-0.026,0.173l-0.027,0.173l-0.053,0.173l-0.04,0.146l-0.054,0.174l-0.066,0.173l-0.08,0.159l-0.093,0.16l-0.093,0.16l-0.107,0.146l-0.106,0.134l-0.107,0.119l-0.133,0.093l-0.133,0.094l-0.147,0.079l-0.146,0.067Zm-0.799,10.572l-0.147,0.054l-0.2,0.053l-0.186,0.053l-0.2,0.053l-0.199,0.04l-0.187,0.04l-0.2,0.04l-0.199,0.014l-0.173,0.026l-0.2,0.027l-0.187,0.013l-0.186,0.013l-0.2,0l-0.186,-0.013l-0.2,-0.013l-0.253,-0.014l-0.173,-0.026l-0.186,-0.027l-0.16,-0.04l-0.173,-0.066l-0.16,-0.053l-0.186,-0.094l-0.16,-0.08l-0.133,-0.093l-0.147,-0.093l-0.133,-0.107l-0.16,-0.173l-0.106,-0.133l-0.107,-0.133l-0.093,-0.147l-0.08,-0.146l-0.067,-0.159l-0.079,-0.267l-0.04,-0.187l-0.013,-0.186l-0.014,-0.173l0,-0.186l0.014,-0.187l0.013,-0.173l0.026,-0.173l0.027,-0.173l0.053,-0.16l0.053,-0.16l0.067,-0.146l0.107,-0.186l0.093,-0.147l0.106,-0.146l0.12,-0.12l0.12,-0.12l0.133,-0.12l0.147,-0.107l0.159,-0.093l0.16,-0.08l0.173,-0.079l0.173,-0.067l0.173,-0.053l0.2,-0.04l0.187,-0.027l0.186,-0.027l0.2,-0.013l0.186,-0.013l0.253,0.013l0.187,0.013l0.213,0.027l0.199,0.013l0.187,0.04l0.199,0.027l0.2,0.04l0.187,0.053l0.199,0.054l0.187,0.053l0.199,0.053l0.187,0.067l0.186,0.066l0.014,0l0.213,0.08l0,-1.491l-0.067,-0.027l-0.146,-0.053l-0.04,-0.014l-0.187,-0.066l-0.199,-0.067l-0.187,-0.053l-0.24,-0.053l-0.186,-0.04l-0.2,-0.04l-0.199,-0.027l-0.2,-0.026l-0.386,-0.04l-0.2,-0.014l-0.2,-0.013l-0.2,-0.013l-0.239,-0.014l-0.386,0l-0.2,0.014l-0.2,0.013l-0.306,0.04l-0.2,0.027l-0.186,0.04l-0.187,0.039l-0.186,0.054l-0.173,0.066l-0.24,0.093l-0.173,0.067l-0.173,0.093l-0.16,0.094l-0.173,0.093l-0.146,0.106l-0.187,0.147l-0.146,0.12l-0.133,0.12l-0.147,0.132l-0.12,0.147l-0.119,0.146l-0.174,0.213l-0.106,0.174l-0.093,0.16l-0.094,0.173l-0.066,0.173l-0.067,0.133l-0.066,0.186l-0.054,0.173l-0.039,0.187l-0.04,0.186l-0.04,0.306l-0.014,0.187l0,0.373l0.014,0.239l0.026,0.187l0.12,0.559l0.093,0.24l0.067,0.173l0.08,0.173l0.093,0.16l0.093,0.173l0.133,0.213l0.12,0.146l0.12,0.147l0.12,0.146l0.146,0.133l0.187,0.16l0.146,0.12l0.16,0.12l0.16,0.093l0.186,0.12l0.173,0.08l0.187,0.079l0.186,0.067l0.173,0.067l0.187,0.053l0.372,0.08l0.2,0.026l0.4,0.054l0.199,0.013l0.307,0.013l0.199,0.014l0.4,0l0.2,-0.014l0.199,0l0.213,-0.026l0.187,-0.013l0.173,-0.014l0.2,-0.027l0.199,-0.026l0.2,-0.04l0.186,-0.04l0.2,-0.053l0.2,-0.054l0.186,-0.053l0.187,-0.053l0.08,-0.027l0.013,-0.013l0.213,-0.066l0.013,-1.452l-0.199,0.08l-0.04,0.013Z" style="fill:#fff;fill-rule:nonzero;"/><path d="M42.811,18.819l0,-3.941l-2.77,1.571l-2.676,1.504l-2.504,1.385l-2.277,1.239l-2.05,1.091l-1.838,0.946l-1.677,0.812l-1.505,0.679l-1.411,0.599l-1.345,0.493l-1.332,0.439l-1.291,0.373l-1.292,0.306l-1.251,0.267l-1.186,0.199l-1.118,0.16l-0.999,0.107l-0.892,0.053l-0.745,0.04l-0.653,-0.027l-0.985,-0.106l-0.679,-0.16l-0.493,-0.2l-0.399,-0.266l-0.32,-0.306l-0.253,-0.36l-0.147,-0.399l-0.053,-0.466l0.053,-0.559l0.2,-0.639l0.32,-0.693l0.426,-0.706l0.533,-0.705l0.599,-0.679l0.612,-0.627l0.626,-0.545l0.679,-0.533l0.759,-0.572l0.786,-0.52l0.759,-0.466l0.785,-0.439l0.813,-0.413l0.812,-0.359l0.825,-0.333l0.786,-0.267l0.732,-0.226l0.653,-0.146l0.599,-0.094l0.599,-0.026l0.626,0.053l0.333,0.04l-0.173,-0.613l-0.306,-1.038l-0.24,-0.733l-0.187,-0.439l-0.146,-0.24l-0.147,-0.146l-0.16,-0.107l-0.252,-0.093l-0.4,-0.04l-0.572,0.027l-0.719,0.093l-0.813,0.173l-0.839,0.24l-0.878,0.319l-0.852,0.36l-0.813,0.373l-0.785,0.413l-0.773,0.439l-0.785,0.493l-0.812,0.546l-0.799,0.572l-0.706,0.573l-0.626,0.519l-0.559,0.533l-0.546,0.559l-0.506,0.612l-0.466,0.639l-0.413,0.653l-0.333,0.706l-0.266,0.705l-0.147,0.719l-0.066,0.693l0.053,0.746l0.133,0.785l0.213,0.785l0.28,0.746l0.319,0.679l0.373,0.6l0.44,0.585l0.506,0.533l0.546,0.466l0.585,0.4l0.653,0.319l0.772,0.279l0.919,0.254l0.985,0.173l1.012,0.106l0.999,0.027l0.959,-0.054l0.865,-0.066l0.826,-0.12l0.825,-0.146l0.826,-0.16l0.772,-0.187l0.759,-0.186l0.799,-0.239l0.825,-0.24l0.826,-0.266l0.839,-0.293l0.839,-0.32l0.839,-0.333l0.839,-0.359l0.852,-0.4l0.905,-0.439l0.52,-0.28l0.679,-0.36l0.932,-0.506l1.358,-0.732l1.877,-1.039l2.49,-1.371l2.983,-1.664l3.289,-1.811Z" style="fill:#fff;fill-rule:nonzero;"/></g></svg>