<?xml version="1.0" encoding="UTF-8" standalone="no"?><!DOCTYPE svg PUBLIC "-//W3C//DTD SVG 1.1//EN" "http://www.w3.org/Graphics/SVG/1.1/DTD/svg11.dtd"><svg width="100%" height="100%" viewBox="0 0 120 40" version="1.1" xmlns="http://www.w3.org/2000/svg" xmlns:xlink="http://www.w3.org/1999/xlink" xml:space="preserve" xmlns:serif="http://www.serif.com/" style="fill-rule:evenodd;clip-rule:evenodd;stroke-linejoin:round;stroke-miterlimit:1.41421;"><g><path id="path7" d="M52.48,28.692c-1.287,0.359 -2.963,0.508 -4.398,0.508c-3.741,0 -6.194,-1.945 -6.194,-5.505c0,-3.381 2.304,-5.565 5.655,-5.565c0.747,0 1.556,0.089 2.034,0.329l0,-4.908l2.903,0l0,15.141Zm-2.903,-7.72c-0.448,-0.21 -1.077,-0.329 -1.795,-0.329c-1.765,0 -2.932,1.077 -2.932,2.962c0,2.005 1.256,3.142 3.321,3.142c0.36,0 0.928,0 1.406,-0.119l0,-5.656Zm26.75,7.72c-1.287,0.359 -2.962,0.508 -4.428,0.508c-3.711,0 -6.194,-1.945 -6.194,-5.505c0,-3.381 2.304,-5.565 5.655,-5.565c0.778,0 1.556,0.089 2.035,0.329l0,-4.908l2.932,0l0,15.141Zm-2.932,-7.72c-0.449,-0.21 -1.048,-0.329 -1.765,-0.329c-1.796,0 -2.963,1.077 -2.963,2.962c0,2.005 1.287,3.142 3.352,3.142c0.359,0 0.897,0 1.376,-0.119l0,-5.656Zm-16.337,0c0.478,-0.21 1.167,-0.269 1.735,-0.269c1.795,0 3.022,1.017 3.022,2.842c0,2.155 -1.376,3.143 -3.201,3.172l0,2.483l0.149,0c3.771,0 6.015,-2.064 6.015,-5.745c0,-3.351 -2.394,-5.325 -5.925,-5.325c-1.795,0 -3.561,0.419 -4.728,0.897l0,14.212l2.933,0l0,-12.267Z" style="fill:#fff;"/><path d="M18.64,24.503l0,5.804c0,0.15 0.089,0.299 0.209,0.359l0.658,0.36l0.004,0.005l0.055,0.025c0.06,0.03 0.12,0.059 0.21,0.059l0.031,0c0.012,0 0.028,-0.004 0.046,-0.01l-0.017,-0.019c0.06,0 0.12,0 0.18,-0.03l0.209,-0.12l0.004,0.004l0.265,-0.153l0.004,0.003l0.206,-0.124c0.01,-0.003 0.019,-0.007 0.029,-0.013c0,-0.003 0,-0.009 0,-0.016l0.011,0.011c0.058,-0.036 0.113,-0.106 0.146,-0.183l-0.007,-0.008c0.007,-0.006 0.013,-0.014 0.019,-0.023c0.004,-0.012 0.008,-0.025 0.011,-0.037l0.006,0.008c0.014,-0.029 0.024,-0.064 0.024,-0.098l0,-1.286l0,-0.329l0,-1.047l0,-0.33l0,-0.598l0,-1.256l0,-1.497l0,-0.328l0,-3.352l0,-0.448l0,-0.359l0,-0.031c0,-0.03 -0.03,-0.06 -0.03,-0.09l0.024,0.028c-0.028,-0.127 -0.13,-0.245 -0.233,-0.297l-0.225,-0.15l-0.822,-0.448l-0.04,-0.046l-0.738,-0.403l-0.047,-0.054l-0.553,-0.311l0.031,0.035l-0.801,-0.474l0.023,0.026l-0.8,-0.476l0.022,0.027l-0.957,-0.538l-0.019,-0.022l-0.759,-0.427l-0.04,-0.046l-0.537,-0.294l0.008,0.011l-0.179,-0.104l-0.03,-0.016l-0.002,-0.001l-0.776,-0.448l-0.001,-0.002l-0.636,-0.366l-0.889,-0.5l-0.019,-0.021l-0.759,-0.428l-0.018,-0.021l-0.611,-0.343l0.031,0.036l-0.958,-0.569l-0.001,-0.002l-0.597,-0.343l-0.958,-0.523l-0.037,-0.046l-0.352,-0.193l0.132,-0.075l-0.012,-0.015l0.359,-0.179l0.016,0.018l0.195,-0.106l-0.002,-0.002l0.271,-0.147l-0.001,-0.002l0.271,-0.148l-0.002,-0.002l0.27,-0.149l0,-0.001l0.27,-0.148l-0.002,-0.001l0.33,-0.18l0.015,0.019l0.196,-0.107l-0.001,-0.002l0.27,-0.147l-0.002,-0.002l0.271,-0.148l-0.001,-0.002l0.271,-0.147l-0.002,-0.002l0.271,-0.148l-0.002,-0.002l0.33,-0.18l0.016,0.019l0.195,-0.106l-0.002,-0.003l0.27,-0.147l-0.001,-0.002l0.271,-0.148l-0.002,-0.002l0.272,-0.147l-0.002,-0.002l0.27,-0.148l0,-0.002l0.328,-0.18l0.016,0.019l0.195,-0.106l-0.001,-0.002l0.271,-0.148l-0.002,-0.002l0.271,-0.147l-0.002,-0.002l0.06,-0.03l0.218,-0.11l-0.009,-0.01l0.279,-0.139l-0.009,-0.011l0.359,-0.18l0.009,0.011l0.179,-0.09l-0.009,-0.01l0.279,-0.139l-0.009,-0.011l0.278,-0.139l-0.009,-0.01l0.278,-0.139l-0.009,-0.011l0.278,-0.139l-0.008,-0.01l0.359,-0.18l0.015,0.019l0.196,-0.107l-0.002,-0.002l0.271,-0.147l-0.002,-0.002l0.271,-0.148l-0.001,-0.002l0.271,-0.148l-0.002,-0.002l0.329,-0.179l0.012,0.014l0.257,-0.163l0.017,0.018l0.195,-0.107l-0.002,-0.002l0.27,-0.147l0,-0.002l0.27,-0.148l-0.002,-0.002l0.271,-0.147l-0.001,-0.002l0.328,-0.179l0.019,0.02l0.101,-0.051c0.018,-0.017 0.056,-0.035 0.097,-0.052l-0.007,-0.007c0.019,-0.005 0.036,-0.01 0.055,-0.014c0.013,-0.006 0.024,-0.011 0.035,-0.016l0.006,0.007c0.087,-0.021 0.176,-0.037 0.263,-0.037l0.09,0l0.002,0.002c0.14,0.01 0.264,0.044 0.387,0.117l0.179,0.091l0.01,0.011l0.566,0.301l-0.037,-0.044l0.726,0.399l-0.007,-0.009l0.927,0.508l0.009,0.012l0.709,0.377l0.005,0.005l0.743,0.384l0.028,0.033l0.69,0.356l0.009,0.011l0.709,0.378l0.005,0.005l0.743,0.384l0.01,0.011l0.708,0.378l0.009,0.011l0.709,0.378l0.005,0.005l0.743,0.384l0.009,0.011l0.709,0.378l0.01,0.011l0.709,0.378l0.004,0.005l0.743,0.384l0.009,0.01l0.71,0.379l0.006,0.006l0.562,0.293l-0.211,0.118l0.002,0.001l-0.271,0.149l0.001,0.001l-0.27,0.148l0.002,0.001l-0.272,0.149l0.002,0.001l-0.25,0.137l0.011,0.014l-0.279,0.138l0.009,0.011l-0.271,0.148l0.002,0.002l-0.271,0.147l0.002,0.002l-0.271,0.148l0.001,0.002l-0.329,0.209l-0.012,-0.014l-0.257,0.164l-0.004,-0.006l-0.265,0.155l-0.002,-0.002l-0.237,0.152l-0.013,-0.014l-0.202,0.128l0.005,0.005l-0.271,0.149l0.001,0.001l-0.27,0.148l0.001,0.002l-0.25,0.137l0.011,0.013l-0.279,0.139l0.009,0.01l-0.27,0.148l0.002,0.002l-0.272,0.147l0.002,0.002l-0.271,0.148l0.001,0.002l-0.27,0.147l0.002,0.002l-0.272,0.148l0.002,0.002l-0.25,0.136l0.011,0.014l-0.271,0.147l0.002,0.002l-0.272,0.148l0.002,0.002l-0.329,0.209l-0.012,-0.014l-0.257,0.164l-0.012,-0.015l-0.258,0.164l-0.012,-0.014l-0.256,0.164l-0.002,-0.002l-0.239,0.151l-0.01,-0.012l-0.109,0.072c-0.06,0.03 -0.089,0.06 -0.12,0.12l-0.004,-0.005c-0.046,0.08 -0.085,0.172 -0.085,0.245l0,0.807c0.029,0.06 0.029,0.12 0.089,0.21c0.06,0.06 0.09,0.119 0.15,0.149l0.59,0.359l-0.051,-0.059l0.15,0.12l0.029,0l0.017,0.019c0.117,0.04 0.267,0.033 0.372,-0.019l0.005,0.005c0.008,-0.004 0.017,-0.005 0.025,-0.005l0.184,-0.115l-0.005,-0.005l0.272,-0.148l-0.002,-0.002l0.271,-0.148l-0.001,-0.002l0.25,-0.136l-0.011,-0.013l0.27,-0.148l-0.001,-0.002l0.271,-0.147l-0.002,-0.002l0.271,-0.148l-0.002,-0.002l0.272,-0.148l-0.002,-0.001l0.27,-0.149l-0.001,-0.001l0.329,-0.209l0.002,0.001l0.237,-0.151l0.012,0.013l0.258,-0.163l0.012,0.014l0.257,-0.163l0.013,0.013l0.256,-0.163l0.012,0.014l0.203,-0.129l-0.005,-0.005l0.25,-0.136l-0.011,-0.013l0.271,-0.148l-0.002,-0.002l0.272,-0.147l-0.002,-0.002l0.27,-0.148l-0.001,-0.002l0.271,-0.148l-0.002,-0.001l0.271,-0.149l-0.001,-0.001l0.25,-0.137l-0.011,-0.013l0.278,-0.139l-0.009,-0.011l0.271,-0.148l-0.001,-0.002l0.27,-0.147l-0.001,-0.002l0.271,-0.148l-0.002,-0.002l0.271,-0.147l-0.001,-0.002l0.328,-0.21l0.012,0.015l0.258,-0.164l0.004,0.006l0.116,-0.066l0,12.866c0,0.067 -0.017,0.133 -0.038,0.201l0.008,0.009c-0.025,0.096 -0.067,0.191 -0.13,0.287l0.01,0.012c-0.09,0.089 -0.18,0.209 -0.269,0.269l-0.031,0.03l-0.179,0.089l-0.25,0.137l0.011,0.013l-0.271,0.149l0.002,0.001l-0.272,0.148l0.002,0.001l-0.27,0.149l0.001,0.001l-0.329,0.209l-0.012,-0.013l-0.258,0.163l-0.001,-0.001l-0.238,0.151l-0.012,-0.014l-0.201,0.129l0.004,0.004l-0.271,0.148l0.001,0.002l-0.27,0.147l0.001,0.002l-0.251,0.137l0.012,0.013l-0.271,0.148l0.002,0.002l-0.272,0.148l0.002,0.001l-0.27,0.149l0.001,0.001l-0.271,0.148l0.002,0.002l-0.33,0.209l-0.001,-0.001l-0.238,0.15l-0.012,-0.013l-0.257,0.163l-0.012,-0.013l-0.202,0.128l0.004,0.005l-0.27,0.147l0.001,0.002l-0.251,0.137l0.011,0.013l-0.27,0.148l0.002,0.002l-0.272,0.147l0.002,0.002l-0.271,0.149l0.002,0.001l-0.271,0.148l0.002,0.001l-0.33,0.21l-0.001,-0.002l-0.238,0.151l-0.012,-0.013l-0.257,0.163l-0.012,-0.013l-0.202,0.128l0.004,0.005l-0.27,0.148l0.002,0.002l-0.252,0.136l0.011,0.013l-0.27,0.148l0.002,0.002l-0.271,0.147l0.001,0.002l-0.271,0.148l0.002,0.002l-0.271,0.148l0.001,0.001l-0.25,0.138l0.011,0.012l-0.329,0.209l-0.012,-0.013l-0.257,0.163l-0.012,-0.013l-0.258,0.163l-0.012,-0.014l-0.201,0.128l0.004,0.006l-0.271,0.147l0.002,0.002l-0.251,0.137l0.011,0.013l-0.27,0.147l0.001,0.002l-0.271,0.148l0.002,0.002l-0.09,0.06c-0.089,0.029 -0.18,0.06 -0.269,0.089l-0.011,-0.012c-0.066,0.012 -0.132,0.012 -0.199,0.012l-0.089,0l-0.09,0l-0.005,-0.005c-0.096,-0.011 -0.198,-0.04 -0.265,-0.084l-0.419,-0.239l-0.001,-0.002l-0.776,-0.447l-0.002,-0.002l-0.624,-0.36l0.027,0.032l-0.8,-0.475l0.022,0.027l-0.957,-0.569l-0.023,-0.027l-0.785,-0.451l-0.001,-0.002l-0.777,-0.448l-0.002,-0.001l-0.776,-0.447l-0.002,-0.002l-0.775,-0.447l-0.002,-0.002l-0.624,-0.36l0.026,0.033l-0.8,-0.475l0.023,0.026l-0.988,-0.568l-0.038,-0.046l-0.74,-0.403l-0.051,-0.06l-0.726,-0.419l-0.002,-0.002l-0.594,-0.341l-0.691,-0.375c-0.095,-0.059 -0.184,-0.15 -0.258,-0.257c-0.003,-0.004 -0.007,-0.008 -0.012,-0.013l0.012,0.011c-0.115,-0.164 -0.191,-0.368 -0.191,-0.549l0,-12.866l0.239,0.12l0.04,0.046l0.537,0.293l-0.008,-0.01l0.112,0.067l0.097,0.052l0.008,0.01l0.584,0.346l-0.023,-0.026l0.8,0.476l-0.023,-0.027l0.959,0.538l0.018,0.021l0.611,0.345l-0.031,-0.037l0.957,0.569l0.002,0.002l0.596,0.343l0.958,0.523l0.046,0.054l0.553,0.311l-0.031,-0.037l0.802,0.476l-0.023,-0.027l0.8,0.476l-0.023,-0.027l0.958,0.539l0.039,0.046l0.539,0.293l-0.01,-0.01l0.18,0.103l0.03,0.017l0.001,0.002l0.777,0.446l0.007,0.008l0.442,0.262c0.06,0.029 0.12,0.119 0.12,0.179l0,3.89Z" style="fill:#fff;"/></g></svg>