<?xml version="1.0" encoding="UTF-8" standalone="no"?><!DOCTYPE svg PUBLIC "-//W3C//DTD SVG 1.1//EN" "http://www.w3.org/Graphics/SVG/1.1/DTD/svg11.dtd"><svg width="100%" height="100%" viewBox="0 0 120 40" version="1.1" xmlns="http://www.w3.org/2000/svg" xmlns:xlink="http://www.w3.org/1999/xlink" xml:space="preserve" xmlns:serif="http://www.serif.com/" style="fill-rule:evenodd;clip-rule:evenodd;stroke-linejoin:round;stroke-miterlimit:1.41421;"><g><rect x="27.584" y="12.962" width="2.566" height="13.785" style="fill:#fff;"/><path d="M40.589,26.747l-2.252,0l0,-6.541c0,-1.363 -0.601,-2.098 -1.693,-2.182c-0.679,-0.053 -1.758,0.108 -2.54,0.283l0,8.44l-2.253,0l0,-10.042c0,0 2.739,-0.611 5.213,-0.609c1.071,0.001 1.926,0.381 2.565,1.022c0.639,0.64 0.96,1.533 0.96,2.677l0,6.952Z" style="fill:#fff;fill-rule:nonzero;"/><path d="M53.012,17.685c0,1.403 -0.435,2.531 -1.302,3.384c-0.869,0.851 -2.048,1.277 -3.535,1.277l-3.119,0l0,4.401l-2.523,0l0,-13.785l5.475,0c1.612,0 2.85,0.419 3.712,1.257c0.862,0.839 1.292,1.994 1.292,3.466Zm-2.648,0c0,-1.664 -0.812,-2.495 -2.439,-2.495l-2.869,0l0,4.948l2.826,0c0.78,0 1.388,-0.215 1.826,-0.644c0.438,-0.43 0.656,-1.033 0.656,-1.809Z" style="fill:#fff;fill-rule:nonzero;"/><path d="M63.416,21.534c0,1.649 -0.462,2.978 -1.387,3.987c-0.925,1.008 -2.123,1.512 -3.598,1.512c-1.471,0 -2.672,-0.504 -3.596,-1.512c-0.925,-1.009 -1.387,-2.338 -1.387,-3.987c0,-1.649 0.462,-2.975 1.387,-3.977c0.924,-1.001 2.125,-1.502 3.596,-1.502c1.488,0 2.691,0.501 3.609,1.502c0.917,1.002 1.376,2.328 1.376,3.977Zm-2.357,0.01c0,-1.032 -0.24,-1.852 -0.718,-2.456c-0.481,-0.604 -1.116,-0.907 -1.91,-0.907c-0.791,0 -1.428,0.306 -1.908,0.917c-0.478,0.612 -0.718,1.427 -0.718,2.446c0,1.033 0.24,1.851 0.718,2.456c0.48,0.605 1.117,0.907 1.908,0.907c0.794,0 1.429,-0.302 1.91,-0.907c0.478,-0.605 0.718,-1.423 0.718,-2.456Z" style="fill:#fff;fill-rule:nonzero;"/><path d="M73.213,23.435c0,1.036 -0.402,1.887 -1.209,2.555c-0.806,0.668 -1.87,1.001 -3.19,1.001c-2.059,0 -3.65,-0.612 -4.776,-1.839l1.731,-1.451c0.862,0.845 1.87,1.268 3.023,1.268c0.641,0 1.148,-0.127 1.524,-0.379c0.375,-0.252 0.562,-0.568 0.562,-0.951c0,-0.436 -0.215,-0.735 -0.647,-0.899c-0.25,-0.095 -0.917,-0.225 -2.002,-0.389c-1.306,-0.19 -2.237,-0.476 -2.794,-0.858c-0.654,-0.463 -0.979,-1.158 -0.979,-2.085c0,-0.941 0.396,-1.728 1.187,-2.362c0.793,-0.634 1.85,-0.951 3.171,-0.951c1.598,0 2.961,0.526 4.087,1.575l-1.356,1.43c-0.82,-0.72 -1.752,-1.083 -2.794,-1.083c-1.336,0 -2.001,0.376 -2.001,1.125c0,0.436 0.304,0.736 0.917,0.9c0.862,0.136 1.716,0.279 2.564,0.428c1.988,0.368 2.982,1.357 2.982,2.965Z" style="fill:#fff;fill-rule:nonzero;"/><path d="M78.597,26.747c-0.375,0.095 -0.765,0.143 -1.167,0.143c-1.286,0 -2.136,-0.285 -2.55,-0.858c-0.33,-0.45 -0.495,-1.302 -0.495,-2.556l0,-10.105l2.253,0l0,2.969l1.999,0l0,1.841l-1.999,0l0,5.151c0,0.601 0.075,0.997 0.229,1.187c0.18,0.245 0.563,0.368 1.147,0.368c0.167,0 0.361,-0.013 0.583,-0.041l0,1.901Z" style="fill:#fff;fill-rule:nonzero;"/></g><g><path d="M11.269,20.016c0,0 -1.505,1.148 -3.364,1.148c-1.857,0 -3.364,-1.148 -3.364,-1.148c0,0 1.507,-0.95 3.364,-0.95c1.859,0 3.364,0.95 3.364,0.95Z" style="fill:#fff;fill-rule:nonzero;"/><path d="M15.922,11.454c0,0 -1.778,-0.677 -2.817,-2.187c-1.04,-1.51 -0.945,-3.283 -0.945,-3.283c0,0 1.779,0.657 2.818,2.167c1.038,1.51 0.944,3.303 0.944,3.303Z" style="fill:#fff;fill-rule:nonzero;"/><path d="M12.515,15.149c0,0 -1.911,0.325 -3.553,-0.531c-1.64,-0.855 -2.389,-2.567 -2.389,-2.567c0,0 2.125,-0.335 3.765,0.52c1.641,0.855 2.177,2.578 2.177,2.578Z" style="fill:#fff;fill-rule:nonzero;"/><path d="M17.221,22.847c0.973,-0.295 3.741,-0.99 3.741,-0.99c0,0 -4.136,-1.711 -3.967,-4.106c0.476,-2.946 2.635,-4.935 6.064,-6.409c-0.422,-0.06 -0.854,-0.09 -1.293,-0.088c-4.928,0.022 -8.906,3.957 -8.883,8.789c0.021,4.832 4.035,8.731 8.963,8.709c0.412,-0.002 1.71,-0.098 2.106,-0.152c-3.497,-0.437 -6.604,-3.099 -6.731,-5.753Z" style="fill:#fff;fill-rule:nonzero;"/><path d="M15.922,28.546c0,0 -1.677,0.576 -2.717,2.086c-1.039,1.511 -1.045,3.384 -1.045,3.384c0,0 1.577,-0.657 2.616,-2.167c1.038,-1.51 1.146,-3.303 1.146,-3.303Z" style="fill:#fff;fill-rule:nonzero;"/><path d="M12.515,24.851c0,0 -1.79,-0.143 -3.432,0.712c-1.64,0.855 -2.51,2.386 -2.51,2.386c0,0 1.771,0.143 3.412,-0.712c1.64,-0.854 2.53,-2.386 2.53,-2.386Z" style="fill:#fff;fill-rule:nonzero;"/></g></svg>