<?xml version="1.0" encoding="UTF-8" standalone="no"?><!DOCTYPE svg PUBLIC "-//W3C//DTD SVG 1.1//EN" "http://www.w3.org/Graphics/SVG/1.1/DTD/svg11.dtd"><svg width="100%" height="100%" viewBox="0 0 650 150" version="1.1" xmlns="http://www.w3.org/2000/svg" xmlns:xlink="http://www.w3.org/1999/xlink" xml:space="preserve" xmlns:serif="http://www.serif.com/" style="fill-rule:evenodd;clip-rule:evenodd;stroke-linejoin:round;stroke-miterlimit:1.41421;"><rect x="0" y="0" width="650" height="150" style="fill:#181818;"/><path d="M70.488,39.754c0.339,0 0.602,0.085 0.79,0.254c0.188,0.169 0.282,0.404 0.282,0.705c0,0.319 -0.094,0.564 -0.282,0.733c-0.188,0.169 -0.451,0.254 -0.79,0.254l-12.605,0c-0.338,0 -0.606,-0.094 -0.803,-0.282c-0.198,-0.188 -0.296,-0.423 -0.296,-0.705c0,-0.282 0.103,-0.574 0.31,-0.874l11.279,-16.074l-10.49,0c-0.338,0 -0.601,-0.084 -0.789,-0.254c-0.188,-0.169 -0.282,-0.404 -0.282,-0.705c0,-0.319 0.094,-0.564 0.282,-0.733c0.188,-0.169 0.451,-0.254 0.789,-0.254l12.295,0c0.339,0 0.606,0.094 0.804,0.282c0.197,0.188 0.296,0.423 0.296,0.705c0,0.264 -0.103,0.546 -0.31,0.846l-11.308,16.102l10.828,0Z" style="fill:#fff;fill-rule:nonzero;"/><path d="M79.822,27.628c3.44,0 5.161,1.805 5.161,5.415l0,7.67c0,0.338 -0.099,0.611 -0.297,0.817c-0.197,0.207 -0.465,0.311 -0.803,0.311c-0.339,0 -0.611,-0.104 -0.818,-0.311c-0.207,-0.206 -0.31,-0.479 -0.31,-0.817l0,-1.354c-0.357,0.809 -0.902,1.434 -1.636,1.875c-0.733,0.442 -1.579,0.663 -2.538,0.663c-0.883,0 -1.696,-0.179 -2.439,-0.536c-0.742,-0.357 -1.33,-0.855 -1.762,-1.494c-0.433,-0.639 -0.649,-1.344 -0.649,-2.115c0,-1.034 0.263,-1.838 0.79,-2.411c0.526,-0.574 1.391,-0.987 2.594,-1.241c1.203,-0.254 2.876,-0.381 5.019,-0.381l0.621,0l0,-0.93c0,-1.128 -0.23,-1.955 -0.691,-2.482c-0.461,-0.526 -1.208,-0.789 -2.242,-0.789c-1.278,0 -2.575,0.348 -3.891,1.043c-0.508,0.32 -0.865,0.479 -1.072,0.479c-0.225,0 -0.413,-0.084 -0.564,-0.253c-0.15,-0.17 -0.225,-0.386 -0.225,-0.649c0,-0.263 0.079,-0.493 0.239,-0.691c0.16,-0.197 0.419,-0.399 0.776,-0.606c0.658,-0.376 1.405,-0.672 2.242,-0.888c0.836,-0.217 1.668,-0.325 2.495,-0.325Zm-0.93,12.464c1.128,0 2.053,-0.38 2.777,-1.142c0.724,-0.761 1.086,-1.743 1.086,-2.947l0,-0.817l-0.508,0c-1.654,0 -2.914,0.07 -3.778,0.211c-0.865,0.141 -1.481,0.376 -1.847,0.705c-0.367,0.329 -0.55,0.813 -0.55,1.452c0,0.734 0.268,1.34 0.803,1.819c0.536,0.48 1.208,0.719 2.017,0.719Z" style="fill:#fff;fill-rule:nonzero;"/><path d="M96.065,27.628c1.203,0 2.265,0.301 3.186,0.903c0.921,0.601 1.636,1.443 2.143,2.524c0.508,1.081 0.762,2.335 0.762,3.764c0,1.429 -0.254,2.674 -0.762,3.736c-0.507,1.063 -1.217,1.885 -2.129,2.468c-0.911,0.583 -1.978,0.874 -3.2,0.874c-1.072,0 -2.007,-0.235 -2.806,-0.705c-0.799,-0.47 -1.405,-1.137 -1.819,-2.002l0,6.627c0,0.338 -0.099,0.606 -0.296,0.803c-0.197,0.198 -0.475,0.296 -0.832,0.296c-0.357,0 -0.639,-0.103 -0.846,-0.31c-0.207,-0.207 -0.31,-0.47 -0.31,-0.789l0,-17.004c0,-0.339 0.103,-0.611 0.31,-0.818c0.207,-0.207 0.489,-0.31 0.846,-0.31c0.357,0 0.635,0.103 0.832,0.31c0.197,0.207 0.296,0.479 0.296,0.818l0,1.522c0.414,-0.864 1.02,-1.532 1.819,-2.002c0.799,-0.47 1.734,-0.705 2.806,-0.705Zm-0.451,12.38c1.334,0 2.368,-0.451 3.101,-1.354c0.734,-0.902 1.1,-2.181 1.1,-3.835c0,-1.654 -0.366,-2.947 -1.1,-3.877c-0.733,-0.931 -1.767,-1.396 -3.101,-1.396c-1.335,0 -2.364,0.451 -3.088,1.353c-0.724,0.903 -1.086,2.191 -1.086,3.864c0,1.673 0.362,2.965 1.086,3.877c0.724,0.912 1.753,1.368 3.088,1.368Z" style="fill:#fff;fill-rule:nonzero;"/><path d="M106.724,41.841c-0.338,0 -0.616,-0.099 -0.832,-0.296c-0.216,-0.198 -0.324,-0.475 -0.324,-0.832l0,-11.9c0,-0.357 0.108,-0.635 0.324,-0.832c0.216,-0.198 0.494,-0.296 0.832,-0.296c0.338,0 0.611,0.098 0.818,0.296c0.207,0.197 0.31,0.475 0.31,0.832l0,11.9c0,0.376 -0.103,0.658 -0.31,0.846c-0.207,0.188 -0.48,0.282 -0.818,0.282Zm0,-17.117c-0.451,0 -0.818,-0.132 -1.1,-0.395c-0.282,-0.263 -0.423,-0.611 -0.423,-1.043c0,-0.414 0.141,-0.752 0.423,-1.015c0.282,-0.264 0.649,-0.395 1.1,-0.395c0.451,0 0.818,0.131 1.1,0.395c0.282,0.263 0.423,0.601 0.423,1.015c0,0.432 -0.141,0.78 -0.423,1.043c-0.282,0.263 -0.649,0.395 -1.1,0.395Z" style="fill:#fff;fill-rule:nonzero;"/><path d="M116.735,41.897c-0.865,0 -1.688,-0.103 -2.468,-0.31c-0.78,-0.207 -1.471,-0.498 -2.072,-0.874c-0.339,-0.226 -0.579,-0.437 -0.72,-0.635c-0.141,-0.197 -0.211,-0.437 -0.211,-0.719c0,-0.244 0.07,-0.446 0.211,-0.606c0.141,-0.16 0.325,-0.24 0.55,-0.24c0.226,0 0.555,0.141 0.987,0.423c0.564,0.339 1.124,0.606 1.678,0.804c0.555,0.197 1.246,0.296 2.073,0.296c1.015,0 1.804,-0.179 2.368,-0.536c0.564,-0.357 0.846,-0.874 0.846,-1.551c0,-0.413 -0.103,-0.747 -0.31,-1.001c-0.207,-0.254 -0.564,-0.479 -1.071,-0.677c-0.508,-0.197 -1.25,-0.399 -2.228,-0.606c-1.654,-0.357 -2.839,-0.836 -3.553,-1.438c-0.714,-0.602 -1.072,-1.419 -1.072,-2.453c0,-0.809 0.226,-1.523 0.677,-2.143c0.451,-0.621 1.076,-1.11 1.875,-1.467c0.799,-0.357 1.706,-0.536 2.722,-0.536c0.733,0 1.442,0.099 2.129,0.296c0.686,0.198 1.292,0.475 1.818,0.832c0.64,0.452 0.959,0.922 0.959,1.41c0,0.245 -0.075,0.451 -0.225,0.621c-0.151,0.169 -0.329,0.253 -0.536,0.253c-0.226,0 -0.564,-0.159 -1.015,-0.479c-0.527,-0.338 -1.025,-0.601 -1.495,-0.789c-0.47,-0.188 -1.053,-0.282 -1.748,-0.282c-0.884,0 -1.593,0.197 -2.129,0.592c-0.536,0.394 -0.804,0.921 -0.804,1.579c0,0.413 0.099,0.747 0.296,1.001c0.198,0.254 0.527,0.479 0.987,0.677c0.461,0.197 1.123,0.39 1.988,0.578c1.278,0.282 2.27,0.592 2.975,0.93c0.705,0.339 1.208,0.752 1.509,1.241c0.301,0.489 0.451,1.109 0.451,1.861c0,1.185 -0.498,2.139 -1.495,2.862c-0.996,0.724 -2.312,1.086 -3.947,1.086Z" style="fill:#fff;fill-rule:nonzero;"/><path d="M135.6,39.895c0.319,0 0.564,0.08 0.733,0.24c0.169,0.159 0.254,0.38 0.254,0.662c0,0.282 -0.085,0.503 -0.254,0.663c-0.169,0.16 -0.414,0.24 -0.733,0.24l-9.87,0c-0.32,0 -0.583,-0.099 -0.79,-0.296c-0.206,-0.198 -0.31,-0.438 -0.31,-0.72c0,-0.3 0.113,-0.592 0.339,-0.874l8.347,-10.038l-7.727,0c-0.32,0 -0.569,-0.08 -0.747,-0.24c-0.179,-0.16 -0.268,-0.371 -0.268,-0.635c0,-0.282 0.089,-0.507 0.268,-0.676c0.178,-0.17 0.427,-0.254 0.747,-0.254l9.559,0c0.339,0 0.611,0.098 0.818,0.296c0.207,0.197 0.31,0.437 0.31,0.719c0,0.301 -0.112,0.592 -0.338,0.874l-8.375,10.039l8.037,0Z" style="fill:#fff;fill-rule:nonzero;"/><path d="M151.588,41.897c-0.864,0 -1.687,-0.103 -2.467,-0.31c-0.78,-0.207 -1.471,-0.498 -2.073,-0.874c-0.338,-0.226 -0.578,-0.437 -0.719,-0.635c-0.141,-0.197 -0.211,-0.437 -0.211,-0.719c0,-0.244 0.07,-0.446 0.211,-0.606c0.141,-0.16 0.325,-0.24 0.55,-0.24c0.226,0 0.555,0.141 0.987,0.423c0.564,0.339 1.123,0.606 1.678,0.804c0.555,0.197 1.245,0.296 2.073,0.296c1.015,0 1.804,-0.179 2.368,-0.536c0.564,-0.357 0.846,-0.874 0.846,-1.551c0,-0.413 -0.103,-0.747 -0.31,-1.001c-0.207,-0.254 -0.564,-0.479 -1.071,-0.677c-0.508,-0.197 -1.251,-0.399 -2.228,-0.606c-1.654,-0.357 -2.839,-0.836 -3.553,-1.438c-0.715,-0.602 -1.072,-1.419 -1.072,-2.453c0,-0.809 0.226,-1.523 0.677,-2.143c0.451,-0.621 1.076,-1.11 1.875,-1.467c0.799,-0.357 1.706,-0.536 2.721,-0.536c0.734,0 1.443,0.099 2.129,0.296c0.687,0.198 1.293,0.475 1.819,0.832c0.639,0.452 0.959,0.922 0.959,1.41c0,0.245 -0.075,0.451 -0.226,0.621c-0.15,0.169 -0.329,0.253 -0.535,0.253c-0.226,0 -0.564,-0.159 -1.015,-0.479c-0.527,-0.338 -1.025,-0.601 -1.495,-0.789c-0.47,-0.188 -1.053,-0.282 -1.748,-0.282c-0.884,0 -1.594,0.197 -2.129,0.592c-0.536,0.394 -0.804,0.921 -0.804,1.579c0,0.413 0.099,0.747 0.296,1.001c0.197,0.254 0.526,0.479 0.987,0.677c0.461,0.197 1.123,0.39 1.988,0.578c1.278,0.282 2.27,0.592 2.975,0.93c0.705,0.339 1.208,0.752 1.509,1.241c0.3,0.489 0.451,1.109 0.451,1.861c0,1.185 -0.498,2.139 -1.495,2.862c-0.996,0.724 -2.312,1.086 -3.948,1.086Z" style="fill:#fff;fill-rule:nonzero;"/><path d="M161.655,41.841c-0.338,0 -0.615,-0.099 -0.831,-0.296c-0.217,-0.198 -0.325,-0.475 -0.325,-0.832l0,-11.9c0,-0.357 0.108,-0.635 0.325,-0.832c0.216,-0.198 0.493,-0.296 0.831,-0.296c0.339,0 0.611,0.098 0.818,0.296c0.207,0.197 0.31,0.475 0.31,0.832l0,11.9c0,0.376 -0.103,0.658 -0.31,0.846c-0.207,0.188 -0.479,0.282 -0.818,0.282Zm0,-17.117c-0.451,0 -0.817,-0.132 -1.099,-0.395c-0.282,-0.263 -0.423,-0.611 -0.423,-1.043c0,-0.414 0.141,-0.752 0.423,-1.015c0.282,-0.264 0.648,-0.395 1.099,-0.395c0.452,0 0.818,0.131 1.1,0.395c0.282,0.263 0.423,0.601 0.423,1.015c0,0.432 -0.141,0.78 -0.423,1.043c-0.282,0.263 -0.648,0.395 -1.1,0.395Z" style="fill:#fff;fill-rule:nonzero;"/><path d="M177.334,40.741c-1.109,0.62 -1.875,1.156 -2.298,1.607c-0.423,0.451 -0.635,0.959 -0.635,1.523c0,0.545 0.165,0.978 0.494,1.297c0.329,0.32 0.757,0.48 1.283,0.48c0.395,0 0.846,-0.113 1.353,-0.339c0.151,-0.056 0.264,-0.084 0.339,-0.084c0.169,0 0.305,0.061 0.409,0.183c0.103,0.122 0.155,0.277 0.155,0.465c0,0.32 -0.141,0.564 -0.423,0.733c-0.639,0.357 -1.335,0.536 -2.087,0.536c-0.977,0 -1.772,-0.277 -2.383,-0.832c-0.611,-0.554 -0.916,-1.264 -0.916,-2.129c0,-0.921 0.329,-1.682 0.987,-2.284l-0.508,0c-2.124,0 -3.802,-0.63 -5.033,-1.889c-1.232,-1.26 -1.847,-2.999 -1.847,-5.217c0,-1.41 0.272,-2.655 0.817,-3.736c0.546,-1.081 1.312,-1.923 2.299,-2.524c0.987,-0.602 2.11,-0.903 3.369,-0.903c1.786,0 3.206,0.583 4.258,1.749c1.053,1.165 1.58,2.744 1.58,4.737c0,0.376 -0.076,0.649 -0.226,0.818c-0.15,0.169 -0.395,0.254 -0.733,0.254l-9.08,0c0.169,3.233 1.701,4.85 4.596,4.85c0.733,0 1.363,-0.099 1.89,-0.296c0.526,-0.198 1.09,-0.465 1.691,-0.804c0.489,-0.282 0.818,-0.423 0.987,-0.423c0.207,0 0.386,0.085 0.536,0.254c0.151,0.169 0.226,0.385 0.226,0.649c0,0.244 -0.089,0.474 -0.268,0.69c-0.179,0.217 -0.456,0.428 -0.832,0.635Zm-4.596,-11.336c-1.204,0 -2.167,0.376 -2.891,1.128c-0.724,0.752 -1.151,1.814 -1.283,3.186l7.98,0c-0.037,-1.391 -0.385,-2.458 -1.043,-3.2c-0.658,-0.743 -1.579,-1.114 -2.763,-1.114Z" style="fill:#fff;fill-rule:nonzero;"/><path d="M200.203,21.678c0.358,0 0.64,0.104 0.846,0.311c0.207,0.206 0.311,0.47 0.311,0.789l0,17.935c0,0.338 -0.104,0.611 -0.311,0.817c-0.206,0.207 -0.488,0.311 -0.846,0.311c-0.357,0 -0.634,-0.104 -0.831,-0.311c-0.198,-0.206 -0.297,-0.479 -0.297,-0.817l0,-1.523c-0.413,0.865 -1.019,1.532 -1.818,2.002c-0.799,0.47 -1.735,0.705 -2.806,0.705c-1.203,0 -2.266,-0.301 -3.187,-0.902c-0.921,-0.602 -1.635,-1.443 -2.143,-2.524c-0.507,-1.081 -0.761,-2.336 -0.761,-3.765c0,-1.41 0.254,-2.65 0.761,-3.722c0.508,-1.071 1.222,-1.899 2.143,-2.481c0.921,-0.583 1.984,-0.875 3.187,-0.875c1.071,0 2.007,0.235 2.806,0.705c0.799,0.47 1.405,1.138 1.818,2.002l0,-7.557c0,-0.338 0.099,-0.606 0.297,-0.803c0.197,-0.198 0.474,-0.297 0.831,-0.297Zm-5.301,18.33c1.335,0 2.364,-0.456 3.088,-1.368c0.724,-0.912 1.085,-2.204 1.085,-3.877c0,-1.673 -0.361,-2.961 -1.085,-3.864c-0.724,-0.902 -1.753,-1.353 -3.088,-1.353c-1.335,0 -2.373,0.451 -3.116,1.353c-0.743,0.903 -1.114,2.172 -1.114,3.807c0,1.673 0.371,2.975 1.114,3.906c0.743,0.93 1.781,1.396 3.116,1.396Z" style="fill:#fff;fill-rule:nonzero;"/><path d="M211.286,41.897c-1.298,0 -2.44,-0.291 -3.427,-0.874c-0.987,-0.583 -1.748,-1.415 -2.284,-2.496c-0.536,-1.081 -0.803,-2.336 -0.803,-3.764c0,-1.429 0.267,-2.684 0.803,-3.765c0.536,-1.081 1.297,-1.913 2.284,-2.495c0.987,-0.583 2.129,-0.875 3.427,-0.875c1.297,0 2.443,0.292 3.44,0.875c0.996,0.582 1.762,1.414 2.298,2.495c0.536,1.081 0.804,2.336 0.804,3.765c0,1.428 -0.268,2.683 -0.804,3.764c-0.536,1.081 -1.302,1.913 -2.298,2.496c-0.997,0.583 -2.143,0.874 -3.44,0.874Zm0,-1.889c1.353,0 2.392,-0.447 3.116,-1.34c0.723,-0.893 1.085,-2.195 1.085,-3.905c0,-1.673 -0.366,-2.966 -1.1,-3.878c-0.733,-0.911 -1.767,-1.367 -3.101,-1.367c-1.335,0 -2.369,0.456 -3.102,1.367c-0.734,0.912 -1.1,2.205 -1.1,3.878c0,1.692 0.362,2.989 1.086,3.891c0.723,0.903 1.762,1.354 3.116,1.354Z" style="fill:#fff;fill-rule:nonzero;"/><path d="M235.424,27.628c3.29,0 4.935,1.815 4.935,5.443l0,7.642c0,0.357 -0.099,0.634 -0.296,0.832c-0.198,0.197 -0.475,0.296 -0.832,0.296c-0.358,0 -0.639,-0.099 -0.846,-0.296c-0.207,-0.198 -0.31,-0.475 -0.31,-0.832l0,-7.501c0,-1.279 -0.25,-2.209 -0.748,-2.792c-0.498,-0.583 -1.292,-0.874 -2.383,-0.874c-1.259,0 -2.265,0.385 -3.017,1.156c-0.752,0.771 -1.128,1.814 -1.128,3.13l0,6.881c0,0.357 -0.098,0.634 -0.296,0.832c-0.197,0.197 -0.475,0.296 -0.832,0.296c-0.357,0 -0.639,-0.099 -0.846,-0.296c-0.207,-0.198 -0.31,-0.475 -0.31,-0.832l0,-11.9c0,-0.339 0.103,-0.611 0.31,-0.818c0.207,-0.207 0.489,-0.31 0.846,-0.31c0.339,0 0.607,0.103 0.804,0.31c0.197,0.207 0.296,0.47 0.296,0.79l0,1.438c0.451,-0.846 1.081,-1.49 1.889,-1.932c0.809,-0.442 1.73,-0.663 2.764,-0.663Z" style="fill:#fff;fill-rule:nonzero;"/><path d="M250.144,27.628c3.44,0 5.16,1.805 5.16,5.415l0,7.67c0,0.338 -0.099,0.611 -0.296,0.817c-0.197,0.207 -0.465,0.311 -0.804,0.311c-0.338,0 -0.611,-0.104 -0.817,-0.311c-0.207,-0.206 -0.311,-0.479 -0.311,-0.817l0,-1.354c-0.357,0.809 -0.902,1.434 -1.635,1.875c-0.733,0.442 -1.579,0.663 -2.538,0.663c-0.884,0 -1.697,-0.179 -2.439,-0.536c-0.743,-0.357 -1.33,-0.855 -1.763,-1.494c-0.432,-0.639 -0.648,-1.344 -0.648,-2.115c0,-1.034 0.263,-1.838 0.789,-2.411c0.527,-0.574 1.391,-0.987 2.595,-1.241c1.203,-0.254 2.876,-0.381 5.019,-0.381l0.62,0l0,-0.93c0,-1.128 -0.23,-1.955 -0.691,-2.482c-0.46,-0.526 -1.207,-0.789 -2.241,-0.789c-1.279,0 -2.576,0.348 -3.892,1.043c-0.507,0.32 -0.865,0.479 -1.071,0.479c-0.226,0 -0.414,-0.084 -0.564,-0.253c-0.151,-0.17 -0.226,-0.386 -0.226,-0.649c0,-0.263 0.08,-0.493 0.24,-0.691c0.16,-0.197 0.418,-0.399 0.775,-0.606c0.658,-0.376 1.405,-0.672 2.242,-0.888c0.837,-0.217 1.668,-0.325 2.496,-0.325Zm-0.931,12.464c1.128,0 2.054,-0.38 2.778,-1.142c0.723,-0.761 1.085,-1.743 1.085,-2.947l0,-0.817l-0.507,0c-1.655,0 -2.914,0.07 -3.779,0.211c-0.865,0.141 -1.48,0.376 -1.847,0.705c-0.367,0.329 -0.55,0.813 -0.55,1.452c0,0.734 0.268,1.34 0.804,1.819c0.536,0.48 1.208,0.719 2.016,0.719Z" style="fill:#fff;fill-rule:nonzero;"/><path d="M264.102,41.897c-0.865,0 -1.687,-0.103 -2.467,-0.31c-0.78,-0.207 -1.471,-0.498 -2.073,-0.874c-0.338,-0.226 -0.578,-0.437 -0.719,-0.635c-0.141,-0.197 -0.211,-0.437 -0.211,-0.719c0,-0.244 0.07,-0.446 0.211,-0.606c0.141,-0.16 0.324,-0.24 0.55,-0.24c0.225,0 0.554,0.141 0.987,0.423c0.564,0.339 1.123,0.606 1.678,0.804c0.554,0.197 1.245,0.296 2.072,0.296c1.015,0 1.805,-0.179 2.369,-0.536c0.564,-0.357 0.846,-0.874 0.846,-1.551c0,-0.413 -0.103,-0.747 -0.31,-1.001c-0.207,-0.254 -0.564,-0.479 -1.072,-0.677c-0.507,-0.197 -1.25,-0.399 -2.227,-0.606c-1.655,-0.357 -2.839,-0.836 -3.554,-1.438c-0.714,-0.602 -1.071,-1.419 -1.071,-2.453c0,-0.809 0.226,-1.523 0.677,-2.143c0.451,-0.621 1.076,-1.11 1.875,-1.467c0.799,-0.357 1.706,-0.536 2.721,-0.536c0.733,0 1.443,0.099 2.129,0.296c0.686,0.198 1.293,0.475 1.819,0.832c0.639,0.452 0.959,0.922 0.959,1.41c0,0.245 -0.075,0.451 -0.226,0.621c-0.15,0.169 -0.329,0.253 -0.536,0.253c-0.225,0 -0.564,-0.159 -1.015,-0.479c-0.526,-0.338 -1.024,-0.601 -1.494,-0.789c-0.47,-0.188 -1.053,-0.282 -1.749,-0.282c-0.883,0 -1.593,0.197 -2.129,0.592c-0.535,0.394 -0.803,0.921 -0.803,1.579c0,0.413 0.098,0.747 0.296,1.001c0.197,0.254 0.526,0.479 0.987,0.677c0.46,0.197 1.123,0.39 1.988,0.578c1.278,0.282 2.27,0.592 2.975,0.93c0.705,0.339 1.208,0.752 1.508,1.241c0.301,0.489 0.452,1.109 0.452,1.861c0,1.185 -0.499,2.139 -1.495,2.862c-0.996,0.724 -2.312,1.086 -3.948,1.086Z" style="fill:#fff;fill-rule:nonzero;"/><path d="M282.967,39.895c0.32,0 0.564,0.08 0.733,0.24c0.17,0.159 0.254,0.38 0.254,0.662c0,0.282 -0.084,0.503 -0.254,0.663c-0.169,0.16 -0.413,0.24 -0.733,0.24l-9.869,0c-0.32,0 -0.583,-0.099 -0.79,-0.296c-0.207,-0.198 -0.31,-0.438 -0.31,-0.72c0,-0.3 0.113,-0.592 0.338,-0.874l8.347,-10.038l-7.726,0c-0.32,0 -0.569,-0.08 -0.748,-0.24c-0.178,-0.16 -0.268,-0.371 -0.268,-0.635c0,-0.282 0.09,-0.507 0.268,-0.676c0.179,-0.17 0.428,-0.254 0.748,-0.254l9.559,0c0.338,0 0.611,0.098 0.818,0.296c0.207,0.197 0.31,0.437 0.31,0.719c0,0.301 -0.113,0.592 -0.338,0.874l-8.375,10.039l8.036,0Z" style="fill:#fff;fill-rule:nonzero;"/><path d="M297.377,38.513c0.207,0 0.385,0.085 0.536,0.254c0.15,0.169 0.225,0.385 0.225,0.649c0,0.47 -0.329,0.902 -0.987,1.297c-0.677,0.394 -1.391,0.691 -2.143,0.888c-0.752,0.197 -1.485,0.296 -2.199,0.296c-2.125,0 -3.803,-0.63 -5.034,-1.889c-1.231,-1.26 -1.847,-2.999 -1.847,-5.217c0,-1.41 0.273,-2.655 0.818,-3.736c0.545,-1.081 1.311,-1.923 2.298,-2.524c0.987,-0.602 2.11,-0.903 3.37,-0.903c1.786,0 3.205,0.583 4.258,1.749c1.053,1.165 1.579,2.744 1.579,4.737c0,0.376 -0.075,0.649 -0.226,0.818c-0.15,0.169 -0.394,0.254 -0.733,0.254l-9.08,0c0.169,3.233 1.702,4.85 4.597,4.85c0.733,0 1.363,-0.099 1.889,-0.296c0.526,-0.198 1.09,-0.465 1.692,-0.804c0.489,-0.282 0.818,-0.423 0.987,-0.423Zm-4.935,-9.108c-1.203,0 -2.167,0.376 -2.89,1.128c-0.724,0.752 -1.152,1.814 -1.283,3.186l7.98,0c-0.038,-1.391 -0.385,-2.458 -1.043,-3.2c-0.658,-0.743 -1.58,-1.114 -2.764,-1.114Z" style="fill:#fff;fill-rule:nonzero;"/><path d="M312.745,27.685c0.357,0 0.639,0.103 0.846,0.31c0.207,0.207 0.31,0.479 0.31,0.818l0,11.956c0,2.049 -0.526,3.595 -1.579,4.639c-1.052,1.043 -2.613,1.565 -4.681,1.565c-2.011,0 -3.684,-0.395 -5.019,-1.184c-0.677,-0.376 -1.015,-0.809 -1.015,-1.298c0,-0.263 0.07,-0.479 0.211,-0.648c0.141,-0.169 0.324,-0.254 0.55,-0.254c0.188,0 0.526,0.132 1.015,0.395c0.658,0.338 1.307,0.611 1.946,0.818c0.639,0.206 1.4,0.31 2.284,0.31c1.335,0 2.341,-0.353 3.017,-1.058c0.677,-0.705 1.016,-1.734 1.016,-3.088l0,-2.425c-0.395,0.884 -1.002,1.561 -1.819,2.031c-0.818,0.47 -1.782,0.705 -2.891,0.705c-1.203,0 -2.27,-0.282 -3.2,-0.846c-0.931,-0.564 -1.655,-1.363 -2.172,-2.397c-0.517,-1.034 -0.775,-2.228 -0.775,-3.581c0,-1.354 0.258,-2.548 0.775,-3.582c0.517,-1.034 1.241,-1.833 2.172,-2.397c0.93,-0.564 1.997,-0.846 3.2,-0.846c1.091,0 2.04,0.235 2.848,0.705c0.809,0.47 1.42,1.138 1.833,2.002l0,-1.522c0,-0.339 0.099,-0.611 0.296,-0.818c0.198,-0.207 0.475,-0.31 0.832,-0.31Zm-5.358,11.702c1.316,0 2.35,-0.437 3.102,-1.311c0.752,-0.874 1.128,-2.082 1.128,-3.623c0,-1.523 -0.371,-2.722 -1.114,-3.596c-0.742,-0.874 -1.781,-1.311 -3.116,-1.311c-1.334,0 -2.382,0.437 -3.144,1.311c-0.761,0.874 -1.142,2.073 -1.142,3.596c0,1.541 0.381,2.749 1.142,3.623c0.762,0.874 1.81,1.311 3.144,1.311Z" style="fill:#fff;fill-rule:nonzero;"/><path d="M323.827,41.897c-1.297,0 -2.439,-0.291 -3.426,-0.874c-0.987,-0.583 -1.748,-1.415 -2.284,-2.496c-0.536,-1.081 -0.804,-2.336 -0.804,-3.764c0,-1.429 0.268,-2.684 0.804,-3.765c0.536,-1.081 1.297,-1.913 2.284,-2.495c0.987,-0.583 2.129,-0.875 3.426,-0.875c1.298,0 2.444,0.292 3.441,0.875c0.996,0.582 1.762,1.414 2.298,2.495c0.536,1.081 0.804,2.336 0.804,3.765c0,1.428 -0.268,2.683 -0.804,3.764c-0.536,1.081 -1.302,1.913 -2.298,2.496c-0.997,0.583 -2.143,0.874 -3.441,0.874Zm0,-1.889c1.354,0 2.393,-0.447 3.116,-1.34c0.724,-0.893 1.086,-2.195 1.086,-3.905c0,-1.673 -0.367,-2.966 -1.1,-3.878c-0.733,-0.911 -1.767,-1.367 -3.102,-1.367c-1.334,0 -2.368,0.456 -3.101,1.367c-0.734,0.912 -1.1,2.205 -1.1,3.878c0,1.692 0.362,2.989 1.085,3.891c0.724,0.903 1.763,1.354 3.116,1.354Z" style="fill:#fff;fill-rule:nonzero;"/><path d="M356.256,21.678c0.339,0 0.602,0.109 0.79,0.325c0.188,0.216 0.282,0.503 0.282,0.86l0,17.793c0,0.357 -0.099,0.644 -0.296,0.86c-0.198,0.217 -0.475,0.325 -0.832,0.325c-0.357,0 -0.668,-0.16 -0.931,-0.48l-11.702,-15.65l0,14.945c0,0.357 -0.099,0.644 -0.296,0.86c-0.198,0.217 -0.466,0.325 -0.804,0.325c-0.338,0 -0.602,-0.108 -0.79,-0.325c-0.188,-0.216 -0.282,-0.503 -0.282,-0.86l0,-17.793c0,-0.357 0.099,-0.644 0.296,-0.86c0.198,-0.216 0.475,-0.325 0.832,-0.325c0.376,0 0.696,0.16 0.959,0.48l11.674,15.65l0,-14.945c0,-0.357 0.099,-0.644 0.297,-0.86c0.197,-0.216 0.465,-0.325 0.803,-0.325Z" style="fill:#fff;fill-rule:nonzero;"/><path d="M372.527,38.513c0.207,0 0.385,0.085 0.536,0.254c0.15,0.169 0.225,0.385 0.225,0.649c0,0.47 -0.329,0.902 -0.987,1.297c-0.676,0.394 -1.391,0.691 -2.143,0.888c-0.752,0.197 -1.485,0.296 -2.199,0.296c-2.125,0 -3.802,-0.63 -5.034,-1.889c-1.231,-1.26 -1.847,-2.999 -1.847,-5.217c0,-1.41 0.273,-2.655 0.818,-3.736c0.545,-1.081 1.311,-1.923 2.298,-2.524c0.987,-0.602 2.11,-0.903 3.37,-0.903c1.786,0 3.205,0.583 4.258,1.749c1.053,1.165 1.579,2.744 1.579,4.737c0,0.376 -0.075,0.649 -0.225,0.818c-0.151,0.169 -0.395,0.254 -0.734,0.254l-9.08,0c0.17,3.233 1.702,4.85 4.597,4.85c0.733,0 1.363,-0.099 1.889,-0.296c0.526,-0.198 1.09,-0.465 1.692,-0.804c0.489,-0.282 0.818,-0.423 0.987,-0.423Zm-4.935,-9.108c-1.203,0 -2.166,0.376 -2.89,1.128c-0.724,0.752 -1.152,1.814 -1.283,3.186l7.98,0c-0.038,-1.391 -0.385,-2.458 -1.043,-3.2c-0.658,-0.743 -1.579,-1.114 -2.764,-1.114Z" style="fill:#fff;fill-rule:nonzero;"/><path d="M395.368,28.418c0.188,-0.451 0.498,-0.677 0.931,-0.677c0.282,0 0.535,0.094 0.761,0.282c0.226,0.188 0.338,0.423 0.338,0.705c0,0.132 -0.028,0.273 -0.084,0.423l-4.681,11.844c-0.113,0.244 -0.277,0.437 -0.494,0.578c-0.216,0.141 -0.456,0.211 -0.719,0.211c-0.244,0 -0.474,-0.07 -0.691,-0.211c-0.216,-0.141 -0.38,-0.334 -0.493,-0.578l-3.892,-9.898l-3.863,9.898c-0.094,0.244 -0.254,0.437 -0.479,0.578c-0.226,0.141 -0.47,0.211 -0.733,0.211c-0.245,0 -0.48,-0.07 -0.705,-0.211c-0.226,-0.141 -0.395,-0.334 -0.508,-0.578l-4.681,-11.816c-0.056,-0.15 -0.085,-0.282 -0.085,-0.394c0,-0.301 0.127,-0.555 0.381,-0.762c0.254,-0.207 0.531,-0.31 0.832,-0.31c0.451,0 0.771,0.226 0.959,0.677l3.863,10.405l3.976,-10.321c0.113,-0.244 0.268,-0.432 0.465,-0.564c0.198,-0.131 0.409,-0.197 0.635,-0.197c0.244,0 0.465,0.066 0.663,0.197c0.197,0.132 0.343,0.32 0.437,0.564l3.976,10.293l3.891,-10.349Z" style="fill:#fff;fill-rule:nonzero;"/><path d="M404.702,41.897c-0.865,0 -1.687,-0.103 -2.467,-0.31c-0.781,-0.207 -1.472,-0.498 -2.073,-0.874c-0.338,-0.226 -0.578,-0.437 -0.719,-0.635c-0.141,-0.197 -0.212,-0.437 -0.212,-0.719c0,-0.244 0.071,-0.446 0.212,-0.606c0.141,-0.16 0.324,-0.24 0.55,-0.24c0.225,0 0.554,0.141 0.987,0.423c0.564,0.339 1.123,0.606 1.678,0.804c0.554,0.197 1.245,0.296 2.072,0.296c1.015,0 1.805,-0.179 2.369,-0.536c0.564,-0.357 0.846,-0.874 0.846,-1.551c0,-0.413 -0.104,-0.747 -0.31,-1.001c-0.207,-0.254 -0.564,-0.479 -1.072,-0.677c-0.508,-0.197 -1.25,-0.399 -2.228,-0.606c-1.654,-0.357 -2.838,-0.836 -3.553,-1.438c-0.714,-0.602 -1.071,-1.419 -1.071,-2.453c0,-0.809 0.225,-1.523 0.677,-2.143c0.451,-0.621 1.076,-1.11 1.875,-1.467c0.799,-0.357 1.706,-0.536 2.721,-0.536c0.733,0 1.443,0.099 2.129,0.296c0.686,0.198 1.292,0.475 1.819,0.832c0.639,0.452 0.959,0.922 0.959,1.41c0,0.245 -0.076,0.451 -0.226,0.621c-0.15,0.169 -0.329,0.253 -0.536,0.253c-0.225,0 -0.564,-0.159 -1.015,-0.479c-0.526,-0.338 -1.025,-0.601 -1.495,-0.789c-0.47,-0.188 -1.052,-0.282 -1.748,-0.282c-0.883,0 -1.593,0.197 -2.129,0.592c-0.536,0.394 -0.804,0.921 -0.804,1.579c0,0.413 0.099,0.747 0.297,1.001c0.197,0.254 0.526,0.479 0.986,0.677c0.461,0.197 1.124,0.39 1.989,0.578c1.278,0.282 2.27,0.592 2.975,0.93c0.704,0.339 1.207,0.752 1.508,1.241c0.301,0.489 0.451,1.109 0.451,1.861c0,1.185 -0.498,2.139 -1.494,2.862c-0.997,0.724 -2.313,1.086 -3.948,1.086Z" style="fill:#fff;fill-rule:nonzero;"/><path d="M414.769,41.841c-0.338,0 -0.616,-0.099 -0.832,-0.296c-0.216,-0.198 -0.324,-0.475 -0.324,-0.832l0,-17.907c0,-0.357 0.108,-0.634 0.324,-0.831c0.216,-0.198 0.494,-0.297 0.832,-0.297c0.32,0 0.587,0.099 0.804,0.297c0.216,0.197 0.324,0.474 0.324,0.831l0,17.907c0,0.357 -0.108,0.634 -0.324,0.832c-0.217,0.197 -0.484,0.296 -0.804,0.296Z" style="fill:#fff;fill-rule:nonzero;"/><path d="M430.786,38.513c0.207,0 0.385,0.085 0.536,0.254c0.15,0.169 0.225,0.385 0.225,0.649c0,0.47 -0.329,0.902 -0.987,1.297c-0.676,0.394 -1.391,0.691 -2.143,0.888c-0.752,0.197 -1.485,0.296 -2.199,0.296c-2.125,0 -3.802,-0.63 -5.034,-1.889c-1.231,-1.26 -1.847,-2.999 -1.847,-5.217c0,-1.41 0.273,-2.655 0.818,-3.736c0.545,-1.081 1.311,-1.923 2.298,-2.524c0.987,-0.602 2.11,-0.903 3.37,-0.903c1.786,0 3.205,0.583 4.258,1.749c1.053,1.165 1.579,2.744 1.579,4.737c0,0.376 -0.075,0.649 -0.225,0.818c-0.151,0.169 -0.395,0.254 -0.734,0.254l-9.08,0c0.169,3.233 1.702,4.85 4.597,4.85c0.733,0 1.363,-0.099 1.889,-0.296c0.526,-0.198 1.09,-0.465 1.692,-0.804c0.489,-0.282 0.818,-0.423 0.987,-0.423Zm-4.935,-9.108c-1.203,0 -2.166,0.376 -2.89,1.128c-0.724,0.752 -1.152,1.814 -1.283,3.186l7.98,0c-0.038,-1.391 -0.385,-2.458 -1.043,-3.2c-0.658,-0.743 -1.58,-1.114 -2.764,-1.114Z" style="fill:#fff;fill-rule:nonzero;"/><path d="M441.276,40.036c0.658,0.056 0.987,0.357 0.987,0.902c0,0.32 -0.118,0.56 -0.353,0.719c-0.235,0.16 -0.587,0.221 -1.057,0.184l-0.761,-0.057c-1.504,-0.113 -2.614,-0.564 -3.328,-1.353c-0.714,-0.79 -1.071,-1.984 -1.071,-3.582l0,-7.077l-1.89,0c-0.319,0 -0.568,-0.08 -0.747,-0.24c-0.179,-0.16 -0.268,-0.371 -0.268,-0.635c0,-0.282 0.089,-0.507 0.268,-0.676c0.179,-0.17 0.428,-0.254 0.747,-0.254l1.89,0l0,-3.187c0,-0.357 0.103,-0.634 0.31,-0.832c0.207,-0.197 0.489,-0.296 0.846,-0.296c0.338,0 0.611,0.099 0.817,0.296c0.207,0.198 0.311,0.475 0.311,0.832l0,3.187l3.13,0c0.301,0 0.54,0.084 0.719,0.254c0.178,0.169 0.268,0.394 0.268,0.676c0,0.264 -0.09,0.475 -0.268,0.635c-0.179,0.16 -0.418,0.24 -0.719,0.24l-3.13,0l0,7.19c0,1.034 0.211,1.781 0.634,2.242c0.423,0.461 1.058,0.719 1.904,0.776l0.761,0.056Z" style="fill:#fff;fill-rule:nonzero;"/><path d="M450.948,40.036c0.658,0.056 0.987,0.357 0.987,0.902c0,0.32 -0.117,0.56 -0.352,0.719c-0.235,0.16 -0.588,0.221 -1.058,0.184l-0.761,-0.057c-1.504,-0.113 -2.613,-0.564 -3.328,-1.353c-0.714,-0.79 -1.071,-1.984 -1.071,-3.582l0,-7.077l-1.89,0c-0.319,0 -0.568,-0.08 -0.747,-0.24c-0.178,-0.16 -0.268,-0.371 -0.268,-0.635c0,-0.282 0.09,-0.507 0.268,-0.676c0.179,-0.17 0.428,-0.254 0.747,-0.254l1.89,0l0,-3.187c0,-0.357 0.103,-0.634 0.31,-0.832c0.207,-0.197 0.489,-0.296 0.846,-0.296c0.338,0 0.611,0.099 0.818,0.296c0.207,0.198 0.31,0.475 0.31,0.832l0,3.187l3.13,0c0.301,0 0.54,0.084 0.719,0.254c0.179,0.169 0.268,0.394 0.268,0.676c0,0.264 -0.089,0.475 -0.268,0.635c-0.179,0.16 -0.418,0.24 -0.719,0.24l-3.13,0l0,7.19c0,1.034 0.211,1.781 0.634,2.242c0.423,0.461 1.058,0.719 1.904,0.776l0.761,0.056Z" style="fill:#fff;fill-rule:nonzero;"/><path d="M464.822,38.513c0.207,0 0.385,0.085 0.536,0.254c0.15,0.169 0.225,0.385 0.225,0.649c0,0.47 -0.329,0.902 -0.987,1.297c-0.676,0.394 -1.391,0.691 -2.143,0.888c-0.752,0.197 -1.485,0.296 -2.199,0.296c-2.125,0 -3.802,-0.63 -5.034,-1.889c-1.231,-1.26 -1.847,-2.999 -1.847,-5.217c0,-1.41 0.273,-2.655 0.818,-3.736c0.545,-1.081 1.311,-1.923 2.298,-2.524c0.987,-0.602 2.11,-0.903 3.37,-0.903c1.786,0 3.205,0.583 4.258,1.749c1.053,1.165 1.579,2.744 1.579,4.737c0,0.376 -0.075,0.649 -0.225,0.818c-0.151,0.169 -0.395,0.254 -0.734,0.254l-9.08,0c0.17,3.233 1.702,4.85 4.597,4.85c0.733,0 1.363,-0.099 1.889,-0.296c0.527,-0.198 1.091,-0.465 1.692,-0.804c0.489,-0.282 0.818,-0.423 0.987,-0.423Zm-4.935,-9.108c-1.203,0 -2.166,0.376 -2.89,1.128c-0.724,0.752 -1.152,1.814 -1.283,3.186l7.98,0c-0.038,-1.391 -0.385,-2.458 -1.043,-3.2c-0.658,-0.743 -1.579,-1.114 -2.764,-1.114Z" style="fill:#fff;fill-rule:nonzero;"/><path d="M475.848,27.685c0.789,-0.057 1.184,0.263 1.184,0.959c0,0.3 -0.084,0.54 -0.254,0.719c-0.169,0.178 -0.46,0.286 -0.874,0.324l-0.846,0.085c-1.259,0.112 -2.195,0.559 -2.806,1.339c-0.611,0.78 -0.916,1.697 -0.916,2.749l0,6.853c0,0.376 -0.103,0.658 -0.31,0.846c-0.207,0.188 -0.48,0.282 -0.818,0.282c-0.338,0 -0.616,-0.099 -0.832,-0.296c-0.216,-0.198 -0.324,-0.475 -0.324,-0.832l0,-11.9c0,-0.357 0.113,-0.635 0.338,-0.832c0.226,-0.198 0.498,-0.296 0.818,-0.296c0.301,0 0.555,0.098 0.761,0.296c0.207,0.197 0.311,0.465 0.311,0.804l0,1.579c0.394,-0.827 0.954,-1.457 1.677,-1.89c0.724,-0.432 1.556,-0.686 2.496,-0.761l0.395,-0.028Z" style="fill:#fff;fill-rule:nonzero;"/><path d="M484.505,27.628c3.44,0 5.16,1.805 5.16,5.415l0,7.67c0,0.338 -0.098,0.611 -0.296,0.817c-0.197,0.207 -0.465,0.311 -0.803,0.311c-0.339,0 -0.611,-0.104 -0.818,-0.311c-0.207,-0.206 -0.31,-0.479 -0.31,-0.817l0,-1.354c-0.358,0.809 -0.903,1.434 -1.636,1.875c-0.733,0.442 -1.579,0.663 -2.538,0.663c-0.883,0 -1.697,-0.179 -2.439,-0.536c-0.743,-0.357 -1.33,-0.855 -1.763,-1.494c-0.432,-0.639 -0.648,-1.344 -0.648,-2.115c0,-1.034 0.263,-1.838 0.789,-2.411c0.527,-0.574 1.392,-0.987 2.595,-1.241c1.203,-0.254 2.876,-0.381 5.019,-0.381l0.621,0l0,-0.93c0,-1.128 -0.231,-1.955 -0.691,-2.482c-0.461,-0.526 -1.208,-0.789 -2.242,-0.789c-1.278,0 -2.576,0.348 -3.892,1.043c-0.507,0.32 -0.864,0.479 -1.071,0.479c-0.226,0 -0.414,-0.084 -0.564,-0.253c-0.15,-0.17 -0.226,-0.386 -0.226,-0.649c0,-0.263 0.08,-0.493 0.24,-0.691c0.16,-0.197 0.418,-0.399 0.775,-0.606c0.658,-0.376 1.406,-0.672 2.242,-0.888c0.837,-0.217 1.669,-0.325 2.496,-0.325Zm-0.931,12.464c1.128,0 2.054,-0.38 2.778,-1.142c0.724,-0.761 1.086,-1.743 1.086,-2.947l0,-0.817l-0.508,0c-1.654,0 -2.914,0.07 -3.779,0.211c-0.864,0.141 -1.48,0.376 -1.847,0.705c-0.366,0.329 -0.55,0.813 -0.55,1.452c0,0.734 0.268,1.34 0.804,1.819c0.536,0.48 1.208,0.719 2.016,0.719Z" style="fill:#fff;fill-rule:nonzero;"/><path d="M502.27,41.841c-0.338,0 -0.615,-0.099 -0.832,-0.296c-0.216,-0.198 -0.324,-0.475 -0.324,-0.832l0,-11.9c0,-0.357 0.108,-0.635 0.324,-0.832c0.217,-0.198 0.494,-0.296 0.832,-0.296c0.339,0 0.611,0.098 0.818,0.296c0.207,0.197 0.31,0.475 0.31,0.832l0,11.9c0,0.376 -0.103,0.658 -0.31,0.846c-0.207,0.188 -0.479,0.282 -0.818,0.282Zm0,-17.117c-0.451,0 -0.818,-0.132 -1.1,-0.395c-0.282,-0.263 -0.423,-0.611 -0.423,-1.043c0,-0.414 0.141,-0.752 0.423,-1.015c0.282,-0.264 0.649,-0.395 1.1,-0.395c0.451,0 0.818,0.131 1.1,0.395c0.282,0.263 0.423,0.601 0.423,1.015c0,0.432 -0.141,0.78 -0.423,1.043c-0.282,0.263 -0.649,0.395 -1.1,0.395Z" style="fill:#fff;fill-rule:nonzero;"/><path d="M525.027,39.895c0.319,0 0.564,0.08 0.733,0.24c0.169,0.159 0.254,0.38 0.254,0.662c0,0.282 -0.085,0.503 -0.254,0.663c-0.169,0.16 -0.414,0.24 -0.733,0.24l-9.87,0c-0.319,0 -0.583,-0.099 -0.789,-0.296c-0.207,-0.198 -0.311,-0.438 -0.311,-0.72c0,-0.3 0.113,-0.592 0.339,-0.874l8.347,-10.038l-7.727,0c-0.319,0 -0.569,-0.08 -0.747,-0.24c-0.179,-0.16 -0.268,-0.371 -0.268,-0.635c0,-0.282 0.089,-0.507 0.268,-0.676c0.178,-0.17 0.428,-0.254 0.747,-0.254l9.56,0c0.338,0 0.611,0.098 0.817,0.296c0.207,0.197 0.311,0.437 0.311,0.719c0,0.301 -0.113,0.592 -0.339,0.874l-8.375,10.039l8.037,0Z" style="fill:#fff;fill-rule:nonzero;"/><path d="M538.844,28.39c0.207,-0.451 0.536,-0.677 0.987,-0.677c0.282,0 0.536,0.094 0.762,0.282c0.225,0.188 0.338,0.423 0.338,0.705c0,0.169 -0.038,0.32 -0.113,0.451l-7.924,17.089c-0.094,0.206 -0.23,0.366 -0.409,0.479c-0.178,0.113 -0.362,0.169 -0.55,0.169c-0.282,0 -0.531,-0.089 -0.747,-0.268c-0.216,-0.178 -0.324,-0.409 -0.324,-0.691c0,-0.15 0.038,-0.3 0.113,-0.451l1.974,-4.258l-5.584,-12.069c-0.075,-0.131 -0.113,-0.272 -0.113,-0.423c0,-0.282 0.127,-0.526 0.381,-0.733c0.254,-0.207 0.531,-0.31 0.832,-0.31c0.188,0 0.371,0.056 0.55,0.169c0.178,0.113 0.315,0.273 0.409,0.479l4.709,10.575l4.709,-10.518Z" style="fill:#fff;fill-rule:nonzero;"/><path d="M547.811,41.897c-0.864,0 -1.687,-0.103 -2.467,-0.31c-0.78,-0.207 -1.471,-0.498 -2.073,-0.874c-0.338,-0.226 -0.578,-0.437 -0.719,-0.635c-0.141,-0.197 -0.211,-0.437 -0.211,-0.719c0,-0.244 0.07,-0.446 0.211,-0.606c0.141,-0.16 0.325,-0.24 0.55,-0.24c0.226,0 0.555,0.141 0.987,0.423c0.564,0.339 1.123,0.606 1.678,0.804c0.555,0.197 1.245,0.296 2.073,0.296c1.015,0 1.804,-0.179 2.368,-0.536c0.564,-0.357 0.846,-0.874 0.846,-1.551c0,-0.413 -0.103,-0.747 -0.31,-1.001c-0.207,-0.254 -0.564,-0.479 -1.071,-0.677c-0.508,-0.197 -1.251,-0.399 -2.228,-0.606c-1.654,-0.357 -2.839,-0.836 -3.553,-1.438c-0.715,-0.602 -1.072,-1.419 -1.072,-2.453c0,-0.809 0.226,-1.523 0.677,-2.143c0.451,-0.621 1.076,-1.11 1.875,-1.467c0.799,-0.357 1.706,-0.536 2.721,-0.536c0.734,0 1.443,0.099 2.129,0.296c0.687,0.198 1.293,0.475 1.819,0.832c0.639,0.452 0.959,0.922 0.959,1.41c0,0.245 -0.075,0.451 -0.226,0.621c-0.15,0.169 -0.329,0.253 -0.535,0.253c-0.226,0 -0.564,-0.159 -1.015,-0.479c-0.527,-0.338 -1.025,-0.601 -1.495,-0.789c-0.47,-0.188 -1.053,-0.282 -1.748,-0.282c-0.884,0 -1.594,0.197 -2.129,0.592c-0.536,0.394 -0.804,0.921 -0.804,1.579c0,0.413 0.099,0.747 0.296,1.001c0.197,0.254 0.526,0.479 0.987,0.677c0.461,0.197 1.123,0.39 1.988,0.578c1.278,0.282 2.27,0.592 2.975,0.93c0.705,0.339 1.208,0.752 1.509,1.241c0.3,0.489 0.451,1.109 0.451,1.861c0,1.185 -0.498,2.139 -1.495,2.862c-0.996,0.724 -2.312,1.086 -3.948,1.086Z" style="fill:#fff;fill-rule:nonzero;"/><path d="M567.692,39.895c0.3,0.282 0.451,0.583 0.451,0.902c0,0.282 -0.099,0.527 -0.296,0.733c-0.198,0.207 -0.437,0.311 -0.719,0.311c-0.245,0 -0.498,-0.113 -0.762,-0.339l-7.36,-6.344l0,5.555c0,0.357 -0.108,0.634 -0.324,0.832c-0.216,0.197 -0.484,0.296 -0.804,0.296c-0.338,0 -0.615,-0.099 -0.831,-0.296c-0.217,-0.198 -0.325,-0.475 -0.325,-0.832l0,-17.907c0,-0.357 0.108,-0.634 0.325,-0.831c0.216,-0.198 0.493,-0.297 0.831,-0.297c0.32,0 0.588,0.099 0.804,0.297c0.216,0.197 0.324,0.474 0.324,0.831l0,11.449l6.74,-6.175c0.226,-0.226 0.479,-0.339 0.761,-0.339c0.282,0 0.527,0.104 0.734,0.31c0.206,0.207 0.31,0.452 0.31,0.734c0,0.319 -0.132,0.601 -0.395,0.846l-5.555,4.963l6.091,5.301Z" style="fill:#fff;fill-rule:nonzero;"/><path d="M576.321,27.628c3.44,0 5.16,1.805 5.16,5.415l0,7.67c0,0.338 -0.099,0.611 -0.296,0.817c-0.198,0.207 -0.465,0.311 -0.804,0.311c-0.338,0 -0.611,-0.104 -0.818,-0.311c-0.206,-0.206 -0.31,-0.479 -0.31,-0.817l0,-1.354c-0.357,0.809 -0.902,1.434 -1.635,1.875c-0.733,0.442 -1.579,0.663 -2.538,0.663c-0.884,0 -1.697,-0.179 -2.439,-0.536c-0.743,-0.357 -1.33,-0.855 -1.763,-1.494c-0.432,-0.639 -0.648,-1.344 -0.648,-2.115c0,-1.034 0.263,-1.838 0.789,-2.411c0.527,-0.574 1.391,-0.987 2.594,-1.241c1.204,-0.254 2.877,-0.381 5.02,-0.381l0.62,0l0,-0.93c0,-1.128 -0.23,-1.955 -0.691,-2.482c-0.46,-0.526 -1.207,-0.789 -2.241,-0.789c-1.279,0 -2.576,0.348 -3.892,1.043c-0.507,0.32 -0.865,0.479 -1.071,0.479c-0.226,0 -0.414,-0.084 -0.564,-0.253c-0.151,-0.17 -0.226,-0.386 -0.226,-0.649c0,-0.263 0.08,-0.493 0.24,-0.691c0.159,-0.197 0.418,-0.399 0.775,-0.606c0.658,-0.376 1.405,-0.672 2.242,-0.888c0.837,-0.217 1.668,-0.325 2.496,-0.325Zm-0.931,12.464c1.128,0 2.054,-0.38 2.778,-1.142c0.723,-0.761 1.085,-1.743 1.085,-2.947l0,-0.817l-0.507,0c-1.655,0 -2.914,0.07 -3.779,0.211c-0.865,0.141 -1.48,0.376 -1.847,0.705c-0.367,0.329 -0.55,0.813 -0.55,1.452c0,0.734 0.268,1.34 0.804,1.819c0.536,0.48 1.208,0.719 2.016,0.719Z" style="fill:#fff;fill-rule:nonzero;"/><path d="M582.806,46.832c-0.47,0.037 -0.822,-0.024 -1.057,-0.183c-0.235,-0.16 -0.353,-0.4 -0.353,-0.72c0,-0.507 0.329,-0.798 0.987,-0.874l0.79,-0.056c0.846,-0.056 1.471,-0.31 1.875,-0.761c0.404,-0.452 0.606,-1.194 0.606,-2.228l0,-13.197c0,-0.357 0.109,-0.635 0.325,-0.832c0.216,-0.198 0.493,-0.296 0.832,-0.296c0.338,0 0.611,0.098 0.817,0.296c0.207,0.197 0.311,0.475 0.311,0.832l0,13.056c0,1.579 -0.353,2.763 -1.058,3.553c-0.705,0.789 -1.8,1.241 -3.285,1.353l-0.79,0.057Zm4.005,-22.108c-0.452,0 -0.818,-0.132 -1.1,-0.395c-0.282,-0.263 -0.423,-0.611 -0.423,-1.043c0,-0.414 0.141,-0.752 0.423,-1.015c0.282,-0.264 0.648,-0.395 1.1,-0.395c0.451,0 0.817,0.131 1.099,0.395c0.282,0.263 0.423,0.601 0.423,1.015c0,0.432 -0.141,0.78 -0.423,1.043c-0.282,0.263 -0.648,0.395 -1.099,0.395Z" style="fill:#fff;fill-rule:nonzero;"/><path d="M68.665,88.513l2.783,0c1.119,0 2.046,-0.155 2.782,-0.464c0.737,-0.309 1.37,-0.802 1.9,-1.48l17.623,-22.305c0.736,-0.942 1.509,-1.597 2.319,-1.965c0.81,-0.368 1.833,-0.553 3.07,-0.553l10.247,0l-21.51,26.546c-1.267,1.62 -2.577,2.768 -3.931,3.445c0.971,0.354 1.847,0.847 2.628,1.48c0.78,0.633 1.523,1.465 2.23,2.495l22.173,29.903l-10.468,0c-1.413,0 -2.466,-0.199 -3.158,-0.596c-0.692,-0.398 -1.274,-0.979 -1.745,-1.745l-18.065,-23.586c-0.559,-0.795 -1.207,-1.355 -1.943,-1.679c-0.736,-0.324 -1.797,-0.486 -3.181,-0.486l-3.754,0l0,28.092l-11.881,0l0,-63.869l11.881,0l0,26.767Z" style="fill:#fff;fill-rule:nonzero;"/><path d="M143.046,116.03c2.297,0 4.35,-0.383 6.161,-1.148c1.811,-0.766 3.335,-1.841 4.572,-3.225c1.237,-1.384 2.186,-3.062 2.849,-5.035c0.662,-1.973 0.994,-4.181 0.994,-6.625l0,-38.251l11.881,0l0,38.251c0,3.798 -0.611,7.31 -1.833,10.534c-1.222,3.224 -2.974,6.007 -5.256,8.348c-2.282,2.341 -5.057,4.167 -8.326,5.477c-3.269,1.31 -6.949,1.966 -11.042,1.966c-4.123,0 -7.818,-0.656 -11.087,-1.966c-3.268,-1.31 -6.043,-3.136 -8.326,-5.477c-2.282,-2.341 -4.034,-5.124 -5.256,-8.348c-1.222,-3.224 -1.833,-6.736 -1.833,-10.534l0,-38.251l11.882,0l0,38.207c0,2.444 0.331,4.652 0.994,6.625c0.662,1.973 1.619,3.659 2.871,5.057c1.251,1.399 2.782,2.481 4.593,3.247c1.811,0.765 3.865,1.148 6.162,1.148Z" style="fill:#fff;fill-rule:nonzero;"/><path d="M203.69,93.857c2.179,0 4.078,-0.272 5.698,-0.817c1.619,-0.545 2.966,-1.325 4.041,-2.341c1.075,-1.016 1.877,-2.252 2.407,-3.71c0.53,-1.458 0.795,-3.084 0.795,-4.881c0,-1.707 -0.265,-3.253 -0.795,-4.637c-0.53,-1.384 -1.325,-2.562 -2.385,-3.534c-1.06,-0.972 -2.4,-1.715 -4.019,-2.23c-1.62,-0.516 -3.534,-0.773 -5.742,-0.773l-8.878,0l0,22.923l8.878,0Zm0,-32.111c4.269,0 7.965,0.501 11.086,1.502c3.122,1.001 5.698,2.4 7.73,4.196c2.032,1.796 3.541,3.946 4.527,6.449c0.987,2.503 1.48,5.241 1.48,8.215c0,3.092 -0.516,5.926 -1.546,8.503c-1.031,2.576 -2.577,4.792 -4.638,6.647c-2.061,1.855 -4.645,3.298 -7.752,4.329c-3.106,1.031 -6.735,1.546 -10.887,1.546l-8.878,0l0,22.482l-11.882,0l0,-63.869l20.76,0Z" style="fill:#fff;fill-rule:nonzero;"/><path d="M298.521,93.681c0,4.682 -0.773,9.018 -2.319,13.007c-1.546,3.99 -3.732,7.443 -6.559,10.358c-2.827,2.915 -6.228,5.19 -10.203,6.824c-3.976,1.634 -8.392,2.452 -13.251,2.452c-4.829,0 -9.231,-0.818 -13.207,-2.452c-3.975,-1.634 -7.383,-3.909 -10.225,-6.824c-2.841,-2.915 -5.042,-6.368 -6.603,-10.358c-1.561,-3.989 -2.341,-8.325 -2.341,-13.007c0,-4.682 0.78,-9.018 2.341,-13.008c1.561,-3.99 3.762,-7.443 6.603,-10.358c2.842,-2.915 6.25,-5.19 10.225,-6.824c3.976,-1.634 8.378,-2.451 13.207,-2.451c3.239,0 6.287,0.375 9.143,1.126c2.856,0.751 5.477,1.811 7.862,3.18c2.385,1.369 4.527,3.033 6.427,4.991c1.899,1.959 3.511,4.145 4.836,6.559c1.325,2.415 2.334,5.036 3.026,7.863c0.692,2.826 1.038,5.8 1.038,8.922Zm-12.147,0c0,-3.504 -0.471,-6.648 -1.413,-9.43c-0.942,-2.783 -2.282,-5.146 -4.02,-7.09c-1.737,-1.943 -3.85,-3.43 -6.338,-4.461c-2.488,-1.03 -5.293,-1.546 -8.414,-1.546c-3.121,0 -5.926,0.516 -8.414,1.546c-2.488,1.031 -4.609,2.518 -6.361,4.461c-1.752,1.944 -3.099,4.307 -4.041,7.09c-0.942,2.782 -1.413,5.926 -1.413,9.43c0,3.504 0.471,6.647 1.413,9.43c0.942,2.782 2.289,5.138 4.041,7.067c1.752,1.929 3.873,3.408 6.361,4.439c2.488,1.03 5.293,1.546 8.414,1.546c3.121,0 5.926,-0.516 8.414,-1.546c2.488,-1.031 4.601,-2.51 6.338,-4.439c1.738,-1.929 3.078,-4.285 4.02,-7.067c0.942,-2.783 1.413,-5.926 1.413,-9.43Z" style="fill:#fff;fill-rule:nonzero;"/><path d="M362.831,61.746l0,63.869l-6.096,0c-0.942,0 -1.73,-0.155 -2.363,-0.464c-0.633,-0.309 -1.244,-0.832 -1.833,-1.568l-33.347,-42.579c0.176,1.944 0.265,3.74 0.265,5.389l0,39.222l-10.468,0l0,-63.869l6.228,0c0.5,0 0.934,0.023 1.303,0.067c0.368,0.044 0.692,0.132 0.971,0.265c0.28,0.132 0.552,0.324 0.817,0.574c0.265,0.25 0.56,0.581 0.884,0.994l33.48,42.755c-0.088,-1.03 -0.162,-2.046 -0.221,-3.047c-0.059,-1.001 -0.088,-1.929 -0.088,-2.783l0,-38.825l10.468,0Z" style="fill:#fff;fill-rule:nonzero;"/><path d="M437.123,117.444l0,8.171l-35.335,0l0,-8.171l12.941,0l0,-37.235c0,-1.472 0.045,-2.989 0.133,-4.549l-9.187,7.685c-0.53,0.412 -1.053,0.67 -1.568,0.773c-0.516,0.103 -1.001,0.111 -1.458,0.022c-0.456,-0.088 -0.861,-0.243 -1.215,-0.464c-0.353,-0.22 -0.618,-0.463 -0.795,-0.728l-3.445,-4.726l19.479,-16.564l8.966,0l0,55.786l11.484,0Z" style="fill:#fff;fill-rule:nonzero;"/><path d="M491.672,93.681c0,5.565 -0.597,10.401 -1.789,14.509c-1.193,4.108 -2.842,7.502 -4.947,10.181c-2.105,2.68 -4.594,4.675 -7.465,5.985c-2.871,1.31 -5.97,1.966 -9.297,1.966c-3.328,0 -6.412,-0.656 -9.254,-1.966c-2.841,-1.31 -5.307,-3.305 -7.398,-5.985c-2.091,-2.679 -3.725,-6.073 -4.903,-10.181c-1.177,-4.108 -1.766,-8.944 -1.766,-14.509c0,-5.595 0.589,-10.439 1.766,-14.532c1.178,-4.093 2.812,-7.479 4.903,-10.159c2.091,-2.679 4.557,-4.674 7.398,-5.985c2.842,-1.31 5.926,-1.965 9.254,-1.965c3.327,0 6.426,0.655 9.297,1.965c2.871,1.311 5.36,3.306 7.465,5.985c2.105,2.68 3.754,6.066 4.947,10.159c1.192,4.093 1.789,8.937 1.789,14.532Zm-11.263,0c0,-4.623 -0.339,-8.451 -1.016,-11.484c-0.677,-3.033 -1.583,-5.448 -2.717,-7.244c-1.133,-1.796 -2.436,-3.055 -3.909,-3.776c-1.472,-0.722 -3.003,-1.083 -4.593,-1.083c-1.561,0 -3.07,0.361 -4.527,1.083c-1.458,0.721 -2.746,1.98 -3.865,3.776c-1.119,1.796 -2.01,4.211 -2.672,7.244c-0.663,3.033 -0.994,6.861 -0.994,11.484c0,4.623 0.331,8.451 0.994,11.484c0.662,3.033 1.553,5.447 2.672,7.243c1.119,1.797 2.407,3.055 3.865,3.777c1.457,0.721 2.966,1.082 4.527,1.082c1.59,0 3.121,-0.361 4.593,-1.082c1.473,-0.722 2.776,-1.98 3.909,-3.777c1.134,-1.796 2.04,-4.21 2.717,-7.243c0.677,-3.033 1.016,-6.861 1.016,-11.484Z" style="fill:#fff;fill-rule:nonzero;"/><path d="M544.984,66.119c0,1.355 -0.383,2.591 -1.149,3.71l-32.773,46.29l33.171,0l0,9.496l-48.586,0l0,-4.682c0,-0.589 0.103,-1.156 0.309,-1.701c0.206,-0.544 0.471,-1.052 0.795,-1.523l32.862,-46.51l-31.89,0l0,-9.453l47.261,0l0,4.373Z" style="fill:#fff;fill-rule:nonzero;"/><path d="M593.216,115.809l0,9.806l-37.411,0l0,-23.277l-7.95,3.975l0,-8.215c0,-1.002 0.441,-1.708 1.325,-2.121l6.625,-3.445l0,-30.786l11.882,0l0,25.442l15.812,-7.906l0,7.994c0,1.207 -0.5,2.002 -1.502,2.385l-14.31,7.421l0,18.727l25.529,0Z" style="fill:#fff;fill-rule:nonzero;"/></svg>