<?xml version="1.0" encoding="UTF-8" standalone="no"?><!DOCTYPE svg PUBLIC "-//W3C//DTD SVG 1.1//EN" "http://www.w3.org/Graphics/SVG/1.1/DTD/svg11.dtd"><svg width="100%" height="100%" viewBox="0 0 120 40" version="1.1" xmlns="http://www.w3.org/2000/svg" xmlns:xlink="http://www.w3.org/1999/xlink" xml:space="preserve" xmlns:serif="http://www.serif.com/" style="fill-rule:evenodd;clip-rule:evenodd;stroke-linejoin:round;stroke-miterlimit:1.41421;"><g><path d="M9.796,13.408c-1.538,0 -2.225,0.686 -2.225,2.224l0,9.882c0,0.595 0.191,0.786 0.785,0.786l0.195,0c0.594,0 0.784,-0.191 0.784,-0.786l0,-3.844l3.339,0c2.965,0 4.345,-1.313 4.345,-4.131c0,-2.818 -1.38,-4.131 -4.345,-4.131l-2.878,0Zm-0.461,2.459c0,-0.577 0.215,-0.792 0.791,-0.792l2.548,0c1.635,0 2.581,0.404 2.581,2.464c0,1.61 -0.411,2.483 -2.581,2.483l-3.339,0l0,-4.155Zm36.311,-2.456c-1.204,0 -1.651,0.198 -1.651,1.293l0,2.566c0,0.006 -0.001,0.011 -0.001,0.017l0,0.562c-0.001,0.02 -0.002,0.038 -0.002,0.057l0,3.585c0,0.438 -0.084,0.787 -0.258,1.057c-0.328,0.506 -0.978,0.735 -2.018,0.736c-1.039,-0.001 -1.688,-0.229 -2.017,-0.735c-0.173,-0.271 -0.258,-0.619 -0.258,-1.058l0,-3.585c0,-0.019 -0.002,-0.037 -0.002,-0.057l0,-0.562c0,-0.006 -0.001,-0.011 -0.001,-0.017l0,-2.566c0,-1.095 -0.448,-1.293 -1.651,-1.293l-0.378,0c-1.204,0 -1.652,0.198 -1.652,1.293l0,6.787c0,1.092 0.247,2.015 0.721,2.761c0.92,1.443 2.699,2.213 5.228,2.213l0.02,0c2.529,0 4.309,-0.77 5.228,-2.213c0.475,-0.746 0.721,-1.669 0.721,-2.761l0,-6.787c0,-1.095 -0.447,-1.293 -1.651,-1.293l-0.378,0Zm-27.045,3.028c-0.481,0.104 -0.681,0.237 -0.681,0.783l0,0.155c0,0.214 0.031,0.362 0.099,0.467c0.079,0.121 0.207,0.182 0.379,0.182c0.084,0 0.182,-0.014 0.298,-0.043c0.273,-0.069 1.15,-0.21 2.109,-0.21c1.722,0 2.425,0.476 2.425,1.646l0,1.044l-2.172,0c-2.791,0 -4.091,0.942 -4.091,2.964c0,1.961 1.342,3.041 3.78,3.041c2.897,0 4.189,-0.987 4.189,-3.197l0,-3.852c0,-2.138 -1.377,-3.177 -4.209,-3.177c-1.141,0 -1.855,0.144 -2.126,0.197Zm0.071,6.988c0,-1.129 0.675,-1.569 2.405,-1.569l2.153,0l0,1.355c0,1.104 -0.41,1.744 -2.503,1.744c-1.383,0 -2.055,-0.501 -2.055,-1.53Zm15.049,-6.901c-0.581,0 -0.809,0.18 -0.938,0.737l-1.613,6.71c-0.202,0.827 -0.484,0.976 -0.97,0.976c-0.593,0 -0.831,-0.142 -1.067,-0.978l-1.828,-6.711c-0.152,-0.562 -0.374,-0.734 -0.956,-0.734l-0.156,0c-0.234,0 -0.468,0.022 -0.588,0.179c-0.12,0.156 -0.08,0.39 -0.017,0.62l1.847,6.769c0.347,1.295 0.759,2.366 2.299,2.366c0.287,0 0.552,-0.039 0.775,-0.112c-0.467,1.467 -0.943,2.115 -2.345,2.259c-0.283,0.023 -0.468,0.065 -0.571,0.203c-0.106,0.142 -0.083,0.347 -0.044,0.531l0.038,0.173c0.084,0.402 0.226,0.651 0.677,0.651c0.048,0 0.098,-0.004 0.153,-0.008c2.092,-0.137 3.212,-1.264 3.869,-3.887l2.237,-8.95c0.053,-0.23 0.085,-0.464 -0.039,-0.617c-0.122,-0.155 -0.355,-0.177 -0.588,-0.177l-0.175,0Z" style="fill:#fff;fill-rule:nonzero;"/><path d="M51.929,12.514l-1.98,0c-0.215,0 -0.391,-0.175 -0.391,-0.392l0.002,-2.002c0,-0.218 0.174,-0.392 0.39,-0.392l1.979,0c0.217,0.001 0.392,0.176 0.392,0.392l-0.001,2.004c-0.001,0.215 -0.175,0.39 -0.391,0.39" style="fill:#fff;fill-rule:nonzero;"/><path d="M49.031,16.264l-2.664,0c-0.289,0 -0.526,-0.236 -0.526,-0.527l0.002,-2.695c0,-0.292 0.235,-0.528 0.525,-0.528l2.663,0.001c0.292,0.001 0.527,0.236 0.527,0.527l0,2.697c-0.002,0.29 -0.236,0.525 -0.527,0.525" style="fill:#fff;fill-rule:nonzero;"/><path d="M49.291,9.728l-1.344,0c-0.147,0 -0.267,-0.118 -0.267,-0.265l0.002,-1.362c0,-0.146 0.118,-0.266 0.265,-0.266l1.344,0.001c0.147,0 0.266,0.119 0.266,0.266l0,1.361c0,0.147 -0.119,0.265 -0.266,0.265" style="fill:#fff;fill-rule:nonzero;"/><path d="M58.688,19.841l0,-0.216c0,-0.288 0.051,-0.482 0.152,-0.579c0.1,-0.097 0.295,-0.146 0.585,-0.146l2.783,0l0,-2.72c0,-0.32 0.052,-0.532 0.155,-0.635c0.103,-0.104 0.314,-0.155 0.632,-0.155l0.234,0c0.319,0 0.53,0.051 0.632,0.155c0.103,0.103 0.155,0.315 0.155,0.635l0,2.72l2.784,0c0.289,0 0.483,0.049 0.581,0.146c0.097,0.097 0.145,0.291 0.145,0.579l0,0.216c0,0.289 -0.048,0.484 -0.145,0.584c-0.098,0.1 -0.292,0.15 -0.581,0.15l-2.784,0l0,2.692c0,0.321 -0.052,0.532 -0.155,0.636c-0.102,0.103 -0.313,0.155 -0.632,0.155l-0.234,0c-0.318,0 -0.529,-0.052 -0.632,-0.155c-0.103,-0.104 -0.155,-0.315 -0.155,-0.636l0,-2.692l-2.783,0c-0.29,0 -0.485,-0.05 -0.585,-0.15c-0.101,-0.1 -0.152,-0.295 -0.152,-0.584Z" style="fill:#fff;fill-rule:nonzero;"/><path d="M74.651,25.028l0,-9.451c0,-0.771 0.173,-1.33 0.518,-1.675c0.346,-0.345 0.904,-0.517 1.676,-0.517l3.049,0c1.488,0 2.553,0.331 3.196,0.993c0.643,0.662 0.965,1.62 0.965,2.875c0,1.023 -0.211,1.847 -0.631,2.471c-0.42,0.624 -1.11,1.037 -2.071,1.238l2.664,4.103c0.169,0.264 0.254,0.459 0.254,0.584c0,0.037 -0.006,0.069 -0.019,0.094c-0.062,0.113 -0.295,0.17 -0.696,0.17l-0.329,0c-0.409,0 -0.714,-0.057 -0.918,-0.17c-0.204,-0.113 -0.413,-0.339 -0.626,-0.678l-2.523,-3.953l-2.484,0l0,3.916c0,0.358 -0.06,0.594 -0.18,0.71c-0.119,0.116 -0.357,0.175 -0.715,0.175l-0.244,0c-0.358,0 -0.595,-0.059 -0.711,-0.175c-0.116,-0.116 -0.175,-0.352 -0.175,-0.71Zm2.025,-5.826l3.218,0c0.804,0 1.361,-0.162 1.671,-0.485c0.311,-0.324 0.466,-0.811 0.466,-1.464c0,-0.684 -0.154,-1.181 -0.461,-1.491c-0.308,-0.311 -0.866,-0.467 -1.676,-0.467l-2.475,0c-0.263,0 -0.453,0.057 -0.57,0.17c-0.115,0.112 -0.173,0.298 -0.173,0.555l0,3.182Z" style="fill:#fff;fill-rule:nonzero;"/><path d="M85.721,23.159c0,-0.527 0.09,-0.981 0.273,-1.362c0.182,-0.38 0.446,-0.682 0.795,-0.905c0.348,-0.223 0.757,-0.387 1.228,-0.49c0.471,-0.104 1.017,-0.156 1.638,-0.156l2.127,0l0,-0.949c0,-0.562 -0.191,-0.949 -0.574,-1.161c-0.383,-0.212 -0.95,-0.318 -1.704,-0.318c-0.772,0 -1.446,0.057 -2.023,0.171c-0.283,0.057 -0.472,0.042 -0.57,-0.045c-0.097,-0.087 -0.146,-0.275 -0.146,-0.561l0,-0.27c0,-0.28 0.049,-0.475 0.146,-0.583c0.098,-0.109 0.281,-0.189 0.551,-0.239c0.59,-0.099 1.233,-0.149 1.929,-0.149c0.677,0 1.27,0.054 1.781,0.161c0.509,0.106 0.962,0.279 1.356,0.517c0.395,0.239 0.694,0.565 0.898,0.979c0.203,0.415 0.305,0.916 0.305,1.506l0,3.737c0,1.06 -0.327,1.84 -0.982,2.339c-0.654,0.499 -1.692,0.748 -3.113,0.748c-2.61,0 -3.915,-0.99 -3.915,-2.97Zm1.985,-0.037c0,0.277 0.051,0.507 0.151,0.689c0.101,0.183 0.246,0.318 0.438,0.407c0.191,0.087 0.387,0.149 0.588,0.184c0.201,0.034 0.439,0.051 0.716,0.051c0.276,0 0.512,-0.009 0.71,-0.028c0.198,-0.019 0.396,-0.06 0.593,-0.122c0.198,-0.063 0.356,-0.148 0.475,-0.255c0.119,-0.107 0.217,-0.252 0.292,-0.435c0.076,-0.183 0.113,-0.403 0.113,-0.661l0,-1.2l-2.127,0c-0.665,0 -1.156,0.107 -1.473,0.321c-0.317,0.215 -0.476,0.564 -0.476,1.049Z" style="fill:#fff;fill-rule:nonzero;"/><path d="M94.879,17.52l0,-0.187c0,-0.268 0.043,-0.455 0.13,-0.557c0.087,-0.103 0.257,-0.18 0.512,-0.23l1.014,-0.197l0.229,-1.813c0.037,-0.277 0.11,-0.463 0.218,-0.558c0.108,-0.094 0.301,-0.141 0.58,-0.141l0.256,0c0.279,0 0.466,0.047 0.561,0.141c0.095,0.095 0.143,0.281 0.143,0.558l0,1.813l2.677,0c0.324,0 0.54,0.054 0.646,0.159c0.106,0.107 0.159,0.322 0.159,0.647l0,0.234c0,0.331 -0.053,0.548 -0.159,0.651c-0.106,0.103 -0.322,0.154 -0.646,0.154l-2.677,0l0,4.384c0,0.603 0.128,1.033 0.385,1.291c0.258,0.258 0.628,0.387 1.111,0.387c0.546,0 1.067,-0.06 1.562,-0.179c0.132,-0.025 0.245,-0.038 0.339,-0.038c0.132,0.007 0.229,0.035 0.292,0.085c0.1,0.088 0.154,0.299 0.16,0.631l0,0.235c0,0.326 -0.052,0.551 -0.155,0.673c-0.104,0.123 -0.316,0.218 -0.636,0.287c-0.52,0.1 -1.041,0.15 -1.562,0.15c-0.521,0 -0.986,-0.059 -1.396,-0.178c-0.409,-0.12 -0.774,-0.313 -1.094,-0.58c-0.32,-0.267 -0.565,-0.635 -0.736,-1.102c-0.171,-0.469 -0.257,-1.029 -0.257,-1.682l0,-4.364l-0.995,0c-0.267,0 -0.444,-0.045 -0.531,-0.135c-0.087,-0.091 -0.13,-0.27 -0.13,-0.539Z" style="fill:#fff;fill-rule:nonzero;"/><path d="M103.416,17.215c-0.044,-0.175 -0.066,-0.321 -0.066,-0.437c0,-0.116 0.022,-0.202 0.066,-0.259c0.087,-0.113 0.308,-0.17 0.663,-0.17l0.252,0c0.355,0 0.605,0.059 0.751,0.175c0.146,0.117 0.26,0.349 0.341,0.696l1.525,6.211c0.088,0.39 0.207,0.646 0.356,0.77c0.148,0.124 0.378,0.187 0.688,0.187c0.24,0 0.43,-0.064 0.569,-0.193c0.139,-0.127 0.254,-0.384 0.342,-0.767l1.45,-6.213c0.075,-0.345 0.185,-0.575 0.33,-0.692c0.144,-0.115 0.397,-0.174 0.755,-0.174l0.246,0c0.358,0 0.584,0.057 0.679,0.17c0.044,0.057 0.066,0.145 0.066,0.264c0,0.113 -0.022,0.258 -0.066,0.434l-2.077,8.697c-0.327,1.33 -0.823,2.339 -1.486,3.029c-0.664,0.69 -1.549,1.095 -2.656,1.214c-0.251,0.025 -0.442,-0.015 -0.57,-0.122c-0.129,-0.107 -0.229,-0.305 -0.298,-0.593l-0.056,-0.254c-0.063,-0.27 -0.052,-0.456 0.032,-0.56c0.085,-0.103 0.257,-0.174 0.515,-0.212c0.654,-0.094 1.179,-0.342 1.575,-0.743c0.396,-0.402 0.702,-0.982 0.915,-1.74c-0.201,0.087 -0.497,0.13 -0.887,0.13c-0.307,0 -0.578,-0.04 -0.811,-0.122c-0.233,-0.082 -0.425,-0.187 -0.58,-0.315c-0.154,-0.129 -0.292,-0.306 -0.415,-0.532c-0.122,-0.226 -0.222,-0.449 -0.297,-0.668c-0.075,-0.22 -0.154,-0.495 -0.236,-0.828l-1.615,-6.383Z" style="fill:#fff;fill-rule:nonzero;"/></g></svg>