<?xml version="1.0" encoding="UTF-8" standalone="no"?><!DOCTYPE svg PUBLIC "-//W3C//DTD SVG 1.1//EN" "http://www.w3.org/Graphics/SVG/1.1/DTD/svg11.dtd"><svg width="100%" height="100%" viewBox="0 0 120 40" version="1.1" xmlns="http://www.w3.org/2000/svg" xmlns:xlink="http://www.w3.org/1999/xlink" xml:space="preserve" xmlns:serif="http://www.serif.com/" style="fill-rule:evenodd;clip-rule:evenodd;stroke-linejoin:round;stroke-miterlimit:1.41421;"><path d="M70.386,26.351c-3.078,0.537 -5.54,-0.249 -6.469,-2.063c-0.388,-0.758 -0.514,-2.286 -0.277,-3.35c0.689,-3.099 3.743,-5.028 7.177,-4.533c2.709,0.391 3.72,1.981 3.083,4.853l-0.17,0.763l-7.194,0l0.068,0.507c0.15,1.123 1.113,1.74 2.701,1.732c1.063,-0.006 1.863,-0.204 2.848,-0.702c0.906,-0.459 1.042,-0.433 0.938,0.181c-0.046,0.275 -0.175,0.836 -0.286,1.247c-0.196,0.726 -0.218,0.754 -0.788,0.965c-0.322,0.119 -1.056,0.3 -1.631,0.4Zm-42.846,0.056c-2.862,0.447 -5.104,-0.561 -5.602,-2.519c-0.321,-1.261 -0.053,-3.183 0.619,-4.443c0.714,-1.34 2.33,-2.561 3.824,-2.892c2.92,-0.647 5.311,0.214 5.97,2.149c0.241,0.71 0.245,2.319 0.008,3.233c-0.604,2.316 -2.544,4.118 -4.819,4.472Zm13.294,-0.241c0.436,-0.145 0.857,-0.327 0.937,-0.405c0.079,-0.079 0.26,-0.609 0.402,-1.179c0.142,-0.571 0.287,-1.133 0.321,-1.251c0.089,-0.299 -0.368,-0.281 -0.807,0.032c-0.804,0.572 -1.621,0.851 -2.501,0.851c-1.532,0.002 -2.133,-0.588 -2.133,-2.095c0,-1.182 0.345,-2.021 1.116,-2.714c0.716,-0.644 1.344,-0.852 2.309,-0.765c0.766,0.068 1.252,0.284 1.875,0.831c0.672,0.59 0.797,0.48 1.175,-1.029l0.332,-1.322l-0.415,-0.174c-1.338,-0.559 -3.544,-0.711 -4.972,-0.343c-1.991,0.514 -3.566,1.833 -4.318,3.614c-0.282,0.669 -0.325,0.938 -0.329,2.108c-0.004,1.228 0.024,1.401 0.337,2.038c0.732,1.492 2.357,2.22 4.719,2.116c0.736,-0.032 1.449,-0.147 1.952,-0.313Zm18.801,-12.196c1.45,0 1.577,0.019 1.52,0.214c-0.079,0.27 -0.563,2.35 -0.563,2.419c0,0.028 0.631,0.051 1.403,0.051c0.771,0 1.402,0.04 1.402,0.089c0,0.049 -0.092,0.515 -0.204,1.036l-0.203,0.949l-1.441,0c-1.394,0 -1.443,0.008 -1.505,0.274c-0.98,4.171 -1.074,4.809 -0.743,5.083c0.283,0.235 0.989,0.291 1.654,0.131c0.344,-0.082 0.654,-0.122 0.688,-0.087c0.035,0.035 -0.031,0.503 -0.147,1.042l-0.21,0.978l-0.753,0.131c-0.999,0.174 -2.543,0.153 -3.277,-0.045c-0.773,-0.207 -1.297,-0.732 -1.424,-1.426c-0.109,-0.591 -0.027,-1.141 0.502,-3.376c0.525,-2.219 0.472,-2.705 -0.293,-2.705c-0.31,0 -0.347,-0.036 -0.281,-0.275c0.041,-0.151 0.139,-0.617 0.218,-1.037l0.144,-0.762l0.641,0c0.506,0 0.655,-0.045 0.705,-0.213c0.034,-0.118 0.18,-0.721 0.323,-1.342l0.26,-1.129l1.584,0Zm-46.369,10.703c0.21,-0.889 0.434,-1.813 0.497,-2.054l0.116,-0.439l1.556,-0.076c3.94,-0.191 6.217,-1.599 6.74,-4.164c0.169,-0.832 0.085,-1.858 -0.2,-2.425c-0.329,-0.654 -1.035,-1.288 -1.719,-1.544c-0.955,-0.357 -2.441,-0.486 -5.617,-0.487l-2.839,-0.001l0.201,0.389c0.147,0.284 0.183,0.571 0.135,1.067c-0.087,0.892 -2.219,9.901 -2.447,10.343c-0.097,0.187 -0.327,0.492 -0.51,0.674l-0.333,0.334l4.038,0l0.382,-1.617Zm39.632,1.158c0.19,-0.716 0.37,-1.54 0.373,-1.707c0.002,-0.117 -0.565,-0.152 -2.441,-0.152l-2.442,0l3.022,-2.682c3.001,-2.662 3.025,-2.686 3.226,-3.384c0.112,-0.387 0.208,-0.827 0.214,-0.979l0.01,-0.276l-4.539,0.033l-4.539,0.031l-0.213,0.915c-0.116,0.503 -0.214,0.982 -0.217,1.064c-0.004,0.112 0.572,0.158 2.292,0.183l2.297,0.034l-2.538,2.256c-1.396,1.241 -2.762,2.452 -3.036,2.692c-0.422,0.37 -0.532,0.572 -0.728,1.333c-0.127,0.494 -0.203,0.942 -0.169,0.997c0.034,0.055 2.142,0.1 4.684,0.1l4.623,0l0.121,-0.458Zm26.954,-9.177l0.686,1.342c0.377,0.738 0.732,1.341 0.788,1.341c0.056,0 0.604,-0.603 1.219,-1.341l1.119,-1.342l4.642,0l-4.939,4.818l1.307,2.241c0.718,1.233 1.335,2.317 1.37,2.409c0.053,0.137 -0.273,0.167 -1.808,0.166l-1.874,-0.002l-0.718,-1.401c-0.394,-0.771 -0.759,-1.401 -0.81,-1.401c-0.051,0 -0.629,0.631 -1.285,1.403l-1.193,1.402l-2.235,0c-1.229,0 -2.237,-0.041 -2.239,-0.091c-0.002,-0.051 1.098,-1.162 2.445,-2.47l2.448,-2.379l-0.955,-1.646c-0.526,-0.905 -1.136,-1.962 -1.356,-2.348l-0.4,-0.701l3.788,0Zm13.035,9.326c0.82,-0.243 1.614,-0.981 3.859,-3.584c3.575,-4.146 4.45,-4.655 9.155,-5.324c0.805,-0.114 1.574,-0.252 1.708,-0.305c0.134,-0.054 -2.665,-0.098 -6.221,-0.099l-6.463,-0.002l-3.349,3.272c-2.894,2.829 -3.333,3.306 -3.232,3.508c0.064,0.13 0.413,0.795 0.777,1.478l0.66,1.243l1.239,0c0.757,0 1.482,-0.073 1.867,-0.187Zm-67.15,-1.879c-0.511,-0.322 -0.636,-0.669 -0.636,-1.761c0,-2.132 1.186,-3.857 2.654,-3.857c1.041,0 1.544,0.677 1.523,2.046c-0.026,1.555 -0.557,2.776 -1.503,3.449c-0.559,0.398 -1.507,0.455 -2.038,0.123Zm63.078,-2.168c0.408,-0.384 1.971,-1.894 3.47,-3.355l2.727,-2.655l4.173,0c4.148,0 4.178,-0.003 5.079,-0.31c1.179,-0.402 3.486,-0.86 5.174,-1.025c0.738,-0.072 1.506,-0.149 1.708,-0.172c0.201,-0.024 -3.55,-0.051 -8.337,-0.061l-8.701,-0.018l-3.433,3.365c-1.889,1.851 -3.451,3.411 -3.472,3.466c-0.042,0.114 0.695,1.462 0.801,1.462c0.038,0 0.403,-0.314 0.811,-0.697Zm-17.978,-1.864l0,-0.417c0,-0.583 -0.48,-1.125 -1.086,-1.227c-0.56,-0.095 -1.408,0.11 -1.829,0.441c-0.283,0.222 -0.866,0.987 -0.866,1.136c0,0.036 0.851,0.067 1.89,0.067l1.891,0Zm-56.347,-1.049c0,-0.041 0.177,-0.704 0.393,-1.475l0.393,-1.399l1.245,0.041c1.565,0.051 1.912,0.247 1.97,1.108c0.031,0.475 -0.019,0.618 -0.34,0.984c-0.509,0.58 -1.253,0.814 -2.585,0.814c-0.592,0 -1.076,-0.033 -1.076,-0.073Z" style="fill:#fff;"/></svg>