<?xml version="1.0" encoding="UTF-8" standalone="no"?><!DOCTYPE svg PUBLIC "-//W3C//DTD SVG 1.1//EN" "http://www.w3.org/Graphics/SVG/1.1/DTD/svg11.dtd"><svg width="100%" height="100%" viewBox="0 0 120 40" version="1.1" xmlns="http://www.w3.org/2000/svg" xmlns:xlink="http://www.w3.org/1999/xlink" xml:space="preserve" xmlns:serif="http://www.serif.com/" style="fill-rule:evenodd;clip-rule:evenodd;stroke-linejoin:round;stroke-miterlimit:1.41421;"><path d="M66,7.436l0,25.128l-59,0l0,-25.128l59,0Zm-30.156,2.732c5.426,0 9.832,4.406 9.832,9.832c0,5.426 -4.406,9.832 -9.832,9.832c-5.426,0 -9.832,-4.406 -9.832,-9.832c0,-5.426 4.406,-9.832 9.832,-9.832Zm0.58,2.687l0,1.622c0.855,0.123 1.517,0.486 1.983,1.088c0.467,0.602 0.7,1.384 0.7,2.349l-1.784,0c0,-0.62 -0.138,-1.108 -0.416,-1.465c-0.277,-0.355 -0.655,-0.534 -1.131,-0.534c-0.473,0 -0.841,0.128 -1.106,0.383c-0.266,0.256 -0.399,0.622 -0.399,1.099c0,0.427 0.132,0.77 0.395,1.028c0.262,0.259 0.708,0.503 1.338,0.734c0.629,0.231 1.122,0.445 1.481,0.642c0.359,0.196 0.662,0.421 0.907,0.674c0.247,0.252 0.436,0.545 0.567,0.873c0.134,0.33 0.199,0.716 0.199,1.158c0,0.831 -0.253,1.504 -0.762,2.02c-0.509,0.515 -1.218,0.821 -2.127,0.914l0,1.438l-1.172,0l0,-1.43c-0.973,-0.108 -1.723,-0.458 -2.245,-1.047c-0.523,-0.59 -0.786,-1.371 -0.786,-2.345l1.791,0c0,0.619 0.156,1.098 0.47,1.438c0.311,0.339 0.752,0.509 1.323,0.509c0.56,0 0.986,-0.136 1.279,-0.405c0.293,-0.272 0.438,-0.63 0.438,-1.077c0,-0.418 -0.132,-0.763 -0.397,-1.037c-0.267,-0.272 -0.709,-0.517 -1.328,-0.737c-0.618,-0.218 -1.1,-0.42 -1.445,-0.607c-1.145,-0.615 -1.717,-1.524 -1.717,-2.728c0,-0.816 0.249,-1.486 0.745,-2.014c0.495,-0.525 1.169,-0.837 2.019,-0.935l0,-1.608l1.18,0Zm19.524,4.96c1.205,0 2.184,0.979 2.184,2.185c0,1.206 -0.979,2.185 -2.184,2.185c-1.206,0 -2.185,-0.979 -2.185,-2.185c0,-1.206 0.979,-2.185 2.185,-2.185Zm-40.208,0c1.206,0 2.185,0.979 2.185,2.185c0,1.206 -0.979,2.185 -2.185,2.185c-1.206,0 -2.184,-0.979 -2.184,-2.185c0,-1.206 0.978,-2.185 2.184,-2.185Z" style="fill:#fff;"/></svg>