<?xml version="1.0" encoding="UTF-8" standalone="no"?><!DOCTYPE svg PUBLIC "-//W3C//DTD SVG 1.1//EN" "http://www.w3.org/Graphics/SVG/1.1/DTD/svg11.dtd"><svg width="100%" height="100%" viewBox="0 0 550 120" version="1.1" xmlns="http://www.w3.org/2000/svg" xmlns:xlink="http://www.w3.org/1999/xlink" xml:space="preserve" xmlns:serif="http://www.serif.com/" style="fill-rule:evenodd;clip-rule:evenodd;stroke-linejoin:round;stroke-miterlimit:1.41421;"><path d="M437.49,96.239c-5.95,1.038 -10.709,-0.48 -12.505,-3.987c-0.75,-1.465 -0.994,-4.418 -0.537,-6.476c1.334,-5.992 7.238,-9.722 13.874,-8.764c5.238,0.757 7.192,3.832 5.961,9.382l-0.327,1.473l-13.909,0l0.131,0.983c0.292,2.171 2.152,3.363 5.223,3.347c2.054,-0.012 3.601,-0.392 5.504,-1.357c1.751,-0.887 2.014,-0.836 1.815,0.351c-0.09,0.532 -0.34,1.616 -0.554,2.41c-0.378,1.405 -0.422,1.457 -1.523,1.866c-0.622,0.231 -2.042,0.579 -3.153,0.772Zm-82.828,0.11c-5.534,0.863 -9.866,-1.086 -10.83,-4.872c-0.62,-2.436 -0.103,-6.15 1.197,-8.587c1.38,-2.59 4.503,-4.952 7.393,-5.592c5.644,-1.25 10.266,0.414 11.541,4.156c0.466,1.372 0.474,4.483 0.015,6.249c-1.168,4.477 -4.92,7.961 -9.316,8.646Zm25.699,-0.468c0.843,-0.278 1.657,-0.631 1.812,-0.782c0.152,-0.151 0.503,-1.177 0.777,-2.28c0.274,-1.101 0.555,-2.189 0.621,-2.416c0.172,-0.579 -0.711,-0.545 -1.561,0.06c-1.554,1.106 -3.134,1.644 -4.835,1.646c-2.962,0.004 -4.123,-1.137 -4.123,-4.052c0,-2.283 0.667,-3.905 2.157,-5.245c1.385,-1.245 2.599,-1.647 4.466,-1.479c1.479,0.132 2.418,0.549 3.623,1.606c1.298,1.14 1.54,0.93 2.273,-1.989l0.641,-2.554l-0.802,-0.336c-2.588,-1.081 -6.852,-1.376 -9.612,-0.664c-3.85,0.993 -6.895,3.542 -8.349,6.987c-0.545,1.292 -0.626,1.811 -0.635,4.074c-0.009,2.375 0.046,2.708 0.651,3.939c1.416,2.884 4.556,4.292 9.124,4.091c1.422,-0.062 2.799,-0.283 3.772,-0.606Zm36.344,-23.575c2.805,0 3.051,0.035 2.941,0.413c-0.153,0.523 -1.09,4.543 -1.09,4.676c0,0.054 1.22,0.099 2.712,0.099c1.491,0 2.711,0.077 2.711,0.172c0,0.093 -0.177,0.995 -0.394,2.003l-0.394,1.834l-2.784,0c-2.694,0 -2.789,0.017 -2.91,0.53c-1.894,8.063 -2.075,9.296 -1.438,9.826c0.549,0.455 1.912,0.562 3.199,0.254c0.665,-0.16 1.265,-0.236 1.331,-0.168c0.068,0.066 -0.061,0.973 -0.284,2.013l-0.407,1.891l-1.457,0.253c-1.93,0.337 -4.914,0.297 -6.333,-0.086c-1.495,-0.401 -2.507,-1.415 -2.753,-2.757c-0.211,-1.143 -0.052,-2.206 0.969,-6.527c1.015,-4.289 0.914,-5.229 -0.566,-5.229c-0.599,0 -0.669,-0.069 -0.543,-0.531c0.08,-0.291 0.27,-1.193 0.422,-2.004l0.278,-1.474l1.239,0c0.977,0 1.266,-0.088 1.362,-0.413c0.067,-0.226 0.349,-1.393 0.626,-2.593l0.502,-2.182l3.061,0Zm-89.637,20.69c0.407,-1.719 0.84,-3.506 0.962,-3.971l0.223,-0.848l3.007,-0.146c7.617,-0.371 12.019,-3.091 13.031,-8.05c0.328,-1.609 0.163,-3.592 -0.387,-4.687c-0.636,-1.265 -2.002,-2.492 -3.323,-2.986c-1.846,-0.69 -4.718,-0.94 -10.859,-0.942l-5.486,-0.001l0.388,0.751c0.283,0.548 0.354,1.103 0.26,2.063c-0.169,1.725 -4.289,19.139 -4.731,19.992c-0.188,0.364 -0.631,0.952 -0.985,1.306l-0.644,0.644l7.806,0l0.738,-3.125Zm76.614,2.24c0.368,-1.387 0.715,-2.978 0.723,-3.301c0.003,-0.226 -1.093,-0.295 -4.719,-0.295l-4.722,0l5.842,-5.183c5.802,-5.147 5.846,-5.194 6.238,-6.542c0.216,-0.749 0.401,-1.599 0.411,-1.894l0.02,-0.532l-8.774,0.061l-8.774,0.062l-0.411,1.768c-0.227,0.973 -0.417,1.899 -0.422,2.058c-0.007,0.217 1.107,0.305 4.431,0.354l4.441,0.064l-4.907,4.362c-2.699,2.399 -5.339,4.741 -5.868,5.204c-0.816,0.715 -1.029,1.106 -1.407,2.578c-0.246,0.953 -0.393,1.821 -0.327,1.927c0.065,0.106 4.14,0.192 9.055,0.192l8.937,0l0.233,-0.883Zm52.107,-17.742l1.327,2.593c0.729,1.427 1.414,2.594 1.521,2.594c0.108,0 1.169,-1.167 2.358,-2.594l2.163,-2.593l8.974,0l-9.547,9.313l2.525,4.333c1.389,2.384 2.581,4.479 2.649,4.658c0.102,0.264 -0.527,0.321 -3.496,0.319l-3.621,-0.003l-1.387,-2.709c-0.763,-1.489 -1.468,-2.708 -1.567,-2.708c-0.098,0 -1.216,1.22 -2.484,2.712l-2.307,2.71l-4.32,0c-2.377,0 -4.326,-0.078 -4.328,-0.175c-0.005,-0.098 2.121,-2.247 4.725,-4.775l4.734,-4.598l-1.847,-3.183c-1.017,-1.751 -2.196,-3.793 -2.622,-4.538l-0.774,-1.356l7.324,0Zm25.198,18.029c1.586,-0.47 3.12,-1.897 7.46,-6.93c6.912,-8.015 8.604,-8.999 17.699,-10.291c1.556,-0.221 3.041,-0.486 3.301,-0.59c0.259,-0.103 -5.152,-0.19 -12.025,-0.191l-12.496,-0.005l-6.473,6.328c-5.594,5.468 -6.442,6.389 -6.248,6.781c0.124,0.25 0.8,1.536 1.502,2.856l1.276,2.403l2.395,0c1.464,0 2.866,-0.14 3.609,-0.361Zm-129.809,-3.633c-0.989,-0.621 -1.231,-1.294 -1.231,-3.405c0,-4.121 2.294,-7.454 5.13,-7.454c2.012,0 2.986,1.308 2.944,3.954c-0.049,3.006 -1.077,5.366 -2.904,6.667c-1.081,0.77 -2.915,0.88 -3.939,0.238Zm121.938,-4.192c0.789,-0.742 3.809,-3.66 6.708,-6.484l5.271,-5.135l8.068,0c8.017,0 8.078,-0.003 9.818,-0.597c2.28,-0.778 6.74,-1.663 10.002,-1.981c1.426,-0.139 2.912,-0.29 3.301,-0.334c0.389,-0.045 -6.862,-0.097 -16.115,-0.117l-16.822,-0.035l-6.637,6.506c-3.65,3.578 -6.67,6.593 -6.71,6.699c-0.082,0.222 1.343,2.826 1.548,2.826c0.072,0 0.778,-0.606 1.568,-1.348Zm-34.754,-3.602l0,-0.807c0,-1.127 -0.927,-2.174 -2.101,-2.373c-1.081,-0.182 -2.721,0.214 -3.535,0.853c-0.546,0.431 -1.673,1.91 -1.673,2.196c0,0.072 1.644,0.131 3.654,0.131l3.655,0Zm-108.928,-2.03c0,-0.078 0.342,-1.36 0.76,-2.848l0.761,-2.707l2.406,0.08c3.024,0.098 3.697,0.477 3.806,2.143c0.062,0.918 -0.034,1.194 -0.656,1.902c-0.982,1.121 -2.421,1.574 -4.996,1.574c-1.145,0 -2.081,-0.065 -2.081,-0.144Z" style="fill:#fff;"/><g><path d="M53.959,85.653c0,1.41 -0.243,2.721 -0.728,3.934c-0.487,1.213 -1.171,2.268 -2.054,3.165c-0.884,0.897 -1.947,1.599 -3.192,2.108c-1.244,0.507 -2.625,0.762 -4.141,0.762c-1.517,0 -2.9,-0.255 -4.149,-0.762c-1.248,-0.509 -2.317,-1.211 -3.204,-2.108c-0.888,-0.897 -1.575,-1.952 -2.06,-3.165c-0.487,-1.213 -0.73,-2.524 -0.73,-3.934c0,-1.409 0.243,-2.721 0.73,-3.933c0.485,-1.214 1.172,-2.267 2.06,-3.159c0.887,-0.891 1.956,-1.592 3.204,-2.1c1.249,-0.509 2.632,-0.763 4.149,-0.763c1.516,0 2.897,0.257 4.141,0.769c1.245,0.513 2.308,1.215 3.192,2.108c0.883,0.892 1.567,1.945 2.054,3.157c0.485,1.214 0.728,2.521 0.728,3.921Zm-4.63,0c0,-0.964 -0.124,-1.831 -0.374,-2.603c-0.249,-0.772 -0.609,-1.424 -1.078,-1.96c-0.467,-0.535 -1.041,-0.946 -1.718,-1.231c-0.679,-0.285 -1.45,-0.428 -2.315,-0.428c-0.875,0 -1.653,0.143 -2.335,0.428c-0.682,0.285 -1.259,0.696 -1.726,1.231c-0.469,0.536 -0.827,1.188 -1.078,1.96c-0.249,0.772 -0.374,1.639 -0.374,2.603c0,0.972 0.125,1.844 0.374,2.616c0.251,0.772 0.609,1.426 1.078,1.961c0.467,0.535 1.044,0.943 1.726,1.223c0.682,0.282 1.46,0.422 2.335,0.422c0.865,0 1.636,-0.14 2.315,-0.422c0.677,-0.28 1.251,-0.688 1.718,-1.223c0.469,-0.535 0.829,-1.189 1.078,-1.961c0.25,-0.772 0.374,-1.644 0.374,-2.616Z" style="fill:#fff;fill-rule:nonzero;"/><path d="M74.312,85.653c0,1.41 -0.243,2.71 -0.729,3.901c-0.487,1.191 -1.172,2.221 -2.055,3.09c-0.883,0.871 -1.947,1.548 -3.19,2.035c-1.245,0.486 -2.626,0.729 -4.142,0.729l-7.574,0l0,-19.496l7.574,0c1.516,0 2.897,0.245 4.142,0.736c1.243,0.49 2.307,1.169 3.19,2.033c0.883,0.866 1.568,1.894 2.055,3.085c0.486,1.191 0.729,2.487 0.729,3.887Zm-4.63,0c0,-0.964 -0.124,-1.833 -0.375,-2.609c-0.25,-0.776 -0.609,-1.434 -1.076,-1.974c-0.469,-0.539 -1.042,-0.954 -1.72,-1.244c-0.678,-0.29 -1.45,-0.435 -2.315,-0.435l-3.024,0l0,12.538l3.024,0c0.865,0 1.637,-0.145 2.315,-0.435c0.678,-0.29 1.251,-0.704 1.72,-1.244c0.467,-0.54 0.826,-1.198 1.076,-1.975c0.251,-0.776 0.375,-1.65 0.375,-2.622Z" style="fill:#fff;fill-rule:nonzero;"/><path d="M84.696,91.996c0.597,0 1.085,-0.076 1.464,-0.228c0.379,-0.151 0.676,-0.347 0.891,-0.589c0.214,-0.241 0.361,-0.513 0.441,-0.816c0.08,-0.303 0.12,-0.611 0.12,-0.923c0,-0.357 -0.046,-0.678 -0.14,-0.964c-0.093,-0.284 -0.254,-0.526 -0.481,-0.722c-0.228,-0.196 -0.529,-0.348 -0.904,-0.455c-0.375,-0.108 -0.847,-0.16 -1.419,-0.16l-3.158,0l0,4.857l3.186,0Zm-3.186,-12.699l0,4.817l2.356,0c0.499,0 0.95,-0.036 1.351,-0.107c0.402,-0.071 0.744,-0.196 1.024,-0.374c0.281,-0.178 0.495,-0.424 0.643,-0.736c0.147,-0.313 0.22,-0.705 0.22,-1.177c0,-0.464 -0.058,-0.851 -0.174,-1.158c-0.116,-0.308 -0.295,-0.555 -0.535,-0.743c-0.241,-0.187 -0.547,-0.321 -0.917,-0.402c-0.369,-0.08 -0.81,-0.12 -1.317,-0.12l-2.651,0Zm2.651,-3.385c1.347,0 2.493,0.125 3.439,0.374c0.945,0.25 1.716,0.603 2.314,1.058c0.598,0.454 1.033,1.008 1.305,1.659c0.272,0.651 0.408,1.378 0.408,2.181c0,0.437 -0.062,0.859 -0.187,1.264c-0.125,0.407 -0.322,0.786 -0.589,1.137c-0.268,0.353 -0.611,0.677 -1.03,0.971c-0.42,0.294 -0.924,0.549 -1.513,0.763c1.285,0.312 2.235,0.816 2.85,1.512c0.616,0.696 0.924,1.596 0.924,2.703c0,0.829 -0.161,1.601 -0.482,2.315c-0.321,0.713 -0.791,1.336 -1.411,1.866c-0.62,0.531 -1.386,0.946 -2.295,1.244c-0.911,0.3 -1.95,0.449 -3.118,0.449l-7.788,0l0,-19.496l7.173,0Z" style="fill:#fff;fill-rule:nonzero;"/><rect x="94.905" y="75.912" width="4.55" height="19.496" style="fill:#fff;"/><path d="M122.362,85.653c0,1.41 -0.243,2.721 -0.728,3.934c-0.486,1.213 -1.171,2.268 -2.054,3.165c-0.883,0.897 -1.947,1.599 -3.192,2.108c-1.245,0.507 -2.624,0.762 -4.141,0.762c-1.517,0 -2.9,-0.255 -4.148,-0.762c-1.249,-0.509 -2.318,-1.211 -3.205,-2.108c-0.888,-0.897 -1.575,-1.952 -2.06,-3.165c-0.487,-1.213 -0.73,-2.524 -0.73,-3.934c0,-1.409 0.243,-2.721 0.73,-3.933c0.485,-1.214 1.172,-2.267 2.06,-3.159c0.887,-0.891 1.956,-1.592 3.205,-2.1c1.248,-0.509 2.631,-0.763 4.148,-0.763c1.517,0 2.896,0.257 4.141,0.769c1.245,0.513 2.309,1.215 3.192,2.108c0.883,0.892 1.568,1.945 2.054,3.157c0.485,1.214 0.728,2.521 0.728,3.921Zm-4.629,0c0,-0.964 -0.125,-1.831 -0.375,-2.603c-0.249,-0.772 -0.608,-1.424 -1.077,-1.96c-0.468,-0.535 -1.042,-0.946 -1.719,-1.231c-0.679,-0.285 -1.449,-0.428 -2.315,-0.428c-0.874,0 -1.653,0.143 -2.335,0.428c-0.682,0.285 -1.258,0.696 -1.726,1.231c-0.469,0.536 -0.827,1.188 -1.078,1.96c-0.249,0.772 -0.374,1.639 -0.374,2.603c0,0.972 0.125,1.844 0.374,2.616c0.251,0.772 0.609,1.426 1.078,1.961c0.468,0.535 1.044,0.943 1.726,1.223c0.682,0.282 1.461,0.422 2.335,0.422c0.866,0 1.636,-0.14 2.315,-0.422c0.677,-0.28 1.251,-0.688 1.719,-1.223c0.469,-0.535 0.828,-1.189 1.077,-1.961c0.25,-0.772 0.375,-1.644 0.375,-2.616Zm0.682,-15.228l-4.322,3.815c-0.107,0.097 -0.21,0.173 -0.307,0.227c-0.098,0.053 -0.201,0.093 -0.308,0.121c-0.107,0.026 -0.221,0.043 -0.342,0.053c-0.119,0.009 -0.255,0.013 -0.408,0.013l-3.023,0l2.528,-3.612c0.108,-0.144 0.212,-0.257 0.315,-0.342c0.102,-0.085 0.214,-0.147 0.334,-0.187c0.121,-0.04 0.259,-0.065 0.415,-0.074c0.156,-0.009 0.337,-0.014 0.542,-0.014l4.576,0Z" style="fill:#fff;fill-rule:nonzero;"/><path d="M131.368,85.077c0.616,0 1.14,-0.077 1.573,-0.233c0.432,-0.156 0.787,-0.373 1.064,-0.65c0.275,-0.275 0.476,-0.6 0.601,-0.969c0.126,-0.37 0.188,-0.77 0.188,-1.199c0,-0.855 -0.279,-1.525 -0.837,-2.006c-0.557,-0.482 -1.421,-0.723 -2.589,-0.723l-1.82,0l0,5.78l1.82,0Zm9.608,10.331l-4.095,0c-0.759,0 -1.302,-0.285 -1.633,-0.856l-3.238,-5.661c-0.151,-0.24 -0.32,-0.416 -0.508,-0.528c-0.188,-0.111 -0.455,-0.168 -0.803,-0.168l-1.151,0l0,7.213l-4.523,0l0,-19.496l6.343,0c1.409,0 2.612,0.145 3.606,0.434c0.995,0.291 1.807,0.694 2.436,1.211c0.628,0.518 1.086,1.129 1.372,1.834c0.284,0.705 0.427,1.472 0.427,2.301c0,0.634 -0.084,1.231 -0.254,1.794c-0.17,0.561 -0.419,1.081 -0.75,1.559c-0.329,0.476 -0.738,0.903 -1.223,1.277c-0.487,0.375 -1.047,0.682 -1.68,0.923c0.294,0.152 0.571,0.342 0.829,0.569c0.26,0.228 0.492,0.497 0.696,0.809l4.149,6.785Z" style="fill:#fff;fill-rule:nonzero;"/><path d="M175.364,75.912l-6.02,19.496l-4.095,0l-3.667,-12.083c-0.071,-0.187 -0.139,-0.394 -0.201,-0.623c-0.062,-0.227 -0.125,-0.465 -0.187,-0.716c-0.062,0.251 -0.125,0.489 -0.187,0.716c-0.063,0.229 -0.13,0.436 -0.201,0.623l-3.719,12.083l-4.095,0l-6.022,-19.496l3.8,0c0.393,0 0.721,0.089 0.985,0.267c0.261,0.179 0.434,0.415 0.515,0.71l2.675,10.169c0.081,0.322 0.161,0.671 0.241,1.05c0.081,0.379 0.161,0.775 0.241,1.185c0.16,-0.839 0.356,-1.584 0.588,-2.235l3.158,-10.169c0.081,-0.25 0.252,-0.475 0.515,-0.676c0.264,-0.201 0.583,-0.301 0.957,-0.301l1.338,0c0.393,0 0.71,0.091 0.951,0.275c0.241,0.182 0.424,0.416 0.549,0.702l3.13,10.169c0.232,0.625 0.428,1.333 0.589,2.128c0.071,-0.402 0.145,-0.779 0.221,-1.132c0.076,-0.351 0.153,-0.683 0.234,-0.996l2.676,-10.169c0.072,-0.26 0.242,-0.487 0.509,-0.682c0.268,-0.197 0.588,-0.295 0.964,-0.295l3.558,0Z" style="fill:#fff;fill-rule:nonzero;"/><path d="M190.364,85.479c1.177,0 2.026,-0.281 2.543,-0.843c0.518,-0.562 0.776,-1.347 0.776,-2.355c0,-0.445 -0.067,-0.852 -0.201,-1.218c-0.133,-0.365 -0.337,-0.679 -0.608,-0.942c-0.272,-0.264 -0.617,-0.467 -1.031,-0.609c-0.415,-0.144 -0.908,-0.215 -1.479,-0.215l-2.355,0l0,6.182l2.355,0Zm0,-9.567c1.375,0 2.554,0.162 3.54,0.488c0.985,0.325 1.797,0.774 2.435,1.344c0.638,0.572 1.108,1.245 1.411,2.021c0.304,0.777 0.456,1.615 0.456,2.516c0,0.973 -0.156,1.865 -0.468,2.676c-0.313,0.812 -0.79,1.508 -1.432,2.087c-0.642,0.58 -1.457,1.033 -2.442,1.358c-0.987,0.326 -2.153,0.489 -3.5,0.489l-2.355,0l0,6.517l-4.522,0l0,-19.496l6.877,0Z" style="fill:#fff;fill-rule:nonzero;"/><path d="M208.643,91.835c0.606,0 1.149,-0.1 1.625,-0.301c0.478,-0.2 0.882,-0.489 1.211,-0.863c0.331,-0.375 0.583,-0.832 0.756,-1.372c0.175,-0.54 0.262,-1.152 0.262,-1.839l0,-11.548l4.523,0l0,11.548c0,1.194 -0.195,2.292 -0.583,3.291c-0.388,0.999 -0.943,1.86 -1.666,2.583c-0.722,0.722 -1.6,1.285 -2.636,1.685c-1.035,0.402 -2.199,0.603 -3.492,0.603c-1.302,0 -2.471,-0.201 -3.506,-0.603c-1.034,-0.4 -1.914,-0.963 -2.636,-1.685c-0.723,-0.723 -1.276,-1.584 -1.66,-2.583c-0.383,-0.999 -0.575,-2.097 -0.575,-3.291l0,-11.548l4.523,0l0,11.534c0,0.687 0.087,1.301 0.261,1.84c0.174,0.54 0.426,0.999 0.757,1.378c0.329,0.379 0.733,0.67 1.209,0.87c0.478,0.201 1.021,0.301 1.627,0.301Z" style="fill:#fff;fill-rule:nonzero;"/><path d="M237.572,75.912l0,19.496l-2.355,0c-0.348,0 -0.639,-0.056 -0.876,-0.168c-0.236,-0.111 -0.471,-0.306 -0.703,-0.581l-9.192,-11.629c0.035,0.348 0.06,0.685 0.074,1.011c0.013,0.325 0.019,0.631 0.019,0.916l0,10.451l-3.987,0l0,-19.496l2.382,0c0.196,0 0.361,0.009 0.494,0.026c0.135,0.018 0.255,0.052 0.362,0.101c0.107,0.049 0.209,0.118 0.308,0.208c0.098,0.088 0.209,0.209 0.334,0.361l9.274,11.708c-0.045,-0.375 -0.076,-0.738 -0.094,-1.091c-0.019,-0.352 -0.027,-0.685 -0.027,-0.997l0,-10.316l3.987,0Z" style="fill:#fff;fill-rule:nonzero;"/><path d="M245.868,83.806l0.723,0c0.669,0 1.15,-0.209 1.445,-0.628l4.389,-6.37c0.259,-0.338 0.537,-0.573 0.837,-0.702c0.298,-0.129 0.671,-0.194 1.117,-0.194l3.934,0l-5.781,7.882c-0.41,0.544 -0.852,0.936 -1.324,1.177c0.339,0.125 0.647,0.298 0.923,0.522c0.276,0.223 0.535,0.512 0.775,0.869l5.889,9.046l-4.041,0c-0.259,0 -0.481,-0.018 -0.663,-0.053c-0.183,-0.036 -0.342,-0.09 -0.475,-0.161c-0.133,-0.071 -0.249,-0.158 -0.348,-0.261c-0.098,-0.103 -0.192,-0.221 -0.281,-0.355l-4.415,-6.784c-0.161,-0.25 -0.364,-0.426 -0.61,-0.529c-0.244,-0.102 -0.577,-0.153 -0.996,-0.153l-1.098,0l0,8.296l-4.523,0l0,-19.496l4.523,0l0,7.894Z" style="fill:#fff;fill-rule:nonzero;"/><path d="M272.537,90.363c0.106,0 0.214,0.02 0.321,0.06c0.107,0.04 0.209,0.11 0.308,0.208l1.792,1.886c-0.784,1.027 -1.768,1.8 -2.95,2.323c-1.182,0.521 -2.58,0.782 -4.194,0.782c-1.482,0 -2.809,-0.252 -3.982,-0.756c-1.173,-0.504 -2.167,-1.2 -2.983,-2.088c-0.817,-0.887 -1.443,-1.94 -1.881,-3.157c-0.436,-1.219 -0.655,-2.541 -0.655,-3.968c0,-1.454 0.236,-2.79 0.709,-4.007c0.472,-1.219 1.137,-2.269 1.994,-3.152c0.856,-0.883 1.882,-1.57 3.077,-2.06c1.195,-0.491 2.511,-0.736 3.948,-0.736c0.731,0 1.42,0.065 2.067,0.194c0.647,0.129 1.251,0.307 1.813,0.535c0.563,0.227 1.079,0.502 1.553,0.824c0.473,0.32 0.892,0.668 1.257,1.042l-1.525,2.048c-0.099,0.125 -0.215,0.239 -0.348,0.341c-0.134,0.103 -0.321,0.154 -0.563,0.154c-0.159,0 -0.312,-0.036 -0.454,-0.107c-0.143,-0.071 -0.294,-0.158 -0.455,-0.26c-0.161,-0.104 -0.337,-0.215 -0.529,-0.336c-0.192,-0.12 -0.419,-0.232 -0.682,-0.334c-0.263,-0.103 -0.571,-0.19 -0.923,-0.261c-0.353,-0.071 -0.765,-0.107 -1.239,-0.107c-0.748,0 -1.433,0.138 -2.053,0.415c-0.62,0.276 -1.155,0.68 -1.606,1.211c-0.45,0.53 -0.798,1.181 -1.043,1.953c-0.246,0.773 -0.368,1.653 -0.368,2.643c0,1 0.136,1.886 0.408,2.663c0.272,0.776 0.642,1.43 1.11,1.96c0.469,0.531 1.015,0.934 1.639,1.211c0.625,0.277 1.293,0.415 2.008,0.415c0.411,0 0.785,-0.02 1.124,-0.061c0.338,-0.04 0.655,-0.106 0.949,-0.199c0.295,-0.095 0.571,-0.22 0.831,-0.376c0.258,-0.156 0.521,-0.354 0.788,-0.595c0.107,-0.09 0.223,-0.163 0.348,-0.22c0.126,-0.059 0.255,-0.088 0.389,-0.088Z" style="fill:#fff;fill-rule:nonzero;"/><rect x="276.939" y="75.912" width="4.55" height="19.496" style="fill:#fff;"/><path d="M289.811,79.391l0,4.55l6.129,0l0,3.345l-6.129,0l0,4.643l8.002,0l0,3.479l-12.551,0l0,-19.496l12.551,0l0,3.479l-8.002,0Z" style="fill:#fff;fill-rule:nonzero;"/></g><path d="M62.515,40.026c0,2.509 -0.387,4.764 -1.159,6.768c-0.773,2.004 -1.861,3.709 -3.265,5.116c-1.404,1.407 -3.083,2.485 -5.039,3.235c-1.955,0.749 -4.124,1.124 -6.505,1.124l-12.207,0l0,-32.462l12.207,0c2.381,0 4.55,0.375 6.505,1.124c1.956,0.75 3.635,1.828 5.039,3.235c1.404,1.407 2.492,3.112 3.265,5.116c0.772,2.003 1.159,4.251 1.159,6.744Zm-2.508,0c0,-2.263 -0.323,-4.282 -0.97,-6.056c-0.646,-1.774 -1.557,-3.273 -2.732,-4.497c-1.175,-1.223 -2.59,-2.156 -4.246,-2.798c-1.656,-0.643 -3.494,-0.964 -5.512,-0.964l-9.771,0l0,28.654l9.771,0c2.018,0 3.856,-0.322 5.512,-0.964c1.656,-0.642 3.071,-1.575 4.246,-2.799c1.175,-1.223 2.086,-2.722 2.732,-4.496c0.647,-1.774 0.97,-3.801 0.97,-6.08Z" style="fill:#fff;fill-rule:nonzero;"/><path d="M94.783,56.269l-1.869,0c-0.221,0 -0.402,-0.058 -0.544,-0.172c-0.142,-0.115 -0.253,-0.264 -0.332,-0.448l-3.95,-9.429l-16.442,0l-3.927,9.429c-0.063,0.169 -0.173,0.314 -0.331,0.436c-0.158,0.123 -0.347,0.184 -0.568,0.184l-1.845,0l13.697,-32.462l2.413,0l13.698,32.462Zm-22.403,-11.792l14.998,0l-6.837,-16.403c-0.11,-0.26 -0.22,-0.554 -0.331,-0.883c-0.11,-0.329 -0.221,-0.677 -0.331,-1.044c-0.11,0.367 -0.221,0.715 -0.331,1.044c-0.111,0.329 -0.221,0.631 -0.331,0.906l-6.837,16.38Z" style="fill:#fff;fill-rule:nonzero;"/><path d="M103.204,41.586l0,14.683l-2.412,0l0,-32.462l8.54,0c3.864,0 6.75,0.723 8.658,2.168c1.908,1.445 2.862,3.567 2.862,6.366c0,1.239 -0.22,2.371 -0.662,3.395c-0.442,1.025 -1.076,1.924 -1.904,2.696c-0.828,0.772 -1.826,1.407 -2.993,1.904c-1.167,0.497 -2.484,0.822 -3.951,0.975c0.379,0.229 0.718,0.535 1.018,0.918l11.521,14.04l-2.106,0c-0.252,0 -0.469,-0.046 -0.65,-0.138c-0.182,-0.092 -0.359,-0.245 -0.533,-0.459l-10.716,-13.168c-0.268,-0.336 -0.556,-0.574 -0.864,-0.711c-0.307,-0.138 -0.784,-0.207 -1.431,-0.207l-4.377,0Zm0,-1.743l5.82,0c1.483,0 2.811,-0.172 3.986,-0.516c1.175,-0.344 2.169,-0.838 2.981,-1.48c0.812,-0.642 1.431,-1.415 1.857,-2.317c0.426,-0.902 0.639,-1.919 0.639,-3.051c0,-2.31 -0.781,-4.023 -2.342,-5.139c-1.562,-1.117 -3.833,-1.675 -6.813,-1.675l-6.128,0l0,14.178Z" style="fill:#fff;fill-rule:nonzero;"/><path d="M146.023,46.817c0.237,0.428 0.442,0.887 0.615,1.376c0.095,-0.244 0.194,-0.485 0.296,-0.722c0.103,-0.237 0.217,-0.463 0.343,-0.677l13.153,-22.551c0.126,-0.199 0.253,-0.321 0.379,-0.367c0.126,-0.046 0.299,-0.069 0.52,-0.069l1.68,0l0,32.462l-2.129,0l0,-27.667c0,-0.398 0.023,-0.819 0.071,-1.262l-13.177,22.689c-0.221,0.397 -0.536,0.596 -0.946,0.596l-0.379,0c-0.394,0 -0.71,-0.199 -0.946,-0.596l-13.532,-22.712c0.047,0.444 0.071,0.872 0.071,1.285l0,27.667l-2.105,0l0,-32.462l1.656,0c0.22,0 0.398,0.023 0.532,0.069c0.134,0.046 0.264,0.168 0.39,0.367l13.508,22.574Z" style="fill:#fff;fill-rule:nonzero;"/><path d="M202.8,40.026c0,2.509 -0.387,4.784 -1.16,6.825c-0.772,2.042 -1.861,3.786 -3.264,5.231c-1.404,1.445 -3.084,2.562 -5.039,3.349c-1.956,0.788 -4.124,1.182 -6.506,1.182c-2.35,0 -4.502,-0.394 -6.458,-1.182c-1.956,-0.787 -3.635,-1.904 -5.039,-3.349c-1.404,-1.445 -2.496,-3.189 -3.276,-5.231c-0.781,-2.041 -1.171,-4.316 -1.171,-6.825c0,-2.493 0.39,-4.76 1.171,-6.802c0.78,-2.041 1.872,-3.785 3.276,-5.23c1.404,-1.446 3.083,-2.566 5.039,-3.361c1.956,-0.795 4.108,-1.193 6.458,-1.193c2.382,0 4.55,0.394 6.506,1.181c1.955,0.788 3.635,1.908 5.039,3.361c1.403,1.453 2.492,3.201 3.264,5.242c0.773,2.042 1.16,4.309 1.16,6.802Zm-2.508,0c0,-2.263 -0.323,-4.297 -0.97,-6.102c-0.647,-1.805 -1.557,-3.334 -2.732,-4.588c-1.175,-1.254 -2.591,-2.214 -4.247,-2.879c-1.656,-0.666 -3.493,-0.998 -5.512,-0.998c-1.987,0 -3.805,0.332 -5.453,0.998c-1.648,0.665 -3.067,1.625 -4.258,2.879c-1.191,1.254 -2.113,2.783 -2.768,4.588c-0.654,1.805 -0.982,3.839 -0.982,6.102c0,2.279 0.328,4.317 0.982,6.114c0.655,1.797 1.577,3.323 2.768,4.577c1.191,1.254 2.61,2.21 4.258,2.868c1.648,0.657 3.466,0.986 5.453,0.986c2.019,0 3.856,-0.329 5.512,-0.986c1.656,-0.658 3.072,-1.614 4.247,-2.868c1.175,-1.254 2.085,-2.78 2.732,-4.577c0.647,-1.797 0.97,-3.835 0.97,-6.114Z" style="fill:#fff;fill-rule:nonzero;"/><path d="M206.111,23.807l2.011,0c0.458,0 0.749,0.206 0.876,0.619l8.445,26.681c0.095,0.306 0.177,0.635 0.248,0.986c0.071,0.352 0.146,0.719 0.225,1.102c0.079,-0.383 0.158,-0.75 0.237,-1.102c0.079,-0.351 0.173,-0.68 0.284,-0.986l9.462,-26.681c0.063,-0.168 0.174,-0.313 0.332,-0.435c0.157,-0.123 0.347,-0.184 0.567,-0.184l0.663,0c0.221,0 0.402,0.057 0.544,0.172c0.142,0.115 0.252,0.264 0.331,0.447l9.463,26.681c0.11,0.306 0.209,0.627 0.295,0.963c0.087,0.337 0.17,0.696 0.249,1.079c0.079,-0.367 0.15,-0.723 0.213,-1.067c0.063,-0.344 0.142,-0.669 0.236,-0.975l8.446,-26.681c0.047,-0.168 0.154,-0.313 0.319,-0.435c0.166,-0.123 0.359,-0.184 0.58,-0.184l1.845,0l-10.527,32.462l-2.177,0l-9.888,-28.172c-0.126,-0.367 -0.237,-0.757 -0.331,-1.17c-0.095,0.413 -0.205,0.803 -0.332,1.17l-9.912,28.172l-2.153,0l-10.551,-32.462Z" style="fill:#fff;fill-rule:nonzero;"/><path d="M281.032,56.269l-1.868,0c-0.221,0 -0.403,-0.058 -0.545,-0.172c-0.141,-0.115 -0.252,-0.264 -0.331,-0.448l-3.95,-9.429l-16.442,0l-3.927,9.429c-0.063,0.169 -0.173,0.314 -0.331,0.436c-0.158,0.123 -0.347,0.184 -0.568,0.184l-1.845,0l13.697,-32.462l2.413,0l13.697,32.462Zm-22.402,-11.792l14.998,0l-6.837,-16.403c-0.11,-0.26 -0.221,-0.554 -0.331,-0.883c-0.11,-0.329 -0.221,-0.677 -0.331,-1.044c-0.111,0.367 -0.221,0.715 -0.331,1.044c-0.111,0.329 -0.221,0.631 -0.332,0.906l-6.836,16.38Z" style="fill:#fff;fill-rule:nonzero;"/><path d="M290.897,23.807l2.011,0c0.458,0 0.749,0.206 0.875,0.619l8.446,26.681c0.095,0.306 0.177,0.635 0.248,0.986c0.071,0.352 0.146,0.719 0.225,1.102c0.079,-0.383 0.158,-0.75 0.237,-1.102c0.079,-0.351 0.173,-0.68 0.284,-0.986l9.462,-26.681c0.063,-0.168 0.174,-0.313 0.331,-0.435c0.158,-0.123 0.347,-0.184 0.568,-0.184l0.663,0c0.22,0 0.402,0.057 0.544,0.172c0.142,0.115 0.252,0.264 0.331,0.447l9.463,26.681c0.11,0.306 0.209,0.627 0.295,0.963c0.087,0.337 0.17,0.696 0.249,1.079c0.079,-0.367 0.15,-0.723 0.213,-1.067c0.063,-0.344 0.142,-0.669 0.236,-0.975l8.446,-26.681c0.047,-0.168 0.153,-0.313 0.319,-0.435c0.166,-0.123 0.359,-0.184 0.58,-0.184l1.845,0l-10.527,32.462l-2.177,0l-9.888,-28.172c-0.127,-0.367 -0.237,-0.757 -0.332,-1.17c-0.094,0.413 -0.205,0.803 -0.331,1.17l-9.912,28.172l-2.153,0l-10.551,-32.462Z" style="fill:#fff;fill-rule:nonzero;"/><path d="M352.594,42.871l0,13.398l-2.436,0l0,-13.398l-12.373,-19.064l2.106,0c0.22,0 0.398,0.05 0.532,0.149c0.134,0.1 0.264,0.241 0.39,0.425l9.581,14.911c0.221,0.352 0.41,0.692 0.568,1.021c0.158,0.329 0.3,0.662 0.426,0.998c0.126,-0.336 0.268,-0.669 0.426,-0.998c0.157,-0.329 0.347,-0.669 0.567,-1.021l9.558,-14.911c0.094,-0.169 0.213,-0.306 0.355,-0.413c0.141,-0.107 0.323,-0.161 0.544,-0.161l2.129,0l-12.373,19.064Z" style="fill:#fff;fill-rule:nonzero;"/><path d="M386.731,27.753c-0.142,0.26 -0.347,0.39 -0.615,0.39c-0.206,0 -0.471,-0.142 -0.795,-0.425c-0.325,-0.282 -0.764,-0.596 -1.317,-0.94c-0.554,-0.344 -1.246,-0.662 -2.077,-0.952c-0.831,-0.291 -1.855,-0.436 -3.073,-0.436c-1.219,0 -2.291,0.168 -3.216,0.505c-0.926,0.336 -1.701,0.795 -2.326,1.376c-0.625,0.581 -1.1,1.254 -1.424,2.019c-0.324,0.765 -0.487,1.568 -0.487,2.409c0,1.101 0.241,2.011 0.723,2.73c0.481,0.719 1.117,1.33 1.907,1.835c0.79,0.505 1.686,0.929 2.689,1.273c1.003,0.344 2.033,0.685 3.091,1.021c1.058,0.337 2.089,0.707 3.092,1.113c1.003,0.405 1.899,0.914 2.689,1.525c0.789,0.612 1.425,1.365 1.907,2.26c0.481,0.895 0.722,2.007 0.722,3.338c0,1.361 -0.24,2.642 -0.721,3.843c-0.481,1.2 -1.179,2.244 -2.094,3.131c-0.915,0.887 -2.034,1.587 -3.359,2.099c-1.325,0.513 -2.839,0.769 -4.542,0.769c-2.208,0 -4.109,-0.379 -5.701,-1.136c-1.593,-0.757 -2.989,-1.793 -4.188,-3.108l0.663,-1.01c0.189,-0.229 0.41,-0.344 0.662,-0.344c0.142,0 0.324,0.092 0.545,0.275c0.221,0.184 0.489,0.41 0.805,0.677c0.316,0.268 0.695,0.558 1.138,0.872c0.442,0.313 0.955,0.604 1.539,0.872c0.585,0.267 1.256,0.493 2.014,0.676c0.758,0.184 1.619,0.276 2.582,0.276c1.327,0 2.511,-0.195 3.554,-0.585c1.042,-0.39 1.922,-0.922 2.641,-1.595c0.719,-0.673 1.267,-1.472 1.646,-2.397c0.379,-0.925 0.569,-1.916 0.569,-2.971c0,-1.147 -0.241,-2.091 -0.723,-2.833c-0.481,-0.742 -1.117,-1.361 -1.907,-1.858c-0.79,-0.497 -1.686,-0.914 -2.689,-1.251c-1.002,-0.336 -2.033,-0.665 -3.091,-0.986c-1.058,-0.321 -2.089,-0.681 -3.092,-1.078c-1.002,-0.398 -1.899,-0.907 -2.688,-1.526c-0.79,-0.619 -1.426,-1.392 -1.908,-2.317c-0.481,-0.925 -0.722,-2.084 -0.722,-3.476c0,-1.085 0.213,-2.133 0.64,-3.142c0.426,-1.01 1.05,-1.901 1.871,-2.673c0.821,-0.772 1.836,-1.392 3.044,-1.858c1.208,-0.467 2.586,-0.7 4.134,-0.7c1.737,0 3.297,0.268 4.679,0.803c1.382,0.535 2.641,1.353 3.777,2.455l-0.568,1.055Z" style="fill:#fff;fill-rule:nonzero;"/><path d="M405.68,42.871l0,13.398l-2.437,0l0,-13.398l-12.372,-19.064l2.105,0c0.221,0 0.399,0.05 0.533,0.149c0.134,0.1 0.264,0.241 0.39,0.425l9.581,14.911c0.221,0.352 0.41,0.692 0.568,1.021c0.157,0.329 0.299,0.662 0.426,0.998c0.126,-0.336 0.268,-0.669 0.425,-0.998c0.158,-0.329 0.347,-0.669 0.568,-1.021l9.557,-14.911c0.095,-0.169 0.213,-0.306 0.355,-0.413c0.142,-0.107 0.324,-0.161 0.544,-0.161l2.13,0l-12.373,19.064Z" style="fill:#fff;fill-rule:nonzero;"/><path d="M427.042,39.705l9.865,-4.978l0,1.445c0,0.169 -0.032,0.306 -0.095,0.413c-0.063,0.107 -0.181,0.207 -0.355,0.298l-9.415,4.864l0,12.526l15.874,0l0,1.996l-18.287,0l0,-13.467l-4.613,2.317l0,-1.514c0,-0.29 0.142,-0.512 0.426,-0.665l4.187,-2.134l0,-16.999l2.413,0l0,15.898Z" style="fill:#fff;fill-rule:nonzero;"/><path d="M451.953,38.788l1.987,0c0.3,0 0.56,-0.012 0.781,-0.035c0.22,-0.023 0.421,-0.069 0.603,-0.138c0.181,-0.068 0.351,-0.156 0.508,-0.263c0.158,-0.107 0.324,-0.245 0.497,-0.413l13.508,-13.467c0.253,-0.244 0.485,-0.416 0.698,-0.516c0.213,-0.099 0.477,-0.149 0.793,-0.149l1.963,0l-14.62,14.568c-0.299,0.305 -0.564,0.543 -0.792,0.711c-0.229,0.168 -0.485,0.306 -0.769,0.413c0.331,0.091 0.627,0.233 0.887,0.424c0.26,0.191 0.524,0.44 0.792,0.746l15.425,15.6l-1.964,0c-0.41,0 -0.702,-0.058 -0.875,-0.172c-0.174,-0.115 -0.355,-0.264 -0.544,-0.448l-14.171,-14.04c-0.173,-0.168 -0.331,-0.313 -0.473,-0.436c-0.142,-0.122 -0.303,-0.225 -0.485,-0.309c-0.181,-0.084 -0.398,-0.146 -0.65,-0.184c-0.253,-0.038 -0.568,-0.057 -0.947,-0.057l-2.152,0l0,15.646l-2.413,0l0,-32.508l2.413,0l0,15.027Z" style="fill:#fff;fill-rule:nonzero;"/><path d="M505.251,56.269l-1.868,0c-0.221,0 -0.403,-0.058 -0.545,-0.172c-0.142,-0.115 -0.252,-0.264 -0.331,-0.448l-3.95,-9.429l-16.442,0l-3.927,9.429c-0.063,0.169 -0.173,0.314 -0.331,0.436c-0.158,0.123 -0.347,0.184 -0.568,0.184l-1.845,0l13.697,-32.462l2.413,0l13.697,32.462Zm-22.403,-11.792l14.999,0l-6.837,-16.403c-0.11,-0.26 -0.221,-0.554 -0.331,-0.883c-0.111,-0.329 -0.221,-0.677 -0.331,-1.044c-0.111,0.367 -0.221,0.715 -0.332,1.044c-0.11,0.329 -0.22,0.631 -0.331,0.906l-6.837,16.38Z" style="fill:#fff;fill-rule:nonzero;"/></svg>