<?xml version="1.0" encoding="UTF-8" standalone="no"?><!DOCTYPE svg PUBLIC "-//W3C//DTD SVG 1.1//EN" "http://www.w3.org/Graphics/SVG/1.1/DTD/svg11.dtd"><svg width="100%" height="100%" viewBox="0 0 120 40" version="1.1" xmlns="http://www.w3.org/2000/svg" xmlns:xlink="http://www.w3.org/1999/xlink" xml:space="preserve" xmlns:serif="http://www.serif.com/" style="fill-rule:evenodd;clip-rule:evenodd;stroke-linejoin:round;stroke-miterlimit:1.41421;"><g><path d="M72.49,18.882l-14.163,0l0,13.418l-39.507,0l0,-24.6l53.67,0l0,11.182Zm-16.019,1.118l-10.816,-10.816l-10.816,10.816l10.816,10.816l10.816,-10.816Z" style="fill:#fff;"/><path d="M46.196,15.146c1.018,0.09 1.757,0.289 2.216,0.595l0,1.853l-0.797,0.027l-0.311,-1.095c-0.37,-0.19 -0.852,-0.285 -1.447,-0.285c-1.216,0 -1.824,0.389 -1.824,1.163c0,0.433 0.164,0.791 0.493,1.075c0.329,0.284 0.84,0.552 1.534,0.804c1.695,0.622 2.542,1.614 2.542,2.975c0,0.694 -0.203,1.278 -0.608,1.751c-0.406,0.473 -1.001,0.764 -1.785,0.871l0.216,1.921l-1.5,0l0.216,-1.88c-0.414,-0.027 -0.816,-0.099 -1.203,-0.216c-0.604,-0.181 -1.014,-0.365 -1.23,-0.554l0,-1.933l0.811,0l0.378,1.256c0.352,0.28 0.924,0.419 1.717,0.419c0.514,0 0.926,-0.134 1.237,-0.405c0.311,-0.27 0.467,-0.61 0.467,-1.02c0,-0.411 -0.17,-0.799 -0.507,-1.163c-0.338,-0.365 -0.918,-0.701 -1.737,-1.008c-1.551,-0.585 -2.326,-1.406 -2.326,-2.46c0,-0.784 0.225,-1.404 0.676,-1.859c0.451,-0.455 1.023,-0.728 1.717,-0.818l-0.216,-1.961l1.5,0l-0.229,1.947Z" style="fill:#fff;fill-rule:nonzero;"/><g><rect x="59.817" y="27.082" width="12.672" height="5.218" style="fill:#fff;"/><rect x="73.981" y="27.082" width="14.163" height="5.218" style="fill:#fff;"/><rect x="73.981" y="20.373" width="14.163" height="5.218" style="fill:#fff;"/><rect x="73.981" y="13.664" width="14.163" height="5.218" style="fill:#fff;"/><rect x="89.635" y="27.082" width="14.163" height="5.218" style="fill:#fff;"/><rect x="59.817" y="20.373" width="12.672" height="5.218" style="fill:url(#_Linear1);"/></g></g><defs><linearGradient id="_Linear1" x1="0" y1="0" x2="1" y2="0" gradientUnits="userSpaceOnUse" gradientTransform="matrix(12.6721,0,0,12.6721,59.8177,22.9816)"><stop offset="0" style="stop-color:#fff;stop-opacity:1"/><stop offset="1" style="stop-color:#fff;stop-opacity:1"/></linearGradient></defs></svg>