<?xml version="1.0" encoding="UTF-8" standalone="no"?><!DOCTYPE svg PUBLIC "-//W3C//DTD SVG 1.1//EN" "http://www.w3.org/Graphics/SVG/1.1/DTD/svg11.dtd"><svg width="100%" height="100%" viewBox="0 0 120 40" version="1.1" xmlns="http://www.w3.org/2000/svg" xmlns:xlink="http://www.w3.org/1999/xlink" xml:space="preserve" xmlns:serif="http://www.serif.com/" style="fill-rule:evenodd;clip-rule:evenodd;stroke-linejoin:round;stroke-miterlimit:1.41421;"><g><path d="M25.081,24.556l0.214,-0.022l0.225,-0.034l0.528,-0.068l0.585,-0.124l0.596,-0.134l0.586,-0.169l0.607,-0.18l0.608,-0.214l0.461,-0.146l0.191,-0.089l0.18,-0.114l0.157,-0.146l0.146,-0.157l0.113,-0.191l2.913,-6.12l4.669,11.632l0.056,0.135l0.079,0.123l0.101,0.113l0.112,0.09l0.136,0.078l0.134,0.045l0.147,0.034l0.146,0l3.971,0.012l-7.267,-15.58l-4.297,0l-6.097,11.226Z" style="fill:#fff;fill-rule:nonzero;"/><path d="M45.442,14.264l0,-2.813l-7.098,3.87l-0.068,0.034l-0.146,0.056l-0.158,0.045l-0.146,0l-0.124,-0.022l-0.135,-0.045l-0.112,-0.046l-0.045,-0.022l0.056,0.18l0.112,0.36l0.147,0.371l0.191,0.372l0.225,0.337l0.236,0.281l0.225,0.203l0.203,0.112l0.191,0.045l0.192,0l0.179,-0.022l0.135,-0.046l0.112,-0.044l0.046,-0.034l5.782,-3.172Z" style="fill:#fff;fill-rule:nonzero;"/><path d="M59.671,23.915l-0.079,0l-0.068,0.011l-0.066,0.011l-0.046,0.023l-0.056,0.034l-0.044,0.034l-0.046,0.045l-0.034,0.055l-0.54,0.912l2.441,0l0,1.608l-0.191,0.057l-0.169,0.045l-0.157,0.034l-0.169,0.033l-0.157,0.034l-0.214,0.022l-0.169,0.023l-0.146,0.012l-0.484,0l-0.168,-0.023l-0.237,-0.023l-0.146,-0.022l-0.146,-0.035l-0.146,-0.032l-0.146,-0.046l-0.135,-0.056l-0.169,-0.09l-0.135,-0.079l-0.113,-0.089l-0.112,-0.091l-0.113,-0.101l-0.101,-0.101l-0.101,-0.113l-0.079,-0.123l-0.101,-0.169l-0.067,-0.135l-0.057,-0.146l-0.045,-0.147l-0.034,-0.146l-0.033,-0.158l-0.023,-0.145l-0.011,-0.158l0,-0.45l0.022,-0.146l0.034,-0.135l0.045,-0.147l0.045,-0.134l0.057,-0.135l0.067,-0.135l0.056,-0.079l0.09,-0.124l0.101,-0.113l0.102,-0.112l0.112,-0.101l0.112,-0.09l0.158,-0.101l0.135,-0.079l0.147,-0.078l0.157,-0.057l0.146,-0.057l0.214,-0.055l0.168,-0.034l0.169,-0.023l0.158,-0.022l0.169,-0.012l0.168,-0.011l0.169,-0.012l0.158,0l0.168,0.012l0.169,0.011l0.169,0.023l0.168,0.023l0.169,0.022l0.169,0.034l0.169,0.022l0.168,0.034l0.169,0.045l0.169,0.034l0.169,0.045l0.157,0.044l0.169,0.046l0.078,0.022l0,-1.17l-0.191,-0.056l-0.158,-0.056l-0.169,-0.045l-0.168,-0.034l-0.158,-0.034l-0.168,-0.034l-0.169,-0.033l-0.304,-0.045l-0.168,-0.023l-0.169,-0.022l-0.169,-0.012l-0.169,-0.011l-0.157,-0.011l-0.855,0l-0.169,0.011l-0.168,0.011l-0.169,0.023l-0.158,0.023l-0.157,0.022l-0.169,0.045l-0.157,0.045l-0.214,0.057l-0.157,0.045l-0.146,0.055l-0.158,0.068l-0.135,0.068l-0.146,0.067l-0.136,0.091l-0.135,0.078l-0.157,0.112l-0.123,0.102l-0.124,0.1l-0.113,0.114l-0.112,0.123l-0.113,0.112l-0.09,0.124l-0.09,0.136l-0.09,0.134l-0.078,0.135l-0.102,0.191l-0.056,0.136l-0.056,0.157l-0.056,0.146l-0.034,0.157l-0.045,0.158l-0.022,0.158l-0.023,0.157l-0.011,0.202l0,0.316l0.022,0.157l0.023,0.169l0.022,0.157l0.045,0.158l0.034,0.157l0.056,0.146l0.056,0.147l0.079,0.168l0.068,0.146l0.157,0.271l0.09,0.135l0.101,0.123l0.09,0.123l0.112,0.114l0.136,0.123l0.135,0.101l0.135,0.091l0.146,0.089l0.146,0.079l0.146,0.079l0.146,0.079l0.158,0.056l0.147,0.067l0.157,0.057l0.18,0.056l0.169,0.033l0.168,0.034l0.338,0.046l0.169,0.022l0.18,0.011l0.157,0.023l0.18,0.011l0.169,0l0.292,0.011l0.169,-0.011l0.157,0l0.169,-0.011l0.18,-0.011l0.169,-0.012l0.168,-0.022l0.169,-0.023l0.169,-0.023l0.18,-0.011l0.157,-0.034l0.169,-0.022l0.169,-0.033l0.169,-0.034l0.168,-0.023l0.169,-0.045l0.169,-0.045l0.169,-0.033l0.168,-0.046l0.146,-0.045l0,-3.588l-2.958,0Zm6.704,-10.708l0.124,0.011l0.146,0.034l0.113,0.033l0.09,0.034l0.101,0.056l0.079,0.056l0.079,0.068l0.078,0.079l0.079,0.101l0.045,0.101l0.045,0.09l0.022,0.101l0.023,0.113l0,0.158l-0.011,0.1l-0.023,0.091l-0.034,0.101l-0.056,0.089l-0.067,0.091l-0.068,0.089l-0.112,0.102l-0.101,0.067l-0.113,0.057l-0.113,0.034l-0.112,0.045l-0.113,0.022l-0.123,0.011l-1.114,0l-0.056,0.011l-0.068,0.023l-0.044,0.011l-0.057,0.034l-0.045,0.045l-0.034,0.044l-0.022,0.023l-0.506,0.923l1.597,-0.011l1.62,2.418l1.912,0l-1.856,-2.824l0.158,-0.044l0.134,-0.057l0.136,-0.067l0.18,-0.09l0.123,-0.079l0.113,-0.078l0.112,-0.091l0.102,-0.101l0.089,-0.112l0.113,-0.147l0.078,-0.112l0.068,-0.124l0.046,-0.124l0.044,-0.112l0.034,-0.124l0.011,-0.146l0.012,-0.135l0,-0.101l-0.012,-0.135l-0.023,-0.135l-0.033,-0.135l-0.045,-0.136l-0.045,-0.134l-0.068,-0.135l-0.078,-0.124l-0.091,-0.124l-0.089,-0.112l-0.102,-0.101l-0.101,-0.102l-0.112,-0.089l-0.124,-0.091l-0.124,-0.067l-0.135,-0.068l-0.134,-0.056l-0.135,-0.045l-0.136,-0.045l-0.146,-0.034l-0.146,-0.011l-0.146,-0.011l-0.146,-0.012l-0.124,0.012l-4.747,0l0,6.558l1.71,0l0,-5.455l2.373,-0.012l0.101,0.012Zm8.122,-1.508l0.933,-1.08l-1.597,0l-0.528,1.08l1.192,0Zm17.548,6.985l1.721,0l0,-5.399l1.923,0l0.057,-0.012l0.067,-0.011l0.045,-0.01l0.045,-0.023l0.034,-0.022l0.023,-0.034l0.034,-0.034l0.011,-0.034l0.022,-0.045l0.011,-0.022l0.011,-0.012l0.315,-0.888l-6.187,0l-0.056,0.022l-0.044,0.012l-0.046,0.033l-0.045,0.034l-0.034,0.033l-0.033,0.046l-0.022,0.045l-0.012,0.023l-0.439,0.899l2.599,0l0,5.399Zm-22.509,6.233l0.135,-0.046l0.136,-0.045l0.123,-0.067l0.169,-0.09l0.112,-0.068l0.102,-0.09l0.101,-0.09l0.089,-0.101l0.079,-0.112l0.079,-0.113l0.067,-0.124l0.046,-0.135l0.045,-0.134l0.033,-0.135l0.022,-0.147l0.012,-0.146l0,-0.124l-0.012,-0.146l-0.022,-0.135l-0.022,-0.135l-0.045,-0.135l-0.045,-0.124l-0.068,-0.135l-0.056,-0.09l-0.079,-0.123l-0.09,-0.113l-0.101,-0.102l-0.101,-0.101l-0.169,-0.123l-0.135,-0.079l-0.134,-0.067l-0.147,-0.068l-0.236,-0.079l-0.158,-0.044l-0.168,-0.034l-0.158,-0.034l-0.157,-0.023l-0.169,-0.023l-0.169,-0.011l-0.168,-0.011l-4.197,0l0,6.57l1.721,0l0,-5.378l2.296,0l0.078,0.012l0.113,0.011l0.112,0.023l0.101,0.033l0.135,0.068l0.09,0.045l0.068,0.056l0.067,0.057l0.068,0.101l0.045,0.09l0.044,0.101l0.034,0.101l0.023,0.09l0.011,0.09l0,0.057l-0.011,0.089l-0.011,0.102l-0.034,0.078l-0.045,0.102l-0.056,0.101l-0.068,0.079l-0.112,0.124l-0.102,0.056l-0.101,0.067l-0.101,0.045l-0.124,0.045l-0.112,0.022l-0.112,0.023l-1.103,0l-0.045,0.011l-0.045,0.022l-0.056,0.023l-0.046,0.023l-0.044,0.034l-0.045,0.033l-0.034,0.034l-0.034,0.034l-0.023,0.045l-0.449,0.843l1.496,0l1.721,2.408l1.867,0l-1.878,-2.824l0.157,-0.044Zm-20.045,-3.713l-3.341,6.581l1.845,0l0.686,-1.486l2.003,0l0.078,-0.022l0.079,-0.022l0.067,-0.034l0.068,-0.045l0.056,-0.056l0.056,-0.056l0.045,-0.068l0.012,-0.023l0.517,-0.854l-2.441,0l1.372,-2.881l2.475,5.525l1.777,0l-3.037,-6.559l-2.317,0Zm39.191,-9.089l-1.676,0l0,6.569l1.676,0l0,-6.569Zm-33.488,5.613l0.124,0.112l0.248,0.203l0.134,0.091l0.135,0.089l0.135,0.091l0.147,0.078l0.146,0.068l0.112,0.044l0.157,0.045l0.158,0.057l0.158,0.045l0.168,0.044l0.157,0.034l0.169,0.023l0.158,0.034l0.202,0.023l0.338,0.022l0.168,0l0.169,0.011l0.169,0l0.169,-0.011l0.248,-0.011l0.169,-0.011l0.168,-0.012l0.158,-0.022l0.168,-0.023l0.158,-0.034l0.157,-0.034l0.169,-0.033l0.157,-0.034l0.169,-0.056l0.157,-0.034l0.158,-0.056l0.157,-0.057l0.124,-0.033l0,-1.237l-0.067,0.033l-0.158,0.056l-0.157,0.068l-0.158,0.045l-0.157,0.056l-0.158,0.045l-0.168,0.034l-0.237,0.045l-0.146,0.022l-0.168,0.023l-0.158,0.022l-0.157,0.012l-0.169,0.011l-0.338,0l-0.157,0.011l-0.147,-0.011l-0.157,-0.011l-0.146,-0.023l-0.158,-0.034l-0.146,-0.045l-0.169,-0.044l-0.135,-0.046l-0.134,-0.056l-0.125,-0.067l-0.123,-0.079l-0.113,-0.078l-0.113,-0.091l-0.146,-0.135l-0.089,-0.112l-0.091,-0.113l-0.089,-0.124l-0.068,-0.123l-0.056,-0.135l-0.056,-0.136l-0.057,-0.213l-0.033,-0.146l-0.022,-0.158l0,-0.45l0.022,-0.146l0.033,-0.214l0.034,-0.135l0.045,-0.146l0.045,-0.134l0.068,-0.125l0.068,-0.123l0.111,-0.158l0.102,-0.112l0.101,-0.102l0.124,-0.101l0.112,-0.09l0.124,-0.09l0.203,-0.112l0.135,-0.068l0.157,-0.056l0.146,-0.045l0.158,-0.045l0.214,-0.045l0.157,-0.011l0.169,-0.023l0.495,0l0.236,0.011l0.169,0.012l0.168,0.022l0.169,0.023l0.147,0.023l0.168,0.033l0.158,0.033l0.169,0.046l0.157,0.034l0.157,0.056l0.158,0.044l0.078,0.034l0.191,0.057l0.012,-1.226l-0.101,-0.023l-0.158,-0.045l-0.157,-0.056l-0.169,-0.045l-0.157,-0.034l-0.169,-0.045l-0.157,-0.033l-0.169,-0.034l-0.191,-0.034l-0.169,-0.023l-0.157,-0.022l-0.169,-0.022l-0.169,-0.011l-0.169,-0.012l-0.652,0l-0.158,0.012l-0.169,0.011l-0.169,0.022l-0.157,0.022l-0.158,0.034l-0.157,0.034l-0.158,0.045l-0.157,0.045l-0.18,0.056l-0.146,0.057l-0.146,0.055l-0.158,0.068l-0.134,0.079l-0.147,0.079l-0.135,0.079l-0.135,0.089l-0.123,0.101l-0.124,0.102l-0.113,0.101l-0.112,0.113l-0.113,0.112l-0.101,0.124l-0.101,0.123l-0.091,0.136l-0.089,0.123l-0.068,0.146l-0.078,0.135l-0.091,0.214l-0.056,0.146l-0.045,0.146l-0.045,0.158l-0.034,0.157l-0.034,0.158l-0.01,0.225l-0.011,0.157l0,0.315l0.044,0.315l0.022,0.158l0.046,0.147l0.045,0.157l0.078,0.224l0.068,0.147l0.067,0.135l0.079,0.146l0.079,0.135l0.09,0.124l0.089,0.124l0.102,0.135l0.135,0.123Zm17.312,10.057l1.732,0l0,-6.559l-1.721,0l-0.011,6.559Zm20.686,-6.559l-1.608,0l0,6.559l5.118,0l0.495,-1.17l-4.005,0l0,-5.389Zm-15.647,-3.689l-5.253,0l0,-4.308l5.005,0l-0.415,-1.125l-6.254,0l0,6.558l6.355,0l0.562,-1.125Zm24.072,9.056l-2.125,0l0,-4.241l5.005,0l-0.393,-1.148l-6.334,0l0,6.57l6.469,0l0.517,-1.181l-3.139,0Z" style="fill:#fff;fill-rule:nonzero;"/><path d="M100.707,23.859l-0.045,0.011l-0.057,0l-0.067,0.012l-0.057,0.022l-0.045,0.033l-0.056,0.034l-0.045,0.046l-0.011,0.022l-0.652,0.967l2.868,0l0.045,-0.011l0.056,-0.012l0.056,-0.022l0.057,-0.023l0.044,-0.033l0.046,-0.045l0.022,-0.034l0.698,-0.967l-2.857,0Zm-9.753,0.427l-0.011,-0.158l-0.023,-0.123l-0.023,-0.157l-0.033,-0.147l-0.046,-0.157l-0.044,-0.147l-0.068,-0.146l-0.056,-0.147l-0.078,-0.135l-0.08,-0.134l-0.101,-0.135l-0.101,-0.124l-0.101,-0.124l-0.112,-0.123l-0.113,-0.112l-0.124,-0.114l-0.123,-0.101l-0.147,-0.101l-0.135,-0.09l-0.147,-0.09l-0.146,-0.078l-0.157,-0.069l-0.146,-0.078l-0.147,-0.056l-0.157,-0.056l-0.158,-0.056l-0.157,-0.045l-0.157,-0.046l-0.169,-0.033l-0.158,-0.034l-0.168,-0.033l-0.169,-0.012l-0.158,-0.011l-0.157,-0.011l-0.147,0l-0.056,-0.012l-0.079,0l-0.135,0.012l-0.134,0l-0.158,0.011l-0.157,0.011l-0.169,0.012l-0.158,0.022l-0.168,0.034l-0.158,0.033l-0.158,0.034l-0.158,0.046l-0.157,0.045l-0.146,0.055l-0.146,0.068l-0.158,0.068l-0.135,0.067l-0.157,0.101l-0.124,0.079l-0.135,0.101l-0.123,0.101l-0.124,0.101l-0.113,0.114l-0.113,0.123l-0.1,0.112l-0.114,0.146l-0.089,0.125l-0.09,0.134l-0.079,0.135l-0.068,0.147l-0.055,0.146l-0.067,0.146l-0.045,0.158l-0.057,0.213l-0.022,0.158l-0.022,0.169l-0.023,0.157l0,0.45l0.023,0.169l0.011,0.158l0.033,0.157l0.034,0.158l0.034,0.146l0.057,0.169l0.055,0.157l0.068,0.146l0.068,0.135l0.078,0.147l0.091,0.135l0.135,0.202l0.1,0.124l0.113,0.112l0.113,0.124l0.112,0.113l0.123,0.101l0.147,0.112l0.135,0.09l0.135,0.079l0.146,0.09l0.146,0.067l0.158,0.079l0.146,0.057l0.158,0.067l0.214,0.056l0.157,0.046l0.169,0.033l0.168,0.033l0.158,0.023l0.169,0.023l0.157,0.011l0.169,0.023l0.168,0l0.147,0.011l0.18,0l0.169,-0.011l0.168,-0.011l0.169,-0.012l0.158,-0.023l0.27,-0.045l0.157,-0.033l0.158,-0.033l0.157,-0.046l0.158,-0.045l0.157,-0.067l0.147,-0.057l0.146,-0.068l0.213,-0.112l0.147,-0.078l0.135,-0.079l0.124,-0.09l0.124,-0.101l0.123,-0.101l0.113,-0.114l0.112,-0.111l0.147,-0.18l0.09,-0.135l0.089,-0.135l0.08,-0.146l0.067,-0.136l0.068,-0.146l0.055,-0.158l0.057,-0.146l0.034,-0.157l0.045,-0.158l0.022,-0.157l0.022,-0.157l0.023,-0.169l0.011,-0.158l0,-0.09l-0.011,-0.158l-0.012,-0.169Zm-1.845,0.282l0,0.135l-0.011,0.157l-0.022,0.158l-0.023,0.123l-0.034,0.157l-0.034,0.158l-0.056,0.146l-0.056,0.147l-0.057,0.146l-0.078,0.146l-0.079,0.124l-0.101,0.112l-0.102,0.102l-0.1,0.101l-0.113,0.102l-0.135,0.078l-0.124,0.079l-0.134,0.056l-0.135,0.045l-0.136,0.045l-0.134,0.034l-0.214,0.033l-0.158,0.011l-0.292,0l-0.158,-0.022l-0.146,-0.022l-0.146,-0.034l-0.146,-0.045l-0.147,-0.045l-0.146,-0.056l-0.169,-0.091l-0.124,-0.078l-0.112,-0.09l-0.113,-0.101l-0.101,-0.102l-0.157,-0.19l-0.079,-0.114l-0.068,-0.123l-0.068,-0.135l-0.055,-0.135l-0.057,-0.146l-0.045,-0.147l-0.034,-0.146l-0.033,-0.214l-0.023,-0.157l0,-0.305l0.023,-0.191l0.022,-0.168l0.023,-0.158l0.034,-0.146l0.045,-0.158l0.056,-0.134l0.056,-0.146l0.079,-0.124l0.067,-0.136l0.102,-0.112l0.089,-0.112l0.102,-0.102l0.112,-0.089l0.169,-0.124l0.123,-0.068l0.136,-0.068l0.135,-0.055l0.135,-0.046l0.134,-0.033l0.226,-0.035l0.213,-0.022l0.147,0l0.067,-0.011l0.225,0.022l0.27,0.046l0.135,0.033l0.147,0.046l0.134,0.055l0.124,0.057l0.134,0.079l0.114,0.078l0.112,0.09l0.112,0.101l0.102,0.101l0.101,0.113l0.079,0.124l0.078,0.123l0.056,0.136l0.057,0.135l0.055,0.135l0.035,0.134l0.022,0.113l0.023,0.158l0.023,0.157l0.022,0.146l0,0.159l0,0Zm-15.524,-9.776l-0.055,0l-0.068,0.011l-0.079,0.012l-0.056,0.034l-0.068,0.022l-0.045,0.045l-0.056,0.056l-0.697,0.946l2.778,0l0.068,-0.012l0.068,-0.011l0.055,-0.023l0.068,-0.034l0.057,-0.044l0.044,-0.034l0.045,-0.056l0.034,-0.034l0.607,-0.878l-2.7,0Zm9.506,3.757l0.225,-0.056l0.158,-0.056l0.146,-0.056l0.146,-0.056l0.146,-0.079l0.225,-0.124l0.135,-0.079l0.123,-0.078l0.136,-0.091l0.112,-0.1l0.113,-0.113l0.101,-0.101l0.135,-0.158l0.09,-0.123l0.079,-0.125l0.078,-0.134l0.079,-0.146l0.056,-0.147l0.068,-0.168l0.034,-0.169l0.045,-0.157l0.033,-0.158l0.023,-0.157l0.011,-0.157l0.011,-0.169l0.012,-0.147l0.011,-0.147l0,-0.123l-0.011,-0.146l-0.023,-0.158l-0.023,-0.157l-0.033,-0.146l-0.045,-0.158l-0.045,-0.146l-0.057,-0.147l-0.067,-0.146l-0.068,-0.135l-0.078,-0.135l-0.091,-0.135l-0.112,-0.157l-0.101,-0.125l-0.113,-0.112l-0.112,-0.112l-0.124,-0.102l-0.124,-0.078l-0.123,-0.09l-0.124,-0.079l-0.135,-0.079l-0.124,-0.067l-0.135,-0.068l-0.135,-0.056l-0.146,-0.056l-0.134,-0.045l-0.147,-0.045l-0.135,-0.045l-0.147,-0.033l-0.146,-0.034l-0.146,-0.023l-0.135,-0.023l-0.146,-0.011l-0.136,-0.011l-0.146,-0.012l-0.045,0l-0.09,0.012l-3.475,0l0,6.558l3.847,0l0.157,-0.011l0.158,-0.022l0.157,-0.023l0.169,-0.034l0.158,-0.034Zm-0.405,-1.113l-0.135,0.045l-0.135,0.033l-0.135,0.023l-0.134,0.023l-2.014,0l0,-4.353l1.654,0l0.157,0.011l0.067,0l0.079,0.011l0.135,0.033l0.146,0.034l0.135,0.045l0.136,0.056l0.134,0.068l0.124,0.067l0.123,0.079l0.125,0.09l0.101,0.101l0.09,0.079l0.101,0.112l0.078,0.113l0.079,0.124l0.057,0.123l0.067,0.135l0.045,0.124l0.034,0.147l0.023,0.09l0.033,0.146l0.022,0.146l0,0.417l-0.022,0.146l-0.022,0.146l-0.045,0.146l-0.034,0.124l-0.046,0.147l-0.055,0.146l-0.068,0.134l-0.079,0.135l-0.078,0.135l-0.09,0.124l-0.09,0.113l-0.09,0.1l-0.113,0.079l-0.112,0.079l-0.124,0.067l-0.124,0.057Zm-0.675,8.931l-0.124,0.046l-0.169,0.044l-0.157,0.045l-0.169,0.045l-0.168,0.034l-0.158,0.034l-0.169,0.033l-0.168,0.012l-0.146,0.022l-0.169,0.023l-0.158,0.011l-0.157,0.011l-0.169,0l-0.157,-0.011l-0.169,-0.011l-0.214,-0.012l-0.146,-0.022l-0.157,-0.023l-0.136,-0.033l-0.146,-0.056l-0.135,-0.045l-0.157,-0.079l-0.135,-0.068l-0.113,-0.079l-0.124,-0.078l-0.112,-0.09l-0.135,-0.147l-0.09,-0.112l-0.09,-0.112l-0.079,-0.125l-0.067,-0.123l-0.057,-0.134l-0.067,-0.226l-0.033,-0.158l-0.011,-0.157l-0.012,-0.146l0,-0.157l0.012,-0.158l0.011,-0.146l0.022,-0.146l0.022,-0.147l0.045,-0.135l0.045,-0.135l0.056,-0.123l0.091,-0.157l0.078,-0.125l0.09,-0.123l0.101,-0.101l0.102,-0.102l0.112,-0.101l0.124,-0.09l0.135,-0.079l0.135,-0.068l0.146,-0.066l0.146,-0.057l0.146,-0.045l0.169,-0.034l0.158,-0.022l0.157,-0.023l0.169,-0.011l0.157,-0.011l0.214,0.011l0.158,0.011l0.18,0.023l0.168,0.011l0.158,0.033l0.168,0.023l0.169,0.034l0.158,0.045l0.168,0.045l0.158,0.045l0.168,0.045l0.158,0.057l0.158,0.055l0.011,0l0.18,0.068l0,-1.26l-0.056,-0.022l-0.124,-0.045l-0.033,-0.012l-0.158,-0.056l-0.169,-0.056l-0.158,-0.045l-0.202,-0.045l-0.157,-0.034l-0.169,-0.034l-0.168,-0.022l-0.169,-0.022l-0.327,-0.034l-0.168,-0.012l-0.169,-0.011l-0.169,-0.011l-0.202,-0.012l-0.326,0l-0.169,0.012l-0.169,0.011l-0.259,0.034l-0.169,0.023l-0.157,0.033l-0.158,0.033l-0.157,0.046l-0.146,0.056l-0.203,0.078l-0.146,0.057l-0.146,0.079l-0.135,0.079l-0.147,0.078l-0.123,0.09l-0.158,0.124l-0.123,0.102l-0.113,0.101l-0.124,0.111l-0.101,0.125l-0.101,0.123l-0.147,0.18l-0.089,0.147l-0.079,0.135l-0.079,0.146l-0.056,0.146l-0.057,0.113l-0.055,0.157l-0.046,0.146l-0.033,0.158l-0.034,0.157l-0.033,0.259l-0.012,0.158l0,0.315l0.012,0.202l0.021,0.158l0.102,0.472l0.078,0.203l0.057,0.146l0.068,0.146l0.078,0.135l0.079,0.146l0.112,0.18l0.101,0.124l0.102,0.124l0.101,0.123l0.124,0.112l0.158,0.136l0.123,0.101l0.135,0.101l0.135,0.079l0.157,0.101l0.147,0.068l0.158,0.067l0.157,0.056l0.146,0.057l0.158,0.045l0.314,0.067l0.169,0.022l0.338,0.046l0.168,0.011l0.259,0.011l0.168,0.012l0.338,0l0.169,-0.012l0.168,0l0.18,-0.022l0.158,-0.011l0.147,-0.012l0.169,-0.023l0.168,-0.022l0.169,-0.034l0.157,-0.033l0.169,-0.045l0.169,-0.046l0.157,-0.045l0.158,-0.044l0.067,-0.023l0.011,-0.011l0.18,-0.056l0.011,-1.227l-0.168,0.068l-0.034,0.011Z" style="fill:#fff;fill-rule:nonzero;"/><path d="M45.442,18.966l0,-3.33l-2.34,1.328l-2.261,1.27l-2.116,1.17l-1.923,1.047l-1.732,0.922l-1.553,0.799l-1.416,0.686l-1.272,0.573l-1.192,0.506l-1.136,0.417l-1.125,0.371l-1.091,0.315l-1.092,0.258l-1.056,0.226l-1.002,0.168l-0.945,0.135l-0.844,0.091l-0.753,0.044l-0.63,0.034l-0.551,-0.023l-0.832,-0.089l-0.574,-0.135l-0.417,-0.169l-0.337,-0.225l-0.27,-0.259l-0.214,-0.304l-0.124,-0.337l-0.045,-0.393l0.045,-0.473l0.169,-0.539l0.27,-0.586l0.36,-0.596l0.451,-0.596l0.506,-0.574l0.517,-0.529l0.528,-0.461l0.574,-0.45l0.641,-0.483l0.664,-0.439l0.641,-0.394l0.664,-0.371l0.686,-0.349l0.686,-0.303l0.697,-0.282l0.664,-0.225l0.619,-0.191l0.551,-0.123l0.507,-0.08l0.506,-0.022l0.528,0.045l0.282,0.034l-0.146,-0.518l-0.259,-0.877l-0.203,-0.619l-0.158,-0.371l-0.123,-0.203l-0.124,-0.123l-0.135,-0.091l-0.213,-0.078l-0.338,-0.034l-0.483,0.023l-0.608,0.078l-0.687,0.147l-0.708,0.202l-0.742,0.27l-0.72,0.304l-0.687,0.315l-0.663,0.349l-0.653,0.371l-0.663,0.416l-0.686,0.462l-0.675,0.483l-0.597,0.484l-0.528,0.438l-0.473,0.451l-0.461,0.472l-0.427,0.517l-0.394,0.54l-0.349,0.551l-0.281,0.597l-0.225,0.595l-0.124,0.608l-0.056,0.585l0.045,0.631l0.112,0.663l0.18,0.663l0.237,0.63l0.269,0.574l0.315,0.507l0.372,0.494l0.428,0.45l0.461,0.394l0.494,0.338l0.552,0.269l0.652,0.236l0.776,0.214l0.832,0.147l0.855,0.089l0.844,0.023l0.81,-0.046l0.731,-0.055l0.698,-0.102l0.697,-0.123l0.698,-0.135l0.652,-0.158l0.641,-0.157l0.675,-0.202l0.697,-0.203l0.698,-0.225l0.709,-0.247l0.708,-0.271l0.709,-0.281l0.709,-0.303l0.72,-0.338l0.764,-0.371l0.44,-0.237l0.573,-0.304l0.788,-0.427l1.147,-0.619l1.586,-0.877l2.103,-1.159l2.52,-1.405l2.779,-1.53Z" style="fill:#fff;fill-rule:nonzero;"/></g></svg>