<?xml version="1.0" encoding="UTF-8" standalone="no"?><!DOCTYPE svg PUBLIC "-//W3C//DTD SVG 1.1//EN" "http://www.w3.org/Graphics/SVG/1.1/DTD/svg11.dtd"><svg width="100%" height="100%" viewBox="0 0 120 40" version="1.1" xmlns="http://www.w3.org/2000/svg" xmlns:xlink="http://www.w3.org/1999/xlink" xml:space="preserve" xmlns:serif="http://www.serif.com/" style="fill-rule:evenodd;clip-rule:evenodd;stroke-linejoin:round;stroke-miterlimit:1.41421;"><g><path id="path7" d="M68.253,26.846c-1.247,0.348 -2.872,0.492 -4.264,0.492c-3.627,0 -6.006,-1.886 -6.006,-5.337c0,-3.279 2.234,-5.396 5.484,-5.396c0.724,0 1.508,0.086 1.972,0.319l0,-4.759l2.814,0l0,14.681Zm-2.814,-7.486c-0.435,-0.203 -1.045,-0.319 -1.741,-0.319c-1.711,0 -2.843,1.045 -2.843,2.872c0,1.944 1.218,3.047 3.22,3.047c0.35,0 0.9,0 1.364,-0.116l0,-5.484Zm25.936,7.486c-1.247,0.348 -2.872,0.492 -4.293,0.492c-3.598,0 -6.006,-1.886 -6.006,-5.337c0,-3.279 2.234,-5.396 5.483,-5.396c0.755,0 1.509,0.086 1.974,0.319l0,-4.759l2.842,0l0,14.681Zm-2.842,-7.486c-0.436,-0.203 -1.017,-0.319 -1.712,-0.319c-1.741,0 -2.873,1.045 -2.873,2.872c0,1.944 1.248,3.047 3.25,3.047c0.348,0 0.87,0 1.335,-0.116l0,-5.484Zm-15.841,0c0.464,-0.203 1.132,-0.26 1.682,-0.26c1.741,0 2.931,0.986 2.931,2.755c0,2.09 -1.335,3.048 -3.104,3.076l0,2.407l0.144,0c3.657,0 5.833,-2.001 5.833,-5.57c0,-3.249 -2.322,-5.163 -5.745,-5.163c-1.741,0 -3.453,0.406 -4.585,0.87l0,13.779l2.844,0l0,-11.894Z" style="fill:#fff;"/><path d="M38.42,23.903l0,4.884c0,0.126 0.075,0.252 0.176,0.302l0.553,0.303l0.004,0.004l0.046,0.021c0.051,0.026 0.101,0.05 0.177,0.05l0.026,0c0.01,0 0.023,-0.003 0.039,-0.008l-0.015,-0.016c0.051,0 0.101,0 0.152,-0.026l0.176,-0.101l0.003,0.004l0.223,-0.129l0.003,0.003l0.174,-0.105c0.008,-0.002 0.016,-0.006 0.024,-0.011c0,-0.002 0,-0.007 0,-0.013l0.009,0.009c0.049,-0.03 0.096,-0.089 0.123,-0.154l-0.006,-0.007c0.006,-0.005 0.011,-0.011 0.016,-0.019c0.004,-0.01 0.007,-0.021 0.01,-0.031l0.005,0.007c0.011,-0.025 0.02,-0.054 0.02,-0.083l0,-1.082l0,-0.277l0,-0.881l0,-0.278l0,-0.503l0,-1.057l0,-1.26l0,-0.276l0,-2.82l0,-0.377l0,-0.303l0,-0.026c0,-0.025 -0.025,-0.05 -0.025,-0.075l0.02,0.023c-0.024,-0.107 -0.11,-0.206 -0.196,-0.25l-0.19,-0.126l-0.691,-0.377l-0.034,-0.039l-0.621,-0.339l-0.04,-0.045l-0.465,-0.262l0.026,0.03l-0.674,-0.399l0.019,0.022l-0.673,-0.401l0.019,0.023l-0.806,-0.453l-0.016,-0.019l-0.638,-0.359l-0.034,-0.039l-0.452,-0.247l0.007,0.009l-0.151,-0.087l-0.025,-0.014l-0.002,-0.001l-0.653,-0.377l0,-0.001l-0.536,-0.308l-0.748,-0.421l-0.016,-0.018l-0.639,-0.36l-0.015,-0.018l-0.514,-0.288l0.026,0.03l-0.806,-0.479l-0.001,-0.001l-0.502,-0.289l-0.806,-0.44l-0.031,-0.039l-0.297,-0.162l0.111,-0.063l-0.01,-0.013l0.302,-0.151l0.014,0.016l0.164,-0.09l-0.002,-0.001l0.228,-0.124l0,-0.002l0.228,-0.124l-0.002,-0.002l0.227,-0.125l0,-0.001l0.227,-0.125l-0.001,-0.001l0.277,-0.151l0.013,0.016l0.165,-0.09l-0.001,-0.002l0.227,-0.123l-0.001,-0.002l0.228,-0.125l-0.001,-0.001l0.228,-0.124l-0.002,-0.002l0.228,-0.124l-0.001,-0.002l0.277,-0.151l0.014,0.015l0.164,-0.089l-0.002,-0.002l0.227,-0.124l-0.001,-0.002l0.229,-0.124l-0.002,-0.002l0.229,-0.124l-0.002,-0.001l0.227,-0.125l0,-0.001l0.276,-0.152l0.014,0.016l0.164,-0.089l-0.001,-0.002l0.228,-0.124l-0.002,-0.002l0.228,-0.124l-0.001,-0.001l0.05,-0.026l0.184,-0.092l-0.008,-0.009l0.235,-0.117l-0.008,-0.009l0.302,-0.151l0.008,0.009l0.151,-0.076l-0.008,-0.008l0.235,-0.117l-0.008,-0.009l0.234,-0.117l-0.007,-0.009l0.234,-0.117l-0.008,-0.009l0.234,-0.117l-0.007,-0.008l0.302,-0.152l0.013,0.016l0.165,-0.09l-0.002,-0.002l0.228,-0.123l-0.001,-0.002l0.228,-0.125l-0.001,-0.001l0.228,-0.125l-0.002,-0.002l0.277,-0.15l0.01,0.012l0.216,-0.138l0.015,0.016l0.164,-0.09l-0.002,-0.002l0.227,-0.124l0,-0.002l0.227,-0.124l-0.001,-0.002l0.228,-0.123l-0.001,-0.002l0.276,-0.151l0.016,0.017l0.085,-0.043c0.015,-0.014 0.047,-0.029 0.082,-0.044l-0.006,-0.006c0.016,-0.004 0.03,-0.008 0.046,-0.011c0.011,-0.005 0.02,-0.01 0.029,-0.014l0.006,0.006c0.073,-0.018 0.148,-0.031 0.221,-0.031l0.076,0l0.001,0.002c0.118,0.008 0.222,0.037 0.326,0.098l0.151,0.077l0.008,0.009l0.476,0.253l-0.031,-0.037l0.611,0.336l-0.006,-0.008l0.78,0.428l0.008,0.01l0.596,0.317l0.005,0.004l0.625,0.324l0.024,0.027l0.58,0.3l0.008,0.009l0.596,0.318l0.005,0.005l0.625,0.323l0.008,0.009l0.596,0.318l0.008,0.009l0.596,0.318l0.004,0.005l0.626,0.323l0.007,0.009l0.597,0.318l0.008,0.009l0.597,0.318l0.003,0.005l0.626,0.323l0.007,0.008l0.598,0.319l0.005,0.005l0.473,0.247l-0.178,0.099l0.002,0.001l-0.228,0.125l0.001,0.001l-0.228,0.125l0.002,0.001l-0.229,0.125l0.002,0.001l-0.211,0.115l0.01,0.012l-0.235,0.116l0.007,0.009l-0.228,0.125l0.002,0.001l-0.228,0.124l0.002,0.002l-0.228,0.124l0.001,0.002l-0.277,0.176l-0.01,-0.012l-0.217,0.138l-0.003,-0.005l-0.223,0.131l-0.002,-0.002l-0.199,0.128l-0.011,-0.012l-0.17,0.108l0.004,0.004l-0.228,0.125l0.001,0.001l-0.227,0.125l0,0.001l-0.21,0.116l0.009,0.011l-0.234,0.117l0.007,0.008l-0.227,0.124l0.002,0.002l-0.229,0.124l0.001,0.002l-0.228,0.124l0.001,0.002l-0.227,0.123l0.002,0.002l-0.229,0.125l0.001,0.001l-0.21,0.115l0.009,0.012l-0.228,0.123l0.002,0.002l-0.229,0.125l0.002,0.001l-0.277,0.176l-0.01,-0.012l-0.216,0.138l-0.011,-0.012l-0.217,0.138l-0.01,-0.012l-0.215,0.138l-0.002,-0.002l-0.201,0.127l-0.008,-0.01l-0.092,0.061c-0.051,0.025 -0.075,0.05 -0.101,0.101l-0.003,-0.004c-0.039,0.067 -0.072,0.144 -0.072,0.206l0,0.679c0.024,0.05 0.024,0.101 0.075,0.177c0.05,0.05 0.076,0.1 0.126,0.125l0.497,0.302l-0.043,-0.05l0.126,0.101l0.024,0l0.015,0.016c0.098,0.034 0.224,0.028 0.313,-0.016l0.004,0.005c0.007,-0.004 0.014,-0.005 0.021,-0.005l0.155,-0.096l-0.004,-0.005l0.228,-0.124l-0.001,-0.002l0.228,-0.124l-0.001,-0.002l0.21,-0.114l-0.009,-0.011l0.227,-0.125l-0.001,-0.002l0.229,-0.123l-0.002,-0.002l0.228,-0.125l-0.002,-0.001l0.229,-0.125l-0.002,-0.001l0.228,-0.125l-0.001,-0.001l0.277,-0.176l0.001,0.001l0.2,-0.127l0.01,0.011l0.217,-0.137l0.01,0.012l0.216,-0.138l0.011,0.011l0.216,-0.137l0.01,0.012l0.171,-0.109l-0.005,-0.004l0.211,-0.114l-0.009,-0.011l0.228,-0.125l-0.002,-0.001l0.229,-0.124l-0.002,-0.002l0.227,-0.124l-0.001,-0.002l0.229,-0.125l-0.002,0l0.228,-0.126l-0.001,-0.001l0.21,-0.115l-0.009,-0.011l0.234,-0.117l-0.007,-0.009l0.228,-0.125l-0.001,-0.001l0.227,-0.124l-0.001,-0.002l0.228,-0.124l-0.002,-0.002l0.229,-0.124l-0.001,-0.001l0.276,-0.177l0.01,0.013l0.217,-0.138l0.003,0.005l0.098,-0.056l0,10.827c0,0.056 -0.014,0.112 -0.032,0.169l0.007,0.008c-0.021,0.081 -0.057,0.161 -0.11,0.241l0.009,0.01c-0.076,0.075 -0.152,0.176 -0.227,0.227l-0.026,0.025l-0.15,0.075l-0.211,0.115l0.009,0.011l-0.228,0.126l0.002,0l-0.229,0.125l0.002,0.001l-0.227,0.125l0.001,0.001l-0.277,0.176l-0.01,-0.011l-0.218,0.137l0,-0.001l-0.201,0.127l-0.01,-0.011l-0.169,0.108l0.003,0.003l-0.228,0.125l0.001,0.002l-0.227,0.123l0.001,0.002l-0.211,0.115l0.01,0.011l-0.228,0.125l0.001,0.002l-0.228,0.124l0.001,0.001l-0.227,0.125l0.001,0.001l-0.228,0.125l0.001,0.001l-0.277,0.176l-0.001,-0.001l-0.2,0.127l-0.01,-0.011l-0.217,0.137l-0.01,-0.011l-0.17,0.108l0.004,0.004l-0.228,0.124l0.001,0.001l-0.211,0.116l0.009,0.01l-0.227,0.125l0.002,0.002l-0.229,0.123l0.001,0.002l-0.228,0.125l0.002,0.001l-0.228,0.125l0.002,0.001l-0.278,0.176l-0.001,-0.001l-0.2,0.127l-0.01,-0.011l-0.216,0.137l-0.011,-0.011l-0.17,0.108l0.004,0.004l-0.227,0.125l0.001,0.001l-0.212,0.115l0.009,0.011l-0.227,0.124l0.002,0.002l-0.228,0.124l0.001,0.001l-0.228,0.125l0.001,0.001l-0.228,0.125l0.001,0.001l-0.21,0.116l0.009,0.01l-0.277,0.176l-0.01,-0.011l-0.216,0.137l-0.01,-0.011l-0.217,0.137l-0.01,-0.011l-0.17,0.107l0.004,0.005l-0.228,0.124l0.001,0.002l-0.211,0.115l0.009,0.011l-0.227,0.124l0.001,0.001l-0.228,0.125l0.002,0.002l-0.076,0.05c-0.075,0.025 -0.152,0.051 -0.226,0.075l-0.01,-0.01c-0.055,0.01 -0.111,0.01 -0.167,0.01l-0.075,0l-0.076,0l-0.004,-0.004c-0.081,-0.009 -0.167,-0.034 -0.223,-0.071l-0.353,-0.201l0,-0.002l-0.653,-0.376l-0.002,-0.002l-0.525,-0.302l0.022,0.026l-0.673,-0.399l0.019,0.022l-0.806,-0.478l-0.019,-0.023l-0.661,-0.38l0,-0.001l-0.654,-0.377l-0.002,-0.001l-0.653,-0.376l-0.002,-0.002l-0.652,-0.376l-0.001,-0.002l-0.526,-0.303l0.022,0.028l-0.673,-0.4l0.019,0.022l-0.831,-0.478l-0.032,-0.039l-0.623,-0.339l-0.043,-0.05l-0.611,-0.353l-0.001,-0.001l-0.5,-0.287l-0.582,-0.316c-0.079,-0.05 -0.154,-0.126 -0.217,-0.216c-0.002,-0.004 -0.006,-0.007 -0.01,-0.011l0.01,0.009c-0.096,-0.138 -0.16,-0.31 -0.16,-0.462l0,-10.827l0.201,0.101l0.033,0.039l0.452,0.246l-0.006,-0.008l0.094,0.056l0.081,0.044l0.007,0.009l0.492,0.291l-0.02,-0.022l0.673,0.4l-0.019,-0.022l0.807,0.452l0.015,0.018l0.514,0.29l-0.026,-0.031l0.806,0.479l0.001,0.002l0.502,0.288l0.806,0.44l0.039,0.046l0.465,0.262l-0.026,-0.031l0.675,0.4l-0.019,-0.023l0.673,0.401l-0.02,-0.023l0.807,0.454l0.032,0.038l0.454,0.247l-0.008,-0.008l0.151,0.086l0.025,0.015l0.001,0.001l0.654,0.376l0.006,0.006l0.372,0.221c0.05,0.024 0.101,0.1 0.101,0.15l0,3.274Z" style="fill:#fff;"/></g></svg>