<?xml version="1.0" encoding="UTF-8" standalone="no"?><!DOCTYPE svg PUBLIC "-//W3C//DTD SVG 1.1//EN" "http://www.w3.org/Graphics/SVG/1.1/DTD/svg11.dtd"><svg width="100%" height="100%" viewBox="0 0 120 40" version="1.1" xmlns="http://www.w3.org/2000/svg" xmlns:xlink="http://www.w3.org/1999/xlink" xml:space="preserve" xmlns:serif="http://www.serif.com/" style="fill-rule:evenodd;clip-rule:evenodd;stroke-linejoin:round;stroke-miterlimit:1.41421;"><g><g><path d="M25.95,27.802l4,-1.581l0,3.779l-4,0l0,-2.198Zm6,-2.372l4,-1.581l0,6.151l-4,0l0,-4.57Zm6,-2.372l4,-1.581l0,8.523l-4,0l0,-6.942Zm6,-2.372l4,-1.581l0,10.895l-4,0l0,-9.314Zm6,-2.372l4,-1.581l0,13.267l-4,0l0,-11.686Zm6,-2.372l4,-1.582l0,15.64l-4,0l0,-14.058Zm-32,14.058l-3.559,0l3.559,-1.407l0,1.407Zm-6,-5.942l-4,1.582l0,-15.64l4,0l0,14.058Zm6,-2.372l-4,1.581l0,-13.267l4,0l0,11.686Zm6,-2.372l-4,1.581l0,-10.895l4,0l0,9.314Zm6,-2.372l-4,1.581l0,-8.523l4,0l0,6.942Zm6,-2.372l-4,1.581l0,-6.151l4,0l0,4.57Zm6,-2.372l-4,1.581l0,-3.779l4,0l0,2.198Zm5.559,-2.198l-3.559,1.407l0,-1.407l3.559,0Z" style="fill:#fff;"/><path d="M16.95,30l-3,0l0,-3l43,-17l3,0l0,3l-43,17Z" style="fill:#fff;"/></g><g><path d="M65.45,36.5l-57,0l5,-5l47,0l5,5Z" style="fill:#fff;"/><path d="M8.45,3.5l57,0l-5,5l-47,0l-5,-5Z" style="fill:#fff;"/><path d="M7.45,35l0,-30l5,5l0,20l-5,5Z" style="fill:#fff;"/><path d="M66.45,5l0,30l-5,-5l0,-20l5,-5Z" style="fill:#fff;"/></g></g></svg>