<?xml version="1.0" encoding="UTF-8" standalone="no"?><!DOCTYPE svg PUBLIC "-//W3C//DTD SVG 1.1//EN" "http://www.w3.org/Graphics/SVG/1.1/DTD/svg11.dtd"><svg width="100%" height="100%" viewBox="0 0 120 40" version="1.1" xmlns="http://www.w3.org/2000/svg" xmlns:xlink="http://www.w3.org/1999/xlink" xml:space="preserve" xmlns:serif="http://www.serif.com/" style="fill-rule:evenodd;clip-rule:evenodd;stroke-linejoin:round;stroke-miterlimit:1.41421;"><g><rect x="47.345" y="13.641" width="2.319" height="12.456" style="fill:#fff;"/><path d="M59.096,26.096l-2.034,0l0,-5.91c0,-1.231 -0.543,-1.896 -1.53,-1.971c-0.614,-0.048 -1.589,0.097 -2.295,0.255l0,7.626l-2.036,0l0,-9.073c0,0 2.475,-0.552 4.71,-0.551c0.968,0.001 1.741,0.345 2.318,0.924c0.577,0.578 0.867,1.385 0.867,2.419l0,6.281Z" style="fill:#fff;fill-rule:nonzero;"/><path d="M70.322,17.908c0,1.268 -0.394,2.287 -1.177,3.058c-0.785,0.769 -1.85,1.154 -3.194,1.154l-2.818,0l0,3.976l-2.28,0l0,-12.455l4.947,0c1.457,0 2.575,0.378 3.354,1.135c0.779,0.759 1.168,1.802 1.168,3.132Zm-2.393,0c0,-1.503 -0.734,-2.254 -2.204,-2.254l-2.592,0l0,4.471l2.553,0c0.705,0 1.254,-0.195 1.65,-0.582c0.396,-0.389 0.593,-0.934 0.593,-1.635Z" style="fill:#fff;fill-rule:nonzero;"/><path d="M79.722,21.386c0,1.49 -0.417,2.691 -1.253,3.603c-0.836,0.91 -1.918,1.366 -3.251,1.366c-1.329,0 -2.414,-0.456 -3.249,-1.366c-0.836,-0.912 -1.253,-2.113 -1.253,-3.603c0,-1.49 0.417,-2.688 1.253,-3.593c0.835,-0.905 1.92,-1.358 3.249,-1.358c1.345,0 2.432,0.453 3.261,1.358c0.829,0.905 1.243,2.103 1.243,3.593Zm-2.129,0.009c0,-0.932 -0.217,-1.673 -0.649,-2.219c-0.435,-0.546 -1.009,-0.82 -1.726,-0.82c-0.715,0 -1.29,0.277 -1.724,0.829c-0.432,0.553 -0.649,1.289 -0.649,2.21c0,0.934 0.217,1.673 0.649,2.219c0.434,0.547 1.009,0.82 1.724,0.82c0.717,0 1.291,-0.273 1.726,-0.82c0.432,-0.546 0.649,-1.285 0.649,-2.219Z" style="fill:#fff;fill-rule:nonzero;"/><path d="M88.575,23.104c0,0.936 -0.364,1.705 -1.093,2.308c-0.728,0.604 -1.689,0.905 -2.882,0.905c-1.861,0 -3.298,-0.553 -4.316,-1.662l1.564,-1.311c0.779,0.764 1.69,1.146 2.732,1.146c0.579,0 1.037,-0.115 1.377,-0.343c0.339,-0.227 0.508,-0.513 0.508,-0.859c0,-0.394 -0.194,-0.664 -0.585,-0.812c-0.226,-0.086 -0.828,-0.204 -1.809,-0.352c-1.18,-0.171 -2.021,-0.43 -2.524,-0.775c-0.591,-0.418 -0.885,-1.046 -0.885,-1.884c0,-0.85 0.358,-1.561 1.073,-2.134c0.716,-0.573 1.671,-0.859 2.865,-0.859c1.444,0 2.675,0.475 3.693,1.423l-1.225,1.292c-0.741,-0.651 -1.584,-0.979 -2.525,-0.979c-1.207,0 -1.808,0.34 -1.808,1.017c0,0.394 0.275,0.665 0.828,0.813c0.779,0.123 1.551,0.252 2.317,0.387c1.797,0.332 2.695,1.226 2.695,2.679Z" style="fill:#fff;fill-rule:nonzero;"/><path d="M93.44,26.096c-0.339,0.086 -0.692,0.13 -1.055,0.13c-1.162,0 -1.93,-0.258 -2.304,-0.776c-0.298,-0.406 -0.447,-1.176 -0.447,-2.309l0,-9.131l2.035,0l0,2.683l1.807,0l0,1.663l-1.807,0l0,4.655c0,0.543 0.068,0.901 0.207,1.072c0.163,0.222 0.509,0.333 1.037,0.333c0.151,0 0.326,-0.012 0.527,-0.037l0,1.717Z" style="fill:#fff;fill-rule:nonzero;"/></g><g><path d="M32.604,20.014c0,0 -1.36,1.038 -3.04,1.038c-1.678,0 -3.04,-1.038 -3.04,-1.038c0,0 1.362,-0.858 3.04,-0.858c1.68,0 3.04,0.858 3.04,0.858Z" style="fill:#fff;fill-rule:nonzero;"/><path d="M36.808,12.278c0,0 -1.607,-0.612 -2.545,-1.976c-0.94,-1.364 -0.854,-2.967 -0.854,-2.967c0,0 1.607,0.594 2.546,1.959c0.938,1.364 0.853,2.984 0.853,2.984Z" style="fill:#fff;fill-rule:nonzero;"/><path d="M33.729,15.617c0,0 -1.726,0.293 -3.21,-0.48c-1.482,-0.773 -2.159,-2.32 -2.159,-2.32c0,0 1.92,-0.302 3.402,0.47c1.483,0.773 1.967,2.33 1.967,2.33Z" style="fill:#fff;fill-rule:nonzero;"/><path d="M37.982,22.572c0.879,-0.266 3.38,-0.894 3.38,-0.894c0,0 -3.737,-1.546 -3.585,-3.71c0.431,-2.662 2.381,-4.459 5.48,-5.791c-0.382,-0.054 -0.772,-0.081 -1.169,-0.08c-4.452,0.02 -8.047,3.576 -8.026,7.942c0.019,4.366 3.646,7.889 8.099,7.869c0.372,-0.002 1.545,-0.088 1.903,-0.137c-3.16,-0.395 -5.968,-2.8 -6.082,-5.199Z" style="fill:#fff;fill-rule:nonzero;"/><path d="M36.808,27.722c0,0 -1.515,0.52 -2.455,1.885c-0.939,1.365 -0.944,3.058 -0.944,3.058c0,0 1.425,-0.594 2.363,-1.959c0.938,-1.364 1.036,-2.984 1.036,-2.984Z" style="fill:#fff;fill-rule:nonzero;"/><path d="M33.729,24.383c0,0 -1.617,-0.129 -3.101,0.644c-1.481,0.772 -2.268,2.156 -2.268,2.156c0,0 1.601,0.129 3.083,-0.644c1.482,-0.771 2.286,-2.156 2.286,-2.156Z" style="fill:#fff;fill-rule:nonzero;"/></g></svg>