<?xml version="1.0" encoding="UTF-8" standalone="no"?><!DOCTYPE svg PUBLIC "-//W3C//DTD SVG 1.1//EN" "http://www.w3.org/Graphics/SVG/1.1/DTD/svg11.dtd"><svg width="100%" height="100%" viewBox="0 0 120 40" version="1.1" xmlns="http://www.w3.org/2000/svg" xmlns:xlink="http://www.w3.org/1999/xlink" xml:space="preserve" xmlns:serif="http://www.serif.com/" style="fill-rule:evenodd;clip-rule:evenodd;stroke-linejoin:round;stroke-miterlimit:1.41421;"><g><path d="M14.858,13.972c-1.383,0 -2.001,0.617 -2.001,2l0,8.885c0,0.535 0.172,0.707 0.706,0.707l0.175,0c0.534,0 0.705,-0.172 0.705,-0.707l0,-3.456l3.003,0c2.666,0 3.906,-1.181 3.906,-3.715c0,-2.534 -1.24,-3.714 -3.906,-3.714l-2.588,0Zm-0.415,2.211c0,-0.519 0.194,-0.712 0.711,-0.712l2.292,0c1.47,0 2.32,0.363 2.32,2.215c0,1.448 -0.369,2.233 -2.32,2.233l-3.003,0l0,-3.736Zm32.65,-2.208c-1.082,0 -1.484,0.178 -1.484,1.162l0,2.307c0,0.006 -0.001,0.01 -0.001,0.016l0,0.505c-0.001,0.018 -0.002,0.034 -0.002,0.051l0,3.224c0,0.394 -0.076,0.708 -0.232,0.95c-0.295,0.455 -0.879,0.661 -1.815,0.662c-0.934,-0.001 -1.517,-0.206 -1.813,-0.661c-0.156,-0.243 -0.232,-0.556 -0.232,-0.951l0,-3.224c0,-0.017 -0.002,-0.033 -0.002,-0.051l0,-0.505c0,-0.006 -0.001,-0.01 -0.001,-0.016l0,-2.307c0,-0.984 -0.403,-1.162 -1.484,-1.162l-0.34,0c-1.083,0 -1.486,0.178 -1.486,1.162l0,6.103c0,0.982 0.222,1.812 0.649,2.482c0.827,1.298 2.426,1.99 4.7,1.99l0.018,0c2.274,0 3.875,-0.692 4.701,-1.99c0.427,-0.67 0.649,-1.5 0.649,-2.482l0,-6.103c0,-0.984 -0.402,-1.162 -1.485,-1.162l-0.34,0Zm-24.318,2.722c-0.433,0.094 -0.612,0.213 -0.612,0.704l0,0.14c0,0.192 0.028,0.325 0.089,0.42c0.071,0.108 0.186,0.163 0.34,0.163c0.076,0 0.164,-0.012 0.268,-0.038c0.246,-0.063 1.034,-0.189 1.897,-0.189c1.548,0 2.18,0.428 2.18,1.48l0,0.938l-1.953,0c-2.509,0 -3.678,0.848 -3.678,2.666c0,1.763 1.206,2.734 3.399,2.734c2.605,0 3.766,-0.887 3.766,-2.875l0,-3.463c0,-1.923 -1.238,-2.857 -3.784,-2.857c-1.026,0 -1.668,0.13 -1.912,0.177Zm0.064,6.284c0,-1.016 0.607,-1.411 2.162,-1.411l1.936,0l0,1.218c0,0.993 -0.368,1.568 -2.25,1.568c-1.244,0 -1.848,-0.45 -1.848,-1.375Zm13.532,-6.206c-0.523,0 -0.728,0.162 -0.844,0.663l-1.45,6.034c-0.182,0.743 -0.435,0.877 -0.872,0.877c-0.534,0 -0.748,-0.127 -0.96,-0.879l-1.644,-6.035c-0.136,-0.505 -0.336,-0.66 -0.859,-0.66l-0.14,0c-0.211,0 -0.421,0.02 -0.529,0.161c-0.108,0.141 -0.072,0.351 -0.015,0.558l1.66,6.086c0.312,1.165 0.683,2.128 2.068,2.128c0.258,0 0.496,-0.035 0.696,-0.101c-0.42,1.319 -0.848,1.902 -2.108,2.031c-0.255,0.021 -0.421,0.059 -0.514,0.183c-0.095,0.128 -0.074,0.312 -0.039,0.477l0.034,0.156c0.076,0.361 0.203,0.585 0.609,0.585c0.043,0 0.088,-0.003 0.137,-0.007c1.881,-0.123 2.888,-1.136 3.479,-3.495l2.012,-8.048c0.047,-0.206 0.076,-0.417 -0.035,-0.554c-0.11,-0.14 -0.32,-0.16 -0.529,-0.16l-0.157,0Z" style="fill:#fff;fill-rule:nonzero;"/><path d="M52.743,13.168l-1.781,0c-0.193,0 -0.351,-0.157 -0.351,-0.353l0.002,-1.8c0,-0.196 0.156,-0.352 0.35,-0.352l1.78,0c0.195,0.001 0.352,0.158 0.352,0.352l-0.001,1.802c-0.001,0.194 -0.157,0.351 -0.351,0.351" style="fill:#fff;fill-rule:nonzero;"/><path d="M50.137,16.54l-2.395,0c-0.26,0 -0.473,-0.212 -0.473,-0.474l0.001,-2.423c0,-0.263 0.212,-0.475 0.472,-0.475l2.395,0.001c0.262,0.001 0.474,0.212 0.474,0.474l0,2.425c-0.002,0.261 -0.212,0.472 -0.474,0.472" style="fill:#fff;fill-rule:nonzero;"/><path d="M50.371,10.663l-1.209,0c-0.132,0 -0.24,-0.106 -0.24,-0.238l0.002,-1.225c0,-0.131 0.106,-0.239 0.238,-0.239l1.209,0.001c0.132,0 0.239,0.107 0.239,0.239l0,1.224c0,0.132 -0.107,0.238 -0.239,0.238" style="fill:#fff;fill-rule:nonzero;"/><path d="M58.82,19.756l0,-0.194c0,-0.259 0.046,-0.433 0.137,-0.521c0.09,-0.087 0.265,-0.131 0.526,-0.131l2.502,0l0,-2.446c0,-0.287 0.047,-0.478 0.14,-0.571c0.092,-0.093 0.282,-0.139 0.568,-0.139l0.21,0c0.287,0 0.477,0.046 0.569,0.139c0.092,0.093 0.139,0.284 0.139,0.571l0,2.446l2.503,0c0.26,0 0.435,0.044 0.523,0.131c0.087,0.088 0.13,0.262 0.13,0.521l0,0.194c0,0.26 -0.043,0.435 -0.13,0.525c-0.088,0.09 -0.263,0.135 -0.523,0.135l-2.503,0l0,2.421c0,0.288 -0.047,0.478 -0.139,0.572c-0.092,0.092 -0.282,0.139 -0.569,0.139l-0.21,0c-0.286,0 -0.476,-0.047 -0.568,-0.139c-0.093,-0.094 -0.14,-0.284 -0.14,-0.572l0,-2.421l-2.502,0c-0.261,0 -0.436,-0.045 -0.526,-0.135c-0.091,-0.09 -0.137,-0.265 -0.137,-0.525Z" style="fill:#fff;fill-rule:nonzero;"/><path d="M73.174,24.42l0,-8.498c0,-0.693 0.155,-1.196 0.466,-1.506c0.311,-0.31 0.812,-0.465 1.507,-0.465l2.741,0c1.338,0 2.296,0.298 2.874,0.893c0.578,0.595 0.868,1.457 0.868,2.585c0,0.92 -0.19,1.661 -0.568,2.222c-0.377,0.561 -0.998,0.932 -1.862,1.113l2.396,3.69c0.151,0.237 0.228,0.412 0.228,0.525c0,0.033 -0.005,0.062 -0.017,0.084c-0.056,0.102 -0.265,0.153 -0.626,0.153l-0.296,0c-0.368,0 -0.642,-0.051 -0.825,-0.153c-0.184,-0.101 -0.372,-0.305 -0.563,-0.609l-2.269,-3.555l-2.233,0l0,3.521c0,0.322 -0.054,0.534 -0.162,0.639c-0.107,0.104 -0.321,0.157 -0.643,0.157l-0.219,0c-0.322,0 -0.536,-0.053 -0.64,-0.157c-0.104,-0.105 -0.157,-0.317 -0.157,-0.639Zm1.821,-5.238l2.893,0c0.723,0 1.224,-0.146 1.503,-0.436c0.279,-0.292 0.419,-0.73 0.419,-1.317c0,-0.615 -0.139,-1.062 -0.415,-1.341c-0.277,-0.279 -0.778,-0.419 -1.507,-0.419l-2.225,0c-0.237,0 -0.408,0.051 -0.513,0.152c-0.103,0.101 -0.155,0.268 -0.155,0.499l0,2.862Z" style="fill:#fff;fill-rule:nonzero;"/><path d="M83.128,22.74c0,-0.474 0.081,-0.882 0.245,-1.225c0.164,-0.342 0.401,-0.613 0.715,-0.814c0.313,-0.2 0.681,-0.348 1.104,-0.44c0.424,-0.094 0.915,-0.141 1.473,-0.141l1.913,0l0,-0.853c0,-0.505 -0.172,-0.853 -0.516,-1.044c-0.345,-0.191 -0.855,-0.286 -1.533,-0.286c-0.694,0 -1.3,0.051 -1.819,0.154c-0.254,0.051 -0.424,0.038 -0.512,-0.041c-0.087,-0.078 -0.132,-0.247 -0.132,-0.504l0,-0.243c0,-0.252 0.045,-0.427 0.132,-0.524c0.088,-0.098 0.252,-0.17 0.495,-0.215c0.531,-0.089 1.109,-0.134 1.735,-0.134c0.608,0 1.142,0.049 1.601,0.145c0.458,0.095 0.865,0.251 1.219,0.465c0.356,0.215 0.624,0.508 0.808,0.88c0.182,0.373 0.274,0.824 0.274,1.354l0,3.36c0,0.954 -0.294,1.655 -0.883,2.104c-0.588,0.448 -1.521,0.672 -2.799,0.672c-2.347,0 -3.52,-0.89 -3.52,-2.67Zm1.785,-0.034c0,0.249 0.045,0.456 0.135,0.62c0.091,0.164 0.222,0.286 0.394,0.366c0.172,0.078 0.348,0.134 0.529,0.165c0.181,0.031 0.395,0.046 0.644,0.046c0.248,0 0.46,-0.008 0.638,-0.025c0.178,-0.017 0.356,-0.054 0.533,-0.11c0.178,-0.056 0.32,-0.133 0.427,-0.229c0.107,-0.096 0.196,-0.227 0.263,-0.391c0.068,-0.165 0.102,-0.362 0.102,-0.594l0,-1.079l-1.913,0c-0.598,0 -1.039,0.096 -1.324,0.288c-0.285,0.193 -0.428,0.507 -0.428,0.943Z" style="fill:#fff;fill-rule:nonzero;"/><path d="M91.362,17.669l0,-0.168c0,-0.241 0.039,-0.409 0.117,-0.501c0.079,-0.092 0.231,-0.162 0.461,-0.207l0.911,-0.177l0.206,-1.63c0.034,-0.249 0.099,-0.416 0.196,-0.502c0.097,-0.084 0.271,-0.126 0.522,-0.126l0.23,0c0.251,0 0.419,0.042 0.505,0.126c0.085,0.086 0.128,0.253 0.128,0.502l0,1.63l2.407,0c0.292,0 0.486,0.049 0.581,0.143c0.095,0.096 0.143,0.29 0.143,0.582l0,0.21c0,0.298 -0.048,0.493 -0.143,0.586c-0.095,0.092 -0.289,0.138 -0.581,0.138l-2.407,0l0,3.942c0,0.542 0.115,0.929 0.346,1.161c0.232,0.232 0.565,0.348 0.999,0.348c0.491,0 0.96,-0.054 1.405,-0.161c0.118,-0.022 0.22,-0.034 0.305,-0.034c0.118,0.006 0.206,0.031 0.262,0.076c0.09,0.08 0.139,0.269 0.144,0.568l0,0.211c0,0.293 -0.047,0.496 -0.139,0.605c-0.094,0.111 -0.284,0.196 -0.572,0.258c-0.468,0.09 -0.936,0.135 -1.405,0.135c-0.468,0 -0.886,-0.053 -1.255,-0.16c-0.368,-0.108 -0.696,-0.281 -0.984,-0.521c-0.287,-0.241 -0.508,-0.571 -0.661,-0.991c-0.154,-0.422 -0.232,-0.926 -0.232,-1.513l0,-3.924l-0.894,0c-0.24,0 -0.399,-0.04 -0.478,-0.121c-0.078,-0.082 -0.117,-0.243 -0.117,-0.485Z" style="fill:#fff;fill-rule:nonzero;"/><path d="M99.039,17.395c-0.04,-0.157 -0.06,-0.289 -0.06,-0.393c0,-0.104 0.02,-0.182 0.06,-0.233c0.078,-0.101 0.277,-0.153 0.596,-0.153l0.226,0c0.32,0 0.544,0.053 0.676,0.158c0.131,0.105 0.233,0.313 0.306,0.625l1.372,5.585c0.079,0.351 0.186,0.581 0.32,0.693c0.133,0.111 0.34,0.168 0.618,0.168c0.216,0 0.387,-0.058 0.512,-0.174c0.125,-0.114 0.228,-0.345 0.307,-0.689l1.304,-5.587c0.068,-0.31 0.167,-0.517 0.297,-0.622c0.129,-0.104 0.357,-0.157 0.679,-0.157l0.221,0c0.322,0 0.525,0.052 0.611,0.153c0.039,0.051 0.059,0.131 0.059,0.238c0,0.101 -0.02,0.232 -0.059,0.39l-1.868,7.82c-0.294,1.196 -0.74,2.103 -1.336,2.724c-0.597,0.62 -1.393,0.984 -2.388,1.091c-0.226,0.023 -0.398,-0.013 -0.513,-0.11c-0.116,-0.096 -0.206,-0.274 -0.268,-0.533l-0.05,-0.228c-0.057,-0.243 -0.047,-0.41 0.029,-0.504c0.076,-0.092 0.231,-0.156 0.463,-0.19c0.588,-0.085 1.06,-0.308 1.416,-0.668c0.356,-0.362 0.631,-0.883 0.823,-1.565c-0.181,0.078 -0.447,0.117 -0.798,0.117c-0.276,0 -0.52,-0.036 -0.729,-0.11c-0.21,-0.074 -0.382,-0.168 -0.522,-0.283c-0.138,-0.116 -0.262,-0.275 -0.373,-0.478c-0.11,-0.204 -0.2,-0.404 -0.267,-0.601c-0.067,-0.198 -0.138,-0.445 -0.212,-0.745l-1.452,-5.739Z" style="fill:#fff;fill-rule:nonzero;"/></g></svg>