<?xml version="1.0" encoding="UTF-8" standalone="no"?><!DOCTYPE svg PUBLIC "-//W3C//DTD SVG 1.1//EN" "http://www.w3.org/Graphics/SVG/1.1/DTD/svg11.dtd"><svg width="100%" height="100%" viewBox="0 0 120 40" version="1.1" xmlns="http://www.w3.org/2000/svg" xmlns:xlink="http://www.w3.org/1999/xlink" xml:space="preserve" xmlns:serif="http://www.serif.com/" style="fill-rule:evenodd;clip-rule:evenodd;stroke-linejoin:round;stroke-miterlimit:1.41421;"><path d="M71.411,25.755c-2.789,0.486 -5.02,-0.226 -5.862,-1.87c-0.351,-0.686 -0.466,-2.071 -0.251,-3.035c0.625,-2.808 3.392,-4.556 6.503,-4.107c2.455,0.354 3.371,1.795 2.794,4.397l-0.154,0.691l-6.519,0l0.062,0.46c0.136,1.017 1.008,1.576 2.447,1.569c0.964,-0.005 1.688,-0.185 2.581,-0.636c0.821,-0.416 0.944,-0.392 0.85,0.164c-0.042,0.249 -0.159,0.757 -0.259,1.13c-0.178,0.658 -0.198,0.683 -0.714,0.874c-0.292,0.108 -0.957,0.272 -1.478,0.363Zm-38.823,0.05c-2.594,0.406 -4.625,-0.508 -5.077,-2.282c-0.29,-1.143 -0.048,-2.884 0.561,-4.026c0.647,-1.214 2.112,-2.32 3.465,-2.62c2.646,-0.587 4.813,0.194 5.41,1.947c0.218,0.643 0.222,2.101 0.007,2.929c-0.547,2.099 -2.305,3.732 -4.366,4.052Zm12.045,-0.218c0.395,-0.131 0.777,-0.296 0.849,-0.367c0.072,-0.071 0.236,-0.552 0.365,-1.068c0.128,-0.518 0.26,-1.027 0.291,-1.134c0.08,-0.271 -0.334,-0.254 -0.732,0.029c-0.728,0.519 -1.469,0.771 -2.266,0.771c-1.388,0.002 -1.933,-0.532 -1.933,-1.898c0,-1.071 0.313,-1.831 1.012,-2.459c0.648,-0.584 1.217,-0.772 2.092,-0.693c0.694,0.061 1.134,0.257 1.699,0.753c0.609,0.534 0.722,0.435 1.064,-0.933l0.301,-1.198l-0.376,-0.157c-1.212,-0.507 -3.211,-0.645 -4.505,-0.311c-1.804,0.466 -3.231,1.661 -3.913,3.275c-0.255,0.606 -0.294,0.85 -0.298,1.91c-0.003,1.112 0.022,1.269 0.306,1.846c0.663,1.352 2.135,2.012 4.276,1.918c0.667,-0.029 1.313,-0.133 1.768,-0.284Zm17.036,-11.051c1.314,0 1.429,0.017 1.378,0.194c-0.072,0.245 -0.511,2.129 -0.511,2.192c0,0.025 0.572,0.046 1.272,0.046c0.698,0 1.27,0.036 1.27,0.081c0,0.044 -0.083,0.466 -0.185,0.939l-0.184,0.859l-1.305,0c-1.264,0 -1.308,0.008 -1.364,0.249c-0.888,3.779 -0.973,4.357 -0.673,4.605c0.256,0.213 0.896,0.264 1.498,0.119c0.312,-0.074 0.593,-0.11 0.624,-0.079c0.031,0.032 -0.028,0.456 -0.133,0.945l-0.191,0.886l-0.682,0.118c-0.905,0.158 -2.304,0.139 -2.969,-0.04c-0.701,-0.188 -1.176,-0.664 -1.291,-1.292c-0.098,-0.536 -0.024,-1.034 0.455,-3.06c0.476,-2.01 0.428,-2.451 -0.265,-2.451c-0.281,0 -0.315,-0.032 -0.255,-0.249c0.037,-0.137 0.126,-0.559 0.198,-0.939l0.13,-0.691l0.581,0c0.458,0 0.593,-0.041 0.639,-0.193c0.031,-0.107 0.163,-0.653 0.292,-1.216l0.236,-1.023l1.435,0Zm-42.015,9.698c0.19,-0.805 0.393,-1.643 0.45,-1.861l0.105,-0.398l1.41,-0.069c3.57,-0.173 5.633,-1.448 6.107,-3.773c0.153,-0.753 0.077,-1.683 -0.181,-2.197c-0.298,-0.593 -0.938,-1.167 -1.558,-1.399c-0.865,-0.323 -2.211,-0.44 -5.089,-0.441l-2.573,-0.001l0.182,0.352c0.134,0.258 0.166,0.518 0.123,0.967c-0.079,0.808 -2.011,8.972 -2.218,9.372c-0.087,0.17 -0.296,0.446 -0.462,0.611l-0.301,0.302l3.658,0l0.347,-1.465Zm35.911,1.05c0.172,-0.649 0.335,-1.396 0.338,-1.547c0.002,-0.106 -0.512,-0.138 -2.212,-0.138l-2.213,0l2.738,-2.43c2.72,-2.412 2.741,-2.434 2.924,-3.066c0.101,-0.351 0.188,-0.75 0.193,-0.887l0.01,-0.251l-4.113,0.03l-4.113,0.028l-0.193,0.83c-0.105,0.455 -0.194,0.889 -0.197,0.964c-0.003,0.101 0.519,0.143 2.077,0.165l2.081,0.031l-2.299,2.044c-1.265,1.125 -2.503,2.222 -2.751,2.44c-0.383,0.335 -0.482,0.518 -0.66,1.208c-0.115,0.447 -0.184,0.853 -0.153,0.903c0.031,0.05 1.941,0.091 4.244,0.091l4.189,0l0.11,-0.415Zm24.423,-8.316l0.622,1.216c0.341,0.669 0.663,1.215 0.714,1.215c0.051,0 0.547,-0.546 1.104,-1.215l1.014,-1.216l4.206,0l-4.475,4.366l1.184,2.03c0.651,1.118 1.21,2.1 1.242,2.183c0.048,0.124 -0.248,0.152 -1.638,0.151l-1.698,-0.002l-0.651,-1.27c-0.357,-0.698 -0.688,-1.269 -0.734,-1.269c-0.046,0 -0.57,0.572 -1.164,1.271l-1.081,1.271l-2.026,0c-1.113,0 -2.027,-0.038 -2.028,-0.083c-0.002,-0.046 0.995,-1.053 2.215,-2.238l2.218,-2.156l-0.865,-1.491c-0.477,-0.82 -1.029,-1.778 -1.229,-2.128l-0.362,-0.635l3.432,0Zm11.811,8.451c0.743,-0.221 1.463,-0.889 3.497,-3.248c3.239,-3.757 4.032,-4.218 8.296,-4.824c0.729,-0.103 1.426,-0.228 1.547,-0.276c0.122,-0.049 -2.415,-0.089 -5.637,-0.09l-5.856,-0.002l-3.035,2.965c-2.622,2.563 -3.02,2.995 -2.928,3.178c0.058,0.118 0.374,0.721 0.704,1.34l0.598,1.126l1.123,0c0.686,0 1.343,-0.066 1.691,-0.169Zm-60.845,-1.703c-0.463,-0.292 -0.577,-0.606 -0.577,-1.596c0,-1.932 1.075,-3.495 2.405,-3.495c0.944,0 1.399,0.614 1.38,1.854c-0.023,1.409 -0.504,2.516 -1.362,3.126c-0.506,0.36 -1.365,0.412 -1.846,0.111Zm57.156,-1.964c0.369,-0.348 1.786,-1.717 3.144,-3.04l2.471,-2.406l3.781,0c3.759,0 3.786,-0.003 4.602,-0.281c1.069,-0.364 3.159,-0.779 4.688,-0.929c0.669,-0.065 1.365,-0.135 1.548,-0.156c0.182,-0.021 -3.217,-0.046 -7.554,-0.055l-7.884,-0.016l-3.111,3.049c-1.712,1.677 -3.127,3.091 -3.146,3.14c-0.038,0.104 0.63,1.325 0.726,1.325c0.034,0 0.365,-0.284 0.735,-0.631Zm-16.29,-1.689l0,-0.378c0,-0.529 -0.435,-1.02 -0.984,-1.112c-0.508,-0.086 -1.276,0.1 -1.658,0.399c-0.256,0.202 -0.784,0.895 -0.784,1.03c0,0.032 0.771,0.061 1.712,0.061l1.714,0Zm-51.057,-0.951c0,-0.037 0.16,-0.638 0.356,-1.337l0.356,-1.267l1.128,0.037c1.418,0.046 1.733,0.224 1.785,1.004c0.028,0.43 -0.017,0.56 -0.308,0.892c-0.461,0.525 -1.135,0.737 -2.342,0.737c-0.537,0 -0.975,-0.03 -0.975,-0.066Z" style="fill:#fff;"/></svg>