<?xml version="1.0" encoding="UTF-8" standalone="no"?><!DOCTYPE svg PUBLIC "-//W3C//DTD SVG 1.1//EN" "http://www.w3.org/Graphics/SVG/1.1/DTD/svg11.dtd"><svg width="100%" height="100%" viewBox="0 0 120 40" version="1.1" xmlns="http://www.w3.org/2000/svg" xmlns:xlink="http://www.w3.org/1999/xlink" xml:space="preserve" xmlns:serif="http://www.serif.com/" style="fill-rule:evenodd;clip-rule:evenodd;stroke-linejoin:round;stroke-miterlimit:1.41421;"><path d="M86.998,8.502l0,22.996l-53.996,0l0,-22.996l53.996,0Zm-27.598,2.5c4.965,0 8.998,4.032 8.998,8.998c0,4.966 -4.033,8.998 -8.998,8.998c-4.966,0 -8.998,-4.032 -8.998,-8.998c0,-4.966 4.032,-8.998 8.998,-8.998Zm0.53,2.459l0,1.485c0.783,0.112 1.389,0.444 1.815,0.995c0.428,0.551 0.641,1.267 0.641,2.15l-1.633,0c0,-0.567 -0.126,-1.014 -0.381,-1.341c-0.253,-0.325 -0.599,-0.488 -1.035,-0.488c-0.432,0 -0.769,0.117 -1.012,0.35c-0.243,0.234 -0.365,0.569 -0.365,1.006c0,0.391 0.121,0.704 0.362,0.941c0.239,0.237 0.648,0.46 1.224,0.671c0.576,0.212 1.027,0.408 1.355,0.588c0.329,0.179 0.606,0.385 0.831,0.617c0.226,0.23 0.399,0.498 0.518,0.799c0.123,0.302 0.183,0.655 0.183,1.059c0,0.761 -0.232,1.377 -0.698,1.849c-0.466,0.471 -1.115,0.751 -1.946,0.837l0,1.316l-1.073,0l0,-1.309c-0.89,-0.099 -1.577,-0.419 -2.055,-0.958c-0.478,-0.54 -0.719,-1.255 -0.719,-2.146l1.639,0c0,0.566 0.143,1.004 0.43,1.316c0.285,0.31 0.689,0.465 1.211,0.465c0.513,0 0.902,-0.124 1.171,-0.37c0.268,-0.249 0.4,-0.577 0.4,-0.986c0,-0.382 -0.12,-0.698 -0.363,-0.949c-0.244,-0.249 -0.649,-0.473 -1.215,-0.674c-0.566,-0.2 -1.007,-0.385 -1.323,-0.556c-1.048,-0.563 -1.571,-1.395 -1.571,-2.496c0,-0.747 0.228,-1.36 0.682,-1.844c0.453,-0.48 1.07,-0.766 1.848,-0.855l0,-1.472l1.079,0Zm17.868,4.539c1.103,0 1.999,0.896 1.999,2c0,1.104 -0.896,2 -1.999,2c-1.103,0 -1.999,-0.896 -1.999,-2c0,-1.104 0.896,-2 1.999,-2Zm-36.797,0c1.104,0 2,0.896 2,2c0,1.104 -0.896,2 -2,2c-1.104,0 -1.999,-0.896 -1.999,-2c0,-1.104 0.895,-2 1.999,-2Z" style="fill:#fff;"/></svg>