<?xml version="1.0" encoding="UTF-8" standalone="no"?><!DOCTYPE svg PUBLIC "-//W3C//DTD SVG 1.1//EN" "http://www.w3.org/Graphics/SVG/1.1/DTD/svg11.dtd"><svg width="100%" height="100%" viewBox="0 0 120 40" version="1.1" xmlns="http://www.w3.org/2000/svg" xmlns:xlink="http://www.w3.org/1999/xlink" xml:space="preserve" xmlns:serif="http://www.serif.com/" style="fill-rule:evenodd;clip-rule:evenodd;stroke-linejoin:bevel;stroke-miterlimit:1.5;"><g><circle cx="59.822" cy="20" r="13.042" style="fill:none;stroke:#fff;stroke-width:2.32px;"/><path d="M60.492,13.989c1.261,0.112 2.177,0.357 2.746,0.737l0,2.294l-0.988,0.034l-0.385,-1.358c-0.457,-0.234 -1.055,-0.35 -1.792,-0.35c-1.507,0 -2.26,0.479 -2.26,1.439c0,0.536 0.203,0.98 0.611,1.331c0.408,0.352 1.041,0.684 1.901,0.997c2.098,0.769 3.147,1.998 3.147,3.683c0,0.86 -0.251,1.582 -0.754,2.168c-0.502,0.587 -1.238,0.946 -2.21,1.08l0.268,2.378l-1.858,0l0.268,-2.327c-0.513,-0.034 -1.01,-0.123 -1.49,-0.268c-0.748,-0.224 -1.256,-0.452 -1.524,-0.687l0,-2.394l1.004,0l0.469,1.558c0.436,0.345 1.144,0.518 2.127,0.518c0.636,0 1.147,-0.168 1.532,-0.502c0.385,-0.335 0.578,-0.756 0.578,-1.265c0,-0.507 -0.21,-0.987 -0.629,-1.439c-0.418,-0.452 -1.135,-0.868 -2.151,-1.248c-1.92,-0.725 -2.88,-1.741 -2.88,-3.047c0,-0.971 0.28,-1.739 0.838,-2.303c0.558,-0.563 1.266,-0.901 2.126,-1.012l-0.268,-2.428l1.858,0l-0.284,2.411Z" style="fill:#fff;fill-rule:nonzero;"/><path d="M51.43,29.98l0,0.019l-10.714,0l0,4.285l-8.57,-8.57l8.57,-8.571l0,4.285l6.142,0c0.373,3.421 2.072,6.447 4.572,8.552Z" style="fill:#fff;"/><path d="M68.57,10.331l0,-0.33l10.714,0l0,-4.285l8.57,8.57l-8.57,8.571l0,-4.285l-6.498,0c-0.355,-3.257 -1.911,-6.154 -4.216,-8.241Z" style="fill:#fff;"/></g></svg>